<svg width="250" height="25" viewBox="0 0 250 25" xmlns="http://www.w3.org/2000/svg" role="img" aria-label="Electrical Work Checks">
  <style>
    .ink { fill: #172032; }
    @media (prefers-color-scheme: dark) {
      .ink { fill: rgb(230,234,242); }
    }
  </style>
  <g class="ink">
    <g class="ink" transform="translate(0,7) scale(1)"><path fill-rule="evenodd" d="M18 5.25a2.25 2.25 0 0 0-2.012-2.238A2.25 2.25 0 0 0 13.75 1h-1.5a2.25 2.25 0 0 0-2.238 2.012c-.875.092-1.6.686-1.884 1.488H11A2.5 2.5 0 0 1 13.5 7v7h2.25A2.25 2.25 0 0 0 18 11.75v-6.5ZM12.25 2.5a.75.75 0 0 0-.75.75v.25h3v-.25a.75.75 0 0 0-.75-.75h-1.5Z" clip-rule="evenodd"></path><path fill-rule="evenodd" d="M3 6a1 1 0 0 0-1 1v10a1 1 0 0 0 1 1h8a1 1 0 0 0 1-1V7a1 1 0 0 0-1-1H3Zm6.874 4.166a.75.75 0 1 0-1.248-.832l-2.493 3.739-.853-.853a.75.75 0 0 0-1.06 1.06l1.5 1.5a.75.75 0 0 0 1.154-.114l3-4.5Z" clip-rule="evenodd"></path></g>
    <path d="M33.73 23.91L30.43 23.91L30.43 9.09L33.73 9.09L33.73 23.91M41.08 23.91L32.95 23.91L32.95 21.06L41.08 21.06L41.08 23.91M40.34 17.72L32.95 17.72L32.95 14.97L40.34 14.97L40.34 17.72M40.97 11.92L32.95 11.92L32.95 9.09L40.97 9.09L40.97 11.92M46.26 23.91L43.05 23.91L43.05 8.67L46.26 8.67L46.26 23.91M53.57 24.14L53.57 24.14Q51.91 24.14 50.62 23.46Q49.33 22.78 48.59 21.56Q47.86 20.34 47.86 18.81L47.86 18.81Q47.86 17.28 48.58 16.07Q49.31 14.86 50.55 14.17Q51.79 13.48 53.34 13.48L53.34 13.48Q54.85 13.48 56.01 14.13Q57.16 14.78 57.82 15.93Q58.48 17.09 58.48 18.58L58.48 18.58Q58.48 18.85 58.45 19.16Q58.42 19.46 58.34 19.86L58.34 19.86L49.54 19.88L49.54 17.68L56.97 17.66L55.59 18.58Q55.57 17.7 55.31 17.12Q55.06 16.54 54.57 16.24Q54.07 15.93 53.36 15.93L53.36 15.93Q52.6 15.93 52.05 16.28Q51.49 16.63 51.19 17.26Q50.88 17.89 50.88 18.79L50.88 18.79Q50.88 19.69 51.21 20.33Q51.53 20.97 52.13 21.32Q52.73 21.67 53.55 21.67L53.55 21.67Q54.31 21.67 54.91 21.4Q55.52 21.14 55.99 20.62L55.99 20.62L57.75 22.38Q56.99 23.26 55.92 23.7Q54.85 24.14 53.57 24.14M64.97 24.14L64.97 24.14Q63.4 24.14 62.12 23.45Q60.84 22.76 60.1 21.54Q59.37 20.32 59.37 18.81L59.37 18.81Q59.37 17.28 60.11 16.07Q60.86 14.86 62.14 14.17Q63.42 13.48 65.02 13.48L65.02 13.48Q66.21 13.48 67.21 13.89Q68.21 14.3 68.98 15.11L68.98 15.11L66.93 17.17Q66.57 16.77 66.1 16.58Q65.62 16.4 65.02 16.4L65.02 16.4Q64.32 16.4 63.79 16.7Q63.25 17 62.95 17.54Q62.64 18.08 62.64 18.79L62.64 18.79Q62.64 19.5 62.95 20.05Q63.25 20.6 63.8 20.91Q64.34 21.23 65.02 21.23L65.02 21.23Q65.65 21.23 66.14 21Q66.63 20.78 66.99 20.39L66.99 20.39L69.03 22.44Q68.23 23.28 67.22 23.71Q66.21 24.14 64.97 24.14M74.95 23.91L71.74 23.91L71.74 9.49L74.95 9.49L74.95 23.91M77.26 16.44L69.43 16.44L69.43 13.71L77.26 13.71L77.26 16.44M81.88 23.91L78.67 23.91L78.67 13.71L81.88 13.71L81.88 23.91M81.88 18.31L81.88 18.31L80.53 17.26Q80.93 15.47 81.88 14.48Q82.82 13.5 84.5 13.5L84.5 13.5Q85.24 13.5 85.79 13.72Q86.35 13.94 86.77 14.4L86.77 14.4L84.86 16.81Q84.65 16.58 84.34 16.46Q84.02 16.33 83.62 16.33L83.62 16.33Q82.82 16.33 82.35 16.83Q81.88 17.32 81.88 18.31M90.82 23.91L87.61 23.91L87.61 13.71L90.82 13.71L90.82 23.91M89.23 12.3L89.23 12.3Q88.47 12.3 87.98 11.79Q87.49 11.27 87.49 10.54L87.49 10.54Q87.49 9.78 87.98 9.28Q88.47 8.77 89.23 8.77L89.23 8.77Q89.98 8.77 90.47 9.28Q90.95 9.78 90.95 10.54L90.95 10.54Q90.95 11.27 90.47 11.79Q89.98 12.3 89.23 12.3M98.03 24.14L98.03 24.14Q96.45 24.14 95.17 23.45Q93.89 22.76 93.16 21.54Q92.42 20.32 92.42 18.81L92.42 18.81Q92.42 17.28 93.17 16.07Q93.91 14.86 95.19 14.17Q96.47 13.48 98.07 13.48L98.07 13.48Q99.27 13.48 100.26 13.89Q101.26 14.3 102.04 15.11L102.04 15.11L99.98 17.17Q99.62 16.77 99.15 16.58Q98.68 16.4 98.07 16.4L98.07 16.4Q97.38 16.4 96.84 16.7Q96.31 17 96 17.54Q95.7 18.08 95.7 18.79L95.7 18.79Q95.7 19.5 96 20.05Q96.31 20.6 96.85 20.91Q97.4 21.23 98.07 21.23L98.07 21.23Q98.7 21.23 99.19 21Q99.69 20.78 100.04 20.39L100.04 20.39L102.08 22.44Q101.28 23.28 100.27 23.71Q99.27 24.14 98.03 24.14M107.52 24.12L107.52 24.12Q106.11 24.12 105.01 23.43Q103.91 22.74 103.27 21.54Q102.63 20.34 102.63 18.81L102.63 18.81Q102.63 17.28 103.27 16.08Q103.91 14.88 105.01 14.19Q106.11 13.5 107.52 13.5L107.52 13.5Q108.55 13.5 109.38 13.9Q110.21 14.3 110.73 15Q111.26 15.7 111.32 16.61L111.32 16.61L111.32 21.02Q111.26 21.92 110.74 22.62Q110.23 23.33 109.39 23.72Q108.55 24.12 107.52 24.12M108.17 21.23L108.17 21.23Q109.2 21.23 109.83 20.54Q110.46 19.86 110.46 18.81L110.46 18.81Q110.46 18.1 110.18 17.55Q109.89 17 109.38 16.7Q108.86 16.4 108.19 16.4L108.19 16.4Q107.52 16.4 107 16.7Q106.49 17 106.19 17.55Q105.88 18.1 105.88 18.81L105.88 18.81Q105.88 19.5 106.18 20.05Q106.47 20.6 106.99 20.91Q107.52 21.23 108.17 21.23M113.48 23.91L110.33 23.91L110.33 21.16L110.82 18.68L110.33 16.21L110.33 13.71L113.48 13.71L113.48 23.91M118.96 23.91L115.75 23.91L115.75 8.67L118.96 8.67L118.96 23.91M131.79 23.91L129.21 23.91L124.45 9.09L127.72 9.09L131.21 20.49L129.93 20.49L133.33 9.09L135.91 9.09L139.31 20.49L138.05 20.49L141.52 9.09L144.77 9.09L140.01 23.91L137.42 23.91L134 12.51L135.22 12.51L131.79 23.91M149.85 24.14L149.85 24.14Q148.28 24.14 147.01 23.44Q145.74 22.74 145 21.52Q144.27 20.3 144.27 18.79L144.27 18.79Q144.27 17.28 145 16.08Q145.74 14.88 147 14.18Q148.26 13.48 149.85 13.48L149.85 13.48Q151.45 13.48 152.71 14.17Q153.97 14.86 154.71 16.07Q155.44 17.28 155.44 18.79L155.44 18.79Q155.44 20.3 154.71 21.52Q153.97 22.74 152.71 23.44Q151.45 24.14 149.85 24.14M149.85 21.23L149.85 21.23Q150.55 21.23 151.07 20.92Q151.6 20.62 151.88 20.06Q152.17 19.5 152.17 18.79L152.17 18.79Q152.17 18.08 151.87 17.54Q151.58 17 151.06 16.7Q150.55 16.4 149.85 16.4L149.85 16.4Q149.18 16.4 148.66 16.7Q148.13 17 147.84 17.55Q147.54 18.1 147.54 18.81L147.54 18.81Q147.54 19.5 147.84 20.06Q148.13 20.62 148.66 20.92Q149.18 21.23 149.85 21.23M160.25 23.91L157.04 23.91L157.04 13.71L160.25 13.71L160.25 23.91M160.25 18.31L160.25 18.31L158.91 17.26Q159.3 15.47 160.25 14.48Q161.2 13.5 162.88 13.5L162.88 13.5Q163.61 13.5 164.17 13.72Q164.72 13.94 165.14 14.4L165.14 14.4L163.23 16.81Q163.02 16.58 162.71 16.46Q162.39 16.33 161.99 16.33L161.99 16.33Q161.2 16.33 160.72 16.83Q160.25 17.32 160.25 18.31M176.29 23.91L172.51 23.91L168.94 18.62L172.49 13.71L176.08 13.71L171.8 19.23L171.91 17.91L176.29 23.91M169.2 23.91L165.98 23.91L165.98 8.67L169.2 8.67L169.2 23.91M188.77 24.14L188.77 24.14Q187.11 24.14 185.69 23.57Q184.27 22.99 183.21 21.94Q182.15 20.89 181.57 19.49Q180.98 18.1 180.98 16.48L180.98 16.48Q180.98 14.86 181.57 13.47Q182.15 12.07 183.2 11.04Q184.25 10.01 185.67 9.43Q187.09 8.86 188.75 8.86L188.75 8.86Q190.51 8.86 191.89 9.42Q193.26 9.99 194.29 10.98L194.29 10.98L192.09 13.2Q191.5 12.57 190.67 12.22Q189.84 11.86 188.75 11.86L188.75 11.86Q187.78 11.86 186.97 12.18Q186.16 12.51 185.59 13.12Q185.01 13.73 184.68 14.59Q184.36 15.45 184.36 16.48L184.36 16.48Q184.36 17.53 184.68 18.39Q185.01 19.25 185.59 19.86Q186.16 20.47 186.97 20.81Q187.78 21.14 188.75 21.14L188.75 21.14Q189.88 21.14 190.72 20.78Q191.56 20.43 192.17 19.8L192.17 19.8L194.4 22.02Q193.33 23.01 191.95 23.58Q190.57 24.14 188.77 24.14M205.86 23.91L202.65 23.91L202.65 18.1Q202.65 17.3 202.16 16.8Q201.66 16.31 200.91 16.31L200.91 16.31Q200.38 16.31 199.98 16.53Q199.58 16.75 199.35 17.16Q199.12 17.57 199.12 18.1L199.12 18.1L197.88 17.49Q197.88 16.29 198.39 15.39Q198.89 14.48 199.79 13.99Q200.7 13.5 201.87 13.5L201.87 13.5Q203.07 13.5 203.97 13.99Q204.88 14.48 205.37 15.36Q205.86 16.23 205.86 17.38L205.86 17.38L205.86 23.91M199.12 23.91L195.91 23.91L195.91 8.67L199.12 8.67L199.12 23.91M212.96 24.14L212.96 24.14Q211.3 24.14 210.01 23.46Q208.72 22.78 207.98 21.56Q207.25 20.34 207.25 18.81L207.25 18.81Q207.25 17.28 207.97 16.07Q208.7 14.86 209.94 14.17Q211.18 13.48 212.73 13.48L212.73 13.48Q214.24 13.48 215.4 14.13Q216.55 14.78 217.21 15.93Q217.87 17.09 217.87 18.58L217.87 18.58Q217.87 18.85 217.84 19.16Q217.81 19.46 217.73 19.86L217.73 19.86L208.93 19.88L208.93 17.68L216.36 17.66L214.98 18.58Q214.96 17.7 214.7 17.12Q214.45 16.54 213.96 16.24Q213.46 15.93 212.75 15.93L212.75 15.93Q211.99 15.93 211.44 16.28Q210.88 16.63 210.58 17.26Q210.27 17.89 210.27 18.79L210.27 18.79Q210.27 19.69 210.6 20.33Q210.92 20.97 211.52 21.32Q212.12 21.67 212.94 21.67L212.94 21.67Q213.7 21.67 214.3 21.4Q214.91 21.14 215.38 20.62L215.38 20.62L217.14 22.38Q216.38 23.26 215.31 23.7Q214.24 24.14 212.96 24.14M224.36 24.14L224.36 24.14Q222.79 24.14 221.51 23.45Q220.23 22.76 219.49 21.54Q218.76 20.32 218.76 18.81L218.76 18.81Q218.76 17.28 219.5 16.07Q220.25 14.86 221.53 14.17Q222.81 13.48 224.41 13.48L224.41 13.48Q225.6 13.48 226.6 13.89Q227.6 14.3 228.37 15.11L228.37 15.11L226.32 17.17Q225.96 16.77 225.49 16.58Q225.01 16.4 224.41 16.4L224.41 16.4Q223.71 16.4 223.18 16.7Q222.64 17 222.34 17.54Q222.03 18.08 222.03 18.79L222.03 18.79Q222.03 19.5 222.34 20.05Q222.64 20.6 223.19 20.91Q223.73 21.23 224.41 21.23L224.41 21.23Q225.04 21.23 225.53 21Q226.02 20.78 226.38 20.39L226.38 20.39L228.42 22.44Q227.62 23.28 226.61 23.71Q225.6 24.14 224.36 24.14M240.16 23.91L236.38 23.91L232.81 18.62L236.35 13.71L239.95 13.71L235.66 19.23L235.77 17.91L240.16 23.91M233.06 23.91L229.84 23.91L229.84 8.67L233.06 8.67L233.06 23.91M244.44 24.17L244.44 24.17Q243.54 24.17 242.66 23.93Q241.79 23.7 241.05 23.27Q240.3 22.84 239.78 22.28L239.78 22.28L241.6 20.43Q242.11 20.97 242.8 21.28Q243.49 21.58 244.31 21.58L244.31 21.58Q244.88 21.58 245.18 21.41Q245.49 21.25 245.49 20.95L245.49 20.95Q245.49 20.57 245.12 20.37Q244.75 20.18 244.19 20.02Q243.62 19.86 242.99 19.67Q242.36 19.48 241.79 19.15Q241.23 18.81 240.87 18.21Q240.51 17.61 240.51 16.69L240.51 16.69Q240.51 15.7 241.02 14.98Q241.52 14.25 242.44 13.83Q243.37 13.41 244.61 13.41L244.61 13.41Q245.91 13.41 247.01 13.86Q248.11 14.32 248.81 15.2L248.81 15.2L246.98 17.05Q246.5 16.48 245.9 16.25Q245.3 16.02 244.73 16.02L244.73 16.02Q244.19 16.02 243.91 16.17Q243.64 16.33 243.64 16.63L243.64 16.63Q243.64 16.94 244 17.13Q244.36 17.32 244.92 17.47Q245.49 17.61 246.12 17.82Q246.75 18.03 247.32 18.39Q247.88 18.75 248.24 19.35Q248.6 19.94 248.6 20.91L248.6 20.91Q248.6 22.4 247.47 23.28Q246.35 24.17 244.44 24.17"></path>
  </g>
</svg>
