<svg width="248" height="32" viewBox="0 0 248 32" xmlns="http://www.w3.org/2000/svg" role="img" aria-label="Electrical Work Checks">
  <style>
    .ink { fill: #172032; }
    .rule { fill: rgb(228,230,235); }
    @media (prefers-color-scheme: dark) {
      .ink { fill: rgb(230,234,242); }
      .rule { fill: rgb(66,77,96); }
    }
  </style>
  <g class="ink">
    <g class="ink" transform="translate(0,7) scale(1)"><path fill-rule="evenodd" d="M18 5.25a2.25 2.25 0 0 0-2.012-2.238A2.25 2.25 0 0 0 13.75 1h-1.5a2.25 2.25 0 0 0-2.238 2.012c-.875.092-1.6.686-1.884 1.488H11A2.5 2.5 0 0 1 13.5 7v7h2.25A2.25 2.25 0 0 0 18 11.75v-6.5ZM12.25 2.5a.75.75 0 0 0-.75.75v.25h3v-.25a.75.75 0 0 0-.75-.75h-1.5Z" clip-rule="evenodd"></path><path fill-rule="evenodd" d="M3 6a1 1 0 0 0-1 1v10a1 1 0 0 0 1 1h8a1 1 0 0 0 1-1V7a1 1 0 0 0-1-1H3Zm6.874 4.166a.75.75 0 1 0-1.248-.832l-2.493 3.739-.853-.853a.75.75 0 0 0-1.06 1.06l1.5 1.5a.75.75 0 0 0 1.154-.114l3-4.5Z" clip-rule="evenodd"></path></g>
    <path d="M30.23 23.9L30.23 9.1L40.03 9.1L40.03 11.66L33.33 11.66L33.33 15.2L39.65 15.2L39.65 17.62L33.33 17.62L33.33 21.34L40.03 21.34L40.03 23.9ZM42.08 23.9L42.08 9.1L45.08 9.1L45.08 23.9ZM52.1 24.12Q50.42 24.12 49.21 23.43Q48 22.74 47.35 21.46Q46.7 20.18 46.7 18.42L46.7 18.41Q46.7 16.66 47.35 15.37Q48 14.09 49.18 13.38Q50.37 12.68 51.98 12.68Q53.59 12.68 54.76 13.36Q55.94 14.04 56.58 15.28Q57.22 16.53 57.22 18.19L57.22 19.11L48.16 19.11L48.16 17.22L55.8 17.22L54.38 18.99L54.38 17.84Q54.38 16.87 54.08 16.22Q53.78 15.57 53.26 15.24Q52.73 14.92 52.03 14.92Q51.33 14.92 50.79 15.25Q50.26 15.59 49.95 16.24Q49.65 16.89 49.65 17.84L49.65 19Q49.65 19.91 49.95 20.56Q50.26 21.2 50.82 21.54Q51.38 21.89 52.16 21.89Q52.78 21.89 53.23 21.69Q53.68 21.5 53.97 21.2Q54.26 20.9 54.36 20.6L54.38 20.53L57.13 20.53L57.1 20.65Q56.97 21.25 56.61 21.87Q56.25 22.48 55.64 23Q55.03 23.51 54.16 23.82Q53.28 24.12 52.1 24.12ZM63.78 24.12Q62.11 24.12 60.89 23.43Q59.67 22.73 59.01 21.44Q58.36 20.16 58.36 18.39L58.36 18.38Q58.36 16.62 59.02 15.34Q59.68 14.06 60.89 13.37Q62.11 12.68 63.75 12.68Q65.25 12.68 66.34 13.24Q67.44 13.8 68.06 14.75Q68.68 15.71 68.74 16.89L68.74 16.97L65.97 16.97L65.94 16.87Q65.81 16.08 65.27 15.56Q64.72 15.03 63.79 15.03Q63.06 15.03 62.53 15.43Q61.99 15.84 61.69 16.59Q61.4 17.35 61.4 18.39L61.4 18.4Q61.4 19.48 61.69 20.23Q61.99 20.99 62.53 21.38Q63.06 21.78 63.8 21.78Q64.7 21.78 65.25 21.27Q65.8 20.76 65.96 19.93L65.97 19.84L68.75 19.84L68.75 19.9Q68.68 21.1 68.06 22.05Q67.43 23.01 66.34 23.56Q65.25 24.12 63.78 24.12ZM74.57 24.12Q72.74 24.12 71.86 23.35Q70.98 22.59 70.98 20.82L70.98 15.16L69.45 15.16L69.45 12.91L70.98 12.91L70.98 10.22L74 10.22L74 12.91L76.01 12.91L76.01 15.16L74 15.16L74 20.49Q74 21.26 74.35 21.57Q74.69 21.87 75.37 21.87Q75.57 21.87 75.73 21.85Q75.88 21.84 76.01 21.82L76.01 24.01Q75.77 24.05 75.4 24.09Q75.04 24.12 74.57 24.12ZM77.67 23.9L77.67 12.91L80.66 12.91L80.66 14.82L80.72 14.82Q80.97 13.81 81.61 13.24Q82.26 12.68 83.22 12.68Q83.47 12.68 83.69 12.71Q83.92 12.74 84.08 12.79L84.08 15.43Q83.9 15.36 83.61 15.31Q83.33 15.26 83 15.26Q82.26 15.26 81.74 15.55Q81.21 15.84 80.94 16.39Q80.66 16.95 80.66 17.75L80.66 23.9ZM85.37 23.9L85.37 12.91L88.36 12.91L88.36 23.9ZM86.86 11.49Q86.19 11.49 85.72 11.03Q85.26 10.57 85.26 9.93Q85.26 9.29 85.72 8.83Q86.19 8.37 86.86 8.37Q87.54 8.37 88 8.83Q88.46 9.29 88.46 9.93Q88.46 10.57 88 11.03Q87.54 11.49 86.86 11.49ZM95.38 24.12Q93.71 24.12 92.49 23.43Q91.27 22.73 90.62 21.44Q89.96 20.16 89.96 18.39L89.96 18.38Q89.96 16.62 90.62 15.34Q91.28 14.06 92.5 13.37Q93.71 12.68 95.35 12.68Q96.85 12.68 97.95 13.24Q99.04 13.8 99.66 14.75Q100.29 15.71 100.35 16.89L100.35 16.97L97.57 16.97L97.55 16.87Q97.41 16.08 96.87 15.56Q96.33 15.03 95.39 15.03Q94.67 15.03 94.13 15.43Q93.59 15.84 93.3 16.59Q93 17.35 93 18.39L93 18.4Q93 19.48 93.3 20.23Q93.59 20.99 94.13 21.38Q94.67 21.78 95.4 21.78Q96.31 21.78 96.86 21.27Q97.4 20.76 97.56 19.93L97.57 19.84L100.36 19.84L100.36 19.9Q100.29 21.1 99.66 22.05Q99.03 23.01 97.94 23.56Q96.85 24.12 95.38 24.12ZM105.07 24.07Q103.98 24.07 103.15 23.65Q102.32 23.22 101.85 22.47Q101.38 21.71 101.38 20.75L101.38 20.73Q101.38 19.72 101.88 19.01Q102.39 18.3 103.34 17.89Q104.29 17.48 105.66 17.39L109.94 17.12L109.94 18.99L106.11 19.23Q105.25 19.28 104.8 19.64Q104.35 19.99 104.35 20.58L104.35 20.6Q104.35 21.2 104.81 21.54Q105.27 21.89 106.05 21.89Q106.71 21.89 107.24 21.63Q107.77 21.37 108.07 20.91Q108.38 20.45 108.38 19.88L108.38 16.55Q108.38 15.82 107.91 15.39Q107.45 14.97 106.57 14.97Q105.73 14.97 105.24 15.32Q104.75 15.66 104.63 16.2L104.61 16.29L101.87 16.29L101.88 16.17Q101.97 15.15 102.56 14.36Q103.15 13.57 104.2 13.13Q105.25 12.68 106.69 12.68Q108.12 12.68 109.17 13.14Q110.21 13.59 110.79 14.42Q111.37 15.25 111.37 16.36L111.37 23.9L108.38 23.9L108.38 22.26L108.31 22.26Q108.01 22.82 107.52 23.23Q107.03 23.63 106.42 23.85Q105.8 24.07 105.07 24.07ZM113.37 23.9L113.37 9.1L116.36 9.1L116.36 23.9ZM125.92 23.9L122 9.1L125.21 9.1L127.55 19.7L127.61 19.7L130.34 9.1L133.06 9.1L135.78 19.7L135.85 19.7L138.19 9.1L141.4 9.1L137.48 23.9L134.45 23.9L131.73 13.98L131.67 13.98L128.94 23.9ZM146.62 24.12Q144.95 24.12 143.73 23.44Q142.51 22.75 141.84 21.47Q141.18 20.19 141.18 18.4L141.18 18.38Q141.18 16.61 141.85 15.33Q142.53 14.05 143.75 13.37Q144.97 12.68 146.61 12.68Q148.26 12.68 149.49 13.36Q150.71 14.04 151.39 15.32Q152.07 16.6 152.07 18.38L152.07 18.4Q152.07 20.2 151.4 21.48Q150.72 22.76 149.5 23.44Q148.28 24.12 146.62 24.12ZM146.63 21.78Q147.36 21.78 147.9 21.38Q148.44 20.99 148.73 20.23Q149.02 19.48 149.02 18.4L149.02 18.38Q149.02 17.32 148.72 16.57Q148.43 15.82 147.88 15.42Q147.34 15.03 146.61 15.03Q145.89 15.03 145.36 15.42Q144.82 15.82 144.52 16.57Q144.22 17.32 144.22 18.38L144.22 18.4Q144.22 19.48 144.52 20.23Q144.81 20.99 145.35 21.38Q145.89 21.78 146.63 21.78ZM153.61 23.9L153.61 12.91L156.6 12.91L156.6 14.82L156.66 14.82Q156.91 13.81 157.55 13.24Q158.2 12.68 159.16 12.68Q159.41 12.68 159.63 12.71Q159.86 12.74 160.02 12.79L160.02 15.43Q159.84 15.36 159.55 15.31Q159.27 15.26 158.94 15.26Q158.2 15.26 157.68 15.55Q157.15 15.84 156.88 16.39Q156.6 16.95 156.6 17.75L156.6 23.9ZM161.35 23.9L161.35 9.1L164.34 9.1L164.34 23.9ZM168.26 23.9L164.86 19.04L166.76 16.76L171.71 23.9ZM163.97 20.66L163.97 17.3L164.4 17.3L168.11 12.91L171.51 12.91L166.43 18.68L165.77 18.68ZM183.54 24.15Q181.37 24.15 179.79 23.23Q178.2 22.31 177.35 20.59Q176.49 18.87 176.49 16.49L176.49 16.48Q176.49 14.1 177.35 12.39Q178.21 10.68 179.79 9.76Q181.37 8.85 183.54 8.85Q185.33 8.85 186.74 9.54Q188.14 10.24 188.99 11.46Q189.84 12.67 189.99 14.25L190 14.34L186.98 14.34L186.94 14.17Q186.77 13.35 186.32 12.74Q185.86 12.14 185.16 11.8Q184.46 11.47 183.54 11.47Q182.35 11.47 181.48 12.08Q180.6 12.68 180.13 13.8Q179.65 14.93 179.65 16.47L179.65 16.48Q179.65 18.04 180.13 19.18Q180.6 20.31 181.48 20.92Q182.36 21.53 183.54 21.53Q184.43 21.53 185.13 21.2Q185.83 20.87 186.31 20.25Q186.78 19.63 186.97 18.75L186.99 18.65L190.01 18.65L190 18.76Q189.85 20.33 189 21.55Q188.14 22.77 186.74 23.46Q185.33 24.15 183.54 24.15ZM191.73 23.9L191.73 9.1L194.72 9.1L194.72 14.8L194.79 14.8Q195.22 13.78 196.07 13.23Q196.93 12.68 198.16 12.68Q199.36 12.68 200.22 13.21Q201.08 13.74 201.55 14.7Q202.01 15.66 202.01 17L202.01 23.9L199.02 23.9L199.02 17.61Q199.02 16.46 198.47 15.81Q197.92 15.16 196.9 15.16Q196.24 15.16 195.75 15.47Q195.27 15.79 195 16.34Q194.72 16.88 194.72 17.6L194.72 23.9ZM208.94 24.12Q207.25 24.12 206.04 23.43Q204.83 22.74 204.18 21.46Q203.53 20.18 203.53 18.42L203.53 18.41Q203.53 16.66 204.18 15.37Q204.83 14.09 206.02 13.38Q207.2 12.68 208.81 12.68Q210.42 12.68 211.6 13.36Q212.77 14.04 213.41 15.28Q214.05 16.53 214.05 18.19L214.05 19.11L205 19.11L205 17.22L212.64 17.22L211.21 18.99L211.21 17.84Q211.21 16.87 210.91 16.22Q210.62 15.57 210.09 15.24Q209.56 14.92 208.86 14.92Q208.17 14.92 207.63 15.25Q207.09 15.59 206.79 16.24Q206.48 16.89 206.48 17.84L206.48 19Q206.48 19.91 206.79 20.56Q207.09 21.2 207.65 21.54Q208.22 21.89 209 21.89Q209.61 21.89 210.06 21.69Q210.51 21.5 210.8 21.2Q211.09 20.9 211.19 20.6L211.21 20.53L213.96 20.53L213.93 20.65Q213.81 21.25 213.45 21.87Q213.09 22.48 212.48 23Q211.87 23.51 210.99 23.82Q210.11 24.12 208.94 24.12ZM220.61 24.12Q218.94 24.12 217.72 23.43Q216.5 22.73 215.85 21.44Q215.19 20.16 215.19 18.39L215.19 18.38Q215.19 16.62 215.85 15.34Q216.51 14.06 217.73 13.37Q218.94 12.68 220.58 12.68Q222.08 12.68 223.18 13.24Q224.28 13.8 224.9 14.75Q225.52 15.71 225.58 16.89L225.58 16.97L222.8 16.97L222.78 16.87Q222.65 16.08 222.1 15.56Q221.56 15.03 220.63 15.03Q219.9 15.03 219.36 15.43Q218.82 15.84 218.53 16.59Q218.24 17.35 218.24 18.39L218.24 18.4Q218.24 19.48 218.53 20.23Q218.82 20.99 219.36 21.38Q219.9 21.78 220.64 21.78Q221.54 21.78 222.09 21.27Q222.63 20.76 222.79 19.93L222.8 19.84L225.59 19.84L225.59 19.9Q225.52 21.1 224.89 22.05Q224.27 23.01 223.17 23.56Q222.08 24.12 220.61 24.12ZM227.14 23.9L227.14 9.1L230.13 9.1L230.13 23.9ZM234.05 23.9L230.65 19.04L232.55 16.76L237.5 23.9ZM229.76 20.66L229.76 17.3L230.19 17.3L233.9 12.91L237.3 12.91L232.22 18.68L231.56 18.68ZM242.65 24.12Q241.13 24.12 240.07 23.68Q239 23.24 238.4 22.46Q237.8 21.67 237.68 20.64L237.67 20.55L240.59 20.55L240.61 20.64Q240.75 21.28 241.26 21.64Q241.76 22 242.65 22Q243.22 22 243.62 21.86Q244.02 21.72 244.24 21.47Q244.47 21.21 244.47 20.85L244.47 20.84Q244.47 20.4 244.15 20.14Q243.83 19.87 243.02 19.68L241.15 19.29Q240.09 19.07 239.37 18.64Q238.66 18.22 238.3 17.59Q237.94 16.96 237.94 16.14L237.94 16.13Q237.94 15.07 238.51 14.3Q239.07 13.53 240.11 13.11Q241.15 12.68 242.55 12.68Q244 12.68 245.02 13.15Q246.04 13.61 246.59 14.4Q247.14 15.19 247.17 16.16L247.17 16.26L244.41 16.26L244.4 16.18Q244.33 15.58 243.86 15.19Q243.38 14.79 242.55 14.79Q242.04 14.79 241.66 14.94Q241.28 15.08 241.07 15.34Q240.87 15.6 240.87 15.96L240.87 15.97Q240.87 16.25 241 16.47Q241.14 16.69 241.47 16.85Q241.8 17.02 242.35 17.14L244.22 17.54Q245.37 17.78 246.08 18.18Q246.79 18.58 247.13 19.16Q247.46 19.74 247.46 20.55L247.46 20.56Q247.46 21.63 246.84 22.43Q246.23 23.23 245.15 23.68Q244.07 24.12 242.65 24.12Z"></path>
  </g>
  <rect class="rule" x="0" y="31" width="248" height="1"></rect>
</svg>
