<svg width="248" height="19" viewBox="0 0 248 19" xmlns="http://www.w3.org/2000/svg" role="img" aria-label="Electrical Work Checks">
  <style>
    .ink { fill: #172032; }
    @media (prefers-color-scheme: dark) {
      .ink { fill: rgb(230,234,242); }
    }
  </style>
  <g class="ink">
    <g class="ink" transform="translate(1,0) scale(1)"><path fill-rule="evenodd" d="M18 5.25a2.25 2.25 0 0 0-2.012-2.238A2.25 2.25 0 0 0 13.75 1h-1.5a2.25 2.25 0 0 0-2.238 2.012c-.875.092-1.6.686-1.884 1.488H11A2.5 2.5 0 0 1 13.5 7v7h2.25A2.25 2.25 0 0 0 18 11.75v-6.5ZM12.25 2.5a.75.75 0 0 0-.75.75v.25h3v-.25a.75.75 0 0 0-.75-.75h-1.5Z" clip-rule="evenodd"></path><path fill-rule="evenodd" d="M3 6a1 1 0 0 0-1 1v10a1 1 0 0 0 1 1h8a1 1 0 0 0 1-1V7a1 1 0 0 0-1-1H3Zm6.874 4.166a.75.75 0 1 0-1.248-.832l-2.493 3.739-.853-.853a.75.75 0 0 0-1.06 1.06l1.5 1.5a.75.75 0 0 0 1.154-.114l3-4.5Z" clip-rule="evenodd"></path></g>
    <path d="M34.37 16.88L31.51 16.88L31.51 2.12L34.37 2.12L34.37 16.88M41.78 16.88L33.61 16.88L33.61 14.36L41.78 14.36L41.78 16.88M41.05 10.56L33.61 10.56L33.61 8.12L41.05 8.12L41.05 10.56M41.68 4.64L33.61 4.64L33.61 2.12L41.68 2.12L41.68 4.64M46.61 16.88L43.86 16.88L43.86 1.7L46.61 1.7L46.61 16.88M53.9 17.09L53.9 17.09Q52.3 17.09 51.06 16.41Q49.82 15.73 49.1 14.53Q48.38 13.33 48.38 11.8L48.38 11.8Q48.38 10.29 49.08 9.1Q49.78 7.91 51 7.21Q52.22 6.51 53.71 6.51L53.71 6.51Q55.18 6.51 56.3 7.17Q57.43 7.83 58.07 8.97Q58.71 10.12 58.71 11.57L58.71 11.57Q58.71 11.84 58.68 12.13Q58.64 12.41 58.56 12.77L58.56 12.77L50.03 12.79L50.03 10.73L57.28 10.71L56.17 11.57Q56.12 10.67 55.84 10.06Q55.56 9.45 55.02 9.12Q54.49 8.8 53.71 8.8L53.71 8.8Q52.89 8.8 52.28 9.16Q51.67 9.53 51.35 10.19Q51.02 10.85 51.02 11.76L51.02 11.76Q51.02 12.68 51.37 13.36Q51.71 14.05 52.37 14.41Q53.02 14.78 53.88 14.78L53.88 14.78Q54.65 14.78 55.28 14.52Q55.91 14.26 56.38 13.73L56.38 13.73L57.99 15.35Q57.26 16.21 56.2 16.65Q55.14 17.09 53.9 17.09M65.2 17.09L65.2 17.09Q63.64 17.09 62.4 16.4Q61.16 15.71 60.45 14.51Q59.74 13.31 59.74 11.82L59.74 11.82Q59.74 10.31 60.45 9.11Q61.16 7.91 62.41 7.21Q63.66 6.51 65.2 6.51L65.2 6.51Q66.39 6.51 67.4 6.95Q68.41 7.39 69.14 8.21L69.14 8.21L67.38 9.99Q66.98 9.55 66.42 9.32Q65.87 9.09 65.2 9.09L65.2 9.09Q64.44 9.09 63.84 9.44Q63.24 9.78 62.9 10.38Q62.55 10.98 62.55 11.8L62.55 11.8Q62.55 12.6 62.9 13.22Q63.24 13.84 63.84 14.18Q64.44 14.53 65.2 14.53L65.2 14.53Q65.89 14.53 66.45 14.29Q67 14.05 67.4 13.58L67.4 13.58L69.19 15.37Q68.41 16.21 67.4 16.65Q66.39 17.09 65.2 17.09M74.81 16.88L72.06 16.88L72.06 2.52L74.81 2.52L74.81 16.88M77.19 9.15L69.69 9.15L69.69 6.74L77.19 6.74L77.19 9.15M81.49 16.88L78.74 16.88L78.74 6.74L81.49 6.74L81.49 16.88M81.49 11.27L81.49 11.27L80.42 10.56Q80.61 8.69 81.51 7.61Q82.42 6.53 84.12 6.53L84.12 6.53Q84.85 6.53 85.44 6.77Q86.03 7.01 86.51 7.56L86.51 7.56L84.79 9.53Q84.56 9.28 84.23 9.15Q83.91 9.03 83.49 9.03L83.49 9.03Q82.6 9.03 82.05 9.58Q81.49 10.14 81.49 11.27M90.25 16.88L87.48 16.88L87.48 6.74L90.25 6.74L90.25 16.88M88.86 5.1L88.86 5.1Q88.19 5.1 87.75 4.65Q87.31 4.2 87.31 3.53L87.31 3.53Q87.31 2.87 87.75 2.41Q88.19 1.95 88.86 1.95L88.86 1.95Q89.56 1.95 89.99 2.41Q90.42 2.87 90.42 3.53L90.42 3.53Q90.42 4.2 89.99 4.65Q89.56 5.1 88.86 5.1M97.47 17.09L97.47 17.09Q95.92 17.09 94.68 16.4Q93.44 15.71 92.73 14.51Q92.01 13.31 92.01 11.82L92.01 11.82Q92.01 10.31 92.73 9.11Q93.44 7.91 94.69 7.21Q95.94 6.51 97.47 6.51L97.47 6.51Q98.67 6.51 99.68 6.95Q100.69 7.39 101.42 8.21L101.42 8.21L99.66 9.99Q99.26 9.55 98.7 9.32Q98.14 9.09 97.47 9.09L97.47 9.09Q96.72 9.09 96.12 9.44Q95.52 9.78 95.17 10.38Q94.83 10.98 94.83 11.8L94.83 11.8Q94.83 12.6 95.17 13.22Q95.52 13.84 96.12 14.18Q96.72 14.53 97.47 14.53L97.47 14.53Q98.17 14.53 98.72 14.29Q99.28 14.05 99.68 13.58L99.68 13.58L101.46 15.37Q100.69 16.21 99.68 16.65Q98.67 17.09 97.47 17.09M107.03 17.09L107.03 17.09Q105.64 17.09 104.53 16.4Q103.42 15.71 102.79 14.51Q102.16 13.31 102.16 11.82L102.16 11.82Q102.16 10.31 102.79 9.11Q103.42 7.91 104.53 7.22Q105.64 6.53 107.03 6.53L107.03 6.53Q108.12 6.53 108.98 6.97Q109.84 7.41 110.36 8.2Q110.87 8.99 110.91 9.97L110.91 9.97L110.91 13.63Q110.87 14.63 110.36 15.41Q109.84 16.19 108.98 16.64Q108.12 17.09 107.03 17.09M107.53 14.55L107.53 14.55Q108.69 14.55 109.4 13.78Q110.11 13.02 110.11 11.8L110.11 11.8Q110.11 11 109.79 10.38Q109.46 9.76 108.89 9.42Q108.31 9.07 107.53 9.07L107.53 9.07Q106.78 9.07 106.2 9.42Q105.62 9.76 105.3 10.38Q104.97 11 104.97 11.8L104.97 11.8Q104.97 12.62 105.3 13.24Q105.62 13.86 106.2 14.2Q106.78 14.55 107.53 14.55M112.7 16.88L109.97 16.88L109.97 14.15L110.41 11.67L109.97 9.24L109.97 6.74L112.7 6.74L112.7 16.88M117.88 16.88L115.13 16.88L115.13 1.7L117.88 1.7L117.88 16.88M130.59 16.88L128.45 16.88L123.66 2.12L126.47 2.12L130.02 13.48L129.08 13.48L132.56 2.12L134.68 2.12L138.17 13.48L137.2 13.48L140.77 2.12L143.59 2.12L138.78 16.88L136.66 16.88L133.15 5.54L134.08 5.54L130.59 16.88M148.63 17.09L148.63 17.09Q147.1 17.09 145.87 16.39Q144.64 15.68 143.91 14.48Q143.19 13.27 143.19 11.78L143.19 11.78Q143.19 10.29 143.9 9.1Q144.62 7.91 145.86 7.21Q147.1 6.51 148.61 6.51L148.61 6.51Q150.16 6.51 151.39 7.21Q152.62 7.91 153.33 9.1Q154.05 10.29 154.05 11.78L154.05 11.78Q154.05 13.27 153.33 14.48Q152.62 15.68 151.39 16.39Q150.16 17.09 148.63 17.09M148.61 14.53L148.61 14.53Q149.39 14.53 149.98 14.18Q150.58 13.84 150.91 13.22Q151.23 12.6 151.23 11.8L151.23 11.8Q151.23 11 150.9 10.39Q150.56 9.78 149.97 9.44Q149.39 9.09 148.61 9.09L148.61 9.09Q147.85 9.09 147.26 9.44Q146.68 9.78 146.34 10.39Q146 11 146 11.8L146 11.8Q146 12.6 146.34 13.22Q146.68 13.84 147.26 14.18Q147.85 14.53 148.61 14.53M158.56 16.88L155.81 16.88L155.81 6.74L158.56 6.74L158.56 16.88M158.56 11.27L158.56 11.27L157.49 10.56Q157.68 8.69 158.58 7.61Q159.49 6.53 161.19 6.53L161.19 6.53Q161.92 6.53 162.51 6.77Q163.1 7.01 163.58 7.56L163.58 7.56L161.86 9.53Q161.63 9.28 161.3 9.15Q160.98 9.03 160.56 9.03L160.56 9.03Q159.67 9.03 159.12 9.58Q158.56 10.14 158.56 11.27M174.38 16.88L171.02 16.88L167.09 11.65L170.99 6.74L174.17 6.74L169.59 12.28L169.69 10.94L174.38 16.88M167.3 16.88L164.55 16.88L164.55 1.7L167.3 1.7L167.3 16.88M186.87 17.09L186.87 17.09Q185.25 17.09 183.87 16.51Q182.48 15.94 181.44 14.9Q180.4 13.86 179.85 12.47Q179.29 11.09 179.29 9.49L179.29 9.49Q179.29 7.89 179.85 6.51Q180.4 5.12 181.44 4.09Q182.48 3.06 183.86 2.48Q185.23 1.89 186.87 1.89L186.87 1.89Q188.63 1.89 189.98 2.46Q191.32 3.04 192.35 4.05L192.35 4.05L190.42 5.98Q189.81 5.31 188.93 4.93Q188.05 4.55 186.87 4.55L186.87 4.55Q185.84 4.55 184.99 4.9Q184.14 5.25 183.51 5.91Q182.88 6.57 182.54 7.48Q182.21 8.4 182.21 9.49L182.21 9.49Q182.21 10.6 182.54 11.51Q182.88 12.41 183.51 13.07Q184.14 13.73 184.99 14.09Q185.84 14.45 186.87 14.45L186.87 14.45Q188.11 14.45 189 14.07Q189.89 13.69 190.5 13L190.5 13L192.44 14.93Q191.41 15.96 190.04 16.52Q188.68 17.09 186.87 17.09M203.71 16.88L200.96 16.88L200.96 11.06Q200.96 10.16 200.39 9.59Q199.83 9.03 198.92 9.03L198.92 9.03Q198.34 9.03 197.87 9.28Q197.41 9.53 197.15 9.99Q196.89 10.46 196.89 11.06L196.89 11.06L195.82 10.52Q195.82 9.32 196.32 8.43Q196.82 7.54 197.72 7.03Q198.61 6.53 199.76 6.53L199.76 6.53Q200.92 6.53 201.81 7.03Q202.7 7.54 203.21 8.42Q203.71 9.3 203.71 10.46L203.71 10.46L203.71 16.88M196.89 16.88L194.14 16.88L194.14 1.7L196.89 1.7L196.89 16.88M210.79 17.09L210.79 17.09Q209.19 17.09 207.95 16.41Q206.72 15.73 205.99 14.53Q205.27 13.33 205.27 11.8L205.27 11.8Q205.27 10.29 205.97 9.1Q206.67 7.91 207.89 7.21Q209.11 6.51 210.6 6.51L210.6 6.51Q212.07 6.51 213.19 7.17Q214.32 7.83 214.96 8.97Q215.6 10.12 215.6 11.57L215.6 11.57Q215.6 11.84 215.57 12.13Q215.54 12.41 215.45 12.77L215.45 12.77L206.93 12.79L206.93 10.73L214.17 10.71L213.06 11.57Q213.02 10.67 212.73 10.06Q212.45 9.45 211.91 9.12Q211.38 8.8 210.6 8.8L210.6 8.8Q209.78 8.8 209.17 9.16Q208.56 9.53 208.24 10.19Q207.91 10.85 207.91 11.76L207.91 11.76Q207.91 12.68 208.26 13.36Q208.61 14.05 209.26 14.41Q209.91 14.78 210.77 14.78L210.77 14.78Q211.55 14.78 212.18 14.52Q212.81 14.26 213.27 13.73L213.27 13.73L214.88 15.35Q214.15 16.21 213.09 16.65Q212.03 17.09 210.79 17.09M222.09 17.09L222.09 17.09Q220.53 17.09 219.29 16.4Q218.05 15.71 217.34 14.51Q216.63 13.31 216.63 11.82L216.63 11.82Q216.63 10.31 217.34 9.11Q218.05 7.91 219.3 7.21Q220.55 6.51 222.09 6.51L222.09 6.51Q223.28 6.51 224.29 6.95Q225.3 7.39 226.04 8.21L226.04 8.21L224.27 9.99Q223.87 9.55 223.32 9.32Q222.76 9.09 222.09 9.09L222.09 9.09Q221.33 9.09 220.73 9.44Q220.13 9.78 219.79 10.38Q219.44 10.98 219.44 11.8L219.44 11.8Q219.44 12.6 219.79 13.22Q220.13 13.84 220.73 14.18Q221.33 14.53 222.09 14.53L222.09 14.53Q222.78 14.53 223.34 14.29Q223.89 14.05 224.29 13.58L224.29 13.58L226.08 15.37Q225.3 16.21 224.29 16.65Q223.28 17.09 222.09 17.09M237.46 16.88L234.1 16.88L230.17 11.65L234.08 6.74L237.25 6.74L232.67 12.28L232.78 10.94L237.46 16.88M230.38 16.88L227.63 16.88L227.63 1.7L230.38 1.7L230.38 16.88M241.62 17.11L241.62 17.11Q240.76 17.11 239.93 16.88Q239.1 16.65 238.4 16.24Q237.71 15.83 237.21 15.24L237.21 15.24L238.84 13.58Q239.37 14.17 240.06 14.47Q240.76 14.76 241.6 14.76L241.6 14.76Q242.27 14.76 242.61 14.57Q242.96 14.38 242.96 14L242.96 14Q242.96 13.58 242.59 13.35Q242.23 13.12 241.64 12.97Q241.05 12.81 240.41 12.61Q239.77 12.41 239.18 12.08Q238.59 11.76 238.23 11.18Q237.86 10.6 237.86 9.68L237.86 9.68Q237.86 8.71 238.33 8Q238.8 7.28 239.68 6.89Q240.57 6.49 241.76 6.49L241.76 6.49Q243.02 6.49 244.04 6.93Q245.06 7.37 245.73 8.25L245.73 8.25L244.07 9.91Q243.61 9.34 243.03 9.09Q242.46 8.84 241.78 8.84L241.78 8.84Q241.18 8.84 240.85 9.03Q240.52 9.22 240.52 9.55L240.52 9.55Q240.52 9.93 240.89 10.14Q241.26 10.35 241.85 10.51Q242.44 10.67 243.08 10.86Q243.72 11.06 244.29 11.42Q244.87 11.78 245.24 12.37Q245.61 12.95 245.61 13.88L245.61 13.88Q245.61 15.37 244.54 16.24Q243.46 17.11 241.62 17.11"></path>
  </g>
</svg>
