<svg width="246" height="25" viewBox="0 0 246 25" xmlns="http://www.w3.org/2000/svg" role="img" aria-label="Electrical Work Checks">
  <style>
    .ink { fill: #172032; }
    @media (prefers-color-scheme: dark) {
      .ink { fill: rgb(230,234,242); }
    }
  </style>
  <g class="ink">
    <g class="ink" transform="translate(0,7) scale(1)"><path fill-rule="evenodd" d="M18 5.25a2.25 2.25 0 0 0-2.012-2.238A2.25 2.25 0 0 0 13.75 1h-1.5a2.25 2.25 0 0 0-2.238 2.012c-.875.092-1.6.686-1.884 1.488H11A2.5 2.5 0 0 1 13.5 7v7h2.25A2.25 2.25 0 0 0 18 11.75v-6.5ZM12.25 2.5a.75.75 0 0 0-.75.75v.25h3v-.25a.75.75 0 0 0-.75-.75h-1.5Z" clip-rule="evenodd"></path><path fill-rule="evenodd" d="M3 6a1 1 0 0 0-1 1v10a1 1 0 0 0 1 1h8a1 1 0 0 0 1-1V7a1 1 0 0 0-1-1H3Zm6.874 4.166a.75.75 0 1 0-1.248-.832l-2.493 3.739-.853-.853a.75.75 0 0 0-1.06 1.06l1.5 1.5a.75.75 0 0 0 1.154-.114l3-4.5Z" clip-rule="evenodd"></path></g>
    <path d="M33.37 23.88L30.51 23.88L30.51 9.12L33.37 9.12L33.37 23.88M40.78 23.88L32.61 23.88L32.61 21.36L40.78 21.36L40.78 23.88M40.05 17.56L32.61 17.56L32.61 15.12L40.05 15.12L40.05 17.56M40.68 11.64L32.61 11.64L32.61 9.12L40.68 9.12L40.68 11.64M45.61 23.88L42.86 23.88L42.86 8.7L45.61 8.7L45.61 23.88M52.9 24.09L52.9 24.09Q51.3 24.09 50.06 23.41Q48.82 22.73 48.1 21.53Q47.38 20.33 47.38 18.8L47.38 18.8Q47.38 17.29 48.08 16.1Q48.78 14.91 50 14.21Q51.22 13.51 52.71 13.51L52.71 13.51Q54.18 13.51 55.3 14.17Q56.43 14.83 57.07 15.97Q57.71 17.12 57.71 18.57L57.71 18.57Q57.71 18.84 57.68 19.13Q57.64 19.41 57.56 19.77L57.56 19.77L49.03 19.79L49.03 17.73L56.28 17.71L55.17 18.57Q55.12 17.67 54.84 17.06Q54.56 16.45 54.02 16.12Q53.49 15.8 52.71 15.8L52.71 15.8Q51.89 15.8 51.28 16.16Q50.67 16.53 50.35 17.19Q50.02 17.85 50.02 18.76L50.02 18.76Q50.02 19.68 50.37 20.36Q50.71 21.05 51.37 21.41Q52.02 21.78 52.88 21.78L52.88 21.78Q53.65 21.78 54.28 21.52Q54.91 21.26 55.38 20.73L55.38 20.73L56.99 22.35Q56.26 23.21 55.2 23.65Q54.14 24.09 52.9 24.09M64.2 24.09L64.2 24.09Q62.64 24.09 61.4 23.4Q60.16 22.71 59.45 21.51Q58.74 20.31 58.74 18.82L58.74 18.82Q58.74 17.31 59.45 16.11Q60.16 14.91 61.41 14.21Q62.66 13.51 64.2 13.51L64.2 13.51Q65.39 13.51 66.4 13.95Q67.41 14.39 68.14 15.21L68.14 15.21L66.38 16.99Q65.98 16.55 65.42 16.32Q64.87 16.09 64.2 16.09L64.2 16.09Q63.44 16.09 62.84 16.44Q62.24 16.78 61.9 17.38Q61.55 17.98 61.55 18.8L61.55 18.8Q61.55 19.6 61.9 20.22Q62.24 20.84 62.84 21.18Q63.44 21.53 64.2 21.53L64.2 21.53Q64.89 21.53 65.45 21.29Q66 21.05 66.4 20.58L66.4 20.58L68.19 22.37Q67.41 23.21 66.4 23.65Q65.39 24.09 64.2 24.09M73.81 23.88L71.06 23.88L71.06 9.52L73.81 9.52L73.81 23.88M76.19 16.15L68.69 16.15L68.69 13.74L76.19 13.74L76.19 16.15M80.49 23.88L77.74 23.88L77.74 13.74L80.49 13.74L80.49 23.88M80.49 18.27L80.49 18.27L79.42 17.56Q79.61 15.69 80.51 14.61Q81.42 13.53 83.12 13.53L83.12 13.53Q83.85 13.53 84.44 13.77Q85.03 14.01 85.51 14.56L85.51 14.56L83.79 16.53Q83.56 16.28 83.23 16.15Q82.91 16.03 82.49 16.03L82.49 16.03Q81.6 16.03 81.05 16.58Q80.49 17.14 80.49 18.27M89.25 23.88L86.48 23.88L86.48 13.74L89.25 13.74L89.25 23.88M87.86 12.1L87.86 12.1Q87.19 12.1 86.75 11.65Q86.31 11.2 86.31 10.53L86.31 10.53Q86.31 9.87 86.75 9.41Q87.19 8.95 87.86 8.95L87.86 8.95Q88.56 8.95 88.99 9.41Q89.42 9.87 89.42 10.53L89.42 10.53Q89.42 11.2 88.99 11.65Q88.56 12.1 87.86 12.1M96.47 24.09L96.47 24.09Q94.92 24.09 93.68 23.4Q92.44 22.71 91.73 21.51Q91.01 20.31 91.01 18.82L91.01 18.82Q91.01 17.31 91.73 16.11Q92.44 14.91 93.69 14.21Q94.94 13.51 96.47 13.51L96.47 13.51Q97.67 13.51 98.68 13.95Q99.69 14.39 100.42 15.21L100.42 15.21L98.66 16.99Q98.26 16.55 97.7 16.32Q97.14 16.09 96.47 16.09L96.47 16.09Q95.72 16.09 95.12 16.44Q94.52 16.78 94.17 17.38Q93.83 17.98 93.83 18.8L93.83 18.8Q93.83 19.6 94.17 20.22Q94.52 20.84 95.12 21.18Q95.72 21.53 96.47 21.53L96.47 21.53Q97.17 21.53 97.72 21.29Q98.28 21.05 98.68 20.58L98.68 20.58L100.46 22.37Q99.69 23.21 98.68 23.65Q97.67 24.09 96.47 24.09M106.03 24.09L106.03 24.09Q104.64 24.09 103.53 23.4Q102.42 22.71 101.79 21.51Q101.16 20.31 101.16 18.82L101.16 18.82Q101.16 17.31 101.79 16.11Q102.42 14.91 103.53 14.22Q104.64 13.53 106.03 13.53L106.03 13.53Q107.12 13.53 107.98 13.97Q108.84 14.41 109.36 15.2Q109.87 15.99 109.91 16.97L109.91 16.97L109.91 20.63Q109.87 21.63 109.36 22.41Q108.84 23.19 107.98 23.64Q107.12 24.09 106.03 24.09M106.53 21.55L106.53 21.55Q107.69 21.55 108.4 20.78Q109.11 20.02 109.11 18.8L109.11 18.8Q109.11 18 108.79 17.38Q108.46 16.76 107.89 16.42Q107.31 16.07 106.53 16.07L106.53 16.07Q105.78 16.07 105.2 16.42Q104.62 16.76 104.3 17.38Q103.97 18 103.97 18.8L103.97 18.8Q103.97 19.62 104.3 20.24Q104.62 20.86 105.2 21.2Q105.78 21.55 106.53 21.55M111.7 23.88L108.97 23.88L108.97 21.15L109.41 18.67L108.97 16.24L108.97 13.74L111.7 13.74L111.7 23.88M116.88 23.88L114.13 23.88L114.13 8.7L116.88 8.7L116.88 23.88M129.59 23.88L127.45 23.88L122.66 9.12L125.47 9.12L129.02 20.48L128.08 20.48L131.56 9.12L133.68 9.12L137.17 20.48L136.2 20.48L139.77 9.12L142.59 9.12L137.78 23.88L135.66 23.88L132.15 12.54L133.08 12.54L129.59 23.88M147.63 24.09L147.63 24.09Q146.1 24.09 144.87 23.39Q143.64 22.68 142.91 21.48Q142.19 20.27 142.19 18.78L142.19 18.78Q142.19 17.29 142.9 16.1Q143.62 14.91 144.86 14.21Q146.1 13.51 147.61 13.51L147.61 13.51Q149.16 13.51 150.39 14.21Q151.62 14.91 152.33 16.1Q153.05 17.29 153.05 18.78L153.05 18.78Q153.05 20.27 152.33 21.48Q151.62 22.68 150.39 23.39Q149.16 24.09 147.63 24.09M147.61 21.53L147.61 21.53Q148.39 21.53 148.98 21.18Q149.58 20.84 149.91 20.22Q150.23 19.6 150.23 18.8L150.23 18.8Q150.23 18 149.9 17.39Q149.56 16.78 148.97 16.44Q148.39 16.09 147.61 16.09L147.61 16.09Q146.85 16.09 146.26 16.44Q145.68 16.78 145.34 17.39Q145 18 145 18.8L145 18.8Q145 19.6 145.34 20.22Q145.68 20.84 146.26 21.18Q146.85 21.53 147.61 21.53M157.56 23.88L154.81 23.88L154.81 13.74L157.56 13.74L157.56 23.88M157.56 18.27L157.56 18.27L156.49 17.56Q156.68 15.69 157.58 14.61Q158.49 13.53 160.19 13.53L160.19 13.53Q160.92 13.53 161.51 13.77Q162.1 14.01 162.58 14.56L162.58 14.56L160.86 16.53Q160.63 16.28 160.3 16.15Q159.98 16.03 159.56 16.03L159.56 16.03Q158.67 16.03 158.12 16.58Q157.56 17.14 157.56 18.27M173.38 23.88L170.02 23.88L166.09 18.65L169.99 13.74L173.17 13.74L168.59 19.28L168.69 17.94L173.38 23.88M166.3 23.88L163.55 23.88L163.55 8.7L166.3 8.7L166.3 23.88M185.87 24.09L185.87 24.09Q184.25 24.09 182.87 23.51Q181.48 22.94 180.44 21.9Q179.4 20.86 178.85 19.47Q178.29 18.09 178.29 16.49L178.29 16.49Q178.29 14.89 178.85 13.51Q179.4 12.12 180.44 11.09Q181.48 10.06 182.86 9.48Q184.23 8.89 185.87 8.89L185.87 8.89Q187.63 8.89 188.98 9.46Q190.32 10.04 191.35 11.05L191.35 11.05L189.42 12.98Q188.81 12.31 187.93 11.93Q187.05 11.55 185.87 11.55L185.87 11.55Q184.84 11.55 183.99 11.9Q183.14 12.25 182.51 12.91Q181.88 13.57 181.54 14.48Q181.21 15.4 181.21 16.49L181.21 16.49Q181.21 17.6 181.54 18.51Q181.88 19.41 182.51 20.07Q183.14 20.73 183.99 21.09Q184.84 21.45 185.87 21.45L185.87 21.45Q187.11 21.45 188 21.07Q188.89 20.69 189.5 20L189.5 20L191.44 21.93Q190.41 22.96 189.04 23.52Q187.68 24.09 185.87 24.09M202.71 23.88L199.96 23.88L199.96 18.06Q199.96 17.16 199.39 16.59Q198.83 16.03 197.92 16.03L197.92 16.03Q197.34 16.03 196.87 16.28Q196.41 16.53 196.15 16.99Q195.89 17.46 195.89 18.06L195.89 18.06L194.82 17.52Q194.82 16.32 195.32 15.43Q195.82 14.54 196.72 14.03Q197.61 13.53 198.76 13.53L198.76 13.53Q199.92 13.53 200.81 14.03Q201.7 14.54 202.21 15.42Q202.71 16.3 202.71 17.46L202.71 17.46L202.71 23.88M195.89 23.88L193.14 23.88L193.14 8.7L195.89 8.7L195.89 23.88M209.79 24.09L209.79 24.09Q208.19 24.09 206.95 23.41Q205.72 22.73 204.99 21.53Q204.27 20.33 204.27 18.8L204.27 18.8Q204.27 17.29 204.97 16.1Q205.67 14.91 206.89 14.21Q208.11 13.51 209.6 13.51L209.6 13.51Q211.07 13.51 212.19 14.17Q213.32 14.83 213.96 15.97Q214.6 17.12 214.6 18.57L214.6 18.57Q214.6 18.84 214.57 19.13Q214.54 19.41 214.45 19.77L214.45 19.77L205.93 19.79L205.93 17.73L213.17 17.71L212.06 18.57Q212.02 17.67 211.73 17.06Q211.45 16.45 210.91 16.12Q210.38 15.8 209.6 15.8L209.6 15.8Q208.78 15.8 208.17 16.16Q207.56 16.53 207.24 17.19Q206.91 17.85 206.91 18.76L206.91 18.76Q206.91 19.68 207.26 20.36Q207.61 21.05 208.26 21.41Q208.91 21.78 209.77 21.78L209.77 21.78Q210.55 21.78 211.18 21.52Q211.81 21.26 212.27 20.73L212.27 20.73L213.88 22.35Q213.15 23.21 212.09 23.65Q211.03 24.09 209.79 24.09M221.09 24.09L221.09 24.09Q219.53 24.09 218.29 23.4Q217.05 22.71 216.34 21.51Q215.63 20.31 215.63 18.82L215.63 18.82Q215.63 17.31 216.34 16.11Q217.05 14.91 218.3 14.21Q219.55 13.51 221.09 13.51L221.09 13.51Q222.28 13.51 223.29 13.95Q224.3 14.39 225.04 15.21L225.04 15.21L223.27 16.99Q222.87 16.55 222.32 16.32Q221.76 16.09 221.09 16.09L221.09 16.09Q220.33 16.09 219.73 16.44Q219.13 16.78 218.79 17.38Q218.44 17.98 218.44 18.8L218.44 18.8Q218.44 19.6 218.79 20.22Q219.13 20.84 219.73 21.18Q220.33 21.53 221.09 21.53L221.09 21.53Q221.78 21.53 222.34 21.29Q222.89 21.05 223.29 20.58L223.29 20.58L225.08 22.37Q224.3 23.21 223.29 23.65Q222.28 24.09 221.09 24.09M236.46 23.88L233.1 23.88L229.17 18.65L233.08 13.74L236.25 13.74L231.67 19.28L231.78 17.94L236.46 23.88M229.38 23.88L226.63 23.88L226.63 8.7L229.38 8.7L229.38 23.88M240.62 24.11L240.62 24.11Q239.76 24.11 238.93 23.88Q238.1 23.65 237.4 23.24Q236.71 22.83 236.21 22.24L236.21 22.24L237.84 20.58Q238.37 21.17 239.06 21.47Q239.76 21.76 240.6 21.76L240.6 21.76Q241.27 21.76 241.61 21.57Q241.96 21.38 241.96 21L241.96 21Q241.96 20.58 241.59 20.35Q241.23 20.12 240.64 19.97Q240.05 19.81 239.41 19.61Q238.77 19.41 238.18 19.08Q237.59 18.76 237.23 18.18Q236.86 17.6 236.86 16.68L236.86 16.68Q236.86 15.71 237.33 15Q237.8 14.28 238.68 13.89Q239.57 13.49 240.76 13.49L240.76 13.49Q242.02 13.49 243.04 13.93Q244.06 14.37 244.73 15.25L244.73 15.25L243.07 16.91Q242.61 16.34 242.03 16.09Q241.46 15.84 240.78 15.84L240.78 15.84Q240.18 15.84 239.85 16.03Q239.52 16.22 239.52 16.55L239.52 16.55Q239.52 16.93 239.89 17.14Q240.26 17.35 240.85 17.51Q241.44 17.67 242.08 17.86Q242.72 18.06 243.29 18.42Q243.87 18.78 244.24 19.37Q244.61 19.95 244.61 20.88L244.61 20.88Q244.61 22.37 243.54 23.24Q242.46 24.11 240.62 24.11"></path>
  </g>
</svg>
