<svg width="179" height="18" viewBox="0 0 179 18" xmlns="http://www.w3.org/2000/svg" role="img" aria-label="Further Actions">
  <style>
    .ink { fill: #172032; }
    @media (prefers-color-scheme: dark) {
      .ink { fill: rgb(230,234,242); }
    }
  </style>
  <g class="ink">
    <g class="ink" transform="translate(1,-1) scale(1)"><path fill-rule="evenodd" d="M2 10a8 8 0 1 1 16 0 8 8 0 0 1-16 0Zm8 1a1 1 0 1 0 0-2 1 1 0 0 0 0 2Zm-3-1a1 1 0 1 1-2 0 1 1 0 0 1 2 0Zm7 1a1 1 0 1 0 0-2 1 1 0 0 0 0 2Z" clip-rule="evenodd"></path></g>
    <path d="M34.37 16.38L31.51 16.38L31.51 1.62L34.37 1.62L34.37 16.38M41.05 10.33L33.61 10.33L33.61 7.79L41.05 7.79L41.05 10.33M41.4 4.14L33.61 4.14L33.61 1.62L41.4 1.62L41.4 4.14M47.68 16.59L47.68 16.59Q46.34 16.59 45.3 16.02Q44.26 15.46 43.67 14.45Q43.08 13.44 43.08 12.12L43.08 12.12L43.08 6.24L45.86 6.24L45.86 12.06Q45.86 12.69 46.07 13.14Q46.28 13.59 46.7 13.82Q47.11 14.05 47.68 14.05L47.68 14.05Q48.54 14.05 49.03 13.53Q49.51 13 49.51 12.06L49.51 12.06L49.51 6.24L52.26 6.24L52.26 12.12Q52.26 13.46 51.68 14.47Q51.11 15.48 50.07 16.04Q49.03 16.59 47.68 16.59M57.2 16.38L54.44 16.38L54.44 6.24L57.2 6.24L57.2 16.38M57.2 10.77L57.2 10.77L56.12 10.06Q56.31 8.19 57.22 7.11Q58.12 6.03 59.82 6.03L59.82 6.03Q60.56 6.03 61.14 6.27Q61.73 6.51 62.21 7.06L62.21 7.06L60.49 9.03Q60.26 8.78 59.94 8.65Q59.61 8.53 59.19 8.53L59.19 8.53Q58.31 8.53 57.75 9.08Q57.2 9.64 57.2 10.77M67.51 16.38L64.76 16.38L64.76 2.02L67.51 2.02L67.51 16.38M69.88 8.65L62.38 8.65L62.38 6.24L69.88 6.24L69.88 8.65M81.01 16.38L78.26 16.38L78.26 10.56Q78.26 9.66 77.69 9.09Q77.12 8.53 76.22 8.53L76.22 8.53Q75.63 8.53 75.17 8.78Q74.71 9.03 74.45 9.49Q74.18 9.96 74.18 10.56L74.18 10.56L73.11 10.02Q73.11 8.82 73.62 7.93Q74.12 7.04 75.01 6.53Q75.91 6.03 77.06 6.03L77.06 6.03Q78.22 6.03 79.11 6.53Q80 7.04 80.51 7.92Q81.01 8.8 81.01 9.96L81.01 9.96L81.01 16.38M74.18 16.38L71.43 16.38L71.43 1.2L74.18 1.2L74.18 16.38M88.09 16.59L88.09 16.59Q86.49 16.59 85.25 15.91Q84.01 15.23 83.29 14.03Q82.56 12.83 82.56 11.3L82.56 11.3Q82.56 9.79 83.27 8.6Q83.97 7.41 85.19 6.71Q86.41 6.01 87.9 6.01L87.9 6.01Q89.37 6.01 90.49 6.67Q91.61 7.33 92.25 8.47Q92.9 9.62 92.9 11.07L92.9 11.07Q92.9 11.34 92.86 11.63Q92.83 11.91 92.75 12.27L92.75 12.27L84.22 12.29L84.22 10.23L91.47 10.21L90.35 11.07Q90.31 10.17 90.03 9.56Q89.75 8.95 89.21 8.62Q88.67 8.3 87.9 8.3L87.9 8.3Q87.08 8.3 86.47 8.66Q85.86 9.03 85.53 9.69Q85.21 10.35 85.21 11.26L85.21 11.26Q85.21 12.18 85.56 12.86Q85.9 13.55 86.55 13.91Q87.2 14.28 88.07 14.28L88.07 14.28Q88.84 14.28 89.47 14.02Q90.1 13.76 90.56 13.23L90.56 13.23L92.18 14.85Q91.45 15.71 90.39 16.15Q89.33 16.59 88.09 16.59M97.35 16.38L94.6 16.38L94.6 6.24L97.35 6.24L97.35 16.38M97.35 10.77L97.35 10.77L96.28 10.06Q96.47 8.19 97.37 7.11Q98.27 6.03 99.97 6.03L99.97 6.03Q100.71 6.03 101.3 6.27Q101.88 6.51 102.37 7.06L102.37 7.06L100.64 9.03Q100.41 8.78 100.09 8.65Q99.76 8.53 99.34 8.53L99.34 8.53Q98.46 8.53 97.9 9.08Q97.35 9.64 97.35 10.77M109.4 16.38L106.42 16.38L112.36 1.62L114.69 1.62L120.62 16.38L117.57 16.38L112.99 4.26L114.04 4.26L109.4 16.38M117.51 13.63L109.57 13.63L109.57 11.24L117.51 11.24L117.51 13.63M126.47 16.59L126.47 16.59Q124.92 16.59 123.68 15.9Q122.44 15.21 121.73 14.01Q121.01 12.81 121.01 11.32L121.01 11.32Q121.01 9.81 121.73 8.61Q122.44 7.41 123.69 6.71Q124.94 6.01 126.47 6.01L126.47 6.01Q127.67 6.01 128.68 6.45Q129.69 6.89 130.42 7.71L130.42 7.71L128.66 9.49Q128.26 9.05 127.7 8.82Q127.15 8.59 126.47 8.59L126.47 8.59Q125.72 8.59 125.12 8.94Q124.52 9.28 124.17 9.88Q123.83 10.48 123.83 11.3L123.83 11.3Q123.83 12.1 124.17 12.72Q124.52 13.34 125.12 13.68Q125.72 14.03 126.47 14.03L126.47 14.03Q127.17 14.03 127.72 13.79Q128.28 13.55 128.68 13.08L128.68 13.08L130.46 14.87Q129.69 15.71 128.68 16.15Q127.67 16.59 126.47 16.59M136.09 16.38L133.34 16.38L133.34 2.02L136.09 2.02L136.09 16.38M138.47 8.65L130.97 8.65L130.97 6.24L138.47 6.24L138.47 8.65M142.79 16.38L140.02 16.38L140.02 6.24L142.79 6.24L142.79 16.38M141.41 4.6L141.41 4.6Q140.73 4.6 140.29 4.15Q139.85 3.7 139.85 3.03L139.85 3.03Q139.85 2.37 140.29 1.91Q140.73 1.45 141.41 1.45L141.41 1.45Q142.1 1.45 142.53 1.91Q142.96 2.37 142.96 3.03L142.96 3.03Q142.96 3.7 142.53 4.15Q142.1 4.6 141.41 4.6M149.99 16.59L149.99 16.59Q148.46 16.59 147.23 15.89Q146 15.18 145.28 13.98Q144.56 12.77 144.56 11.28L144.56 11.28Q144.56 9.79 145.27 8.6Q145.98 7.41 147.22 6.71Q148.46 6.01 149.97 6.01L149.97 6.01Q151.53 6.01 152.76 6.71Q153.98 7.41 154.7 8.6Q155.41 9.79 155.41 11.28L155.41 11.28Q155.41 12.77 154.7 13.98Q153.98 15.18 152.76 15.89Q151.53 16.59 149.99 16.59M149.97 14.03L149.97 14.03Q150.75 14.03 151.35 13.68Q151.95 13.34 152.27 12.72Q152.6 12.1 152.6 11.3L152.6 11.3Q152.6 10.5 152.26 9.89Q151.93 9.28 151.34 8.94Q150.75 8.59 149.97 8.59L149.97 8.59Q149.22 8.59 148.63 8.94Q148.04 9.28 147.71 9.89Q147.37 10.5 147.37 11.3L147.37 11.3Q147.37 12.1 147.71 12.72Q148.04 13.34 148.63 13.68Q149.22 14.03 149.97 14.03M166.75 16.38L164 16.38L164 10.56Q164 9.66 163.43 9.09Q162.87 8.53 161.96 8.53L161.96 8.53Q161.38 8.53 160.91 8.78Q160.45 9.03 160.19 9.49Q159.93 9.96 159.93 10.56L159.93 10.56L158.86 10.02Q158.86 8.82 159.37 7.93Q159.89 7.04 160.8 6.53Q161.71 6.03 162.87 6.03L162.87 6.03Q163.98 6.03 164.86 6.58Q165.74 7.14 166.25 8.03Q166.75 8.93 166.75 9.96L166.75 9.96L166.75 16.38M159.93 16.38L157.18 16.38L157.18 6.24L159.93 6.24L159.93 16.38M172.46 16.61L172.46 16.61Q171.6 16.61 170.77 16.38Q169.94 16.15 169.25 15.74Q168.56 15.33 168.05 14.74L168.05 14.74L169.69 13.08Q170.22 13.67 170.91 13.97Q171.6 14.26 172.44 14.26L172.44 14.26Q173.12 14.26 173.46 14.07Q173.81 13.88 173.81 13.5L173.81 13.5Q173.81 13.08 173.44 12.85Q173.07 12.62 172.49 12.47Q171.9 12.31 171.26 12.11Q170.62 11.91 170.03 11.58Q169.44 11.26 169.07 10.68Q168.71 10.1 168.71 9.18L168.71 9.18Q168.71 8.21 169.18 7.5Q169.65 6.78 170.53 6.39Q171.41 5.99 172.61 5.99L172.61 5.99Q173.87 5.99 174.89 6.43Q175.91 6.87 176.58 7.75L176.58 7.75L174.92 9.41Q174.46 8.84 173.88 8.59Q173.3 8.34 172.63 8.34L172.63 8.34Q172.02 8.34 171.7 8.53Q171.37 8.72 171.37 9.05L171.37 9.05Q171.37 9.43 171.74 9.64Q172.11 9.85 172.7 10.01Q173.28 10.17 173.92 10.36Q174.56 10.56 175.14 10.92Q175.72 11.28 176.09 11.87Q176.45 12.45 176.45 13.38L176.45 13.38Q176.45 14.87 175.38 15.74Q174.31 16.61 172.46 16.61"></path>
  </g>
</svg>
