<svg width="177" height="32" viewBox="0 0 177 32" xmlns="http://www.w3.org/2000/svg" role="img" aria-label="Further Actions">
  <style>
    .ink { fill: #172032; }
    .rule { fill: rgb(228,230,235); }
    @media (prefers-color-scheme: dark) {
      .ink { fill: rgb(230,234,242); }
      .rule { fill: rgb(66,77,96); }
    }
  </style>
  <g class="ink">
    <g class="ink" transform="translate(0,6.1) scale(1)"><path fill-rule="evenodd" d="M2 10a8 8 0 1 1 16 0 8 8 0 0 1-16 0Zm8 1a1 1 0 1 0 0-2 1 1 0 0 0 0 2Zm-3-1a1 1 0 1 1-2 0 1 1 0 0 1 2 0Zm7 1a1 1 0 1 0 0-2 1 1 0 0 0 0 2Z" clip-rule="evenodd"></path></g>
    <path d="M30.23 23.52L30.23 8.73L39.92 8.73L39.92 11.28L33.33 11.28L33.33 15.25L39.35 15.25L39.35 17.7L33.33 17.7L33.33 23.52ZM45.23 23.75Q44.02 23.75 43.18 23.25Q42.33 22.76 41.88 21.83Q41.44 20.91 41.44 19.63L41.44 12.53L44.43 12.53L44.43 19Q44.43 20.08 44.94 20.67Q45.45 21.27 46.45 21.27Q46.95 21.27 47.36 21.09Q47.76 20.92 48.05 20.6Q48.34 20.27 48.49 19.83Q48.65 19.38 48.65 18.85L48.65 12.53L51.64 12.53L51.64 23.52L48.65 23.52L48.65 21.71L48.58 21.71Q48.3 22.33 47.83 22.8Q47.36 23.26 46.71 23.5Q46.06 23.75 45.23 23.75ZM53.59 23.52L53.59 12.53L56.58 12.53L56.58 14.45L56.64 14.45Q56.89 13.43 57.54 12.87Q58.18 12.31 59.15 12.31Q59.39 12.31 59.62 12.34Q59.84 12.37 60.01 12.42L60.01 15.05Q59.82 14.98 59.54 14.94Q59.25 14.89 58.92 14.89Q58.18 14.89 57.66 15.18Q57.14 15.46 56.86 16.02Q56.58 16.57 56.58 17.37L56.58 23.52ZM66.01 23.75Q64.18 23.75 63.3 22.98Q62.42 22.21 62.42 20.45L62.42 14.79L60.89 14.79L60.89 12.53L62.42 12.53L62.42 9.85L65.44 9.85L65.44 12.53L67.45 12.53L67.45 14.79L65.44 14.79L65.44 20.12Q65.44 20.89 65.79 21.19Q66.13 21.49 66.81 21.49Q67.01 21.49 67.17 21.48Q67.32 21.46 67.45 21.44L67.45 23.64Q67.21 23.68 66.84 23.71Q66.48 23.75 66.01 23.75ZM69.17 23.52L69.17 8.73L72.17 8.73L72.17 14.43L72.23 14.43Q72.66 13.4 73.52 12.86Q74.37 12.31 75.6 12.31Q76.8 12.31 77.67 12.83Q78.53 13.36 78.99 14.33Q79.46 15.29 79.46 16.62L79.46 23.52L76.47 23.52L76.47 17.24Q76.47 16.09 75.92 15.44Q75.37 14.79 74.34 14.79Q73.69 14.79 73.2 15.1Q72.71 15.41 72.44 15.96Q72.17 16.51 72.17 17.23L72.17 23.52ZM86.38 23.75Q84.7 23.75 83.49 23.06Q82.28 22.37 81.63 21.08Q80.98 19.8 80.98 18.05L80.98 18.04Q80.98 16.29 81.63 15Q82.28 13.71 83.46 13.01Q84.65 12.31 86.26 12.31Q87.87 12.31 89.04 12.99Q90.22 13.67 90.86 14.91Q91.5 16.15 91.5 17.81L91.5 18.74L82.44 18.74L82.44 16.85L90.08 16.85L88.66 18.61L88.66 17.46Q88.66 16.5 88.36 15.85Q88.06 15.2 87.53 14.87Q87.01 14.54 86.31 14.54Q85.61 14.54 85.07 14.88Q84.54 15.22 84.23 15.87Q83.93 16.52 83.93 17.46L83.93 18.62Q83.93 19.54 84.23 20.18Q84.54 20.83 85.1 21.17Q85.66 21.51 86.44 21.51Q87.06 21.51 87.51 21.32Q87.96 21.13 88.25 20.83Q88.53 20.53 88.64 20.22L88.66 20.16L91.41 20.16L91.37 20.27Q91.25 20.88 90.89 21.49Q90.53 22.11 89.92 22.62Q89.31 23.13 88.44 23.44Q87.56 23.75 86.38 23.75ZM93.04 23.52L93.04 12.53L96.03 12.53L96.03 14.45L96.09 14.45Q96.34 13.43 96.98 12.87Q97.63 12.31 98.59 12.31Q98.84 12.31 99.06 12.34Q99.29 12.37 99.45 12.42L99.45 15.05Q99.27 14.98 98.98 14.94Q98.7 14.89 98.37 14.89Q97.63 14.89 97.11 15.18Q96.58 15.46 96.31 16.02Q96.03 16.57 96.03 17.37L96.03 23.52ZM104.14 23.52L109.31 8.73L112.04 8.73L112.04 11.6L111.09 11.6L107.39 23.52ZM106.92 19.94L107.68 17.62L114.58 17.62L115.34 19.94ZM114.86 23.52L111.15 11.6L111.15 8.73L112.95 8.73L118.11 23.52ZM123.98 23.75Q122.31 23.75 121.09 23.05Q119.87 22.36 119.21 21.07Q118.56 19.78 118.56 18.02L118.56 18.01Q118.56 16.24 119.22 14.97Q119.88 13.69 121.1 13Q122.31 12.31 123.95 12.31Q125.45 12.31 126.55 12.87Q127.64 13.42 128.26 14.38Q128.88 15.33 128.94 16.52L128.94 16.59L126.17 16.59L126.15 16.5Q126.01 15.71 125.47 15.18Q124.93 14.65 123.99 14.65Q123.26 14.65 122.73 15.06Q122.19 15.46 121.9 16.22Q121.6 16.97 121.6 18.02L121.6 18.03Q121.6 19.1 121.9 19.86Q122.19 20.61 122.73 21.01Q123.26 21.4 124 21.4Q124.9 21.4 125.45 20.89Q126 20.39 126.16 19.56L126.17 19.46L128.96 19.46L128.96 19.53Q128.88 20.73 128.26 21.68Q127.63 22.63 126.54 23.19Q125.45 23.75 123.98 23.75ZM134.77 23.75Q132.94 23.75 132.06 22.98Q131.18 22.21 131.18 20.45L131.18 14.79L129.65 14.79L129.65 12.53L131.18 12.53L131.18 9.85L134.21 9.85L134.21 12.53L136.21 12.53L136.21 14.79L134.21 14.79L134.21 20.12Q134.21 20.89 134.55 21.19Q134.89 21.49 135.57 21.49Q135.77 21.49 135.93 21.48Q136.08 21.46 136.21 21.44L136.21 23.64Q135.97 23.68 135.6 23.71Q135.24 23.75 134.77 23.75ZM137.93 23.52L137.93 12.53L140.92 12.53L140.92 23.52ZM139.42 11.12Q138.75 11.12 138.29 10.66Q137.82 10.19 137.82 9.56Q137.82 8.91 138.29 8.46Q138.75 8 139.42 8Q140.1 8 140.56 8.46Q141.02 8.91 141.02 9.56Q141.02 10.19 140.56 10.66Q140.1 11.12 139.42 11.12ZM147.97 23.75Q146.29 23.75 145.07 23.06Q143.85 22.38 143.19 21.09Q142.52 19.81 142.52 18.03L142.52 18.01Q142.52 16.23 143.2 14.96Q143.87 13.68 145.09 12.99Q146.31 12.31 147.96 12.31Q149.61 12.31 150.83 12.99Q152.06 13.67 152.73 14.95Q153.41 16.22 153.41 18.01L153.41 18.03Q153.41 19.82 152.74 21.1Q152.07 22.39 150.85 23.07Q149.63 23.75 147.97 23.75ZM147.98 21.4Q148.7 21.4 149.24 21.01Q149.78 20.61 150.07 19.86Q150.37 19.1 150.37 18.03L150.37 18.01Q150.37 16.94 150.07 16.19Q149.77 15.44 149.23 15.05Q148.68 14.65 147.96 14.65Q147.24 14.65 146.7 15.05Q146.16 15.44 145.86 16.19Q145.57 16.94 145.57 18.01L145.57 18.03Q145.57 19.1 145.86 19.86Q146.15 20.61 146.69 21.01Q147.24 21.4 147.98 21.4ZM154.95 23.52L154.95 12.53L157.94 12.53L157.94 14.34L158 14.34Q158.44 13.39 159.28 12.85Q160.12 12.31 161.36 12.31Q163.17 12.31 164.16 13.4Q165.15 14.49 165.15 16.43L165.15 23.52L162.16 23.52L162.16 17.04Q162.16 15.97 161.65 15.38Q161.14 14.79 160.14 14.79Q159.47 14.79 158.98 15.09Q158.49 15.39 158.21 15.94Q157.94 16.48 157.94 17.21L157.94 23.52ZM171.57 23.75Q170.05 23.75 168.99 23.31Q167.92 22.87 167.32 22.08Q166.72 21.3 166.6 20.26L166.59 20.17L169.51 20.17L169.53 20.26Q169.67 20.91 170.18 21.27Q170.68 21.63 171.57 21.63Q172.14 21.63 172.54 21.49Q172.94 21.35 173.16 21.09Q173.39 20.84 173.39 20.48L173.39 20.47Q173.39 20.03 173.07 19.76Q172.75 19.49 171.94 19.31L170.07 18.92Q169.01 18.69 168.29 18.27Q167.58 17.84 167.22 17.21Q166.86 16.58 166.86 15.76L166.86 15.75Q166.86 14.7 167.43 13.93Q167.99 13.16 169.03 12.73Q170.07 12.31 171.47 12.31Q172.92 12.31 173.94 12.77Q174.96 13.24 175.51 14.03Q176.06 14.82 176.09 15.78L176.09 15.89L173.33 15.89L173.32 15.8Q173.25 15.21 172.78 14.81Q172.3 14.42 171.47 14.42Q170.96 14.42 170.58 14.56Q170.2 14.71 169.99 14.97Q169.79 15.23 169.79 15.59L169.79 15.6Q169.79 15.88 169.92 16.1Q170.06 16.32 170.39 16.48Q170.72 16.64 171.27 16.77L173.14 17.17Q174.29 17.4 175 17.8Q175.71 18.2 176.05 18.78Q176.38 19.36 176.38 20.17L176.38 20.18Q176.38 21.26 175.76 22.06Q175.15 22.86 174.07 23.3Q172.99 23.75 171.57 23.75Z"></path>
  </g>
  <rect class="rule" x="0" y="31" width="177" height="1"></rect>
</svg>
