<svg width="180" height="24" viewBox="0 0 180 24" xmlns="http://www.w3.org/2000/svg" role="img" aria-label="Further Actions">
  <style>
    .ink { fill: #172032; }
    @media (prefers-color-scheme: dark) {
      .ink { fill: rgb(230,234,242); }
    }
  </style>
  <g class="ink">
    <g class="ink" transform="translate(0,6) scale(1)"><path fill-rule="evenodd" d="M2 10a8 8 0 1 1 16 0 8 8 0 0 1-16 0Zm8 1a1 1 0 1 0 0-2 1 1 0 0 0 0 2Zm-3-1a1 1 0 1 1-2 0 1 1 0 0 1 2 0Zm7 1a1 1 0 1 0 0-2 1 1 0 0 0 0 2Z" clip-rule="evenodd"></path></g>
    <path d="M33.73 23.41L30.43 23.41L30.43 8.59L33.73 8.59L33.73 23.41M40.36 17.6L32.95 17.6L32.95 14.76L40.36 14.76L40.36 17.6M40.7 11.42L32.95 11.42L32.95 8.59L40.7 8.59L40.7 11.42M47.06 23.64L47.06 23.64Q45.65 23.64 44.57 23.07Q43.49 22.49 42.88 21.47Q42.27 20.45 42.27 19.13L42.27 19.13L42.27 13.21L45.49 13.21L45.49 19.09Q45.49 19.61 45.66 19.99Q45.84 20.37 46.2 20.58Q46.56 20.79 47.06 20.79L47.06 20.79Q47.77 20.79 48.19 20.34Q48.61 19.89 48.61 19.09L48.61 19.09L48.61 13.21L51.83 13.21L51.83 19.11Q51.83 20.45 51.22 21.47Q50.61 22.49 49.54 23.07Q48.47 23.64 47.06 23.64M57.06 23.41L53.84 23.41L53.84 13.21L57.06 13.21L57.06 23.41M57.06 17.81L57.06 17.81L55.71 16.76Q56.11 14.97 57.06 13.98Q58 13 59.68 13L59.68 13Q60.42 13 60.97 13.22Q61.53 13.44 61.95 13.9L61.95 13.9L60.04 16.31Q59.83 16.08 59.51 15.96Q59.2 15.83 58.8 15.83L58.8 15.83Q58 15.83 57.53 16.33Q57.06 16.82 57.06 17.81M67.58 23.41L64.36 23.41L64.36 8.99L67.58 8.99L67.58 23.41M69.89 15.94L62.05 15.94L62.05 13.21L69.89 13.21L69.89 15.94M81.25 23.41L78.04 23.41L78.04 17.6Q78.04 16.8 77.54 16.3Q77.05 15.81 76.29 15.81L76.29 15.81Q75.77 15.81 75.37 16.03Q74.97 16.25 74.74 16.66Q74.51 17.07 74.51 17.6L74.51 17.6L73.27 16.99Q73.27 15.79 73.77 14.89Q74.28 13.98 75.18 13.49Q76.08 13 77.26 13L77.26 13Q78.46 13 79.36 13.49Q80.26 13.98 80.75 14.86Q81.25 15.73 81.25 16.88L81.25 16.88L81.25 23.41M74.51 23.41L71.29 23.41L71.29 8.17L74.51 8.17L74.51 23.41M88.35 23.64L88.35 23.64Q86.69 23.64 85.4 22.96Q84.1 22.28 83.37 21.06Q82.63 19.84 82.63 18.31L82.63 18.31Q82.63 16.78 83.36 15.57Q84.08 14.36 85.32 13.67Q86.56 12.98 88.12 12.98L88.12 12.98Q89.63 12.98 90.78 13.63Q91.94 14.28 92.6 15.43Q93.26 16.59 93.26 18.08L93.26 18.08Q93.26 18.35 93.23 18.66Q93.2 18.96 93.11 19.36L93.11 19.36L84.31 19.38L84.31 17.18L91.75 17.16L90.36 18.08Q90.34 17.2 90.09 16.62Q89.84 16.04 89.34 15.74Q88.85 15.43 88.14 15.43L88.14 15.43Q87.38 15.43 86.82 15.78Q86.27 16.13 85.96 16.76Q85.66 17.39 85.66 18.29L85.66 18.29Q85.66 19.19 85.98 19.83Q86.31 20.47 86.91 20.82Q87.51 21.17 88.33 21.17L88.33 21.17Q89.08 21.17 89.69 20.9Q90.3 20.64 90.76 20.12L90.76 20.12L92.53 21.88Q91.77 22.76 90.7 23.2Q89.63 23.64 88.35 23.64M98.03 23.41L94.81 23.41L94.81 13.21L98.03 13.21L98.03 23.41M98.03 17.81L98.03 17.81L96.68 16.76Q97.08 14.97 98.03 13.98Q98.97 13 100.65 13L100.65 13Q101.39 13 101.94 13.22Q102.5 13.44 102.92 13.9L102.92 13.9L101.01 16.31Q100.8 16.08 100.48 15.96Q100.17 15.83 99.77 15.83L99.77 15.83Q98.97 15.83 98.5 16.33Q98.03 16.82 98.03 17.81M110.14 23.41L106.72 23.41L112.6 8.59L115.58 8.59L121.4 23.41L117.91 23.41L113.46 11.11L114.66 11.11L110.14 23.41M118.15 20.73L110.06 20.73L110.06 18.04L118.15 18.04L118.15 20.73M127.26 23.64L127.26 23.64Q125.68 23.64 124.4 22.95Q123.12 22.26 122.39 21.04Q121.65 19.82 121.65 18.31L121.65 18.31Q121.65 16.78 122.4 15.57Q123.14 14.36 124.42 13.67Q125.7 12.98 127.3 12.98L127.3 12.98Q128.5 12.98 129.5 13.39Q130.49 13.8 131.27 14.61L131.27 14.61L129.21 16.67Q128.85 16.27 128.38 16.08Q127.91 15.9 127.3 15.9L127.3 15.9Q126.61 15.9 126.07 16.2Q125.54 16.5 125.23 17.04Q124.93 17.58 124.93 18.29L124.93 18.29Q124.93 19 125.23 19.55Q125.54 20.1 126.08 20.41Q126.63 20.73 127.3 20.73L127.3 20.73Q127.93 20.73 128.42 20.5Q128.92 20.28 129.27 19.89L129.27 19.89L131.31 21.94Q130.51 22.78 129.51 23.21Q128.5 23.64 127.26 23.64M137.23 23.41L134.02 23.41L134.02 8.99L137.23 8.99L137.23 23.41M139.54 15.94L131.71 15.94L131.71 13.21L139.54 13.21L139.54 15.94M144.16 23.41L140.95 23.41L140.95 13.21L144.16 13.21L144.16 23.41M142.57 11.8L142.57 11.8Q141.81 11.8 141.32 11.29Q140.82 10.77 140.82 10.04L140.82 10.04Q140.82 9.28 141.32 8.78Q141.81 8.27 142.57 8.27L142.57 8.27Q143.32 8.27 143.81 8.78Q144.29 9.28 144.29 10.04L144.29 10.04Q144.29 10.77 143.81 11.29Q143.32 11.8 142.57 11.8M151.35 23.64L151.35 23.64Q149.77 23.64 148.5 22.94Q147.23 22.24 146.49 21.02Q145.76 19.8 145.76 18.29L145.76 18.29Q145.76 16.78 146.49 15.58Q147.23 14.38 148.49 13.68Q149.75 12.98 151.35 12.98L151.35 12.98Q152.94 12.98 154.2 13.67Q155.46 14.36 156.2 15.57Q156.93 16.78 156.93 18.29L156.93 18.29Q156.93 19.8 156.2 21.02Q155.46 22.24 154.2 22.94Q152.94 23.64 151.35 23.64M151.35 20.73L151.35 20.73Q152.04 20.73 152.56 20.42Q153.09 20.12 153.37 19.56Q153.66 19 153.66 18.29L153.66 18.29Q153.66 17.58 153.36 17.04Q153.07 16.5 152.55 16.2Q152.04 15.9 151.35 15.9L151.35 15.9Q150.67 15.9 150.15 16.2Q149.62 16.5 149.33 17.05Q149.04 17.6 149.04 18.31L149.04 18.31Q149.04 19 149.33 19.56Q149.62 20.12 150.15 20.42Q150.67 20.73 151.35 20.73M168.48 23.41L165.27 23.41L165.27 17.6Q165.27 16.8 164.78 16.3Q164.28 15.81 163.53 15.81L163.53 15.81Q163 15.81 162.6 16.03Q162.2 16.25 161.97 16.66Q161.74 17.07 161.74 17.6L161.74 17.6L160.5 16.99Q160.5 15.79 161.03 14.89Q161.55 13.98 162.49 13.49Q163.42 13 164.6 13L164.6 13Q165.73 13 166.6 13.53Q167.47 14.07 167.98 14.95Q168.48 15.83 168.48 16.88L168.48 16.88L168.48 23.41M161.74 23.41L158.53 23.41L158.53 13.21L161.74 13.21L161.74 23.41M174.26 23.67L174.26 23.67Q173.35 23.67 172.48 23.43Q171.61 23.2 170.87 22.77Q170.12 22.34 169.59 21.78L169.59 21.78L171.42 19.93Q171.93 20.47 172.62 20.78Q173.31 21.08 174.13 21.08L174.13 21.08Q174.7 21.08 175 20.91Q175.31 20.75 175.31 20.45L175.31 20.45Q175.31 20.07 174.94 19.87Q174.57 19.68 174 19.52Q173.44 19.36 172.81 19.17Q172.18 18.98 171.61 18.65Q171.04 18.31 170.69 17.71Q170.33 17.11 170.33 16.19L170.33 16.19Q170.33 15.2 170.83 14.48Q171.34 13.75 172.26 13.33Q173.19 12.91 174.43 12.91L174.43 12.91Q175.73 12.91 176.83 13.36Q177.93 13.82 178.62 14.7L178.62 14.7L176.8 16.55Q176.31 15.98 175.72 15.75Q175.12 15.52 174.55 15.52L174.55 15.52Q174 15.52 173.73 15.67Q173.46 15.83 173.46 16.13L173.46 16.13Q173.46 16.44 173.82 16.63Q174.17 16.82 174.74 16.97Q175.31 17.11 175.94 17.32Q176.57 17.53 177.13 17.89Q177.7 18.25 178.06 18.85Q178.41 19.44 178.41 20.41L178.41 20.41Q178.41 21.9 177.29 22.78Q176.17 23.67 174.26 23.67"></path>
  </g>
</svg>
