<svg width="177" height="24" viewBox="0 0 177 24" xmlns="http://www.w3.org/2000/svg" role="img" aria-label="Further Actions">
  <style>
    .ink { fill: #172032; }
    @media (prefers-color-scheme: dark) {
      .ink { fill: rgb(230,234,242); }
    }
  </style>
  <g class="ink">
    <g class="ink" transform="translate(0,6) scale(1)"><path fill-rule="evenodd" d="M2 10a8 8 0 1 1 16 0 8 8 0 0 1-16 0Zm8 1a1 1 0 1 0 0-2 1 1 0 0 0 0 2Zm-3-1a1 1 0 1 1-2 0 1 1 0 0 1 2 0Zm7 1a1 1 0 1 0 0-2 1 1 0 0 0 0 2Z" clip-rule="evenodd"></path></g>
    <path d="M33.37 23.38L30.51 23.38L30.51 8.62L33.37 8.62L33.37 23.38M40.05 17.33L32.61 17.33L32.61 14.79L40.05 14.79L40.05 17.33M40.4 11.14L32.61 11.14L32.61 8.62L40.4 8.62L40.4 11.14M46.68 23.59L46.68 23.59Q45.34 23.59 44.3 23.02Q43.26 22.46 42.67 21.45Q42.08 20.44 42.08 19.12L42.08 19.12L42.08 13.24L44.86 13.24L44.86 19.06Q44.86 19.69 45.07 20.14Q45.28 20.59 45.7 20.82Q46.11 21.05 46.68 21.05L46.68 21.05Q47.54 21.05 48.03 20.53Q48.51 20 48.51 19.06L48.51 19.06L48.51 13.24L51.26 13.24L51.26 19.12Q51.26 20.46 50.68 21.47Q50.11 22.48 49.07 23.04Q48.03 23.59 46.68 23.59M56.2 23.38L53.44 23.38L53.44 13.24L56.2 13.24L56.2 23.38M56.2 17.77L56.2 17.77L55.12 17.06Q55.31 15.19 56.22 14.11Q57.12 13.03 58.82 13.03L58.82 13.03Q59.56 13.03 60.14 13.27Q60.73 13.51 61.21 14.06L61.21 14.06L59.49 16.03Q59.26 15.78 58.94 15.65Q58.61 15.53 58.19 15.53L58.19 15.53Q57.31 15.53 56.75 16.08Q56.2 16.64 56.2 17.77M66.51 23.38L63.76 23.38L63.76 9.02L66.51 9.02L66.51 23.38M68.88 15.65L61.38 15.65L61.38 13.24L68.88 13.24L68.88 15.65M80.01 23.38L77.26 23.38L77.26 17.56Q77.26 16.66 76.69 16.09Q76.12 15.53 75.22 15.53L75.22 15.53Q74.63 15.53 74.17 15.78Q73.71 16.03 73.45 16.49Q73.18 16.96 73.18 17.56L73.18 17.56L72.11 17.02Q72.11 15.82 72.62 14.93Q73.12 14.04 74.01 13.53Q74.91 13.03 76.06 13.03L76.06 13.03Q77.22 13.03 78.11 13.53Q79 14.04 79.51 14.92Q80.01 15.8 80.01 16.96L80.01 16.96L80.01 23.38M73.18 23.38L70.43 23.38L70.43 8.2L73.18 8.2L73.18 23.38M87.09 23.59L87.09 23.59Q85.49 23.59 84.25 22.91Q83.01 22.23 82.29 21.03Q81.56 19.83 81.56 18.3L81.56 18.3Q81.56 16.79 82.27 15.6Q82.97 14.41 84.19 13.71Q85.41 13.01 86.9 13.01L86.9 13.01Q88.37 13.01 89.49 13.67Q90.61 14.33 91.25 15.47Q91.9 16.62 91.9 18.07L91.9 18.07Q91.9 18.34 91.86 18.63Q91.83 18.91 91.75 19.27L91.75 19.27L83.22 19.29L83.22 17.23L90.47 17.21L89.35 18.07Q89.31 17.17 89.03 16.56Q88.75 15.95 88.21 15.62Q87.67 15.3 86.9 15.3L86.9 15.3Q86.08 15.3 85.47 15.66Q84.86 16.03 84.53 16.69Q84.21 17.35 84.21 18.26L84.21 18.26Q84.21 19.18 84.56 19.86Q84.9 20.55 85.55 20.91Q86.2 21.28 87.07 21.28L87.07 21.28Q87.84 21.28 88.47 21.02Q89.1 20.76 89.56 20.23L89.56 20.23L91.18 21.85Q90.45 22.71 89.39 23.15Q88.33 23.59 87.09 23.59M96.35 23.38L93.6 23.38L93.6 13.24L96.35 13.24L96.35 23.38M96.35 17.77L96.35 17.77L95.28 17.06Q95.47 15.19 96.37 14.11Q97.27 13.03 98.97 13.03L98.97 13.03Q99.71 13.03 100.3 13.27Q100.88 13.51 101.37 14.06L101.37 14.06L99.64 16.03Q99.41 15.78 99.09 15.65Q98.76 15.53 98.34 15.53L98.34 15.53Q97.46 15.53 96.9 16.08Q96.35 16.64 96.35 17.77M108.4 23.38L105.42 23.38L111.36 8.62L113.69 8.62L119.62 23.38L116.57 23.38L111.99 11.26L113.04 11.26L108.4 23.38M116.51 20.63L108.57 20.63L108.57 18.24L116.51 18.24L116.51 20.63M125.47 23.59L125.47 23.59Q123.92 23.59 122.68 22.9Q121.44 22.21 120.73 21.01Q120.01 19.81 120.01 18.32L120.01 18.32Q120.01 16.81 120.73 15.61Q121.44 14.41 122.69 13.71Q123.94 13.01 125.47 13.01L125.47 13.01Q126.67 13.01 127.68 13.45Q128.69 13.89 129.42 14.71L129.42 14.71L127.66 16.49Q127.26 16.05 126.7 15.82Q126.15 15.59 125.47 15.59L125.47 15.59Q124.72 15.59 124.12 15.94Q123.52 16.28 123.17 16.88Q122.83 17.48 122.83 18.3L122.83 18.3Q122.83 19.1 123.17 19.72Q123.52 20.34 124.12 20.68Q124.72 21.03 125.47 21.03L125.47 21.03Q126.17 21.03 126.72 20.79Q127.28 20.55 127.68 20.08L127.68 20.08L129.46 21.87Q128.69 22.71 127.68 23.15Q126.67 23.59 125.47 23.59M135.09 23.38L132.34 23.38L132.34 9.02L135.09 9.02L135.09 23.38M137.47 15.65L129.97 15.65L129.97 13.24L137.47 13.24L137.47 15.65M141.79 23.38L139.02 23.38L139.02 13.24L141.79 13.24L141.79 23.38M140.41 11.6L140.41 11.6Q139.73 11.6 139.29 11.15Q138.85 10.7 138.85 10.03L138.85 10.03Q138.85 9.37 139.29 8.91Q139.73 8.45 140.41 8.45L140.41 8.45Q141.1 8.45 141.53 8.91Q141.96 9.37 141.96 10.03L141.96 10.03Q141.96 10.7 141.53 11.15Q141.1 11.6 140.41 11.6M148.99 23.59L148.99 23.59Q147.46 23.59 146.23 22.89Q145 22.18 144.28 20.98Q143.56 19.77 143.56 18.28L143.56 18.28Q143.56 16.79 144.27 15.6Q144.98 14.41 146.22 13.71Q147.46 13.01 148.97 13.01L148.97 13.01Q150.53 13.01 151.76 13.71Q152.98 14.41 153.7 15.6Q154.41 16.79 154.41 18.28L154.41 18.28Q154.41 19.77 153.7 20.98Q152.98 22.18 151.76 22.89Q150.53 23.59 148.99 23.59M148.97 21.03L148.97 21.03Q149.75 21.03 150.35 20.68Q150.95 20.34 151.27 19.72Q151.6 19.1 151.6 18.3L151.6 18.3Q151.6 17.5 151.26 16.89Q150.93 16.28 150.34 15.94Q149.75 15.59 148.97 15.59L148.97 15.59Q148.22 15.59 147.63 15.94Q147.04 16.28 146.71 16.89Q146.37 17.5 146.37 18.3L146.37 18.3Q146.37 19.1 146.71 19.72Q147.04 20.34 147.63 20.68Q148.22 21.03 148.97 21.03M165.75 23.38L163 23.38L163 17.56Q163 16.66 162.43 16.09Q161.87 15.53 160.96 15.53L160.96 15.53Q160.38 15.53 159.91 15.78Q159.45 16.03 159.19 16.49Q158.93 16.96 158.93 17.56L158.93 17.56L157.86 17.02Q157.86 15.82 158.37 14.93Q158.89 14.04 159.8 13.53Q160.71 13.03 161.87 13.03L161.87 13.03Q162.98 13.03 163.86 13.59Q164.74 14.14 165.25 15.03Q165.75 15.93 165.75 16.96L165.75 16.96L165.75 23.38M158.93 23.38L156.18 23.38L156.18 13.24L158.93 13.24L158.93 23.38M171.46 23.61L171.46 23.61Q170.6 23.61 169.77 23.38Q168.94 23.15 168.25 22.74Q167.56 22.33 167.05 21.74L167.05 21.74L168.69 20.08Q169.22 20.67 169.91 20.97Q170.6 21.26 171.44 21.26L171.44 21.26Q172.12 21.26 172.46 21.07Q172.81 20.88 172.81 20.5L172.81 20.5Q172.81 20.08 172.44 19.85Q172.07 19.62 171.49 19.47Q170.9 19.31 170.26 19.11Q169.62 18.91 169.03 18.58Q168.44 18.26 168.07 17.68Q167.71 17.1 167.71 16.18L167.71 16.18Q167.71 15.21 168.18 14.5Q168.65 13.78 169.53 13.39Q170.41 12.99 171.61 12.99L171.61 12.99Q172.87 12.99 173.89 13.43Q174.91 13.87 175.58 14.75L175.58 14.75L173.92 16.41Q173.46 15.84 172.88 15.59Q172.3 15.34 171.63 15.34L171.63 15.34Q171.02 15.34 170.7 15.53Q170.37 15.72 170.37 16.05L170.37 16.05Q170.37 16.43 170.74 16.64Q171.11 16.85 171.7 17.01Q172.28 17.17 172.92 17.36Q173.56 17.56 174.14 17.92Q174.72 18.28 175.09 18.87Q175.45 19.45 175.45 20.38L175.45 20.38Q175.45 21.87 174.38 22.74Q173.31 23.61 171.46 23.61"></path>
  </g>
</svg>
