<svg width="235" height="32" viewBox="0 0 235 32" xmlns="http://www.w3.org/2000/svg" role="img" aria-label="General Work Checks">
  <style>
    .ink { fill: #172032; }
    .rule { fill: rgb(228,230,235); }
    @media (prefers-color-scheme: dark) {
      .ink { fill: rgb(230,234,242); }
      .rule { fill: rgb(66,77,96); }
    }
  </style>
  <g class="ink">
    <g class="ink" transform="translate(0,7) scale(1)"><path fill-rule="evenodd" d="M18 5.25a2.25 2.25 0 0 0-2.012-2.238A2.25 2.25 0 0 0 13.75 1h-1.5a2.25 2.25 0 0 0-2.238 2.012c-.875.092-1.6.686-1.884 1.488H11A2.5 2.5 0 0 1 13.5 7v7h2.25A2.25 2.25 0 0 0 18 11.75v-6.5ZM12.25 2.5a.75.75 0 0 0-.75.75v.25h3v-.25a.75.75 0 0 0-.75-.75h-1.5Z" clip-rule="evenodd"></path><path fill-rule="evenodd" d="M3 6a1 1 0 0 0-1 1v10a1 1 0 0 0 1 1h8a1 1 0 0 0 1-1V7a1 1 0 0 0-1-1H3Zm6.874 4.166a.75.75 0 1 0-1.248-.832l-2.493 3.739-.853-.853a.75.75 0 0 0-1.06 1.06l1.5 1.5a.75.75 0 0 0 1.154-.114l3-4.5Z" clip-rule="evenodd"></path></g>
    <path d="M36.9 24.15Q35.23 24.15 33.92 23.63Q32.6 23.11 31.68 22.11Q30.75 21.11 30.26 19.68Q29.77 18.26 29.77 16.45L29.77 16.44Q29.77 14.06 30.63 12.37Q31.49 10.67 33.08 9.76Q34.66 8.85 36.82 8.85Q38.61 8.85 39.97 9.48Q41.34 10.11 42.19 11.2Q43.05 12.3 43.29 13.7L43.32 13.84L40.22 13.84L40.18 13.74Q39.81 12.66 38.95 12.07Q38.08 11.47 36.83 11.47Q35.61 11.47 34.74 12.05Q33.86 12.63 33.39 13.74Q32.93 14.84 32.93 16.41L32.93 16.42Q32.93 17.62 33.2 18.57Q33.48 19.52 34.01 20.18Q34.54 20.83 35.28 21.18Q36.02 21.53 36.95 21.53Q37.95 21.53 38.73 21.16Q39.5 20.78 39.95 20.1Q40.39 19.42 40.43 18.5L40.44 18.29L37.06 18.29L37.06 15.98L43.46 15.98L43.46 17.68Q43.46 19.19 43.01 20.39Q42.57 21.59 41.72 22.43Q40.87 23.27 39.65 23.71Q38.43 24.15 36.9 24.15ZM50.25 24.12Q48.56 24.12 47.35 23.43Q46.14 22.74 45.49 21.46Q44.84 20.18 44.84 18.42L44.84 18.41Q44.84 16.66 45.49 15.37Q46.14 14.09 47.33 13.38Q48.51 12.68 50.12 12.68Q51.73 12.68 52.91 13.36Q54.08 14.04 54.72 15.28Q55.36 16.53 55.36 18.19L55.36 19.11L46.31 19.11L46.31 17.22L53.95 17.22L52.52 18.99L52.52 17.84Q52.52 16.87 52.23 16.22Q51.93 15.57 51.4 15.24Q50.87 14.92 50.17 14.92Q49.48 14.92 48.94 15.25Q48.4 15.59 48.1 16.24Q47.8 16.89 47.8 17.84L47.8 19Q47.8 19.91 48.1 20.56Q48.4 21.2 48.96 21.54Q49.53 21.89 50.31 21.89Q50.92 21.89 51.37 21.69Q51.83 21.5 52.11 21.2Q52.4 20.9 52.5 20.6L52.52 20.53L55.27 20.53L55.24 20.65Q55.12 21.25 54.76 21.87Q54.4 22.48 53.79 23Q53.18 23.51 52.3 23.82Q51.43 24.12 50.25 24.12ZM56.9 23.9L56.9 12.91L59.9 12.91L59.9 14.71L59.96 14.71Q60.39 13.77 61.23 13.22Q62.07 12.68 63.31 12.68Q65.12 12.68 66.11 13.77Q67.1 14.86 67.1 16.8L67.1 23.9L64.11 23.9L64.11 17.42Q64.11 16.34 63.6 15.75Q63.09 15.16 62.09 15.16Q61.42 15.16 60.93 15.46Q60.44 15.77 60.17 16.31Q59.9 16.85 59.9 17.58L59.9 23.9ZM74 24.12Q72.32 24.12 71.11 23.43Q69.9 22.74 69.25 21.46Q68.6 20.18 68.6 18.42L68.6 18.41Q68.6 16.66 69.25 15.37Q69.9 14.09 71.09 13.38Q72.27 12.68 73.88 12.68Q75.49 12.68 76.67 13.36Q77.84 14.04 78.48 15.28Q79.12 16.53 79.12 18.19L79.12 19.11L70.07 19.11L70.07 17.22L77.71 17.22L76.28 18.99L76.28 17.84Q76.28 16.87 75.98 16.22Q75.69 15.57 75.16 15.24Q74.63 14.92 73.93 14.92Q73.24 14.92 72.7 15.25Q72.16 15.59 71.86 16.24Q71.55 16.89 71.55 17.84L71.55 19Q71.55 19.91 71.86 20.56Q72.16 21.2 72.72 21.54Q73.29 21.89 74.07 21.89Q74.68 21.89 75.13 21.69Q75.58 21.5 75.87 21.2Q76.16 20.9 76.26 20.6L76.28 20.53L79.03 20.53L79 20.65Q78.88 21.25 78.52 21.87Q78.16 22.48 77.55 23Q76.94 23.51 76.06 23.82Q75.18 24.12 74 24.12ZM80.66 23.9L80.66 12.91L83.65 12.91L83.65 14.82L83.71 14.82Q83.96 13.81 84.61 13.24Q85.25 12.68 86.22 12.68Q86.46 12.68 86.69 12.71Q86.91 12.74 87.08 12.79L87.08 15.43Q86.89 15.36 86.61 15.31Q86.32 15.26 85.99 15.26Q85.25 15.26 84.73 15.55Q84.21 15.84 83.93 16.39Q83.65 16.95 83.65 17.75L83.65 23.9ZM91.31 24.07Q90.22 24.07 89.39 23.65Q88.55 23.22 88.09 22.47Q87.62 21.71 87.62 20.75L87.62 20.73Q87.62 19.72 88.12 19.01Q88.63 18.3 89.58 17.89Q90.53 17.48 91.9 17.39L96.18 17.12L96.18 18.99L92.35 19.23Q91.49 19.28 91.04 19.64Q90.58 19.99 90.58 20.58L90.58 20.6Q90.58 21.2 91.05 21.54Q91.51 21.89 92.29 21.89Q92.95 21.89 93.48 21.63Q94.01 21.37 94.31 20.91Q94.61 20.45 94.61 19.88L94.61 16.55Q94.61 15.82 94.15 15.39Q93.69 14.97 92.81 14.97Q91.97 14.97 91.48 15.32Q90.98 15.66 90.87 16.2L90.85 16.29L88.11 16.29L88.12 16.17Q88.21 15.15 88.8 14.36Q89.39 13.57 90.44 13.13Q91.49 12.68 92.93 12.68Q94.36 12.68 95.4 13.14Q96.45 13.59 97.03 14.42Q97.61 15.25 97.61 16.36L97.61 23.9L94.61 23.9L94.61 22.26L94.55 22.26Q94.25 22.82 93.76 23.23Q93.27 23.63 92.66 23.85Q92.04 24.07 91.31 24.07ZM99.61 23.9L99.61 9.1L102.6 9.1L102.6 23.9ZM112.16 23.9L108.24 9.1L111.45 9.1L113.79 19.7L113.85 19.7L116.58 9.1L119.3 9.1L122.02 19.7L122.08 19.7L124.43 9.1L127.64 9.1L123.72 23.9L120.69 23.9L117.97 13.98L117.91 13.98L115.18 23.9ZM132.86 24.12Q131.19 24.12 129.97 23.44Q128.75 22.75 128.08 21.47Q127.42 20.19 127.42 18.4L127.42 18.38Q127.42 16.61 128.09 15.33Q128.77 14.05 129.99 13.37Q131.21 12.68 132.85 12.68Q134.5 12.68 135.73 13.36Q136.95 14.04 137.63 15.32Q138.31 16.6 138.31 18.38L138.31 18.4Q138.31 20.2 137.64 21.48Q136.96 22.76 135.74 23.44Q134.52 24.12 132.86 24.12ZM132.87 21.78Q133.6 21.78 134.14 21.38Q134.68 20.99 134.97 20.23Q135.26 19.48 135.26 18.4L135.26 18.38Q135.26 17.32 134.96 16.57Q134.67 15.82 134.12 15.42Q133.58 15.03 132.85 15.03Q132.13 15.03 131.6 15.42Q131.06 15.82 130.76 16.57Q130.46 17.32 130.46 18.38L130.46 18.4Q130.46 19.48 130.75 20.23Q131.05 20.99 131.59 21.38Q132.13 21.78 132.87 21.78ZM139.84 23.9L139.84 12.91L142.84 12.91L142.84 14.82L142.9 14.82Q143.15 13.81 143.79 13.24Q144.44 12.68 145.4 12.68Q145.65 12.68 145.87 12.71Q146.1 12.74 146.26 12.79L146.26 15.43Q146.08 15.36 145.79 15.31Q145.5 15.26 145.18 15.26Q144.44 15.26 143.92 15.55Q143.39 15.84 143.12 16.39Q142.84 16.95 142.84 17.75L142.84 23.9ZM147.59 23.9L147.59 9.1L150.58 9.1L150.58 23.9ZM154.5 23.9L151.1 19.04L153 16.76L157.95 23.9ZM150.21 20.66L150.21 17.3L150.64 17.3L154.35 12.91L157.75 12.91L152.67 18.68L152.01 18.68ZM169.78 24.15Q167.61 24.15 166.03 23.23Q164.44 22.31 163.59 20.59Q162.73 18.87 162.73 16.49L162.73 16.48Q162.73 14.1 163.59 12.39Q164.45 10.68 166.03 9.76Q167.61 8.85 169.78 8.85Q171.57 8.85 172.98 9.54Q174.38 10.24 175.23 11.46Q176.08 12.67 176.23 14.25L176.24 14.34L173.22 14.34L173.18 14.17Q173.01 13.35 172.55 12.74Q172.1 12.14 171.4 11.8Q170.7 11.47 169.78 11.47Q168.59 11.47 167.71 12.08Q166.84 12.68 166.37 13.8Q165.89 14.93 165.89 16.47L165.89 16.48Q165.89 18.04 166.37 19.18Q166.84 20.31 167.72 20.92Q168.6 21.53 169.78 21.53Q170.67 21.53 171.37 21.2Q172.07 20.87 172.54 20.25Q173.02 19.63 173.21 18.75L173.23 18.65L176.25 18.65L176.24 18.76Q176.09 20.33 175.24 21.55Q174.38 22.77 172.98 23.46Q171.57 24.15 169.78 24.15ZM177.97 23.9L177.97 9.1L180.96 9.1L180.96 14.8L181.02 14.8Q181.46 13.78 182.31 13.23Q183.17 12.68 184.4 12.68Q185.6 12.68 186.46 13.21Q187.32 13.74 187.79 14.7Q188.25 15.66 188.25 17L188.25 23.9L185.26 23.9L185.26 17.61Q185.26 16.46 184.71 15.81Q184.16 15.16 183.14 15.16Q182.48 15.16 181.99 15.47Q181.51 15.79 181.23 16.34Q180.96 16.88 180.96 17.6L180.96 23.9ZM195.17 24.12Q193.49 24.12 192.28 23.43Q191.07 22.74 190.42 21.46Q189.77 20.18 189.77 18.42L189.77 18.41Q189.77 16.66 190.42 15.37Q191.07 14.09 192.26 13.38Q193.44 12.68 195.05 12.68Q196.66 12.68 197.84 13.36Q199.01 14.04 199.65 15.28Q200.29 16.53 200.29 18.19L200.29 19.11L191.24 19.11L191.24 17.22L198.88 17.22L197.45 18.99L197.45 17.84Q197.45 16.87 197.15 16.22Q196.86 15.57 196.33 15.24Q195.8 14.92 195.1 14.92Q194.41 14.92 193.87 15.25Q193.33 15.59 193.03 16.24Q192.72 16.89 192.72 17.84L192.72 19Q192.72 19.91 193.03 20.56Q193.33 21.2 193.89 21.54Q194.46 21.89 195.24 21.89Q195.85 21.89 196.3 21.69Q196.75 21.5 197.04 21.2Q197.33 20.9 197.43 20.6L197.45 20.53L200.2 20.53L200.17 20.65Q200.05 21.25 199.69 21.87Q199.33 22.48 198.72 23Q198.11 23.51 197.23 23.82Q196.35 24.12 195.17 24.12ZM206.85 24.12Q205.18 24.12 203.96 23.43Q202.74 22.73 202.09 21.44Q201.43 20.16 201.43 18.39L201.43 18.38Q201.43 16.62 202.09 15.34Q202.75 14.06 203.97 13.37Q205.18 12.68 206.82 12.68Q208.32 12.68 209.42 13.24Q210.51 13.8 211.14 14.75Q211.76 15.71 211.82 16.89L211.82 16.97L209.04 16.97L209.02 16.87Q208.88 16.08 208.34 15.56Q207.8 15.03 206.86 15.03Q206.14 15.03 205.6 15.43Q205.06 15.84 204.77 16.59Q204.48 17.35 204.48 18.39L204.48 18.4Q204.48 19.48 204.77 20.23Q205.06 20.99 205.6 21.38Q206.14 21.78 206.87 21.78Q207.78 21.78 208.33 21.27Q208.87 20.76 209.03 19.93L209.04 19.84L211.83 19.84L211.83 19.9Q211.76 21.1 211.13 22.05Q210.5 23.01 209.41 23.56Q208.32 24.12 206.85 24.12ZM213.38 23.9L213.38 9.1L216.37 9.1L216.37 23.9ZM220.29 23.9L216.89 19.04L218.79 16.76L223.74 23.9ZM216 20.66L216 17.3L216.43 17.3L220.14 12.91L223.54 12.91L218.46 18.68L217.79 18.68ZM228.89 24.12Q227.37 24.12 226.31 23.68Q225.24 23.24 224.64 22.46Q224.04 21.67 223.92 20.64L223.91 20.55L226.83 20.55L226.85 20.64Q226.99 21.28 227.5 21.64Q228 22 228.89 22Q229.46 22 229.86 21.86Q230.26 21.72 230.48 21.47Q230.7 21.21 230.7 20.85L230.7 20.84Q230.7 20.4 230.39 20.14Q230.07 19.87 229.26 19.68L227.39 19.29Q226.33 19.07 225.61 18.64Q224.9 18.22 224.54 17.59Q224.18 16.96 224.18 16.14L224.18 16.13Q224.18 15.07 224.75 14.3Q225.31 13.53 226.35 13.11Q227.39 12.68 228.79 12.68Q230.24 12.68 231.26 13.15Q232.28 13.61 232.83 14.4Q233.38 15.19 233.41 16.16L233.41 16.26L230.65 16.26L230.64 16.18Q230.57 15.58 230.09 15.19Q229.62 14.79 228.79 14.79Q228.27 14.79 227.9 14.94Q227.52 15.08 227.31 15.34Q227.11 15.6 227.11 15.96L227.11 15.97Q227.11 16.25 227.24 16.47Q227.38 16.69 227.71 16.85Q228.04 17.02 228.59 17.14L230.46 17.54Q231.61 17.78 232.32 18.18Q233.03 18.58 233.37 19.16Q233.7 19.74 233.7 20.55L233.7 20.56Q233.7 21.63 233.08 22.43Q232.47 23.23 231.39 23.68Q230.3 24.12 228.89 24.12Z"></path>
  </g>
  <rect class="rule" x="0" y="31" width="235" height="1"></rect>
</svg>
