<svg width="233" height="25" viewBox="0 0 233 25" xmlns="http://www.w3.org/2000/svg" role="img" aria-label="General Work Checks">
  <style>
    .ink { fill: #172032; }
    @media (prefers-color-scheme: dark) {
      .ink { fill: rgb(230,234,242); }
    }
  </style>
  <g class="ink">
    <g class="ink" transform="translate(0,7) scale(1)"><path fill-rule="evenodd" d="M18 5.25a2.25 2.25 0 0 0-2.012-2.238A2.25 2.25 0 0 0 13.75 1h-1.5a2.25 2.25 0 0 0-2.238 2.012c-.875.092-1.6.686-1.884 1.488H11A2.5 2.5 0 0 1 13.5 7v7h2.25A2.25 2.25 0 0 0 18 11.75v-6.5ZM12.25 2.5a.75.75 0 0 0-.75.75v.25h3v-.25a.75.75 0 0 0-.75-.75h-1.5Z" clip-rule="evenodd"></path><path fill-rule="evenodd" d="M3 6a1 1 0 0 0-1 1v10a1 1 0 0 0 1 1h8a1 1 0 0 0 1-1V7a1 1 0 0 0-1-1H3Zm6.874 4.166a.75.75 0 1 0-1.248-.832l-2.493 3.739-.853-.853a.75.75 0 0 0-1.06 1.06l1.5 1.5a.75.75 0 0 0 1.154-.114l3-4.5Z" clip-rule="evenodd"></path></g>
    <path d="M37.34 24.09L37.34 24.09Q35.76 24.09 34.39 23.51Q33.01 22.94 31.97 21.89Q30.93 20.84 30.35 19.46Q29.78 18.09 29.78 16.49L29.78 16.49Q29.78 14.87 30.37 13.5Q30.95 12.12 32 11.08Q33.05 10.04 34.46 9.46Q35.87 8.89 37.51 8.89L37.51 8.89Q39.33 8.89 40.87 9.57Q42.4 10.25 43.41 11.49L43.41 11.49L41.47 13.42Q40.78 12.52 39.75 12.04Q38.72 11.55 37.48 11.55L37.48 11.55Q36.08 11.55 35 12.17Q33.91 12.79 33.31 13.9Q32.7 15 32.7 16.47L32.7 16.47Q32.7 17.94 33.29 19.06Q33.89 20.19 34.93 20.82Q35.97 21.45 37.32 21.45L37.32 21.45Q38.7 21.45 39.69 20.93Q40.68 20.42 41.2 19.42Q41.73 18.42 41.73 16.97L41.73 16.97L43.6 18.25L37.15 18.19L37.15 15.71L44.67 15.71L44.67 16.11Q44.67 18.76 43.72 20.53Q42.78 22.31 41.13 23.2Q39.48 24.09 37.34 24.09M51.41 24.09L51.41 24.09Q49.81 24.09 48.57 23.41Q47.33 22.73 46.61 21.53Q45.88 20.33 45.88 18.8L45.88 18.8Q45.88 17.29 46.59 16.1Q47.29 14.91 48.51 14.21Q49.73 13.51 51.22 13.51L51.22 13.51Q52.69 13.51 53.81 14.17Q54.94 14.83 55.58 15.97Q56.22 17.12 56.22 18.57L56.22 18.57Q56.22 18.84 56.18 19.13Q56.15 19.41 56.07 19.77L56.07 19.77L47.54 19.79L47.54 17.73L54.79 17.71L53.68 18.57Q53.63 17.67 53.35 17.06Q53.07 16.45 52.53 16.12Q52 15.8 51.22 15.8L51.22 15.8Q50.4 15.8 49.79 16.16Q49.18 16.53 48.86 17.19Q48.53 17.85 48.53 18.76L48.53 18.76Q48.53 19.68 48.88 20.36Q49.22 21.05 49.87 21.41Q50.53 21.78 51.39 21.78L51.39 21.78Q52.16 21.78 52.79 21.52Q53.42 21.26 53.89 20.73L53.89 20.73L55.5 22.35Q54.77 23.21 53.71 23.65Q52.65 24.09 51.41 24.09M67.49 23.88L64.74 23.88L64.74 18.06Q64.74 17.16 64.18 16.59Q63.61 16.03 62.71 16.03L62.71 16.03Q62.12 16.03 61.66 16.28Q61.19 16.53 60.93 16.99Q60.67 17.46 60.67 18.06L60.67 18.06L59.6 17.52Q59.6 16.32 60.11 15.43Q60.63 14.54 61.54 14.03Q62.45 13.53 63.61 13.53L63.61 13.53Q64.72 13.53 65.6 14.09Q66.49 14.64 66.99 15.53Q67.49 16.43 67.49 17.46L67.49 17.46L67.49 23.88M60.67 23.88L57.92 23.88L57.92 13.74L60.67 13.74L60.67 23.88M74.57 24.09L74.57 24.09Q72.97 24.09 71.74 23.41Q70.5 22.73 69.77 21.53Q69.05 20.33 69.05 18.8L69.05 18.8Q69.05 17.29 69.75 16.1Q70.45 14.91 71.67 14.21Q72.89 13.51 74.38 13.51L74.38 13.51Q75.85 13.51 76.97 14.17Q78.1 14.83 78.74 15.97Q79.38 17.12 79.38 18.57L79.38 18.57Q79.38 18.84 79.35 19.13Q79.32 19.41 79.23 19.77L79.23 19.77L70.71 19.79L70.71 17.73L77.95 17.71L76.84 18.57Q76.8 17.67 76.51 17.06Q76.23 16.45 75.69 16.12Q75.16 15.8 74.38 15.8L74.38 15.8Q73.56 15.8 72.95 16.16Q72.34 16.53 72.02 17.19Q71.69 17.85 71.69 18.76L71.69 18.76Q71.69 19.68 72.04 20.36Q72.39 21.05 73.04 21.41Q73.69 21.78 74.55 21.78L74.55 21.78Q75.33 21.78 75.96 21.52Q76.59 21.26 77.05 20.73L77.05 20.73L78.67 22.35Q77.93 23.21 76.87 23.65Q75.81 24.09 74.57 24.09M83.83 23.88L81.08 23.88L81.08 13.74L83.83 13.74L83.83 23.88M83.83 18.27L83.83 18.27L82.76 17.56Q82.95 15.69 83.85 14.61Q84.76 13.53 86.46 13.53L86.46 13.53Q87.19 13.53 87.78 13.77Q88.37 14.01 88.85 14.56L88.85 14.56L87.13 16.53Q86.9 16.28 86.57 16.15Q86.25 16.03 85.83 16.03L85.83 16.03Q84.94 16.03 84.39 16.58Q83.83 17.14 83.83 18.27M93.79 24.09L93.79 24.09Q92.4 24.09 91.29 23.4Q90.17 22.71 89.54 21.51Q88.91 20.31 88.91 18.82L88.91 18.82Q88.91 17.31 89.54 16.11Q90.17 14.91 91.29 14.22Q92.4 13.53 93.79 13.53L93.79 13.53Q94.88 13.53 95.74 13.97Q96.6 14.41 97.11 15.2Q97.63 15.99 97.67 16.97L97.67 16.97L97.67 20.63Q97.63 21.63 97.11 22.41Q96.6 23.19 95.74 23.64Q94.88 24.09 93.79 24.09M94.29 21.55L94.29 21.55Q95.44 21.55 96.16 20.78Q96.87 20.02 96.87 18.8L96.87 18.8Q96.87 18 96.55 17.38Q96.22 16.76 95.64 16.42Q95.07 16.07 94.29 16.07L94.29 16.07Q93.53 16.07 92.96 16.42Q92.38 16.76 92.05 17.38Q91.73 18 91.73 18.8L91.73 18.8Q91.73 19.62 92.05 20.24Q92.38 20.86 92.96 21.2Q93.53 21.55 94.29 21.55M99.46 23.88L96.73 23.88L96.73 21.15L97.17 18.67L96.73 16.24L96.73 13.74L99.46 13.74L99.46 23.88M104.64 23.88L101.89 23.88L101.89 8.7L104.64 8.7L104.64 23.88M117.35 23.88L115.21 23.88L110.42 9.12L113.23 9.12L116.78 20.48L115.84 20.48L119.32 9.12L121.44 9.12L124.93 20.48L123.96 20.48L127.53 9.12L130.35 9.12L125.54 23.88L123.42 23.88L119.91 12.54L120.83 12.54L117.35 23.88M135.39 24.09L135.39 24.09Q133.85 24.09 132.62 23.39Q131.4 22.68 130.67 21.48Q129.95 20.27 129.95 18.78L129.95 18.78Q129.95 17.29 130.66 16.1Q131.38 14.91 132.61 14.21Q133.85 13.51 135.37 13.51L135.37 13.51Q136.92 13.51 138.15 14.21Q139.38 14.91 140.09 16.1Q140.8 17.29 140.8 18.78L140.8 18.78Q140.8 20.27 140.09 21.48Q139.38 22.68 138.15 23.39Q136.92 24.09 135.39 24.09M135.37 21.53L135.37 21.53Q136.14 21.53 136.74 21.18Q137.34 20.84 137.66 20.22Q137.99 19.6 137.99 18.8L137.99 18.8Q137.99 18 137.65 17.39Q137.32 16.78 136.73 16.44Q136.14 16.09 135.37 16.09L135.37 16.09Q134.61 16.09 134.02 16.44Q133.43 16.78 133.1 17.39Q132.76 18 132.76 18.8L132.76 18.8Q132.76 19.6 133.1 20.22Q133.43 20.84 134.02 21.18Q134.61 21.53 135.37 21.53M145.32 23.88L142.57 23.88L142.57 13.74L145.32 13.74L145.32 23.88M145.32 18.27L145.32 18.27L144.25 17.56Q144.44 15.69 145.34 14.61Q146.24 13.53 147.94 13.53L147.94 13.53Q148.68 13.53 149.27 13.77Q149.86 14.01 150.34 14.56L150.34 14.56L148.62 16.53Q148.39 16.28 148.06 16.15Q147.73 16.03 147.31 16.03L147.31 16.03Q146.43 16.03 145.88 16.58Q145.32 17.14 145.32 18.27M161.13 23.88L157.77 23.88L153.85 18.65L157.75 13.74L160.92 13.74L156.34 19.28L156.45 17.94L161.13 23.88M154.06 23.88L151.3 23.88L151.3 8.7L154.06 8.7L154.06 23.88M173.63 24.09L173.63 24.09Q172.01 24.09 170.62 23.51Q169.24 22.94 168.2 21.9Q167.16 20.86 166.6 19.47Q166.05 18.09 166.05 16.49L166.05 16.49Q166.05 14.89 166.6 13.51Q167.16 12.12 168.2 11.09Q169.24 10.06 170.61 9.48Q171.99 8.89 173.63 8.89L173.63 8.89Q175.39 8.89 176.74 9.46Q178.08 10.04 179.11 11.05L179.11 11.05L177.18 12.98Q176.57 12.31 175.69 11.93Q174.8 11.55 173.63 11.55L173.63 11.55Q172.6 11.55 171.75 11.9Q170.9 12.25 170.27 12.91Q169.64 13.57 169.3 14.48Q168.97 15.4 168.97 16.49L168.97 16.49Q168.97 17.6 169.3 18.51Q169.64 19.41 170.27 20.07Q170.9 20.73 171.75 21.09Q172.6 21.45 173.63 21.45L173.63 21.45Q174.87 21.45 175.76 21.07Q176.65 20.69 177.26 20L177.26 20L179.19 21.93Q178.16 22.96 176.8 23.52Q175.43 24.09 173.63 24.09M190.47 23.88L187.72 23.88L187.72 18.06Q187.72 17.16 187.15 16.59Q186.58 16.03 185.68 16.03L185.68 16.03Q185.09 16.03 184.63 16.28Q184.17 16.53 183.91 16.99Q183.64 17.46 183.64 18.06L183.64 18.06L182.57 17.52Q182.57 16.32 183.08 15.43Q183.58 14.54 184.47 14.03Q185.37 13.53 186.52 13.53L186.52 13.53Q187.68 13.53 188.57 14.03Q189.46 14.54 189.97 15.42Q190.47 16.3 190.47 17.46L190.47 17.46L190.47 23.88M183.64 23.88L180.89 23.88L180.89 8.7L183.64 8.7L183.64 23.88M197.55 24.09L197.55 24.09Q195.95 24.09 194.71 23.41Q193.47 22.73 192.75 21.53Q192.02 20.33 192.02 18.8L192.02 18.8Q192.02 17.29 192.73 16.1Q193.43 14.91 194.65 14.21Q195.87 13.51 197.36 13.51L197.36 13.51Q198.83 13.51 199.95 14.17Q201.07 14.83 201.71 15.97Q202.36 17.12 202.36 18.57L202.36 18.57Q202.36 18.84 202.32 19.13Q202.29 19.41 202.21 19.77L202.21 19.77L193.68 19.79L193.68 17.73L200.93 17.71L199.81 18.57Q199.77 17.67 199.49 17.06Q199.21 16.45 198.67 16.12Q198.13 15.8 197.36 15.8L197.36 15.8Q196.54 15.8 195.93 16.16Q195.32 16.53 194.99 17.19Q194.67 17.85 194.67 18.76L194.67 18.76Q194.67 19.68 195.02 20.36Q195.36 21.05 196.01 21.41Q196.66 21.78 197.53 21.78L197.53 21.78Q198.3 21.78 198.93 21.52Q199.56 21.26 200.02 20.73L200.02 20.73L201.64 22.35Q200.91 23.21 199.85 23.65Q198.79 24.09 197.55 24.09M208.84 24.09L208.84 24.09Q207.29 24.09 206.05 23.4Q204.81 22.71 204.1 21.51Q203.38 20.31 203.38 18.82L203.38 18.82Q203.38 17.31 204.1 16.11Q204.81 14.91 206.06 14.21Q207.31 13.51 208.84 13.51L208.84 13.51Q210.04 13.51 211.05 13.95Q212.06 14.39 212.79 15.21L212.79 15.21L211.03 16.99Q210.63 16.55 210.07 16.32Q209.52 16.09 208.84 16.09L208.84 16.09Q208.09 16.09 207.49 16.44Q206.89 16.78 206.54 17.38Q206.2 17.98 206.2 18.8L206.2 18.8Q206.2 19.6 206.54 20.22Q206.89 20.84 207.49 21.18Q208.09 21.53 208.84 21.53L208.84 21.53Q209.54 21.53 210.09 21.29Q210.65 21.05 211.05 20.58L211.05 20.58L212.83 22.37Q212.06 23.21 211.05 23.65Q210.04 24.09 208.84 24.09M224.22 23.88L220.86 23.88L216.93 18.65L220.84 13.74L224.01 13.74L219.43 19.28L219.53 17.94L224.22 23.88M217.14 23.88L214.39 23.88L214.39 8.7L217.14 8.7L217.14 23.88M228.37 24.11L228.37 24.11Q227.51 24.11 226.68 23.88Q225.85 23.65 225.16 23.24Q224.47 22.83 223.96 22.24L223.96 22.24L225.6 20.58Q226.13 21.17 226.82 21.47Q227.51 21.76 228.35 21.76L228.35 21.76Q229.03 21.76 229.37 21.57Q229.72 21.38 229.72 21L229.72 21Q229.72 20.58 229.35 20.35Q228.98 20.12 228.4 19.97Q227.81 19.81 227.17 19.61Q226.53 19.41 225.94 19.08Q225.35 18.76 224.98 18.18Q224.62 17.6 224.62 16.68L224.62 16.68Q224.62 15.71 225.09 15Q225.56 14.28 226.44 13.89Q227.32 13.49 228.52 13.49L228.52 13.49Q229.78 13.49 230.8 13.93Q231.82 14.37 232.49 15.25L232.49 15.25L230.83 16.91Q230.37 16.34 229.79 16.09Q229.21 15.84 228.54 15.84L228.54 15.84Q227.93 15.84 227.61 16.03Q227.28 16.22 227.28 16.55L227.28 16.55Q227.28 16.93 227.65 17.14Q228.02 17.35 228.61 17.51Q229.19 17.67 229.83 17.86Q230.47 18.06 231.05 18.42Q231.63 18.78 232 19.37Q232.36 19.95 232.36 20.88L232.36 20.88Q232.36 22.37 231.29 23.24Q230.22 24.11 228.37 24.11"></path>
  </g>
</svg>
