<svg width="235" height="19" viewBox="0 0 235 19" xmlns="http://www.w3.org/2000/svg" role="img" aria-label="General Work Checks">
  <style>
    .ink { fill: #172032; }
    @media (prefers-color-scheme: dark) {
      .ink { fill: rgb(230,234,242); }
    }
  </style>
  <g class="ink">
    <g class="ink" transform="translate(1,0) scale(1)"><path fill-rule="evenodd" d="M18 5.25a2.25 2.25 0 0 0-2.012-2.238A2.25 2.25 0 0 0 13.75 1h-1.5a2.25 2.25 0 0 0-2.238 2.012c-.875.092-1.6.686-1.884 1.488H11A2.5 2.5 0 0 1 13.5 7v7h2.25A2.25 2.25 0 0 0 18 11.75v-6.5ZM12.25 2.5a.75.75 0 0 0-.75.75v.25h3v-.25a.75.75 0 0 0-.75-.75h-1.5Z" clip-rule="evenodd"></path><path fill-rule="evenodd" d="M3 6a1 1 0 0 0-1 1v10a1 1 0 0 0 1 1h8a1 1 0 0 0 1-1V7a1 1 0 0 0-1-1H3Zm6.874 4.166a.75.75 0 1 0-1.248-.832l-2.493 3.739-.853-.853a.75.75 0 0 0-1.06 1.06l1.5 1.5a.75.75 0 0 0 1.154-.114l3-4.5Z" clip-rule="evenodd"></path></g>
    <path d="M38.34 17.09L38.34 17.09Q36.76 17.09 35.39 16.51Q34.01 15.94 32.97 14.89Q31.93 13.84 31.35 12.46Q30.78 11.09 30.78 9.49L30.78 9.49Q30.78 7.87 31.37 6.5Q31.95 5.12 33 4.08Q34.05 3.04 35.46 2.46Q36.87 1.89 38.51 1.89L38.51 1.89Q40.33 1.89 41.87 2.57Q43.4 3.25 44.41 4.49L44.41 4.49L42.47 6.42Q41.78 5.52 40.75 5.04Q39.72 4.55 38.48 4.55L38.48 4.55Q37.08 4.55 36 5.17Q34.91 5.79 34.31 6.9Q33.7 8 33.7 9.47L33.7 9.47Q33.7 10.94 34.29 12.06Q34.89 13.19 35.93 13.82Q36.97 14.45 38.32 14.45L38.32 14.45Q39.7 14.45 40.69 13.93Q41.68 13.42 42.2 12.42Q42.73 11.42 42.73 9.97L42.73 9.97L44.6 11.25L38.15 11.19L38.15 8.71L45.67 8.71L45.67 9.11Q45.67 11.76 44.72 13.53Q43.78 15.31 42.13 16.2Q40.48 17.09 38.34 17.09M52.41 17.09L52.41 17.09Q50.81 17.09 49.57 16.41Q48.33 15.73 47.61 14.53Q46.88 13.33 46.88 11.8L46.88 11.8Q46.88 10.29 47.59 9.1Q48.29 7.91 49.51 7.21Q50.73 6.51 52.22 6.51L52.22 6.51Q53.69 6.51 54.81 7.17Q55.94 7.83 56.58 8.97Q57.22 10.12 57.22 11.57L57.22 11.57Q57.22 11.84 57.18 12.13Q57.15 12.41 57.07 12.77L57.07 12.77L48.54 12.79L48.54 10.73L55.79 10.71L54.68 11.57Q54.63 10.67 54.35 10.06Q54.07 9.45 53.53 9.12Q53 8.8 52.22 8.8L52.22 8.8Q51.4 8.8 50.79 9.16Q50.18 9.53 49.86 10.19Q49.53 10.85 49.53 11.76L49.53 11.76Q49.53 12.68 49.88 13.36Q50.22 14.05 50.87 14.41Q51.53 14.78 52.39 14.78L52.39 14.78Q53.16 14.78 53.79 14.52Q54.42 14.26 54.89 13.73L54.89 13.73L56.5 15.35Q55.77 16.21 54.71 16.65Q53.65 17.09 52.41 17.09M68.49 16.88L65.74 16.88L65.74 11.06Q65.74 10.16 65.18 9.59Q64.61 9.03 63.71 9.03L63.71 9.03Q63.12 9.03 62.66 9.28Q62.19 9.53 61.93 9.99Q61.67 10.46 61.67 11.06L61.67 11.06L60.6 10.52Q60.6 9.32 61.11 8.43Q61.63 7.54 62.54 7.03Q63.45 6.53 64.61 6.53L64.61 6.53Q65.72 6.53 66.6 7.08Q67.49 7.64 67.99 8.53Q68.49 9.43 68.49 10.46L68.49 10.46L68.49 16.88M61.67 16.88L58.92 16.88L58.92 6.74L61.67 6.74L61.67 16.88M75.57 17.09L75.57 17.09Q73.97 17.09 72.74 16.41Q71.5 15.73 70.77 14.53Q70.05 13.33 70.05 11.8L70.05 11.8Q70.05 10.29 70.75 9.1Q71.45 7.91 72.67 7.21Q73.89 6.51 75.38 6.51L75.38 6.51Q76.85 6.51 77.97 7.17Q79.1 7.83 79.74 8.97Q80.38 10.12 80.38 11.57L80.38 11.57Q80.38 11.84 80.35 12.13Q80.32 12.41 80.23 12.77L80.23 12.77L71.71 12.79L71.71 10.73L78.95 10.71L77.84 11.57Q77.8 10.67 77.51 10.06Q77.23 9.45 76.69 9.12Q76.16 8.8 75.38 8.8L75.38 8.8Q74.56 8.8 73.95 9.16Q73.34 9.53 73.02 10.19Q72.69 10.85 72.69 11.76L72.69 11.76Q72.69 12.68 73.04 13.36Q73.39 14.05 74.04 14.41Q74.69 14.78 75.55 14.78L75.55 14.78Q76.33 14.78 76.96 14.52Q77.59 14.26 78.05 13.73L78.05 13.73L79.67 15.35Q78.93 16.21 77.87 16.65Q76.81 17.09 75.57 17.09M84.83 16.88L82.08 16.88L82.08 6.74L84.83 6.74L84.83 16.88M84.83 11.27L84.83 11.27L83.76 10.56Q83.95 8.69 84.85 7.61Q85.76 6.53 87.46 6.53L87.46 6.53Q88.19 6.53 88.78 6.77Q89.37 7.01 89.85 7.56L89.85 7.56L88.13 9.53Q87.9 9.28 87.57 9.15Q87.25 9.03 86.83 9.03L86.83 9.03Q85.94 9.03 85.39 9.58Q84.83 10.14 84.83 11.27M94.79 17.09L94.79 17.09Q93.4 17.09 92.29 16.4Q91.17 15.71 90.54 14.51Q89.91 13.31 89.91 11.82L89.91 11.82Q89.91 10.31 90.54 9.11Q91.17 7.91 92.29 7.22Q93.4 6.53 94.79 6.53L94.79 6.53Q95.88 6.53 96.74 6.97Q97.6 7.41 98.11 8.2Q98.63 8.99 98.67 9.97L98.67 9.97L98.67 13.63Q98.63 14.63 98.11 15.41Q97.6 16.19 96.74 16.64Q95.88 17.09 94.79 17.09M95.29 14.55L95.29 14.55Q96.44 14.55 97.16 13.78Q97.87 13.02 97.87 11.8L97.87 11.8Q97.87 11 97.55 10.38Q97.22 9.76 96.64 9.42Q96.07 9.07 95.29 9.07L95.29 9.07Q94.53 9.07 93.96 9.42Q93.38 9.76 93.05 10.38Q92.73 11 92.73 11.8L92.73 11.8Q92.73 12.62 93.05 13.24Q93.38 13.86 93.96 14.2Q94.53 14.55 95.29 14.55M100.46 16.88L97.73 16.88L97.73 14.15L98.17 11.67L97.73 9.24L97.73 6.74L100.46 6.74L100.46 16.88M105.64 16.88L102.89 16.88L102.89 1.7L105.64 1.7L105.64 16.88M118.35 16.88L116.21 16.88L111.42 2.12L114.23 2.12L117.78 13.48L116.84 13.48L120.32 2.12L122.44 2.12L125.93 13.48L124.96 13.48L128.53 2.12L131.35 2.12L126.54 16.88L124.42 16.88L120.91 5.54L121.83 5.54L118.35 16.88M136.39 17.09L136.39 17.09Q134.85 17.09 133.62 16.39Q132.4 15.68 131.67 14.48Q130.95 13.27 130.95 11.78L130.95 11.78Q130.95 10.29 131.66 9.1Q132.38 7.91 133.61 7.21Q134.85 6.51 136.37 6.51L136.37 6.51Q137.92 6.51 139.15 7.21Q140.38 7.91 141.09 9.1Q141.8 10.29 141.8 11.78L141.8 11.78Q141.8 13.27 141.09 14.48Q140.38 15.68 139.15 16.39Q137.92 17.09 136.39 17.09M136.37 14.53L136.37 14.53Q137.14 14.53 137.74 14.18Q138.34 13.84 138.66 13.22Q138.99 12.6 138.99 11.8L138.99 11.8Q138.99 11 138.65 10.39Q138.32 9.78 137.73 9.44Q137.14 9.09 136.37 9.09L136.37 9.09Q135.61 9.09 135.02 9.44Q134.43 9.78 134.1 10.39Q133.76 11 133.76 11.8L133.76 11.8Q133.76 12.6 134.1 13.22Q134.43 13.84 135.02 14.18Q135.61 14.53 136.37 14.53M146.32 16.88L143.57 16.88L143.57 6.74L146.32 6.74L146.32 16.88M146.32 11.27L146.32 11.27L145.25 10.56Q145.44 8.69 146.34 7.61Q147.24 6.53 148.94 6.53L148.94 6.53Q149.68 6.53 150.27 6.77Q150.86 7.01 151.34 7.56L151.34 7.56L149.62 9.53Q149.39 9.28 149.06 9.15Q148.73 9.03 148.31 9.03L148.31 9.03Q147.43 9.03 146.88 9.58Q146.32 10.14 146.32 11.27M162.13 16.88L158.77 16.88L154.85 11.65L158.75 6.74L161.92 6.74L157.34 12.28L157.45 10.94L162.13 16.88M155.06 16.88L152.3 16.88L152.3 1.7L155.06 1.7L155.06 16.88M174.63 17.09L174.63 17.09Q173.01 17.09 171.62 16.51Q170.24 15.94 169.2 14.9Q168.16 13.86 167.6 12.47Q167.05 11.09 167.05 9.49L167.05 9.49Q167.05 7.89 167.6 6.51Q168.16 5.12 169.2 4.09Q170.24 3.06 171.61 2.48Q172.99 1.89 174.63 1.89L174.63 1.89Q176.39 1.89 177.74 2.46Q179.08 3.04 180.11 4.05L180.11 4.05L178.18 5.98Q177.57 5.31 176.69 4.93Q175.8 4.55 174.63 4.55L174.63 4.55Q173.6 4.55 172.75 4.9Q171.9 5.25 171.27 5.91Q170.64 6.57 170.3 7.48Q169.97 8.4 169.97 9.49L169.97 9.49Q169.97 10.6 170.3 11.51Q170.64 12.41 171.27 13.07Q171.9 13.73 172.75 14.09Q173.6 14.45 174.63 14.45L174.63 14.45Q175.87 14.45 176.76 14.07Q177.65 13.69 178.26 13L178.26 13L180.19 14.93Q179.16 15.96 177.8 16.52Q176.43 17.09 174.63 17.09M191.47 16.88L188.72 16.88L188.72 11.06Q188.72 10.16 188.15 9.59Q187.58 9.03 186.68 9.03L186.68 9.03Q186.09 9.03 185.63 9.28Q185.17 9.53 184.91 9.99Q184.64 10.46 184.64 11.06L184.64 11.06L183.57 10.52Q183.57 9.32 184.08 8.43Q184.58 7.54 185.47 7.03Q186.37 6.53 187.52 6.53L187.52 6.53Q188.68 6.53 189.57 7.03Q190.46 7.54 190.97 8.42Q191.47 9.3 191.47 10.46L191.47 10.46L191.47 16.88M184.64 16.88L181.89 16.88L181.89 1.7L184.64 1.7L184.64 16.88M198.55 17.09L198.55 17.09Q196.95 17.09 195.71 16.41Q194.47 15.73 193.75 14.53Q193.02 13.33 193.02 11.8L193.02 11.8Q193.02 10.29 193.73 9.1Q194.43 7.91 195.65 7.21Q196.87 6.51 198.36 6.51L198.36 6.51Q199.83 6.51 200.95 7.17Q202.07 7.83 202.71 8.97Q203.36 10.12 203.36 11.57L203.36 11.57Q203.36 11.84 203.32 12.13Q203.29 12.41 203.21 12.77L203.21 12.77L194.68 12.79L194.68 10.73L201.93 10.71L200.81 11.57Q200.77 10.67 200.49 10.06Q200.21 9.45 199.67 9.12Q199.13 8.8 198.36 8.8L198.36 8.8Q197.54 8.8 196.93 9.16Q196.32 9.53 195.99 10.19Q195.67 10.85 195.67 11.76L195.67 11.76Q195.67 12.68 196.02 13.36Q196.36 14.05 197.01 14.41Q197.66 14.78 198.53 14.78L198.53 14.78Q199.3 14.78 199.93 14.52Q200.56 14.26 201.02 13.73L201.02 13.73L202.64 15.35Q201.91 16.21 200.85 16.65Q199.79 17.09 198.55 17.09M209.84 17.09L209.84 17.09Q208.29 17.09 207.05 16.4Q205.81 15.71 205.1 14.51Q204.38 13.31 204.38 11.82L204.38 11.82Q204.38 10.31 205.1 9.11Q205.81 7.91 207.06 7.21Q208.31 6.51 209.84 6.51L209.84 6.51Q211.04 6.51 212.05 6.95Q213.06 7.39 213.79 8.21L213.79 8.21L212.03 9.99Q211.63 9.55 211.07 9.32Q210.52 9.09 209.84 9.09L209.84 9.09Q209.09 9.09 208.49 9.44Q207.89 9.78 207.54 10.38Q207.2 10.98 207.2 11.8L207.2 11.8Q207.2 12.6 207.54 13.22Q207.89 13.84 208.49 14.18Q209.09 14.53 209.84 14.53L209.84 14.53Q210.54 14.53 211.09 14.29Q211.65 14.05 212.05 13.58L212.05 13.58L213.83 15.37Q213.06 16.21 212.05 16.65Q211.04 17.09 209.84 17.09M225.22 16.88L221.86 16.88L217.93 11.65L221.84 6.74L225.01 6.74L220.43 12.28L220.53 10.94L225.22 16.88M218.14 16.88L215.39 16.88L215.39 1.7L218.14 1.7L218.14 16.88M229.37 17.11L229.37 17.11Q228.51 17.11 227.68 16.88Q226.85 16.65 226.16 16.24Q225.47 15.83 224.96 15.24L224.96 15.24L226.6 13.58Q227.13 14.17 227.82 14.47Q228.51 14.76 229.35 14.76L229.35 14.76Q230.03 14.76 230.37 14.57Q230.72 14.38 230.72 14L230.72 14Q230.72 13.58 230.35 13.35Q229.98 13.12 229.4 12.97Q228.81 12.81 228.17 12.61Q227.53 12.41 226.94 12.08Q226.35 11.76 225.98 11.18Q225.62 10.6 225.62 9.68L225.62 9.68Q225.62 8.71 226.09 8Q226.56 7.28 227.44 6.89Q228.32 6.49 229.52 6.49L229.52 6.49Q230.78 6.49 231.8 6.93Q232.82 7.37 233.49 8.25L233.49 8.25L231.83 9.91Q231.37 9.34 230.79 9.09Q230.21 8.84 229.54 8.84L229.54 8.84Q228.93 8.84 228.61 9.03Q228.28 9.22 228.28 9.55L228.28 9.55Q228.28 9.93 228.65 10.14Q229.02 10.35 229.61 10.51Q230.19 10.67 230.83 10.86Q231.47 11.06 232.05 11.42Q232.63 11.78 233 12.37Q233.36 12.95 233.36 13.88L233.36 13.88Q233.36 15.37 232.29 16.24Q231.22 17.11 229.37 17.11"></path>
  </g>
</svg>
