<svg width="237" height="32" viewBox="0 0 237 32" xmlns="http://www.w3.org/2000/svg" role="img" aria-label="General Work Checks">
  <style>
    .ink { fill: #172032; }
    .rule { fill: rgb(228,230,235); }
    @media (prefers-color-scheme: dark) {
      .ink { fill: rgb(230,234,242); }
      .rule { fill: rgb(66,77,96); }
    }
  </style>
  <g class="ink">
    <g class="ink" transform="translate(0,7) scale(1)"><path fill-rule="evenodd" d="M18 5.25a2.25 2.25 0 0 0-2.012-2.238A2.25 2.25 0 0 0 13.75 1h-1.5a2.25 2.25 0 0 0-2.238 2.012c-.875.092-1.6.686-1.884 1.488H11A2.5 2.5 0 0 1 13.5 7v7h2.25A2.25 2.25 0 0 0 18 11.75v-6.5ZM12.25 2.5a.75.75 0 0 0-.75.75v.25h3v-.25a.75.75 0 0 0-.75-.75h-1.5Z" clip-rule="evenodd"></path><path fill-rule="evenodd" d="M3 6a1 1 0 0 0-1 1v10a1 1 0 0 0 1 1h8a1 1 0 0 0 1-1V7a1 1 0 0 0-1-1H3Zm6.874 4.166a.75.75 0 1 0-1.248-.832l-2.493 3.739-.853-.853a.75.75 0 0 0-1.06 1.06l1.5 1.5a.75.75 0 0 0 1.154-.114l3-4.5Z" clip-rule="evenodd"></path></g>
    <path d="M37.42 24.14L37.42 24.14Q35.8 24.14 34.39 23.56Q32.97 22.97 31.92 21.93Q30.87 20.89 30.27 19.49Q29.67 18.1 29.67 16.48L29.67 16.48Q29.67 14.86 30.28 13.48Q30.89 12.09 31.97 11.05Q33.05 10.01 34.5 9.43Q35.95 8.86 37.61 8.86L37.61 8.86Q39.52 8.86 41.09 9.55Q42.65 10.24 43.68 11.46L43.68 11.46L41.43 13.71Q40.72 12.78 39.75 12.32Q38.79 11.86 37.57 11.86L37.57 11.86Q36.27 11.86 35.24 12.44Q34.21 13.01 33.63 14.05Q33.05 15.09 33.05 16.48L33.05 16.48Q33.05 17.87 33.62 18.92Q34.19 19.97 35.17 20.55Q36.16 21.14 37.44 21.14L37.44 21.14Q38.74 21.14 39.66 20.65Q40.57 20.15 41.06 19.22Q41.56 18.29 41.56 16.94L41.56 16.94L43.74 18.41L37.13 18.31L37.13 15.51L44.92 15.51L44.92 16Q44.92 18.66 43.96 20.48Q43.01 22.3 41.32 23.22Q39.63 24.14 37.42 24.14M51.66 24.14L51.66 24.14Q50 24.14 48.71 23.46Q47.42 22.78 46.68 21.56Q45.95 20.34 45.95 18.81L45.95 18.81Q45.95 17.28 46.67 16.07Q47.4 14.86 48.64 14.17Q49.87 13.48 51.43 13.48L51.43 13.48Q52.94 13.48 54.1 14.13Q55.25 14.78 55.91 15.93Q56.57 17.09 56.57 18.58L56.57 18.58Q56.57 18.85 56.54 19.16Q56.51 19.46 56.43 19.86L56.43 19.86L47.63 19.88L47.63 17.68L55.06 17.66L53.68 18.58Q53.65 17.7 53.4 17.12Q53.15 16.54 52.66 16.24Q52.16 15.93 51.45 15.93L51.45 15.93Q50.69 15.93 50.14 16.28Q49.58 16.63 49.28 17.26Q48.97 17.89 48.97 18.79L48.97 18.79Q48.97 19.69 49.3 20.33Q49.62 20.97 50.22 21.32Q50.82 21.67 51.64 21.67L51.64 21.67Q52.39 21.67 53 21.4Q53.61 21.14 54.07 20.62L54.07 20.62L55.84 22.38Q55.08 23.26 54.01 23.7Q52.94 24.14 51.66 24.14M68.08 23.91L64.87 23.91L64.87 18.1Q64.87 17.3 64.37 16.8Q63.88 16.31 63.13 16.31L63.13 16.31Q62.6 16.31 62.2 16.53Q61.8 16.75 61.57 17.16Q61.34 17.57 61.34 18.1L61.34 18.1L60.1 17.49Q60.1 16.29 60.63 15.39Q61.15 14.48 62.09 13.99Q63.02 13.5 64.2 13.5L64.2 13.5Q65.33 13.5 66.2 14.03Q67.07 14.57 67.58 15.45Q68.08 16.33 68.08 17.38L68.08 17.38L68.08 23.91M61.34 23.91L58.13 23.91L58.13 13.71L61.34 13.71L61.34 23.91M75.18 24.14L75.18 24.14Q73.52 24.14 72.23 23.46Q70.94 22.78 70.2 21.56Q69.47 20.34 69.47 18.81L69.47 18.81Q69.47 17.28 70.19 16.07Q70.92 14.86 72.16 14.17Q73.39 13.48 74.95 13.48L74.95 13.48Q76.46 13.48 77.61 14.13Q78.77 14.78 79.43 15.93Q80.09 17.09 80.09 18.58L80.09 18.58Q80.09 18.85 80.06 19.16Q80.03 19.46 79.95 19.86L79.95 19.86L71.15 19.88L71.15 17.68L78.58 17.66L77.19 18.58Q77.17 17.7 76.92 17.12Q76.67 16.54 76.18 16.24Q75.68 15.93 74.97 15.93L74.97 15.93Q74.21 15.93 73.66 16.28Q73.1 16.63 72.8 17.26Q72.49 17.89 72.49 18.79L72.49 18.79Q72.49 19.69 72.82 20.33Q73.14 20.97 73.74 21.32Q74.34 21.67 75.16 21.67L75.16 21.67Q75.91 21.67 76.52 21.4Q77.13 21.14 77.59 20.62L77.59 20.62L79.36 22.38Q78.6 23.26 77.53 23.7Q76.46 24.14 75.18 24.14M84.86 23.91L81.65 23.91L81.65 13.71L84.86 13.71L84.86 23.91M84.86 18.31L84.86 18.31L83.52 17.26Q83.92 15.47 84.86 14.48Q85.81 13.5 87.48 13.5L87.48 13.5Q88.22 13.5 88.78 13.72Q89.33 13.94 89.75 14.4L89.75 14.4L87.84 16.81Q87.63 16.58 87.32 16.46Q87 16.33 86.6 16.33L86.6 16.33Q85.81 16.33 85.33 16.83Q84.86 17.32 84.86 18.31M94.58 24.12L94.58 24.12Q93.18 24.12 92.07 23.43Q90.97 22.74 90.33 21.54Q89.69 20.34 89.69 18.81L89.69 18.81Q89.69 17.28 90.33 16.08Q90.97 14.88 92.07 14.19Q93.18 13.5 94.58 13.5L94.58 13.5Q95.61 13.5 96.44 13.9Q97.27 14.3 97.8 15Q98.32 15.7 98.38 16.61L98.38 16.61L98.38 21.02Q98.32 21.92 97.81 22.62Q97.29 23.33 96.45 23.72Q95.61 24.12 94.58 24.12M95.23 21.23L95.23 21.23Q96.26 21.23 96.89 20.54Q97.52 19.86 97.52 18.81L97.52 18.81Q97.52 18.1 97.24 17.55Q96.96 17 96.44 16.7Q95.93 16.4 95.26 16.4L95.26 16.4Q94.58 16.4 94.07 16.7Q93.55 17 93.25 17.55Q92.95 18.1 92.95 18.81L92.95 18.81Q92.95 19.5 93.24 20.05Q93.53 20.6 94.06 20.91Q94.58 21.23 95.23 21.23M100.55 23.91L97.4 23.91L97.4 21.16L97.88 18.68L97.4 16.21L97.4 13.71L100.55 13.71L100.55 23.91M106.03 23.91L102.82 23.91L102.82 8.67L106.03 8.67L106.03 23.91M118.86 23.91L116.28 23.91L111.51 9.09L114.78 9.09L118.27 20.49L116.99 20.49L120.39 9.09L122.98 9.09L126.38 20.49L125.12 20.49L128.58 9.09L131.84 9.09L127.07 23.91L124.49 23.91L121.06 12.51L122.28 12.51L118.86 23.91M136.92 24.14L136.92 24.14Q135.34 24.14 134.07 23.44Q132.8 22.74 132.07 21.52Q131.33 20.3 131.33 18.79L131.33 18.79Q131.33 17.28 132.07 16.08Q132.8 14.88 134.06 14.18Q135.32 13.48 136.92 13.48L136.92 13.48Q138.51 13.48 139.77 14.17Q141.03 14.86 141.77 16.07Q142.51 17.28 142.51 18.79L142.51 18.79Q142.51 20.3 141.77 21.52Q141.03 22.74 139.77 23.44Q138.51 24.14 136.92 24.14M136.92 21.23L136.92 21.23Q137.61 21.23 138.14 20.92Q138.66 20.62 138.95 20.06Q139.23 19.5 139.23 18.79L139.23 18.79Q139.23 18.08 138.93 17.54Q138.64 17 138.13 16.7Q137.61 16.4 136.92 16.4L136.92 16.4Q136.25 16.4 135.72 16.7Q135.2 17 134.9 17.55Q134.61 18.1 134.61 18.81L134.61 18.81Q134.61 19.5 134.9 20.06Q135.2 20.62 135.72 20.92Q136.25 21.23 136.92 21.23M147.31 23.91L144.1 23.91L144.1 13.71L147.31 13.71L147.31 23.91M147.31 18.31L147.31 18.31L145.97 17.26Q146.37 15.47 147.31 14.48Q148.26 13.5 149.94 13.5L149.94 13.5Q150.67 13.5 151.23 13.72Q151.79 13.94 152.21 14.4L152.21 14.4L150.3 16.81Q150.09 16.58 149.77 16.46Q149.46 16.33 149.06 16.33L149.06 16.33Q148.26 16.33 147.79 16.83Q147.31 17.32 147.31 18.31M163.36 23.91L159.58 23.91L156.01 18.62L159.56 13.71L163.15 13.71L158.86 19.23L158.97 17.91L163.36 23.91M156.26 23.91L153.05 23.91L153.05 8.67L156.26 8.67L156.26 23.91M175.83 24.14L175.83 24.14Q174.17 24.14 172.76 23.57Q171.34 22.99 170.28 21.94Q169.22 20.89 168.63 19.49Q168.04 18.1 168.04 16.48L168.04 16.48Q168.04 14.86 168.63 13.47Q169.22 12.07 170.27 11.04Q171.32 10.01 172.73 9.43Q174.15 8.86 175.81 8.86L175.81 8.86Q177.58 8.86 178.95 9.42Q180.33 9.99 181.36 10.98L181.36 10.98L179.15 13.2Q178.56 12.57 177.73 12.22Q176.9 11.86 175.81 11.86L175.81 11.86Q174.85 11.86 174.04 12.18Q173.23 12.51 172.65 13.12Q172.07 13.73 171.75 14.59Q171.42 15.45 171.42 16.48L171.42 16.48Q171.42 17.53 171.75 18.39Q172.07 19.25 172.65 19.86Q173.23 20.47 174.04 20.81Q174.85 21.14 175.81 21.14L175.81 21.14Q176.95 21.14 177.79 20.78Q178.63 20.43 179.23 19.8L179.23 19.8L181.46 22.02Q180.39 23.01 179.01 23.58Q177.64 24.14 175.83 24.14M192.93 23.91L189.71 23.91L189.71 18.1Q189.71 17.3 189.22 16.8Q188.73 16.31 187.97 16.31L187.97 16.31Q187.45 16.31 187.05 16.53Q186.65 16.75 186.42 17.16Q186.19 17.57 186.19 18.1L186.19 18.1L184.95 17.49Q184.95 16.29 185.45 15.39Q185.95 14.48 186.86 13.99Q187.76 13.5 188.94 13.5L188.94 13.5Q190.13 13.5 191.04 13.99Q191.94 14.48 192.43 15.36Q192.93 16.23 192.93 17.38L192.93 17.38L192.93 23.91M186.19 23.91L182.97 23.91L182.97 8.67L186.19 8.67L186.19 23.91M200.02 24.14L200.02 24.14Q198.37 24.14 197.07 23.46Q195.78 22.78 195.05 21.56Q194.31 20.34 194.31 18.81L194.31 18.81Q194.31 17.28 195.04 16.07Q195.76 14.86 197 14.17Q198.24 13.48 199.79 13.48L199.79 13.48Q201.31 13.48 202.46 14.13Q203.62 14.78 204.28 15.93Q204.94 17.09 204.94 18.58L204.94 18.58Q204.94 18.85 204.91 19.16Q204.88 19.46 204.79 19.86L204.79 19.86L195.99 19.88L195.99 17.68L203.43 17.66L202.04 18.58Q202.02 17.7 201.77 17.12Q201.52 16.54 201.02 16.24Q200.53 15.93 199.81 15.93L199.81 15.93Q199.06 15.93 198.5 16.28Q197.95 16.63 197.64 17.26Q197.34 17.89 197.34 18.79L197.34 18.79Q197.34 19.69 197.66 20.33Q197.99 20.97 198.59 21.32Q199.18 21.67 200 21.67L200 21.67Q200.76 21.67 201.37 21.4Q201.98 21.14 202.44 20.62L202.44 20.62L204.2 22.38Q203.45 23.26 202.38 23.7Q201.31 24.14 200.02 24.14M211.43 24.14L211.43 24.14Q209.85 24.14 208.57 23.45Q207.29 22.76 206.56 21.54Q205.82 20.32 205.82 18.81L205.82 18.81Q205.82 17.28 206.57 16.07Q207.31 14.86 208.59 14.17Q209.87 13.48 211.47 13.48L211.47 13.48Q212.67 13.48 213.66 13.89Q214.66 14.3 215.44 15.11L215.44 15.11L213.38 17.17Q213.02 16.77 212.55 16.58Q212.08 16.4 211.47 16.4L211.47 16.4Q210.78 16.4 210.24 16.7Q209.71 17 209.4 17.54Q209.1 18.08 209.1 18.79L209.1 18.79Q209.1 19.5 209.4 20.05Q209.71 20.6 210.25 20.91Q210.8 21.23 211.47 21.23L211.47 21.23Q212.1 21.23 212.59 21Q213.09 20.78 213.44 20.39L213.44 20.39L215.48 22.44Q214.68 23.28 213.67 23.71Q212.67 24.14 211.43 24.14M227.22 23.91L223.44 23.91L219.87 18.62L223.42 13.71L227.01 13.71L222.73 19.23L222.83 17.91L227.22 23.91M220.12 23.91L216.91 23.91L216.91 8.67L220.12 8.67L220.12 23.91M231.5 24.17L231.5 24.17Q230.6 24.17 229.73 23.93Q228.86 23.7 228.11 23.27Q227.37 22.84 226.84 22.28L226.84 22.28L228.67 20.43Q229.17 20.97 229.87 21.28Q230.56 21.58 231.38 21.58L231.38 21.58Q231.94 21.58 232.25 21.41Q232.55 21.25 232.55 20.95L232.55 20.95Q232.55 20.57 232.19 20.37Q231.82 20.18 231.25 20.02Q230.68 19.86 230.05 19.67Q229.42 19.48 228.86 19.15Q228.29 18.81 227.93 18.21Q227.58 17.61 227.58 16.69L227.58 16.69Q227.58 15.7 228.08 14.98Q228.58 14.25 229.51 13.83Q230.43 13.41 231.67 13.41L231.67 13.41Q232.97 13.41 234.08 13.86Q235.18 14.32 235.87 15.2L235.87 15.2L234.04 17.05Q233.56 16.48 232.96 16.25Q232.36 16.02 231.8 16.02L231.8 16.02Q231.25 16.02 230.98 16.17Q230.71 16.33 230.71 16.63L230.71 16.63Q230.71 16.94 231.06 17.13Q231.42 17.32 231.99 17.47Q232.55 17.61 233.18 17.82Q233.81 18.03 234.38 18.39Q234.95 18.75 235.3 19.35Q235.66 19.94 235.66 20.91L235.66 20.91Q235.66 22.4 234.54 23.28Q233.41 24.17 231.5 24.17"></path>
  </g>
  <rect class="rule" x="0" y="31" width="237" height="1"></rect>
</svg>
