<svg width="109" height="31" viewBox="0 0 109 31" xmlns="http://www.w3.org/2000/svg" role="img" aria-label="Hazards">
  <style>
    .ink { fill: #172032; }
    .rule { fill: rgb(228,230,235); }
    @media (prefers-color-scheme: dark) {
      .ink { fill: rgb(230,234,242); }
      .rule { fill: rgb(66,77,96); }
    }
  </style>
  <g class="ink">
    <g class="ink" transform="translate(0,6.6) scale(1)"><path fill-rule="evenodd" d="M8.485 2.495c.673-1.167 2.357-1.167 3.03 0l6.28 10.875c.673 1.167-.17 2.625-1.516 2.625H3.72c-1.347 0-2.189-1.458-1.515-2.625L8.485 2.495ZM10 5a.75.75 0 0 1 .75.75v3.5a.75.75 0 0 1-1.5 0v-3.5A.75.75 0 0 1 10 5Zm0 9a1 1 0 1 0 0-2 1 1 0 0 0 0 2Z" clip-rule="evenodd"></path></g>
    <path d="M30.23 22.8L30.23 8L33.33 8L33.33 14.01L39.99 14.01L39.99 8L43.09 8L43.09 22.8L39.99 22.8L39.99 16.56L33.33 16.56L33.33 22.8ZM48.34 22.97Q47.24 22.97 46.41 22.55Q45.58 22.12 45.11 21.37Q44.65 20.61 44.65 19.65L44.65 19.63Q44.65 18.62 45.15 17.91Q45.65 17.2 46.61 16.79Q47.56 16.38 48.92 16.29L53.21 16.02L53.21 17.88L49.37 18.13Q48.51 18.18 48.06 18.54Q47.61 18.89 47.61 19.47L47.61 19.49Q47.61 20.1 48.07 20.44Q48.53 20.79 49.31 20.79Q49.98 20.79 50.51 20.53Q51.04 20.26 51.34 19.81Q51.64 19.35 51.64 18.78L51.64 15.44Q51.64 14.72 51.18 14.29Q50.72 13.87 49.84 13.87Q49 13.87 48.5 14.21Q48.01 14.56 47.9 15.1L47.88 15.19L45.14 15.19L45.15 15.06Q45.23 14.05 45.82 13.26Q46.41 12.47 47.46 12.02Q48.51 11.58 49.96 11.58Q51.38 11.58 52.43 12.03Q53.48 12.49 54.06 13.32Q54.63 14.15 54.63 15.26L54.63 22.8L51.64 22.8L51.64 21.16L51.58 21.16Q51.27 21.72 50.78 22.12Q50.3 22.53 49.68 22.75Q49.07 22.97 48.34 22.97ZM56.31 22.8L56.31 21.09L61.83 14.11L61.83 14.06L56.39 14.06L56.39 11.8L65.26 11.8L65.26 13.7L60.06 20.48L60.06 20.54L65.38 20.54L65.38 22.8ZM70.4 22.97Q69.3 22.97 68.47 22.55Q67.64 22.12 67.17 21.37Q66.7 20.61 66.7 19.65L66.7 19.63Q66.7 18.62 67.21 17.91Q67.71 17.2 68.66 16.79Q69.62 16.38 70.98 16.29L75.27 16.02L75.27 17.88L71.43 18.13Q70.57 18.18 70.12 18.54Q69.67 18.89 69.67 19.47L69.67 19.49Q69.67 20.1 70.13 20.44Q70.59 20.79 71.37 20.79Q72.04 20.79 72.56 20.53Q73.09 20.26 73.39 19.81Q73.7 19.35 73.7 18.78L73.7 15.44Q73.7 14.72 73.24 14.29Q72.77 13.87 71.89 13.87Q71.05 13.87 70.56 14.21Q70.07 14.56 69.95 15.1L69.93 15.19L67.2 15.19L67.21 15.06Q67.29 14.05 67.88 13.26Q68.47 12.47 69.52 12.02Q70.57 11.58 72.02 11.58Q73.44 11.58 74.49 12.03Q75.53 12.49 76.11 13.32Q76.69 14.15 76.69 15.26L76.69 22.8L73.7 22.8L73.7 21.16L73.64 21.16Q73.33 21.72 72.84 22.12Q72.35 22.53 71.74 22.75Q71.12 22.97 70.4 22.97ZM78.62 22.8L78.62 11.8L81.61 11.8L81.61 13.72L81.67 13.72Q81.92 12.71 82.57 12.14Q83.21 11.58 84.18 11.58Q84.42 11.58 84.65 11.61Q84.87 11.64 85.04 11.69L85.04 14.33Q84.85 14.25 84.57 14.21Q84.28 14.16 83.95 14.16Q83.21 14.16 82.69 14.45Q82.17 14.74 81.89 15.29Q81.61 15.84 81.61 16.64L81.61 22.8ZM89.97 23.02Q88.59 23.02 87.58 22.33Q86.58 21.65 86.04 20.37Q85.5 19.08 85.5 17.3L85.5 17.29Q85.5 15.5 86.04 14.22Q86.59 12.94 87.59 12.26Q88.59 11.58 89.97 11.58Q90.75 11.58 91.41 11.83Q92.06 12.09 92.56 12.57Q93.06 13.04 93.35 13.71L93.42 13.71L93.42 8L96.41 8L96.41 22.8L93.42 22.8L93.42 20.92L93.35 20.92Q93.07 21.58 92.57 22.04Q92.08 22.51 91.43 22.77Q90.77 23.02 89.97 23.02ZM90.97 20.54Q91.7 20.54 92.26 20.15Q92.81 19.75 93.12 19.02Q93.43 18.29 93.43 17.3L93.43 17.29Q93.43 16.3 93.11 15.57Q92.8 14.85 92.25 14.45Q91.7 14.06 90.97 14.06Q90.23 14.06 89.68 14.45Q89.14 14.84 88.84 15.56Q88.54 16.29 88.54 17.29L88.54 17.3Q88.54 18.29 88.84 19.02Q89.13 19.75 89.68 20.15Q90.23 20.54 90.97 20.54ZM102.93 23.02Q101.41 23.02 100.35 22.58Q99.28 22.14 98.68 21.36Q98.08 20.57 97.96 19.54L97.95 19.44L100.87 19.44L100.89 19.54Q101.03 20.18 101.54 20.54Q102.04 20.9 102.93 20.9Q103.5 20.9 103.9 20.76Q104.3 20.62 104.53 20.37Q104.75 20.11 104.75 19.75L104.75 19.74Q104.75 19.3 104.43 19.03Q104.11 18.77 103.3 18.58L101.43 18.19Q100.37 17.97 99.65 17.54Q98.94 17.12 98.58 16.49Q98.22 15.85 98.22 15.03L98.22 15.02Q98.22 13.97 98.79 13.2Q99.35 12.43 100.39 12Q101.43 11.58 102.83 11.58Q104.28 11.58 105.3 12.05Q106.32 12.51 106.87 13.3Q107.42 14.09 107.45 15.05L107.45 15.16L104.69 15.16L104.68 15.08Q104.61 14.48 104.14 14.09Q103.66 13.69 102.83 13.69Q102.32 13.69 101.94 13.83Q101.56 13.98 101.35 14.24Q101.15 14.5 101.15 14.86L101.15 14.87Q101.15 15.15 101.28 15.37Q101.42 15.59 101.75 15.75Q102.08 15.92 102.63 16.04L104.5 16.44Q105.65 16.67 106.36 17.07Q107.07 17.47 107.41 18.05Q107.74 18.63 107.74 19.44L107.74 19.45Q107.74 20.53 107.12 21.33Q106.51 22.13 105.43 22.58Q104.35 23.02 102.93 23.02Z"></path>
  </g>
  <rect class="rule" x="0" y="30" width="109" height="1"></rect>
</svg>
