<svg width="110" height="31" viewBox="0 0 110 31" xmlns="http://www.w3.org/2000/svg" role="img" aria-label="Hazards">
  <style>
    .ink { fill: #172032; }
    .rule { fill: rgb(228,230,235); }
    @media (prefers-color-scheme: dark) {
      .ink { fill: rgb(230,234,242); }
      .rule { fill: rgb(66,77,96); }
    }
  </style>
  <g class="ink">
    <g class="ink" transform="translate(0,7) scale(1)"><path fill-rule="evenodd" d="M8.485 2.495c.673-1.167 2.357-1.167 3.03 0l6.28 10.875c.673 1.167-.17 2.625-1.516 2.625H3.72c-1.347 0-2.189-1.458-1.515-2.625L8.485 2.495ZM10 5a.75.75 0 0 1 .75.75v3.5a.75.75 0 0 1-1.5 0v-3.5A.75.75 0 0 1 10 5Zm0 9a1 1 0 1 0 0-2 1 1 0 0 0 0 2Z" clip-rule="evenodd"></path></g>
    <path d="M33.73 23.25L30.43 23.25L30.43 8.42L33.73 8.42L33.73 23.25M42.92 23.25L39.61 23.25L39.61 8.42L42.92 8.42L42.92 23.25M40.7 17.05L32.4 17.05L32.4 14.2L40.7 14.2L40.7 17.05M49.73 23.46L49.73 23.46Q48.32 23.46 47.22 22.76Q46.11 22.07 45.47 20.87Q44.83 19.68 44.83 18.14L44.83 18.14Q44.83 16.61 45.47 15.41Q46.11 14.22 47.22 13.52Q48.32 12.83 49.73 12.83L49.73 12.83Q50.76 12.83 51.59 13.23Q52.42 13.63 52.94 14.33Q53.47 15.04 53.53 15.94L53.53 15.94L53.53 20.35Q53.47 21.25 52.95 21.95Q52.44 22.66 51.6 23.06Q50.76 23.46 49.73 23.46M50.38 20.56L50.38 20.56Q51.41 20.56 52.04 19.88Q52.67 19.19 52.67 18.14L52.67 18.14Q52.67 17.43 52.38 16.88Q52.1 16.34 51.59 16.03Q51.07 15.73 50.4 15.73L50.4 15.73Q49.73 15.73 49.21 16.03Q48.7 16.34 48.39 16.88Q48.09 17.43 48.09 18.14L48.09 18.14Q48.09 18.84 48.38 19.38Q48.68 19.93 49.2 20.24Q49.73 20.56 50.38 20.56M55.69 23.25L52.54 23.25L52.54 20.5L53.02 18.02L52.54 15.54L52.54 13.04L55.69 13.04L55.69 23.25M61.21 21.36L57.31 21.36L62.43 14.91L66.34 14.91L61.21 21.36M66.21 23.25L57.31 23.25L57.31 21.36L59.6 20.56L66.21 20.56L66.21 23.25M64.07 15.73L57.69 15.73L57.69 13.04L66.34 13.04L66.34 14.91L64.07 15.73M72.09 23.46L72.09 23.46Q70.69 23.46 69.58 22.76Q68.48 22.07 67.84 20.87Q67.2 19.68 67.2 18.14L67.2 18.14Q67.2 16.61 67.84 15.41Q68.48 14.22 69.58 13.52Q70.69 12.83 72.09 12.83L72.09 12.83Q73.12 12.83 73.95 13.23Q74.78 13.63 75.31 14.33Q75.83 15.04 75.89 15.94L75.89 15.94L75.89 20.35Q75.83 21.25 75.32 21.95Q74.8 22.66 73.96 23.06Q73.12 23.46 72.09 23.46M72.74 20.56L72.74 20.56Q73.77 20.56 74.4 19.88Q75.03 19.19 75.03 18.14L75.03 18.14Q75.03 17.43 74.75 16.88Q74.47 16.34 73.95 16.03Q73.44 15.73 72.76 15.73L72.76 15.73Q72.09 15.73 71.58 16.03Q71.06 16.34 70.76 16.88Q70.45 17.43 70.45 18.14L70.45 18.14Q70.45 18.84 70.75 19.38Q71.04 19.93 71.57 20.24Q72.09 20.56 72.74 20.56M78.06 23.25L74.91 23.25L74.91 20.5L75.39 18.02L74.91 15.54L74.91 13.04L78.06 13.04L78.06 23.25M83.54 23.25L80.32 23.25L80.32 13.04L83.54 13.04L83.54 23.25M83.54 17.64L83.54 17.64L82.19 16.59Q82.59 14.8 83.54 13.82Q84.48 12.83 86.16 12.83L86.16 12.83Q86.9 12.83 87.45 13.05Q88.01 13.27 88.43 13.73L88.43 13.73L86.52 16.15Q86.31 15.92 85.99 15.79Q85.68 15.67 85.28 15.67L85.28 15.67Q84.48 15.67 84.01 16.16Q83.54 16.65 83.54 17.64M93.34 23.46L93.34 23.46Q91.9 23.46 90.77 22.76Q89.65 22.07 89.01 20.87Q88.37 19.68 88.37 18.14L88.37 18.14Q88.37 16.61 89.01 15.41Q89.65 14.22 90.77 13.52Q91.9 12.83 93.34 12.83L93.34 12.83Q94.39 12.83 95.24 13.23Q96.1 13.63 96.65 14.33Q97.21 15.04 97.27 15.94L97.27 15.94L97.27 20.24Q97.21 21.15 96.66 21.87Q96.12 22.6 95.26 23.03Q94.39 23.46 93.34 23.46M93.91 20.56L93.91 20.56Q94.6 20.56 95.11 20.25Q95.61 19.95 95.91 19.4Q96.2 18.86 96.2 18.14L96.2 18.14Q96.2 17.43 95.92 16.89Q95.63 16.36 95.12 16.04Q94.6 15.73 93.93 15.73L93.93 15.73Q93.26 15.73 92.75 16.04Q92.23 16.36 91.93 16.9Q91.62 17.45 91.62 18.14L91.62 18.14Q91.62 18.84 91.92 19.38Q92.21 19.93 92.74 20.24Q93.26 20.56 93.91 20.56M99.22 8L99.22 23.25L96.07 23.25L96.07 20.5L96.56 18.02L96.01 15.54L96.01 8L99.22 8M105.21 23.5L105.21 23.5Q104.31 23.5 103.43 23.27Q102.56 23.04 101.82 22.61Q101.07 22.18 100.55 21.61L100.55 21.61L102.37 19.76Q102.88 20.31 103.57 20.61Q104.26 20.92 105.08 20.92L105.08 20.92Q105.65 20.92 105.95 20.75Q106.26 20.58 106.26 20.29L106.26 20.29Q106.26 19.91 105.89 19.71Q105.52 19.51 104.96 19.35Q104.39 19.19 103.76 19Q103.13 18.82 102.56 18.48Q102 18.14 101.64 17.54Q101.28 16.95 101.28 16.02L101.28 16.02Q101.28 15.04 101.79 14.31Q102.29 13.59 103.21 13.17Q104.14 12.75 105.38 12.75L105.38 12.75Q106.68 12.75 107.78 13.2Q108.88 13.65 109.58 14.53L109.58 14.53L107.75 16.38Q107.27 15.81 106.67 15.58Q106.07 15.35 105.5 15.35L105.5 15.35Q104.96 15.35 104.68 15.51Q104.41 15.67 104.41 15.96L104.41 15.96Q104.41 16.27 104.77 16.46Q105.13 16.65 105.69 16.8Q106.26 16.95 106.89 17.16Q107.52 17.37 108.09 17.72Q108.65 18.08 109.01 18.68Q109.37 19.28 109.37 20.24L109.37 20.24Q109.37 21.73 108.24 22.62Q107.12 23.5 105.21 23.5"></path>
  </g>
  <rect class="rule" x="0" y="30" width="110" height="1"></rect>
</svg>
