<svg width="111" height="18" viewBox="0 0 111 18" xmlns="http://www.w3.org/2000/svg" role="img" aria-label="Hazards">
  <style>
    .ink { fill: #172032; }
    @media (prefers-color-scheme: dark) {
      .ink { fill: rgb(230,234,242); }
    }
  </style>
  <g class="ink">
    <g class="ink" transform="translate(1,0) scale(1)"><path fill-rule="evenodd" d="M8.485 2.495c.673-1.167 2.357-1.167 3.03 0l6.28 10.875c.673 1.167-.17 2.625-1.516 2.625H3.72c-1.347 0-2.189-1.458-1.515-2.625L8.485 2.495ZM10 5a.75.75 0 0 1 .75.75v3.5a.75.75 0 0 1-1.5 0v-3.5A.75.75 0 0 1 10 5Zm0 9a1 1 0 1 0 0-2 1 1 0 0 0 0 2Z" clip-rule="evenodd"></path></g>
    <path d="M34.37 16.18L31.51 16.18L31.51 1.42L34.37 1.42L34.37 16.18M43.63 16.18L40.77 16.18L40.77 1.42L43.63 1.42L43.63 16.18M41.57 9.82L33.32 9.82L33.32 7.3L41.57 7.3L41.57 9.82M50.6 16.39L50.6 16.39Q49.22 16.39 48.1 15.7Q46.99 15.01 46.36 13.81Q45.73 12.61 45.73 11.12L45.73 11.12Q45.73 9.61 46.36 8.41Q46.99 7.22 48.1 6.52Q49.22 5.83 50.6 5.83L50.6 5.83Q51.69 5.83 52.55 6.27Q53.42 6.71 53.93 7.5Q54.44 8.29 54.49 9.27L54.49 9.27L54.49 12.93Q54.44 13.94 53.93 14.71Q53.42 15.49 52.55 15.94Q51.69 16.39 50.6 16.39M51.11 13.85L51.11 13.85Q52.26 13.85 52.97 13.09Q53.69 12.32 53.69 11.1L53.69 11.1Q53.69 10.3 53.36 9.68Q53.04 9.06 52.46 8.72Q51.88 8.37 51.11 8.37L51.11 8.37Q50.35 8.37 49.77 8.72Q49.19 9.06 48.87 9.68Q48.54 10.3 48.54 11.1L48.54 11.1Q48.54 11.92 48.87 12.54Q49.19 13.16 49.77 13.51Q50.35 13.85 51.11 13.85M56.27 16.18L53.54 16.18L53.54 13.45L53.98 10.98L53.54 8.54L53.54 6.04L56.27 6.04L56.27 16.18M61.31 14.61L57.99 14.61L63.37 7.61L66.69 7.61L61.31 14.61M66.56 16.18L57.99 16.18L57.99 14.61L60.18 13.79L66.56 13.79L66.56 16.18M64.48 8.43L58.37 8.43L58.37 6.04L66.69 6.04L66.69 7.61L64.48 8.43M72.55 16.39L72.55 16.39Q71.16 16.39 70.05 15.7Q68.93 15.01 68.3 13.81Q67.67 12.61 67.67 11.12L67.67 11.12Q67.67 9.61 68.3 8.41Q68.93 7.22 70.05 6.52Q71.16 5.83 72.55 5.83L72.55 5.83Q73.64 5.83 74.5 6.27Q75.36 6.71 75.87 7.5Q76.39 8.29 76.43 9.27L76.43 9.27L76.43 12.93Q76.39 13.94 75.87 14.71Q75.36 15.49 74.5 15.94Q73.64 16.39 72.55 16.39M73.05 13.85L73.05 13.85Q74.21 13.85 74.92 13.09Q75.63 12.32 75.63 11.1L75.63 11.1Q75.63 10.3 75.31 9.68Q74.98 9.06 74.4 8.72Q73.83 8.37 73.05 8.37L73.05 8.37Q72.29 8.37 71.72 8.72Q71.14 9.06 70.81 9.68Q70.49 10.3 70.49 11.1L70.49 11.1Q70.49 11.92 70.81 12.54Q71.14 13.16 71.72 13.51Q72.29 13.85 73.05 13.85M78.22 16.18L75.49 16.18L75.49 13.45L75.93 10.98L75.49 8.54L75.49 6.04L78.22 6.04L78.22 16.18M83.4 16.18L80.65 16.18L80.65 6.04L83.4 6.04L83.4 16.18M83.4 10.58L83.4 10.58L82.33 9.86Q82.52 7.99 83.42 6.91Q84.33 5.83 86.03 5.83L86.03 5.83Q86.76 5.83 87.35 6.07Q87.94 6.31 88.42 6.86L88.42 6.86L86.7 8.83Q86.47 8.58 86.14 8.45Q85.82 8.33 85.4 8.33L85.4 8.33Q84.52 8.33 83.96 8.89Q83.4 9.44 83.4 10.58M93.4 16.39L93.4 16.39Q91.99 16.39 90.88 15.7Q89.77 15.01 89.13 13.81Q88.49 12.61 88.49 11.12L88.49 11.12Q88.49 9.61 89.13 8.41Q89.77 7.22 90.87 6.52Q91.97 5.83 93.4 5.83L93.4 5.83Q94.49 5.83 95.36 6.27Q96.23 6.71 96.77 7.5Q97.31 8.29 97.35 9.27L97.35 9.27L97.35 12.89Q97.31 13.87 96.78 14.67Q96.26 15.47 95.37 15.93Q94.49 16.39 93.4 16.39M93.86 13.85L93.86 13.85Q94.64 13.85 95.22 13.51Q95.79 13.16 96.12 12.54Q96.44 11.92 96.44 11.1L96.44 11.1Q96.44 10.3 96.12 9.68Q95.79 9.06 95.22 8.72Q94.64 8.37 93.88 8.37L93.88 8.37Q93.11 8.37 92.53 8.73Q91.95 9.08 91.62 9.69Q91.3 10.3 91.3 11.1L91.3 11.1Q91.3 11.92 91.62 12.54Q91.95 13.16 92.54 13.51Q93.13 13.85 93.86 13.85M99.03 1L99.03 16.18L96.3 16.18L96.3 13.45L96.74 10.98L96.28 8.54L96.28 1L99.03 1M104.95 16.41L104.95 16.41Q104.09 16.41 103.26 16.18Q102.43 15.95 101.74 15.54Q101.04 15.13 100.54 14.55L100.54 14.55L102.18 12.89Q102.7 13.47 103.4 13.77Q104.09 14.06 104.93 14.06L104.93 14.06Q105.6 14.06 105.95 13.87Q106.29 13.68 106.29 13.31L106.29 13.31Q106.29 12.89 105.93 12.66Q105.56 12.42 104.97 12.27Q104.38 12.11 103.74 11.91Q103.1 11.71 102.51 11.38Q101.93 11.06 101.56 10.48Q101.19 9.9 101.19 8.98L101.19 8.98Q101.19 8.01 101.66 7.3Q102.14 6.59 103.02 6.19Q103.9 5.79 105.1 5.79L105.1 5.79Q106.36 5.79 107.37 6.23Q108.39 6.67 109.07 7.55L109.07 7.55L107.41 9.21Q106.94 8.64 106.37 8.39Q105.79 8.14 105.12 8.14L105.12 8.14Q104.51 8.14 104.18 8.33Q103.86 8.52 103.86 8.85L103.86 8.85Q103.86 9.23 104.22 9.44Q104.59 9.65 105.18 9.81Q105.77 9.97 106.41 10.17Q107.05 10.37 107.63 10.72Q108.2 11.08 108.57 11.67Q108.94 12.26 108.94 13.18L108.94 13.18Q108.94 14.67 107.87 15.54Q106.8 16.41 104.95 16.41"></path>
  </g>
</svg>
