<svg width="109" height="24" viewBox="0 0 109 24" xmlns="http://www.w3.org/2000/svg" role="img" aria-label="Hazards">
  <style>
    .ink { fill: #172032; }
    @media (prefers-color-scheme: dark) {
      .ink { fill: rgb(230,234,242); }
    }
  </style>
  <g class="ink">
    <g class="ink" transform="translate(0,7) scale(1)"><path fill-rule="evenodd" d="M8.485 2.495c.673-1.167 2.357-1.167 3.03 0l6.28 10.875c.673 1.167-.17 2.625-1.516 2.625H3.72c-1.347 0-2.189-1.458-1.515-2.625L8.485 2.495ZM10 5a.75.75 0 0 1 .75.75v3.5a.75.75 0 0 1-1.5 0v-3.5A.75.75 0 0 1 10 5Zm0 9a1 1 0 1 0 0-2 1 1 0 0 0 0 2Z" clip-rule="evenodd"></path></g>
    <path d="M33.37 23.18L30.51 23.18L30.51 8.42L33.37 8.42L33.37 23.18M42.63 23.18L39.77 23.18L39.77 8.42L42.63 8.42L42.63 23.18M40.57 16.82L32.32 16.82L32.32 14.3L40.57 14.3L40.57 16.82M49.6 23.39L49.6 23.39Q48.22 23.39 47.1 22.7Q45.99 22.01 45.36 20.81Q44.73 19.61 44.73 18.12L44.73 18.12Q44.73 16.61 45.36 15.41Q45.99 14.22 47.1 13.52Q48.22 12.83 49.6 12.83L49.6 12.83Q50.69 12.83 51.55 13.27Q52.42 13.71 52.93 14.5Q53.44 15.29 53.49 16.27L53.49 16.27L53.49 19.93Q53.44 20.94 52.93 21.71Q52.42 22.49 51.55 22.94Q50.69 23.39 49.6 23.39M50.11 20.85L50.11 20.85Q51.26 20.85 51.97 20.09Q52.69 19.32 52.69 18.1L52.69 18.1Q52.69 17.3 52.36 16.68Q52.04 16.06 51.46 15.72Q50.88 15.37 50.11 15.37L50.11 15.37Q49.35 15.37 48.77 15.72Q48.19 16.06 47.87 16.68Q47.54 17.3 47.54 18.1L47.54 18.1Q47.54 18.92 47.87 19.54Q48.19 20.16 48.77 20.51Q49.35 20.85 50.11 20.85M55.27 23.18L52.54 23.18L52.54 20.45L52.98 17.98L52.54 15.54L52.54 13.04L55.27 13.04L55.27 23.18M60.31 21.61L56.99 21.61L62.37 14.61L65.69 14.61L60.31 21.61M65.56 23.18L56.99 23.18L56.99 21.61L59.18 20.79L65.56 20.79L65.56 23.18M63.48 15.43L57.37 15.43L57.37 13.04L65.69 13.04L65.69 14.61L63.48 15.43M71.55 23.39L71.55 23.39Q70.16 23.39 69.05 22.7Q67.93 22.01 67.3 20.81Q66.67 19.61 66.67 18.12L66.67 18.12Q66.67 16.61 67.3 15.41Q67.93 14.22 69.05 13.52Q70.16 12.83 71.55 12.83L71.55 12.83Q72.64 12.83 73.5 13.27Q74.36 13.71 74.87 14.5Q75.39 15.29 75.43 16.27L75.43 16.27L75.43 19.93Q75.39 20.94 74.87 21.71Q74.36 22.49 73.5 22.94Q72.64 23.39 71.55 23.39M72.05 20.85L72.05 20.85Q73.21 20.85 73.92 20.09Q74.63 19.32 74.63 18.1L74.63 18.1Q74.63 17.3 74.31 16.68Q73.98 16.06 73.4 15.72Q72.83 15.37 72.05 15.37L72.05 15.37Q71.29 15.37 70.72 15.72Q70.14 16.06 69.81 16.68Q69.49 17.3 69.49 18.1L69.49 18.1Q69.49 18.92 69.81 19.54Q70.14 20.16 70.72 20.51Q71.29 20.85 72.05 20.85M77.22 23.18L74.49 23.18L74.49 20.45L74.93 17.98L74.49 15.54L74.49 13.04L77.22 13.04L77.22 23.18M82.4 23.18L79.65 23.18L79.65 13.04L82.4 13.04L82.4 23.18M82.4 17.58L82.4 17.58L81.33 16.86Q81.52 14.99 82.42 13.91Q83.33 12.83 85.03 12.83L85.03 12.83Q85.76 12.83 86.35 13.07Q86.94 13.31 87.42 13.86L87.42 13.86L85.7 15.83Q85.47 15.58 85.14 15.45Q84.82 15.33 84.4 15.33L84.4 15.33Q83.52 15.33 82.96 15.89Q82.4 16.44 82.4 17.58M92.4 23.39L92.4 23.39Q90.99 23.39 89.88 22.7Q88.77 22.01 88.13 20.81Q87.49 19.61 87.49 18.12L87.49 18.12Q87.49 16.61 88.13 15.41Q88.77 14.22 89.87 13.52Q90.97 12.83 92.4 12.83L92.4 12.83Q93.49 12.83 94.36 13.27Q95.23 13.71 95.77 14.5Q96.31 15.29 96.35 16.27L96.35 16.27L96.35 19.89Q96.31 20.87 95.78 21.67Q95.26 22.47 94.37 22.93Q93.49 23.39 92.4 23.39M92.86 20.85L92.86 20.85Q93.64 20.85 94.22 20.51Q94.79 20.16 95.12 19.54Q95.44 18.92 95.44 18.1L95.44 18.1Q95.44 17.3 95.12 16.68Q94.79 16.06 94.22 15.72Q93.64 15.37 92.88 15.37L92.88 15.37Q92.11 15.37 91.53 15.73Q90.95 16.09 90.62 16.69Q90.3 17.3 90.3 18.1L90.3 18.1Q90.3 18.92 90.62 19.54Q90.95 20.16 91.54 20.51Q92.13 20.85 92.86 20.85M98.03 8L98.03 23.18L95.3 23.18L95.3 20.45L95.74 17.98L95.28 15.54L95.28 8L98.03 8M103.95 23.41L103.95 23.41Q103.09 23.41 102.26 23.18Q101.43 22.95 100.74 22.54Q100.04 22.13 99.54 21.55L99.54 21.55L101.18 19.89Q101.7 20.47 102.4 20.77Q103.09 21.06 103.93 21.06L103.93 21.06Q104.6 21.06 104.95 20.87Q105.29 20.68 105.29 20.31L105.29 20.31Q105.29 19.89 104.93 19.66Q104.56 19.42 103.97 19.27Q103.38 19.11 102.74 18.91Q102.1 18.71 101.51 18.38Q100.93 18.06 100.56 17.48Q100.19 16.9 100.19 15.98L100.19 15.98Q100.19 15.01 100.66 14.3Q101.14 13.59 102.02 13.19Q102.9 12.79 104.1 12.79L104.1 12.79Q105.36 12.79 106.37 13.23Q107.39 13.67 108.07 14.55L108.07 14.55L106.41 16.21Q105.94 15.64 105.37 15.39Q104.79 15.14 104.12 15.14L104.12 15.14Q103.51 15.14 103.18 15.33Q102.86 15.52 102.86 15.85L102.86 15.85Q102.86 16.23 103.22 16.44Q103.59 16.65 104.18 16.81Q104.77 16.97 105.41 17.17Q106.05 17.37 106.63 17.72Q107.2 18.08 107.57 18.67Q107.94 19.26 107.94 20.18L107.94 20.18Q107.94 21.67 106.87 22.54Q105.8 23.41 103.95 23.41"></path>
  </g>
</svg>
