<svg width="194" height="32" viewBox="0 0 194 32" xmlns="http://www.w3.org/2000/svg" role="img" aria-label="Hot Work Checks">
  <style>
    .ink { fill: #172032; }
    .rule { fill: rgb(228,230,235); }
    @media (prefers-color-scheme: dark) {
      .ink { fill: rgb(230,234,242); }
      .rule { fill: rgb(66,77,96); }
    }
  </style>
  <g class="ink">
    <g class="ink" transform="translate(0,7) scale(1)"><path fill-rule="evenodd" d="M18 5.25a2.25 2.25 0 0 0-2.012-2.238A2.25 2.25 0 0 0 13.75 1h-1.5a2.25 2.25 0 0 0-2.238 2.012c-.875.092-1.6.686-1.884 1.488H11A2.5 2.5 0 0 1 13.5 7v7h2.25A2.25 2.25 0 0 0 18 11.75v-6.5ZM12.25 2.5a.75.75 0 0 0-.75.75v.25h3v-.25a.75.75 0 0 0-.75-.75h-1.5Z" clip-rule="evenodd"></path><path fill-rule="evenodd" d="M3 6a1 1 0 0 0-1 1v10a1 1 0 0 0 1 1h8a1 1 0 0 0 1-1V7a1 1 0 0 0-1-1H3Zm6.874 4.166a.75.75 0 1 0-1.248-.832l-2.493 3.739-.853-.853a.75.75 0 0 0-1.06 1.06l1.5 1.5a.75.75 0 0 0 1.154-.114l3-4.5Z" clip-rule="evenodd"></path></g>
    <path d="M33.73 23.91L30.43 23.91L30.43 9.09L33.73 9.09L33.73 23.91M42.92 23.91L39.61 23.91L39.61 9.09L42.92 9.09L42.92 23.91M40.7 17.72L32.4 17.72L32.4 14.86L40.7 14.86L40.7 17.72M50.38 24.14L50.38 24.14Q48.8 24.14 47.53 23.44Q46.26 22.74 45.53 21.52Q44.79 20.3 44.79 18.79L44.79 18.79Q44.79 17.28 45.53 16.08Q46.26 14.88 47.52 14.18Q48.78 13.48 50.38 13.48L50.38 13.48Q51.97 13.48 53.23 14.17Q54.49 14.86 55.23 16.07Q55.96 17.28 55.96 18.79L55.96 18.79Q55.96 20.3 55.23 21.52Q54.49 22.74 53.23 23.44Q51.97 24.14 50.38 24.14M50.38 21.23L50.38 21.23Q51.07 21.23 51.6 20.92Q52.12 20.62 52.4 20.06Q52.69 19.5 52.69 18.79L52.69 18.79Q52.69 18.08 52.39 17.54Q52.1 17 51.59 16.7Q51.07 16.4 50.38 16.4L50.38 16.4Q49.71 16.4 49.18 16.7Q48.66 17 48.36 17.55Q48.07 18.1 48.07 18.81L48.07 18.81Q48.07 19.5 48.36 20.06Q48.66 20.62 49.18 20.92Q49.71 21.23 50.38 21.23M62.01 23.91L58.8 23.91L58.8 9.49L62.01 9.49L62.01 23.91M64.32 16.44L56.49 16.44L56.49 13.71L64.32 13.71L64.32 16.44M76.29 23.91L73.71 23.91L68.94 9.09L72.22 9.09L75.7 20.49L74.42 20.49L77.82 9.09L80.41 9.09L83.81 20.49L82.55 20.49L86.01 9.09L89.27 9.09L84.5 23.91L81.92 23.91L78.5 12.51L79.71 12.51L76.29 23.91M94.35 24.14L94.35 24.14Q92.78 24.14 91.51 23.44Q90.24 22.74 89.5 21.52Q88.77 20.3 88.77 18.79L88.77 18.79Q88.77 17.28 89.5 16.08Q90.24 14.88 91.5 14.18Q92.76 13.48 94.35 13.48L94.35 13.48Q95.95 13.48 97.21 14.17Q98.47 14.86 99.2 16.07Q99.94 17.28 99.94 18.79L99.94 18.79Q99.94 20.3 99.2 21.52Q98.47 22.74 97.21 23.44Q95.95 24.14 94.35 24.14M94.35 21.23L94.35 21.23Q95.05 21.23 95.57 20.92Q96.1 20.62 96.38 20.06Q96.66 19.5 96.66 18.79L96.66 18.79Q96.66 18.08 96.37 17.54Q96.07 17 95.56 16.7Q95.05 16.4 94.35 16.4L94.35 16.4Q93.68 16.4 93.16 16.7Q92.63 17 92.34 17.55Q92.04 18.1 92.04 18.81L92.04 18.81Q92.04 19.5 92.34 20.06Q92.63 20.62 93.16 20.92Q93.68 21.23 94.35 21.23M104.75 23.91L101.53 23.91L101.53 13.71L104.75 13.71L104.75 23.91M104.75 18.31L104.75 18.31L103.4 17.26Q103.8 15.47 104.75 14.48Q105.69 13.5 107.37 13.5L107.37 13.5Q108.11 13.5 108.66 13.72Q109.22 13.94 109.64 14.4L109.64 14.4L107.73 16.81Q107.52 16.58 107.2 16.46Q106.89 16.33 106.49 16.33L106.49 16.33Q105.69 16.33 105.22 16.83Q104.75 17.32 104.75 18.31M120.79 23.91L117.01 23.91L113.44 18.62L116.99 13.71L120.58 13.71L116.3 19.23L116.4 17.91L120.79 23.91M113.69 23.91L110.48 23.91L110.48 8.67L113.69 8.67L113.69 23.91M133.27 24.14L133.27 24.14Q131.61 24.14 130.19 23.57Q128.77 22.99 127.71 21.94Q126.65 20.89 126.06 19.49Q125.47 18.1 125.47 16.48L125.47 16.48Q125.47 14.86 126.06 13.47Q126.65 12.07 127.7 11.04Q128.75 10.01 130.17 9.43Q131.59 8.86 133.24 8.86L133.24 8.86Q135.01 8.86 136.38 9.42Q137.76 9.99 138.79 10.98L138.79 10.98L136.58 13.2Q136 12.57 135.17 12.22Q134.34 11.86 133.24 11.86L133.24 11.86Q132.28 11.86 131.47 12.18Q130.66 12.51 130.08 13.12Q129.51 13.73 129.18 14.59Q128.86 15.45 128.86 16.48L128.86 16.48Q128.86 17.53 129.18 18.39Q129.51 19.25 130.08 19.86Q130.66 20.47 131.47 20.81Q132.28 21.14 133.24 21.14L133.24 21.14Q134.38 21.14 135.22 20.78Q136.06 20.43 136.67 19.8L136.67 19.8L138.89 22.02Q137.82 23.01 136.45 23.58Q135.07 24.14 133.27 24.14M150.36 23.91L147.15 23.91L147.15 18.1Q147.15 17.3 146.65 16.8Q146.16 16.31 145.4 16.31L145.4 16.31Q144.88 16.31 144.48 16.53Q144.08 16.75 143.85 17.16Q143.62 17.57 143.62 18.1L143.62 18.1L142.38 17.49Q142.38 16.29 142.88 15.39Q143.39 14.48 144.29 13.99Q145.19 13.5 146.37 13.5L146.37 13.5Q147.57 13.5 148.47 13.99Q149.37 14.48 149.87 15.36Q150.36 16.23 150.36 17.38L150.36 17.38L150.36 23.91M143.62 23.91L140.41 23.91L140.41 8.67L143.62 8.67L143.62 23.91M157.46 24.14L157.46 24.14Q155.8 24.14 154.51 23.46Q153.22 22.78 152.48 21.56Q151.75 20.34 151.75 18.81L151.75 18.81Q151.75 17.28 152.47 16.07Q153.19 14.86 154.43 14.17Q155.67 13.48 157.23 13.48L157.23 13.48Q158.74 13.48 159.89 14.13Q161.05 14.78 161.71 15.93Q162.37 17.09 162.37 18.58L162.37 18.58Q162.37 18.85 162.34 19.16Q162.31 19.46 162.22 19.86L162.22 19.86L153.43 19.88L153.43 17.68L160.86 17.66L159.47 18.58Q159.45 17.7 159.2 17.12Q158.95 16.54 158.45 16.24Q157.96 15.93 157.25 15.93L157.25 15.93Q156.49 15.93 155.93 16.28Q155.38 16.63 155.07 17.26Q154.77 17.89 154.77 18.79L154.77 18.79Q154.77 19.69 155.09 20.33Q155.42 20.97 156.02 21.32Q156.62 21.67 157.44 21.67L157.44 21.67Q158.19 21.67 158.8 21.4Q159.41 21.14 159.87 20.62L159.87 20.62L161.64 22.38Q160.88 23.26 159.81 23.7Q158.74 24.14 157.46 24.14M168.86 24.14L168.86 24.14Q167.29 24.14 166 23.45Q164.72 22.76 163.99 21.54Q163.25 20.32 163.25 18.81L163.25 18.81Q163.25 17.28 164 16.07Q164.74 14.86 166.03 14.17Q167.31 13.48 168.9 13.48L168.9 13.48Q170.1 13.48 171.1 13.89Q172.09 14.3 172.87 15.11L172.87 15.11L170.81 17.17Q170.46 16.77 169.98 16.58Q169.51 16.4 168.9 16.4L168.9 16.4Q168.21 16.4 167.67 16.7Q167.14 17 166.83 17.54Q166.53 18.08 166.53 18.79L166.53 18.79Q166.53 19.5 166.83 20.05Q167.14 20.6 167.68 20.91Q168.23 21.23 168.9 21.23L168.9 21.23Q169.53 21.23 170.03 21Q170.52 20.78 170.88 20.39L170.88 20.39L172.91 22.44Q172.12 23.28 171.11 23.71Q170.1 24.14 168.86 24.14M184.65 23.91L180.87 23.91L177.3 18.62L180.85 13.71L184.44 13.71L180.16 19.23L180.26 17.91L184.65 23.91M177.55 23.91L174.34 23.91L174.34 8.67L177.55 8.67L177.55 23.91M188.94 24.17L188.94 24.17Q188.03 24.17 187.16 23.93Q186.29 23.7 185.54 23.27Q184.8 22.84 184.27 22.28L184.27 22.28L186.1 20.43Q186.61 20.97 187.3 21.28Q187.99 21.58 188.81 21.58L188.81 21.58Q189.38 21.58 189.68 21.41Q189.99 21.25 189.99 20.95L189.99 20.95Q189.99 20.57 189.62 20.37Q189.25 20.18 188.68 20.02Q188.12 19.86 187.49 19.67Q186.86 19.48 186.29 19.15Q185.72 18.81 185.37 18.21Q185.01 17.61 185.01 16.69L185.01 16.69Q185.01 15.7 185.51 14.98Q186.02 14.25 186.94 13.83Q187.87 13.41 189.1 13.41L189.1 13.41Q190.41 13.41 191.51 13.86Q192.61 14.32 193.3 15.2L193.3 15.2L191.48 17.05Q190.99 16.48 190.4 16.25Q189.8 16.02 189.23 16.02L189.23 16.02Q188.68 16.02 188.41 16.17Q188.14 16.33 188.14 16.63L188.14 16.63Q188.14 16.94 188.5 17.13Q188.85 17.32 189.42 17.47Q189.99 17.61 190.62 17.82Q191.25 18.03 191.81 18.39Q192.38 18.75 192.74 19.35Q193.09 19.94 193.09 20.91L193.09 20.91Q193.09 22.4 191.97 23.28Q190.85 24.17 188.94 24.17"></path>
  </g>
  <rect class="rule" x="0" y="31" width="194" height="1"></rect>
</svg>
