<svg width="194" height="19" viewBox="0 0 194 19" xmlns="http://www.w3.org/2000/svg" role="img" aria-label="Hot Work Checks">
  <style>
    .ink { fill: #172032; }
    @media (prefers-color-scheme: dark) {
      .ink { fill: rgb(230,234,242); }
    }
  </style>
  <g class="ink">
    <g class="ink" transform="translate(1,0) scale(1)"><path fill-rule="evenodd" d="M18 5.25a2.25 2.25 0 0 0-2.012-2.238A2.25 2.25 0 0 0 13.75 1h-1.5a2.25 2.25 0 0 0-2.238 2.012c-.875.092-1.6.686-1.884 1.488H11A2.5 2.5 0 0 1 13.5 7v7h2.25A2.25 2.25 0 0 0 18 11.75v-6.5ZM12.25 2.5a.75.75 0 0 0-.75.75v.25h3v-.25a.75.75 0 0 0-.75-.75h-1.5Z" clip-rule="evenodd"></path><path fill-rule="evenodd" d="M3 6a1 1 0 0 0-1 1v10a1 1 0 0 0 1 1h8a1 1 0 0 0 1-1V7a1 1 0 0 0-1-1H3Zm6.874 4.166a.75.75 0 1 0-1.248-.832l-2.493 3.739-.853-.853a.75.75 0 0 0-1.06 1.06l1.5 1.5a.75.75 0 0 0 1.154-.114l3-4.5Z" clip-rule="evenodd"></path></g>
    <path d="M34.37 16.88L31.51 16.88L31.51 2.12L34.37 2.12L34.37 16.88M43.63 16.88L40.77 16.88L40.77 2.12L43.63 2.12L43.63 16.88M41.57 10.52L33.32 10.52L33.32 8L41.57 8L41.57 10.52M51.13 17.09L51.13 17.09Q49.59 17.09 48.36 16.39Q47.14 15.68 46.41 14.48Q45.69 13.27 45.69 11.78L45.69 11.78Q45.69 10.29 46.4 9.1Q47.12 7.91 48.35 7.21Q49.59 6.51 51.11 6.51L51.11 6.51Q52.66 6.51 53.89 7.21Q55.12 7.91 55.83 9.1Q56.54 10.29 56.54 11.78L56.54 11.78Q56.54 13.27 55.83 14.48Q55.12 15.68 53.89 16.39Q52.66 17.09 51.13 17.09M51.11 14.53L51.11 14.53Q51.88 14.53 52.48 14.18Q53.08 13.84 53.4 13.22Q53.73 12.6 53.73 11.8L53.73 11.8Q53.73 11 53.39 10.39Q53.06 9.78 52.47 9.44Q51.88 9.09 51.11 9.09L51.11 9.09Q50.35 9.09 49.76 9.44Q49.17 9.78 48.84 10.39Q48.5 11 48.5 11.8L48.5 11.8Q48.5 12.6 48.84 13.22Q49.17 13.84 49.76 14.18Q50.35 14.53 51.11 14.53M62.3 16.88L59.55 16.88L59.55 2.52L62.3 2.52L62.3 16.88M64.67 9.15L57.17 9.15L57.17 6.74L64.67 6.74L64.67 9.15M76.49 16.88L74.35 16.88L69.56 2.12L72.38 2.12L75.93 13.48L74.98 13.48L78.47 2.12L80.59 2.12L84.08 13.48L83.11 13.48L86.68 2.12L89.49 2.12L84.68 16.88L82.56 16.88L79.06 5.54L79.98 5.54L76.49 16.88M94.53 17.09L94.53 17.09Q93 17.09 91.77 16.39Q90.54 15.68 89.82 14.48Q89.09 13.27 89.09 11.78L89.09 11.78Q89.09 10.29 89.81 9.1Q90.52 7.91 91.76 7.21Q93 6.51 94.51 6.51L94.51 6.51Q96.07 6.51 97.29 7.21Q98.52 7.91 99.24 9.1Q99.95 10.29 99.95 11.78L99.95 11.78Q99.95 13.27 99.24 14.48Q98.52 15.68 97.29 16.39Q96.07 17.09 94.53 17.09M94.51 14.53L94.51 14.53Q95.29 14.53 95.89 14.18Q96.49 13.84 96.81 13.22Q97.14 12.6 97.14 11.8L97.14 11.8Q97.14 11 96.8 10.39Q96.47 9.78 95.88 9.44Q95.29 9.09 94.51 9.09L94.51 9.09Q93.76 9.09 93.17 9.44Q92.58 9.78 92.24 10.39Q91.91 11 91.91 11.8L91.91 11.8Q91.91 12.6 92.24 13.22Q92.58 13.84 93.17 14.18Q93.76 14.53 94.51 14.53M104.47 16.88L101.72 16.88L101.72 6.74L104.47 6.74L104.47 16.88M104.47 11.27L104.47 11.27L103.4 10.56Q103.58 8.69 104.49 7.61Q105.39 6.53 107.09 6.53L107.09 6.53Q107.83 6.53 108.41 6.77Q109 7.01 109.49 7.56L109.49 7.56L107.76 9.53Q107.53 9.28 107.21 9.15Q106.88 9.03 106.46 9.03L106.46 9.03Q105.58 9.03 105.02 9.58Q104.47 10.14 104.47 11.27M120.28 16.88L116.92 16.88L112.99 11.65L116.9 6.74L120.07 6.74L115.49 12.28L115.6 10.94L120.28 16.88M113.2 16.88L110.45 16.88L110.45 1.7L113.2 1.7L113.2 16.88M132.77 17.09L132.77 17.09Q131.16 17.09 129.77 16.51Q128.39 15.94 127.35 14.9Q126.31 13.86 125.75 12.47Q125.19 11.09 125.19 9.49L125.19 9.49Q125.19 7.89 125.75 6.51Q126.31 5.12 127.35 4.09Q128.39 3.06 129.76 2.48Q131.14 1.89 132.77 1.89L132.77 1.89Q134.54 1.89 135.88 2.46Q137.23 3.04 138.26 4.05L138.26 4.05L136.32 5.98Q135.71 5.31 134.83 4.93Q133.95 4.55 132.77 4.55L132.77 4.55Q131.75 4.55 130.89 4.9Q130.04 5.25 129.41 5.91Q128.78 6.57 128.45 7.48Q128.11 8.4 128.11 9.49L128.11 9.49Q128.11 10.6 128.45 11.51Q128.78 12.41 129.41 13.07Q130.04 13.73 130.89 14.09Q131.75 14.45 132.77 14.45L132.77 14.45Q134.01 14.45 134.91 14.07Q135.8 13.69 136.41 13L136.41 13L138.34 14.93Q137.31 15.96 135.95 16.52Q134.58 17.09 132.77 17.09M149.62 16.88L146.87 16.88L146.87 11.06Q146.87 10.16 146.3 9.59Q145.73 9.03 144.83 9.03L144.83 9.03Q144.24 9.03 143.78 9.28Q143.32 9.53 143.05 9.99Q142.79 10.46 142.79 11.06L142.79 11.06L141.72 10.52Q141.72 9.32 142.22 8.43Q142.73 7.54 143.62 7.03Q144.51 6.53 145.67 6.53L145.67 6.53Q146.82 6.53 147.72 7.03Q148.61 7.54 149.11 8.42Q149.62 9.3 149.62 10.46L149.62 10.46L149.62 16.88M142.79 16.88L140.04 16.88L140.04 1.7L142.79 1.7L142.79 16.88M156.69 17.09L156.69 17.09Q155.1 17.09 153.86 16.41Q152.62 15.73 151.89 14.53Q151.17 13.33 151.17 11.8L151.17 11.8Q151.17 10.29 151.87 9.1Q152.58 7.91 153.79 7.21Q155.01 6.51 156.5 6.51L156.5 6.51Q157.97 6.51 159.1 7.17Q160.22 7.83 160.86 8.97Q161.5 10.12 161.5 11.57L161.5 11.57Q161.5 11.84 161.47 12.13Q161.44 12.41 161.35 12.77L161.35 12.77L152.83 12.79L152.83 10.73L160.07 10.71L158.96 11.57Q158.92 10.67 158.64 10.06Q158.35 9.45 157.82 9.12Q157.28 8.8 156.5 8.8L156.5 8.8Q155.69 8.8 155.08 9.16Q154.47 9.53 154.14 10.19Q153.82 10.85 153.82 11.76L153.82 11.76Q153.82 12.68 154.16 13.36Q154.51 14.05 155.16 14.41Q155.81 14.78 156.67 14.78L156.67 14.78Q157.45 14.78 158.08 14.52Q158.71 14.26 159.17 13.73L159.17 13.73L160.79 15.35Q160.05 16.21 158.99 16.65Q157.93 17.09 156.69 17.09M167.99 17.09L167.99 17.09Q166.44 17.09 165.2 16.4Q163.96 15.71 163.24 14.51Q162.53 13.31 162.53 11.82L162.53 11.82Q162.53 10.31 163.24 9.11Q163.96 7.91 165.21 7.21Q166.46 6.51 167.99 6.51L167.99 6.51Q169.19 6.51 170.2 6.95Q171.2 7.39 171.94 8.21L171.94 8.21L170.18 9.99Q169.78 9.55 169.22 9.32Q168.66 9.09 167.99 9.09L167.99 9.09Q167.24 9.09 166.64 9.44Q166.04 9.78 165.69 10.38Q165.35 10.98 165.35 11.8L165.35 11.8Q165.35 12.6 165.69 13.22Q166.04 13.84 166.64 14.18Q167.24 14.53 167.99 14.53L167.99 14.53Q168.68 14.53 169.24 14.29Q169.8 14.05 170.2 13.58L170.2 13.58L171.98 15.37Q171.2 16.21 170.2 16.65Q169.19 17.09 167.99 17.09M183.36 16.88L180 16.88L176.08 11.65L179.98 6.74L183.15 6.74L178.58 12.28L178.68 10.94L183.36 16.88M176.29 16.88L173.53 16.88L173.53 1.7L176.29 1.7L176.29 16.88M187.52 17.11L187.52 17.11Q186.66 17.11 185.83 16.88Q185 16.65 184.31 16.24Q183.61 15.83 183.11 15.24L183.11 15.24L184.75 13.58Q185.27 14.17 185.97 14.47Q186.66 14.76 187.5 14.76L187.5 14.76Q188.17 14.76 188.52 14.57Q188.86 14.38 188.86 14L188.86 14Q188.86 13.58 188.5 13.35Q188.13 13.12 187.54 12.97Q186.95 12.81 186.31 12.61Q185.67 12.41 185.08 12.08Q184.5 11.76 184.13 11.18Q183.76 10.6 183.76 9.68L183.76 9.68Q183.76 8.71 184.23 8Q184.71 7.28 185.59 6.89Q186.47 6.49 187.67 6.49L187.67 6.49Q188.93 6.49 189.95 6.93Q190.96 7.37 191.64 8.25L191.64 8.25L189.98 9.91Q189.52 9.34 188.94 9.09Q188.36 8.84 187.69 8.84L187.69 8.84Q187.08 8.84 186.75 9.03Q186.43 9.22 186.43 9.55L186.43 9.55Q186.43 9.93 186.8 10.14Q187.16 10.35 187.75 10.51Q188.34 10.67 188.98 10.86Q189.62 11.06 190.2 11.42Q190.78 11.78 191.14 12.37Q191.51 12.95 191.51 13.88L191.51 13.88Q191.51 15.37 190.44 16.24Q189.37 17.11 187.52 17.11"></path>
  </g>
</svg>
