<svg width="192" height="25" viewBox="0 0 192 25" xmlns="http://www.w3.org/2000/svg" role="img" aria-label="Hot Work Checks">
  <style>
    .ink { fill: #172032; }
    @media (prefers-color-scheme: dark) {
      .ink { fill: rgb(230,234,242); }
    }
  </style>
  <g class="ink">
    <g class="ink" transform="translate(0,7) scale(1)"><path fill-rule="evenodd" d="M18 5.25a2.25 2.25 0 0 0-2.012-2.238A2.25 2.25 0 0 0 13.75 1h-1.5a2.25 2.25 0 0 0-2.238 2.012c-.875.092-1.6.686-1.884 1.488H11A2.5 2.5 0 0 1 13.5 7v7h2.25A2.25 2.25 0 0 0 18 11.75v-6.5ZM12.25 2.5a.75.75 0 0 0-.75.75v.25h3v-.25a.75.75 0 0 0-.75-.75h-1.5Z" clip-rule="evenodd"></path><path fill-rule="evenodd" d="M3 6a1 1 0 0 0-1 1v10a1 1 0 0 0 1 1h8a1 1 0 0 0 1-1V7a1 1 0 0 0-1-1H3Zm6.874 4.166a.75.75 0 1 0-1.248-.832l-2.493 3.739-.853-.853a.75.75 0 0 0-1.06 1.06l1.5 1.5a.75.75 0 0 0 1.154-.114l3-4.5Z" clip-rule="evenodd"></path></g>
    <path d="M33.37 23.88L30.51 23.88L30.51 9.12L33.37 9.12L33.37 23.88M42.63 23.88L39.77 23.88L39.77 9.12L42.63 9.12L42.63 23.88M40.57 17.52L32.32 17.52L32.32 15L40.57 15L40.57 17.52M50.13 24.09L50.13 24.09Q48.59 24.09 47.36 23.39Q46.14 22.68 45.41 21.48Q44.69 20.27 44.69 18.78L44.69 18.78Q44.69 17.29 45.4 16.1Q46.12 14.91 47.35 14.21Q48.59 13.51 50.11 13.51L50.11 13.51Q51.66 13.51 52.89 14.21Q54.12 14.91 54.83 16.1Q55.54 17.29 55.54 18.78L55.54 18.78Q55.54 20.27 54.83 21.48Q54.12 22.68 52.89 23.39Q51.66 24.09 50.13 24.09M50.11 21.53L50.11 21.53Q50.88 21.53 51.48 21.18Q52.08 20.84 52.4 20.22Q52.73 19.6 52.73 18.8L52.73 18.8Q52.73 18 52.39 17.39Q52.06 16.78 51.47 16.44Q50.88 16.09 50.11 16.09L50.11 16.09Q49.35 16.09 48.76 16.44Q48.17 16.78 47.84 17.39Q47.5 18 47.5 18.8L47.5 18.8Q47.5 19.6 47.84 20.22Q48.17 20.84 48.76 21.18Q49.35 21.53 50.11 21.53M61.3 23.88L58.55 23.88L58.55 9.52L61.3 9.52L61.3 23.88M63.67 16.15L56.17 16.15L56.17 13.74L63.67 13.74L63.67 16.15M75.49 23.88L73.35 23.88L68.56 9.12L71.38 9.12L74.93 20.48L73.98 20.48L77.47 9.12L79.59 9.12L83.08 20.48L82.11 20.48L85.68 9.12L88.49 9.12L83.68 23.88L81.56 23.88L78.06 12.54L78.98 12.54L75.49 23.88M93.53 24.09L93.53 24.09Q92 24.09 90.77 23.39Q89.54 22.68 88.82 21.48Q88.09 20.27 88.09 18.78L88.09 18.78Q88.09 17.29 88.81 16.1Q89.52 14.91 90.76 14.21Q92 13.51 93.51 13.51L93.51 13.51Q95.07 13.51 96.29 14.21Q97.52 14.91 98.24 16.1Q98.95 17.29 98.95 18.78L98.95 18.78Q98.95 20.27 98.24 21.48Q97.52 22.68 96.29 23.39Q95.07 24.09 93.53 24.09M93.51 21.53L93.51 21.53Q94.29 21.53 94.89 21.18Q95.49 20.84 95.81 20.22Q96.14 19.6 96.14 18.8L96.14 18.8Q96.14 18 95.8 17.39Q95.47 16.78 94.88 16.44Q94.29 16.09 93.51 16.09L93.51 16.09Q92.76 16.09 92.17 16.44Q91.58 16.78 91.24 17.39Q90.91 18 90.91 18.8L90.91 18.8Q90.91 19.6 91.24 20.22Q91.58 20.84 92.17 21.18Q92.76 21.53 93.51 21.53M103.47 23.88L100.72 23.88L100.72 13.74L103.47 13.74L103.47 23.88M103.47 18.27L103.47 18.27L102.4 17.56Q102.58 15.69 103.49 14.61Q104.39 13.53 106.09 13.53L106.09 13.53Q106.83 13.53 107.41 13.77Q108 14.01 108.49 14.56L108.49 14.56L106.76 16.53Q106.53 16.28 106.21 16.15Q105.88 16.03 105.46 16.03L105.46 16.03Q104.58 16.03 104.02 16.58Q103.47 17.14 103.47 18.27M119.28 23.88L115.92 23.88L111.99 18.65L115.9 13.74L119.07 13.74L114.49 19.28L114.6 17.94L119.28 23.88M112.2 23.88L109.45 23.88L109.45 8.7L112.2 8.7L112.2 23.88M131.77 24.09L131.77 24.09Q130.16 24.09 128.77 23.51Q127.39 22.94 126.35 21.9Q125.31 20.86 124.75 19.47Q124.19 18.09 124.19 16.49L124.19 16.49Q124.19 14.89 124.75 13.51Q125.31 12.12 126.35 11.09Q127.39 10.06 128.76 9.48Q130.14 8.89 131.77 8.89L131.77 8.89Q133.54 8.89 134.88 9.46Q136.23 10.04 137.26 11.05L137.26 11.05L135.32 12.98Q134.71 12.31 133.83 11.93Q132.95 11.55 131.77 11.55L131.77 11.55Q130.75 11.55 129.89 11.9Q129.04 12.25 128.41 12.91Q127.78 13.57 127.45 14.48Q127.11 15.4 127.11 16.49L127.11 16.49Q127.11 17.6 127.45 18.51Q127.78 19.41 128.41 20.07Q129.04 20.73 129.89 21.09Q130.75 21.45 131.77 21.45L131.77 21.45Q133.01 21.45 133.91 21.07Q134.8 20.69 135.41 20L135.41 20L137.34 21.93Q136.31 22.96 134.95 23.52Q133.58 24.09 131.77 24.09M148.62 23.88L145.87 23.88L145.87 18.06Q145.87 17.16 145.3 16.59Q144.73 16.03 143.83 16.03L143.83 16.03Q143.24 16.03 142.78 16.28Q142.32 16.53 142.05 16.99Q141.79 17.46 141.79 18.06L141.79 18.06L140.72 17.52Q140.72 16.32 141.22 15.43Q141.73 14.54 142.62 14.03Q143.51 13.53 144.67 13.53L144.67 13.53Q145.82 13.53 146.72 14.03Q147.61 14.54 148.11 15.42Q148.62 16.3 148.62 17.46L148.62 17.46L148.62 23.88M141.79 23.88L139.04 23.88L139.04 8.7L141.79 8.7L141.79 23.88M155.69 24.09L155.69 24.09Q154.1 24.09 152.86 23.41Q151.62 22.73 150.89 21.53Q150.17 20.33 150.17 18.8L150.17 18.8Q150.17 17.29 150.87 16.1Q151.58 14.91 152.79 14.21Q154.01 13.51 155.5 13.51L155.5 13.51Q156.97 13.51 158.1 14.17Q159.22 14.83 159.86 15.97Q160.5 17.12 160.5 18.57L160.5 18.57Q160.5 18.84 160.47 19.13Q160.44 19.41 160.35 19.77L160.35 19.77L151.83 19.79L151.83 17.73L159.07 17.71L157.96 18.57Q157.92 17.67 157.64 17.06Q157.35 16.45 156.82 16.12Q156.28 15.8 155.5 15.8L155.5 15.8Q154.69 15.8 154.08 16.16Q153.47 16.53 153.14 17.19Q152.82 17.85 152.82 18.76L152.82 18.76Q152.82 19.68 153.16 20.36Q153.51 21.05 154.16 21.41Q154.81 21.78 155.67 21.78L155.67 21.78Q156.45 21.78 157.08 21.52Q157.71 21.26 158.17 20.73L158.17 20.73L159.79 22.35Q159.05 23.21 157.99 23.65Q156.93 24.09 155.69 24.09M166.99 24.09L166.99 24.09Q165.44 24.09 164.2 23.4Q162.96 22.71 162.24 21.51Q161.53 20.31 161.53 18.82L161.53 18.82Q161.53 17.31 162.24 16.11Q162.96 14.91 164.21 14.21Q165.46 13.51 166.99 13.51L166.99 13.51Q168.19 13.51 169.2 13.95Q170.2 14.39 170.94 15.21L170.94 15.21L169.18 16.99Q168.78 16.55 168.22 16.32Q167.66 16.09 166.99 16.09L166.99 16.09Q166.24 16.09 165.64 16.44Q165.04 16.78 164.69 17.38Q164.35 17.98 164.35 18.8L164.35 18.8Q164.35 19.6 164.69 20.22Q165.04 20.84 165.64 21.18Q166.24 21.53 166.99 21.53L166.99 21.53Q167.68 21.53 168.24 21.29Q168.8 21.05 169.2 20.58L169.2 20.58L170.98 22.37Q170.2 23.21 169.2 23.65Q168.19 24.09 166.99 24.09M182.36 23.88L179 23.88L175.08 18.65L178.98 13.74L182.15 13.74L177.58 19.28L177.68 17.94L182.36 23.88M175.29 23.88L172.53 23.88L172.53 8.7L175.29 8.7L175.29 23.88M186.52 24.11L186.52 24.11Q185.66 24.11 184.83 23.88Q184 23.65 183.31 23.24Q182.61 22.83 182.11 22.24L182.11 22.24L183.75 20.58Q184.27 21.17 184.97 21.47Q185.66 21.76 186.5 21.76L186.5 21.76Q187.17 21.76 187.52 21.57Q187.86 21.38 187.86 21L187.86 21Q187.86 20.58 187.5 20.35Q187.13 20.12 186.54 19.97Q185.95 19.81 185.31 19.61Q184.67 19.41 184.08 19.08Q183.5 18.76 183.13 18.18Q182.76 17.6 182.76 16.68L182.76 16.68Q182.76 15.71 183.23 15Q183.71 14.28 184.59 13.89Q185.47 13.49 186.67 13.49L186.67 13.49Q187.93 13.49 188.95 13.93Q189.96 14.37 190.64 15.25L190.64 15.25L188.98 16.91Q188.52 16.34 187.94 16.09Q187.36 15.84 186.69 15.84L186.69 15.84Q186.08 15.84 185.75 16.03Q185.43 16.22 185.43 16.55L185.43 16.55Q185.43 16.93 185.8 17.14Q186.16 17.35 186.75 17.51Q187.34 17.67 187.98 17.86Q188.62 18.06 189.2 18.42Q189.78 18.78 190.14 19.37Q190.51 19.95 190.51 20.88L190.51 20.88Q190.51 22.37 189.44 23.24Q188.37 24.11 186.52 24.11"></path>
  </g>
</svg>
