<svg width="195" height="32" viewBox="0 0 195 32" xmlns="http://www.w3.org/2000/svg" role="img" aria-label="Hot Work Checks">
  <style>
    .ink { fill: #172032; }
    .rule { fill: rgb(228,230,235); }
    @media (prefers-color-scheme: dark) {
      .ink { fill: rgb(230,234,242); }
      .rule { fill: rgb(66,77,96); }
    }
  </style>
  <g class="ink">
    <g class="ink" transform="translate(0,7) scale(1)"><path fill-rule="evenodd" d="M18 5.25a2.25 2.25 0 0 0-2.012-2.238A2.25 2.25 0 0 0 13.75 1h-1.5a2.25 2.25 0 0 0-2.238 2.012c-.875.092-1.6.686-1.884 1.488H11A2.5 2.5 0 0 1 13.5 7v7h2.25A2.25 2.25 0 0 0 18 11.75v-6.5ZM12.25 2.5a.75.75 0 0 0-.75.75v.25h3v-.25a.75.75 0 0 0-.75-.75h-1.5Z" clip-rule="evenodd"></path><path fill-rule="evenodd" d="M3 6a1 1 0 0 0-1 1v10a1 1 0 0 0 1 1h8a1 1 0 0 0 1-1V7a1 1 0 0 0-1-1H3Zm6.874 4.166a.75.75 0 1 0-1.248-.832l-2.493 3.739-.853-.853a.75.75 0 0 0-1.06 1.06l1.5 1.5a.75.75 0 0 0 1.154-.114l3-4.5Z" clip-rule="evenodd"></path></g>
    <path d="M30.23 23.9L30.23 9.1L33.33 9.1L33.33 15.11L39.99 15.11L39.99 9.1L43.09 9.1L43.09 23.9L39.99 23.9L39.99 17.66L33.33 17.66L33.33 23.9ZM50.34 24.12Q48.67 24.12 47.45 23.44Q46.23 22.75 45.56 21.47Q44.89 20.19 44.89 18.4L44.89 18.38Q44.89 16.61 45.57 15.33Q46.25 14.05 47.47 13.37Q48.69 12.68 50.33 12.68Q51.98 12.68 53.2 13.36Q54.43 14.04 55.11 15.32Q55.78 16.6 55.78 18.38L55.78 18.4Q55.78 20.2 55.11 21.48Q54.44 22.76 53.22 23.44Q52 24.12 50.34 24.12ZM50.35 21.78Q51.08 21.78 51.61 21.38Q52.15 20.99 52.45 20.23Q52.74 19.48 52.74 18.4L52.74 18.38Q52.74 17.32 52.44 16.57Q52.14 15.82 51.6 15.42Q51.06 15.03 50.33 15.03Q49.61 15.03 49.07 15.42Q48.53 15.82 48.24 16.57Q47.94 17.32 47.94 18.38L47.94 18.4Q47.94 19.48 48.23 20.23Q48.52 20.99 49.07 21.38Q49.61 21.78 50.35 21.78ZM61.69 24.12Q59.86 24.12 58.98 23.35Q58.1 22.59 58.1 20.82L58.1 15.16L56.57 15.16L56.57 12.91L58.1 12.91L58.1 10.22L61.13 10.22L61.13 12.91L63.14 12.91L63.14 15.16L61.13 15.16L61.13 20.49Q61.13 21.26 61.47 21.57Q61.81 21.87 62.49 21.87Q62.69 21.87 62.85 21.85Q63 21.84 63.14 21.82L63.14 24.01Q62.89 24.05 62.53 24.09Q62.16 24.12 61.69 24.12ZM72.32 23.9L68.41 9.1L71.62 9.1L73.95 19.7L74.01 19.7L76.74 9.1L79.46 9.1L82.19 19.7L82.25 19.7L84.6 9.1L87.81 9.1L83.88 23.9L80.85 23.9L78.14 13.98L78.08 13.98L75.35 23.9ZM93.03 24.12Q91.35 24.12 90.13 23.44Q88.91 22.75 88.25 21.47Q87.58 20.19 87.58 18.4L87.58 18.38Q87.58 16.61 88.26 15.33Q88.93 14.05 90.15 13.37Q91.37 12.68 93.02 12.68Q94.67 12.68 95.89 13.36Q97.12 14.04 97.79 15.32Q98.47 16.6 98.47 18.38L98.47 18.4Q98.47 20.2 97.8 21.48Q97.13 22.76 95.91 23.44Q94.69 24.12 93.03 24.12ZM93.04 21.78Q93.76 21.78 94.3 21.38Q94.84 20.99 95.13 20.23Q95.42 19.48 95.42 18.4L95.42 18.38Q95.42 17.32 95.13 16.57Q94.83 15.82 94.29 15.42Q93.74 15.03 93.02 15.03Q92.3 15.03 91.76 15.42Q91.22 15.82 90.92 16.57Q90.63 17.32 90.63 18.38L90.63 18.4Q90.63 19.48 90.92 20.23Q91.21 20.99 91.75 21.38Q92.3 21.78 93.04 21.78ZM100.01 23.9L100.01 12.91L103 12.91L103 14.82L103.06 14.82Q103.31 13.81 103.96 13.24Q104.6 12.68 105.57 12.68Q105.81 12.68 106.04 12.71Q106.26 12.74 106.43 12.79L106.43 15.43Q106.24 15.36 105.96 15.31Q105.67 15.26 105.34 15.26Q104.6 15.26 104.08 15.55Q103.56 15.84 103.28 16.39Q103 16.95 103 17.75L103 23.9ZM107.75 23.9L107.75 9.1L110.74 9.1L110.74 23.9ZM114.66 23.9L111.27 19.04L113.16 16.76L118.12 23.9ZM110.38 20.66L110.38 17.3L110.81 17.3L114.52 12.91L117.91 12.91L112.84 18.68L112.17 18.68ZM129.94 24.15Q127.78 24.15 126.19 23.23Q124.61 22.31 123.75 20.59Q122.9 18.87 122.9 16.49L122.9 16.48Q122.9 14.1 123.76 12.39Q124.62 10.68 126.2 9.76Q127.78 8.85 129.94 8.85Q131.73 8.85 133.14 9.54Q134.54 10.24 135.39 11.46Q136.25 12.67 136.39 14.25L136.4 14.34L133.38 14.34L133.34 14.17Q133.17 13.35 132.72 12.74Q132.27 12.14 131.56 11.8Q130.86 11.47 129.94 11.47Q128.75 11.47 127.88 12.08Q127.01 12.68 126.53 13.8Q126.05 14.93 126.05 16.47L126.05 16.48Q126.05 18.04 126.53 19.18Q127.01 20.31 127.88 20.92Q128.76 21.53 129.94 21.53Q130.83 21.53 131.53 21.2Q132.24 20.87 132.71 20.25Q133.18 19.63 133.37 18.75L133.4 18.65L136.41 18.65L136.4 18.76Q136.26 20.33 135.4 21.55Q134.54 22.77 133.14 23.46Q131.73 24.15 129.94 24.15ZM138.13 23.9L138.13 9.1L141.13 9.1L141.13 14.8L141.19 14.8Q141.62 13.78 142.47 13.23Q143.33 12.68 144.56 12.68Q145.76 12.68 146.62 13.21Q147.48 13.74 147.95 14.7Q148.42 15.66 148.42 17L148.42 23.9L145.42 23.9L145.42 17.61Q145.42 16.46 144.87 15.81Q144.33 15.16 143.3 15.16Q142.64 15.16 142.16 15.47Q141.67 15.79 141.4 16.34Q141.13 16.88 141.13 17.6L141.13 23.9ZM155.34 24.12Q153.66 24.12 152.45 23.43Q151.24 22.74 150.59 21.46Q149.93 20.18 149.93 18.42L149.93 18.41Q149.93 16.66 150.59 15.37Q151.24 14.09 152.42 13.38Q153.61 12.68 155.22 12.68Q156.83 12.68 158 13.36Q159.17 14.04 159.81 15.28Q160.46 16.53 160.46 18.19L160.46 19.11L151.4 19.11L151.4 17.22L159.04 17.22L157.61 18.99L157.61 17.84Q157.61 16.87 157.32 16.22Q157.02 15.57 156.49 15.24Q155.96 14.92 155.27 14.92Q154.57 14.92 154.03 15.25Q153.49 15.59 153.19 16.24Q152.89 16.89 152.89 17.84L152.89 19Q152.89 19.91 153.19 20.56Q153.49 21.2 154.06 21.54Q154.62 21.89 155.4 21.89Q156.02 21.89 156.47 21.69Q156.92 21.5 157.2 21.2Q157.49 20.9 157.59 20.6L157.61 20.53L160.36 20.53L160.33 20.65Q160.21 21.25 159.85 21.87Q159.49 22.48 158.88 23Q158.27 23.51 157.39 23.82Q156.52 24.12 155.34 24.12ZM167.02 24.12Q165.35 24.12 164.13 23.43Q162.91 22.73 162.25 21.44Q161.59 20.16 161.59 18.39L161.59 18.38Q161.59 16.62 162.25 15.34Q162.92 14.06 164.13 13.37Q165.35 12.68 166.99 12.68Q168.48 12.68 169.58 13.24Q170.68 13.8 171.3 14.75Q171.92 15.71 171.98 16.89L171.98 16.97L169.2 16.97L169.18 16.87Q169.05 16.08 168.5 15.56Q167.96 15.03 167.03 15.03Q166.3 15.03 165.76 15.43Q165.22 15.84 164.93 16.59Q164.64 17.35 164.64 18.39L164.64 18.4Q164.64 19.48 164.93 20.23Q165.22 20.99 165.76 21.38Q166.3 21.78 167.04 21.78Q167.94 21.78 168.49 21.27Q169.04 20.76 169.19 19.93L169.2 19.84L171.99 19.84L171.99 19.9Q171.92 21.1 171.29 22.05Q170.67 23.01 169.58 23.56Q168.48 24.12 167.02 24.12ZM173.54 23.9L173.54 9.1L176.53 9.1L176.53 23.9ZM180.45 23.9L177.06 19.04L178.95 16.76L183.91 23.9ZM176.16 20.66L176.16 17.3L176.59 17.3L180.31 12.91L183.7 12.91L178.63 18.68L177.96 18.68ZM189.05 24.12Q187.54 24.12 186.47 23.68Q185.4 23.24 184.8 22.46Q184.2 21.67 184.08 20.64L184.07 20.55L186.99 20.55L187.01 20.64Q187.16 21.28 187.66 21.64Q188.16 22 189.05 22Q189.63 22 190.03 21.86Q190.43 21.72 190.65 21.47Q190.87 21.21 190.87 20.85L190.87 20.84Q190.87 20.4 190.55 20.14Q190.23 19.87 189.42 19.68L187.56 19.29Q186.49 19.07 185.78 18.64Q185.06 18.22 184.71 17.59Q184.35 16.96 184.35 16.14L184.35 16.13Q184.35 15.07 184.91 14.3Q185.47 13.53 186.52 13.11Q187.56 12.68 188.95 12.68Q190.41 12.68 191.43 13.15Q192.45 13.61 193 14.4Q193.54 15.19 193.58 16.16L193.58 16.26L190.82 16.26L190.81 16.18Q190.73 15.58 190.26 15.19Q189.78 14.79 188.95 14.79Q188.44 14.79 188.06 14.94Q187.68 15.08 187.47 15.34Q187.27 15.6 187.27 15.96L187.27 15.97Q187.27 16.25 187.41 16.47Q187.55 16.69 187.87 16.85Q188.2 17.02 188.76 17.14L190.62 17.54Q191.77 17.78 192.48 18.18Q193.2 18.58 193.53 19.16Q193.86 19.74 193.86 20.55L193.86 20.56Q193.86 21.63 193.25 22.43Q192.63 23.23 191.55 23.68Q190.47 24.12 189.05 24.12Z"></path>
  </g>
  <rect class="rule" x="0" y="31" width="195" height="1"></rect>
</svg>
