<svg width="330" height="32" viewBox="0 0 330 32" xmlns="http://www.w3.org/2000/svg" role="img" aria-label="Missing Information">
  <style>
    .ink { fill: #172032; }
    .icon { fill: #D97706; }
    @media (prefers-color-scheme: dark) {
      .ink { fill: rgb(230,234,242); }
      .icon { fill: #FBBF24; }
    }
  </style>
  <g class="ink">
    <g class="icon" transform="translate(1,-0.2) scale(1.5)"><path fill-rule="evenodd" d="M8.485 2.495c.673-1.167 2.357-1.167 3.03 0l6.28 10.875c.673 1.167-.17 2.625-1.516 2.625H3.72c-1.347 0-2.189-1.458-1.515-2.625L8.485 2.495ZM10 5a.75.75 0 0 1 .75.75v3.5a.75.75 0 0 1-1.5 0v-3.5A.75.75 0 0 1 10 5Zm0 9a1 1 0 1 0 0-2 1 1 0 0 0 0 2Z" clip-rule="evenodd"></path></g>
    <path d="M51.05 24.12L46.77 24.12L46.77 1.98L49.79 1.98L58.77 16.34L57.04 16.34L65.98 1.98L69.01 1.98L69.01 24.12L64.75 24.12L64.75 9.32L65.57 9.57L59.34 19.59L56.44 19.59L50.2 9.57L51.05 9.32L51.05 24.12M77.26 24.12L73.1 24.12L73.1 8.91L77.26 8.91L77.26 24.12M75.18 6.45L75.18 6.45Q74.17 6.45 73.51 5.77Q72.85 5.09 72.85 4.09L72.85 4.09Q72.85 3.11 73.51 2.42Q74.17 1.72 75.18 1.72L75.18 1.72Q76.22 1.72 76.87 2.42Q77.51 3.11 77.51 4.09L77.51 4.09Q77.51 5.09 76.87 5.77Q76.22 6.45 75.18 6.45M86.14 24.47L86.14 24.47Q84.85 24.47 83.61 24.12Q82.36 23.77 81.32 23.16Q80.28 22.55 79.53 21.66L79.53 21.66L81.99 19.18Q82.77 20.06 83.81 20.5Q84.85 20.94 86.11 20.94L86.11 20.94Q87.12 20.94 87.64 20.66Q88.16 20.37 88.16 19.81L88.16 19.81Q88.16 19.18 87.61 18.83Q87.06 18.48 86.17 18.25Q85.29 18.01 84.33 17.71Q83.37 17.41 82.49 16.92Q81.61 16.43 81.06 15.57Q80.5 14.7 80.5 13.32L80.5 13.32Q80.5 11.87 81.21 10.8Q81.92 9.73 83.25 9.13Q84.57 8.53 86.36 8.53L86.36 8.53Q88.25 8.53 89.78 9.19Q91.31 9.85 92.32 11.17L92.32 11.17L89.83 13.66Q89.14 12.81 88.27 12.43Q87.4 12.06 86.4 12.06L86.4 12.06Q85.48 12.06 84.99 12.34Q84.51 12.62 84.51 13.13L84.51 13.13Q84.51 13.69 85.06 14.01Q85.61 14.32 86.49 14.56Q87.37 14.8 88.33 15.1Q89.29 15.4 90.16 15.93Q91.03 16.47 91.58 17.35Q92.13 18.23 92.13 19.62L92.13 19.62Q92.13 21.85 90.52 23.16Q88.92 24.47 86.14 24.47M100.13 24.47L100.13 24.47Q98.84 24.47 97.59 24.12Q96.35 23.77 95.31 23.16Q94.27 22.55 93.51 21.66L93.51 21.66L95.97 19.18Q96.76 20.06 97.8 20.5Q98.84 20.94 100.1 20.94L100.1 20.94Q101.11 20.94 101.63 20.66Q102.15 20.37 102.15 19.81L102.15 19.81Q102.15 19.18 101.59 18.83Q101.04 18.48 100.16 18.25Q99.28 18.01 98.32 17.71Q97.36 17.41 96.48 16.92Q95.59 16.43 95.04 15.57Q94.49 14.7 94.49 13.32L94.49 13.32Q94.49 11.87 95.2 10.8Q95.91 9.73 97.23 9.13Q98.55 8.53 100.35 8.53L100.35 8.53Q102.24 8.53 103.77 9.19Q105.3 9.85 106.3 11.17L106.3 11.17L103.81 13.66Q103.12 12.81 102.26 12.43Q101.39 12.06 100.38 12.06L100.38 12.06Q99.47 12.06 98.98 12.34Q98.49 12.62 98.49 13.13L98.49 13.13Q98.49 13.69 99.04 14.01Q99.59 14.32 100.48 14.56Q101.36 14.8 102.32 15.1Q103.28 15.4 104.15 15.93Q105.01 16.47 105.56 17.35Q106.11 18.23 106.11 19.62L106.11 19.62Q106.11 21.85 104.51 23.16Q102.9 24.47 100.13 24.47M113.04 24.12L108.89 24.12L108.89 8.91L113.04 8.91L113.04 24.12M110.97 6.45L110.97 6.45Q109.96 6.45 109.3 5.77Q108.63 5.09 108.63 4.09L108.63 4.09Q108.63 3.11 109.3 2.42Q109.96 1.72 110.97 1.72L110.97 1.72Q112 1.72 112.65 2.42Q113.3 3.11 113.3 4.09L113.3 4.09Q113.3 5.09 112.65 5.77Q112 6.45 110.97 6.45M131.06 24.12L126.94 24.12L126.94 15.4Q126.94 14.04 126.09 13.19Q125.23 12.34 123.88 12.34L123.88 12.34Q123 12.34 122.31 12.72Q121.61 13.1 121.22 13.79Q120.82 14.48 120.82 15.4L120.82 15.4L119.22 14.58Q119.22 12.78 119.99 11.44Q120.76 10.1 122.13 9.35Q123.5 8.59 125.23 8.59L125.23 8.59Q126.9 8.59 128.23 9.43Q129.55 10.26 130.31 11.6Q131.06 12.94 131.06 14.48L131.06 14.48L131.06 24.12M120.82 24.12L116.7 24.12L116.7 8.91L120.82 8.91L120.82 24.12M140.76 30.86L140.76 30.86Q138.34 30.86 136.48 30Q134.62 29.13 133.52 27.55L133.52 27.55L136.13 24.94Q137.02 25.98 138.1 26.53Q139.19 27.08 140.73 27.08L140.73 27.08Q142.65 27.08 143.77 26.11Q144.89 25.13 144.89 23.4L144.89 23.4L144.89 19.59L145.58 16.25L144.92 12.91L144.92 8.91L149.02 8.91L149.02 23.33Q149.02 25.6 147.96 27.29Q146.91 28.97 145.05 29.92Q143.19 30.86 140.76 30.86M140.58 23.71L140.58 23.71Q138.53 23.71 136.89 22.72Q135.25 21.73 134.32 19.99Q133.39 18.26 133.39 16.12L133.39 16.12Q133.39 13.98 134.32 12.28Q135.25 10.58 136.89 9.58Q138.53 8.59 140.58 8.59L140.58 8.59Q142.28 8.59 143.58 9.25Q144.89 9.91 145.65 11.06Q146.4 12.21 146.47 13.76L146.47 13.76L146.47 18.55Q146.4 20.06 145.63 21.24Q144.86 22.42 143.55 23.07Q142.24 23.71 140.58 23.71M141.39 19.96L141.39 19.96Q142.53 19.96 143.36 19.47Q144.2 18.99 144.67 18.12Q145.14 17.25 145.14 16.15L145.14 16.15Q145.14 15.02 144.67 14.17Q144.2 13.32 143.36 12.83Q142.53 12.34 141.39 12.34L141.39 12.34Q140.26 12.34 139.41 12.83Q138.56 13.32 138.09 14.18Q137.61 15.05 137.61 16.15L137.61 16.15Q137.61 17.22 138.09 18.09Q138.56 18.95 139.41 19.46Q140.26 19.96 141.39 19.96M163.51 24.12L159.22 24.12L159.22 1.98L163.51 1.98L163.51 24.12M181.97 24.12L177.84 24.12L177.84 15.4Q177.84 14.04 176.99 13.19Q176.14 12.34 174.78 12.34L174.78 12.34Q173.9 12.34 173.21 12.72Q172.52 13.1 172.12 13.79Q171.73 14.48 171.73 15.4L171.73 15.4L170.12 14.58Q170.12 12.78 170.89 11.44Q171.67 10.1 173.04 9.35Q174.41 8.59 176.14 8.59L176.14 8.59Q177.81 8.59 179.13 9.43Q180.45 10.26 181.21 11.6Q181.97 12.94 181.97 14.48L181.97 14.48L181.97 24.12M171.73 24.12L167.6 24.12L167.6 8.91L171.73 8.91L171.73 24.12M191.26 24.12L187.13 24.12L187.13 7.27Q187.13 5.44 187.92 4.04Q188.71 2.64 190.16 1.82Q191.61 1 193.56 1L193.56 1Q195.04 1 196.11 1.5Q197.18 2.01 198.03 2.89L198.03 2.89L195.42 5.54Q195.07 5.19 194.66 5Q194.25 4.81 193.62 4.81L193.62 4.81Q192.49 4.81 191.87 5.43Q191.26 6.04 191.26 7.17L191.26 7.17L191.26 24.12M195.76 12.53L183.6 12.53L183.6 8.91L195.76 8.91L195.76 12.53M204.77 24.44L204.77 24.44Q202.47 24.44 200.63 23.38Q198.79 22.33 197.7 20.51Q196.61 18.7 196.61 16.47L196.61 16.47Q196.61 14.23 197.68 12.45Q198.76 10.67 200.61 9.62Q202.47 8.56 204.74 8.56L204.74 8.56Q207.07 8.56 208.91 9.62Q210.76 10.67 211.83 12.45Q212.9 14.23 212.9 16.47L212.9 16.47Q212.9 18.7 211.83 20.51Q210.76 22.33 208.91 23.38Q207.07 24.44 204.77 24.44M204.74 20.59L204.74 20.59Q205.91 20.59 206.8 20.07Q207.7 19.55 208.19 18.62Q208.68 17.7 208.68 16.5L208.68 16.5Q208.68 15.3 208.17 14.39Q207.67 13.47 206.79 12.95Q205.91 12.43 204.74 12.43L204.74 12.43Q203.61 12.43 202.72 12.95Q201.84 13.47 201.34 14.39Q200.83 15.3 200.83 16.5L200.83 16.5Q200.83 17.7 201.34 18.62Q201.84 19.55 202.72 20.07Q203.61 20.59 204.74 20.59M219.67 24.12L215.55 24.12L215.55 8.91L219.67 8.91L219.67 24.12M219.67 15.71L219.67 15.71L218.07 14.64Q218.35 11.84 219.7 10.21Q221.06 8.59 223.61 8.59L223.61 8.59Q224.71 8.59 225.59 8.95Q226.48 9.32 227.2 10.13L227.2 10.13L224.62 13.1Q224.27 12.72 223.78 12.53Q223.29 12.34 222.66 12.34L222.66 12.34Q221.34 12.34 220.51 13.17Q219.67 14.01 219.67 15.71M232.74 24.12L228.62 24.12L228.62 8.91L232.74 8.91L232.74 24.12M242.67 24.12L238.54 24.12L238.54 15.14Q238.54 13.82 237.71 13.08Q236.87 12.34 235.64 12.34L235.64 12.34Q234.82 12.34 234.16 12.67Q233.5 13 233.12 13.63Q232.74 14.26 232.74 15.14L232.74 15.14L231.14 14.36Q231.14 12.59 231.91 11.3Q232.68 10.01 234 9.3Q235.33 8.59 237 8.59L237 8.59Q238.57 8.59 239.86 9.3Q241.15 10.01 241.91 11.28Q242.67 12.56 242.67 14.36L242.67 14.36L242.67 24.12M252.59 24.12L248.46 24.12L248.46 15.14Q248.46 13.82 247.63 13.08Q246.79 12.34 245.56 12.34L245.56 12.34Q244.78 12.34 244.1 12.67Q243.42 13 243.04 13.63Q242.67 14.26 242.67 15.14L242.67 15.14L240.3 14.58Q240.43 12.75 241.28 11.41Q242.13 10.07 243.52 9.33Q244.9 8.59 246.6 8.59L246.6 8.59Q248.3 8.59 249.66 9.3Q251.01 10.01 251.8 11.33Q252.59 12.66 252.59 14.48L252.59 14.48L252.59 24.12M262.29 24.44L262.29 24.44Q260.21 24.44 258.54 23.4Q256.87 22.36 255.93 20.56Q254.98 18.77 254.98 16.53L254.98 16.53Q254.98 14.26 255.93 12.47Q256.87 10.67 258.54 9.63Q260.21 8.59 262.29 8.59L262.29 8.59Q263.93 8.59 265.22 9.25Q266.51 9.91 267.28 11.1Q268.06 12.28 268.12 13.76L268.12 13.76L268.12 19.24Q268.06 20.75 267.28 21.92Q266.51 23.08 265.22 23.76Q263.93 24.44 262.29 24.44M263.05 20.62L263.05 20.62Q264.78 20.62 265.85 19.47Q266.92 18.33 266.92 16.5L266.92 16.5Q266.92 15.3 266.43 14.37Q265.95 13.44 265.08 12.92Q264.21 12.4 263.05 12.4L263.05 12.4Q261.91 12.4 261.05 12.92Q260.18 13.44 259.69 14.37Q259.2 15.3 259.2 16.5L259.2 16.5Q259.2 17.73 259.69 18.66Q260.18 19.59 261.05 20.1Q261.91 20.62 263.05 20.62M270.8 24.12L266.7 24.12L266.7 20.03L267.36 16.31L266.7 12.66L266.7 8.91L270.8 8.91L270.8 24.12M280.81 24.12L276.69 24.12L276.69 2.57L280.81 2.57L280.81 24.12M284.37 12.53L273.13 12.53L273.13 8.91L284.37 8.91L284.37 12.53M290.86 24.12L286.7 24.12L286.7 8.91L290.86 8.91L290.86 24.12M288.78 6.45L288.78 6.45Q287.77 6.45 287.11 5.77Q286.45 5.09 286.45 4.09L286.45 4.09Q286.45 3.11 287.11 2.42Q287.77 1.72 288.78 1.72L288.78 1.72Q289.82 1.72 290.47 2.42Q291.11 3.11 291.11 4.09L291.11 4.09Q291.11 5.09 290.47 5.77Q289.82 6.45 288.78 6.45M301.67 24.44L301.67 24.44Q299.37 24.44 297.52 23.38Q295.68 22.33 294.59 20.51Q293.51 18.7 293.51 16.47L293.51 16.47Q293.51 14.23 294.58 12.45Q295.65 10.67 297.51 9.62Q299.37 8.56 301.63 8.56L301.63 8.56Q303.97 8.56 305.81 9.62Q307.65 10.67 308.72 12.45Q309.79 14.23 309.79 16.47L309.79 16.47Q309.79 18.7 308.72 20.51Q307.65 22.33 305.81 23.38Q303.97 24.44 301.67 24.44M301.63 20.59L301.63 20.59Q302.8 20.59 303.7 20.07Q304.6 19.55 305.08 18.62Q305.57 17.7 305.57 16.5L305.57 16.5Q305.57 15.3 305.07 14.39Q304.56 13.47 303.68 12.95Q302.8 12.43 301.63 12.43L301.63 12.43Q300.5 12.43 299.62 12.95Q298.74 13.47 298.23 14.39Q297.73 15.3 297.73 16.5L297.73 16.5Q297.73 17.7 298.23 18.62Q298.74 19.55 299.62 20.07Q300.5 20.59 301.63 20.59M326.8 24.12L322.68 24.12L322.68 15.4Q322.68 14.04 321.83 13.19Q320.98 12.34 319.62 12.34L319.62 12.34Q318.74 12.34 318.05 12.72Q317.35 13.1 316.96 13.79Q316.57 14.48 316.57 15.4L316.57 15.4L314.96 14.58Q314.96 12.78 315.73 11.44Q316.5 10.1 317.87 9.35Q319.24 8.59 320.98 8.59L320.98 8.59Q322.65 8.59 323.97 9.43Q325.29 10.26 326.05 11.6Q326.8 12.94 326.8 14.48L326.8 14.48L326.8 24.12M316.57 24.12L312.44 24.12L312.44 8.91L316.57 8.91L316.57 24.12"></path>
  </g>
</svg>
