<svg width="250" height="31" viewBox="0 0 250 31" xmlns="http://www.w3.org/2000/svg" role="img" aria-label="Missing Information">
  <style>
    .ink { fill: #172032; }
    .icon { fill: #D97706; }
    @media (prefers-color-scheme: dark) {
      .ink { fill: rgb(230,234,242); }
      .icon { fill: #FBBF24; }
    }
  </style>
  <g class="ink">
    <g class="icon" transform="translate(0,7.1) scale(1.145)"><path fill-rule="evenodd" d="M8.485 2.495c.673-1.167 2.357-1.167 3.03 0l6.28 10.875c.673 1.167-.17 2.625-1.516 2.625H3.72c-1.347 0-2.189-1.458-1.515-2.625L8.485 2.495ZM10 5a.75.75 0 0 1 .75.75v3.5a.75.75 0 0 1-1.5 0v-3.5A.75.75 0 0 1 10 5Zm0 9a1 1 0 1 0 0-2 1 1 0 0 0 0 2Z" clip-rule="evenodd"></path></g>
    <path d="M38.19 25.62L34.93 25.62L34.93 8.74L37.23 8.74L44.07 19.69L42.75 19.69L49.57 8.74L51.87 8.74L51.87 25.62L48.63 25.62L48.63 14.34L49.26 14.53L44.5 22.16L42.3 22.16L37.54 14.53L38.19 14.34L38.19 25.62M58.16 25.62L54.99 25.62L54.99 14.02L58.16 14.02L58.16 25.62M56.58 12.15L56.58 12.15Q55.81 12.15 55.3 11.64Q54.8 11.12 54.8 10.35L54.8 10.35Q54.8 9.61 55.3 9.08Q55.81 8.55 56.58 8.55L56.58 8.55Q57.37 8.55 57.86 9.08Q58.35 9.61 58.35 10.35L58.35 10.35Q58.35 11.12 57.86 11.64Q57.37 12.15 56.58 12.15M64.93 25.88L64.93 25.88Q63.94 25.88 63 25.62Q62.05 25.35 61.26 24.88Q60.46 24.42 59.89 23.74L59.89 23.74L61.76 21.85Q62.36 22.52 63.15 22.86Q63.94 23.19 64.9 23.19L64.9 23.19Q65.67 23.19 66.07 22.98Q66.46 22.76 66.46 22.33L66.46 22.33Q66.46 21.85 66.04 21.58Q65.62 21.32 64.95 21.14Q64.28 20.96 63.55 20.73Q62.82 20.5 62.14 20.13Q61.47 19.76 61.05 19.1Q60.63 18.44 60.63 17.38L60.63 17.38Q60.63 16.28 61.17 15.46Q61.71 14.65 62.72 14.19Q63.73 13.74 65.1 13.74L65.1 13.74Q66.54 13.74 67.7 14.24Q68.86 14.74 69.63 15.75L69.63 15.75L67.74 17.65Q67.21 17 66.55 16.71Q65.89 16.42 65.12 16.42L65.12 16.42Q64.42 16.42 64.05 16.64Q63.68 16.86 63.68 17.24L63.68 17.24Q63.68 17.67 64.1 17.91Q64.52 18.15 65.19 18.33Q65.86 18.51 66.6 18.74Q67.33 18.97 67.99 19.38Q68.65 19.78 69.07 20.46Q69.49 21.13 69.49 22.18L69.49 22.18Q69.49 23.89 68.26 24.88Q67.04 25.88 64.93 25.88M75.58 25.88L75.58 25.88Q74.6 25.88 73.65 25.62Q72.7 25.35 71.91 24.88Q71.12 24.42 70.54 23.74L70.54 23.74L72.42 21.85Q73.02 22.52 73.81 22.86Q74.6 23.19 75.56 23.19L75.56 23.19Q76.33 23.19 76.72 22.98Q77.12 22.76 77.12 22.33L77.12 22.33Q77.12 21.85 76.7 21.58Q76.28 21.32 75.61 21.14Q74.94 20.96 74.2 20.73Q73.47 20.5 72.8 20.13Q72.13 19.76 71.71 19.1Q71.29 18.44 71.29 17.38L71.29 17.38Q71.29 16.28 71.83 15.46Q72.37 14.65 73.38 14.19Q74.38 13.74 75.75 13.74L75.75 13.74Q77.19 13.74 78.36 14.24Q79.52 14.74 80.29 15.75L80.29 15.75L78.39 17.65Q77.86 17 77.2 16.71Q76.54 16.42 75.78 16.42L75.78 16.42Q75.08 16.42 74.71 16.64Q74.34 16.86 74.34 17.24L74.34 17.24Q74.34 17.67 74.76 17.91Q75.18 18.15 75.85 18.33Q76.52 18.51 77.25 18.74Q77.98 18.97 78.64 19.38Q79.3 19.78 79.72 20.46Q80.14 21.13 80.14 22.18L80.14 22.18Q80.14 23.89 78.92 24.88Q77.7 25.88 75.58 25.88M85.42 25.62L82.26 25.62L82.26 14.02L85.42 14.02L85.42 25.62M83.84 12.15L83.84 12.15Q83.07 12.15 82.57 11.64Q82.06 11.12 82.06 10.35L82.06 10.35Q82.06 9.61 82.57 9.08Q83.07 8.55 83.84 8.55L83.84 8.55Q84.63 8.55 85.12 9.08Q85.62 9.61 85.62 10.35L85.62 10.35Q85.62 11.12 85.12 11.64Q84.63 12.15 83.84 12.15M99.15 25.62L96.01 25.62L96.01 18.97Q96.01 17.94 95.36 17.29Q94.71 16.64 93.68 16.64L93.68 16.64Q93.01 16.64 92.48 16.93Q91.95 17.22 91.65 17.74Q91.35 18.27 91.35 18.97L91.35 18.97L90.13 18.34Q90.13 16.98 90.72 15.96Q91.3 14.94 92.35 14.36Q93.39 13.78 94.71 13.78L94.71 13.78Q95.98 13.78 96.99 14.42Q98 15.06 98.58 16.08Q99.15 17.1 99.15 18.27L99.15 18.27L99.15 25.62M91.35 25.62L88.21 25.62L88.21 14.02L91.35 14.02L91.35 25.62M106.54 30.75L106.54 30.75Q104.7 30.75 103.28 30.09Q101.86 29.43 101.02 28.23L101.02 28.23L103.02 26.24Q103.69 27.03 104.52 27.45Q105.34 27.87 106.52 27.87L106.52 27.87Q107.98 27.87 108.84 27.13Q109.69 26.38 109.69 25.06L109.69 25.06L109.69 22.16L110.22 19.62L109.71 17.07L109.71 14.02L112.83 14.02L112.83 25.02Q112.83 26.74 112.03 28.03Q111.22 29.31 109.81 30.03Q108.39 30.75 106.54 30.75M106.4 25.3L106.4 25.3Q104.84 25.3 103.59 24.55Q102.34 23.79 101.64 22.47Q100.93 21.15 100.93 19.52L100.93 19.52Q100.93 17.89 101.64 16.59Q102.34 15.3 103.59 14.54Q104.84 13.78 106.4 13.78L106.4 13.78Q107.7 13.78 108.69 14.29Q109.69 14.79 110.26 15.67Q110.84 16.54 110.89 17.72L110.89 17.72L110.89 21.37Q110.84 22.52 110.25 23.42Q109.66 24.32 108.67 24.81Q107.67 25.3 106.4 25.3M107.02 22.45L107.02 22.45Q107.89 22.45 108.52 22.08Q109.16 21.7 109.52 21.04Q109.88 20.38 109.88 19.54L109.88 19.54Q109.88 18.68 109.52 18.03Q109.16 17.38 108.52 17.01Q107.89 16.64 107.02 16.64L107.02 16.64Q106.16 16.64 105.51 17.01Q104.86 17.38 104.5 18.04Q104.14 18.7 104.14 19.54L104.14 19.54Q104.14 20.36 104.5 21.02Q104.86 21.68 105.51 22.06Q106.16 22.45 107.02 22.45M123.87 25.62L120.61 25.62L120.61 8.74L123.87 8.74L123.87 25.62M137.94 25.62L134.79 25.62L134.79 18.97Q134.79 17.94 134.14 17.29Q133.5 16.64 132.46 16.64L132.46 16.64Q131.79 16.64 131.26 16.93Q130.74 17.22 130.44 17.74Q130.14 18.27 130.14 18.97L130.14 18.97L128.91 18.34Q128.91 16.98 129.5 15.96Q130.09 14.94 131.13 14.36Q132.18 13.78 133.5 13.78L133.5 13.78Q134.77 13.78 135.78 14.42Q136.78 15.06 137.36 16.08Q137.94 17.1 137.94 18.27L137.94 18.27L137.94 25.62M130.14 25.62L126.99 25.62L126.99 14.02L130.14 14.02L130.14 25.62M145.02 25.62L141.87 25.62L141.87 12.78Q141.87 11.38 142.47 10.32Q143.07 9.25 144.18 8.62Q145.28 8 146.77 8L146.77 8Q147.9 8 148.71 8.38Q149.53 8.77 150.18 9.44L150.18 9.44L148.18 11.46Q147.92 11.19 147.61 11.05Q147.3 10.9 146.82 10.9L146.82 10.9Q145.95 10.9 145.48 11.37Q145.02 11.84 145.02 12.7L145.02 12.7L145.02 25.62M148.45 16.78L139.18 16.78L139.18 14.02L148.45 14.02L148.45 16.78M155.31 25.86L155.31 25.86Q153.56 25.86 152.16 25.05Q150.75 24.25 149.92 22.87Q149.1 21.49 149.1 19.78L149.1 19.78Q149.1 18.08 149.91 16.72Q150.73 15.37 152.14 14.56Q153.56 13.76 155.29 13.76L155.29 13.76Q157.06 13.76 158.47 14.56Q159.87 15.37 160.69 16.72Q161.5 18.08 161.5 19.78L161.5 19.78Q161.5 21.49 160.69 22.87Q159.87 24.25 158.47 25.05Q157.06 25.86 155.31 25.86M155.29 22.93L155.29 22.93Q156.18 22.93 156.86 22.53Q157.54 22.14 157.92 21.43Q158.29 20.72 158.29 19.81L158.29 19.81Q158.29 18.9 157.9 18.2Q157.52 17.5 156.85 17.11Q156.18 16.71 155.29 16.71L155.29 16.71Q154.42 16.71 153.75 17.11Q153.08 17.5 152.7 18.2Q152.31 18.9 152.31 19.81L152.31 19.81Q152.31 20.72 152.7 21.43Q153.08 22.14 153.75 22.53Q154.42 22.93 155.29 22.93M166.66 25.62L163.52 25.62L163.52 14.02L166.66 14.02L166.66 25.62M166.66 19.21L166.66 19.21L165.44 18.39Q165.66 16.26 166.69 15.02Q167.72 13.78 169.66 13.78L169.66 13.78Q170.5 13.78 171.18 14.06Q171.85 14.34 172.4 14.96L172.4 14.96L170.43 17.22Q170.17 16.93 169.8 16.78Q169.42 16.64 168.94 16.64L168.94 16.64Q167.94 16.64 167.3 17.28Q166.66 17.91 166.66 19.21M176.62 25.62L173.48 25.62L173.48 14.02L176.62 14.02L176.62 25.62M184.18 25.62L181.04 25.62L181.04 18.78Q181.04 17.77 180.4 17.2Q179.77 16.64 178.83 16.64L178.83 16.64Q178.21 16.64 177.7 16.89Q177.2 17.14 176.91 17.62Q176.62 18.1 176.62 18.78L176.62 18.78L175.4 18.18Q175.4 16.83 175.99 15.85Q176.58 14.86 177.58 14.32Q178.59 13.78 179.86 13.78L179.86 13.78Q181.06 13.78 182.05 14.32Q183.03 14.86 183.61 15.84Q184.18 16.81 184.18 18.18L184.18 18.18L184.18 25.62M191.74 25.62L188.6 25.62L188.6 18.78Q188.6 17.77 187.96 17.2Q187.33 16.64 186.39 16.64L186.39 16.64Q185.79 16.64 185.28 16.89Q184.76 17.14 184.47 17.62Q184.18 18.1 184.18 18.78L184.18 18.78L182.38 18.34Q182.48 16.95 183.13 15.93Q183.78 14.91 184.83 14.35Q185.89 13.78 187.18 13.78L187.18 13.78Q188.48 13.78 189.51 14.32Q190.54 14.86 191.14 15.87Q191.74 16.88 191.74 18.27L191.74 18.27L191.74 25.62M199.14 25.86L199.14 25.86Q197.55 25.86 196.28 25.06Q195.01 24.27 194.29 22.9Q193.57 21.54 193.57 19.83L193.57 19.83Q193.57 18.1 194.29 16.74Q195.01 15.37 196.28 14.58Q197.55 13.78 199.14 13.78L199.14 13.78Q200.38 13.78 201.37 14.29Q202.35 14.79 202.94 15.69Q203.53 16.59 203.58 17.72L203.58 17.72L203.58 21.9Q203.53 23.05 202.94 23.94Q202.35 24.82 201.37 25.34Q200.38 25.86 199.14 25.86M199.71 22.95L199.71 22.95Q201.03 22.95 201.85 22.08Q202.66 21.2 202.66 19.81L202.66 19.81Q202.66 18.9 202.29 18.19Q201.92 17.48 201.26 17.08Q200.6 16.69 199.71 16.69L199.71 16.69Q198.85 16.69 198.19 17.08Q197.53 17.48 197.16 18.19Q196.78 18.9 196.78 19.81L196.78 19.81Q196.78 20.74 197.16 21.45Q197.53 22.16 198.19 22.56Q198.85 22.95 199.71 22.95M205.62 25.62L202.5 25.62L202.5 22.5L203 19.66L202.5 16.88L202.5 14.02L205.62 14.02L205.62 25.62M213.25 25.62L210.1 25.62L210.1 9.2L213.25 9.2L213.25 25.62M215.96 16.78L207.39 16.78L207.39 14.02L215.96 14.02L215.96 16.78M220.9 25.62L217.74 25.62L217.74 14.02L220.9 14.02L220.9 25.62M219.32 12.15L219.32 12.15Q218.55 12.15 218.05 11.64Q217.54 11.12 217.54 10.35L217.54 10.35Q217.54 9.61 218.05 9.08Q218.55 8.55 219.32 8.55L219.32 8.55Q220.11 8.55 220.6 9.08Q221.1 9.61 221.1 10.35L221.1 10.35Q221.1 11.12 220.6 11.64Q220.11 12.15 219.32 12.15M229.14 25.86L229.14 25.86Q227.38 25.86 225.98 25.05Q224.58 24.25 223.75 22.87Q222.92 21.49 222.92 19.78L222.92 19.78Q222.92 18.08 223.74 16.72Q224.55 15.37 225.97 14.56Q227.38 13.76 229.11 13.76L229.11 13.76Q230.89 13.76 232.29 14.56Q233.7 15.37 234.51 16.72Q235.33 18.08 235.33 19.78L235.33 19.78Q235.33 21.49 234.51 22.87Q233.7 24.25 232.29 25.05Q230.89 25.86 229.14 25.86M229.11 22.93L229.11 22.93Q230 22.93 230.68 22.53Q231.37 22.14 231.74 21.43Q232.11 20.72 232.11 19.81L232.11 19.81Q232.11 18.9 231.73 18.2Q231.34 17.5 230.67 17.11Q230 16.71 229.11 16.71L229.11 16.71Q228.25 16.71 227.58 17.11Q226.9 17.5 226.52 18.2Q226.14 18.9 226.14 19.81L226.14 19.81Q226.14 20.72 226.52 21.43Q226.9 22.14 227.58 22.53Q228.25 22.93 229.11 22.93M248.29 25.62L245.14 25.62L245.14 18.97Q245.14 17.94 244.5 17.29Q243.85 16.64 242.82 16.64L242.82 16.64Q242.14 16.64 241.62 16.93Q241.09 17.22 240.79 17.74Q240.49 18.27 240.49 18.97L240.49 18.97L239.26 18.34Q239.26 16.98 239.85 15.96Q240.44 14.94 241.48 14.36Q242.53 13.78 243.85 13.78L243.85 13.78Q245.12 13.78 246.13 14.42Q247.14 15.06 247.71 16.08Q248.29 17.1 248.29 18.27L248.29 18.27L248.29 25.62M240.49 25.62L237.34 25.62L237.34 14.02L240.49 14.02L240.49 25.62"></path>
  </g>
</svg>
