<svg width="254" height="31" viewBox="0 0 254 31" xmlns="http://www.w3.org/2000/svg" role="img" aria-label="Missing Information">
  <style>
    .ink { fill: #172032; }
    .icon { fill: #D97706; }
    @media (prefers-color-scheme: dark) {
      .ink { fill: rgb(230,234,242); }
      .icon { fill: #FBBF24; }
    }
  </style>
  <g class="ink">
    <g class="icon" transform="translate(0,7.1) scale(1.145)"><path fill-rule="evenodd" d="M8.485 2.495c.673-1.167 2.357-1.167 3.03 0l6.28 10.875c.673 1.167-.17 2.625-1.516 2.625H3.72c-1.347 0-2.189-1.458-1.515-2.625L8.485 2.495ZM10 5a.75.75 0 0 1 .75.75v3.5a.75.75 0 0 1-1.5 0v-3.5A.75.75 0 0 1 10 5Zm0 9a1 1 0 1 0 0-2 1 1 0 0 0 0 2Z" clip-rule="evenodd"></path></g>
    <path d="M38.58 25.69L34.83 25.69L34.83 8.74L37.52 8.74L44.19 19.14L42.82 19.14L49.47 8.74L52.18 8.74L52.18 25.69L48.42 25.69L48.42 15.1L49.09 15.27L44.74 22.04L42.25 22.04L37.93 15.27L38.58 15.1L38.58 25.69M58.76 25.69L55.09 25.69L55.09 14.02L58.76 14.02L58.76 25.69M56.94 12.42L56.94 12.42Q56.07 12.42 55.51 11.83Q54.94 11.24 54.94 10.4L54.94 10.4Q54.94 9.54 55.51 8.96Q56.07 8.38 56.94 8.38L56.94 8.38Q57.8 8.38 58.35 8.96Q58.9 9.54 58.9 10.4L58.9 10.4Q58.9 11.24 58.35 11.83Q57.8 12.42 56.94 12.42M65.6 25.98L65.6 25.98Q64.57 25.98 63.57 25.71Q62.58 25.45 61.72 24.96Q60.87 24.46 60.27 23.82L60.27 23.82L62.36 21.7Q62.94 22.33 63.73 22.68Q64.52 23.02 65.46 23.02L65.46 23.02Q66.1 23.02 66.45 22.83Q66.8 22.64 66.8 22.3L66.8 22.3Q66.8 21.87 66.38 21.64Q65.96 21.42 65.31 21.24Q64.66 21.06 63.94 20.84Q63.22 20.62 62.58 20.24Q61.93 19.86 61.52 19.17Q61.11 18.49 61.11 17.43L61.11 17.43Q61.11 16.3 61.69 15.48Q62.26 14.65 63.32 14.17Q64.38 13.69 65.79 13.69L65.79 13.69Q67.28 13.69 68.54 14.2Q69.8 14.72 70.59 15.73L70.59 15.73L68.5 17.84Q67.95 17.19 67.27 16.93Q66.58 16.66 65.94 16.66L65.94 16.66Q65.31 16.66 65 16.84Q64.69 17.02 64.69 17.36L64.69 17.36Q64.69 17.72 65.1 17.94Q65.5 18.15 66.15 18.32Q66.8 18.49 67.52 18.73Q68.24 18.97 68.89 19.38Q69.54 19.78 69.94 20.47Q70.35 21.15 70.35 22.26L70.35 22.26Q70.35 23.96 69.07 24.97Q67.78 25.98 65.6 25.98M76.59 25.98L76.59 25.98Q75.56 25.98 74.56 25.71Q73.57 25.45 72.72 24.96Q71.86 24.46 71.26 23.82L71.26 23.82L73.35 21.7Q73.93 22.33 74.72 22.68Q75.51 23.02 76.45 23.02L76.45 23.02Q77.1 23.02 77.44 22.83Q77.79 22.64 77.79 22.3L77.79 22.3Q77.79 21.87 77.37 21.64Q76.95 21.42 76.3 21.24Q75.66 21.06 74.94 20.84Q74.22 20.62 73.57 20.24Q72.92 19.86 72.51 19.17Q72.1 18.49 72.1 17.43L72.1 17.43Q72.1 16.3 72.68 15.48Q73.26 14.65 74.31 14.17Q75.37 13.69 76.78 13.69L76.78 13.69Q78.27 13.69 79.53 14.2Q80.79 14.72 81.58 15.73L81.58 15.73L79.5 17.84Q78.94 17.19 78.26 16.93Q77.58 16.66 76.93 16.66L76.93 16.66Q76.3 16.66 75.99 16.84Q75.68 17.02 75.68 17.36L75.68 17.36Q75.68 17.72 76.09 17.94Q76.5 18.15 77.14 18.32Q77.79 18.49 78.51 18.73Q79.23 18.97 79.88 19.38Q80.53 19.78 80.94 20.47Q81.34 21.15 81.34 22.26L81.34 22.26Q81.34 23.96 80.06 24.97Q78.78 25.98 76.59 25.98M87.01 25.69L83.34 25.69L83.34 14.02L87.01 14.02L87.01 25.69M85.18 12.42L85.18 12.42Q84.32 12.42 83.76 11.83Q83.19 11.24 83.19 10.4L83.19 10.4Q83.19 9.54 83.76 8.96Q84.32 8.38 85.18 8.38L85.18 8.38Q86.05 8.38 86.6 8.96Q87.15 9.54 87.15 10.4L87.15 10.4Q87.15 11.24 86.6 11.83Q86.05 12.42 85.18 12.42M100.98 25.69L97.3 25.69L97.3 19.04Q97.3 18.13 96.74 17.56Q96.18 17 95.31 17L95.31 17Q94.71 17 94.26 17.25Q93.8 17.5 93.54 17.97Q93.27 18.44 93.27 19.04L93.27 19.04L91.86 18.34Q91.86 16.98 92.46 15.94Q93.06 14.91 94.12 14.35Q95.19 13.78 96.54 13.78L96.54 13.78Q97.83 13.78 98.83 14.4Q99.82 15.01 100.4 16.02Q100.98 17.02 100.98 18.22L100.98 18.22L100.98 25.69M93.27 25.69L89.6 25.69L89.6 14.02L93.27 14.02L93.27 25.69M108.27 30.92L108.27 30.92Q106.35 30.92 104.9 30.26Q103.45 29.6 102.61 28.4L102.61 28.4L104.86 26.14Q105.49 26.89 106.27 27.27Q107.05 27.66 108.15 27.66L108.15 27.66Q109.52 27.66 110.3 26.98Q111.08 26.31 111.08 25.09L111.08 25.09L111.08 22.11L111.7 19.57L111.15 17.02L111.15 14.02L114.75 14.02L114.75 24.99Q114.75 26.79 113.91 28.11Q113.07 29.43 111.61 30.18Q110.14 30.92 108.27 30.92M108.1 25.33L108.1 25.33Q106.5 25.33 105.25 24.56Q104 23.79 103.28 22.47Q102.56 21.15 102.56 19.54L102.56 19.54Q102.56 17.91 103.28 16.6Q104 15.3 105.25 14.54Q106.5 13.78 108.1 13.78L108.1 13.78Q109.3 13.78 110.25 14.23Q111.2 14.67 111.79 15.48Q112.38 16.28 112.45 17.34L112.45 17.34L112.45 21.78Q112.38 22.81 111.79 23.61Q111.2 24.42 110.24 24.87Q109.28 25.33 108.1 25.33M108.8 22.06L108.8 22.06Q109.57 22.06 110.13 21.73Q110.7 21.39 111 20.83Q111.3 20.26 111.3 19.54L111.3 19.54Q111.3 18.82 111 18.25Q110.7 17.67 110.13 17.34Q109.57 17 108.8 17L108.8 17Q108.06 17 107.48 17.34Q106.9 17.67 106.59 18.25Q106.28 18.82 106.28 19.54L106.28 19.54Q106.28 20.22 106.59 20.8Q106.9 21.39 107.47 21.73Q108.03 22.06 108.8 22.06M126.01 25.69L122.24 25.69L122.24 8.74L126.01 8.74L126.01 25.69M140.31 25.69L136.64 25.69L136.64 19.04Q136.64 18.13 136.08 17.56Q135.51 17 134.65 17L134.65 17Q134.05 17 133.59 17.25Q133.14 17.5 132.87 17.97Q132.61 18.44 132.61 19.04L132.61 19.04L131.19 18.34Q131.19 16.98 131.79 15.94Q132.39 14.91 133.46 14.35Q134.53 13.78 135.87 13.78L135.87 13.78Q137.17 13.78 138.16 14.4Q139.16 15.01 139.74 16.02Q140.31 17.02 140.31 18.22L140.31 18.22L140.31 25.69M132.61 25.69L128.94 25.69L128.94 14.02L132.61 14.02L132.61 25.69M147.68 25.69L144.01 25.69L144.01 13.02Q144.01 11.6 144.64 10.46Q145.28 9.32 146.43 8.66Q147.58 8 149.17 8L149.17 8Q150.37 8 151.27 8.4Q152.17 8.79 152.84 9.49L152.84 9.49L150.54 11.79Q150.3 11.55 150 11.42Q149.7 11.29 149.29 11.29L149.29 11.29Q148.54 11.29 148.11 11.72Q147.68 12.15 147.68 12.9L147.68 12.9L147.68 25.69M151.04 17.14L141.44 17.14L141.44 14.02L151.04 14.02L151.04 17.14M158.1 25.95L158.1 25.95Q156.3 25.95 154.84 25.15Q153.39 24.34 152.55 22.95Q151.71 21.56 151.71 19.83L151.71 19.83Q151.71 18.1 152.55 16.74Q153.39 15.37 154.83 14.56Q156.27 13.76 158.1 13.76L158.1 13.76Q159.92 13.76 161.36 14.55Q162.8 15.34 163.64 16.72Q164.48 18.1 164.48 19.83L164.48 19.83Q164.48 21.56 163.64 22.95Q162.8 24.34 161.36 25.15Q159.92 25.95 158.1 25.95M158.1 22.62L158.1 22.62Q158.89 22.62 159.49 22.27Q160.09 21.92 160.41 21.28Q160.74 20.65 160.74 19.83L160.74 19.83Q160.74 19.02 160.4 18.4Q160.06 17.79 159.48 17.44Q158.89 17.1 158.1 17.1L158.1 17.1Q157.33 17.1 156.73 17.44Q156.13 17.79 155.79 18.42Q155.46 19.04 155.46 19.86L155.46 19.86Q155.46 20.65 155.79 21.28Q156.13 21.92 156.73 22.27Q157.33 22.62 158.1 22.62M169.98 25.69L166.3 25.69L166.3 14.02L169.98 14.02L169.98 25.69M169.98 19.28L169.98 19.28L168.44 18.08Q168.9 16.04 169.98 14.91Q171.06 13.78 172.98 13.78L172.98 13.78Q173.82 13.78 174.45 14.04Q175.09 14.29 175.57 14.82L175.57 14.82L173.38 17.58Q173.14 17.31 172.78 17.17Q172.42 17.02 171.97 17.02L171.97 17.02Q171.06 17.02 170.52 17.59Q169.98 18.15 169.98 19.28M180.13 25.69L176.46 25.69L176.46 14.02L180.13 14.02L180.13 25.69M187.59 25.69L183.92 25.69L183.92 18.87Q183.92 17.98 183.38 17.49Q182.84 17 182.05 17L182.05 17Q181.5 17 181.06 17.23Q180.63 17.46 180.38 17.86Q180.13 18.27 180.13 18.87L180.13 18.87L178.71 18.25Q178.71 16.86 179.31 15.86Q179.91 14.86 180.94 14.32Q181.98 13.78 183.27 13.78L183.27 13.78Q184.5 13.78 185.47 14.34Q186.44 14.89 187.02 15.87Q187.59 16.86 187.59 18.22L187.59 18.22L187.59 25.69M195.06 25.69L191.38 25.69L191.38 18.87Q191.38 17.98 190.84 17.49Q190.3 17 189.51 17L189.51 17Q188.96 17 188.53 17.23Q188.1 17.46 187.84 17.86Q187.59 18.27 187.59 18.87L187.59 18.87L185.48 18.58Q185.53 17.1 186.19 16.03Q186.85 14.96 187.94 14.37Q189.03 13.78 190.4 13.78L190.4 13.78Q191.74 13.78 192.79 14.35Q193.83 14.91 194.44 15.96Q195.06 17 195.06 18.46L195.06 18.46L195.06 25.69M202.28 25.93L202.28 25.93Q200.67 25.93 199.41 25.14Q198.15 24.34 197.42 22.98Q196.69 21.61 196.69 19.86L196.69 19.86Q196.69 18.1 197.42 16.74Q198.15 15.37 199.41 14.58Q200.67 13.78 202.28 13.78L202.28 13.78Q203.46 13.78 204.4 14.24Q205.35 14.7 205.95 15.5Q206.55 16.3 206.62 17.34L206.62 17.34L206.62 22.38Q206.55 23.41 205.96 24.21Q205.38 25.02 204.42 25.47Q203.46 25.93 202.28 25.93M203.02 22.62L203.02 22.62Q204.2 22.62 204.92 21.84Q205.64 21.06 205.64 19.86L205.64 19.86Q205.64 19.04 205.32 18.42Q204.99 17.79 204.4 17.44Q203.82 17.1 203.05 17.1L203.05 17.1Q202.28 17.1 201.69 17.44Q201.1 17.79 200.76 18.42Q200.41 19.04 200.41 19.86L200.41 19.86Q200.41 20.65 200.74 21.27Q201.08 21.9 201.68 22.26Q202.28 22.62 203.02 22.62M209.1 25.69L205.5 25.69L205.5 22.54L206.05 19.71L205.5 16.88L205.5 14.02L209.1 14.02L209.1 25.69M217.02 25.69L213.34 25.69L213.34 9.2L217.02 9.2L217.02 25.69M219.66 17.14L210.7 17.14L210.7 14.02L219.66 14.02L219.66 17.14M224.94 25.69L221.26 25.69L221.26 14.02L224.94 14.02L224.94 25.69M223.11 12.42L223.11 12.42Q222.25 12.42 221.68 11.83Q221.12 11.24 221.12 10.4L221.12 10.4Q221.12 9.54 221.68 8.96Q222.25 8.38 223.11 8.38L223.11 8.38Q223.98 8.38 224.53 8.96Q225.08 9.54 225.08 10.4L225.08 10.4Q225.08 11.24 224.53 11.83Q223.98 12.42 223.11 12.42M233.14 25.95L233.14 25.95Q231.34 25.95 229.89 25.15Q228.44 24.34 227.6 22.95Q226.76 21.56 226.76 19.83L226.76 19.83Q226.76 18.1 227.6 16.74Q228.44 15.37 229.88 14.56Q231.32 13.76 233.14 13.76L233.14 13.76Q234.97 13.76 236.41 14.55Q237.85 15.34 238.69 16.72Q239.53 18.1 239.53 19.83L239.53 19.83Q239.53 21.56 238.69 22.95Q237.85 24.34 236.41 25.15Q234.97 25.95 233.14 25.95M233.14 22.62L233.14 22.62Q233.94 22.62 234.54 22.27Q235.14 21.92 235.46 21.28Q235.78 20.65 235.78 19.83L235.78 19.83Q235.78 19.02 235.45 18.4Q235.11 17.79 234.52 17.44Q233.94 17.1 233.14 17.1L233.14 17.1Q232.38 17.1 231.78 17.44Q231.18 17.79 230.84 18.42Q230.5 19.04 230.5 19.86L230.5 19.86Q230.5 20.65 230.84 21.28Q231.18 21.92 231.78 22.27Q232.38 22.62 233.14 22.62M252.73 25.69L249.06 25.69L249.06 19.04Q249.06 18.13 248.49 17.56Q247.93 17 247.06 17L247.06 17Q246.46 17 246.01 17.25Q245.55 17.5 245.29 17.97Q245.02 18.44 245.02 19.04L245.02 19.04L243.61 18.34Q243.61 16.98 244.21 15.94Q244.81 14.91 245.88 14.35Q246.94 13.78 248.29 13.78L248.29 13.78Q249.58 13.78 250.58 14.4Q251.58 15.01 252.15 16.02Q252.73 17.02 252.73 18.22L252.73 18.22L252.73 25.69M245.02 25.69L241.35 25.69L241.35 14.02L245.02 14.02L245.02 25.69"></path>
  </g>
</svg>
