<svg width="250" height="31" viewBox="0 0 250 31" xmlns="http://www.w3.org/2000/svg" role="img" aria-label="Missing Information">
  <style>
    .ink { fill: #172032; }
    .icon { fill: #D97706; }
    @media (prefers-color-scheme: dark) {
      .ink { fill: rgb(230,234,242); }
      .icon { fill: #FBBF24; }
    }
  </style>
  <g class="ink">
    <g class="icon" transform="translate(0,7.2) scale(1.145)"><path fill-rule="evenodd" d="M8.485 2.495c.673-1.167 2.357-1.167 3.03 0l6.28 10.875c.673 1.167-.17 2.625-1.516 2.625H3.72c-1.347 0-2.189-1.458-1.515-2.625L8.485 2.495ZM10 5a.75.75 0 0 1 .75.75v3.5a.75.75 0 0 1-1.5 0v-3.5A.75.75 0 0 1 10 5Zm0 9a1 1 0 1 0 0-2 1 1 0 0 0 0 2Z" clip-rule="evenodd"></path></g>
    <path d="M34.61 25.74L34.61 8.83L38.7 8.83L43.5 20.98L43.57 20.98L48.38 8.83L52.47 8.83L52.47 25.74L49.31 25.74L49.31 14.3L47.67 14.3L51.21 9.3L44.65 25.74L42.42 25.74L35.86 9.3L39.4 14.3L37.76 14.3L37.76 25.74ZM55.06 25.74L55.06 13.18L58.48 13.18L58.48 25.74ZM56.77 11.56Q55.99 11.56 55.47 11.04Q54.94 10.51 54.94 9.78Q54.94 9.04 55.47 8.52Q55.99 8 56.77 8Q57.54 8 58.07 8.52Q58.59 9.04 58.59 9.78Q58.59 10.51 58.07 11.04Q57.54 11.56 56.77 11.56ZM65.93 26Q64.2 26 62.98 25.5Q61.76 24.99 61.07 24.1Q60.39 23.2 60.25 22.02L60.24 21.91L63.58 21.91L63.6 22.02Q63.76 22.75 64.34 23.16Q64.91 23.57 65.93 23.57Q66.59 23.57 67.04 23.42Q67.5 23.26 67.75 22.96Q68 22.67 68 22.26L68 22.25Q68 21.75 67.64 21.44Q67.28 21.14 66.35 20.93L64.22 20.48Q63 20.22 62.19 19.74Q61.37 19.25 60.96 18.53Q60.55 17.81 60.55 16.87L60.55 16.86Q60.55 15.65 61.2 14.77Q61.84 13.89 63.03 13.41Q64.22 12.92 65.81 12.92Q67.48 12.92 68.64 13.46Q69.81 13.99 70.44 14.89Q71.06 15.79 71.1 16.89L71.1 17.01L67.95 17.01L67.93 16.92Q67.85 16.24 67.31 15.79Q66.76 15.34 65.81 15.34Q65.23 15.34 64.79 15.5Q64.36 15.66 64.13 15.96Q63.89 16.26 63.89 16.67L63.89 16.68Q63.89 17 64.05 17.25Q64.21 17.5 64.58 17.69Q64.96 17.88 65.59 18.02L67.72 18.48Q69.04 18.75 69.85 19.2Q70.66 19.66 71.05 20.32Q71.43 20.98 71.43 21.91L71.43 21.92Q71.43 23.15 70.72 24.07Q70.02 24.98 68.78 25.49Q67.55 26 65.93 26ZM78.28 26Q76.55 26 75.33 25.5Q74.11 24.99 73.42 24.1Q72.74 23.2 72.6 22.02L72.59 21.91L75.93 21.91L75.95 22.02Q76.11 22.75 76.69 23.16Q77.26 23.57 78.28 23.57Q78.94 23.57 79.4 23.42Q79.85 23.26 80.1 22.96Q80.36 22.67 80.36 22.26L80.36 22.25Q80.36 21.75 79.99 21.44Q79.63 21.14 78.7 20.93L76.57 20.48Q75.35 20.22 74.54 19.74Q73.72 19.25 73.31 18.53Q72.9 17.81 72.9 16.87L72.9 16.86Q72.9 15.65 73.55 14.77Q74.19 13.89 75.38 13.41Q76.57 12.92 78.16 12.92Q79.83 12.92 80.99 13.46Q82.16 13.99 82.79 14.89Q83.41 15.79 83.45 16.89L83.45 17.01L80.3 17.01L80.29 16.92Q80.2 16.24 79.66 15.79Q79.11 15.34 78.16 15.34Q77.58 15.34 77.15 15.5Q76.71 15.66 76.48 15.96Q76.24 16.26 76.24 16.67L76.24 16.68Q76.24 17 76.4 17.25Q76.56 17.5 76.93 17.69Q77.31 17.88 77.94 18.02L80.08 18.48Q81.39 18.75 82.2 19.2Q83.02 19.66 83.4 20.32Q83.78 20.98 83.78 21.91L83.78 21.92Q83.78 23.15 83.08 24.07Q82.37 24.98 81.14 25.49Q79.9 26 78.28 26ZM85.54 25.74L85.54 13.18L88.96 13.18L88.96 25.74ZM87.25 11.56Q86.47 11.56 85.95 11.04Q85.42 10.51 85.42 9.78Q85.42 9.04 85.95 8.52Q86.47 8 87.25 8Q88.02 8 88.55 8.52Q89.08 9.04 89.08 9.78Q89.08 10.51 88.55 11.04Q88.02 11.56 87.25 11.56ZM91.24 25.74L91.24 13.18L94.66 13.18L94.66 15.24L94.74 15.24Q95.23 14.16 96.19 13.54Q97.15 12.92 98.57 12.92Q100.64 12.92 101.77 14.17Q102.9 15.42 102.9 17.63L102.9 25.74L99.48 25.74L99.48 18.34Q99.48 17.11 98.9 16.43Q98.32 15.76 97.17 15.76Q96.41 15.76 95.85 16.1Q95.29 16.45 94.98 17.07Q94.66 17.69 94.66 18.52L94.66 25.74ZM110.94 30.1Q109.22 30.1 107.94 29.63Q106.65 29.15 105.9 28.34Q105.14 27.54 104.98 26.53L104.97 26.42L108.29 26.42L108.33 26.5Q108.54 26.96 109.21 27.31Q109.88 27.66 110.94 27.66Q112.27 27.66 112.96 27.03Q113.65 26.4 113.65 25.34L113.65 23.42L113.58 23.42Q113.25 24.08 112.69 24.56Q112.13 25.04 111.37 25.3Q110.61 25.57 109.7 25.57Q108.13 25.57 106.99 24.82Q105.84 24.07 105.23 22.67Q104.61 21.27 104.61 19.32L104.61 19.31Q104.61 17.3 105.24 15.88Q105.87 14.45 107.02 13.68Q108.16 12.92 109.76 12.92Q110.65 12.92 111.39 13.21Q112.13 13.51 112.68 14.05Q113.24 14.59 113.58 15.32L113.65 15.32L113.65 13.18L117.07 13.18L117.07 25.39Q117.07 26.79 116.33 27.85Q115.58 28.91 114.21 29.5Q112.83 30.1 110.94 30.1ZM110.88 23.06Q111.73 23.06 112.35 22.61Q112.97 22.17 113.32 21.35Q113.66 20.53 113.66 19.4L113.66 19.39Q113.66 18.27 113.32 17.45Q112.97 16.64 112.34 16.2Q111.72 15.76 110.88 15.76Q110.04 15.76 109.41 16.2Q108.77 16.64 108.43 17.45Q108.09 18.25 108.09 19.39L108.09 19.4Q108.09 20.53 108.43 21.35Q108.77 22.17 109.41 22.61Q110.04 23.06 110.88 23.06ZM124.35 25.74L124.35 8.83L127.89 8.83L127.89 25.74ZM130.41 25.74L130.41 13.18L133.83 13.18L133.83 15.24L133.9 15.24Q134.39 14.16 135.35 13.54Q136.31 12.92 137.73 12.92Q139.81 12.92 140.94 14.17Q142.07 15.42 142.07 17.63L142.07 25.74L138.65 25.74L138.65 18.34Q138.65 17.11 138.07 16.43Q137.49 15.76 136.34 15.76Q135.57 15.76 135.01 16.1Q134.45 16.45 134.14 17.07Q133.83 17.69 133.83 18.52L133.83 25.74ZM145.15 25.74L145.15 15.76L143.44 15.76L143.44 13.18L145.15 13.18L145.15 12.17Q145.15 10.94 145.57 10.14Q145.98 9.35 146.89 8.96Q147.8 8.57 149.29 8.57Q149.75 8.57 150.24 8.62Q150.72 8.66 151.01 8.71L151.01 10.98Q150.83 10.94 150.6 10.93Q150.36 10.92 150.13 10.92Q149.29 10.92 148.89 11.27Q148.49 11.62 148.49 12.3L148.49 13.18L150.99 13.18L150.99 15.76L148.57 15.76L148.57 25.74ZM157.66 26Q155.75 26 154.36 25.21Q152.97 24.43 152.2 22.96Q151.44 21.5 151.44 19.46L151.44 19.44Q151.44 17.41 152.22 15.95Q152.99 14.49 154.38 13.71Q155.78 12.92 157.65 12.92Q159.54 12.92 160.94 13.7Q162.34 14.48 163.11 15.94Q163.89 17.4 163.89 19.44L163.89 19.46Q163.89 21.51 163.12 22.98Q162.35 24.44 160.96 25.22Q159.56 26 157.66 26ZM157.68 23.32Q158.51 23.32 159.12 22.87Q159.74 22.41 160.07 21.55Q160.41 20.69 160.41 19.46L160.41 19.44Q160.41 18.22 160.07 17.36Q159.73 16.51 159.11 16.06Q158.49 15.61 157.65 15.61Q156.83 15.61 156.22 16.06Q155.6 16.51 155.26 17.36Q154.92 18.22 154.92 19.44L154.92 19.46Q154.92 20.69 155.26 21.55Q155.59 22.41 156.21 22.87Q156.83 23.32 157.68 23.32ZM165.65 25.74L165.65 13.18L169.07 13.18L169.07 15.37L169.14 15.37Q169.42 14.21 170.16 13.57Q170.9 12.92 172 12.92Q172.28 12.92 172.54 12.96Q172.79 12.99 172.98 13.05L172.98 16.06Q172.77 15.98 172.44 15.93Q172.11 15.88 171.74 15.88Q170.9 15.88 170.3 16.2Q169.7 16.53 169.38 17.16Q169.07 17.8 169.07 18.71L169.07 25.74ZM174.38 25.74L174.38 13.18L177.8 13.18L177.8 15.29L177.87 15.29Q178.25 14.21 179.19 13.57Q180.12 12.92 181.38 12.92Q182.26 12.92 182.97 13.23Q183.67 13.53 184.16 14.11Q184.64 14.68 184.84 15.51L184.91 15.51Q185.19 14.71 185.76 14.13Q186.33 13.55 187.11 13.24Q187.89 12.92 188.81 12.92Q190.04 12.92 190.97 13.45Q191.9 13.98 192.41 14.93Q192.93 15.88 192.93 17.15L192.93 25.74L189.5 25.74L189.5 18.01Q189.5 17.28 189.26 16.78Q189.02 16.27 188.57 16.02Q188.12 15.76 187.45 15.76Q186.81 15.76 186.32 16.05Q185.84 16.34 185.57 16.87Q185.3 17.4 185.3 18.1L185.3 25.74L182 25.74L182 17.9Q182 17.22 181.76 16.74Q181.51 16.26 181.06 16.01Q180.61 15.76 179.98 15.76Q179.33 15.76 178.84 16.06Q178.35 16.37 178.07 16.91Q177.8 17.45 177.8 18.16L177.8 25.74ZM198.83 25.94Q197.58 25.94 196.63 25.46Q195.68 24.97 195.15 24.11Q194.61 23.25 194.61 22.14L194.61 22.12Q194.61 20.97 195.19 20.16Q195.76 19.34 196.85 18.88Q197.94 18.41 199.5 18.3L204.4 18L204.4 20.13L200.02 20.41Q199.03 20.47 198.52 20.87Q198 21.28 198 21.95L198 21.97Q198 22.66 198.53 23.05Q199.06 23.45 199.95 23.45Q200.71 23.45 201.31 23.15Q201.91 22.85 202.26 22.33Q202.61 21.8 202.61 21.15L202.61 17.34Q202.61 16.51 202.08 16.02Q201.55 15.54 200.54 15.54Q199.58 15.54 199.02 15.93Q198.46 16.33 198.33 16.94L198.31 17.05L195.18 17.05L195.19 16.91Q195.28 15.75 195.96 14.84Q196.63 13.94 197.83 13.43Q199.03 12.92 200.68 12.92Q202.31 12.92 203.51 13.44Q204.7 13.96 205.37 14.91Q206.03 15.86 206.03 17.13L206.03 25.74L202.61 25.74L202.61 23.87L202.54 23.87Q202.18 24.51 201.63 24.97Q201.07 25.44 200.37 25.69Q199.66 25.94 198.83 25.94ZM213.22 26Q211.14 26 210.13 25.12Q209.12 24.24 209.12 22.23L209.12 15.76L207.38 15.76L207.38 13.18L209.12 13.18L209.12 10.11L212.58 10.11L212.58 13.18L214.88 13.18L214.88 15.76L212.58 15.76L212.58 21.85Q212.58 22.73 212.97 23.08Q213.36 23.42 214.14 23.42Q214.37 23.42 214.55 23.4Q214.72 23.39 214.88 23.36L214.88 25.87Q214.59 25.92 214.18 25.96Q213.76 26 213.22 26ZM216.83 25.74L216.83 13.18L220.25 13.18L220.25 25.74ZM218.54 11.56Q217.77 11.56 217.24 11.04Q216.72 10.51 216.72 9.78Q216.72 9.04 217.24 8.52Q217.77 8 218.54 8Q219.32 8 219.84 8.52Q220.37 9.04 220.37 9.78Q220.37 10.51 219.84 11.04Q219.32 11.56 218.54 11.56ZM228.31 26Q226.4 26 225 25.21Q223.61 24.43 222.84 22.96Q222.08 21.5 222.08 19.46L222.08 19.44Q222.08 17.41 222.86 15.95Q223.63 14.49 225.02 13.71Q226.42 12.92 228.29 12.92Q230.18 12.92 231.58 13.7Q232.98 14.48 233.75 15.94Q234.53 17.4 234.53 19.44L234.53 19.46Q234.53 21.51 233.76 22.98Q232.99 24.44 231.6 25.22Q230.2 26 228.31 26ZM228.32 23.32Q229.15 23.32 229.76 22.87Q230.38 22.41 230.71 21.55Q231.05 20.69 231.05 19.46L231.05 19.44Q231.05 18.22 230.71 17.36Q230.37 16.51 229.75 16.06Q229.13 15.61 228.29 15.61Q227.47 15.61 226.86 16.06Q226.24 16.51 225.9 17.36Q225.56 18.22 225.56 19.44L225.56 19.46Q225.56 20.69 225.9 21.55Q226.23 22.41 226.85 22.87Q227.47 23.32 228.32 23.32ZM236.29 25.74L236.29 13.18L239.71 13.18L239.71 15.24L239.78 15.24Q240.27 14.16 241.23 13.54Q242.19 12.92 243.61 12.92Q245.68 12.92 246.82 14.17Q247.95 15.42 247.95 17.63L247.95 25.74L244.52 25.74L244.52 18.34Q244.52 17.11 243.94 16.43Q243.36 15.76 242.22 15.76Q241.45 15.76 240.89 16.1Q240.33 16.45 240.02 17.07Q239.71 17.69 239.71 18.52L239.71 25.74Z"></path>
  </g>
</svg>
