<svg width="118" height="30" viewBox="0 0 614 156" xmlns="http://www.w3.org/2000/svg" role="img" aria-label="Permit: Valid">
  <rect x="3" y="3" width="608" height="150" rx="75" ry="75" fill="rgb(0,96,69)" stroke="rgb(0,188,125)" stroke-width="6"/>
  <g transform="translate(40,40) scale(4.75)" fill="rgb(208,250,229)">
    <path fill-rule="evenodd" d="M8 15A7 7 0 1 0 8 1a7 7 0 0 0 0 14Zm3.844-8.791a.75.75 0 0 0-1.188-.918l-3.7 4.79-1.649-1.833a.75.75 0 1 0-1.114 1.004l2.25 2.5a.75.75 0 0 0 1.15-.043l4.25-5.5Z" clip-rule="evenodd"/>
  </g>
  <g transform="translate(138 105.35)" fill="rgb(208,250,229)">
    <path d="M7.70 0.00Q6.96 0.00 6.47 -0.48Q5.99 -0.96 5.99 -1.78L5.99 -50.02Q5.99 -50.84 6.47 -51.32Q6.96 -51.80 7.70 -51.80L27.23 -51.80Q32.93 -51.80 37.15 -49.99Q41.37 -48.17 43.70 -44.55Q46.03 -40.92 46.03 -35.52Q46.03 -30.12 43.70 -26.57Q41.37 -23.01 37.15 -21.24Q32.93 -19.46 27.23 -19.46L15.61 -19.46L15.61 -1.78Q15.61 -0.96 15.10 -0.48Q14.58 0.00 13.76 0.00ZM15.47 -27.01L26.86 -27.01Q31.52 -27.01 33.97 -29.19Q36.41 -31.38 36.41 -35.59Q36.41 -39.52 34.08 -41.85Q31.75 -44.18 26.86 -44.18L15.47 -44.18ZM69.21 0.74Q61.14 0.74 56.40 -4.00Q51.67 -8.73 51.30 -17.24Q51.22 -18.06 51.22 -19.31Q51.22 -20.57 51.30 -21.31Q51.59 -26.86 53.81 -30.86Q56.03 -34.85 59.92 -37.04Q63.80 -39.22 69.13 -39.22Q75.05 -39.22 79.01 -36.78Q82.97 -34.34 85.04 -29.93Q87.11 -25.53 87.11 -19.76L87.11 -18.28Q87.11 -17.54 86.60 -17.02Q86.08 -16.50 85.34 -16.50L60.40 -16.50Q60.40 -16.50 60.40 -16.28Q60.40 -16.06 60.40 -15.91Q60.55 -13.25 61.55 -10.91Q62.55 -8.58 64.51 -7.18Q66.47 -5.77 69.13 -5.77Q71.35 -5.77 72.87 -6.44Q74.39 -7.10 75.31 -7.99Q76.24 -8.88 76.61 -9.40Q77.27 -10.21 77.68 -10.40Q78.09 -10.58 78.90 -10.58L84.45 -10.58Q85.19 -10.58 85.67 -10.17Q86.15 -9.77 86.08 -9.10Q86.00 -7.92 84.86 -6.25Q83.71 -4.59 81.60 -2.96Q79.49 -1.33 76.35 -0.30Q73.20 0.74 69.21 0.74ZM60.40 -22.42L77.94 -22.42L77.94 -22.64Q77.94 -25.60 76.90 -27.93Q75.87 -30.27 73.91 -31.56Q71.94 -32.86 69.13 -32.86Q66.39 -32.86 64.43 -31.56Q62.47 -30.27 61.44 -27.93Q60.40 -25.60 60.40 -22.64ZM97.05 0.00Q96.31 0.00 95.83 -0.48Q95.35 -0.96 95.35 -1.78L95.35 -36.70Q95.35 -37.44 95.83 -37.96Q96.31 -38.48 97.05 -38.48L102.30 -38.48Q103.04 -38.48 103.56 -37.96Q104.08 -37.44 104.08 -36.70L104.08 -33.52Q105.78 -35.96 108.41 -37.22Q111.03 -38.48 114.66 -38.48L117.69 -38.48Q118.43 -38.48 118.91 -38.00Q119.40 -37.52 119.40 -36.70L119.40 -32.12Q119.40 -31.38 118.91 -30.86Q118.43 -30.34 117.69 -30.34L112.29 -30.34Q108.59 -30.34 106.52 -28.27Q104.45 -26.20 104.45 -22.50L104.45 -1.78Q104.45 -0.96 103.93 -0.48Q103.41 0.00 102.67 0.00ZM127.09 0.00Q126.35 0.00 125.86 -0.48Q125.38 -0.96 125.38 -1.78L125.38 -36.70Q125.38 -37.52 125.86 -38.00Q126.35 -38.48 127.09 -38.48L132.12 -38.48Q132.86 -38.48 133.38 -38.00Q133.89 -37.52 133.89 -36.70L133.89 -34.19Q135.52 -36.33 138.11 -37.74Q140.70 -39.15 144.33 -39.22Q152.76 -39.29 156.17 -32.56Q157.87 -35.52 161.09 -37.37Q164.31 -39.22 168.30 -39.22Q172.15 -39.22 175.26 -37.44Q178.37 -35.67 180.22 -32.08Q182.07 -28.49 182.07 -23.01L182.07 -1.78Q182.07 -0.96 181.55 -0.48Q181.03 0.00 180.29 0.00L175.04 0.00Q174.22 0.00 173.74 -0.48Q173.26 -0.96 173.26 -1.78L173.26 -22.42Q173.26 -26.05 172.23 -28.08Q171.19 -30.12 169.45 -31.01Q167.71 -31.89 165.64 -31.89Q163.86 -31.89 162.12 -31.01Q160.39 -30.12 159.28 -28.08Q158.17 -26.05 158.17 -22.42L158.17 -1.78Q158.17 -0.96 157.65 -0.48Q157.13 0.00 156.39 0.00L151.14 0.00Q150.40 0.00 149.88 -0.48Q149.36 -0.96 149.36 -1.78L149.36 -22.42Q149.36 -26.05 148.29 -28.08Q147.21 -30.12 145.47 -31.01Q143.74 -31.89 141.74 -31.89Q139.96 -31.89 138.22 -31.01Q136.48 -30.12 135.37 -28.08Q134.26 -26.05 134.26 -22.42L134.26 -1.78Q134.26 -0.96 133.75 -0.48Q133.23 0.00 132.49 0.00ZM193.57 0.00Q192.83 0.00 192.35 -0.48Q191.87 -0.96 191.87 -1.78L191.87 -36.70Q191.87 -37.52 192.35 -38.00Q192.83 -38.48 193.57 -38.48L198.97 -38.48Q199.71 -38.48 200.19 -38.00Q200.67 -37.52 200.67 -36.70L200.67 -1.78Q200.67 -0.96 200.19 -0.48Q199.71 0.00 198.97 0.00ZM193.20 -45.07Q192.46 -45.07 191.94 -45.58Q191.42 -46.10 191.42 -46.84L191.42 -51.73Q191.42 -52.54 191.94 -53.06Q192.46 -53.58 193.20 -53.58L199.34 -53.58Q200.08 -53.58 200.60 -53.06Q201.12 -52.54 201.12 -51.73L201.12 -46.84Q201.12 -46.10 200.60 -45.58Q200.08 -45.07 199.34 -45.07ZM227.54 0.00Q223.17 0.00 220.29 -1.55Q217.40 -3.11 216.00 -6.14Q214.59 -9.18 214.59 -13.54L214.59 -31.23L208.82 -31.23Q208.00 -31.23 207.52 -31.75Q207.04 -32.26 207.04 -33.00L207.04 -36.70Q207.04 -37.52 207.52 -38.00Q208.00 -38.48 208.82 -38.48L214.59 -38.48L214.59 -50.76Q214.59 -51.58 215.07 -52.06Q215.55 -52.54 216.37 -52.54L221.62 -52.54Q222.36 -52.54 222.84 -52.06Q223.32 -51.58 223.32 -50.76L223.32 -38.48L232.57 -38.48Q233.31 -38.48 233.83 -38.00Q234.35 -37.52 234.35 -36.70L234.35 -33.00Q234.35 -32.26 233.83 -31.75Q233.31 -31.23 232.57 -31.23L223.32 -31.23L223.32 -14.28Q223.32 -11.10 224.43 -9.29Q225.54 -7.47 228.35 -7.47L233.24 -7.47Q234.05 -7.47 234.53 -6.99Q235.01 -6.51 235.01 -5.77L235.01 -1.78Q235.01 -0.96 234.53 -0.48Q234.05 0.00 233.24 0.00ZM243.30 -25.90Q242.48 -25.90 242.00 -26.38Q241.52 -26.86 241.52 -27.68L241.52 -34.11Q241.52 -34.93 242.00 -35.45Q242.48 -35.96 243.30 -35.96L249.96 -35.96Q250.77 -35.96 251.29 -35.45Q251.81 -34.93 251.81 -34.11L251.81 -27.68Q251.81 -26.86 251.29 -26.38Q250.77 -25.90 249.96 -25.90ZM243.30 0.00Q242.48 0.00 242.00 -0.48Q241.52 -0.96 241.52 -1.78L241.52 -8.21Q241.52 -9.03 242.00 -9.55Q242.48 -10.06 243.30 -10.06L249.96 -10.06Q250.77 -10.06 251.29 -9.55Q251.81 -9.03 251.81 -8.21L251.81 -1.78Q251.81 -0.96 251.29 -0.48Q250.77 0.00 249.96 0.00ZM292.96 0.00Q291.85 0.00 291.14 -0.55Q290.44 -1.11 290.14 -2.00L274.09 -49.58Q274.01 -49.95 274.01 -50.25Q274.01 -50.91 274.46 -51.36Q274.90 -51.80 275.49 -51.80L281.19 -51.80Q282.23 -51.80 282.78 -51.24Q283.34 -50.69 283.41 -50.25L296.51 -11.03L309.61 -50.25Q309.75 -50.69 310.27 -51.24Q310.79 -51.80 311.83 -51.80L317.52 -51.80Q318.12 -51.80 318.56 -51.36Q319.00 -50.91 319.00 -50.25Q319.00 -49.95 318.93 -49.58L302.87 -2.00Q302.58 -1.11 301.91 -0.55Q301.24 0.00 300.06 0.00ZM333.28 0.74Q329.51 0.74 326.40 -0.78Q323.29 -2.29 321.44 -4.81Q319.59 -7.33 319.59 -10.51Q319.59 -15.69 323.81 -18.72Q328.03 -21.76 334.84 -22.79L345.20 -24.27L345.20 -26.05Q345.20 -29.30 343.50 -31.08Q341.79 -32.86 337.80 -32.86Q334.91 -32.86 333.14 -31.71Q331.36 -30.56 330.55 -28.71Q330.03 -27.68 328.92 -27.68L323.81 -27.68Q323.00 -27.68 322.59 -28.16Q322.18 -28.64 322.18 -29.30Q322.18 -30.49 323.11 -32.15Q324.03 -33.82 325.88 -35.45Q327.73 -37.07 330.69 -38.15Q333.65 -39.22 337.87 -39.22Q342.46 -39.22 345.61 -38.07Q348.75 -36.93 350.64 -35.00Q352.52 -33.08 353.38 -30.52Q354.23 -27.97 354.23 -25.23L354.23 -1.78Q354.23 -0.96 353.75 -0.48Q353.26 0.00 352.45 0.00L347.20 0.00Q346.46 0.00 345.98 -0.48Q345.49 -0.96 345.49 -1.78L345.49 -4.74Q344.53 -3.40 342.90 -2.15Q341.28 -0.89 338.91 -0.07Q336.54 0.74 333.28 0.74ZM335.50 -5.85Q338.24 -5.85 340.46 -6.99Q342.68 -8.14 343.98 -10.62Q345.27 -13.10 345.27 -16.87L345.27 -18.50L337.50 -17.32Q332.84 -16.65 330.55 -15.06Q328.25 -13.47 328.25 -11.17Q328.25 -9.40 329.29 -8.21Q330.32 -7.03 331.99 -6.44Q333.65 -5.85 335.50 -5.85ZM365.87 0.00Q365.13 0.00 364.61 -0.48Q364.09 -0.96 364.09 -1.78L364.09 -50.76Q364.09 -51.58 364.61 -52.06Q365.13 -52.54 365.87 -52.54L371.19 -52.54Q372.01 -52.54 372.49 -52.06Q372.97 -51.58 372.97 -50.76L372.97 -1.78Q372.97 -0.96 372.49 -0.48Q372.01 0.00 371.19 0.00ZM384.91 0.00Q384.17 0.00 383.69 -0.48Q383.21 -0.96 383.21 -1.78L383.21 -36.70Q383.21 -37.52 383.69 -38.00Q384.17 -38.48 384.91 -38.48L390.31 -38.48Q391.05 -38.48 391.54 -38.00Q392.02 -37.52 392.02 -36.70L392.02 -1.78Q392.02 -0.96 391.54 -0.48Q391.05 0.00 390.31 0.00ZM384.54 -45.07Q383.80 -45.07 383.28 -45.58Q382.77 -46.10 382.77 -46.84L382.77 -51.73Q382.77 -52.54 383.28 -53.06Q383.80 -53.58 384.54 -53.58L390.68 -53.58Q391.42 -53.58 391.94 -53.06Q392.46 -52.54 392.46 -51.73L392.46 -46.84Q392.46 -46.10 391.94 -45.58Q391.42 -45.07 390.68 -45.07ZM416.37 0.74Q412.52 0.74 409.60 -0.59Q406.67 -1.92 404.71 -4.33Q402.75 -6.73 401.79 -9.95Q400.83 -13.17 400.60 -16.87Q400.53 -18.20 400.53 -19.28Q400.53 -20.35 400.60 -21.61Q400.75 -25.23 401.75 -28.45Q402.75 -31.67 404.67 -34.08Q406.60 -36.48 409.56 -37.85Q412.52 -39.22 416.37 -39.22Q420.51 -39.22 423.32 -37.78Q426.13 -36.33 427.98 -34.19L427.98 -50.76Q427.98 -51.58 428.47 -52.06Q428.95 -52.54 429.69 -52.54L435.16 -52.54Q435.98 -52.54 436.46 -52.06Q436.94 -51.58 436.94 -50.76L436.94 -1.78Q436.94 -0.96 436.46 -0.48Q435.98 0.00 435.16 0.00L430.06 0.00Q429.32 0.00 428.84 -0.48Q428.35 -0.96 428.35 -1.78L428.35 -4.66Q426.50 -2.29 423.62 -0.78Q420.73 0.74 416.37 0.74ZM418.81 -6.59Q422.06 -6.59 424.03 -8.10Q425.99 -9.62 426.95 -11.91Q427.91 -14.21 427.98 -16.65Q428.06 -17.98 428.06 -19.50Q428.06 -21.02 427.98 -22.35Q427.91 -24.64 426.91 -26.82Q425.91 -29.01 423.91 -30.45Q421.92 -31.89 418.81 -31.89Q415.48 -31.89 413.55 -30.45Q411.63 -29.01 410.78 -26.60Q409.93 -24.20 409.78 -21.46Q409.63 -19.24 409.78 -17.02Q409.93 -14.28 410.78 -11.88Q411.63 -9.47 413.55 -8.03Q415.48 -6.59 418.81 -6.59Z"/>
  </g>
</svg>
