<svg width="261.4" height="58" viewBox="0 0 261.4 58" xmlns="http://www.w3.org/2000/svg" role="img" aria-label="Permit Status: Expired">
  <style>
    .tile  { fill: #FFFFFF; stroke: rgb(229,231,235); }
    .label { fill: #111827; }
    .pill  { fill: rgb(229,231,235); stroke: rgb(153,161,175); }
    .ink   { fill: rgb(54,65,83); }
    @media (prefers-color-scheme: dark) {
      .tile  { fill: #1E293B; stroke: rgb(71,85,105); }
      .label { fill: #FFFFFF; }
      .pill  { fill: rgb(54,65,83); stroke: rgb(153,161,175); }
      .ink   { fill: rgb(229,231,235); }
    }
  </style>
  <rect class="tile" x="0.5" y="0.5" width="260.4" height="57" rx="12" ry="12" stroke-width="1"></rect>
  <g transform="translate(14,6.5) scale(0.283784)">
    <g class="label" transform="translate(0 105.35)"><path d="M13.91 -19.02L13.91 -28.05L25.16 -28.05Q27.31 -28.05 29.08 -28.93Q30.86 -29.82 31.89 -31.52Q32.93 -33.23 32.93 -35.67Q32.93 -38.04 31.89 -39.74Q30.86 -41.44 29.08 -42.33Q27.31 -43.22 25.16 -43.22L13.91 -43.22L13.91 -52.24L26.86 -52.24Q31.82 -52.24 35.82 -50.25Q39.81 -48.25 42.14 -44.51Q44.47 -40.77 44.47 -35.67Q44.47 -30.56 42.14 -26.82Q39.81 -23.09 35.82 -21.05Q31.82 -19.02 26.86 -19.02ZM5.03 0.00L5.03 -52.24L16.65 -52.24L16.65 0.00ZM66.75 0.81Q60.90 0.81 56.35 -1.59Q51.80 -4.00 49.21 -8.29Q46.62 -12.58 46.62 -17.98Q46.62 -23.38 49.17 -27.64Q51.73 -31.89 56.09 -34.34Q60.46 -36.78 65.93 -36.78Q71.26 -36.78 75.33 -34.48Q79.40 -32.19 81.73 -28.12Q84.06 -24.05 84.06 -18.80Q84.06 -17.83 83.95 -16.76Q83.84 -15.69 83.55 -14.28L52.54 -14.21L52.54 -21.98L78.74 -22.05L73.85 -18.80Q73.78 -21.90 72.89 -23.94Q72.00 -25.97 70.26 -27.05Q68.52 -28.12 66.01 -28.12Q63.34 -28.12 61.38 -26.90Q59.42 -25.68 58.35 -23.46Q57.28 -21.24 57.28 -18.06Q57.28 -14.87 58.42 -12.62Q59.57 -10.36 61.68 -9.14Q63.79 -7.92 66.67 -7.92Q69.34 -7.92 71.48 -8.84Q73.63 -9.77 75.26 -11.62L81.47 -5.40Q78.81 -2.29 75.04 -0.74Q71.26 0.81 66.75 0.81ZM89.54 0.00L89.54 -35.96L100.86 -35.96L100.86 0.00ZM100.86 -19.76L96.13 -23.46Q97.53 -29.75 100.86 -33.23Q104.19 -36.70 110.11 -36.70Q112.70 -36.70 114.66 -35.93Q116.62 -35.15 118.10 -33.52L111.37 -25.01Q110.63 -25.83 109.52 -26.27Q108.41 -26.71 107.00 -26.71Q104.19 -26.71 102.53 -24.97Q100.86 -23.24 100.86 -19.76ZM120.84 0.00L120.84 -35.96L132.16 -35.96L132.16 0.00ZM143.86 0.00L143.86 -21.02Q143.86 -23.75 142.19 -25.27Q140.53 -26.79 138.08 -26.79Q136.38 -26.79 135.05 -26.08Q133.72 -25.38 132.94 -24.12Q132.16 -22.87 132.16 -21.02L127.80 -22.94Q127.80 -27.23 129.65 -30.30Q131.50 -33.37 134.68 -35.04Q137.86 -36.70 141.86 -36.70Q145.63 -36.70 148.63 -35.00Q151.63 -33.30 153.40 -30.27Q155.18 -27.23 155.18 -23.01L155.18 0.00ZM166.87 0.00L166.87 -21.02Q166.87 -23.75 165.20 -25.27Q163.54 -26.79 161.10 -26.79Q159.40 -26.79 158.06 -26.08Q156.73 -25.38 155.95 -24.12Q155.18 -22.87 155.18 -21.02L148.67 -21.90Q148.81 -26.49 150.85 -29.79Q152.88 -33.08 156.25 -34.89Q159.62 -36.70 163.84 -36.70Q167.98 -36.70 171.20 -34.96Q174.42 -33.23 176.30 -30.01Q178.19 -26.79 178.19 -22.27L178.19 0.00ZM185.44 0.00L185.44 -35.96L196.77 -35.96L196.77 0.00ZM191.14 -40.92Q188.48 -40.92 186.74 -42.73Q185.00 -44.55 185.00 -47.14Q185.00 -49.80 186.74 -51.58Q188.48 -53.35 191.14 -53.35Q193.81 -53.35 195.51 -51.58Q197.21 -49.80 197.21 -47.14Q197.21 -44.55 195.51 -42.73Q193.81 -40.92 191.14 -40.92ZM209.86 0.00L209.86 -50.84L221.19 -50.84L221.19 0.00ZM201.72 -26.34L201.72 -35.96L229.33 -35.96L229.33 -26.34ZM265.07 0.81Q258.63 0.81 254.00 -1.29Q249.38 -3.40 245.53 -7.70L253.08 -15.17Q255.60 -12.28 258.67 -10.69Q261.74 -9.10 265.81 -9.10Q269.51 -9.10 271.54 -10.43Q273.58 -11.77 273.58 -14.13Q273.58 -16.28 272.25 -17.61Q270.91 -18.94 268.73 -19.91Q266.55 -20.87 263.92 -21.76Q261.29 -22.64 258.70 -23.79Q256.11 -24.94 253.93 -26.68Q251.75 -28.42 250.42 -31.04Q249.08 -33.67 249.08 -37.67Q249.08 -42.48 251.41 -45.95Q253.75 -49.43 257.89 -51.24Q262.03 -53.06 267.44 -53.06Q272.91 -53.06 277.46 -51.13Q282.01 -49.21 284.97 -45.88L277.43 -38.41Q275.06 -40.85 272.65 -42.03Q270.25 -43.22 267.21 -43.22Q264.18 -43.22 262.40 -42.07Q260.63 -40.92 260.63 -38.78Q260.63 -36.78 261.96 -35.56Q263.29 -34.34 265.47 -33.45Q267.66 -32.56 270.28 -31.67Q272.91 -30.78 275.50 -29.60Q278.09 -28.42 280.27 -26.60Q282.46 -24.79 283.79 -22.02Q285.12 -19.24 285.12 -15.17Q285.12 -7.70 279.79 -3.44Q274.47 0.81 265.07 0.81ZM296.59 0.00L296.59 -50.84L307.91 -50.84L307.91 0.00ZM288.45 -26.34L288.45 -35.96L316.05 -35.96L316.05 -26.34ZM335.29 0.74Q330.34 0.74 326.45 -1.70Q322.57 -4.14 320.31 -8.36Q318.05 -12.58 318.05 -17.98Q318.05 -23.38 320.31 -27.60Q322.57 -31.82 326.45 -34.26Q330.34 -36.70 335.29 -36.70Q338.92 -36.70 341.84 -35.30Q344.77 -33.89 346.62 -31.41Q348.47 -28.93 348.69 -25.75L348.69 -10.21Q348.47 -7.03 346.65 -4.55Q344.84 -2.07 341.88 -0.67Q338.92 0.74 335.29 0.74ZM337.59 -9.47Q341.21 -9.47 343.43 -11.88Q345.65 -14.28 345.65 -17.98Q345.65 -20.50 344.65 -22.42Q343.66 -24.35 341.84 -25.42Q340.03 -26.49 337.66 -26.49Q335.29 -26.49 333.48 -25.42Q331.67 -24.35 330.59 -22.42Q329.52 -20.50 329.52 -17.98Q329.52 -15.54 330.56 -13.62Q331.59 -11.69 333.44 -10.58Q335.29 -9.47 337.59 -9.47ZM345.21 0.00L345.21 -9.69L346.91 -18.43L345.21 -27.16L345.21 -35.96L356.31 -35.96L356.31 0.00ZM369.41 0.00L369.41 -50.84L380.73 -50.84L380.73 0.00ZM361.27 -26.34L361.27 -35.96L388.87 -35.96L388.87 -26.34ZM409.81 0.81Q404.85 0.81 401.04 -1.22Q397.23 -3.26 395.09 -6.84Q392.94 -10.43 392.94 -15.10L392.94 -35.96L404.26 -35.96L404.26 -15.24Q404.26 -13.39 404.89 -12.06Q405.52 -10.73 406.78 -9.99Q408.04 -9.25 409.81 -9.25Q412.33 -9.25 413.81 -10.84Q415.29 -12.43 415.29 -15.24L415.29 -35.96L426.61 -35.96L426.61 -15.17Q426.61 -10.43 424.46 -6.84Q422.32 -3.26 418.54 -1.22Q414.77 0.81 409.81 0.81ZM446.81 0.89Q443.63 0.89 440.56 0.07Q437.49 -0.74 434.86 -2.26Q432.23 -3.77 430.38 -5.77L436.82 -12.28Q438.60 -10.36 441.04 -9.29Q443.48 -8.21 446.37 -8.21Q448.37 -8.21 449.44 -8.81Q450.51 -9.40 450.51 -10.43Q450.51 -11.77 449.22 -12.47Q447.92 -13.17 445.92 -13.73Q443.93 -14.28 441.71 -14.95Q439.49 -15.61 437.49 -16.80Q435.49 -17.98 434.23 -20.09Q432.97 -22.20 432.97 -25.46Q432.97 -28.93 434.75 -31.49Q436.53 -34.04 439.78 -35.52Q443.04 -37.00 447.40 -37.00Q451.99 -37.00 455.88 -35.41Q459.76 -33.82 462.20 -30.71L455.77 -24.20Q454.06 -26.20 451.95 -27.01Q449.85 -27.82 447.85 -27.82Q445.92 -27.82 444.96 -27.27Q444.00 -26.71 444.00 -25.68Q444.00 -24.57 445.26 -23.90Q446.52 -23.24 448.51 -22.72Q450.51 -22.20 452.73 -21.46Q454.95 -20.72 456.95 -19.46Q458.95 -18.20 460.21 -16.09Q461.46 -13.99 461.46 -10.58Q461.46 -5.33 457.50 -2.22Q453.55 0.89 446.81 0.89ZM474.34 0.81Q471.45 0.81 469.53 -1.18Q467.61 -3.18 467.61 -5.99Q467.61 -8.95 469.53 -10.91Q471.45 -12.88 474.34 -12.88Q477.30 -12.88 479.19 -10.91Q481.07 -8.95 481.07 -5.99Q481.07 -3.18 479.19 -1.18Q477.30 0.81 474.34 0.81ZM474.34 -21.09Q471.45 -21.09 469.53 -23.09Q467.61 -25.09 467.61 -27.90Q467.61 -30.86 469.53 -32.82Q471.45 -34.78 474.34 -34.78Q477.30 -34.78 479.19 -32.82Q481.07 -30.86 481.07 -27.90Q481.07 -25.09 479.19 -23.09Q477.30 -21.09 474.34 -21.09Z"></path></g>
  </g>
  <g transform="translate(160.5,14) scale(0.192308)">
    <rect class="pill" x="3" y="3" width="446" height="150" rx="75" ry="75" stroke-width="6"></rect>
    <g class="ink" transform="translate(40,40) scale(4.75)"><path fill-rule="evenodd" d="M8 15A7 7 0 1 0 8 1a7 7 0 0 0 0 14Zm2.78-4.22a.75.75 0 0 1-1.06 0L8 9.06l-1.72 1.72a.75.75 0 1 1-1.06-1.06L6.94 8 5.22 6.28a.75.75 0 0 1 1.06-1.06L8 6.94l1.72-1.72a.75.75 0 1 1 1.06 1.06L9.06 8l1.72 1.72a.75.75 0 0 1 0 1.06Z" clip-rule="evenodd"></path></g>
    <g class="ink" transform="translate(138 105.35)"><path d="M7.70 0.00Q6.96 0.00 6.47 -0.48Q5.99 -0.96 5.99 -1.78L5.99 -50.02Q5.99 -50.84 6.47 -51.32Q6.96 -51.80 7.70 -51.80L39.66 -51.80Q40.48 -51.80 41.00 -51.32Q41.51 -50.84 41.51 -50.02L41.51 -45.73Q41.51 -44.92 41.00 -44.44Q40.48 -43.96 39.66 -43.96L15.10 -43.96L15.10 -29.90L38.04 -29.90Q38.85 -29.90 39.37 -29.41Q39.89 -28.93 39.89 -28.12L39.89 -24.12Q39.89 -23.38 39.37 -22.87Q38.85 -22.35 38.04 -22.35L15.10 -22.35L15.10 -7.84L40.26 -7.84Q41.07 -7.84 41.59 -7.36Q42.11 -6.88 42.11 -6.07L42.11 -1.78Q42.11 -0.96 41.59 -0.48Q41.07 0.00 40.26 0.00ZM49.10 0.00Q48.44 0.00 47.96 -0.48Q47.47 -0.96 47.47 -1.55Q47.47 -1.85 47.59 -2.15Q47.70 -2.44 47.99 -2.89L60.65 -19.76L48.88 -35.59Q48.66 -35.96 48.55 -36.30Q48.44 -36.63 48.44 -36.93Q48.44 -37.52 48.88 -38.00Q49.32 -38.48 49.99 -38.48L55.61 -38.48Q56.50 -38.48 56.95 -38.07Q57.39 -37.67 57.61 -37.30L66.42 -25.60L75.22 -37.22Q75.52 -37.59 75.93 -38.04Q76.33 -38.48 77.22 -38.48L82.62 -38.48Q83.29 -38.48 83.73 -38.00Q84.18 -37.52 84.18 -36.93Q84.18 -36.63 84.10 -36.30Q84.03 -35.96 83.73 -35.59L71.75 -19.61L84.47 -2.89Q84.77 -2.44 84.88 -2.15Q84.99 -1.85 84.99 -1.55Q84.99 -0.96 84.51 -0.48Q84.03 0.00 83.44 0.00L77.52 0.00Q76.70 0.00 76.30 -0.41Q75.89 -0.81 75.59 -1.18L66.20 -13.47L56.72 -1.18Q56.50 -0.81 56.06 -0.41Q55.61 0.00 54.80 0.00ZM93.74 14.06Q93.00 14.06 92.48 13.58Q91.96 13.10 91.96 12.28L91.96 -36.70Q91.96 -37.52 92.48 -38.00Q93.00 -38.48 93.74 -38.48L98.84 -38.48Q99.66 -38.48 100.14 -38.00Q100.62 -37.52 100.62 -36.70L100.62 -33.67Q102.39 -36.04 105.32 -37.63Q108.24 -39.22 112.53 -39.22Q116.53 -39.22 119.41 -37.89Q122.30 -36.56 124.22 -34.23Q126.15 -31.89 127.18 -28.75Q128.22 -25.60 128.29 -21.83Q128.37 -20.57 128.37 -19.24Q128.37 -17.91 128.29 -16.65Q128.22 -13.02 127.22 -9.84Q126.22 -6.66 124.26 -4.33Q122.30 -2.00 119.41 -0.63Q116.53 0.74 112.53 0.74Q108.46 0.74 105.61 -0.74Q102.76 -2.22 100.99 -4.66L100.99 12.28Q100.99 13.10 100.51 13.58Q100.03 14.06 99.21 14.06ZM110.16 -6.59Q113.49 -6.59 115.42 -8.03Q117.34 -9.47 118.19 -11.88Q119.04 -14.28 119.19 -17.02Q119.27 -19.24 119.19 -21.46Q119.04 -24.20 118.19 -26.60Q117.34 -29.01 115.42 -30.45Q113.49 -31.89 110.16 -31.89Q106.91 -31.89 104.95 -30.38Q102.99 -28.86 102.06 -26.57Q101.14 -24.27 100.99 -21.83Q100.91 -20.57 100.91 -19.02Q100.91 -17.46 100.99 -16.13Q101.06 -13.84 102.06 -11.65Q103.06 -9.47 105.06 -8.03Q107.06 -6.59 110.16 -6.59ZM138.67 0.00Q137.93 0.00 137.45 -0.48Q136.97 -0.96 136.97 -1.78L136.97 -36.70Q136.97 -37.52 137.45 -38.00Q137.93 -38.48 138.67 -38.48L144.07 -38.48Q144.81 -38.48 145.30 -38.00Q145.78 -37.52 145.78 -36.70L145.78 -1.78Q145.78 -0.96 145.30 -0.48Q144.81 0.00 144.07 0.00ZM138.30 -45.07Q137.56 -45.07 137.04 -45.58Q136.53 -46.10 136.53 -46.84L136.53 -51.73Q136.53 -52.54 137.04 -53.06Q137.56 -53.58 138.30 -53.58L144.44 -53.58Q145.18 -53.58 145.70 -53.06Q146.22 -52.54 146.22 -51.73L146.22 -46.84Q146.22 -46.10 145.70 -45.58Q145.18 -45.07 144.44 -45.07ZM157.69 0.00Q156.95 0.00 156.47 -0.48Q155.99 -0.96 155.99 -1.78L155.99 -36.70Q155.99 -37.44 156.47 -37.96Q156.95 -38.48 157.69 -38.48L162.95 -38.48Q163.69 -38.48 164.21 -37.96Q164.72 -37.44 164.72 -36.70L164.72 -33.52Q166.43 -35.96 169.05 -37.22Q171.68 -38.48 175.31 -38.48L178.34 -38.48Q179.08 -38.48 179.56 -38.00Q180.04 -37.52 180.04 -36.70L180.04 -32.12Q180.04 -31.38 179.56 -30.86Q179.08 -30.34 178.34 -30.34L172.94 -30.34Q169.24 -30.34 167.17 -28.27Q165.09 -26.20 165.09 -22.50L165.09 -1.78Q165.09 -0.96 164.58 -0.48Q164.06 0.00 163.32 0.00ZM201.65 0.74Q193.58 0.74 188.85 -4.00Q184.11 -8.73 183.74 -17.24Q183.67 -18.06 183.67 -19.31Q183.67 -20.57 183.74 -21.31Q184.04 -26.86 186.26 -30.86Q188.48 -34.85 192.36 -37.04Q196.25 -39.22 201.58 -39.22Q207.50 -39.22 211.46 -36.78Q215.41 -34.34 217.49 -29.93Q219.56 -25.53 219.56 -19.76L219.56 -18.28Q219.56 -17.54 219.04 -17.02Q218.52 -16.50 217.78 -16.50L192.84 -16.50Q192.84 -16.50 192.84 -16.28Q192.84 -16.06 192.84 -15.91Q192.99 -13.25 193.99 -10.91Q194.99 -8.58 196.95 -7.18Q198.91 -5.77 201.58 -5.77Q203.80 -5.77 205.31 -6.44Q206.83 -7.10 207.76 -7.99Q208.68 -8.88 209.05 -9.40Q209.72 -10.21 210.12 -10.40Q210.53 -10.58 211.34 -10.58L216.89 -10.58Q217.63 -10.58 218.12 -10.17Q218.60 -9.77 218.52 -9.10Q218.45 -7.92 217.30 -6.25Q216.15 -4.59 214.05 -2.96Q211.94 -1.33 208.79 -0.30Q205.65 0.74 201.65 0.74ZM192.84 -22.42L210.38 -22.42L210.38 -22.64Q210.38 -25.60 209.35 -27.93Q208.31 -30.27 206.35 -31.56Q204.39 -32.86 201.58 -32.86Q198.84 -32.86 196.88 -31.56Q194.92 -30.27 193.88 -27.93Q192.84 -25.60 192.84 -22.64ZM241.92 0.74Q238.08 0.74 235.15 -0.59Q232.23 -1.92 230.27 -4.33Q228.31 -6.73 227.35 -9.95Q226.38 -13.17 226.16 -16.87Q226.09 -18.20 226.09 -19.28Q226.09 -20.35 226.16 -21.61Q226.31 -25.23 227.31 -28.45Q228.31 -31.67 230.23 -34.08Q232.16 -36.48 235.12 -37.85Q238.08 -39.22 241.92 -39.22Q246.07 -39.22 248.88 -37.78Q251.69 -36.33 253.54 -34.19L253.54 -50.76Q253.54 -51.58 254.02 -52.06Q254.50 -52.54 255.24 -52.54L260.72 -52.54Q261.53 -52.54 262.01 -52.06Q262.50 -51.58 262.50 -50.76L262.50 -1.78Q262.50 -0.96 262.01 -0.48Q261.53 0.00 260.72 0.00L255.61 0.00Q254.87 0.00 254.39 -0.48Q253.91 -0.96 253.91 -1.78L253.91 -4.66Q252.06 -2.29 249.18 -0.78Q246.29 0.74 241.92 0.74ZM244.37 -6.59Q247.62 -6.59 249.58 -8.10Q251.54 -9.62 252.51 -11.91Q253.47 -14.21 253.54 -16.65Q253.62 -17.98 253.62 -19.50Q253.62 -21.02 253.54 -22.35Q253.47 -24.64 252.47 -26.82Q251.47 -29.01 249.47 -30.45Q247.47 -31.89 244.37 -31.89Q241.04 -31.89 239.11 -30.45Q237.19 -29.01 236.34 -26.60Q235.49 -24.20 235.34 -21.46Q235.19 -19.24 235.34 -17.02Q235.49 -14.28 236.34 -11.88Q237.19 -9.47 239.11 -8.03Q241.04 -6.59 244.37 -6.59Z"></path></g>
  </g>
</svg>
