<svg width="259" height="65.9" viewBox="0 0 259 65.9" xmlns="http://www.w3.org/2000/svg" role="img" aria-label="Permit Status: Expired">
  <style>
    .tile  { fill: transparent; stroke: rgb(229,231,235); }
    .label { fill: #111827; }
    .pill  { fill: rgb(229,231,235); stroke: rgb(153,161,175); }
    .ink   { fill: rgb(54,65,83); }
    @media (prefers-color-scheme: dark) {
      .tile  { stroke: rgb(71,85,105); }
      .label { fill: #FFFFFF; }
      .pill  { fill: rgb(54,65,83); stroke: rgb(153,161,175); }
      .ink   { fill: rgb(229,231,235); }
    }
  </style>
  <rect class="tile" x="0.5" y="0.5" width="258" height="64.9" rx="12" ry="12" stroke-width="1"></rect>
  <g transform="translate(18,14) scale(0.242949)">
    <g class="label" transform="translate(0 105.35)"><path d="M7.40 0.00Q6.59 0.00 6.07 -0.52Q5.55 -1.04 5.55 -1.78L5.55 -49.95Q5.55 -50.76 6.07 -51.28Q6.59 -51.80 7.40 -51.80L27.45 -51.80Q33.45 -51.80 37.81 -49.95Q42.18 -48.10 44.62 -44.40Q47.06 -40.70 47.06 -35.15Q47.06 -29.60 44.62 -25.94Q42.18 -22.27 37.81 -20.50Q33.45 -18.72 27.45 -18.72L17.24 -18.72L17.24 -1.78Q17.24 -1.04 16.72 -0.52Q16.21 0.00 15.39 0.00ZM17.09 -27.60L27.08 -27.60Q31.01 -27.60 33.19 -29.53Q35.37 -31.45 35.37 -35.22Q35.37 -38.63 33.41 -40.74Q31.45 -42.85 27.08 -42.85L17.09 -42.85ZM70.37 0.74Q62.01 0.74 57.05 -4.00Q52.10 -8.73 51.80 -17.69Q51.80 -18.28 51.80 -19.31Q51.80 -20.35 51.80 -21.02Q52.10 -26.64 54.39 -30.75Q56.68 -34.85 60.75 -37.04Q64.82 -39.22 70.37 -39.22Q76.52 -39.22 80.66 -36.70Q84.80 -34.19 86.91 -29.75Q89.02 -25.31 89.02 -19.61L89.02 -17.98Q89.02 -17.24 88.47 -16.72Q87.91 -16.21 87.17 -16.21L62.83 -16.21Q62.83 -16.13 62.83 -15.95Q62.83 -15.76 62.83 -15.61Q62.90 -13.17 63.79 -11.14Q64.68 -9.10 66.34 -7.88Q68.01 -6.66 70.30 -6.66Q72.15 -6.66 73.41 -7.21Q74.67 -7.77 75.48 -8.55Q76.29 -9.32 76.66 -9.77Q77.33 -10.58 77.74 -10.77Q78.14 -10.95 79.03 -10.95L86.36 -10.95Q87.02 -10.95 87.51 -10.54Q87.99 -10.14 87.91 -9.40Q87.84 -8.21 86.73 -6.47Q85.62 -4.74 83.40 -3.07Q81.18 -1.41 77.92 -0.33Q74.67 0.74 70.37 0.74ZM62.83 -22.79L77.92 -22.79L77.92 -22.94Q77.92 -25.68 77.03 -27.71Q76.15 -29.75 74.44 -30.89Q72.74 -32.04 70.37 -32.04Q68.01 -32.04 66.30 -30.89Q64.60 -29.75 63.71 -27.71Q62.83 -25.68 62.83 -22.94ZM98.35 0.00Q97.61 0.00 97.09 -0.52Q96.57 -1.04 96.57 -1.78L96.57 -36.63Q96.57 -37.44 97.09 -37.96Q97.61 -38.48 98.35 -38.48L105.23 -38.48Q105.97 -38.48 106.49 -37.96Q107.01 -37.44 107.01 -36.63L107.01 -33.60Q108.86 -35.96 111.56 -37.22Q114.26 -38.48 117.81 -38.48L120.92 -38.48Q121.73 -38.48 122.25 -37.96Q122.77 -37.44 122.77 -36.70L122.77 -30.56Q122.77 -29.82 122.25 -29.30Q121.73 -28.79 120.92 -28.79L114.70 -28.79Q111.30 -28.79 109.45 -26.90Q107.60 -25.01 107.60 -21.68L107.60 -1.78Q107.60 -1.04 107.04 -0.52Q106.49 0.00 105.75 0.00ZM130.15 0.00Q129.41 0.00 128.89 -0.52Q128.37 -1.04 128.37 -1.78L128.37 -36.70Q128.37 -37.44 128.89 -37.96Q129.41 -38.48 130.15 -38.48L136.66 -38.48Q137.47 -38.48 137.99 -37.96Q138.51 -37.44 138.51 -36.70L138.51 -34.19Q140.06 -36.19 142.69 -37.67Q145.32 -39.15 148.94 -39.22Q157.45 -39.37 160.71 -32.71Q162.41 -35.59 165.59 -37.41Q168.77 -39.22 172.70 -39.22Q176.54 -39.22 179.65 -37.44Q182.76 -35.67 184.57 -32.08Q186.39 -28.49 186.39 -22.94L186.39 -1.78Q186.39 -1.04 185.87 -0.52Q185.35 0.00 184.61 0.00L177.65 0.00Q176.91 0.00 176.40 -0.52Q175.88 -1.04 175.88 -1.78L175.88 -22.42Q175.88 -25.46 174.95 -27.27Q174.03 -29.08 172.55 -29.86Q171.07 -30.64 169.22 -30.64Q167.66 -30.64 166.15 -29.86Q164.63 -29.08 163.67 -27.27Q162.71 -25.46 162.71 -22.42L162.71 -1.78Q162.71 -1.04 162.19 -0.52Q161.67 0.00 160.93 0.00L153.97 0.00Q153.23 0.00 152.72 -0.52Q152.20 -1.04 152.20 -1.78L152.20 -22.42Q152.20 -25.46 151.24 -27.27Q150.27 -29.08 148.79 -29.86Q147.31 -30.64 145.54 -30.64Q143.98 -30.64 142.47 -29.82Q140.95 -29.01 139.99 -27.23Q139.03 -25.46 139.03 -22.42L139.03 -1.78Q139.03 -1.04 138.51 -0.52Q137.99 0.00 137.18 0.00ZM197.25 0.00Q196.51 0.00 195.99 -0.52Q195.48 -1.04 195.48 -1.78L195.48 -36.70Q195.48 -37.44 195.99 -37.96Q196.51 -38.48 197.25 -38.48L204.28 -38.48Q205.02 -38.48 205.54 -37.96Q206.06 -37.44 206.06 -36.70L206.06 -1.78Q206.06 -1.04 205.54 -0.52Q205.02 0.00 204.28 0.00ZM197.03 -44.55Q196.22 -44.55 195.70 -45.07Q195.18 -45.58 195.18 -46.32L195.18 -52.10Q195.18 -52.91 195.70 -53.43Q196.22 -53.95 197.03 -53.95L204.50 -53.95Q205.24 -53.95 205.80 -53.43Q206.35 -52.91 206.35 -52.10L206.35 -46.32Q206.35 -45.58 205.80 -45.07Q205.24 -44.55 204.50 -44.55ZM233.66 0.00Q229.15 0.00 225.97 -1.55Q222.79 -3.11 221.20 -6.22Q219.60 -9.32 219.60 -14.06L219.60 -30.04L213.76 -30.04Q213.02 -30.04 212.50 -30.56Q211.98 -31.08 211.98 -31.82L211.98 -36.70Q211.98 -37.44 212.50 -37.96Q213.02 -38.48 213.76 -38.48L219.60 -38.48L219.60 -50.76Q219.60 -51.50 220.09 -52.02Q220.57 -52.54 221.38 -52.54L228.26 -52.54Q229.00 -52.54 229.52 -52.02Q230.04 -51.50 230.04 -50.76L230.04 -38.48L239.29 -38.48Q240.10 -38.48 240.62 -37.96Q241.14 -37.44 241.14 -36.70L241.14 -31.82Q241.14 -31.08 240.62 -30.56Q240.10 -30.04 239.29 -30.04L230.04 -30.04L230.04 -14.95Q230.04 -12.06 231.11 -10.43Q232.18 -8.81 234.70 -8.81L239.95 -8.81Q240.77 -8.81 241.29 -8.29Q241.80 -7.77 241.80 -7.03L241.80 -1.78Q241.80 -1.04 241.29 -0.52Q240.77 0.00 239.95 0.00ZM284.10 0.74Q276.99 0.74 272.26 -1.33Q267.52 -3.40 265.12 -6.73Q262.71 -10.06 262.56 -13.76Q262.56 -14.36 263.01 -14.84Q263.45 -15.32 264.12 -15.32L271.67 -15.32Q272.63 -15.32 273.15 -14.91Q273.66 -14.50 274.03 -13.91Q274.55 -12.58 275.74 -11.36Q276.92 -10.14 278.96 -9.32Q280.99 -8.51 284.10 -8.51Q289.06 -8.51 291.50 -10.14Q293.94 -11.77 293.94 -14.50Q293.94 -16.50 292.65 -17.72Q291.35 -18.94 288.50 -19.94Q285.65 -20.94 280.99 -22.05Q275.44 -23.31 271.63 -25.20Q267.82 -27.08 265.86 -30.04Q263.90 -33.00 263.90 -37.44Q263.90 -41.81 266.30 -45.21Q268.71 -48.62 273.15 -50.58Q277.59 -52.54 283.65 -52.54Q288.54 -52.54 292.31 -51.24Q296.09 -49.95 298.60 -47.80Q301.12 -45.66 302.45 -43.22Q303.78 -40.77 303.86 -38.48Q303.86 -37.89 303.45 -37.41Q303.04 -36.93 302.30 -36.93L294.46 -36.93Q293.72 -36.93 293.13 -37.22Q292.53 -37.52 292.16 -38.26Q291.79 -40.33 289.50 -41.81Q287.21 -43.29 283.65 -43.29Q279.88 -43.29 277.66 -41.92Q275.44 -40.55 275.44 -37.67Q275.44 -35.82 276.59 -34.56Q277.73 -33.30 280.32 -32.34Q282.91 -31.38 287.21 -30.27Q293.64 -28.93 297.68 -27.08Q301.71 -25.23 303.63 -22.31Q305.56 -19.39 305.56 -15.02Q305.56 -10.06 302.82 -6.55Q300.08 -3.03 295.27 -1.15Q290.46 0.74 284.10 0.74ZM330.96 0.00Q326.44 0.00 323.26 -1.55Q320.08 -3.11 318.49 -6.22Q316.90 -9.32 316.90 -14.06L316.90 -30.04L311.05 -30.04Q310.31 -30.04 309.79 -30.56Q309.27 -31.08 309.27 -31.82L309.27 -36.70Q309.27 -37.44 309.79 -37.96Q310.31 -38.48 311.05 -38.48L316.90 -38.48L316.90 -50.76Q316.90 -51.50 317.38 -52.02Q317.86 -52.54 318.67 -52.54L325.55 -52.54Q326.29 -52.54 326.81 -52.02Q327.33 -51.50 327.33 -50.76L327.33 -38.48L336.58 -38.48Q337.39 -38.48 337.91 -37.96Q338.43 -37.44 338.43 -36.70L338.43 -31.82Q338.43 -31.08 337.91 -30.56Q337.39 -30.04 336.58 -30.04L327.33 -30.04L327.33 -14.95Q327.33 -12.06 328.40 -10.43Q329.48 -8.81 331.99 -8.81L337.25 -8.81Q338.06 -8.81 338.58 -8.29Q339.10 -7.77 339.10 -7.03L339.10 -1.78Q339.10 -1.04 338.58 -0.52Q338.06 0.00 337.25 0.00ZM356.79 0.74Q352.95 0.74 349.84 -0.78Q346.73 -2.29 344.88 -4.85Q343.03 -7.40 343.03 -10.66Q343.03 -15.84 347.25 -18.91Q351.47 -21.98 358.42 -23.01L368.26 -24.49L368.26 -25.83Q368.26 -28.79 366.86 -30.41Q365.45 -32.04 361.97 -32.04Q359.46 -32.04 357.94 -31.04Q356.42 -30.04 355.61 -28.42Q355.02 -27.45 353.91 -27.45L347.25 -27.45Q346.36 -27.45 345.95 -27.93Q345.55 -28.42 345.62 -29.08Q345.62 -30.27 346.55 -32.00Q347.47 -33.74 349.43 -35.37Q351.39 -37.00 354.50 -38.11Q357.61 -39.22 362.05 -39.22Q366.71 -39.22 370.00 -38.07Q373.30 -36.93 375.29 -35.00Q377.29 -33.08 378.22 -30.41Q379.14 -27.75 379.14 -24.79L379.14 -1.78Q379.14 -1.04 378.62 -0.52Q378.11 0.00 377.37 0.00L370.48 0.00Q369.67 0.00 369.15 -0.52Q368.63 -1.04 368.63 -1.78L368.63 -4.59Q367.67 -3.18 366.08 -2.00Q364.49 -0.81 362.20 -0.04Q359.90 0.74 356.79 0.74ZM359.68 -6.73Q362.12 -6.73 364.08 -7.81Q366.04 -8.88 367.23 -11.10Q368.41 -13.32 368.41 -16.65L368.41 -17.98L361.31 -16.80Q357.24 -16.21 355.31 -14.80Q353.39 -13.39 353.39 -11.47Q353.39 -9.92 354.28 -8.88Q355.17 -7.84 356.61 -7.29Q358.05 -6.73 359.68 -6.73ZM406.06 0.00Q401.55 0.00 398.37 -1.55Q395.19 -3.11 393.60 -6.22Q392.00 -9.32 392.00 -14.06L392.00 -30.04L386.16 -30.04Q385.42 -30.04 384.90 -30.56Q384.38 -31.08 384.38 -31.82L384.38 -36.70Q384.38 -37.44 384.90 -37.96Q385.42 -38.48 386.16 -38.48L392.00 -38.48L392.00 -50.76Q392.00 -51.50 392.49 -52.02Q392.97 -52.54 393.78 -52.54L400.66 -52.54Q401.40 -52.54 401.92 -52.02Q402.44 -51.50 402.44 -50.76L402.44 -38.48L411.69 -38.48Q412.50 -38.48 413.02 -37.96Q413.54 -37.44 413.54 -36.70L413.54 -31.82Q413.54 -31.08 413.02 -30.56Q412.50 -30.04 411.69 -30.04L402.44 -30.04L402.44 -14.95Q402.44 -12.06 403.51 -10.43Q404.58 -8.81 407.10 -8.81L412.35 -8.81Q413.17 -8.81 413.69 -8.29Q414.20 -7.77 414.20 -7.03L414.20 -1.78Q414.20 -1.04 413.69 -0.52Q413.17 0.00 412.35 0.00ZM434.86 0.74Q430.42 0.74 427.13 -1.26Q423.84 -3.26 422.06 -6.99Q420.28 -10.73 420.28 -15.91L420.28 -36.70Q420.28 -37.44 420.80 -37.96Q421.32 -38.48 422.06 -38.48L429.53 -38.48Q430.27 -38.48 430.79 -37.96Q431.31 -37.44 431.31 -36.70L431.31 -16.35Q431.31 -7.84 438.86 -7.84Q442.41 -7.84 444.52 -10.10Q446.63 -12.36 446.63 -16.35L446.63 -36.70Q446.63 -37.44 447.15 -37.96Q447.66 -38.48 448.48 -38.48L455.88 -38.48Q456.62 -38.48 457.14 -37.96Q457.65 -37.44 457.65 -36.70L457.65 -1.78Q457.65 -1.04 457.14 -0.52Q456.62 0.00 455.88 0.00L449.00 0.00Q448.18 0.00 447.66 -0.52Q447.15 -1.04 447.15 -1.78L447.15 -4.81Q445.22 -2.15 442.22 -0.70Q439.23 0.74 434.86 0.74ZM482.13 0.74Q477.54 0.74 474.32 -0.30Q471.11 -1.33 469.03 -2.89Q466.96 -4.44 466.00 -6.07Q465.04 -7.70 464.96 -8.73Q464.89 -9.55 465.48 -10.06Q466.07 -10.58 466.67 -10.58L473.40 -10.58Q473.70 -10.58 473.92 -10.51Q474.14 -10.43 474.44 -10.06Q475.40 -9.40 476.40 -8.51Q477.40 -7.62 478.84 -7.03Q480.28 -6.44 482.35 -6.44Q484.94 -6.44 486.72 -7.47Q488.50 -8.51 488.50 -10.51Q488.50 -11.91 487.68 -12.80Q486.87 -13.69 484.68 -14.47Q482.50 -15.24 478.36 -16.06Q474.29 -17.02 471.51 -18.50Q468.74 -19.98 467.33 -22.24Q465.93 -24.49 465.93 -27.60Q465.93 -30.41 467.70 -33.11Q469.48 -35.82 473.03 -37.52Q476.58 -39.22 481.76 -39.22Q485.83 -39.22 488.87 -38.22Q491.90 -37.22 493.93 -35.74Q495.97 -34.26 497.04 -32.67Q498.12 -31.08 498.19 -29.90Q498.26 -29.16 497.75 -28.64Q497.23 -28.12 496.56 -28.12L490.35 -28.12Q489.98 -28.12 489.68 -28.23Q489.38 -28.34 489.16 -28.56Q488.27 -29.23 487.35 -30.04Q486.42 -30.86 485.13 -31.45Q483.83 -32.04 481.76 -32.04Q479.17 -32.04 477.84 -30.93Q476.51 -29.82 476.51 -28.12Q476.51 -26.94 477.17 -26.05Q477.84 -25.16 479.91 -24.42Q481.98 -23.68 486.28 -22.79Q491.31 -21.90 494.27 -20.16Q497.23 -18.43 498.49 -16.09Q499.74 -13.76 499.74 -11.10Q499.74 -7.70 497.71 -5.00Q495.67 -2.29 491.75 -0.78Q487.83 0.74 482.13 0.74ZM508.56 -25.90Q507.82 -25.90 507.30 -26.42Q506.78 -26.94 506.78 -27.68L506.78 -35.37Q506.78 -36.19 507.30 -36.70Q507.82 -37.22 508.56 -37.22L516.62 -37.22Q517.36 -37.22 517.92 -36.70Q518.47 -36.19 518.47 -35.37L518.47 -27.68Q518.47 -26.94 517.92 -26.42Q517.36 -25.90 516.62 -25.90ZM508.56 0.00Q507.82 0.00 507.30 -0.52Q506.78 -1.04 506.78 -1.78L506.78 -9.47Q506.78 -10.29 507.30 -10.80Q507.82 -11.32 508.56 -11.32L516.62 -11.32Q517.36 -11.32 517.92 -10.80Q518.47 -10.29 518.47 -9.47L518.47 -1.78Q518.47 -1.04 517.92 -0.52Q517.36 0.00 516.62 0.00Z"></path></g>
  </g>
  <g transform="translate(154.1,17.95) scale(0.192308)">
    <rect class="pill" x="3" y="3" width="446" height="150" rx="75" ry="75" stroke-width="6"></rect>
    <g class="ink" transform="translate(40,40) scale(4.75)"><path fill-rule="evenodd" d="M8 15A7 7 0 1 0 8 1a7 7 0 0 0 0 14Zm2.78-4.22a.75.75 0 0 1-1.06 0L8 9.06l-1.72 1.72a.75.75 0 1 1-1.06-1.06L6.94 8 5.22 6.28a.75.75 0 0 1 1.06-1.06L8 6.94l1.72-1.72a.75.75 0 1 1 1.06 1.06L9.06 8l1.72 1.72a.75.75 0 0 1 0 1.06Z" clip-rule="evenodd"></path></g>
    <g class="ink" transform="translate(138 105.35)"><path d="M7.70 0.00Q6.96 0.00 6.47 -0.48Q5.99 -0.96 5.99 -1.78L5.99 -50.02Q5.99 -50.84 6.47 -51.32Q6.96 -51.80 7.70 -51.80L39.66 -51.80Q40.48 -51.80 41.00 -51.32Q41.51 -50.84 41.51 -50.02L41.51 -45.73Q41.51 -44.92 41.00 -44.44Q40.48 -43.96 39.66 -43.96L15.10 -43.96L15.10 -29.90L38.04 -29.90Q38.85 -29.90 39.37 -29.41Q39.89 -28.93 39.89 -28.12L39.89 -24.12Q39.89 -23.38 39.37 -22.87Q38.85 -22.35 38.04 -22.35L15.10 -22.35L15.10 -7.84L40.26 -7.84Q41.07 -7.84 41.59 -7.36Q42.11 -6.88 42.11 -6.07L42.11 -1.78Q42.11 -0.96 41.59 -0.48Q41.07 0.00 40.26 0.00ZM49.10 0.00Q48.44 0.00 47.96 -0.48Q47.47 -0.96 47.47 -1.55Q47.47 -1.85 47.59 -2.15Q47.70 -2.44 47.99 -2.89L60.65 -19.76L48.88 -35.59Q48.66 -35.96 48.55 -36.30Q48.44 -36.63 48.44 -36.93Q48.44 -37.52 48.88 -38.00Q49.32 -38.48 49.99 -38.48L55.61 -38.48Q56.50 -38.48 56.95 -38.07Q57.39 -37.67 57.61 -37.30L66.42 -25.60L75.22 -37.22Q75.52 -37.59 75.93 -38.04Q76.33 -38.48 77.22 -38.48L82.62 -38.48Q83.29 -38.48 83.73 -38.00Q84.18 -37.52 84.18 -36.93Q84.18 -36.63 84.10 -36.30Q84.03 -35.96 83.73 -35.59L71.75 -19.61L84.47 -2.89Q84.77 -2.44 84.88 -2.15Q84.99 -1.85 84.99 -1.55Q84.99 -0.96 84.51 -0.48Q84.03 0.00 83.44 0.00L77.52 0.00Q76.70 0.00 76.30 -0.41Q75.89 -0.81 75.59 -1.18L66.20 -13.47L56.72 -1.18Q56.50 -0.81 56.06 -0.41Q55.61 0.00 54.80 0.00ZM93.74 14.06Q93.00 14.06 92.48 13.58Q91.96 13.10 91.96 12.28L91.96 -36.70Q91.96 -37.52 92.48 -38.00Q93.00 -38.48 93.74 -38.48L98.84 -38.48Q99.66 -38.48 100.14 -38.00Q100.62 -37.52 100.62 -36.70L100.62 -33.67Q102.39 -36.04 105.32 -37.63Q108.24 -39.22 112.53 -39.22Q116.53 -39.22 119.41 -37.89Q122.30 -36.56 124.22 -34.23Q126.15 -31.89 127.18 -28.75Q128.22 -25.60 128.29 -21.83Q128.37 -20.57 128.37 -19.24Q128.37 -17.91 128.29 -16.65Q128.22 -13.02 127.22 -9.84Q126.22 -6.66 124.26 -4.33Q122.30 -2.00 119.41 -0.63Q116.53 0.74 112.53 0.74Q108.46 0.74 105.61 -0.74Q102.76 -2.22 100.99 -4.66L100.99 12.28Q100.99 13.10 100.51 13.58Q100.03 14.06 99.21 14.06ZM110.16 -6.59Q113.49 -6.59 115.42 -8.03Q117.34 -9.47 118.19 -11.88Q119.04 -14.28 119.19 -17.02Q119.27 -19.24 119.19 -21.46Q119.04 -24.20 118.19 -26.60Q117.34 -29.01 115.42 -30.45Q113.49 -31.89 110.16 -31.89Q106.91 -31.89 104.95 -30.38Q102.99 -28.86 102.06 -26.57Q101.14 -24.27 100.99 -21.83Q100.91 -20.57 100.91 -19.02Q100.91 -17.46 100.99 -16.13Q101.06 -13.84 102.06 -11.65Q103.06 -9.47 105.06 -8.03Q107.06 -6.59 110.16 -6.59ZM138.67 0.00Q137.93 0.00 137.45 -0.48Q136.97 -0.96 136.97 -1.78L136.97 -36.70Q136.97 -37.52 137.45 -38.00Q137.93 -38.48 138.67 -38.48L144.07 -38.48Q144.81 -38.48 145.30 -38.00Q145.78 -37.52 145.78 -36.70L145.78 -1.78Q145.78 -0.96 145.30 -0.48Q144.81 0.00 144.07 0.00ZM138.30 -45.07Q137.56 -45.07 137.04 -45.58Q136.53 -46.10 136.53 -46.84L136.53 -51.73Q136.53 -52.54 137.04 -53.06Q137.56 -53.58 138.30 -53.58L144.44 -53.58Q145.18 -53.58 145.70 -53.06Q146.22 -52.54 146.22 -51.73L146.22 -46.84Q146.22 -46.10 145.70 -45.58Q145.18 -45.07 144.44 -45.07ZM157.69 0.00Q156.95 0.00 156.47 -0.48Q155.99 -0.96 155.99 -1.78L155.99 -36.70Q155.99 -37.44 156.47 -37.96Q156.95 -38.48 157.69 -38.48L162.95 -38.48Q163.69 -38.48 164.21 -37.96Q164.72 -37.44 164.72 -36.70L164.72 -33.52Q166.43 -35.96 169.05 -37.22Q171.68 -38.48 175.31 -38.48L178.34 -38.48Q179.08 -38.48 179.56 -38.00Q180.04 -37.52 180.04 -36.70L180.04 -32.12Q180.04 -31.38 179.56 -30.86Q179.08 -30.34 178.34 -30.34L172.94 -30.34Q169.24 -30.34 167.17 -28.27Q165.09 -26.20 165.09 -22.50L165.09 -1.78Q165.09 -0.96 164.58 -0.48Q164.06 0.00 163.32 0.00ZM201.65 0.74Q193.58 0.74 188.85 -4.00Q184.11 -8.73 183.74 -17.24Q183.67 -18.06 183.67 -19.31Q183.67 -20.57 183.74 -21.31Q184.04 -26.86 186.26 -30.86Q188.48 -34.85 192.36 -37.04Q196.25 -39.22 201.58 -39.22Q207.50 -39.22 211.46 -36.78Q215.41 -34.34 217.49 -29.93Q219.56 -25.53 219.56 -19.76L219.56 -18.28Q219.56 -17.54 219.04 -17.02Q218.52 -16.50 217.78 -16.50L192.84 -16.50Q192.84 -16.50 192.84 -16.28Q192.84 -16.06 192.84 -15.91Q192.99 -13.25 193.99 -10.91Q194.99 -8.58 196.95 -7.18Q198.91 -5.77 201.58 -5.77Q203.80 -5.77 205.31 -6.44Q206.83 -7.10 207.76 -7.99Q208.68 -8.88 209.05 -9.40Q209.72 -10.21 210.12 -10.40Q210.53 -10.58 211.34 -10.58L216.89 -10.58Q217.63 -10.58 218.12 -10.17Q218.60 -9.77 218.52 -9.10Q218.45 -7.92 217.30 -6.25Q216.15 -4.59 214.05 -2.96Q211.94 -1.33 208.79 -0.30Q205.65 0.74 201.65 0.74ZM192.84 -22.42L210.38 -22.42L210.38 -22.64Q210.38 -25.60 209.35 -27.93Q208.31 -30.27 206.35 -31.56Q204.39 -32.86 201.58 -32.86Q198.84 -32.86 196.88 -31.56Q194.92 -30.27 193.88 -27.93Q192.84 -25.60 192.84 -22.64ZM241.92 0.74Q238.08 0.74 235.15 -0.59Q232.23 -1.92 230.27 -4.33Q228.31 -6.73 227.35 -9.95Q226.38 -13.17 226.16 -16.87Q226.09 -18.20 226.09 -19.28Q226.09 -20.35 226.16 -21.61Q226.31 -25.23 227.31 -28.45Q228.31 -31.67 230.23 -34.08Q232.16 -36.48 235.12 -37.85Q238.08 -39.22 241.92 -39.22Q246.07 -39.22 248.88 -37.78Q251.69 -36.33 253.54 -34.19L253.54 -50.76Q253.54 -51.58 254.02 -52.06Q254.50 -52.54 255.24 -52.54L260.72 -52.54Q261.53 -52.54 262.01 -52.06Q262.50 -51.58 262.50 -50.76L262.50 -1.78Q262.50 -0.96 262.01 -0.48Q261.53 0.00 260.72 0.00L255.61 0.00Q254.87 0.00 254.39 -0.48Q253.91 -0.96 253.91 -1.78L253.91 -4.66Q252.06 -2.29 249.18 -0.78Q246.29 0.74 241.92 0.74ZM244.37 -6.59Q247.62 -6.59 249.58 -8.10Q251.54 -9.62 252.51 -11.91Q253.47 -14.21 253.54 -16.65Q253.62 -17.98 253.62 -19.50Q253.62 -21.02 253.54 -22.35Q253.47 -24.64 252.47 -26.82Q251.47 -29.01 249.47 -30.45Q247.47 -31.89 244.37 -31.89Q241.04 -31.89 239.11 -30.45Q237.19 -29.01 236.34 -26.60Q235.49 -24.20 235.34 -21.46Q235.19 -19.24 235.34 -17.02Q235.49 -14.28 236.34 -11.88Q237.19 -9.47 239.11 -8.03Q241.04 -6.59 244.37 -6.59Z"></path></g>
  </g>
</svg>
