<svg width="167" height="22" viewBox="0 0 167 22" xmlns="http://www.w3.org/2000/svg" role="img" aria-label="Permit Type(s)">
  <style>
    .ink { fill: #172032; }
    @media (prefers-color-scheme: dark) {
      .ink { fill: rgb(230,234,242); }
    }
  </style>
  <g class="ink">
    <g class="ink" transform="translate(1,-0.6) scale(1)"><path fill-rule="evenodd" d="M2.5 3A1.5 1.5 0 0 0 1 4.5v4A1.5 1.5 0 0 0 2.5 10h6A1.5 1.5 0 0 0 10 8.5v-4A1.5 1.5 0 0 0 8.5 3h-6Zm11 2A1.5 1.5 0 0 0 12 6.5v7a1.5 1.5 0 0 0 1.5 1.5h4a1.5 1.5 0 0 0 1.5-1.5v-7A1.5 1.5 0 0 0 17.5 5h-4Zm-10 7A1.5 1.5 0 0 0 2 13.5v2A1.5 1.5 0 0 0 3.5 17h6a1.5 1.5 0 0 0 1.5-1.5v-2A1.5 1.5 0 0 0 9.5 12h-6Z" clip-rule="evenodd"></path></g>
    <path d="M37.33 11.27L33.61 11.27L33.61 8.94L37.03 8.94Q37.71 8.94 38.25 8.66Q38.8 8.39 39.11 7.88Q39.43 7.36 39.43 6.63L39.43 6.63Q39.43 5.91 39.11 5.39Q38.8 4.86 38.25 4.59Q37.71 4.32 37.03 4.32L37.03 4.32L33.61 4.32L33.61 1.99L37.33 1.99Q38.74 1.99 39.86 2.55Q40.98 3.12 41.63 4.16Q42.29 5.2 42.29 6.63L42.29 6.63Q42.29 8.06 41.63 9.1Q40.98 10.14 39.86 10.7Q38.74 11.27 37.33 11.27L37.33 11.27M34.37 16.75L31.51 16.75L31.51 1.99L34.37 1.99L34.37 16.75M48.54 16.96L48.54 16.96Q46.95 16.96 45.71 16.28Q44.47 15.6 43.74 14.4Q43.02 13.2 43.02 11.67L43.02 11.67Q43.02 10.16 43.72 8.97Q44.43 7.78 45.65 7.08Q46.86 6.38 48.35 6.38L48.35 6.38Q49.82 6.38 50.95 7.04Q52.07 7.7 52.71 8.84Q53.35 9.99 53.35 11.44L53.35 11.44Q53.35 11.71 53.32 11.99Q53.29 12.28 53.21 12.63L53.21 12.63L44.68 12.66L44.68 10.6L51.92 10.58L50.81 11.44Q50.77 10.53 50.49 9.93Q50.2 9.32 49.67 8.99Q49.13 8.66 48.35 8.66L48.35 8.66Q47.54 8.66 46.93 9.03Q46.32 9.4 45.99 10.06Q45.67 10.72 45.67 11.63L45.67 11.63Q45.67 12.55 46.01 13.23Q46.36 13.92 47.01 14.28Q47.66 14.65 48.52 14.65L48.52 14.65Q49.3 14.65 49.93 14.39Q50.56 14.13 51.02 13.6L51.02 13.6L52.64 15.22Q51.9 16.08 50.84 16.52Q49.78 16.96 48.54 16.96M57.8 16.75L55.05 16.75L55.05 6.61L57.8 6.61L57.8 16.75M57.8 11.14L57.8 11.14L56.73 10.43Q56.92 8.56 57.83 7.48Q58.73 6.4 60.43 6.4L60.43 6.4Q61.16 6.4 61.75 6.64Q62.34 6.88 62.82 7.43L62.82 7.43L61.1 9.4Q60.87 9.15 60.54 9.02Q60.22 8.9 59.8 8.9L59.8 8.9Q58.92 8.9 58.36 9.45Q57.8 10.01 57.8 11.14M66.52 16.75L63.77 16.75L63.77 6.61L66.52 6.61L66.52 16.75M73.13 16.75L70.38 16.75L70.38 10.77Q70.38 9.88 69.83 9.39Q69.27 8.9 68.45 8.9L68.45 8.9Q67.91 8.9 67.46 9.12Q67.02 9.34 66.77 9.76Q66.52 10.18 66.52 10.77L66.52 10.77L65.45 10.24Q65.45 9.06 65.96 8.2Q66.48 7.34 67.36 6.87Q68.24 6.4 69.35 6.4L69.35 6.4Q70.4 6.4 71.27 6.87Q72.13 7.34 72.63 8.19Q73.13 9.04 73.13 10.24L73.13 10.24L73.13 16.75M79.75 16.75L77 16.75L77 10.77Q77 9.88 76.44 9.39Q75.88 8.9 75.07 8.9L75.07 8.9Q74.54 8.9 74.09 9.12Q73.64 9.34 73.39 9.76Q73.13 10.18 73.13 10.77L73.13 10.77L71.56 10.39Q71.64 9.17 72.21 8.28Q72.78 7.38 73.7 6.89Q74.63 6.4 75.76 6.4L75.76 6.4Q76.89 6.4 77.8 6.87Q78.7 7.34 79.22 8.22Q79.75 9.11 79.75 10.32L79.75 10.32L79.75 16.75M84.75 16.75L81.98 16.75L81.98 6.61L84.75 6.61L84.75 16.75M83.36 4.97L83.36 4.97Q82.69 4.97 82.25 4.52Q81.81 4.07 81.81 3.39L81.81 3.39Q81.81 2.74 82.25 2.28Q82.69 1.82 83.36 1.82L83.36 1.82Q84.05 1.82 84.48 2.28Q84.92 2.74 84.92 3.39L84.92 3.39Q84.92 4.07 84.48 4.52Q84.05 4.97 83.36 4.97M91.43 16.75L88.67 16.75L88.67 2.39L91.43 2.39L91.43 16.75M93.8 9.02L86.3 9.02L86.3 6.61L93.8 6.61L93.8 9.02M105.94 16.75L103.06 16.75L103.06 2.3L105.94 2.3L105.94 16.75M110.64 4.53L98.36 4.53L98.36 1.99L110.64 1.99L110.64 4.53M115.18 16.83L113.22 16.83L108.98 6.61L111.96 6.61L114.78 14.42L113.77 14.42L116.69 6.61L119.69 6.61L115.18 16.83M113.33 20.99L110.41 20.99L113.5 14.46L115.18 16.83L113.33 20.99M126.45 16.96L126.45 16.96Q125.36 16.96 124.48 16.51Q123.6 16.06 123.07 15.28Q122.55 14.5 122.51 13.5L122.51 13.5L122.51 9.9Q122.55 8.9 123.08 8.11Q123.62 7.32 124.49 6.86Q125.36 6.4 126.45 6.4L126.45 6.4Q127.86 6.4 128.97 7.09Q130.09 7.78 130.73 8.98Q131.37 10.18 131.37 11.69L131.37 11.69Q131.37 13.18 130.73 14.38Q130.09 15.57 128.97 16.27Q127.86 16.96 126.45 16.96M123.56 20.99L120.83 20.99L120.83 6.61L123.58 6.61L123.58 9.27L123.11 11.73L123.56 14.19L123.56 20.99M125.97 14.42L125.97 14.42Q126.73 14.42 127.31 14.07Q127.9 13.73 128.23 13.11Q128.55 12.49 128.55 11.67L128.55 11.67Q128.55 10.87 128.23 10.25Q127.9 9.63 127.31 9.28Q126.73 8.94 125.97 8.94L125.97 8.94Q125.24 8.94 124.65 9.28Q124.06 9.63 123.73 10.25Q123.41 10.87 123.41 11.67L123.41 11.67Q123.41 12.49 123.73 13.11Q124.06 13.73 124.64 14.07Q125.21 14.42 125.97 14.42M138.02 16.96L138.02 16.96Q136.43 16.96 135.19 16.28Q133.95 15.6 133.23 14.4Q132.5 13.2 132.5 11.67L132.5 11.67Q132.5 10.16 133.2 8.97Q133.91 7.78 135.13 7.08Q136.34 6.38 137.84 6.38L137.84 6.38Q139.31 6.38 140.43 7.04Q141.55 7.7 142.19 8.84Q142.83 9.99 142.83 11.44L142.83 11.44Q142.83 11.71 142.8 11.99Q142.77 12.28 142.69 12.63L142.69 12.63L134.16 12.66L134.16 10.6L141.41 10.58L140.29 11.44Q140.25 10.53 139.97 9.93Q139.68 9.32 139.15 8.99Q138.61 8.66 137.84 8.66L137.84 8.66Q137.02 8.66 136.41 9.03Q135.8 9.4 135.47 10.06Q135.15 10.72 135.15 11.63L135.15 11.63Q135.15 12.55 135.49 13.23Q135.84 13.92 136.49 14.28Q137.14 14.65 138 14.65L138 14.65Q138.78 14.65 139.41 14.39Q140.04 14.13 140.5 13.6L140.5 13.6L142.12 15.22Q141.38 16.08 140.32 16.52Q139.26 16.96 138.02 16.96M149.3 17.91L147.75 19.33Q146.61 18.33 145.78 16.89Q144.95 15.45 144.51 13.74Q144.07 12.02 144.07 10.18L144.07 10.18Q144.07 8.31 144.51 6.6Q144.95 4.89 145.78 3.45Q146.61 2.01 147.75 1L147.75 1L149.3 2.43Q147.94 3.73 147.19 5.7Q146.45 7.68 146.45 10.18L146.45 10.18Q146.45 12.66 147.19 14.63Q147.94 16.6 149.3 17.91L149.3 17.91M154.4 16.98L154.4 16.98Q153.54 16.98 152.71 16.75Q151.88 16.52 151.19 16.11Q150.5 15.7 149.99 15.11L149.99 15.11L151.63 13.45Q152.16 14.04 152.85 14.34Q153.54 14.63 154.38 14.63L154.38 14.63Q155.05 14.63 155.4 14.44Q155.75 14.25 155.75 13.87L155.75 13.87Q155.75 13.45 155.38 13.22Q155.01 12.99 154.42 12.83Q153.84 12.68 153.2 12.48Q152.56 12.28 151.97 11.95Q151.38 11.63 151.01 11.05Q150.64 10.47 150.64 9.55L150.64 9.55Q150.64 8.58 151.12 7.87Q151.59 7.15 152.47 6.75Q153.35 6.35 154.55 6.35L154.55 6.35Q155.81 6.35 156.83 6.8Q157.85 7.24 158.52 8.12L158.52 8.12L156.86 9.78Q156.4 9.21 155.82 8.96Q155.24 8.71 154.57 8.71L154.57 8.71Q153.96 8.71 153.64 8.9Q153.31 9.09 153.31 9.42L153.31 9.42Q153.31 9.8 153.68 10.01Q154.05 10.22 154.64 10.38Q155.22 10.53 155.86 10.73Q156.5 10.93 157.08 11.29Q157.66 11.65 158.03 12.24Q158.39 12.82 158.39 13.75L158.39 13.75Q158.39 15.24 157.32 16.11Q156.25 16.98 154.4 16.98M160.98 19.33L160.98 19.33L159.44 17.91Q160.81 16.6 161.54 14.63Q162.28 12.66 162.28 10.18L162.28 10.18Q162.28 7.68 161.54 5.7Q160.81 3.73 159.44 2.43L159.44 2.43L160.98 1Q162.13 2.01 162.95 3.45Q163.77 4.89 164.22 6.6Q164.67 8.31 164.67 10.18L164.67 10.18Q164.67 12.02 164.22 13.74Q163.77 15.45 162.95 16.89Q162.13 18.33 160.98 19.33"></path>
  </g>
</svg>
