<svg width="161" height="26" viewBox="0 0 161 26" xmlns="http://www.w3.org/2000/svg" role="img" aria-label="Permit to Work">
  <style>
    .ink { fill: #172032; }
    @media (prefers-color-scheme: dark) {
      .ink { fill: rgb(230,234,242); }
    }
  </style>
  <g class="ink">
    <path d="M3.19 20.41L3.19 17.64L7.34 17.64Q8.86 17.64 9.71 16.87Q10.56 16.09 10.56 14.64L10.56 14.62Q10.56 13.18 9.71 12.41Q8.86 11.63 7.34 11.63L3.19 11.63L3.19 8.83L8.2 8.83Q9.98 8.83 11.32 9.55Q12.66 10.27 13.4 11.57Q14.14 12.88 14.14 14.61L14.14 14.63Q14.14 16.38 13.4 17.68Q12.66 18.98 11.32 19.7Q9.98 20.41 8.2 20.41ZM1.41 25.74L1.41 8.83L4.95 8.83L4.95 25.74ZM21.25 26Q19.32 26 17.94 25.21Q16.56 24.42 15.81 22.95Q15.07 21.49 15.07 19.48L15.07 19.47Q15.07 17.47 15.81 16Q16.56 14.53 17.91 13.72Q19.27 12.92 21.11 12.92Q22.95 12.92 24.29 13.7Q25.63 14.48 26.36 15.9Q27.09 17.32 27.09 19.21L27.09 20.27L16.75 20.27L16.75 18.11L25.48 18.11L23.85 20.13L23.85 18.82Q23.85 17.71 23.51 16.97Q23.17 16.23 22.56 15.85Q21.96 15.48 21.16 15.48Q20.37 15.48 19.75 15.86Q19.14 16.25 18.79 16.99Q18.45 17.74 18.45 18.82L18.45 20.14Q18.45 21.18 18.79 21.92Q19.14 22.66 19.78 23.05Q20.43 23.45 21.32 23.45Q22.02 23.45 22.54 23.22Q23.05 23 23.38 22.66Q23.71 22.32 23.82 21.97L23.85 21.9L26.99 21.9L26.95 22.03Q26.81 22.72 26.4 23.42Q25.99 24.13 25.29 24.71Q24.6 25.3 23.6 25.65Q22.59 26 21.25 26ZM28.85 25.74L28.85 13.18L32.27 13.18L32.27 15.37L32.34 15.37Q32.63 14.21 33.36 13.57Q34.1 12.92 35.2 12.92Q35.48 12.92 35.74 12.96Q36 12.99 36.19 13.05L36.19 16.06Q35.98 15.98 35.65 15.93Q35.32 15.88 34.95 15.88Q34.1 15.88 33.5 16.2Q32.91 16.53 32.59 17.16Q32.27 17.8 32.27 18.71L32.27 25.74ZM37.58 25.74L37.58 13.18L41 13.18L41 15.29L41.07 15.29Q41.46 14.21 42.39 13.57Q43.32 12.92 44.59 12.92Q45.47 12.92 46.17 13.23Q46.88 13.53 47.36 14.11Q47.85 14.68 48.05 15.51L48.12 15.51Q48.4 14.71 48.97 14.13Q49.54 13.55 50.31 13.24Q51.09 12.92 52.02 12.92Q53.25 12.92 54.18 13.45Q55.1 13.98 55.62 14.93Q56.13 15.88 56.13 17.15L56.13 25.74L52.71 25.74L52.71 18.01Q52.71 17.28 52.47 16.78Q52.23 16.27 51.78 16.02Q51.33 15.76 50.66 15.76Q50.02 15.76 49.53 16.05Q49.04 16.34 48.77 16.87Q48.5 17.4 48.5 18.1L48.5 25.74L45.21 25.74L45.21 17.9Q45.21 17.22 44.96 16.74Q44.72 16.26 44.27 16.01Q43.82 15.76 43.18 15.76Q42.54 15.76 42.05 16.06Q41.55 16.37 41.28 16.91Q41 17.45 41 18.16L41 25.74ZM58.37 25.74L58.37 13.18L61.79 13.18L61.79 25.74ZM60.08 11.56Q59.31 11.56 58.78 11.04Q58.25 10.51 58.25 9.78Q58.25 9.04 58.78 8.52Q59.31 8 60.08 8Q60.86 8 61.38 8.52Q61.91 9.04 61.91 9.78Q61.91 10.51 61.38 11.04Q60.86 11.56 60.08 11.56ZM69.07 26Q66.98 26 65.98 25.12Q64.97 24.24 64.97 22.23L64.97 15.76L63.22 15.76L63.22 13.18L64.97 13.18L64.97 10.11L68.43 10.11L68.43 13.18L70.72 13.18L70.72 15.76L68.43 15.76L68.43 21.85Q68.43 22.73 68.82 23.08Q69.21 23.42 69.98 23.42Q70.22 23.42 70.39 23.4Q70.57 23.39 70.72 23.36L70.72 25.87Q70.44 25.92 70.03 25.96Q69.61 26 69.07 26ZM82.35 26Q80.26 26 79.25 25.12Q78.25 24.24 78.25 22.23L78.25 15.76L76.5 15.76L76.5 13.18L78.25 13.18L78.25 10.11L81.7 10.11L81.7 13.18L84 13.18L84 15.76L81.7 15.76L81.7 21.85Q81.7 22.73 82.1 23.08Q82.49 23.42 83.26 23.42Q83.5 23.42 83.67 23.4Q83.85 23.39 84 23.36L84 25.87Q83.72 25.92 83.3 25.96Q82.89 26 82.35 26ZM91.48 26Q89.57 26 88.17 25.21Q86.78 24.43 86.02 22.96Q85.25 21.5 85.25 19.46L85.25 19.44Q85.25 17.41 86.03 15.95Q86.8 14.49 88.2 13.71Q89.59 12.92 91.46 12.92Q93.35 12.92 94.75 13.7Q96.15 14.48 96.93 15.94Q97.7 17.4 97.7 19.44L97.7 19.46Q97.7 21.51 96.93 22.98Q96.16 24.44 94.77 25.22Q93.38 26 91.48 26ZM91.49 23.32Q92.32 23.32 92.94 22.87Q93.55 22.41 93.88 21.55Q94.22 20.69 94.22 19.46L94.22 19.44Q94.22 18.22 93.88 17.36Q93.54 16.51 92.92 16.06Q92.3 15.61 91.46 15.61Q90.64 15.61 90.03 16.06Q89.41 16.51 89.07 17.36Q88.73 18.22 88.73 19.44L88.73 19.46Q88.73 20.69 89.07 21.55Q89.4 22.41 90.02 22.87Q90.64 23.32 91.49 23.32ZM108.07 25.74L103.59 8.83L107.26 8.83L109.93 20.95L110 20.95L113.12 8.83L116.23 8.83L119.34 20.95L119.41 20.95L122.1 8.83L125.77 8.83L121.28 25.74L117.82 25.74L114.71 14.41L114.64 14.41L111.53 25.74ZM131.73 26Q129.82 26 128.43 25.21Q127.03 24.43 126.27 22.96Q125.51 21.5 125.51 19.46L125.51 19.44Q125.51 17.41 126.28 15.95Q127.05 14.49 128.45 13.71Q129.84 12.92 131.72 12.92Q133.61 12.92 135.01 13.7Q136.41 14.48 137.18 15.94Q137.95 17.4 137.95 19.44L137.95 19.46Q137.95 21.51 137.19 22.98Q136.42 24.44 135.02 25.22Q133.63 26 131.73 26ZM131.74 23.32Q132.57 23.32 133.19 22.87Q133.8 22.41 134.14 21.55Q134.47 20.69 134.47 19.46L134.47 19.44Q134.47 18.22 134.13 17.36Q133.79 16.51 133.17 16.06Q132.55 15.61 131.72 15.61Q130.9 15.61 130.28 16.06Q129.67 16.51 129.33 17.36Q128.99 18.22 128.99 19.44L128.99 19.46Q128.99 20.69 129.32 21.55Q129.66 22.41 130.28 22.87Q130.9 23.32 131.74 23.32ZM139.71 25.74L139.71 13.18L143.13 13.18L143.13 15.37L143.2 15.37Q143.48 14.21 144.22 13.57Q144.96 12.92 146.06 12.92Q146.34 12.92 146.6 12.96Q146.86 12.99 147.05 13.05L147.05 16.06Q146.84 15.98 146.51 15.93Q146.18 15.88 145.8 15.88Q144.96 15.88 144.36 16.2Q143.77 16.53 143.45 17.16Q143.13 17.8 143.13 18.71L143.13 25.74ZM148.56 25.74L148.56 8.83L151.98 8.83L151.98 25.74ZM156.46 25.74L152.58 20.19L154.75 17.59L160.41 25.74ZM151.56 22.04L151.56 18.21L152.05 18.21L156.29 13.18L160.17 13.18L154.37 19.78L153.61 19.78Z"></path>
  </g>
</svg>
