<svg width="167" height="36" viewBox="0 0 167 36" xmlns="http://www.w3.org/2000/svg" role="img" aria-label="Permit Type(s)">
  <style>
    .ink { fill: #172032; }
    .rule { fill: rgb(228,230,235); }
    @media (prefers-color-scheme: dark) {
      .ink { fill: rgb(230,234,242); }
      .rule { fill: rgb(66,77,96); }
    }
  </style>
  <g class="ink">
    <g class="ink" transform="translate(0,6.4) scale(1)"><path fill-rule="evenodd" d="M2.5 3A1.5 1.5 0 0 0 1 4.5v4A1.5 1.5 0 0 0 2.5 10h6A1.5 1.5 0 0 0 10 8.5v-4A1.5 1.5 0 0 0 8.5 3h-6Zm11 2A1.5 1.5 0 0 0 12 6.5v7a1.5 1.5 0 0 0 1.5 1.5h4a1.5 1.5 0 0 0 1.5-1.5v-7A1.5 1.5 0 0 0 17.5 5h-4Zm-10 7A1.5 1.5 0 0 0 2 13.5v2A1.5 1.5 0 0 0 3.5 17h6a1.5 1.5 0 0 0 1.5-1.5v-2A1.5 1.5 0 0 0 9.5 12h-6Z" clip-rule="evenodd"></path></g>
    <path d="M36.62 18.46L32.95 18.46L32.95 15.9L36.14 15.9Q36.75 15.9 37.25 15.64Q37.76 15.39 38.05 14.91Q38.35 14.43 38.35 13.73L38.35 13.73Q38.35 13.06 38.05 12.58Q37.76 12.1 37.25 11.84Q36.75 11.59 36.14 11.59L36.14 11.59L32.95 11.59L32.95 9.03L36.62 9.03Q38.03 9.03 39.16 9.6Q40.3 10.16 40.96 11.22Q41.62 12.28 41.62 13.73L41.62 13.73Q41.62 15.18 40.96 16.24Q40.3 17.3 39.16 17.88Q38.03 18.46 36.62 18.46L36.62 18.46M33.73 23.86L30.43 23.86L30.43 9.03L33.73 9.03L33.73 23.86M47.94 24.09L47.94 24.09Q46.28 24.09 44.99 23.4Q43.7 22.72 42.97 21.5Q42.23 20.29 42.23 18.75L42.23 18.75Q42.23 17.22 42.95 16.01Q43.68 14.8 44.92 14.11Q46.16 13.42 47.71 13.42L47.71 13.42Q49.22 13.42 50.38 14.07Q51.53 14.72 52.19 15.88Q52.86 17.03 52.86 18.52L52.86 18.52Q52.86 18.79 52.82 19.1Q52.79 19.4 52.71 19.8L52.71 19.8L43.91 19.82L43.91 17.62L51.34 17.6L49.96 18.52Q49.94 17.64 49.69 17.06Q49.43 16.48 48.94 16.18Q48.45 15.88 47.73 15.88L47.73 15.88Q46.98 15.88 46.42 16.22Q45.86 16.57 45.56 17.2Q45.25 17.83 45.25 18.73L45.25 18.73Q45.25 19.63 45.58 20.27Q45.91 20.92 46.5 21.26Q47.1 21.61 47.92 21.61L47.92 21.61Q48.68 21.61 49.29 21.35Q49.9 21.08 50.36 20.56L50.36 20.56L52.12 22.32Q51.37 23.2 50.29 23.65Q49.22 24.09 47.94 24.09M57.62 23.86L54.41 23.86L54.41 13.65L57.62 13.65L57.62 23.86M57.62 18.25L57.62 18.25L56.28 17.2Q56.68 15.41 57.62 14.43Q58.57 13.44 60.25 13.44L60.25 13.44Q60.98 13.44 61.54 13.66Q62.1 13.88 62.52 14.34L62.52 14.34L60.61 16.76Q60.4 16.53 60.08 16.4Q59.77 16.27 59.37 16.27L59.37 16.27Q58.57 16.27 58.1 16.77Q57.62 17.26 57.62 18.25M66.51 23.86L63.29 23.86L63.29 13.65L66.51 13.65L66.51 23.86M73.04 23.86L69.82 23.86L69.82 17.89Q69.82 17.11 69.35 16.68Q68.88 16.25 68.19 16.25L68.19 16.25Q67.7 16.25 67.33 16.45Q66.95 16.65 66.73 17.01Q66.51 17.37 66.51 17.89L66.51 17.89L65.27 17.35Q65.27 16.13 65.79 15.26Q66.32 14.38 67.22 13.91Q68.12 13.44 69.26 13.44L69.26 13.44Q70.33 13.44 71.18 13.92Q72.03 14.41 72.53 15.27Q73.04 16.13 73.04 17.32L73.04 17.32L73.04 23.86M79.57 23.86L76.36 23.86L76.36 17.89Q76.36 17.11 75.88 16.68Q75.41 16.25 74.72 16.25L74.72 16.25Q74.23 16.25 73.86 16.45Q73.48 16.65 73.26 17.01Q73.04 17.37 73.04 17.89L73.04 17.89L71.19 17.64Q71.23 16.34 71.81 15.4Q72.39 14.47 73.34 13.95Q74.3 13.44 75.49 13.44L75.49 13.44Q76.67 13.44 77.58 13.93Q78.5 14.43 79.03 15.34Q79.57 16.25 79.57 17.53L79.57 17.53L79.57 23.86M84.84 23.86L81.63 23.86L81.63 13.65L84.84 13.65L84.84 23.86M83.24 12.24L83.24 12.24Q82.49 12.24 81.99 11.73Q81.5 11.21 81.5 10.48L81.5 10.48Q81.5 9.72 81.99 9.22Q82.49 8.71 83.24 8.71L83.24 8.71Q84 8.71 84.48 9.22Q84.97 9.72 84.97 10.48L84.97 10.48Q84.97 11.21 84.48 11.73Q84 12.24 83.24 12.24M91.77 23.86L88.56 23.86L88.56 9.43L91.77 9.43L91.77 23.86M94.08 16.38L86.25 16.38L86.25 13.65L94.08 13.65L94.08 16.38M106.36 23.86L103.07 23.86L103.07 9.24L106.36 9.24L106.36 23.86M111.01 11.91L98.43 11.91L98.43 9.03L111.01 9.03L111.01 11.91M116 23.9L113.53 23.9L109.33 13.65L112.79 13.65L115.46 21.78L114.18 21.78L116.91 13.65L120.37 13.65L116 23.9M114.2 28.16L110.9 28.16L113.97 21.55L116 23.9L114.2 28.16M127.22 24.07L127.22 24.07Q126.19 24.07 125.33 23.67Q124.47 23.27 123.92 22.56Q123.37 21.86 123.29 20.96L123.29 20.96L123.29 16.65Q123.37 15.75 123.92 15.01Q124.47 14.28 125.33 13.86Q126.19 13.44 127.22 13.44L127.22 13.44Q128.67 13.44 129.79 14.13Q130.91 14.83 131.55 16.02Q132.19 17.22 132.19 18.75L132.19 18.75Q132.19 20.29 131.55 21.48Q130.91 22.68 129.79 23.37Q128.67 24.07 127.22 24.07M124.51 28.16L121.34 28.16L121.34 13.65L124.55 13.65L124.55 16.27L124.03 18.75L124.51 21.23L124.51 28.16M126.63 21.17L126.63 21.17Q127.32 21.17 127.84 20.85Q128.35 20.54 128.65 19.99Q128.94 19.45 128.94 18.75L128.94 18.75Q128.94 18.04 128.65 17.49Q128.35 16.95 127.84 16.64Q127.32 16.34 126.65 16.34L126.65 16.34Q125.98 16.34 125.46 16.64Q124.95 16.95 124.66 17.49Q124.36 18.04 124.36 18.75L124.36 18.75Q124.36 19.45 124.64 19.99Q124.93 20.54 125.45 20.85Q125.98 21.17 126.63 21.17M138.87 24.09L138.87 24.09Q137.21 24.09 135.92 23.4Q134.63 22.72 133.9 21.5Q133.16 20.29 133.16 18.75L133.16 18.75Q133.16 17.22 133.88 16.01Q134.61 14.8 135.85 14.11Q137.09 13.42 138.64 13.42L138.64 13.42Q140.15 13.42 141.31 14.07Q142.46 14.72 143.12 15.88Q143.79 17.03 143.79 18.52L143.79 18.52Q143.79 18.79 143.75 19.1Q143.72 19.4 143.64 19.8L143.64 19.8L134.84 19.82L134.84 17.62L142.27 17.6L140.89 18.52Q140.87 17.64 140.62 17.06Q140.36 16.48 139.87 16.18Q139.38 15.88 138.66 15.88L138.66 15.88Q137.91 15.88 137.35 16.22Q136.79 16.57 136.49 17.2Q136.18 17.83 136.18 18.73L136.18 18.73Q136.18 19.63 136.51 20.27Q136.84 20.92 137.43 21.26Q138.03 21.61 138.85 21.61L138.85 21.61Q139.61 21.61 140.22 21.35Q140.83 21.08 141.29 20.56L141.29 20.56L143.05 22.32Q142.3 23.2 141.22 23.65Q140.15 24.09 138.87 24.09M150.4 24.84L148.64 26.52Q147.44 25.49 146.6 24.04Q145.76 22.6 145.32 20.87Q144.88 19.15 144.88 17.26L144.88 17.26Q144.88 15.37 145.32 13.65Q145.76 11.93 146.6 10.48Q147.44 9.03 148.64 8L148.64 8L150.4 9.7Q149.06 11 148.34 12.91Q147.63 14.83 147.63 17.26L147.63 17.26Q147.63 19.68 148.34 21.6Q149.06 23.52 150.4 24.84L150.4 24.84M155.57 24.11L155.57 24.11Q154.66 24.11 153.79 23.88Q152.92 23.65 152.18 23.21Q151.43 22.78 150.91 22.22L150.91 22.22L152.73 20.37Q153.24 20.92 153.93 21.22Q154.62 21.52 155.44 21.52L155.44 21.52Q156.01 21.52 156.31 21.36Q156.62 21.19 156.62 20.89L156.62 20.89Q156.62 20.52 156.25 20.32Q155.88 20.12 155.32 19.96Q154.75 19.8 154.12 19.61Q153.49 19.42 152.92 19.09Q152.35 18.75 152 18.15Q151.64 17.56 151.64 16.63L151.64 16.63Q151.64 15.64 152.14 14.92Q152.65 14.2 153.57 13.78Q154.5 13.36 155.74 13.36L155.74 13.36Q157.04 13.36 158.14 13.81Q159.24 14.26 159.94 15.14L159.94 15.14L158.11 16.99Q157.63 16.42 157.03 16.19Q156.43 15.96 155.86 15.96L155.86 15.96Q155.32 15.96 155.04 16.12Q154.77 16.27 154.77 16.57L154.77 16.57Q154.77 16.88 155.13 17.07Q155.48 17.26 156.05 17.41Q156.62 17.56 157.25 17.77Q157.88 17.98 158.44 18.33Q159.01 18.69 159.37 19.29Q159.73 19.89 159.73 20.85L159.73 20.85Q159.73 22.34 158.6 23.23Q157.48 24.11 155.57 24.11M162.41 26.52L162.41 26.52L160.65 24.84Q161.99 23.52 162.71 21.6Q163.42 19.68 163.42 17.26L163.42 17.26Q163.42 14.83 162.71 12.91Q161.99 11 160.65 9.7L160.65 9.7L162.41 8Q163.61 9.03 164.45 10.48Q165.29 11.93 165.73 13.65Q166.17 15.37 166.17 17.26L166.17 17.26Q166.17 19.15 165.73 20.87Q165.29 22.6 164.45 24.04Q163.61 25.49 162.41 26.52"></path>
  </g>
  <rect class="rule" x="0" y="35" width="167" height="1"></rect>
</svg>
