<svg width="167" height="26" viewBox="0 0 167 26" xmlns="http://www.w3.org/2000/svg" role="img" aria-label="Permit to Work">
  <style>
    .ink { fill: #172032; }
    @media (prefers-color-scheme: dark) {
      .ink { fill: rgb(230,234,242); }
    }
  </style>
  <g class="ink">
    <path d="M8.71 19.26L4.51 19.26L4.51 16.33L8.16 16.33Q8.86 16.33 9.43 16.04Q10.01 15.75 10.34 15.2Q10.68 14.65 10.68 13.86L10.68 13.86Q10.68 13.09 10.34 12.54Q10.01 11.98 9.43 11.7Q8.86 11.41 8.16 11.41L8.16 11.41L4.51 11.41L4.51 8.48L8.71 8.48Q10.32 8.48 11.62 9.13Q12.91 9.78 13.67 10.99Q14.42 12.2 14.42 13.86L14.42 13.86Q14.42 15.51 13.67 16.72Q12.91 17.94 11.62 18.6Q10.32 19.26 8.71 19.26L8.71 19.26M5.4 25.42L1.63 25.42L1.63 8.48L5.4 8.48L5.4 25.42M21.65 25.69L21.65 25.69Q19.75 25.69 18.28 24.91Q16.8 24.13 15.96 22.74Q15.12 21.34 15.12 19.59L15.12 19.59Q15.12 17.84 15.95 16.46Q16.78 15.08 18.19 14.29Q19.61 13.5 21.38 13.5L21.38 13.5Q23.11 13.5 24.43 14.24Q25.75 14.98 26.51 16.3Q27.26 17.62 27.26 19.33L27.26 19.33Q27.26 19.64 27.23 19.99Q27.19 20.34 27.1 20.79L27.1 20.79L17.04 20.82L17.04 18.3L25.54 18.27L23.95 19.33Q23.93 18.32 23.64 17.66Q23.35 17 22.79 16.65Q22.22 16.3 21.41 16.3L21.41 16.3Q20.54 16.3 19.91 16.7Q19.27 17.1 18.92 17.82Q18.58 18.54 18.58 19.57L18.58 19.57Q18.58 20.6 18.95 21.33Q19.32 22.06 20 22.46Q20.69 22.86 21.62 22.86L21.62 22.86Q22.49 22.86 23.18 22.56Q23.88 22.26 24.41 21.66L24.41 21.66L26.42 23.67Q25.56 24.68 24.34 25.18Q23.11 25.69 21.65 25.69M32.71 25.42L29.04 25.42L29.04 13.76L32.71 13.76L32.71 25.42M32.71 19.02L32.71 19.02L31.18 17.82Q31.63 15.78 32.71 14.65Q33.79 13.52 35.71 13.52L35.71 13.52Q36.55 13.52 37.19 13.77Q37.82 14.02 38.3 14.55L38.3 14.55L36.12 17.31Q35.88 17.05 35.52 16.9Q35.16 16.76 34.7 16.76L34.7 16.76Q33.79 16.76 33.25 17.32Q32.71 17.89 32.71 19.02M42.86 25.42L39.19 25.42L39.19 13.76L42.86 13.76L42.86 25.42M50.33 25.42L46.66 25.42L46.66 18.61Q46.66 17.72 46.12 17.23Q45.58 16.74 44.78 16.74L44.78 16.74Q44.23 16.74 43.8 16.96Q43.37 17.19 43.12 17.6Q42.86 18.01 42.86 18.61L42.86 18.61L41.45 17.98Q41.45 16.59 42.05 15.6Q42.65 14.6 43.68 14.06Q44.71 13.52 46.01 13.52L46.01 13.52Q47.23 13.52 48.2 14.07Q49.18 14.62 49.75 15.61Q50.33 16.59 50.33 17.96L50.33 17.96L50.33 25.42M57.79 25.42L54.12 25.42L54.12 18.61Q54.12 17.72 53.58 17.23Q53.04 16.74 52.25 16.74L52.25 16.74Q51.7 16.74 51.26 16.96Q50.83 17.19 50.58 17.6Q50.33 18.01 50.33 18.61L50.33 18.61L48.22 18.32Q48.26 16.83 48.92 15.76Q49.58 14.7 50.68 14.11Q51.77 13.52 53.14 13.52L53.14 13.52Q54.48 13.52 55.52 14.08Q56.57 14.65 57.18 15.69Q57.79 16.74 57.79 18.2L57.79 18.2L57.79 25.42M63.82 25.42L60.14 25.42L60.14 13.76L63.82 13.76L63.82 25.42M61.99 12.15L61.99 12.15Q61.13 12.15 60.56 11.56Q60 10.98 60 10.14L60 10.14Q60 9.27 60.56 8.7Q61.13 8.12 61.99 8.12L61.99 8.12Q62.86 8.12 63.41 8.7Q63.96 9.27 63.96 10.14L63.96 10.14Q63.96 10.98 63.41 11.56Q62.86 12.15 61.99 12.15M71.74 25.42L68.06 25.42L68.06 8.94L71.74 8.94L71.74 25.42M74.38 16.88L65.42 16.88L65.42 13.76L74.38 13.76L74.38 16.88M85.87 25.42L82.2 25.42L82.2 8.94L85.87 8.94L85.87 25.42M88.51 16.88L79.56 16.88L79.56 13.76L88.51 13.76L88.51 16.88M95.5 25.69L95.5 25.69Q93.7 25.69 92.24 24.88Q90.79 24.08 89.95 22.69Q89.11 21.3 89.11 19.57L89.11 19.57Q89.11 17.84 89.95 16.47Q90.79 15.1 92.23 14.3Q93.67 13.5 95.5 13.5L95.5 13.5Q97.32 13.5 98.76 14.29Q100.2 15.08 101.04 16.46Q101.88 17.84 101.88 19.57L101.88 19.57Q101.88 21.3 101.04 22.69Q100.2 24.08 98.76 24.88Q97.32 25.69 95.5 25.69M95.5 22.35L95.5 22.35Q96.29 22.35 96.89 22Q97.49 21.66 97.81 21.02Q98.14 20.38 98.14 19.57L98.14 19.57Q98.14 18.75 97.8 18.14Q97.46 17.53 96.88 17.18Q96.29 16.83 95.5 16.83L95.5 16.83Q94.73 16.83 94.13 17.18Q93.53 17.53 93.19 18.15Q92.86 18.78 92.86 19.59L92.86 19.59Q92.86 20.38 93.19 21.02Q93.53 21.66 94.13 22Q94.73 22.35 95.5 22.35M115.78 25.42L112.82 25.42L107.38 8.48L111.12 8.48L115.1 21.51L113.64 21.51L117.53 8.48L120.48 8.48L124.37 21.51L122.93 21.51L126.89 8.48L130.61 8.48L125.16 25.42L122.21 25.42L118.3 12.39L119.69 12.39L115.78 25.42M136.42 25.69L136.42 25.69Q134.62 25.69 133.16 24.88Q131.71 24.08 130.87 22.69Q130.03 21.3 130.03 19.57L130.03 19.57Q130.03 17.84 130.87 16.47Q131.71 15.1 133.15 14.3Q134.59 13.5 136.42 13.5L136.42 13.5Q138.24 13.5 139.68 14.29Q141.12 15.08 141.96 16.46Q142.8 17.84 142.8 19.57L142.8 19.57Q142.8 21.3 141.96 22.69Q141.12 24.08 139.68 24.88Q138.24 25.69 136.42 25.69M136.42 22.35L136.42 22.35Q137.21 22.35 137.81 22Q138.41 21.66 138.73 21.02Q139.06 20.38 139.06 19.57L139.06 19.57Q139.06 18.75 138.72 18.14Q138.38 17.53 137.8 17.18Q137.21 16.83 136.42 16.83L136.42 16.83Q135.65 16.83 135.05 17.18Q134.45 17.53 134.11 18.15Q133.78 18.78 133.78 19.59L133.78 19.59Q133.78 20.38 134.11 21.02Q134.45 21.66 135.05 22Q135.65 22.35 136.42 22.35M148.3 25.42L144.62 25.42L144.62 13.76L148.3 13.76L148.3 25.42M148.3 19.02L148.3 19.02L146.76 17.82Q147.22 15.78 148.3 14.65Q149.38 13.52 151.3 13.52L151.3 13.52Q152.14 13.52 152.77 13.77Q153.41 14.02 153.89 14.55L153.89 14.55L151.7 17.31Q151.46 17.05 151.1 16.9Q150.74 16.76 150.29 16.76L150.29 16.76Q149.38 16.76 148.84 17.32Q148.3 17.89 148.3 19.02M166.63 25.42L162.31 25.42L158.23 19.38L162.29 13.76L166.39 13.76L161.5 20.07L161.62 18.56L166.63 25.42M158.52 25.42L154.85 25.42L154.85 8L158.52 8L158.52 25.42"></path>
  </g>
</svg>
