<svg width="165" height="28" viewBox="0 0 165 28" xmlns="http://www.w3.org/2000/svg" role="img" aria-label="Permit Type(s)">
  <style>
    .ink { fill: #172032; }
    @media (prefers-color-scheme: dark) {
      .ink { fill: rgb(230,234,242); }
    }
  </style>
  <g class="ink">
    <g class="ink" transform="translate(0,6.4) scale(1)"><path fill-rule="evenodd" d="M2.5 3A1.5 1.5 0 0 0 1 4.5v4A1.5 1.5 0 0 0 2.5 10h6A1.5 1.5 0 0 0 10 8.5v-4A1.5 1.5 0 0 0 8.5 3h-6Zm11 2A1.5 1.5 0 0 0 12 6.5v7a1.5 1.5 0 0 0 1.5 1.5h4a1.5 1.5 0 0 0 1.5-1.5v-7A1.5 1.5 0 0 0 17.5 5h-4Zm-10 7A1.5 1.5 0 0 0 2 13.5v2A1.5 1.5 0 0 0 3.5 17h6a1.5 1.5 0 0 0 1.5-1.5v-2A1.5 1.5 0 0 0 9.5 12h-6Z" clip-rule="evenodd"></path></g>
    <path d="M36.33 18.27L32.61 18.27L32.61 15.94L36.03 15.94Q36.71 15.94 37.25 15.67Q37.8 15.39 38.11 14.88Q38.43 14.36 38.43 13.63L38.43 13.63Q38.43 12.91 38.11 12.39Q37.8 11.86 37.25 11.59Q36.71 11.32 36.03 11.32L36.03 11.32L32.61 11.32L32.61 8.99L36.33 8.99Q37.74 8.99 38.86 9.55Q39.98 10.12 40.63 11.16Q41.29 12.2 41.29 13.63L41.29 13.63Q41.29 15.06 40.63 16.1Q39.98 17.13 38.86 17.7Q37.74 18.27 36.33 18.27L36.33 18.27M33.37 23.75L30.51 23.75L30.51 8.99L33.37 8.99L33.37 23.75M47.54 23.96L47.54 23.96Q45.95 23.96 44.71 23.28Q43.47 22.6 42.74 21.4Q42.02 20.2 42.02 18.67L42.02 18.67Q42.02 17.16 42.72 15.97Q43.43 14.78 44.65 14.08Q45.86 13.38 47.35 13.38L47.35 13.38Q48.82 13.38 49.95 14.04Q51.07 14.7 51.71 15.84Q52.35 16.99 52.35 18.44L52.35 18.44Q52.35 18.71 52.32 18.99Q52.29 19.28 52.21 19.63L52.21 19.63L43.68 19.66L43.68 17.6L50.92 17.58L49.81 18.44Q49.77 17.53 49.49 16.93Q49.2 16.32 48.67 15.99Q48.13 15.67 47.35 15.67L47.35 15.67Q46.54 15.67 45.93 16.03Q45.32 16.4 44.99 17.06Q44.67 17.72 44.67 18.63L44.67 18.63Q44.67 19.55 45.01 20.23Q45.36 20.92 46.01 21.28Q46.66 21.65 47.52 21.65L47.52 21.65Q48.3 21.65 48.93 21.39Q49.56 21.13 50.02 20.6L50.02 20.6L51.64 22.22Q50.9 23.08 49.84 23.52Q48.78 23.96 47.54 23.96M56.8 23.75L54.05 23.75L54.05 13.61L56.8 13.61L56.8 23.75M56.8 18.14L56.8 18.14L55.73 17.43Q55.92 15.56 56.83 14.48Q57.73 13.4 59.43 13.4L59.43 13.4Q60.16 13.4 60.75 13.64Q61.34 13.88 61.82 14.43L61.82 14.43L60.1 16.4Q59.87 16.15 59.54 16.02Q59.22 15.9 58.8 15.9L58.8 15.9Q57.92 15.9 57.36 16.45Q56.8 17.01 56.8 18.14M65.52 23.75L62.77 23.75L62.77 13.61L65.52 13.61L65.52 23.75M72.13 23.75L69.38 23.75L69.38 17.77Q69.38 16.88 68.83 16.39Q68.27 15.9 67.45 15.9L67.45 15.9Q66.91 15.9 66.46 16.12Q66.02 16.34 65.77 16.76Q65.52 17.18 65.52 17.77L65.52 17.77L64.45 17.24Q64.45 16.06 64.96 15.2Q65.48 14.34 66.36 13.87Q67.24 13.4 68.35 13.4L68.35 13.4Q69.4 13.4 70.27 13.87Q71.13 14.34 71.63 15.19Q72.13 16.04 72.13 17.24L72.13 17.24L72.13 23.75M78.75 23.75L76 23.75L76 17.77Q76 16.88 75.44 16.39Q74.88 15.9 74.07 15.9L74.07 15.9Q73.54 15.9 73.09 16.12Q72.64 16.34 72.39 16.76Q72.13 17.18 72.13 17.77L72.13 17.77L70.56 17.39Q70.64 16.17 71.21 15.28Q71.78 14.38 72.7 13.89Q73.63 13.4 74.76 13.4L74.76 13.4Q75.89 13.4 76.8 13.87Q77.7 14.34 78.22 15.22Q78.75 16.11 78.75 17.32L78.75 17.32L78.75 23.75M83.75 23.75L80.98 23.75L80.98 13.61L83.75 13.61L83.75 23.75M82.36 11.97L82.36 11.97Q81.69 11.97 81.25 11.52Q80.81 11.07 80.81 10.39L80.81 10.39Q80.81 9.74 81.25 9.28Q81.69 8.82 82.36 8.82L82.36 8.82Q83.05 8.82 83.48 9.28Q83.92 9.74 83.92 10.39L83.92 10.39Q83.92 11.07 83.48 11.52Q83.05 11.97 82.36 11.97M90.43 23.75L87.67 23.75L87.67 9.39L90.43 9.39L90.43 23.75M92.8 16.02L85.3 16.02L85.3 13.61L92.8 13.61L92.8 16.02M104.94 23.75L102.06 23.75L102.06 9.3L104.94 9.3L104.94 23.75M109.64 11.53L97.36 11.53L97.36 8.99L109.64 8.99L109.64 11.53M114.18 23.83L112.22 23.83L107.98 13.61L110.96 13.61L113.78 21.42L112.77 21.42L115.69 13.61L118.69 13.61L114.18 23.83M112.33 27.99L109.41 27.99L112.5 21.46L114.18 23.83L112.33 27.99M125.45 23.96L125.45 23.96Q124.36 23.96 123.48 23.51Q122.6 23.06 122.07 22.28Q121.55 21.5 121.51 20.5L121.51 20.5L121.51 16.9Q121.55 15.9 122.08 15.11Q122.62 14.32 123.49 13.86Q124.36 13.4 125.45 13.4L125.45 13.4Q126.86 13.4 127.97 14.09Q129.09 14.78 129.73 15.98Q130.37 17.18 130.37 18.69L130.37 18.69Q130.37 20.18 129.73 21.38Q129.09 22.57 127.97 23.27Q126.86 23.96 125.45 23.96M122.56 27.99L119.83 27.99L119.83 13.61L122.58 13.61L122.58 16.27L122.11 18.73L122.56 21.19L122.56 27.99M124.97 21.42L124.97 21.42Q125.73 21.42 126.31 21.07Q126.9 20.73 127.23 20.11Q127.55 19.49 127.55 18.67L127.55 18.67Q127.55 17.87 127.23 17.25Q126.9 16.63 126.31 16.28Q125.73 15.94 124.97 15.94L124.97 15.94Q124.24 15.94 123.65 16.28Q123.06 16.63 122.73 17.25Q122.41 17.87 122.41 18.67L122.41 18.67Q122.41 19.49 122.73 20.11Q123.06 20.73 123.64 21.07Q124.21 21.42 124.97 21.42M137.02 23.96L137.02 23.96Q135.43 23.96 134.19 23.28Q132.95 22.6 132.23 21.4Q131.5 20.2 131.5 18.67L131.5 18.67Q131.5 17.16 132.2 15.97Q132.91 14.78 134.13 14.08Q135.34 13.38 136.84 13.38L136.84 13.38Q138.31 13.38 139.43 14.04Q140.55 14.7 141.19 15.84Q141.83 16.99 141.83 18.44L141.83 18.44Q141.83 18.71 141.8 18.99Q141.77 19.28 141.69 19.63L141.69 19.63L133.16 19.66L133.16 17.6L140.41 17.58L139.29 18.44Q139.25 17.53 138.97 16.93Q138.68 16.32 138.15 15.99Q137.61 15.67 136.84 15.67L136.84 15.67Q136.02 15.67 135.41 16.03Q134.8 16.4 134.47 17.06Q134.15 17.72 134.15 18.63L134.15 18.63Q134.15 19.55 134.49 20.23Q134.84 20.92 135.49 21.28Q136.14 21.65 137 21.65L137 21.65Q137.78 21.65 138.41 21.39Q139.04 21.13 139.5 20.6L139.5 20.6L141.12 22.22Q140.38 23.08 139.32 23.52Q138.26 23.96 137.02 23.96M148.3 24.91L146.75 26.33Q145.61 25.33 144.78 23.89Q143.95 22.45 143.51 20.74Q143.07 19.02 143.07 17.18L143.07 17.18Q143.07 15.31 143.51 13.6Q143.95 11.89 144.78 10.45Q145.61 9.01 146.75 8L146.75 8L148.3 9.43Q146.94 10.73 146.19 12.7Q145.45 14.68 145.45 17.18L145.45 17.18Q145.45 19.66 146.19 21.63Q146.94 23.6 148.3 24.91L148.3 24.91M153.4 23.98L153.4 23.98Q152.54 23.98 151.71 23.75Q150.88 23.52 150.19 23.11Q149.5 22.7 148.99 22.11L148.99 22.11L150.63 20.45Q151.16 21.04 151.85 21.34Q152.54 21.63 153.38 21.63L153.38 21.63Q154.05 21.63 154.4 21.44Q154.75 21.25 154.75 20.87L154.75 20.87Q154.75 20.45 154.38 20.22Q154.01 19.99 153.42 19.83Q152.84 19.68 152.2 19.48Q151.56 19.28 150.97 18.95Q150.38 18.63 150.01 18.05Q149.64 17.47 149.64 16.55L149.64 16.55Q149.64 15.58 150.12 14.87Q150.59 14.15 151.47 13.75Q152.35 13.35 153.55 13.35L153.55 13.35Q154.81 13.35 155.83 13.8Q156.85 14.24 157.52 15.12L157.52 15.12L155.86 16.78Q155.4 16.21 154.82 15.96Q154.24 15.71 153.57 15.71L153.57 15.71Q152.96 15.71 152.64 15.9Q152.31 16.09 152.31 16.42L152.31 16.42Q152.31 16.8 152.68 17.01Q153.05 17.22 153.64 17.38Q154.22 17.53 154.86 17.73Q155.5 17.93 156.08 18.29Q156.66 18.65 157.03 19.24Q157.39 19.82 157.39 20.75L157.39 20.75Q157.39 22.24 156.32 23.11Q155.25 23.98 153.4 23.98M159.98 26.33L159.98 26.33L158.44 24.91Q159.81 23.6 160.54 21.63Q161.28 19.66 161.28 17.18L161.28 17.18Q161.28 14.68 160.54 12.7Q159.81 10.73 158.44 9.43L158.44 9.43L159.98 8Q161.13 9.01 161.95 10.45Q162.77 11.89 163.22 13.6Q163.67 15.31 163.67 17.18L163.67 17.18Q163.67 19.02 163.22 20.74Q162.77 22.45 161.95 23.89Q161.13 25.33 159.98 26.33"></path>
  </g>
</svg>
