<svg width="165" height="24" viewBox="0 0 165 24" xmlns="http://www.w3.org/2000/svg" role="img" aria-label="Permit Details">
  <style>
    .ink { fill: #172032; }
    @media (prefers-color-scheme: dark) {
      .ink { fill: rgb(230,234,242); }
    }
  </style>
  <g class="ink">
    <g class="ink" transform="translate(0,5.8) scale(1)"><path fill-rule="evenodd" d="M2 4.75A.75.75 0 0 1 2.75 4h14.5a.75.75 0 0 1 0 1.5H2.75A.75.75 0 0 1 2 4.75Zm0 10.5a.75.75 0 0 1 .75-.75h7.5a.75.75 0 0 1 0 1.5h-7.5a.75.75 0 0 1-.75-.75ZM2 10a.75.75 0 0 1 .75-.75h14.5a.75.75 0 0 1 0 1.5H2.75A.75.75 0 0 1 2 10Z" clip-rule="evenodd"></path></g>
    <path d="M36.33 17.7L32.61 17.7L32.61 15.37L36.03 15.37Q36.71 15.37 37.25 15.1Q37.8 14.83 38.11 14.31Q38.43 13.8 38.43 13.06L38.43 13.06Q38.43 12.35 38.11 11.82Q37.8 11.3 37.25 11.02Q36.71 10.75 36.03 10.75L36.03 10.75L32.61 10.75L32.61 8.42L36.33 8.42Q37.74 8.42 38.86 8.99Q39.98 9.55 40.63 10.59Q41.29 11.63 41.29 13.06L41.29 13.06Q41.29 14.49 40.63 15.53Q39.98 16.57 38.86 17.13Q37.74 17.7 36.33 17.7L36.33 17.7M33.37 23.18L30.51 23.18L30.51 8.42L33.37 8.42L33.37 23.18M47.54 23.39L47.54 23.39Q45.95 23.39 44.71 22.71Q43.47 22.03 42.74 20.83Q42.02 19.63 42.02 18.1L42.02 18.1Q42.02 16.59 42.72 15.4Q43.43 14.22 44.65 13.51Q45.86 12.81 47.35 12.81L47.35 12.81Q48.82 12.81 49.95 13.47Q51.07 14.13 51.71 15.28Q52.35 16.42 52.35 17.87L52.35 17.87Q52.35 18.14 52.32 18.43Q52.29 18.71 52.21 19.07L52.21 19.07L43.68 19.09L43.68 17.03L50.92 17.01L49.81 17.87Q49.77 16.97 49.49 16.36Q49.2 15.75 48.67 15.42Q48.13 15.1 47.35 15.1L47.35 15.1Q46.54 15.1 45.93 15.47Q45.32 15.83 44.99 16.49Q44.67 17.16 44.67 18.06L44.67 18.06Q44.67 18.98 45.01 19.67Q45.36 20.35 46.01 20.72Q46.66 21.08 47.52 21.08L47.52 21.08Q48.3 21.08 48.93 20.82Q49.56 20.56 50.02 20.03L50.02 20.03L51.64 21.65Q50.9 22.51 49.84 22.95Q48.78 23.39 47.54 23.39M56.8 23.18L54.05 23.18L54.05 13.04L56.8 13.04L56.8 23.18M56.8 17.58L56.8 17.58L55.73 16.86Q55.92 14.99 56.83 13.91Q57.73 12.83 59.43 12.83L59.43 12.83Q60.16 12.83 60.75 13.07Q61.34 13.31 61.82 13.86L61.82 13.86L60.1 15.83Q59.87 15.58 59.54 15.45Q59.22 15.33 58.8 15.33L58.8 15.33Q57.92 15.33 57.36 15.89Q56.8 16.44 56.8 17.58M65.52 23.18L62.77 23.18L62.77 13.04L65.52 13.04L65.52 23.18M72.13 23.18L69.38 23.18L69.38 17.2Q69.38 16.32 68.83 15.82Q68.27 15.33 67.45 15.33L67.45 15.33Q66.91 15.33 66.46 15.55Q66.02 15.77 65.77 16.19Q65.52 16.61 65.52 17.2L65.52 17.2L64.45 16.67Q64.45 15.5 64.96 14.64Q65.48 13.77 66.36 13.3Q67.24 12.83 68.35 12.83L68.35 12.83Q69.4 12.83 70.27 13.3Q71.13 13.77 71.63 14.63Q72.13 15.48 72.13 16.67L72.13 16.67L72.13 23.18M78.75 23.18L76 23.18L76 17.2Q76 16.32 75.44 15.82Q74.88 15.33 74.07 15.33L74.07 15.33Q73.54 15.33 73.09 15.55Q72.64 15.77 72.39 16.19Q72.13 16.61 72.13 17.2L72.13 17.2L70.56 16.82Q70.64 15.6 71.21 14.71Q71.78 13.82 72.7 13.32Q73.63 12.83 74.76 12.83L74.76 12.83Q75.89 12.83 76.8 13.3Q77.7 13.77 78.22 14.66Q78.75 15.54 78.75 16.76L78.75 16.76L78.75 23.18M83.75 23.18L80.98 23.18L80.98 13.04L83.75 13.04L83.75 23.18M82.36 11.4L82.36 11.4Q81.69 11.4 81.25 10.95Q80.81 10.5 80.81 9.83L80.81 9.83Q80.81 9.18 81.25 8.71Q81.69 8.25 82.36 8.25L82.36 8.25Q83.05 8.25 83.48 8.71Q83.92 9.18 83.92 9.83L83.92 9.83Q83.92 10.5 83.48 10.95Q83.05 11.4 82.36 11.4M90.43 23.18L87.67 23.18L87.67 8.82L90.43 8.82L90.43 23.18M92.8 15.45L85.3 15.45L85.3 13.04L92.8 13.04L92.8 15.45M104.54 23.18L100.69 23.18L100.69 20.64L104.45 20.64Q105.88 20.64 106.95 20.04Q108.02 19.45 108.62 18.35Q109.22 17.26 109.22 15.77L109.22 15.77Q109.22 14.32 108.61 13.24Q108 12.16 106.93 11.56Q105.86 10.96 104.45 10.96L104.45 10.96L100.63 10.96L100.63 8.42L104.5 8.42Q106.13 8.42 107.53 8.97Q108.93 9.51 109.97 10.51Q111.01 11.51 111.58 12.85Q112.16 14.19 112.16 15.79L112.16 15.79Q112.16 17.39 111.58 18.74Q111.01 20.1 109.98 21.09Q108.95 22.09 107.55 22.64Q106.15 23.18 104.54 23.18L104.54 23.18M101.6 23.18L98.74 23.18L98.74 8.42L101.6 8.42L101.6 23.18M118.99 23.39L118.99 23.39Q117.39 23.39 116.15 22.71Q114.91 22.03 114.19 20.83Q113.46 19.63 113.46 18.1L113.46 18.1Q113.46 16.59 114.17 15.4Q114.87 14.22 116.09 13.51Q117.31 12.81 118.8 12.81L118.8 12.81Q120.27 12.81 121.39 13.47Q122.51 14.13 123.15 15.28Q123.79 16.42 123.79 17.87L123.79 17.87Q123.79 18.14 123.76 18.43Q123.73 18.71 123.65 19.07L123.65 19.07L115.12 19.09L115.12 17.03L122.37 17.01L121.25 17.87Q121.21 16.97 120.93 16.36Q120.64 15.75 120.11 15.42Q119.57 15.1 118.8 15.1L118.8 15.1Q117.98 15.1 117.37 15.47Q116.76 15.83 116.43 16.49Q116.11 17.16 116.11 18.06L116.11 18.06Q116.11 18.98 116.45 19.67Q116.8 20.35 117.45 20.72Q118.1 21.08 118.96 21.08L118.96 21.08Q119.74 21.08 120.37 20.82Q121 20.56 121.46 20.03L121.46 20.03L123.08 21.65Q122.35 22.51 121.28 22.95Q120.22 23.39 118.99 23.39M129.51 23.18L126.76 23.18L126.76 8.82L129.51 8.82L129.51 23.18M131.88 15.45L124.38 15.45L124.38 13.04L131.88 13.04L131.88 15.45M137.42 23.39L137.42 23.39Q136.04 23.39 134.92 22.7Q133.81 22.01 133.18 20.81Q132.55 19.61 132.55 18.12L132.55 18.12Q132.55 16.61 133.18 15.41Q133.81 14.22 134.92 13.52Q136.04 12.83 137.42 12.83L137.42 12.83Q138.51 12.83 139.38 13.27Q140.24 13.71 140.75 14.5Q141.27 15.29 141.31 16.27L141.31 16.27L141.31 19.93Q141.27 20.94 140.75 21.71Q140.24 22.49 139.38 22.94Q138.51 23.39 137.42 23.39M137.93 20.85L137.93 20.85Q139.08 20.85 139.8 20.09Q140.51 19.32 140.51 18.1L140.51 18.1Q140.51 17.3 140.18 16.68Q139.86 16.06 139.28 15.72Q138.7 15.37 137.93 15.37L137.93 15.37Q137.17 15.37 136.59 15.72Q136.02 16.06 135.69 16.68Q135.36 17.3 135.36 18.1L135.36 18.1Q135.36 18.92 135.69 19.54Q136.02 20.16 136.59 20.51Q137.17 20.85 137.93 20.85M143.09 23.18L140.36 23.18L140.36 20.45L140.8 17.98L140.36 15.54L140.36 13.04L143.09 13.04L143.09 23.18M148.3 23.18L145.53 23.18L145.53 13.04L148.3 13.04L148.3 23.18M146.92 11.4L146.92 11.4Q146.24 11.4 145.8 10.95Q145.36 10.5 145.36 9.83L145.36 9.83Q145.36 9.18 145.8 8.71Q146.24 8.25 146.92 8.25L146.92 8.25Q147.61 8.25 148.04 8.71Q148.47 9.18 148.47 9.83L148.47 9.83Q148.47 10.5 148.04 10.95Q147.61 11.4 146.92 11.4M153.49 23.18L150.74 23.18L150.74 8L153.49 8L153.49 23.18M159.41 23.41L159.41 23.41Q158.55 23.41 157.72 23.18Q156.89 22.95 156.2 22.54Q155.5 22.13 155 21.55L155 21.55L156.64 19.89Q157.16 20.47 157.86 20.77Q158.55 21.06 159.39 21.06L159.39 21.06Q160.06 21.06 160.41 20.87Q160.75 20.68 160.75 20.31L160.75 20.31Q160.75 19.89 160.39 19.66Q160.02 19.42 159.43 19.27Q158.84 19.11 158.2 18.91Q157.56 18.71 156.97 18.38Q156.39 18.06 156.02 17.48Q155.65 16.9 155.65 15.98L155.65 15.98Q155.65 15.01 156.12 14.3Q156.6 13.59 157.48 13.19Q158.36 12.79 159.56 12.79L159.56 12.79Q160.82 12.79 161.84 13.23Q162.85 13.67 163.53 14.55L163.53 14.55L161.87 16.21Q161.41 15.64 160.83 15.39Q160.25 15.14 159.58 15.14L159.58 15.14Q158.97 15.14 158.64 15.33Q158.32 15.52 158.32 15.85L158.32 15.85Q158.32 16.23 158.69 16.44Q159.05 16.65 159.64 16.81Q160.23 16.97 160.87 17.17Q161.51 17.37 162.09 17.72Q162.67 18.08 163.03 18.67Q163.4 19.26 163.4 20.18L163.4 20.18Q163.4 21.67 162.33 22.54Q161.26 23.41 159.41 23.41"></path>
  </g>
</svg>
