<svg width="231.5" height="50" viewBox="0 0 231.5 50" xmlns="http://www.w3.org/2000/svg" role="img" aria-label="Permit Status: Expired">
  <style>
    .tile  { fill: #FCFCFD; stroke: rgb(228,230,235); }
    .label { fill: rgb(102,112,133); }
    .pill  { fill: rgb(229,231,235); stroke: rgb(153,161,175); }
    .ink   { fill: rgb(54,65,83); }
    @media (prefers-color-scheme: dark) {
      .tile  { fill: #1E2634; stroke: rgb(66,77,96); }
      .label { fill: rgb(167,176,191); }
      .pill  { fill: rgb(54,65,83); stroke: rgb(153,161,175); }
      .ink   { fill: rgb(229,231,235); }
    }
  </style>
  <rect class="tile" x="0.5" y="0.5" width="230.5" height="49" rx="12" ry="12" stroke-width="1"></rect>
  <g class="label" transform="translate(16,29.2)"><path d="M2.34 0L0.84 0L0.84-8.37L3.97-8.37Q4.93-8.37 5.59-8.01Q6.24-7.65 6.58-7.02Q6.92-6.40 6.92-5.60Q6.92-4.80 6.58-4.17Q6.24-3.54 5.58-3.19Q4.91-2.83 3.95-2.83L2.34-2.83L2.34 0M2.34-7.11L2.34-4.07L3.75-4.07Q4.60-4.07 4.99-4.50Q5.39-4.93 5.39-5.60Q5.39-6.27 4.99-6.69Q4.60-7.11 3.74-7.11M14.75 0L9.30 0L9.30-8.37L14.73-8.37L14.73-7.10L10.79-7.10L10.79-4.85L14.44-4.85L14.44-3.60L10.79-3.60L10.79-1.26L14.75-1.26M18.79 0L17.29 0L17.29-8.37L20.42-8.37Q21.86-8.37 22.62-7.63Q23.37-6.88 23.37-5.69Q23.37-4.84 22.99-4.23Q22.60-3.62 21.86-3.32L23.68 0L22 0L20.35-3.07L18.79-3.07L18.79 0M18.79-7.11L18.79-4.31L20.20-4.31Q21.05-4.31 21.44-4.67Q21.84-5.03 21.84-5.69Q21.84-6.36 21.44-6.74Q21.05-7.11 20.19-7.11M27.30 0L25.83 0L25.83-8.37L28.09-8.37L29.68-4.05Q29.76-3.80 29.87-3.41Q29.98-3.01 30.09-2.56Q30.20-2.11 30.30-1.69Q30.40-2.10 30.51-2.55Q30.62-3 30.73-3.40Q30.84-3.80 30.92-4.05L32.49-8.37L34.75-8.37L34.75 0L33.26 0L33.26-4.22Q33.26-4.54 33.27-5Q33.28-5.46 33.29-5.99Q33.30-6.51 33.31-7.01Q33.17-6.47 33.01-5.94Q32.85-5.40 32.71-4.95Q32.57-4.50 32.47-4.22L30.93 0L29.65 0L28.09-4.22Q27.99-4.49 27.85-4.93Q27.71-5.37 27.56-5.90Q27.40-6.42 27.24-6.96Q27.26-6.49 27.27-5.98Q27.28-5.46 27.29-5Q27.30-4.54 27.30-4.22M37.47-8.37L38.97-8.37L38.97 0L37.47 0M43.90-7.10L41.31-7.10L41.31-8.37L47.97-8.37L47.97-7.10L45.40-7.10L45.40 0L43.90 0M57.19 0.13Q55.73 0.13 54.86-0.54Q53.99-1.22 53.94-2.46L55.42-2.46Q55.47-1.80 55.97-1.47Q56.47-1.15 57.18-1.15Q57.92-1.15 58.39-1.49Q58.85-1.82 58.85-2.36Q58.85-2.85 58.44-3.10Q58.02-3.35 57.34-3.52L56.40-3.77Q55.35-4.04 54.76-4.58Q54.17-5.13 54.17-6.01Q54.17-6.76 54.57-7.31Q54.97-7.86 55.66-8.17Q56.35-8.48 57.23-8.48Q58.12-8.48 58.79-8.17Q59.46-7.86 59.84-7.32Q60.22-6.77 60.24-6.08L58.79-6.08Q58.73-6.61 58.31-6.91Q57.88-7.20 57.20-7.20Q56.50-7.20 56.09-6.89Q55.69-6.58 55.69-6.10Q55.69-5.75 55.90-5.53Q56.12-5.31 56.45-5.17Q56.78-5.04 57.11-4.95L57.89-4.75Q58.51-4.60 59.08-4.32Q59.64-4.03 60-3.55Q60.35-3.08 60.35-2.35Q60.35-1.61 59.98-1.05Q59.60-0.49 58.89-0.18Q58.19 0.13 57.19 0.13M64.97-7.10L62.39-7.10L62.39-8.37L69.05-8.37L69.05-7.10L66.47-7.10L66.47 0L64.97 0M72.47 0L70.83 0L73.75-8.37L75.65-8.37L78.64 0L77 0L76.28-2.07L73.15-2.07L72.47 0M73.91-4.35L73.55-3.28L75.87-3.28L75.51-4.35Q75.32-4.92 75.12-5.63Q74.92-6.33 74.69-7.20Q74.46-6.32 74.27-5.61Q74.08-4.90 73.91-4.35M83-7.10L80.42-7.10L80.42-8.37L87.08-8.37L87.08-7.10L84.50-7.10L84.50 0L83 0M92.81 0.12Q91.79 0.12 91.03-0.26Q90.26-0.65 89.84-1.33Q89.42-2.01 89.42-2.90L89.42-8.37L90.92-8.37L90.92-3.03Q90.92-2.24 91.43-1.73Q91.95-1.22 92.81-1.22Q93.68-1.22 94.19-1.73Q94.70-2.24 94.70-3.03L94.70-8.37L96.20-8.37L96.20-2.90Q96.20-2.01 95.78-1.33Q95.36-0.65 94.59-0.26Q93.83 0.12 92.81 0.12M101.85 0.13Q100.39 0.13 99.53-0.54Q98.66-1.22 98.61-2.46L100.09-2.46Q100.14-1.80 100.64-1.47Q101.14-1.15 101.84-1.15Q102.58-1.15 103.05-1.49Q103.52-1.82 103.52-2.36Q103.52-2.85 103.11-3.10Q102.69-3.35 102.01-3.52L101.06-3.77Q100.01-4.04 99.43-4.58Q98.84-5.13 98.84-6.01Q98.84-6.76 99.24-7.31Q99.64-7.86 100.33-8.17Q101.02-8.48 101.89-8.48Q102.79-8.48 103.46-8.17Q104.13-7.86 104.51-7.32Q104.89-6.77 104.91-6.08L103.45-6.08Q103.40-6.61 102.97-6.91Q102.55-7.20 101.87-7.20Q101.16-7.20 100.76-6.89Q100.35-6.58 100.35-6.10Q100.35-5.75 100.57-5.53Q100.79-5.31 101.12-5.17Q101.44-5.04 101.78-4.95L102.56-4.75Q103.18-4.60 103.74-4.32Q104.31-4.03 104.66-3.55Q105.02-3.08 105.02-2.35Q105.02-1.61 104.64-1.05Q104.27-0.49 103.56-0.18Q102.85 0.13 101.85 0.13"></path></g>
  <g transform="translate(134.6,10) scale(0.192308)">
    <rect class="pill" x="3" y="3" width="446" height="150" rx="75" ry="75" stroke-width="6"></rect>
    <g class="ink" transform="translate(40,40) scale(4.75)"><path fill-rule="evenodd" d="M8 15A7 7 0 1 0 8 1a7 7 0 0 0 0 14Zm2.78-4.22a.75.75 0 0 1-1.06 0L8 9.06l-1.72 1.72a.75.75 0 1 1-1.06-1.06L6.94 8 5.22 6.28a.75.75 0 0 1 1.06-1.06L8 6.94l1.72-1.72a.75.75 0 1 1 1.06 1.06L9.06 8l1.72 1.72a.75.75 0 0 1 0 1.06Z" clip-rule="evenodd"></path></g>
    <g class="ink" transform="translate(138 105.35)"><path d="M7.70 0.00Q6.96 0.00 6.47 -0.48Q5.99 -0.96 5.99 -1.78L5.99 -50.02Q5.99 -50.84 6.47 -51.32Q6.96 -51.80 7.70 -51.80L39.66 -51.80Q40.48 -51.80 41.00 -51.32Q41.51 -50.84 41.51 -50.02L41.51 -45.73Q41.51 -44.92 41.00 -44.44Q40.48 -43.96 39.66 -43.96L15.10 -43.96L15.10 -29.90L38.04 -29.90Q38.85 -29.90 39.37 -29.41Q39.89 -28.93 39.89 -28.12L39.89 -24.12Q39.89 -23.38 39.37 -22.87Q38.85 -22.35 38.04 -22.35L15.10 -22.35L15.10 -7.84L40.26 -7.84Q41.07 -7.84 41.59 -7.36Q42.11 -6.88 42.11 -6.07L42.11 -1.78Q42.11 -0.96 41.59 -0.48Q41.07 0.00 40.26 0.00ZM49.10 0.00Q48.44 0.00 47.96 -0.48Q47.47 -0.96 47.47 -1.55Q47.47 -1.85 47.59 -2.15Q47.70 -2.44 47.99 -2.89L60.65 -19.76L48.88 -35.59Q48.66 -35.96 48.55 -36.30Q48.44 -36.63 48.44 -36.93Q48.44 -37.52 48.88 -38.00Q49.32 -38.48 49.99 -38.48L55.61 -38.48Q56.50 -38.48 56.95 -38.07Q57.39 -37.67 57.61 -37.30L66.42 -25.60L75.22 -37.22Q75.52 -37.59 75.93 -38.04Q76.33 -38.48 77.22 -38.48L82.62 -38.48Q83.29 -38.48 83.73 -38.00Q84.18 -37.52 84.18 -36.93Q84.18 -36.63 84.10 -36.30Q84.03 -35.96 83.73 -35.59L71.75 -19.61L84.47 -2.89Q84.77 -2.44 84.88 -2.15Q84.99 -1.85 84.99 -1.55Q84.99 -0.96 84.51 -0.48Q84.03 0.00 83.44 0.00L77.52 0.00Q76.70 0.00 76.30 -0.41Q75.89 -0.81 75.59 -1.18L66.20 -13.47L56.72 -1.18Q56.50 -0.81 56.06 -0.41Q55.61 0.00 54.80 0.00ZM93.74 14.06Q93.00 14.06 92.48 13.58Q91.96 13.10 91.96 12.28L91.96 -36.70Q91.96 -37.52 92.48 -38.00Q93.00 -38.48 93.74 -38.48L98.84 -38.48Q99.66 -38.48 100.14 -38.00Q100.62 -37.52 100.62 -36.70L100.62 -33.67Q102.39 -36.04 105.32 -37.63Q108.24 -39.22 112.53 -39.22Q116.53 -39.22 119.41 -37.89Q122.30 -36.56 124.22 -34.23Q126.15 -31.89 127.18 -28.75Q128.22 -25.60 128.29 -21.83Q128.37 -20.57 128.37 -19.24Q128.37 -17.91 128.29 -16.65Q128.22 -13.02 127.22 -9.84Q126.22 -6.66 124.26 -4.33Q122.30 -2.00 119.41 -0.63Q116.53 0.74 112.53 0.74Q108.46 0.74 105.61 -0.74Q102.76 -2.22 100.99 -4.66L100.99 12.28Q100.99 13.10 100.51 13.58Q100.03 14.06 99.21 14.06ZM110.16 -6.59Q113.49 -6.59 115.42 -8.03Q117.34 -9.47 118.19 -11.88Q119.04 -14.28 119.19 -17.02Q119.27 -19.24 119.19 -21.46Q119.04 -24.20 118.19 -26.60Q117.34 -29.01 115.42 -30.45Q113.49 -31.89 110.16 -31.89Q106.91 -31.89 104.95 -30.38Q102.99 -28.86 102.06 -26.57Q101.14 -24.27 100.99 -21.83Q100.91 -20.57 100.91 -19.02Q100.91 -17.46 100.99 -16.13Q101.06 -13.84 102.06 -11.65Q103.06 -9.47 105.06 -8.03Q107.06 -6.59 110.16 -6.59ZM138.67 0.00Q137.93 0.00 137.45 -0.48Q136.97 -0.96 136.97 -1.78L136.97 -36.70Q136.97 -37.52 137.45 -38.00Q137.93 -38.48 138.67 -38.48L144.07 -38.48Q144.81 -38.48 145.30 -38.00Q145.78 -37.52 145.78 -36.70L145.78 -1.78Q145.78 -0.96 145.30 -0.48Q144.81 0.00 144.07 0.00ZM138.30 -45.07Q137.56 -45.07 137.04 -45.58Q136.53 -46.10 136.53 -46.84L136.53 -51.73Q136.53 -52.54 137.04 -53.06Q137.56 -53.58 138.30 -53.58L144.44 -53.58Q145.18 -53.58 145.70 -53.06Q146.22 -52.54 146.22 -51.73L146.22 -46.84Q146.22 -46.10 145.70 -45.58Q145.18 -45.07 144.44 -45.07ZM157.69 0.00Q156.95 0.00 156.47 -0.48Q155.99 -0.96 155.99 -1.78L155.99 -36.70Q155.99 -37.44 156.47 -37.96Q156.95 -38.48 157.69 -38.48L162.95 -38.48Q163.69 -38.48 164.21 -37.96Q164.72 -37.44 164.72 -36.70L164.72 -33.52Q166.43 -35.96 169.05 -37.22Q171.68 -38.48 175.31 -38.48L178.34 -38.48Q179.08 -38.48 179.56 -38.00Q180.04 -37.52 180.04 -36.70L180.04 -32.12Q180.04 -31.38 179.56 -30.86Q179.08 -30.34 178.34 -30.34L172.94 -30.34Q169.24 -30.34 167.17 -28.27Q165.09 -26.20 165.09 -22.50L165.09 -1.78Q165.09 -0.96 164.58 -0.48Q164.06 0.00 163.32 0.00ZM201.65 0.74Q193.58 0.74 188.85 -4.00Q184.11 -8.73 183.74 -17.24Q183.67 -18.06 183.67 -19.31Q183.67 -20.57 183.74 -21.31Q184.04 -26.86 186.26 -30.86Q188.48 -34.85 192.36 -37.04Q196.25 -39.22 201.58 -39.22Q207.50 -39.22 211.46 -36.78Q215.41 -34.34 217.49 -29.93Q219.56 -25.53 219.56 -19.76L219.56 -18.28Q219.56 -17.54 219.04 -17.02Q218.52 -16.50 217.78 -16.50L192.84 -16.50Q192.84 -16.50 192.84 -16.28Q192.84 -16.06 192.84 -15.91Q192.99 -13.25 193.99 -10.91Q194.99 -8.58 196.95 -7.18Q198.91 -5.77 201.58 -5.77Q203.80 -5.77 205.31 -6.44Q206.83 -7.10 207.76 -7.99Q208.68 -8.88 209.05 -9.40Q209.72 -10.21 210.12 -10.40Q210.53 -10.58 211.34 -10.58L216.89 -10.58Q217.63 -10.58 218.12 -10.17Q218.60 -9.77 218.52 -9.10Q218.45 -7.92 217.30 -6.25Q216.15 -4.59 214.05 -2.96Q211.94 -1.33 208.79 -0.30Q205.65 0.74 201.65 0.74ZM192.84 -22.42L210.38 -22.42L210.38 -22.64Q210.38 -25.60 209.35 -27.93Q208.31 -30.27 206.35 -31.56Q204.39 -32.86 201.58 -32.86Q198.84 -32.86 196.88 -31.56Q194.92 -30.27 193.88 -27.93Q192.84 -25.60 192.84 -22.64ZM241.92 0.74Q238.08 0.74 235.15 -0.59Q232.23 -1.92 230.27 -4.33Q228.31 -6.73 227.35 -9.95Q226.38 -13.17 226.16 -16.87Q226.09 -18.20 226.09 -19.28Q226.09 -20.35 226.16 -21.61Q226.31 -25.23 227.31 -28.45Q228.31 -31.67 230.23 -34.08Q232.16 -36.48 235.12 -37.85Q238.08 -39.22 241.92 -39.22Q246.07 -39.22 248.88 -37.78Q251.69 -36.33 253.54 -34.19L253.54 -50.76Q253.54 -51.58 254.02 -52.06Q254.50 -52.54 255.24 -52.54L260.72 -52.54Q261.53 -52.54 262.01 -52.06Q262.50 -51.58 262.50 -50.76L262.50 -1.78Q262.50 -0.96 262.01 -0.48Q261.53 0.00 260.72 0.00L255.61 0.00Q254.87 0.00 254.39 -0.48Q253.91 -0.96 253.91 -1.78L253.91 -4.66Q252.06 -2.29 249.18 -0.78Q246.29 0.74 241.92 0.74ZM244.37 -6.59Q247.62 -6.59 249.58 -8.10Q251.54 -9.62 252.51 -11.91Q253.47 -14.21 253.54 -16.65Q253.62 -17.98 253.62 -19.50Q253.62 -21.02 253.54 -22.35Q253.47 -24.64 252.47 -26.82Q251.47 -29.01 249.47 -30.45Q247.47 -31.89 244.37 -31.89Q241.04 -31.89 239.11 -30.45Q237.19 -29.01 236.34 -26.60Q235.49 -24.20 235.34 -21.46Q235.19 -19.24 235.34 -17.02Q235.49 -14.28 236.34 -11.88Q237.19 -9.47 239.11 -8.03Q241.04 -6.59 244.37 -6.59Z"></path></g>
  </g>
</svg>
