<svg width="162" height="31" viewBox="0 0 162 31" xmlns="http://www.w3.org/2000/svg" role="img" aria-label="Permit Details">
  <style>
    .ink { fill: #172032; }
    .rule { fill: rgb(228,230,235); }
    @media (prefers-color-scheme: dark) {
      .ink { fill: rgb(230,234,242); }
      .rule { fill: rgb(66,77,96); }
    }
  </style>
  <g class="ink">
    <g class="ink" transform="translate(0,6.1) scale(1)"><path fill-rule="evenodd" d="M2 4.75A.75.75 0 0 1 2.75 4h14.5a.75.75 0 0 1 0 1.5H2.75A.75.75 0 0 1 2 4.75Zm0 10.5a.75.75 0 0 1 .75-.75h7.5a.75.75 0 0 1 0 1.5h-7.5a.75.75 0 0 1-.75-.75ZM2 10a.75.75 0 0 1 .75-.75h14.5a.75.75 0 0 1 0 1.5H2.75A.75.75 0 0 1 2 10Z" clip-rule="evenodd"></path></g>
    <path d="M31.79 18.86L31.79 16.44L35.42 16.44Q36.75 16.44 37.5 15.76Q38.24 15.08 38.24 13.81L38.24 13.79Q38.24 12.53 37.5 11.86Q36.75 11.18 35.42 11.18L31.79 11.18L31.79 8.73L36.18 8.73Q37.74 8.73 38.91 9.36Q40.07 9.99 40.73 11.13Q41.38 12.27 41.38 13.78L41.38 13.8Q41.38 15.33 40.73 16.47Q40.07 17.61 38.91 18.23Q37.74 18.86 36.18 18.86ZM30.23 23.52L30.23 8.73L33.33 8.73L33.33 23.52ZM47.59 23.75Q45.91 23.75 44.7 23.06Q43.49 22.37 42.84 21.08Q42.19 19.8 42.19 18.05L42.19 18.04Q42.19 16.29 42.84 15Q43.49 13.71 44.67 13.01Q45.86 12.31 47.47 12.31Q49.08 12.31 50.25 12.99Q51.43 13.67 52.07 14.91Q52.71 16.15 52.71 17.81L52.71 18.74L43.65 18.74L43.65 16.85L51.29 16.85L49.87 18.61L49.87 17.46Q49.87 16.5 49.57 15.85Q49.27 15.2 48.74 14.87Q48.22 14.54 47.52 14.54Q46.82 14.54 46.28 14.88Q45.74 15.22 45.44 15.87Q45.14 16.52 45.14 17.46L45.14 18.62Q45.14 19.54 45.44 20.18Q45.74 20.83 46.31 21.17Q46.87 21.51 47.65 21.51Q48.27 21.51 48.72 21.32Q49.17 21.13 49.46 20.83Q49.74 20.53 49.85 20.22L49.87 20.16L52.61 20.16L52.58 20.27Q52.46 20.88 52.1 21.49Q51.74 22.11 51.13 22.62Q50.52 23.13 49.65 23.44Q48.77 23.75 47.59 23.75ZM54.25 23.52L54.25 12.53L57.24 12.53L57.24 14.45L57.3 14.45Q57.55 13.43 58.19 12.87Q58.84 12.31 59.8 12.31Q60.05 12.31 60.27 12.34Q60.5 12.37 60.66 12.42L60.66 15.05Q60.48 14.98 60.19 14.94Q59.91 14.89 59.58 14.89Q58.84 14.89 58.32 15.18Q57.79 15.46 57.52 16.02Q57.24 16.57 57.24 17.37L57.24 23.52ZM61.88 23.52L61.88 12.53L64.88 12.53L64.88 14.38L64.94 14.38Q65.28 13.43 66.09 12.87Q66.91 12.31 68.02 12.31Q68.79 12.31 69.4 12.57Q70.02 12.84 70.44 13.34Q70.87 13.84 71.04 14.57L71.1 14.57Q71.35 13.88 71.85 13.37Q72.34 12.86 73.03 12.58Q73.71 12.31 74.52 12.31Q75.59 12.31 76.4 12.77Q77.21 13.23 77.67 14.06Q78.12 14.89 78.12 16.01L78.12 23.52L75.12 23.52L75.12 16.76Q75.12 16.12 74.91 15.68Q74.7 15.24 74.31 15.01Q73.91 14.79 73.33 14.79Q72.76 14.79 72.34 15.04Q71.91 15.3 71.68 15.76Q71.44 16.22 71.44 16.84L71.44 23.52L68.56 23.52L68.56 16.66Q68.56 16.07 68.34 15.65Q68.13 15.23 67.73 15.01Q67.34 14.79 66.79 14.79Q66.22 14.79 65.79 15.05Q65.36 15.32 65.12 15.79Q64.88 16.26 64.88 16.89L64.88 23.52ZM80.07 23.52L80.07 12.53L83.07 12.53L83.07 23.52ZM81.57 11.12Q80.9 11.12 80.43 10.66Q79.97 10.19 79.97 9.56Q79.97 8.91 80.43 8.46Q80.9 8 81.57 8Q82.25 8 82.71 8.46Q83.17 8.91 83.17 9.56Q83.17 10.19 82.71 10.66Q82.25 11.12 81.57 11.12ZM89.44 23.75Q87.61 23.75 86.73 22.98Q85.85 22.21 85.85 20.45L85.85 14.79L84.32 14.79L84.32 12.53L85.85 12.53L85.85 9.85L88.87 9.85L88.87 12.53L90.88 12.53L90.88 14.79L88.87 14.79L88.87 20.12Q88.87 20.89 89.22 21.19Q89.56 21.49 90.24 21.49Q90.44 21.49 90.6 21.48Q90.75 21.46 90.88 21.44L90.88 23.64Q90.64 23.68 90.27 23.71Q89.91 23.75 89.44 23.75ZM96.94 23.52L96.94 8.73L102.59 8.73Q104.82 8.73 106.39 9.58Q107.97 10.43 108.81 12.07Q109.65 13.7 109.65 16.05L109.65 16.07Q109.65 18.42 108.81 20.09Q107.98 21.76 106.4 22.64Q104.82 23.52 102.59 23.52ZM100.04 20.96L102.22 20.96Q103.61 20.96 104.56 20.41Q105.51 19.85 106 18.77Q106.49 17.68 106.49 16.08L106.49 16.06Q106.49 14.51 105.99 13.44Q105.49 12.38 104.54 11.83Q103.59 11.28 102.22 11.28L100.04 11.28ZM116.39 23.75Q114.71 23.75 113.5 23.06Q112.29 22.37 111.64 21.08Q110.99 19.8 110.99 18.05L110.99 18.04Q110.99 16.29 111.64 15Q112.29 13.71 113.48 13.01Q114.66 12.31 116.27 12.31Q117.88 12.31 119.05 12.99Q120.23 13.67 120.87 14.91Q121.51 16.15 121.51 17.81L121.51 18.74L112.46 18.74L112.46 16.85L120.1 16.85L118.67 18.61L118.67 17.46Q118.67 16.5 118.37 15.85Q118.08 15.2 117.55 14.87Q117.02 14.54 116.32 14.54Q115.63 14.54 115.09 14.88Q114.55 15.22 114.25 15.87Q113.94 16.52 113.94 17.46L113.94 18.62Q113.94 19.54 114.25 20.18Q114.55 20.83 115.11 21.17Q115.68 21.51 116.46 21.51Q117.07 21.51 117.52 21.32Q117.97 21.13 118.26 20.83Q118.55 20.53 118.65 20.22L118.67 20.16L121.42 20.16L121.39 20.27Q121.26 20.88 120.91 21.49Q120.55 22.11 119.94 22.62Q119.33 23.13 118.45 23.44Q117.57 23.75 116.39 23.75ZM127.42 23.75Q125.59 23.75 124.71 22.98Q123.83 22.21 123.83 20.45L123.83 14.79L122.3 14.79L122.3 12.53L123.83 12.53L123.83 9.85L126.85 9.85L126.85 12.53L128.86 12.53L128.86 14.79L126.85 14.79L126.85 20.12Q126.85 20.89 127.2 21.19Q127.54 21.49 128.22 21.49Q128.42 21.49 128.58 21.48Q128.73 21.46 128.86 21.44L128.86 23.64Q128.62 23.68 128.25 23.71Q127.89 23.75 127.42 23.75ZM133.68 23.7Q132.58 23.7 131.75 23.27Q130.92 22.85 130.46 22.09Q129.99 21.34 129.99 20.38L129.99 20.36Q129.99 19.35 130.49 18.64Q131 17.93 131.95 17.52Q132.9 17.11 134.27 17.01L138.55 16.75L138.55 18.61L134.72 18.86Q133.86 18.91 133.41 19.26Q132.95 19.62 132.95 20.2L132.95 20.22Q132.95 20.83 133.42 21.17Q133.88 21.51 134.66 21.51Q135.32 21.51 135.85 21.25Q136.38 20.99 136.68 20.54Q136.98 20.08 136.98 19.5L136.98 16.17Q136.98 15.44 136.52 15.02Q136.06 14.59 135.18 14.59Q134.34 14.59 133.85 14.94Q133.35 15.29 133.24 15.82L133.22 15.92L130.48 15.92L130.49 15.79Q130.58 14.78 131.16 13.99Q131.75 13.2 132.81 12.75Q133.86 12.31 135.3 12.31Q136.73 12.31 137.77 12.76Q138.82 13.22 139.4 14.05Q139.98 14.88 139.98 15.99L139.98 23.52L136.98 23.52L136.98 21.88L136.92 21.88Q136.61 22.45 136.13 22.85Q135.64 23.26 135.03 23.48Q134.41 23.7 133.68 23.7ZM141.97 23.52L141.97 12.53L144.96 12.53L144.96 23.52ZM143.46 11.12Q142.79 11.12 142.33 10.66Q141.86 10.19 141.86 9.56Q141.86 8.91 142.33 8.46Q142.79 8 143.46 8Q144.14 8 144.6 8.46Q145.06 8.91 145.06 9.56Q145.06 10.19 144.6 10.66Q144.14 11.12 143.46 11.12ZM147.03 23.52L147.03 8.73L150.03 8.73L150.03 23.52ZM156.57 23.75Q155.05 23.75 153.98 23.31Q152.92 22.87 152.32 22.08Q151.72 21.3 151.6 20.26L151.59 20.17L154.51 20.17L154.53 20.26Q154.67 20.91 155.17 21.27Q155.68 21.63 156.57 21.63Q157.14 21.63 157.54 21.49Q157.94 21.35 158.16 21.09Q158.38 20.84 158.38 20.48L158.38 20.47Q158.38 20.03 158.07 19.76Q157.75 19.49 156.94 19.31L155.07 18.92Q154.01 18.69 153.29 18.27Q152.58 17.84 152.22 17.21Q151.86 16.58 151.86 15.76L151.86 15.75Q151.86 14.7 152.43 13.93Q152.99 13.16 154.03 12.73Q155.07 12.31 156.47 12.31Q157.92 12.31 158.94 12.77Q159.96 13.24 160.51 14.03Q161.06 14.82 161.09 15.78L161.09 15.89L158.33 15.89L158.32 15.8Q158.25 15.21 157.77 14.81Q157.3 14.42 156.47 14.42Q155.95 14.42 155.57 14.56Q155.19 14.71 154.99 14.97Q154.78 15.23 154.78 15.59L154.78 15.6Q154.78 15.88 154.92 16.1Q155.06 16.32 155.39 16.48Q155.72 16.64 156.27 16.77L158.14 17.17Q159.29 17.4 160 17.8Q160.71 18.2 161.04 18.78Q161.38 19.36 161.38 20.17L161.38 20.18Q161.38 21.26 160.76 22.06Q160.15 22.86 159.07 23.3Q157.98 23.75 156.57 23.75Z"></path>
  </g>
  <rect class="rule" x="0" y="30" width="162" height="1"></rect>
</svg>
