<svg width="132.9" height="30" viewBox="0 0 691 156" xmlns="http://www.w3.org/2000/svg" role="img" aria-label="Permit: Invalid">
  <rect x="3" y="3" width="685" height="150" rx="75" ry="75" fill="rgb(165,0,54)" stroke="rgb(255,32,86)" stroke-width="6"></rect>
  <g transform="translate(40,40) scale(4.75)">
    <path fill="rgb(255,228,230)" fill-rule="evenodd" d="M6.701 2.25c.577-1 2.02-1 2.598 0l5.196 9a1.5 1.5 0 0 1-1.299 2.25H2.804a1.5 1.5 0 0 1-1.3-2.25l5.197-9ZM8 4a.75.75 0 0 1 .75.75v3a.75.75 0 1 1-1.5 0v-3A.75.75 0 0 1 8 4Zm0 8a1 1 0 1 0 0-2 1 1 0 0 0 0 2Z" clip-rule="evenodd"></path>
  </g>
  <g transform="translate(138 105.35)">
    <path fill="rgb(255,228,230)" d="M7.70 0.00Q6.96 0.00 6.47 -0.48Q5.99 -0.96 5.99 -1.78L5.99 -50.02Q5.99 -50.84 6.47 -51.32Q6.96 -51.80 7.70 -51.80L27.23 -51.80Q32.93 -51.80 37.15 -49.99Q41.37 -48.17 43.70 -44.55Q46.03 -40.92 46.03 -35.52Q46.03 -30.12 43.70 -26.57Q41.37 -23.01 37.15 -21.24Q32.93 -19.46 27.23 -19.46L15.61 -19.46L15.61 -1.78Q15.61 -0.96 15.10 -0.48Q14.58 0.00 13.76 0.00ZM15.47 -27.01L26.86 -27.01Q31.52 -27.01 33.97 -29.19Q36.41 -31.38 36.41 -35.59Q36.41 -39.52 34.08 -41.85Q31.75 -44.18 26.86 -44.18L15.47 -44.18ZM69.21 0.74Q61.14 0.74 56.40 -4.00Q51.67 -8.73 51.30 -17.24Q51.22 -18.06 51.22 -19.31Q51.22 -20.57 51.30 -21.31Q51.59 -26.86 53.81 -30.86Q56.03 -34.85 59.92 -37.04Q63.80 -39.22 69.13 -39.22Q75.05 -39.22 79.01 -36.78Q82.97 -34.34 85.04 -29.93Q87.11 -25.53 87.11 -19.76L87.11 -18.28Q87.11 -17.54 86.60 -17.02Q86.08 -16.50 85.34 -16.50L60.40 -16.50Q60.40 -16.50 60.40 -16.28Q60.40 -16.06 60.40 -15.91Q60.55 -13.25 61.55 -10.91Q62.55 -8.58 64.51 -7.18Q66.47 -5.77 69.13 -5.77Q71.35 -5.77 72.87 -6.44Q74.39 -7.10 75.31 -7.99Q76.24 -8.88 76.61 -9.40Q77.27 -10.21 77.68 -10.40Q78.09 -10.58 78.90 -10.58L84.45 -10.58Q85.19 -10.58 85.67 -10.17Q86.15 -9.77 86.08 -9.10Q86.00 -7.92 84.86 -6.25Q83.71 -4.59 81.60 -2.96Q79.49 -1.33 76.35 -0.30Q73.20 0.74 69.21 0.74ZM60.40 -22.42L77.94 -22.42L77.94 -22.64Q77.94 -25.60 76.90 -27.93Q75.87 -30.27 73.91 -31.56Q71.94 -32.86 69.13 -32.86Q66.39 -32.86 64.43 -31.56Q62.47 -30.27 61.44 -27.93Q60.40 -25.60 60.40 -22.64ZM97.05 0.00Q96.31 0.00 95.83 -0.48Q95.35 -0.96 95.35 -1.78L95.35 -36.70Q95.35 -37.44 95.83 -37.96Q96.31 -38.48 97.05 -38.48L102.30 -38.48Q103.04 -38.48 103.56 -37.96Q104.08 -37.44 104.08 -36.70L104.08 -33.52Q105.78 -35.96 108.41 -37.22Q111.03 -38.48 114.66 -38.48L117.69 -38.48Q118.43 -38.48 118.91 -38.00Q119.40 -37.52 119.40 -36.70L119.40 -32.12Q119.40 -31.38 118.91 -30.86Q118.43 -30.34 117.69 -30.34L112.29 -30.34Q108.59 -30.34 106.52 -28.27Q104.45 -26.20 104.45 -22.50L104.45 -1.78Q104.45 -0.96 103.93 -0.48Q103.41 0.00 102.67 0.00ZM127.09 0.00Q126.35 0.00 125.86 -0.48Q125.38 -0.96 125.38 -1.78L125.38 -36.70Q125.38 -37.52 125.86 -38.00Q126.35 -38.48 127.09 -38.48L132.12 -38.48Q132.86 -38.48 133.38 -38.00Q133.89 -37.52 133.89 -36.70L133.89 -34.19Q135.52 -36.33 138.11 -37.74Q140.70 -39.15 144.33 -39.22Q152.76 -39.29 156.17 -32.56Q157.87 -35.52 161.09 -37.37Q164.31 -39.22 168.30 -39.22Q172.15 -39.22 175.26 -37.44Q178.37 -35.67 180.22 -32.08Q182.07 -28.49 182.07 -23.01L182.07 -1.78Q182.07 -0.96 181.55 -0.48Q181.03 0.00 180.29 0.00L175.04 0.00Q174.22 0.00 173.74 -0.48Q173.26 -0.96 173.26 -1.78L173.26 -22.42Q173.26 -26.05 172.23 -28.08Q171.19 -30.12 169.45 -31.01Q167.71 -31.89 165.64 -31.89Q163.86 -31.89 162.12 -31.01Q160.39 -30.12 159.28 -28.08Q158.17 -26.05 158.17 -22.42L158.17 -1.78Q158.17 -0.96 157.65 -0.48Q157.13 0.00 156.39 0.00L151.14 0.00Q150.40 0.00 149.88 -0.48Q149.36 -0.96 149.36 -1.78L149.36 -22.42Q149.36 -26.05 148.29 -28.08Q147.21 -30.12 145.47 -31.01Q143.74 -31.89 141.74 -31.89Q139.96 -31.89 138.22 -31.01Q136.48 -30.12 135.37 -28.08Q134.26 -26.05 134.26 -22.42L134.26 -1.78Q134.26 -0.96 133.75 -0.48Q133.23 0.00 132.49 0.00ZM193.57 0.00Q192.83 0.00 192.35 -0.48Q191.87 -0.96 191.87 -1.78L191.87 -36.70Q191.87 -37.52 192.35 -38.00Q192.83 -38.48 193.57 -38.48L198.97 -38.48Q199.71 -38.48 200.19 -38.00Q200.67 -37.52 200.67 -36.70L200.67 -1.78Q200.67 -0.96 200.19 -0.48Q199.71 0.00 198.97 0.00ZM193.20 -45.07Q192.46 -45.07 191.94 -45.58Q191.42 -46.10 191.42 -46.84L191.42 -51.73Q191.42 -52.54 191.94 -53.06Q192.46 -53.58 193.20 -53.58L199.34 -53.58Q200.08 -53.58 200.60 -53.06Q201.12 -52.54 201.12 -51.73L201.12 -46.84Q201.12 -46.10 200.60 -45.58Q200.08 -45.07 199.34 -45.07ZM227.54 0.00Q223.17 0.00 220.29 -1.55Q217.40 -3.11 216.00 -6.14Q214.59 -9.18 214.59 -13.54L214.59 -31.23L208.82 -31.23Q208.00 -31.23 207.52 -31.75Q207.04 -32.26 207.04 -33.00L207.04 -36.70Q207.04 -37.52 207.52 -38.00Q208.00 -38.48 208.82 -38.48L214.59 -38.48L214.59 -50.76Q214.59 -51.58 215.07 -52.06Q215.55 -52.54 216.37 -52.54L221.62 -52.54Q222.36 -52.54 222.84 -52.06Q223.32 -51.58 223.32 -50.76L223.32 -38.48L232.57 -38.48Q233.31 -38.48 233.83 -38.00Q234.35 -37.52 234.35 -36.70L234.35 -33.00Q234.35 -32.26 233.83 -31.75Q233.31 -31.23 232.57 -31.23L223.32 -31.23L223.32 -14.28Q223.32 -11.10 224.43 -9.29Q225.54 -7.47 228.35 -7.47L233.24 -7.47Q234.05 -7.47 234.53 -6.99Q235.01 -6.51 235.01 -5.77L235.01 -1.78Q235.01 -0.96 234.53 -0.48Q234.05 0.00 233.24 0.00ZM243.30 -25.90Q242.48 -25.90 242.00 -26.38Q241.52 -26.86 241.52 -27.68L241.52 -34.11Q241.52 -34.93 242.00 -35.45Q242.48 -35.96 243.30 -35.96L249.96 -35.96Q250.77 -35.96 251.29 -35.45Q251.81 -34.93 251.81 -34.11L251.81 -27.68Q251.81 -26.86 251.29 -26.38Q250.77 -25.90 249.96 -25.90ZM243.30 0.00Q242.48 0.00 242.00 -0.48Q241.52 -0.96 241.52 -1.78L241.52 -8.21Q241.52 -9.03 242.00 -9.55Q242.48 -10.06 243.30 -10.06L249.96 -10.06Q250.77 -10.06 251.29 -9.55Q251.81 -9.03 251.81 -8.21L251.81 -1.78Q251.81 -0.96 251.29 -0.48Q250.77 0.00 249.96 0.00ZM281.56 0.00Q280.82 0.00 280.34 -0.48Q279.86 -0.96 279.86 -1.78L279.86 -50.02Q279.86 -50.84 280.34 -51.32Q280.82 -51.80 281.56 -51.80L287.63 -51.80Q288.44 -51.80 288.92 -51.32Q289.40 -50.84 289.40 -50.02L289.40 -1.78Q289.40 -0.96 288.92 -0.48Q288.44 0.00 287.63 0.00ZM302.20 0.00Q301.46 0.00 300.97 -0.48Q300.49 -0.96 300.49 -1.78L300.49 -36.70Q300.49 -37.52 300.97 -38.00Q301.46 -38.48 302.20 -38.48L307.45 -38.48Q308.26 -38.48 308.74 -38.00Q309.23 -37.52 309.23 -36.70L309.23 -33.60Q311.15 -36.04 314.15 -37.63Q317.14 -39.22 321.58 -39.22Q326.17 -39.22 329.50 -37.18Q332.83 -35.15 334.64 -31.41Q336.46 -27.68 336.46 -22.57L336.46 -1.78Q336.46 -0.96 335.98 -0.48Q335.50 0.00 334.68 0.00L329.06 0.00Q328.32 0.00 327.80 -0.48Q327.28 -0.96 327.28 -1.78L327.28 -22.13Q327.28 -26.71 325.06 -29.30Q322.84 -31.89 318.55 -31.89Q314.48 -31.89 312.04 -29.30Q309.60 -26.71 309.60 -22.13L309.60 -1.78Q309.60 -0.96 309.11 -0.48Q308.63 0.00 307.82 0.00ZM358.70 0.00Q357.59 0.00 357.00 -0.55Q356.41 -1.11 356.04 -1.85L342.20 -36.19Q342.13 -36.56 342.13 -36.93Q342.13 -37.52 342.57 -38.00Q343.01 -38.48 343.68 -38.48L349.01 -38.48Q349.82 -38.48 350.30 -38.00Q350.78 -37.52 350.86 -37.15L361.14 -10.21L371.43 -37.15Q371.58 -37.52 372.02 -38.00Q372.47 -38.48 373.28 -38.48L378.61 -38.48Q379.27 -38.48 379.72 -38.00Q380.16 -37.52 380.16 -36.93Q380.16 -36.56 380.09 -36.19L366.25 -1.85Q365.95 -1.11 365.33 -0.55Q364.70 0.00 363.59 0.00ZM396.89 0.74Q393.11 0.74 390.01 -0.78Q386.90 -2.29 385.05 -4.81Q383.20 -7.33 383.20 -10.51Q383.20 -15.69 387.42 -18.72Q391.63 -21.76 398.44 -22.79L408.80 -24.27L408.80 -26.05Q408.80 -29.30 407.10 -31.08Q405.40 -32.86 401.40 -32.86Q398.52 -32.86 396.74 -31.71Q394.96 -30.56 394.15 -28.71Q393.63 -27.68 392.52 -27.68L387.42 -27.68Q386.60 -27.68 386.19 -28.16Q385.79 -28.64 385.79 -29.30Q385.79 -30.49 386.71 -32.15Q387.64 -33.82 389.49 -35.45Q391.34 -37.07 394.30 -38.15Q397.26 -39.22 401.48 -39.22Q406.06 -39.22 409.21 -38.07Q412.35 -36.93 414.24 -35.00Q416.13 -33.08 416.98 -30.52Q417.83 -27.97 417.83 -25.23L417.83 -1.78Q417.83 -0.96 417.35 -0.48Q416.87 0.00 416.05 0.00L410.80 0.00Q410.06 0.00 409.58 -0.48Q409.10 -0.96 409.10 -1.78L409.10 -4.74Q408.14 -3.40 406.51 -2.15Q404.88 -0.89 402.51 -0.07Q400.14 0.74 396.89 0.74ZM399.11 -5.85Q401.85 -5.85 404.07 -6.99Q406.29 -8.14 407.58 -10.62Q408.88 -13.10 408.88 -16.87L408.88 -18.50L401.11 -17.32Q396.44 -16.65 394.15 -15.06Q391.86 -13.47 391.86 -11.17Q391.86 -9.40 392.89 -8.21Q393.93 -7.03 395.59 -6.44Q397.26 -5.85 399.11 -5.85ZM429.47 0.00Q428.73 0.00 428.21 -0.48Q427.69 -0.96 427.69 -1.78L427.69 -50.76Q427.69 -51.58 428.21 -52.06Q428.73 -52.54 429.47 -52.54L434.80 -52.54Q435.61 -52.54 436.09 -52.06Q436.57 -51.58 436.57 -50.76L436.57 -1.78Q436.57 -0.96 436.09 -0.48Q435.61 0.00 434.80 0.00ZM448.52 0.00Q447.78 0.00 447.30 -0.48Q446.81 -0.96 446.81 -1.78L446.81 -36.70Q446.81 -37.52 447.30 -38.00Q447.78 -38.48 448.52 -38.48L453.92 -38.48Q454.66 -38.48 455.14 -38.00Q455.62 -37.52 455.62 -36.70L455.62 -1.78Q455.62 -0.96 455.14 -0.48Q454.66 0.00 453.92 0.00ZM448.15 -45.07Q447.41 -45.07 446.89 -45.58Q446.37 -46.10 446.37 -46.84L446.37 -51.73Q446.37 -52.54 446.89 -53.06Q447.41 -53.58 448.15 -53.58L454.29 -53.58Q455.03 -53.58 455.55 -53.06Q456.06 -52.54 456.06 -51.73L456.06 -46.84Q456.06 -46.10 455.55 -45.58Q455.03 -45.07 454.29 -45.07ZM479.97 0.74Q476.12 0.74 473.20 -0.59Q470.28 -1.92 468.32 -4.33Q466.35 -6.73 465.39 -9.95Q464.43 -13.17 464.21 -16.87Q464.13 -18.20 464.13 -19.28Q464.13 -20.35 464.21 -21.61Q464.36 -25.23 465.36 -28.45Q466.35 -31.67 468.28 -34.08Q470.20 -36.48 473.16 -37.85Q476.12 -39.22 479.97 -39.22Q484.11 -39.22 486.93 -37.78Q489.74 -36.33 491.59 -34.19L491.59 -50.76Q491.59 -51.58 492.07 -52.06Q492.55 -52.54 493.29 -52.54L498.77 -52.54Q499.58 -52.54 500.06 -52.06Q500.54 -51.58 500.54 -50.76L500.54 -1.78Q500.54 -0.96 500.06 -0.48Q499.58 0.00 498.77 0.00L493.66 0.00Q492.92 0.00 492.44 -0.48Q491.96 -0.96 491.96 -1.78L491.96 -4.66Q490.11 -2.29 487.22 -0.78Q484.34 0.74 479.97 0.74ZM482.41 -6.59Q485.67 -6.59 487.63 -8.10Q489.59 -9.62 490.55 -11.91Q491.51 -14.21 491.59 -16.65Q491.66 -17.98 491.66 -19.50Q491.66 -21.02 491.59 -22.35Q491.51 -24.64 490.52 -26.82Q489.52 -29.01 487.52 -30.45Q485.52 -31.89 482.41 -31.89Q479.08 -31.89 477.16 -30.45Q475.23 -29.01 474.38 -26.60Q473.53 -24.20 473.38 -21.46Q473.24 -19.24 473.38 -17.02Q473.53 -14.28 474.38 -11.88Q475.23 -9.47 477.16 -8.03Q479.08 -6.59 482.41 -6.59Z"></path>
  </g>
</svg>
