<svg width="254.7" height="58" viewBox="0 0 254.7 58" xmlns="http://www.w3.org/2000/svg" role="img" aria-label="Permit Status: Invalid">
  <style>
    .tile  { fill: #FFFFFF; stroke: rgb(229,231,235); }
    .label { fill: #111827; }
    .pill  { fill: rgb(255,228,230); stroke: transparent; }
    .ink   { fill: rgb(165,0,54); }
    @media (prefers-color-scheme: dark) {
      .tile  { fill: #1E293B; stroke: rgb(71,85,105); }
      .label { fill: #FFFFFF; }
      .pill  { fill: rgb(165,0,54); stroke: rgb(255,32,86); }
      .ink   { fill: rgb(255,228,230); }
    }
  </style>
  <rect class="tile" x="0.5" y="0.5" width="253.7" height="57" rx="12" ry="12" stroke-width="1"></rect>
  <g transform="translate(14,6.5) scale(0.283784)">
    <g class="label" transform="translate(0 105.35)"><path d="M13.91 -19.02L13.91 -28.05L25.16 -28.05Q27.31 -28.05 29.08 -28.93Q30.86 -29.82 31.89 -31.52Q32.93 -33.23 32.93 -35.67Q32.93 -38.04 31.89 -39.74Q30.86 -41.44 29.08 -42.33Q27.31 -43.22 25.16 -43.22L13.91 -43.22L13.91 -52.24L26.86 -52.24Q31.82 -52.24 35.82 -50.25Q39.81 -48.25 42.14 -44.51Q44.47 -40.77 44.47 -35.67Q44.47 -30.56 42.14 -26.82Q39.81 -23.09 35.82 -21.05Q31.82 -19.02 26.86 -19.02ZM5.03 0.00L5.03 -52.24L16.65 -52.24L16.65 0.00ZM66.75 0.81Q60.90 0.81 56.35 -1.59Q51.80 -4.00 49.21 -8.29Q46.62 -12.58 46.62 -17.98Q46.62 -23.38 49.17 -27.64Q51.73 -31.89 56.09 -34.34Q60.46 -36.78 65.93 -36.78Q71.26 -36.78 75.33 -34.48Q79.40 -32.19 81.73 -28.12Q84.06 -24.05 84.06 -18.80Q84.06 -17.83 83.95 -16.76Q83.84 -15.69 83.55 -14.28L52.54 -14.21L52.54 -21.98L78.74 -22.05L73.85 -18.80Q73.78 -21.90 72.89 -23.94Q72.00 -25.97 70.26 -27.05Q68.52 -28.12 66.01 -28.12Q63.34 -28.12 61.38 -26.90Q59.42 -25.68 58.35 -23.46Q57.28 -21.24 57.28 -18.06Q57.28 -14.87 58.42 -12.62Q59.57 -10.36 61.68 -9.14Q63.79 -7.92 66.67 -7.92Q69.34 -7.92 71.48 -8.84Q73.63 -9.77 75.26 -11.62L81.47 -5.40Q78.81 -2.29 75.04 -0.74Q71.26 0.81 66.75 0.81ZM89.54 0.00L89.54 -35.96L100.86 -35.96L100.86 0.00ZM100.86 -19.76L96.13 -23.46Q97.53 -29.75 100.86 -33.23Q104.19 -36.70 110.11 -36.70Q112.70 -36.70 114.66 -35.93Q116.62 -35.15 118.10 -33.52L111.37 -25.01Q110.63 -25.83 109.52 -26.27Q108.41 -26.71 107.00 -26.71Q104.19 -26.71 102.53 -24.97Q100.86 -23.24 100.86 -19.76ZM120.84 0.00L120.84 -35.96L132.16 -35.96L132.16 0.00ZM143.86 0.00L143.86 -21.02Q143.86 -23.75 142.19 -25.27Q140.53 -26.79 138.08 -26.79Q136.38 -26.79 135.05 -26.08Q133.72 -25.38 132.94 -24.12Q132.16 -22.87 132.16 -21.02L127.80 -22.94Q127.80 -27.23 129.65 -30.30Q131.50 -33.37 134.68 -35.04Q137.86 -36.70 141.86 -36.70Q145.63 -36.70 148.63 -35.00Q151.63 -33.30 153.40 -30.27Q155.18 -27.23 155.18 -23.01L155.18 0.00ZM166.87 0.00L166.87 -21.02Q166.87 -23.75 165.20 -25.27Q163.54 -26.79 161.10 -26.79Q159.40 -26.79 158.06 -26.08Q156.73 -25.38 155.95 -24.12Q155.18 -22.87 155.18 -21.02L148.67 -21.90Q148.81 -26.49 150.85 -29.79Q152.88 -33.08 156.25 -34.89Q159.62 -36.70 163.84 -36.70Q167.98 -36.70 171.20 -34.96Q174.42 -33.23 176.30 -30.01Q178.19 -26.79 178.19 -22.27L178.19 0.00ZM185.44 0.00L185.44 -35.96L196.77 -35.96L196.77 0.00ZM191.14 -40.92Q188.48 -40.92 186.74 -42.73Q185.00 -44.55 185.00 -47.14Q185.00 -49.80 186.74 -51.58Q188.48 -53.35 191.14 -53.35Q193.81 -53.35 195.51 -51.58Q197.21 -49.80 197.21 -47.14Q197.21 -44.55 195.51 -42.73Q193.81 -40.92 191.14 -40.92ZM209.86 0.00L209.86 -50.84L221.19 -50.84L221.19 0.00ZM201.72 -26.34L201.72 -35.96L229.33 -35.96L229.33 -26.34ZM265.07 0.81Q258.63 0.81 254.00 -1.29Q249.38 -3.40 245.53 -7.70L253.08 -15.17Q255.60 -12.28 258.67 -10.69Q261.74 -9.10 265.81 -9.10Q269.51 -9.10 271.54 -10.43Q273.58 -11.77 273.58 -14.13Q273.58 -16.28 272.25 -17.61Q270.91 -18.94 268.73 -19.91Q266.55 -20.87 263.92 -21.76Q261.29 -22.64 258.70 -23.79Q256.11 -24.94 253.93 -26.68Q251.75 -28.42 250.42 -31.04Q249.08 -33.67 249.08 -37.67Q249.08 -42.48 251.41 -45.95Q253.75 -49.43 257.89 -51.24Q262.03 -53.06 267.44 -53.06Q272.91 -53.06 277.46 -51.13Q282.01 -49.21 284.97 -45.88L277.43 -38.41Q275.06 -40.85 272.65 -42.03Q270.25 -43.22 267.21 -43.22Q264.18 -43.22 262.40 -42.07Q260.63 -40.92 260.63 -38.78Q260.63 -36.78 261.96 -35.56Q263.29 -34.34 265.47 -33.45Q267.66 -32.56 270.28 -31.67Q272.91 -30.78 275.50 -29.60Q278.09 -28.42 280.27 -26.60Q282.46 -24.79 283.79 -22.02Q285.12 -19.24 285.12 -15.17Q285.12 -7.70 279.79 -3.44Q274.47 0.81 265.07 0.81ZM296.59 0.00L296.59 -50.84L307.91 -50.84L307.91 0.00ZM288.45 -26.34L288.45 -35.96L316.05 -35.96L316.05 -26.34ZM335.29 0.74Q330.34 0.74 326.45 -1.70Q322.57 -4.14 320.31 -8.36Q318.05 -12.58 318.05 -17.98Q318.05 -23.38 320.31 -27.60Q322.57 -31.82 326.45 -34.26Q330.34 -36.70 335.29 -36.70Q338.92 -36.70 341.84 -35.30Q344.77 -33.89 346.62 -31.41Q348.47 -28.93 348.69 -25.75L348.69 -10.21Q348.47 -7.03 346.65 -4.55Q344.84 -2.07 341.88 -0.67Q338.92 0.74 335.29 0.74ZM337.59 -9.47Q341.21 -9.47 343.43 -11.88Q345.65 -14.28 345.65 -17.98Q345.65 -20.50 344.65 -22.42Q343.66 -24.35 341.84 -25.42Q340.03 -26.49 337.66 -26.49Q335.29 -26.49 333.48 -25.42Q331.67 -24.35 330.59 -22.42Q329.52 -20.50 329.52 -17.98Q329.52 -15.54 330.56 -13.62Q331.59 -11.69 333.44 -10.58Q335.29 -9.47 337.59 -9.47ZM345.21 0.00L345.21 -9.69L346.91 -18.43L345.21 -27.16L345.21 -35.96L356.31 -35.96L356.31 0.00ZM369.41 0.00L369.41 -50.84L380.73 -50.84L380.73 0.00ZM361.27 -26.34L361.27 -35.96L388.87 -35.96L388.87 -26.34ZM409.81 0.81Q404.85 0.81 401.04 -1.22Q397.23 -3.26 395.09 -6.84Q392.94 -10.43 392.94 -15.10L392.94 -35.96L404.26 -35.96L404.26 -15.24Q404.26 -13.39 404.89 -12.06Q405.52 -10.73 406.78 -9.99Q408.04 -9.25 409.81 -9.25Q412.33 -9.25 413.81 -10.84Q415.29 -12.43 415.29 -15.24L415.29 -35.96L426.61 -35.96L426.61 -15.17Q426.61 -10.43 424.46 -6.84Q422.32 -3.26 418.54 -1.22Q414.77 0.81 409.81 0.81ZM446.81 0.89Q443.63 0.89 440.56 0.07Q437.49 -0.74 434.86 -2.26Q432.23 -3.77 430.38 -5.77L436.82 -12.28Q438.60 -10.36 441.04 -9.29Q443.48 -8.21 446.37 -8.21Q448.37 -8.21 449.44 -8.81Q450.51 -9.40 450.51 -10.43Q450.51 -11.77 449.22 -12.47Q447.92 -13.17 445.92 -13.73Q443.93 -14.28 441.71 -14.95Q439.49 -15.61 437.49 -16.80Q435.49 -17.98 434.23 -20.09Q432.97 -22.20 432.97 -25.46Q432.97 -28.93 434.75 -31.49Q436.53 -34.04 439.78 -35.52Q443.04 -37.00 447.40 -37.00Q451.99 -37.00 455.88 -35.41Q459.76 -33.82 462.20 -30.71L455.77 -24.20Q454.06 -26.20 451.95 -27.01Q449.85 -27.82 447.85 -27.82Q445.92 -27.82 444.96 -27.27Q444.00 -26.71 444.00 -25.68Q444.00 -24.57 445.26 -23.90Q446.52 -23.24 448.51 -22.72Q450.51 -22.20 452.73 -21.46Q454.95 -20.72 456.95 -19.46Q458.95 -18.20 460.21 -16.09Q461.46 -13.99 461.46 -10.58Q461.46 -5.33 457.50 -2.22Q453.55 0.89 446.81 0.89ZM474.34 0.81Q471.45 0.81 469.53 -1.18Q467.61 -3.18 467.61 -5.99Q467.61 -8.95 469.53 -10.91Q471.45 -12.88 474.34 -12.88Q477.30 -12.88 479.19 -10.91Q481.07 -8.95 481.07 -5.99Q481.07 -3.18 479.19 -1.18Q477.30 0.81 474.34 0.81ZM474.34 -21.09Q471.45 -21.09 469.53 -23.09Q467.61 -25.09 467.61 -27.90Q467.61 -30.86 469.53 -32.82Q471.45 -34.78 474.34 -34.78Q477.30 -34.78 479.19 -32.82Q481.07 -30.86 481.07 -27.90Q481.07 -25.09 479.19 -23.09Q477.30 -21.09 474.34 -21.09Z"></path></g>
  </g>
  <g transform="translate(160.5,14) scale(0.192308)">
    <rect class="pill" x="3" y="3" width="411" height="150" rx="75" ry="75" stroke-width="6"></rect>
    <g class="ink" transform="translate(40,40) scale(4.75)"><path fill-rule="evenodd" d="M6.701 2.25c.577-1 2.02-1 2.598 0l5.196 9a1.5 1.5 0 0 1-1.299 2.25H2.804a1.5 1.5 0 0 1-1.3-2.25l5.197-9ZM8 4a.75.75 0 0 1 .75.75v3a.75.75 0 1 1-1.5 0v-3A.75.75 0 0 1 8 4Zm0 8a1 1 0 1 0 0-2 1 1 0 0 0 0 2Z" clip-rule="evenodd"></path></g>
    <g class="ink" transform="translate(138 105.35)"><path d="M7.70 0.00Q6.96 0.00 6.47 -0.48Q5.99 -0.96 5.99 -1.78L5.99 -50.02Q5.99 -50.84 6.47 -51.32Q6.96 -51.80 7.70 -51.80L13.76 -51.80Q14.58 -51.80 15.06 -51.32Q15.54 -50.84 15.54 -50.02L15.54 -1.78Q15.54 -0.96 15.06 -0.48Q14.58 0.00 13.76 0.00ZM28.33 0.00Q27.59 0.00 27.11 -0.48Q26.63 -0.96 26.63 -1.78L26.63 -36.70Q26.63 -37.52 27.11 -38.00Q27.59 -38.48 28.33 -38.48L33.59 -38.48Q34.40 -38.48 34.88 -38.00Q35.36 -37.52 35.36 -36.70L35.36 -33.60Q37.29 -36.04 40.28 -37.63Q43.28 -39.22 47.72 -39.22Q52.31 -39.22 55.64 -37.18Q58.97 -35.15 60.78 -31.41Q62.59 -27.68 62.59 -22.57L62.59 -1.78Q62.59 -0.96 62.11 -0.48Q61.63 0.00 60.82 0.00L55.19 0.00Q54.45 0.00 53.94 -0.48Q53.42 -0.96 53.42 -1.78L53.42 -22.13Q53.42 -26.71 51.20 -29.30Q48.98 -31.89 44.69 -31.89Q40.62 -31.89 38.17 -29.30Q35.73 -26.71 35.73 -22.13L35.73 -1.78Q35.73 -0.96 35.25 -0.48Q34.77 0.00 33.96 0.00ZM84.84 0.00Q83.73 0.00 83.14 -0.55Q82.54 -1.11 82.17 -1.85L68.34 -36.19Q68.26 -36.56 68.26 -36.93Q68.26 -37.52 68.71 -38.00Q69.15 -38.48 69.82 -38.48L75.14 -38.48Q75.96 -38.48 76.44 -38.00Q76.92 -37.52 76.99 -37.15L87.28 -10.21L97.57 -37.15Q97.71 -37.52 98.16 -38.00Q98.60 -38.48 99.42 -38.48L104.74 -38.48Q105.41 -38.48 105.85 -38.00Q106.30 -37.52 106.30 -36.93Q106.30 -36.56 106.22 -36.19L92.39 -1.85Q92.09 -1.11 91.46 -0.55Q90.83 0.00 89.72 0.00ZM123.02 0.74Q119.25 0.74 116.14 -0.78Q113.03 -2.29 111.18 -4.81Q109.33 -7.33 109.33 -10.51Q109.33 -15.69 113.55 -18.72Q117.77 -21.76 124.58 -22.79L134.94 -24.27L134.94 -26.05Q134.94 -29.30 133.24 -31.08Q131.53 -32.86 127.54 -32.86Q124.65 -32.86 122.88 -31.71Q121.10 -30.56 120.29 -28.71Q119.77 -27.68 118.66 -27.68L113.55 -27.68Q112.74 -27.68 112.33 -28.16Q111.92 -28.64 111.92 -29.30Q111.92 -30.49 112.85 -32.15Q113.77 -33.82 115.62 -35.45Q117.47 -37.07 120.43 -38.15Q123.39 -39.22 127.61 -39.22Q132.20 -39.22 135.35 -38.07Q138.49 -36.93 140.38 -35.00Q142.26 -33.08 143.12 -30.52Q143.97 -27.97 143.97 -25.23L143.97 -1.78Q143.97 -0.96 143.49 -0.48Q143.00 0.00 142.19 0.00L136.94 0.00Q136.20 0.00 135.72 -0.48Q135.23 -0.96 135.23 -1.78L135.23 -4.74Q134.27 -3.40 132.64 -2.15Q131.02 -0.89 128.65 -0.07Q126.28 0.74 123.02 0.74ZM125.24 -5.85Q127.98 -5.85 130.20 -6.99Q132.42 -8.14 133.72 -10.62Q135.01 -13.10 135.01 -16.87L135.01 -18.50L127.24 -17.32Q122.58 -16.65 120.29 -15.06Q117.99 -13.47 117.99 -11.17Q117.99 -9.40 119.03 -8.21Q120.06 -7.03 121.73 -6.44Q123.39 -5.85 125.24 -5.85ZM155.61 0.00Q154.87 0.00 154.35 -0.48Q153.83 -0.96 153.83 -1.78L153.83 -50.76Q153.83 -51.58 154.35 -52.06Q154.87 -52.54 155.61 -52.54L160.93 -52.54Q161.75 -52.54 162.23 -52.06Q162.71 -51.58 162.71 -50.76L162.71 -1.78Q162.71 -0.96 162.23 -0.48Q161.75 0.00 160.93 0.00ZM174.65 0.00Q173.91 0.00 173.43 -0.48Q172.95 -0.96 172.95 -1.78L172.95 -36.70Q172.95 -37.52 173.43 -38.00Q173.91 -38.48 174.65 -38.48L180.05 -38.48Q180.79 -38.48 181.28 -38.00Q181.76 -37.52 181.76 -36.70L181.76 -1.78Q181.76 -0.96 181.28 -0.48Q180.79 0.00 180.05 0.00ZM174.28 -45.07Q173.54 -45.07 173.02 -45.58Q172.51 -46.10 172.51 -46.84L172.51 -51.73Q172.51 -52.54 173.02 -53.06Q173.54 -53.58 174.28 -53.58L180.42 -53.58Q181.16 -53.58 181.68 -53.06Q182.20 -52.54 182.20 -51.73L182.20 -46.84Q182.20 -46.10 181.68 -45.58Q181.16 -45.07 180.42 -45.07ZM206.11 0.74Q202.26 0.74 199.34 -0.59Q196.41 -1.92 194.45 -4.33Q192.49 -6.73 191.53 -9.95Q190.57 -13.17 190.34 -16.87Q190.27 -18.20 190.27 -19.28Q190.27 -20.35 190.34 -21.61Q190.49 -25.23 191.49 -28.45Q192.49 -31.67 194.41 -34.08Q196.34 -36.48 199.30 -37.85Q202.26 -39.22 206.11 -39.22Q210.25 -39.22 213.06 -37.78Q215.87 -36.33 217.72 -34.19L217.72 -50.76Q217.72 -51.58 218.21 -52.06Q218.69 -52.54 219.43 -52.54L224.90 -52.54Q225.72 -52.54 226.20 -52.06Q226.68 -51.58 226.68 -50.76L226.68 -1.78Q226.68 -0.96 226.20 -0.48Q225.72 0.00 224.90 0.00L219.80 0.00Q219.06 0.00 218.58 -0.48Q218.09 -0.96 218.09 -1.78L218.09 -4.66Q216.24 -2.29 213.36 -0.78Q210.47 0.74 206.11 0.74ZM208.55 -6.59Q211.80 -6.59 213.77 -8.10Q215.73 -9.62 216.69 -11.91Q217.65 -14.21 217.72 -16.65Q217.80 -17.98 217.80 -19.50Q217.80 -21.02 217.72 -22.35Q217.65 -24.64 216.65 -26.82Q215.65 -29.01 213.65 -30.45Q211.66 -31.89 208.55 -31.89Q205.22 -31.89 203.29 -30.45Q201.37 -29.01 200.52 -26.60Q199.67 -24.20 199.52 -21.46Q199.37 -19.24 199.52 -17.02Q199.67 -14.28 200.52 -11.88Q201.37 -9.47 203.29 -8.03Q205.22 -6.59 208.55 -6.59Z"></path></g>
  </g>
</svg>
