<svg width="217" height="50" viewBox="0 0 217 50" xmlns="http://www.w3.org/2000/svg" role="img" aria-label="Permit Status: Future">
  <style>
    .tile  { fill: #FBFCFD; stroke: rgb(228,230,235); }
    .label { fill: rgb(102,112,133); }
    .pill  { fill: rgb(255,237,212); stroke: transparent; }
    .ink   { fill: rgb(159,45,0); }
    @media (prefers-color-scheme: dark) {
      .tile  { fill: #172032; stroke: rgb(66,77,96); }
      .label { fill: rgb(167,176,191); }
      .pill  { fill: rgb(159,45,0); stroke: rgb(255,105,0); }
      .ink   { fill: rgb(255,237,212); }
    }
  </style>
  <rect class="tile" x="0.5" y="0.5" width="216" height="49" rx="12" ry="12" stroke-width="1"></rect>
  <g class="label" transform="translate(16,29)"><path d="M4.01 -3L1.98 -3L1.98 -4.28L3.85 -4.28Q4.22 -4.28 4.52 -4.43Q4.82 -4.58 4.99 -4.86Q5.16 -5.14 5.16 -5.54L5.16 -5.54Q5.16 -5.93 4.99 -6.22Q4.82 -6.51 4.52 -6.66Q4.22 -6.81 3.85 -6.81L3.85 -6.81L1.98 -6.81L1.98 -8.08L4.01 -8.08Q4.78 -8.08 5.4 -7.77Q6.01 -7.46 6.37 -6.89Q6.73 -6.32 6.73 -5.54L6.73 -5.54Q6.73 -4.76 6.37 -4.19Q6.01 -3.62 5.4 -3.31Q4.78 -3 4.01 -3L4.01 -3M2.39 0L0.83 0L0.83 -8.08L2.39 -8.08L2.39 0M10.43 0L8.87 0L8.87 -8.08L10.43 -8.08L10.43 0M14.49 0L10.02 0L10.02 -1.38L14.49 -1.38L14.49 0M14.09 -3.46L10.02 -3.46L10.02 -4.8L14.09 -4.8L14.09 -3.46M14.43 -6.7L10.02 -6.7L10.02 -8.08L14.43 -8.08L14.43 -6.7M19.96 -3.38L17.97 -3.38L17.97 -4.6L19.85 -4.6Q20.42 -4.6 20.74 -4.89Q21.06 -5.19 21.06 -5.7L21.06 -5.7Q21.06 -6.18 20.74 -6.49Q20.42 -6.81 19.85 -6.81L19.85 -6.81L17.97 -6.81L17.97 -8.08L19.99 -8.08Q20.77 -8.08 21.36 -7.78Q21.95 -7.47 22.28 -6.95Q22.61 -6.42 22.61 -5.73L22.61 -5.73Q22.61 -5.01 22.28 -4.49Q21.95 -3.97 21.36 -3.67Q20.76 -3.38 19.96 -3.38L19.96 -3.38M18.39 0L16.82 0L16.82 -8.08L18.39 -8.08L18.39 0M23.14 0L21.24 0L18.57 -3.5L20.01 -3.94L23.14 0M26.62 0L25.06 0L25.06 -8.08L26.16 -8.08L29.44 -2.84L28.81 -2.84L32.07 -8.08L33.18 -8.08L33.18 0L31.63 0L31.63 -5.4L31.92 -5.31L29.65 -1.66L28.59 -1.66L26.31 -5.31L26.62 -5.4L26.62 0M37.43 0L35.87 0L35.87 -8.08L37.43 -8.08L37.43 0M43.7 0L42.12 0L42.12 -7.91L43.7 -7.91L43.7 0M46.28 -6.69L39.55 -6.69L39.55 -8.08L46.28 -8.08L46.28 -6.69M53.83 0.12L53.83 0.12Q52.85 0.12 52.16 -0.22Q51.46 -0.55 50.9 -1.22L50.9 -1.22L51.93 -2.25Q52.29 -1.78 52.76 -1.52Q53.23 -1.26 53.91 -1.26L53.91 -1.26Q54.52 -1.26 54.88 -1.51Q55.25 -1.75 55.25 -2.17L55.25 -2.17Q55.25 -2.54 55.04 -2.77Q54.83 -3 54.49 -3.16Q54.15 -3.32 53.75 -3.46Q53.34 -3.59 52.93 -3.76Q52.52 -3.93 52.18 -4.19Q51.84 -4.45 51.64 -4.86Q51.43 -5.27 51.43 -5.89L51.43 -5.89Q51.43 -6.62 51.78 -7.14Q52.14 -7.66 52.76 -7.93Q53.38 -8.21 54.17 -8.21L54.17 -8.21Q54.99 -8.21 55.66 -7.9Q56.33 -7.59 56.75 -7.1L56.75 -7.1L55.72 -6.06Q55.36 -6.45 54.99 -6.64Q54.61 -6.82 54.14 -6.82L54.14 -6.82Q53.6 -6.82 53.29 -6.61Q52.98 -6.41 52.98 -6.01L52.98 -6.01Q52.98 -5.68 53.19 -5.47Q53.39 -5.27 53.73 -5.12Q54.07 -4.97 54.48 -4.83Q54.89 -4.69 55.3 -4.52Q55.71 -4.35 56.05 -4.07Q56.38 -3.79 56.59 -3.36Q56.8 -2.93 56.8 -2.3L56.8 -2.3Q56.8 -1.17 56.01 -0.53Q55.21 0.12 53.83 0.12M62.32 0L60.74 0L60.74 -7.91L62.32 -7.91L62.32 0M64.89 -6.69L58.17 -6.69L58.17 -8.08L64.89 -8.08L64.89 -6.69M67 0L65.37 0L68.62 -8.08L69.9 -8.08L73.14 0L71.47 0L68.97 -6.64L69.54 -6.64L67 0M71.44 -1.51L67.09 -1.51L67.09 -2.82L71.44 -2.82L71.44 -1.51M77.75 0L76.18 0L76.18 -7.91L77.75 -7.91L77.75 0M80.33 -6.69L73.6 -6.69L73.6 -8.08L80.33 -8.08L80.33 -6.69M85.55 0.12L85.55 0.12Q84.59 0.12 83.85 -0.3Q83.11 -0.72 82.69 -1.46Q82.26 -2.2 82.26 -3.13L82.26 -3.13L82.26 -8.08L83.82 -8.08L83.82 -3.08Q83.82 -2.54 84.05 -2.15Q84.27 -1.76 84.67 -1.55Q85.07 -1.33 85.55 -1.33L85.55 -1.33Q86.04 -1.33 86.42 -1.55Q86.8 -1.76 87.03 -2.15Q87.25 -2.54 87.25 -3.07L87.25 -3.07L87.25 -8.08L88.83 -8.08L88.83 -3.12Q88.83 -2.18 88.4 -1.45Q87.98 -0.72 87.24 -0.3Q86.51 0.12 85.55 0.12M93.66 0.12L93.66 0.12Q92.68 0.12 91.98 -0.22Q91.29 -0.55 90.72 -1.22L90.72 -1.22L91.76 -2.25Q92.12 -1.78 92.59 -1.52Q93.06 -1.26 93.74 -1.26L93.74 -1.26Q94.35 -1.26 94.71 -1.51Q95.07 -1.75 95.07 -2.17L95.07 -2.17Q95.07 -2.54 94.86 -2.77Q94.66 -3 94.32 -3.16Q93.98 -3.32 93.57 -3.46Q93.16 -3.59 92.75 -3.76Q92.35 -3.93 92.01 -4.19Q91.67 -4.45 91.46 -4.86Q91.25 -5.27 91.25 -5.89L91.25 -5.89Q91.25 -6.62 91.61 -7.14Q91.97 -7.66 92.59 -7.93Q93.21 -8.21 93.99 -8.21L93.99 -8.21Q94.82 -8.21 95.48 -7.9Q96.15 -7.59 96.58 -7.1L96.58 -7.1L95.54 -6.06Q95.19 -6.45 94.81 -6.64Q94.44 -6.82 93.97 -6.82L93.97 -6.82Q93.43 -6.82 93.12 -6.61Q92.81 -6.41 92.81 -6.01L92.81 -6.01Q92.81 -5.68 93.01 -5.47Q93.22 -5.27 93.56 -5.12Q93.9 -4.97 94.31 -4.83Q94.71 -4.69 95.12 -4.52Q95.53 -4.35 95.87 -4.07Q96.21 -3.79 96.42 -3.36Q96.62 -2.93 96.62 -2.3L96.62 -2.3Q96.62 -1.17 95.83 -0.53Q95.04 0.12 93.66 0.12"></path></g>
  <g transform="translate(126,10) scale(0.192308)">
    <rect class="pill" x="3" y="3" width="415" height="150" rx="75" ry="75" stroke-width="6"></rect>
    <g class="ink" transform="translate(40,40) scale(4.75)"><path d="M2.53 3.956A1 1 0 0 0 1 4.804v6.392a1 1 0 0 0 1.53.848l5.113-3.196c.16-.1.279-.233.357-.383v2.73a1 1 0 0 0 1.53.849l5.113-3.196a1 1 0 0 0 0-1.696L9.53 3.956A1 1 0 0 0 8 4.804v2.731a.992.992 0 0 0-.357-.383L2.53 3.956Z"></path></g>
    <g class="ink" transform="translate(138 105.35)"><path d="M7.70 0.00Q6.96 0.00 6.47 -0.48Q5.99 -0.96 5.99 -1.78L5.99 -50.02Q5.99 -50.84 6.47 -51.32Q6.96 -51.80 7.70 -51.80L39.29 -51.80Q40.11 -51.80 40.59 -51.32Q41.07 -50.84 41.07 -50.02L41.07 -45.44Q41.07 -44.70 40.59 -44.18Q40.11 -43.66 39.29 -43.66L15.24 -43.66L15.24 -28.71L37.81 -28.71Q38.63 -28.71 39.11 -28.19Q39.59 -27.68 39.59 -26.86L39.59 -22.35Q39.59 -21.61 39.11 -21.09Q38.63 -20.57 37.81 -20.57L15.24 -20.57L15.24 -1.78Q15.24 -0.96 14.73 -0.48Q14.21 0.00 13.39 0.00ZM59.30 0.74Q54.71 0.74 51.41 -1.29Q48.12 -3.33 46.38 -7.10Q44.64 -10.88 44.64 -15.91L44.64 -36.70Q44.64 -37.52 45.12 -38.00Q45.61 -38.48 46.35 -38.48L52.04 -38.48Q52.78 -38.48 53.26 -38.00Q53.75 -37.52 53.75 -36.70L53.75 -16.35Q53.75 -6.59 62.33 -6.59Q66.40 -6.59 68.80 -9.18Q71.21 -11.77 71.21 -16.35L71.21 -36.70Q71.21 -37.52 71.73 -38.00Q72.25 -38.48 72.99 -38.48L78.61 -38.48Q79.35 -38.48 79.87 -38.00Q80.39 -37.52 80.39 -36.70L80.39 -1.78Q80.39 -0.96 79.87 -0.48Q79.35 0.00 78.61 0.00L73.36 0.00Q72.62 0.00 72.10 -0.48Q71.58 -0.96 71.58 -1.78L71.58 -4.88Q69.66 -2.22 66.73 -0.74Q63.81 0.74 59.30 0.74ZM107.20 0.00Q102.83 0.00 99.94 -1.55Q97.06 -3.11 95.65 -6.14Q94.25 -9.18 94.25 -13.54L94.25 -31.23L88.47 -31.23Q87.66 -31.23 87.18 -31.75Q86.70 -32.26 86.70 -33.00L86.70 -36.70Q86.70 -37.52 87.18 -38.00Q87.66 -38.48 88.47 -38.48L94.25 -38.48L94.25 -50.76Q94.25 -51.58 94.73 -52.06Q95.21 -52.54 96.02 -52.54L101.28 -52.54Q102.02 -52.54 102.50 -52.06Q102.98 -51.58 102.98 -50.76L102.98 -38.48L112.23 -38.48Q112.97 -38.48 113.49 -38.00Q114.00 -37.52 114.00 -36.70L114.00 -33.00Q114.00 -32.26 113.49 -31.75Q112.97 -31.23 112.23 -31.23L102.98 -31.23L102.98 -14.28Q102.98 -11.10 104.09 -9.29Q105.20 -7.47 108.01 -7.47L112.89 -7.47Q113.71 -7.47 114.19 -6.99Q114.67 -6.51 114.67 -5.77L114.67 -1.78Q114.67 -0.96 114.19 -0.48Q113.71 0.00 112.89 0.00ZM135.76 0.74Q131.17 0.74 127.87 -1.29Q124.58 -3.33 122.84 -7.10Q121.10 -10.88 121.10 -15.91L121.10 -36.70Q121.10 -37.52 121.58 -38.00Q122.07 -38.48 122.81 -38.48L128.50 -38.48Q129.24 -38.48 129.72 -38.00Q130.21 -37.52 130.21 -36.70L130.21 -16.35Q130.21 -6.59 138.79 -6.59Q142.86 -6.59 145.26 -9.18Q147.67 -11.77 147.67 -16.35L147.67 -36.70Q147.67 -37.52 148.19 -38.00Q148.71 -38.48 149.45 -38.48L155.07 -38.48Q155.81 -38.48 156.33 -38.00Q156.85 -37.52 156.85 -36.70L156.85 -1.78Q156.85 -0.96 156.33 -0.48Q155.81 0.00 155.07 0.00L149.82 0.00Q149.08 0.00 148.56 -0.48Q148.04 -0.96 148.04 -1.78L148.04 -4.88Q146.12 -2.22 143.19 -0.74Q140.27 0.74 135.76 0.74ZM168.71 0.00Q167.97 0.00 167.49 -0.48Q167.01 -0.96 167.01 -1.78L167.01 -36.70Q167.01 -37.44 167.49 -37.96Q167.97 -38.48 168.71 -38.48L173.96 -38.48Q174.70 -38.48 175.22 -37.96Q175.74 -37.44 175.74 -36.70L175.74 -33.52Q177.44 -35.96 180.07 -37.22Q182.69 -38.48 186.32 -38.48L189.35 -38.48Q190.09 -38.48 190.58 -38.00Q191.06 -37.52 191.06 -36.70L191.06 -32.12Q191.06 -31.38 190.58 -30.86Q190.09 -30.34 189.35 -30.34L183.95 -30.34Q180.25 -30.34 178.18 -28.27Q176.11 -26.20 176.11 -22.50L176.11 -1.78Q176.11 -0.96 175.59 -0.48Q175.07 0.00 174.33 0.00ZM212.66 0.74Q204.60 0.74 199.86 -4.00Q195.13 -8.73 194.76 -17.24Q194.68 -18.06 194.68 -19.31Q194.68 -20.57 194.76 -21.31Q195.05 -26.86 197.27 -30.86Q199.49 -34.85 203.38 -37.04Q207.26 -39.22 212.59 -39.22Q218.51 -39.22 222.47 -36.78Q226.43 -34.34 228.50 -29.93Q230.57 -25.53 230.57 -19.76L230.57 -18.28Q230.57 -17.54 230.05 -17.02Q229.54 -16.50 228.80 -16.50L203.86 -16.50Q203.86 -16.50 203.86 -16.28Q203.86 -16.06 203.86 -15.91Q204.01 -13.25 205.01 -10.91Q206.00 -8.58 207.97 -7.18Q209.93 -5.77 212.59 -5.77Q214.81 -5.77 216.33 -6.44Q217.84 -7.10 218.77 -7.99Q219.69 -8.88 220.06 -9.40Q220.73 -10.21 221.14 -10.40Q221.54 -10.58 222.36 -10.58L227.91 -10.58Q228.65 -10.58 229.13 -10.17Q229.61 -9.77 229.54 -9.10Q229.46 -7.92 228.32 -6.25Q227.17 -4.59 225.06 -2.96Q222.95 -1.33 219.81 -0.30Q216.66 0.74 212.66 0.74ZM203.86 -22.42L221.40 -22.42L221.40 -22.64Q221.40 -25.60 220.36 -27.93Q219.32 -30.27 217.36 -31.56Q215.40 -32.86 212.59 -32.86Q209.85 -32.86 207.89 -31.56Q205.93 -30.27 204.89 -27.93Q203.86 -25.60 203.86 -22.64Z"></path></g>
  </g>
</svg>
