<svg width="224.7" height="50" viewBox="0 0 224.7 50" xmlns="http://www.w3.org/2000/svg" role="img" aria-label="Permit Status: Invalid">
  <style>
    .tile  { fill: #FCFCFD; stroke: rgb(228,230,235); }
    .label { fill: rgb(102,112,133); }
    .pill  { fill: rgb(255,228,230); stroke: transparent; }
    .ink   { fill: rgb(165,0,54); }
    @media (prefers-color-scheme: dark) {
      .tile  { fill: #1E2634; stroke: rgb(66,77,96); }
      .label { fill: rgb(167,176,191); }
      .pill  { fill: rgb(165,0,54); stroke: rgb(255,32,86); }
      .ink   { fill: rgb(255,228,230); }
    }
  </style>
  <rect class="tile" x="0.5" y="0.5" width="223.7" height="49" rx="12" ry="12" stroke-width="1"></rect>
  <g class="label" transform="translate(16,29.2)"><path d="M2.34 0L0.84 0L0.84-8.37L3.97-8.37Q4.93-8.37 5.59-8.01Q6.24-7.65 6.58-7.02Q6.92-6.40 6.92-5.60Q6.92-4.80 6.58-4.17Q6.24-3.54 5.58-3.19Q4.91-2.83 3.95-2.83L2.34-2.83L2.34 0M2.34-7.11L2.34-4.07L3.75-4.07Q4.60-4.07 4.99-4.50Q5.39-4.93 5.39-5.60Q5.39-6.27 4.99-6.69Q4.60-7.11 3.74-7.11M14.75 0L9.30 0L9.30-8.37L14.73-8.37L14.73-7.10L10.79-7.10L10.79-4.85L14.44-4.85L14.44-3.60L10.79-3.60L10.79-1.26L14.75-1.26M18.79 0L17.29 0L17.29-8.37L20.42-8.37Q21.86-8.37 22.62-7.63Q23.37-6.88 23.37-5.69Q23.37-4.84 22.99-4.23Q22.60-3.62 21.86-3.32L23.68 0L22 0L20.35-3.07L18.79-3.07L18.79 0M18.79-7.11L18.79-4.31L20.20-4.31Q21.05-4.31 21.44-4.67Q21.84-5.03 21.84-5.69Q21.84-6.36 21.44-6.74Q21.05-7.11 20.19-7.11M27.30 0L25.83 0L25.83-8.37L28.09-8.37L29.68-4.05Q29.76-3.80 29.87-3.41Q29.98-3.01 30.09-2.56Q30.20-2.11 30.30-1.69Q30.40-2.10 30.51-2.55Q30.62-3 30.73-3.40Q30.84-3.80 30.92-4.05L32.49-8.37L34.75-8.37L34.75 0L33.26 0L33.26-4.22Q33.26-4.54 33.27-5Q33.28-5.46 33.29-5.99Q33.30-6.51 33.31-7.01Q33.17-6.47 33.01-5.94Q32.85-5.40 32.71-4.95Q32.57-4.50 32.47-4.22L30.93 0L29.65 0L28.09-4.22Q27.99-4.49 27.85-4.93Q27.71-5.37 27.56-5.90Q27.40-6.42 27.24-6.96Q27.26-6.49 27.27-5.98Q27.28-5.46 27.29-5Q27.30-4.54 27.30-4.22M37.47-8.37L38.97-8.37L38.97 0L37.47 0M43.90-7.10L41.31-7.10L41.31-8.37L47.97-8.37L47.97-7.10L45.40-7.10L45.40 0L43.90 0M57.19 0.13Q55.73 0.13 54.86-0.54Q53.99-1.22 53.94-2.46L55.42-2.46Q55.47-1.80 55.97-1.47Q56.47-1.15 57.18-1.15Q57.92-1.15 58.39-1.49Q58.85-1.82 58.85-2.36Q58.85-2.85 58.44-3.10Q58.02-3.35 57.34-3.52L56.40-3.77Q55.35-4.04 54.76-4.58Q54.17-5.13 54.17-6.01Q54.17-6.76 54.57-7.31Q54.97-7.86 55.66-8.17Q56.35-8.48 57.23-8.48Q58.12-8.48 58.79-8.17Q59.46-7.86 59.84-7.32Q60.22-6.77 60.24-6.08L58.79-6.08Q58.73-6.61 58.31-6.91Q57.88-7.20 57.20-7.20Q56.50-7.20 56.09-6.89Q55.69-6.58 55.69-6.10Q55.69-5.75 55.90-5.53Q56.12-5.31 56.45-5.17Q56.78-5.04 57.11-4.95L57.89-4.75Q58.51-4.60 59.08-4.32Q59.64-4.03 60-3.55Q60.35-3.08 60.35-2.35Q60.35-1.61 59.98-1.05Q59.60-0.49 58.89-0.18Q58.19 0.13 57.19 0.13M64.97-7.10L62.39-7.10L62.39-8.37L69.05-8.37L69.05-7.10L66.47-7.10L66.47 0L64.97 0M72.47 0L70.83 0L73.75-8.37L75.65-8.37L78.64 0L77 0L76.28-2.07L73.15-2.07L72.47 0M73.91-4.35L73.55-3.28L75.87-3.28L75.51-4.35Q75.32-4.92 75.12-5.63Q74.92-6.33 74.69-7.20Q74.46-6.32 74.27-5.61Q74.08-4.90 73.91-4.35M83-7.10L80.42-7.10L80.42-8.37L87.08-8.37L87.08-7.10L84.50-7.10L84.50 0L83 0M92.81 0.12Q91.79 0.12 91.03-0.26Q90.26-0.65 89.84-1.33Q89.42-2.01 89.42-2.90L89.42-8.37L90.92-8.37L90.92-3.03Q90.92-2.24 91.43-1.73Q91.95-1.22 92.81-1.22Q93.68-1.22 94.19-1.73Q94.70-2.24 94.70-3.03L94.70-8.37L96.20-8.37L96.20-2.90Q96.20-2.01 95.78-1.33Q95.36-0.65 94.59-0.26Q93.83 0.12 92.81 0.12M101.85 0.13Q100.39 0.13 99.53-0.54Q98.66-1.22 98.61-2.46L100.09-2.46Q100.14-1.80 100.64-1.47Q101.14-1.15 101.84-1.15Q102.58-1.15 103.05-1.49Q103.52-1.82 103.52-2.36Q103.52-2.85 103.11-3.10Q102.69-3.35 102.01-3.52L101.06-3.77Q100.01-4.04 99.43-4.58Q98.84-5.13 98.84-6.01Q98.84-6.76 99.24-7.31Q99.64-7.86 100.33-8.17Q101.02-8.48 101.89-8.48Q102.79-8.48 103.46-8.17Q104.13-7.86 104.51-7.32Q104.89-6.77 104.91-6.08L103.45-6.08Q103.40-6.61 102.97-6.91Q102.55-7.20 101.87-7.20Q101.16-7.20 100.76-6.89Q100.35-6.58 100.35-6.10Q100.35-5.75 100.57-5.53Q100.79-5.31 101.12-5.17Q101.44-5.04 101.78-4.95L102.56-4.75Q103.18-4.60 103.74-4.32Q104.31-4.03 104.66-3.55Q105.02-3.08 105.02-2.35Q105.02-1.61 104.64-1.05Q104.27-0.49 103.56-0.18Q102.85 0.13 101.85 0.13"></path></g>
  <g transform="translate(134.6,10) scale(0.192308)">
    <rect class="pill" x="3" y="3" width="411" height="150" rx="75" ry="75" stroke-width="6"></rect>
    <g class="ink" transform="translate(40,40) scale(4.75)"><path fill-rule="evenodd" d="M6.701 2.25c.577-1 2.02-1 2.598 0l5.196 9a1.5 1.5 0 0 1-1.299 2.25H2.804a1.5 1.5 0 0 1-1.3-2.25l5.197-9ZM8 4a.75.75 0 0 1 .75.75v3a.75.75 0 1 1-1.5 0v-3A.75.75 0 0 1 8 4Zm0 8a1 1 0 1 0 0-2 1 1 0 0 0 0 2Z" clip-rule="evenodd"></path></g>
    <g class="ink" transform="translate(138 105.35)"><path d="M7.70 0.00Q6.96 0.00 6.47 -0.48Q5.99 -0.96 5.99 -1.78L5.99 -50.02Q5.99 -50.84 6.47 -51.32Q6.96 -51.80 7.70 -51.80L13.76 -51.80Q14.58 -51.80 15.06 -51.32Q15.54 -50.84 15.54 -50.02L15.54 -1.78Q15.54 -0.96 15.06 -0.48Q14.58 0.00 13.76 0.00ZM28.33 0.00Q27.59 0.00 27.11 -0.48Q26.63 -0.96 26.63 -1.78L26.63 -36.70Q26.63 -37.52 27.11 -38.00Q27.59 -38.48 28.33 -38.48L33.59 -38.48Q34.40 -38.48 34.88 -38.00Q35.36 -37.52 35.36 -36.70L35.36 -33.60Q37.29 -36.04 40.28 -37.63Q43.28 -39.22 47.72 -39.22Q52.31 -39.22 55.64 -37.18Q58.97 -35.15 60.78 -31.41Q62.59 -27.68 62.59 -22.57L62.59 -1.78Q62.59 -0.96 62.11 -0.48Q61.63 0.00 60.82 0.00L55.19 0.00Q54.45 0.00 53.94 -0.48Q53.42 -0.96 53.42 -1.78L53.42 -22.13Q53.42 -26.71 51.20 -29.30Q48.98 -31.89 44.69 -31.89Q40.62 -31.89 38.17 -29.30Q35.73 -26.71 35.73 -22.13L35.73 -1.78Q35.73 -0.96 35.25 -0.48Q34.77 0.00 33.96 0.00ZM84.84 0.00Q83.73 0.00 83.14 -0.55Q82.54 -1.11 82.17 -1.85L68.34 -36.19Q68.26 -36.56 68.26 -36.93Q68.26 -37.52 68.71 -38.00Q69.15 -38.48 69.82 -38.48L75.14 -38.48Q75.96 -38.48 76.44 -38.00Q76.92 -37.52 76.99 -37.15L87.28 -10.21L97.57 -37.15Q97.71 -37.52 98.16 -38.00Q98.60 -38.48 99.42 -38.48L104.74 -38.48Q105.41 -38.48 105.85 -38.00Q106.30 -37.52 106.30 -36.93Q106.30 -36.56 106.22 -36.19L92.39 -1.85Q92.09 -1.11 91.46 -0.55Q90.83 0.00 89.72 0.00ZM123.02 0.74Q119.25 0.74 116.14 -0.78Q113.03 -2.29 111.18 -4.81Q109.33 -7.33 109.33 -10.51Q109.33 -15.69 113.55 -18.72Q117.77 -21.76 124.58 -22.79L134.94 -24.27L134.94 -26.05Q134.94 -29.30 133.24 -31.08Q131.53 -32.86 127.54 -32.86Q124.65 -32.86 122.88 -31.71Q121.10 -30.56 120.29 -28.71Q119.77 -27.68 118.66 -27.68L113.55 -27.68Q112.74 -27.68 112.33 -28.16Q111.92 -28.64 111.92 -29.30Q111.92 -30.49 112.85 -32.15Q113.77 -33.82 115.62 -35.45Q117.47 -37.07 120.43 -38.15Q123.39 -39.22 127.61 -39.22Q132.20 -39.22 135.35 -38.07Q138.49 -36.93 140.38 -35.00Q142.26 -33.08 143.12 -30.52Q143.97 -27.97 143.97 -25.23L143.97 -1.78Q143.97 -0.96 143.49 -0.48Q143.00 0.00 142.19 0.00L136.94 0.00Q136.20 0.00 135.72 -0.48Q135.23 -0.96 135.23 -1.78L135.23 -4.74Q134.27 -3.40 132.64 -2.15Q131.02 -0.89 128.65 -0.07Q126.28 0.74 123.02 0.74ZM125.24 -5.85Q127.98 -5.85 130.20 -6.99Q132.42 -8.14 133.72 -10.62Q135.01 -13.10 135.01 -16.87L135.01 -18.50L127.24 -17.32Q122.58 -16.65 120.29 -15.06Q117.99 -13.47 117.99 -11.17Q117.99 -9.40 119.03 -8.21Q120.06 -7.03 121.73 -6.44Q123.39 -5.85 125.24 -5.85ZM155.61 0.00Q154.87 0.00 154.35 -0.48Q153.83 -0.96 153.83 -1.78L153.83 -50.76Q153.83 -51.58 154.35 -52.06Q154.87 -52.54 155.61 -52.54L160.93 -52.54Q161.75 -52.54 162.23 -52.06Q162.71 -51.58 162.71 -50.76L162.71 -1.78Q162.71 -0.96 162.23 -0.48Q161.75 0.00 160.93 0.00ZM174.65 0.00Q173.91 0.00 173.43 -0.48Q172.95 -0.96 172.95 -1.78L172.95 -36.70Q172.95 -37.52 173.43 -38.00Q173.91 -38.48 174.65 -38.48L180.05 -38.48Q180.79 -38.48 181.28 -38.00Q181.76 -37.52 181.76 -36.70L181.76 -1.78Q181.76 -0.96 181.28 -0.48Q180.79 0.00 180.05 0.00ZM174.28 -45.07Q173.54 -45.07 173.02 -45.58Q172.51 -46.10 172.51 -46.84L172.51 -51.73Q172.51 -52.54 173.02 -53.06Q173.54 -53.58 174.28 -53.58L180.42 -53.58Q181.16 -53.58 181.68 -53.06Q182.20 -52.54 182.20 -51.73L182.20 -46.84Q182.20 -46.10 181.68 -45.58Q181.16 -45.07 180.42 -45.07ZM206.11 0.74Q202.26 0.74 199.34 -0.59Q196.41 -1.92 194.45 -4.33Q192.49 -6.73 191.53 -9.95Q190.57 -13.17 190.34 -16.87Q190.27 -18.20 190.27 -19.28Q190.27 -20.35 190.34 -21.61Q190.49 -25.23 191.49 -28.45Q192.49 -31.67 194.41 -34.08Q196.34 -36.48 199.30 -37.85Q202.26 -39.22 206.11 -39.22Q210.25 -39.22 213.06 -37.78Q215.87 -36.33 217.72 -34.19L217.72 -50.76Q217.72 -51.58 218.21 -52.06Q218.69 -52.54 219.43 -52.54L224.90 -52.54Q225.72 -52.54 226.20 -52.06Q226.68 -51.58 226.68 -50.76L226.68 -1.78Q226.68 -0.96 226.20 -0.48Q225.72 0.00 224.90 0.00L219.80 0.00Q219.06 0.00 218.58 -0.48Q218.09 -0.96 218.09 -1.78L218.09 -4.66Q216.24 -2.29 213.36 -0.78Q210.47 0.74 206.11 0.74ZM208.55 -6.59Q211.80 -6.59 213.77 -8.10Q215.73 -9.62 216.69 -11.91Q217.65 -14.21 217.72 -16.65Q217.80 -17.98 217.80 -19.50Q217.80 -21.02 217.72 -22.35Q217.65 -24.64 216.65 -26.82Q215.65 -29.01 213.65 -30.45Q211.66 -31.89 208.55 -31.89Q205.22 -31.89 203.29 -30.45Q201.37 -29.01 200.52 -26.60Q199.67 -24.20 199.52 -21.46Q199.37 -19.24 199.52 -17.02Q199.67 -14.28 200.52 -11.88Q201.37 -9.47 203.29 -8.03Q205.22 -6.59 208.55 -6.59Z"></path></g>
  </g>
</svg>
