<svg width="216.2" height="50" viewBox="0 0 216.2 50" xmlns="http://www.w3.org/2000/svg" role="img" aria-label="Permit Status: Invalid">
  <style>
    .tile  { fill: #FBFCFD; stroke: rgb(228,230,235); }
    .label { fill: rgb(102,112,133); }
    .pill  { fill: rgb(255,228,230); stroke: transparent; }
    .ink   { fill: rgb(165,0,54); }
    @media (prefers-color-scheme: dark) {
      .tile  { fill: #172032; stroke: rgb(66,77,96); }
      .label { fill: rgb(167,176,191); }
      .pill  { fill: rgb(165,0,54); stroke: rgb(255,32,86); }
      .ink   { fill: rgb(255,228,230); }
    }
  </style>
  <rect class="tile" x="0.5" y="0.5" width="215.2" height="49" rx="12" ry="12" stroke-width="1"></rect>
  <g class="label" transform="translate(16,29)"><path d="M4.01-3L1.98-3L1.98-4.28L3.85-4.28Q4.22-4.28 4.52-4.43Q4.82-4.58 4.99-4.86Q5.16-5.14 5.16-5.54Q5.16-5.93 4.99-6.22Q4.82-6.51 4.52-6.66Q4.22-6.81 3.85-6.81L1.98-6.81L1.98-8.08L4.01-8.08Q4.78-8.08 5.40-7.77Q6.01-7.46 6.37-6.89Q6.73-6.33 6.73-5.54Q6.73-4.76 6.37-4.19Q6.01-3.62 5.40-3.31Q4.78-3 4.01-3M2.39 0L0.83 0L0.83-8.08L2.39-8.08M10.43 0L8.87 0L8.87-8.08L10.43-8.08L10.43 0M14.49 0L10.02 0L10.02-1.38L14.49-1.38L14.49 0M14.09-3.46L10.02-3.46L10.02-4.80L14.09-4.80L14.09-3.46M14.43-6.70L10.02-6.70L10.02-8.08L14.43-8.08M19.96-3.38L17.97-3.38L17.97-4.60L19.85-4.60Q20.42-4.60 20.74-4.89Q21.06-5.19 21.06-5.70Q21.06-6.18 20.74-6.49Q20.42-6.81 19.85-6.81L17.97-6.81L17.97-8.08L19.99-8.08Q20.77-8.08 21.36-7.78Q21.95-7.47 22.28-6.95Q22.61-6.42 22.61-5.73Q22.61-5.01 22.28-4.49Q21.95-3.97 21.36-3.67Q20.76-3.38 19.96-3.38M18.39 0L16.82 0L16.82-8.08L18.39-8.08L18.39 0M23.14 0L21.24 0L18.57-3.50L20.01-3.94M26.62 0L25.06 0L25.06-8.08L26.16-8.08L29.44-2.84L28.81-2.84L32.07-8.08L33.18-8.08L33.18 0L31.63 0L31.63-5.41L31.92-5.31L29.65-1.66L28.59-1.66L26.31-5.31L26.62-5.41M37.43 0L35.87 0L35.87-8.08L37.43-8.08M43.70 0L42.12 0L42.12-7.91L43.70-7.91L43.70 0M46.28-6.69L39.55-6.69L39.55-8.08L46.28-8.08M53.83 0.11Q52.85 0.11 52.16-0.22Q51.46-0.55 50.90-1.22L51.93-2.25Q52.29-1.78 52.76-1.52Q53.23-1.26 53.91-1.26Q54.52-1.26 54.88-1.51Q55.25-1.75 55.25-2.17Q55.25-2.54 55.04-2.77Q54.83-3 54.49-3.16Q54.15-3.32 53.75-3.46Q53.34-3.59 52.93-3.76Q52.52-3.93 52.18-4.19Q51.84-4.45 51.64-4.86Q51.43-5.27 51.43-5.89Q51.43-6.62 51.78-7.14Q52.14-7.66 52.76-7.93Q53.38-8.21 54.17-8.21Q54.99-8.21 55.66-7.90Q56.33-7.59 56.75-7.10L55.72-6.06Q55.36-6.45 54.99-6.64Q54.61-6.82 54.14-6.82Q53.60-6.82 53.29-6.61Q52.98-6.41 52.98-6.01Q52.98-5.68 53.19-5.47Q53.39-5.27 53.73-5.12Q54.07-4.97 54.48-4.83Q54.89-4.69 55.30-4.52Q55.71-4.35 56.05-4.07Q56.38-3.79 56.59-3.36Q56.80-2.93 56.80-2.30Q56.80-1.17 56.01-0.53Q55.21 0.11 53.83 0.11M62.32 0L60.74 0L60.74-7.91L62.32-7.91L62.32 0M64.89-6.69L58.17-6.69L58.17-8.08L64.89-8.08M67 0L65.37 0L68.62-8.08L69.90-8.08L73.14 0L71.47 0L68.97-6.64L69.54-6.64L67 0M71.44-1.51L67.09-1.51L67.09-2.82L71.44-2.82M77.75 0L76.18 0L76.18-7.91L77.75-7.91L77.75 0M80.33-6.69L73.60-6.69L73.60-8.08L80.33-8.08M85.55 0.11Q84.59 0.11 83.85-0.30Q83.11-0.72 82.69-1.46Q82.26-2.20 82.26-3.13L82.26-8.08L83.82-8.08L83.82-3.08Q83.82-2.54 84.05-2.15Q84.27-1.76 84.67-1.55Q85.07-1.33 85.55-1.33Q86.04-1.33 86.42-1.55Q86.80-1.76 87.03-2.15Q87.25-2.54 87.25-3.07L87.25-8.08L88.83-8.08L88.83-3.12Q88.83-2.18 88.40-1.45Q87.98-0.72 87.24-0.30Q86.51 0.11 85.55 0.11M93.66 0.11Q92.68 0.11 91.98-0.22Q91.29-0.55 90.72-1.22L91.76-2.25Q92.12-1.78 92.59-1.52Q93.06-1.26 93.74-1.26Q94.35-1.26 94.71-1.51Q95.07-1.75 95.07-2.17Q95.07-2.54 94.86-2.77Q94.66-3 94.32-3.16Q93.98-3.32 93.57-3.46Q93.16-3.59 92.75-3.76Q92.35-3.93 92.01-4.19Q91.67-4.45 91.46-4.86Q91.25-5.27 91.25-5.89Q91.25-6.62 91.61-7.14Q91.97-7.66 92.59-7.93Q93.21-8.21 93.99-8.21Q94.82-8.21 95.48-7.90Q96.15-7.59 96.58-7.10L95.54-6.06Q95.19-6.45 94.81-6.64Q94.44-6.82 93.97-6.82Q93.43-6.82 93.12-6.61Q92.81-6.41 92.81-6.01Q92.81-5.68 93.01-5.47Q93.22-5.27 93.56-5.12Q93.90-4.97 94.31-4.83Q94.71-4.69 95.12-4.52Q95.53-4.35 95.87-4.07Q96.21-3.79 96.42-3.36Q96.62-2.93 96.62-2.30Q96.62-1.17 95.83-0.53Q95.04 0.11 93.66 0.11"></path></g>
  <g transform="translate(126,10) scale(0.192308)">
    <rect class="pill" x="3" y="3" width="411" height="150" rx="75" ry="75" stroke-width="6"></rect>
    <g class="ink" transform="translate(40,40) scale(4.75)"><path fill-rule="evenodd" d="M6.701 2.25c.577-1 2.02-1 2.598 0l5.196 9a1.5 1.5 0 0 1-1.299 2.25H2.804a1.5 1.5 0 0 1-1.3-2.25l5.197-9ZM8 4a.75.75 0 0 1 .75.75v3a.75.75 0 1 1-1.5 0v-3A.75.75 0 0 1 8 4Zm0 8a1 1 0 1 0 0-2 1 1 0 0 0 0 2Z" clip-rule="evenodd"></path></g>
    <g class="ink" transform="translate(138 105.35)"><path d="M7.70 0.00Q6.96 0.00 6.47 -0.48Q5.99 -0.96 5.99 -1.78L5.99 -50.02Q5.99 -50.84 6.47 -51.32Q6.96 -51.80 7.70 -51.80L13.76 -51.80Q14.58 -51.80 15.06 -51.32Q15.54 -50.84 15.54 -50.02L15.54 -1.78Q15.54 -0.96 15.06 -0.48Q14.58 0.00 13.76 0.00ZM28.33 0.00Q27.59 0.00 27.11 -0.48Q26.63 -0.96 26.63 -1.78L26.63 -36.70Q26.63 -37.52 27.11 -38.00Q27.59 -38.48 28.33 -38.48L33.59 -38.48Q34.40 -38.48 34.88 -38.00Q35.36 -37.52 35.36 -36.70L35.36 -33.60Q37.29 -36.04 40.28 -37.63Q43.28 -39.22 47.72 -39.22Q52.31 -39.22 55.64 -37.18Q58.97 -35.15 60.78 -31.41Q62.59 -27.68 62.59 -22.57L62.59 -1.78Q62.59 -0.96 62.11 -0.48Q61.63 0.00 60.82 0.00L55.19 0.00Q54.45 0.00 53.94 -0.48Q53.42 -0.96 53.42 -1.78L53.42 -22.13Q53.42 -26.71 51.20 -29.30Q48.98 -31.89 44.69 -31.89Q40.62 -31.89 38.17 -29.30Q35.73 -26.71 35.73 -22.13L35.73 -1.78Q35.73 -0.96 35.25 -0.48Q34.77 0.00 33.96 0.00ZM84.84 0.00Q83.73 0.00 83.14 -0.55Q82.54 -1.11 82.17 -1.85L68.34 -36.19Q68.26 -36.56 68.26 -36.93Q68.26 -37.52 68.71 -38.00Q69.15 -38.48 69.82 -38.48L75.14 -38.48Q75.96 -38.48 76.44 -38.00Q76.92 -37.52 76.99 -37.15L87.28 -10.21L97.57 -37.15Q97.71 -37.52 98.16 -38.00Q98.60 -38.48 99.42 -38.48L104.74 -38.48Q105.41 -38.48 105.85 -38.00Q106.30 -37.52 106.30 -36.93Q106.30 -36.56 106.22 -36.19L92.39 -1.85Q92.09 -1.11 91.46 -0.55Q90.83 0.00 89.72 0.00ZM123.02 0.74Q119.25 0.74 116.14 -0.78Q113.03 -2.29 111.18 -4.81Q109.33 -7.33 109.33 -10.51Q109.33 -15.69 113.55 -18.72Q117.77 -21.76 124.58 -22.79L134.94 -24.27L134.94 -26.05Q134.94 -29.30 133.24 -31.08Q131.53 -32.86 127.54 -32.86Q124.65 -32.86 122.88 -31.71Q121.10 -30.56 120.29 -28.71Q119.77 -27.68 118.66 -27.68L113.55 -27.68Q112.74 -27.68 112.33 -28.16Q111.92 -28.64 111.92 -29.30Q111.92 -30.49 112.85 -32.15Q113.77 -33.82 115.62 -35.45Q117.47 -37.07 120.43 -38.15Q123.39 -39.22 127.61 -39.22Q132.20 -39.22 135.35 -38.07Q138.49 -36.93 140.38 -35.00Q142.26 -33.08 143.12 -30.52Q143.97 -27.97 143.97 -25.23L143.97 -1.78Q143.97 -0.96 143.49 -0.48Q143.00 0.00 142.19 0.00L136.94 0.00Q136.20 0.00 135.72 -0.48Q135.23 -0.96 135.23 -1.78L135.23 -4.74Q134.27 -3.40 132.64 -2.15Q131.02 -0.89 128.65 -0.07Q126.28 0.74 123.02 0.74ZM125.24 -5.85Q127.98 -5.85 130.20 -6.99Q132.42 -8.14 133.72 -10.62Q135.01 -13.10 135.01 -16.87L135.01 -18.50L127.24 -17.32Q122.58 -16.65 120.29 -15.06Q117.99 -13.47 117.99 -11.17Q117.99 -9.40 119.03 -8.21Q120.06 -7.03 121.73 -6.44Q123.39 -5.85 125.24 -5.85ZM155.61 0.00Q154.87 0.00 154.35 -0.48Q153.83 -0.96 153.83 -1.78L153.83 -50.76Q153.83 -51.58 154.35 -52.06Q154.87 -52.54 155.61 -52.54L160.93 -52.54Q161.75 -52.54 162.23 -52.06Q162.71 -51.58 162.71 -50.76L162.71 -1.78Q162.71 -0.96 162.23 -0.48Q161.75 0.00 160.93 0.00ZM174.65 0.00Q173.91 0.00 173.43 -0.48Q172.95 -0.96 172.95 -1.78L172.95 -36.70Q172.95 -37.52 173.43 -38.00Q173.91 -38.48 174.65 -38.48L180.05 -38.48Q180.79 -38.48 181.28 -38.00Q181.76 -37.52 181.76 -36.70L181.76 -1.78Q181.76 -0.96 181.28 -0.48Q180.79 0.00 180.05 0.00ZM174.28 -45.07Q173.54 -45.07 173.02 -45.58Q172.51 -46.10 172.51 -46.84L172.51 -51.73Q172.51 -52.54 173.02 -53.06Q173.54 -53.58 174.28 -53.58L180.42 -53.58Q181.16 -53.58 181.68 -53.06Q182.20 -52.54 182.20 -51.73L182.20 -46.84Q182.20 -46.10 181.68 -45.58Q181.16 -45.07 180.42 -45.07ZM206.11 0.74Q202.26 0.74 199.34 -0.59Q196.41 -1.92 194.45 -4.33Q192.49 -6.73 191.53 -9.95Q190.57 -13.17 190.34 -16.87Q190.27 -18.20 190.27 -19.28Q190.27 -20.35 190.34 -21.61Q190.49 -25.23 191.49 -28.45Q192.49 -31.67 194.41 -34.08Q196.34 -36.48 199.30 -37.85Q202.26 -39.22 206.11 -39.22Q210.25 -39.22 213.06 -37.78Q215.87 -36.33 217.72 -34.19L217.72 -50.76Q217.72 -51.58 218.21 -52.06Q218.69 -52.54 219.43 -52.54L224.90 -52.54Q225.72 -52.54 226.20 -52.06Q226.68 -51.58 226.68 -50.76L226.68 -1.78Q226.68 -0.96 226.20 -0.48Q225.72 0.00 224.90 0.00L219.80 0.00Q219.06 0.00 218.58 -0.48Q218.09 -0.96 218.09 -1.78L218.09 -4.66Q216.24 -2.29 213.36 -0.78Q210.47 0.74 206.11 0.74ZM208.55 -6.59Q211.80 -6.59 213.77 -8.10Q215.73 -9.62 216.69 -11.91Q217.65 -14.21 217.72 -16.65Q217.80 -17.98 217.80 -19.50Q217.80 -21.02 217.72 -22.35Q217.65 -24.64 216.65 -26.82Q215.65 -29.01 213.65 -30.45Q211.66 -31.89 208.55 -31.89Q205.22 -31.89 203.29 -30.45Q201.37 -29.01 200.52 -26.60Q199.67 -24.20 199.52 -21.46Q199.37 -19.24 199.52 -17.02Q199.67 -14.28 200.52 -11.88Q201.37 -9.47 203.29 -8.03Q205.22 -6.59 208.55 -6.59Z"></path></g>
  </g>
</svg>
