<svg width="133.5" height="30" viewBox="0 0 694 156" xmlns="http://www.w3.org/2000/svg" role="img" aria-label="Permit: Future">
  <style>
    .pill { fill: rgb(255,237,212); stroke: transparent; }
    .ink  { fill: rgb(159,45,0); }
    @media (prefers-color-scheme: dark) {
      .pill { fill: rgb(159,45,0); stroke: rgb(255,105,0); }
      .ink  { fill: rgb(255,237,212); }
    }
  </style>
  <rect class="pill" x="3" y="3" width="688" height="150" rx="75" ry="75" stroke-width="6"/>
  <g class="ink" transform="translate(40,40) scale(4.75)"><path d="M2.53 3.956A1 1 0 0 0 1 4.804v6.392a1 1 0 0 0 1.53.848l5.113-3.196c.16-.1.279-.233.357-.383v2.73a1 1 0 0 0 1.53.849l5.113-3.196a1 1 0 0 0 0-1.696L9.53 3.956A1 1 0 0 0 8 4.804v2.731a.992.992 0 0 0-.357-.383L2.53 3.956Z"/></g>
  <g class="ink" transform="translate(138 105.35)"><path d="M7.70 0.00Q6.96 0.00 6.47 -0.48Q5.99 -0.96 5.99 -1.78L5.99 -50.02Q5.99 -50.84 6.47 -51.32Q6.96 -51.80 7.70 -51.80L27.23 -51.80Q32.93 -51.80 37.15 -49.99Q41.37 -48.17 43.70 -44.55Q46.03 -40.92 46.03 -35.52Q46.03 -30.12 43.70 -26.57Q41.37 -23.01 37.15 -21.24Q32.93 -19.46 27.23 -19.46L15.61 -19.46L15.61 -1.78Q15.61 -0.96 15.10 -0.48Q14.58 0.00 13.76 0.00ZM15.47 -27.01L26.86 -27.01Q31.52 -27.01 33.97 -29.19Q36.41 -31.38 36.41 -35.59Q36.41 -39.52 34.08 -41.85Q31.75 -44.18 26.86 -44.18L15.47 -44.18ZM69.21 0.74Q61.14 0.74 56.40 -4.00Q51.67 -8.73 51.30 -17.24Q51.22 -18.06 51.22 -19.31Q51.22 -20.57 51.30 -21.31Q51.59 -26.86 53.81 -30.86Q56.03 -34.85 59.92 -37.04Q63.80 -39.22 69.13 -39.22Q75.05 -39.22 79.01 -36.78Q82.97 -34.34 85.04 -29.93Q87.11 -25.53 87.11 -19.76L87.11 -18.28Q87.11 -17.54 86.60 -17.02Q86.08 -16.50 85.34 -16.50L60.40 -16.50Q60.40 -16.50 60.40 -16.28Q60.40 -16.06 60.40 -15.91Q60.55 -13.25 61.55 -10.91Q62.55 -8.58 64.51 -7.18Q66.47 -5.77 69.13 -5.77Q71.35 -5.77 72.87 -6.44Q74.39 -7.10 75.31 -7.99Q76.24 -8.88 76.61 -9.40Q77.27 -10.21 77.68 -10.40Q78.09 -10.58 78.90 -10.58L84.45 -10.58Q85.19 -10.58 85.67 -10.17Q86.15 -9.77 86.08 -9.10Q86.00 -7.92 84.86 -6.25Q83.71 -4.59 81.60 -2.96Q79.49 -1.33 76.35 -0.30Q73.20 0.74 69.21 0.74ZM60.40 -22.42L77.94 -22.42L77.94 -22.64Q77.94 -25.60 76.90 -27.93Q75.87 -30.27 73.91 -31.56Q71.94 -32.86 69.13 -32.86Q66.39 -32.86 64.43 -31.56Q62.47 -30.27 61.44 -27.93Q60.40 -25.60 60.40 -22.64ZM97.05 0.00Q96.31 0.00 95.83 -0.48Q95.35 -0.96 95.35 -1.78L95.35 -36.70Q95.35 -37.44 95.83 -37.96Q96.31 -38.48 97.05 -38.48L102.30 -38.48Q103.04 -38.48 103.56 -37.96Q104.08 -37.44 104.08 -36.70L104.08 -33.52Q105.78 -35.96 108.41 -37.22Q111.03 -38.48 114.66 -38.48L117.69 -38.48Q118.43 -38.48 118.91 -38.00Q119.40 -37.52 119.40 -36.70L119.40 -32.12Q119.40 -31.38 118.91 -30.86Q118.43 -30.34 117.69 -30.34L112.29 -30.34Q108.59 -30.34 106.52 -28.27Q104.45 -26.20 104.45 -22.50L104.45 -1.78Q104.45 -0.96 103.93 -0.48Q103.41 0.00 102.67 0.00ZM127.09 0.00Q126.35 0.00 125.86 -0.48Q125.38 -0.96 125.38 -1.78L125.38 -36.70Q125.38 -37.52 125.86 -38.00Q126.35 -38.48 127.09 -38.48L132.12 -38.48Q132.86 -38.48 133.38 -38.00Q133.89 -37.52 133.89 -36.70L133.89 -34.19Q135.52 -36.33 138.11 -37.74Q140.70 -39.15 144.33 -39.22Q152.76 -39.29 156.17 -32.56Q157.87 -35.52 161.09 -37.37Q164.31 -39.22 168.30 -39.22Q172.15 -39.22 175.26 -37.44Q178.37 -35.67 180.22 -32.08Q182.07 -28.49 182.07 -23.01L182.07 -1.78Q182.07 -0.96 181.55 -0.48Q181.03 0.00 180.29 0.00L175.04 0.00Q174.22 0.00 173.74 -0.48Q173.26 -0.96 173.26 -1.78L173.26 -22.42Q173.26 -26.05 172.23 -28.08Q171.19 -30.12 169.45 -31.01Q167.71 -31.89 165.64 -31.89Q163.86 -31.89 162.12 -31.01Q160.39 -30.12 159.28 -28.08Q158.17 -26.05 158.17 -22.42L158.17 -1.78Q158.17 -0.96 157.65 -0.48Q157.13 0.00 156.39 0.00L151.14 0.00Q150.40 0.00 149.88 -0.48Q149.36 -0.96 149.36 -1.78L149.36 -22.42Q149.36 -26.05 148.29 -28.08Q147.21 -30.12 145.47 -31.01Q143.74 -31.89 141.74 -31.89Q139.96 -31.89 138.22 -31.01Q136.48 -30.12 135.37 -28.08Q134.26 -26.05 134.26 -22.42L134.26 -1.78Q134.26 -0.96 133.75 -0.48Q133.23 0.00 132.49 0.00ZM193.57 0.00Q192.83 0.00 192.35 -0.48Q191.87 -0.96 191.87 -1.78L191.87 -36.70Q191.87 -37.52 192.35 -38.00Q192.83 -38.48 193.57 -38.48L198.97 -38.48Q199.71 -38.48 200.19 -38.00Q200.67 -37.52 200.67 -36.70L200.67 -1.78Q200.67 -0.96 200.19 -0.48Q199.71 0.00 198.97 0.00ZM193.20 -45.07Q192.46 -45.07 191.94 -45.58Q191.42 -46.10 191.42 -46.84L191.42 -51.73Q191.42 -52.54 191.94 -53.06Q192.46 -53.58 193.20 -53.58L199.34 -53.58Q200.08 -53.58 200.60 -53.06Q201.12 -52.54 201.12 -51.73L201.12 -46.84Q201.12 -46.10 200.60 -45.58Q200.08 -45.07 199.34 -45.07ZM227.54 0.00Q223.17 0.00 220.29 -1.55Q217.40 -3.11 216.00 -6.14Q214.59 -9.18 214.59 -13.54L214.59 -31.23L208.82 -31.23Q208.00 -31.23 207.52 -31.75Q207.04 -32.26 207.04 -33.00L207.04 -36.70Q207.04 -37.52 207.52 -38.00Q208.00 -38.48 208.82 -38.48L214.59 -38.48L214.59 -50.76Q214.59 -51.58 215.07 -52.06Q215.55 -52.54 216.37 -52.54L221.62 -52.54Q222.36 -52.54 222.84 -52.06Q223.32 -51.58 223.32 -50.76L223.32 -38.48L232.57 -38.48Q233.31 -38.48 233.83 -38.00Q234.35 -37.52 234.35 -36.70L234.35 -33.00Q234.35 -32.26 233.83 -31.75Q233.31 -31.23 232.57 -31.23L223.32 -31.23L223.32 -14.28Q223.32 -11.10 224.43 -9.29Q225.54 -7.47 228.35 -7.47L233.24 -7.47Q234.05 -7.47 234.53 -6.99Q235.01 -6.51 235.01 -5.77L235.01 -1.78Q235.01 -0.96 234.53 -0.48Q234.05 0.00 233.24 0.00ZM243.30 -25.90Q242.48 -25.90 242.00 -26.38Q241.52 -26.86 241.52 -27.68L241.52 -34.11Q241.52 -34.93 242.00 -35.45Q242.48 -35.96 243.30 -35.96L249.96 -35.96Q250.77 -35.96 251.29 -35.45Q251.81 -34.93 251.81 -34.11L251.81 -27.68Q251.81 -26.86 251.29 -26.38Q250.77 -25.90 249.96 -25.90ZM243.30 0.00Q242.48 0.00 242.00 -0.48Q241.52 -0.96 241.52 -1.78L241.52 -8.21Q241.52 -9.03 242.00 -9.55Q242.48 -10.06 243.30 -10.06L249.96 -10.06Q250.77 -10.06 251.29 -9.55Q251.81 -9.03 251.81 -8.21L251.81 -1.78Q251.81 -0.96 251.29 -0.48Q250.77 0.00 249.96 0.00ZM281.56 0.00Q280.82 0.00 280.34 -0.48Q279.86 -0.96 279.86 -1.78L279.86 -50.02Q279.86 -50.84 280.34 -51.32Q280.82 -51.80 281.56 -51.80L313.16 -51.80Q313.97 -51.80 314.45 -51.32Q314.93 -50.84 314.93 -50.02L314.93 -45.44Q314.93 -44.70 314.45 -44.18Q313.97 -43.66 313.16 -43.66L289.11 -43.66L289.11 -28.71L311.68 -28.71Q312.49 -28.71 312.97 -28.19Q313.45 -27.68 313.45 -26.86L313.45 -22.35Q313.45 -21.61 312.97 -21.09Q312.49 -20.57 311.68 -20.57L289.11 -20.57L289.11 -1.78Q289.11 -0.96 288.59 -0.48Q288.07 0.00 287.26 0.00ZM333.16 0.74Q328.57 0.74 325.28 -1.29Q321.99 -3.33 320.25 -7.10Q318.51 -10.88 318.51 -15.91L318.51 -36.70Q318.51 -37.52 318.99 -38.00Q319.47 -38.48 320.21 -38.48L325.91 -38.48Q326.65 -38.48 327.13 -38.00Q327.61 -37.52 327.61 -36.70L327.61 -16.35Q327.61 -6.59 336.19 -6.59Q340.26 -6.59 342.67 -9.18Q345.07 -11.77 345.07 -16.35L345.07 -36.70Q345.07 -37.52 345.59 -38.00Q346.11 -38.48 346.85 -38.48L352.47 -38.48Q353.21 -38.48 353.73 -38.00Q354.25 -37.52 354.25 -36.70L354.25 -1.78Q354.25 -0.96 353.73 -0.48Q353.21 0.00 352.47 0.00L347.22 0.00Q346.48 0.00 345.96 -0.48Q345.44 -0.96 345.44 -1.78L345.44 -4.88Q343.52 -2.22 340.60 -0.74Q337.67 0.74 333.16 0.74ZM381.06 0.00Q376.69 0.00 373.81 -1.55Q370.92 -3.11 369.52 -6.14Q368.11 -9.18 368.11 -13.54L368.11 -31.23L362.34 -31.23Q361.52 -31.23 361.04 -31.75Q360.56 -32.26 360.56 -33.00L360.56 -36.70Q360.56 -37.52 361.04 -38.00Q361.52 -38.48 362.34 -38.48L368.11 -38.48L368.11 -50.76Q368.11 -51.58 368.59 -52.06Q369.07 -52.54 369.89 -52.54L375.14 -52.54Q375.88 -52.54 376.36 -52.06Q376.84 -51.58 376.84 -50.76L376.84 -38.48L386.09 -38.48Q386.83 -38.48 387.35 -38.00Q387.87 -37.52 387.87 -36.70L387.87 -33.00Q387.87 -32.26 387.35 -31.75Q386.83 -31.23 386.09 -31.23L376.84 -31.23L376.84 -14.28Q376.84 -11.10 377.95 -9.29Q379.06 -7.47 381.87 -7.47L386.76 -7.47Q387.57 -7.47 388.05 -6.99Q388.53 -6.51 388.53 -5.77L388.53 -1.78Q388.53 -0.96 388.05 -0.48Q387.57 0.00 386.76 0.00ZM409.62 0.74Q405.03 0.74 401.74 -1.29Q398.45 -3.33 396.71 -7.10Q394.97 -10.88 394.97 -15.91L394.97 -36.70Q394.97 -37.52 395.45 -38.00Q395.93 -38.48 396.67 -38.48L402.37 -38.48Q403.11 -38.48 403.59 -38.00Q404.07 -37.52 404.07 -36.70L404.07 -16.35Q404.07 -6.59 412.65 -6.59Q416.72 -6.59 419.13 -9.18Q421.53 -11.77 421.53 -16.35L421.53 -36.70Q421.53 -37.52 422.05 -38.00Q422.57 -38.48 423.31 -38.48L428.93 -38.48Q429.67 -38.48 430.19 -38.00Q430.71 -37.52 430.71 -36.70L430.71 -1.78Q430.71 -0.96 430.19 -0.48Q429.67 0.00 428.93 0.00L423.68 0.00Q422.94 0.00 422.42 -0.48Q421.90 -0.96 421.90 -1.78L421.90 -4.88Q419.98 -2.22 417.06 -0.74Q414.13 0.74 409.62 0.74ZM442.57 0.00Q441.83 0.00 441.35 -0.48Q440.87 -0.96 440.87 -1.78L440.87 -36.70Q440.87 -37.44 441.35 -37.96Q441.83 -38.48 442.57 -38.48L447.83 -38.48Q448.57 -38.48 449.08 -37.96Q449.60 -37.44 449.60 -36.70L449.60 -33.52Q451.30 -35.96 453.93 -37.22Q456.56 -38.48 460.18 -38.48L463.22 -38.48Q463.96 -38.48 464.44 -38.00Q464.92 -37.52 464.92 -36.70L464.92 -32.12Q464.92 -31.38 464.44 -30.86Q463.96 -30.34 463.22 -30.34L457.82 -30.34Q454.12 -30.34 452.04 -28.27Q449.97 -26.20 449.97 -22.50L449.97 -1.78Q449.97 -0.96 449.45 -0.48Q448.94 0.00 448.20 0.00ZM486.53 0.74Q478.46 0.74 473.73 -4.00Q468.99 -8.73 468.62 -17.24Q468.55 -18.06 468.55 -19.31Q468.55 -20.57 468.62 -21.31Q468.92 -26.86 471.14 -30.86Q473.36 -34.85 477.24 -37.04Q481.13 -39.22 486.45 -39.22Q492.37 -39.22 496.33 -36.78Q500.29 -34.34 502.36 -29.93Q504.44 -25.53 504.44 -19.76L504.44 -18.28Q504.44 -17.54 503.92 -17.02Q503.40 -16.50 502.66 -16.50L477.72 -16.50Q477.72 -16.50 477.72 -16.28Q477.72 -16.06 477.72 -15.91Q477.87 -13.25 478.87 -10.91Q479.87 -8.58 481.83 -7.18Q483.79 -5.77 486.45 -5.77Q488.67 -5.77 490.19 -6.44Q491.71 -7.10 492.63 -7.99Q493.56 -8.88 493.93 -9.40Q494.59 -10.21 495.00 -10.40Q495.41 -10.58 496.22 -10.58L501.77 -10.58Q502.51 -10.58 502.99 -10.17Q503.47 -9.77 503.40 -9.10Q503.33 -7.92 502.18 -6.25Q501.03 -4.59 498.92 -2.96Q496.81 -1.33 493.67 -0.30Q490.52 0.74 486.53 0.74ZM477.72 -22.42L495.26 -22.42L495.26 -22.64Q495.26 -25.60 494.22 -27.93Q493.19 -30.27 491.23 -31.56Q489.27 -32.86 486.45 -32.86Q483.72 -32.86 481.76 -31.56Q479.79 -30.27 478.76 -27.93Q477.72 -25.60 477.72 -22.64Z"/></g>
</svg>
