<svg width="260.5" height="50" viewBox="0 0 260.5 50" xmlns="http://www.w3.org/2000/svg" role="img" aria-label="Permit Status: In-progress">
  <style>
    .tile  { fill: #FCFCFD; stroke: rgb(228,230,235); }
    .label { fill: rgb(102,112,133); }
    .pill  { fill: rgb(254,243,198); stroke: transparent; }
    .ink   { fill: rgb(151,60,0); }
    @media (prefers-color-scheme: dark) {
      .tile  { fill: #1E2634; stroke: rgb(66,77,96); }
      .label { fill: rgb(167,176,191); }
      .pill  { fill: rgb(151,60,0); stroke: rgb(253,154,0); }
      .ink   { fill: rgb(254,243,198); }
    }
  </style>
  <rect class="tile" x="0.5" y="0.5" width="259.5" height="49" rx="12" ry="12" stroke-width="1"></rect>
  <g class="label" transform="translate(16,29.2)"><path d="M2.34 0L0.84 0L0.84-8.37L3.97-8.37Q4.93-8.37 5.59-8.01Q6.24-7.65 6.58-7.02Q6.92-6.40 6.92-5.60Q6.92-4.80 6.58-4.17Q6.24-3.54 5.58-3.19Q4.91-2.83 3.95-2.83L2.34-2.83L2.34 0M2.34-7.11L2.34-4.07L3.75-4.07Q4.60-4.07 4.99-4.50Q5.39-4.93 5.39-5.60Q5.39-6.27 4.99-6.69Q4.60-7.11 3.74-7.11M14.75 0L9.30 0L9.30-8.37L14.73-8.37L14.73-7.10L10.79-7.10L10.79-4.85L14.44-4.85L14.44-3.60L10.79-3.60L10.79-1.26L14.75-1.26M18.79 0L17.29 0L17.29-8.37L20.42-8.37Q21.86-8.37 22.62-7.63Q23.37-6.88 23.37-5.69Q23.37-4.84 22.99-4.23Q22.60-3.62 21.86-3.32L23.68 0L22 0L20.35-3.07L18.79-3.07L18.79 0M18.79-7.11L18.79-4.31L20.20-4.31Q21.05-4.31 21.44-4.67Q21.84-5.03 21.84-5.69Q21.84-6.36 21.44-6.74Q21.05-7.11 20.19-7.11M27.30 0L25.83 0L25.83-8.37L28.09-8.37L29.68-4.05Q29.76-3.80 29.87-3.41Q29.98-3.01 30.09-2.56Q30.20-2.11 30.30-1.69Q30.40-2.10 30.51-2.55Q30.62-3 30.73-3.40Q30.84-3.80 30.92-4.05L32.49-8.37L34.75-8.37L34.75 0L33.26 0L33.26-4.22Q33.26-4.54 33.27-5Q33.28-5.46 33.29-5.99Q33.30-6.51 33.31-7.01Q33.17-6.47 33.01-5.94Q32.85-5.40 32.71-4.95Q32.57-4.50 32.47-4.22L30.93 0L29.65 0L28.09-4.22Q27.99-4.49 27.85-4.93Q27.71-5.37 27.56-5.90Q27.40-6.42 27.24-6.96Q27.26-6.49 27.27-5.98Q27.28-5.46 27.29-5Q27.30-4.54 27.30-4.22M37.47-8.37L38.97-8.37L38.97 0L37.47 0M43.90-7.10L41.31-7.10L41.31-8.37L47.97-8.37L47.97-7.10L45.40-7.10L45.40 0L43.90 0M57.19 0.13Q55.73 0.13 54.86-0.54Q53.99-1.22 53.94-2.46L55.42-2.46Q55.47-1.80 55.97-1.47Q56.47-1.15 57.18-1.15Q57.92-1.15 58.39-1.49Q58.85-1.82 58.85-2.36Q58.85-2.85 58.44-3.10Q58.02-3.35 57.34-3.52L56.40-3.77Q55.35-4.04 54.76-4.58Q54.17-5.13 54.17-6.01Q54.17-6.76 54.57-7.31Q54.97-7.86 55.66-8.17Q56.35-8.48 57.23-8.48Q58.12-8.48 58.79-8.17Q59.46-7.86 59.84-7.32Q60.22-6.77 60.24-6.08L58.79-6.08Q58.73-6.61 58.31-6.91Q57.88-7.20 57.20-7.20Q56.50-7.20 56.09-6.89Q55.69-6.58 55.69-6.10Q55.69-5.75 55.90-5.53Q56.12-5.31 56.45-5.17Q56.78-5.04 57.11-4.95L57.89-4.75Q58.51-4.60 59.08-4.32Q59.64-4.03 60-3.55Q60.35-3.08 60.35-2.35Q60.35-1.61 59.98-1.05Q59.60-0.49 58.89-0.18Q58.19 0.13 57.19 0.13M64.97-7.10L62.39-7.10L62.39-8.37L69.05-8.37L69.05-7.10L66.47-7.10L66.47 0L64.97 0M72.47 0L70.83 0L73.75-8.37L75.65-8.37L78.64 0L77 0L76.28-2.07L73.15-2.07L72.47 0M73.91-4.35L73.55-3.28L75.87-3.28L75.51-4.35Q75.32-4.92 75.12-5.63Q74.92-6.33 74.69-7.20Q74.46-6.32 74.27-5.61Q74.08-4.90 73.91-4.35M83-7.10L80.42-7.10L80.42-8.37L87.08-8.37L87.08-7.10L84.50-7.10L84.50 0L83 0M92.81 0.12Q91.79 0.12 91.03-0.26Q90.26-0.65 89.84-1.33Q89.42-2.01 89.42-2.90L89.42-8.37L90.92-8.37L90.92-3.03Q90.92-2.24 91.43-1.73Q91.95-1.22 92.81-1.22Q93.68-1.22 94.19-1.73Q94.70-2.24 94.70-3.03L94.70-8.37L96.20-8.37L96.20-2.90Q96.20-2.01 95.78-1.33Q95.36-0.65 94.59-0.26Q93.83 0.12 92.81 0.12M101.85 0.13Q100.39 0.13 99.53-0.54Q98.66-1.22 98.61-2.46L100.09-2.46Q100.14-1.80 100.64-1.47Q101.14-1.15 101.84-1.15Q102.58-1.15 103.05-1.49Q103.52-1.82 103.52-2.36Q103.52-2.85 103.11-3.10Q102.69-3.35 102.01-3.52L101.06-3.77Q100.01-4.04 99.43-4.58Q98.84-5.13 98.84-6.01Q98.84-6.76 99.24-7.31Q99.64-7.86 100.33-8.17Q101.02-8.48 101.89-8.48Q102.79-8.48 103.46-8.17Q104.13-7.86 104.51-7.32Q104.89-6.77 104.91-6.08L103.45-6.08Q103.40-6.61 102.97-6.91Q102.55-7.20 101.87-7.20Q101.16-7.20 100.76-6.89Q100.35-6.58 100.35-6.10Q100.35-5.75 100.57-5.53Q100.79-5.31 101.12-5.17Q101.44-5.04 101.78-4.95L102.56-4.75Q103.18-4.60 103.74-4.32Q104.31-4.03 104.66-3.55Q105.02-3.08 105.02-2.35Q105.02-1.61 104.64-1.05Q104.27-0.49 103.56-0.18Q102.85 0.13 101.85 0.13"></path></g>
  <g transform="translate(134.6,10) scale(0.192308)">
    <rect class="pill" x="3" y="3" width="597" height="150" rx="75" ry="75" stroke-width="6"></rect>
    <g class="ink" transform="translate(40,40) scale(4.75)"><path fill-rule="evenodd" d="M13.836 2.477a.75.75 0 0 1 .75.75v3.182a.75.75 0 0 1-.75.75h-3.182a.75.75 0 0 1 0-1.5h1.37l-.84-.841a4.5 4.5 0 0 0-7.08.932.75.75 0 0 1-1.3-.75 6 6 0 0 1 9.44-1.242l.842.84V3.227a.75.75 0 0 1 .75-.75Zm-.911 7.5A.75.75 0 0 1 13.199 11a6 6 0 0 1-9.44 1.241l-.84-.84v1.371a.75.75 0 0 1-1.5 0V9.591a.75.75 0 0 1 .75-.75H5.35a.75.75 0 0 1 0 1.5H3.98l.841.841a4.5 4.5 0 0 0 7.08-.932.75.75 0 0 1 1.025-.273Z" clip-rule="evenodd"></path></g>
    <g class="ink" transform="translate(138 105.35)"><path d="M7.70 0.00Q6.96 0.00 6.47 -0.48Q5.99 -0.96 5.99 -1.78L5.99 -50.02Q5.99 -50.84 6.47 -51.32Q6.96 -51.80 7.70 -51.80L13.76 -51.80Q14.58 -51.80 15.06 -51.32Q15.54 -50.84 15.54 -50.02L15.54 -1.78Q15.54 -0.96 15.06 -0.48Q14.58 0.00 13.76 0.00ZM28.33 0.00Q27.59 0.00 27.11 -0.48Q26.63 -0.96 26.63 -1.78L26.63 -36.70Q26.63 -37.52 27.11 -38.00Q27.59 -38.48 28.33 -38.48L33.59 -38.48Q34.40 -38.48 34.88 -38.00Q35.36 -37.52 35.36 -36.70L35.36 -33.60Q37.29 -36.04 40.28 -37.63Q43.28 -39.22 47.72 -39.22Q52.31 -39.22 55.64 -37.18Q58.97 -35.15 60.78 -31.41Q62.59 -27.68 62.59 -22.57L62.59 -1.78Q62.59 -0.96 62.11 -0.48Q61.63 0.00 60.82 0.00L55.19 0.00Q54.45 0.00 53.94 -0.48Q53.42 -0.96 53.42 -1.78L53.42 -22.13Q53.42 -26.71 51.20 -29.30Q48.98 -31.89 44.69 -31.89Q40.62 -31.89 38.17 -29.30Q35.73 -26.71 35.73 -22.13L35.73 -1.78Q35.73 -0.96 35.25 -0.48Q34.77 0.00 33.96 0.00ZM73.81 -18.28Q73.07 -18.28 72.55 -18.80Q72.04 -19.31 72.04 -20.05L72.04 -24.35Q72.04 -25.09 72.55 -25.60Q73.07 -26.12 73.81 -26.12L96.38 -26.12Q97.20 -26.12 97.68 -25.60Q98.16 -25.09 98.16 -24.35L98.16 -20.05Q98.16 -19.31 97.68 -18.80Q97.20 -18.28 96.38 -18.28ZM109.82 14.06Q109.08 14.06 108.56 13.58Q108.04 13.10 108.04 12.28L108.04 -36.70Q108.04 -37.52 108.56 -38.00Q109.08 -38.48 109.82 -38.48L114.92 -38.48Q115.74 -38.48 116.22 -38.00Q116.70 -37.52 116.70 -36.70L116.70 -33.67Q118.48 -36.04 121.40 -37.63Q124.32 -39.22 128.61 -39.22Q132.61 -39.22 135.50 -37.89Q138.38 -36.56 140.31 -34.23Q142.23 -31.89 143.27 -28.75Q144.30 -25.60 144.38 -21.83Q144.45 -20.57 144.45 -19.24Q144.45 -17.91 144.38 -16.65Q144.30 -13.02 143.30 -9.84Q142.30 -6.66 140.34 -4.33Q138.38 -2.00 135.50 -0.63Q132.61 0.74 128.61 0.74Q124.54 0.74 121.69 -0.74Q118.85 -2.22 117.07 -4.66L117.07 12.28Q117.07 13.10 116.59 13.58Q116.11 14.06 115.29 14.06ZM126.25 -6.59Q129.58 -6.59 131.50 -8.03Q133.42 -9.47 134.27 -11.88Q135.13 -14.28 135.27 -17.02Q135.35 -19.24 135.27 -21.46Q135.13 -24.20 134.27 -26.60Q133.42 -29.01 131.50 -30.45Q129.58 -31.89 126.25 -31.89Q122.99 -31.89 121.03 -30.38Q119.07 -28.86 118.14 -26.57Q117.22 -24.27 117.07 -21.83Q117.00 -20.57 117.00 -19.02Q117.00 -17.46 117.07 -16.13Q117.14 -13.84 118.14 -11.65Q119.14 -9.47 121.14 -8.03Q123.14 -6.59 126.25 -6.59ZM154.75 0.00Q154.01 0.00 153.53 -0.48Q153.05 -0.96 153.05 -1.78L153.05 -36.70Q153.05 -37.44 153.53 -37.96Q154.01 -38.48 154.75 -38.48L160.01 -38.48Q160.75 -38.48 161.27 -37.96Q161.78 -37.44 161.78 -36.70L161.78 -33.52Q163.49 -35.96 166.11 -37.22Q168.74 -38.48 172.37 -38.48L175.40 -38.48Q176.14 -38.48 176.62 -38.00Q177.10 -37.52 177.10 -36.70L177.10 -32.12Q177.10 -31.38 176.62 -30.86Q176.14 -30.34 175.40 -30.34L170.00 -30.34Q166.30 -30.34 164.23 -28.27Q162.15 -26.20 162.15 -22.50L162.15 -1.78Q162.15 -0.96 161.64 -0.48Q161.12 0.00 160.38 0.00ZM199.08 0.74Q193.23 0.74 189.31 -1.37Q185.39 -3.48 183.28 -7.25Q181.17 -11.03 180.95 -15.98Q180.88 -17.32 180.88 -19.24Q180.88 -21.16 180.95 -22.50Q181.17 -27.53 183.32 -31.26Q185.46 -35.00 189.42 -37.11Q193.38 -39.22 199.08 -39.22Q204.78 -39.22 208.74 -37.11Q212.70 -35.00 214.84 -31.26Q216.99 -27.53 217.21 -22.50Q217.36 -21.16 217.36 -19.24Q217.36 -17.32 217.21 -15.98Q216.99 -11.03 214.92 -7.25Q212.84 -3.48 208.88 -1.37Q204.93 0.74 199.08 0.74ZM199.08 -6.14Q203.22 -6.14 205.55 -8.73Q207.89 -11.32 208.11 -16.35Q208.18 -17.46 208.18 -19.24Q208.18 -21.02 208.11 -22.13Q207.89 -27.16 205.55 -29.75Q203.22 -32.34 199.08 -32.34Q195.01 -32.34 192.64 -29.75Q190.27 -27.16 190.13 -22.13Q190.05 -21.02 190.05 -19.24Q190.05 -17.46 190.13 -16.35Q190.27 -11.32 192.64 -8.73Q195.01 -6.14 199.08 -6.14ZM242.71 16.28Q237.46 16.28 234.05 14.91Q230.65 13.54 228.72 11.58Q226.80 9.62 225.95 7.66Q225.10 5.70 225.02 4.59Q224.95 3.85 225.54 3.33Q226.13 2.81 226.80 2.81L232.42 2.81Q233.09 2.81 233.53 3.11Q233.98 3.40 234.27 4.29Q234.72 5.33 235.50 6.51Q236.27 7.70 237.90 8.55Q239.53 9.40 242.34 9.40Q245.45 9.40 247.48 8.55Q249.52 7.70 250.59 5.62Q251.66 3.55 251.66 0.00L251.66 -5.03Q249.89 -2.89 247.08 -1.48Q244.26 -0.07 240.12 -0.07Q236.12 -0.07 233.16 -1.41Q230.20 -2.74 228.32 -5.11Q226.43 -7.47 225.43 -10.66Q224.43 -13.84 224.28 -17.61Q224.21 -19.61 224.28 -21.61Q224.43 -25.23 225.43 -28.45Q226.43 -31.67 228.32 -34.08Q230.20 -36.48 233.16 -37.85Q236.12 -39.22 240.12 -39.22Q244.34 -39.22 247.26 -37.63Q250.18 -36.04 252.03 -33.67L252.03 -36.70Q252.03 -37.44 252.52 -37.96Q253.00 -38.48 253.81 -38.48L258.99 -38.48Q259.73 -38.48 260.25 -37.96Q260.77 -37.44 260.77 -36.70L260.84 -0.89Q260.84 4.29 258.95 8.14Q257.07 11.99 253.07 14.13Q249.07 16.28 242.71 16.28ZM242.49 -7.33Q245.67 -7.33 247.67 -8.77Q249.67 -10.21 250.59 -12.47Q251.52 -14.73 251.66 -17.17Q251.74 -18.06 251.74 -19.57Q251.74 -21.09 251.66 -22.05Q251.52 -24.42 250.59 -26.68Q249.67 -28.93 247.67 -30.41Q245.67 -31.89 242.49 -31.89Q239.23 -31.89 237.27 -30.45Q235.31 -29.01 234.46 -26.60Q233.61 -24.20 233.46 -21.46Q233.39 -19.61 233.46 -17.76Q233.61 -14.95 234.46 -12.58Q235.31 -10.21 237.27 -8.77Q239.23 -7.33 242.49 -7.33ZM272.75 0.00Q272.01 0.00 271.53 -0.48Q271.05 -0.96 271.05 -1.78L271.05 -36.70Q271.05 -37.44 271.53 -37.96Q272.01 -38.48 272.75 -38.48L278.01 -38.48Q278.75 -38.48 279.26 -37.96Q279.78 -37.44 279.78 -36.70L279.78 -33.52Q281.48 -35.96 284.11 -37.22Q286.74 -38.48 290.36 -38.48L293.40 -38.48Q294.14 -38.48 294.62 -38.00Q295.10 -37.52 295.10 -36.70L295.10 -32.12Q295.10 -31.38 294.62 -30.86Q294.14 -30.34 293.40 -30.34L288.00 -30.34Q284.30 -30.34 282.22 -28.27Q280.15 -26.20 280.15 -22.50L280.15 -1.78Q280.15 -0.96 279.63 -0.48Q279.12 0.00 278.38 0.00ZM316.71 0.74Q308.64 0.74 303.91 -4.00Q299.17 -8.73 298.80 -17.24Q298.73 -18.06 298.73 -19.31Q298.73 -20.57 298.80 -21.31Q299.10 -26.86 301.32 -30.86Q303.54 -34.85 307.42 -37.04Q311.31 -39.22 316.63 -39.22Q322.55 -39.22 326.51 -36.78Q330.47 -34.34 332.54 -29.93Q334.62 -25.53 334.62 -19.76L334.62 -18.28Q334.62 -17.54 334.10 -17.02Q333.58 -16.50 332.84 -16.50L307.90 -16.50Q307.90 -16.50 307.90 -16.28Q307.90 -16.06 307.90 -15.91Q308.05 -13.25 309.05 -10.91Q310.05 -8.58 312.01 -7.18Q313.97 -5.77 316.63 -5.77Q318.85 -5.77 320.37 -6.44Q321.89 -7.10 322.81 -7.99Q323.74 -8.88 324.11 -9.40Q324.77 -10.21 325.18 -10.40Q325.59 -10.58 326.40 -10.58L331.95 -10.58Q332.69 -10.58 333.17 -10.17Q333.65 -9.77 333.58 -9.10Q333.51 -7.92 332.36 -6.25Q331.21 -4.59 329.10 -2.96Q326.99 -1.33 323.85 -0.30Q320.70 0.74 316.71 0.74ZM307.90 -22.42L325.44 -22.42L325.44 -22.64Q325.44 -25.60 324.40 -27.93Q323.37 -30.27 321.41 -31.56Q319.45 -32.86 316.63 -32.86Q313.90 -32.86 311.93 -31.56Q309.97 -30.27 308.94 -27.93Q307.90 -25.60 307.90 -22.64ZM357.05 0.74Q352.69 0.74 349.58 -0.30Q346.47 -1.33 344.51 -2.85Q342.55 -4.37 341.59 -5.92Q340.63 -7.47 340.55 -8.51Q340.48 -9.32 341.07 -9.77Q341.66 -10.21 342.25 -10.21L347.36 -10.21Q347.73 -10.21 347.95 -10.14Q348.17 -10.06 348.54 -9.62Q349.51 -8.73 350.62 -7.81Q351.73 -6.88 353.32 -6.25Q354.91 -5.62 357.20 -5.62Q360.31 -5.62 362.42 -6.84Q364.53 -8.07 364.53 -10.43Q364.53 -12.06 363.64 -13.06Q362.75 -14.06 360.38 -14.87Q358.02 -15.69 353.72 -16.58Q349.43 -17.54 346.77 -19.05Q344.10 -20.57 342.85 -22.75Q341.59 -24.94 341.59 -27.82Q341.59 -30.64 343.29 -33.26Q344.99 -35.89 348.32 -37.55Q351.65 -39.22 356.68 -39.22Q360.61 -39.22 363.53 -38.22Q366.45 -37.22 368.34 -35.78Q370.23 -34.34 371.23 -32.82Q372.22 -31.30 372.30 -30.27Q372.37 -29.45 371.85 -28.97Q371.34 -28.49 370.67 -28.49L365.93 -28.49Q365.49 -28.49 365.16 -28.67Q364.82 -28.86 364.60 -29.16Q363.79 -29.90 362.83 -30.78Q361.86 -31.67 360.42 -32.26Q358.98 -32.86 356.68 -32.86Q353.58 -32.86 351.99 -31.56Q350.39 -30.27 350.39 -28.19Q350.39 -26.94 351.13 -25.94Q351.87 -24.94 354.06 -24.12Q356.24 -23.31 360.61 -22.35Q365.56 -21.46 368.45 -19.76Q371.34 -18.06 372.56 -15.80Q373.78 -13.54 373.78 -10.88Q373.78 -7.55 371.85 -4.92Q369.93 -2.29 366.19 -0.78Q362.46 0.74 357.05 0.74ZM395.93 0.74Q391.57 0.74 388.46 -0.30Q385.35 -1.33 383.39 -2.85Q381.43 -4.37 380.47 -5.92Q379.50 -7.47 379.43 -8.51Q379.36 -9.32 379.95 -9.77Q380.54 -10.21 381.13 -10.21L386.24 -10.21Q386.61 -10.21 386.83 -10.14Q387.05 -10.06 387.42 -9.62Q388.38 -8.73 389.49 -7.81Q390.60 -6.88 392.20 -6.25Q393.79 -5.62 396.08 -5.62Q399.19 -5.62 401.30 -6.84Q403.41 -8.07 403.41 -10.43Q403.41 -12.06 402.52 -13.06Q401.63 -14.06 399.26 -14.87Q396.89 -15.69 392.60 -16.58Q388.31 -17.54 385.65 -19.05Q382.98 -20.57 381.72 -22.75Q380.47 -24.94 380.47 -27.82Q380.47 -30.64 382.17 -33.26Q383.87 -35.89 387.20 -37.55Q390.53 -39.22 395.56 -39.22Q399.48 -39.22 402.41 -38.22Q405.33 -37.22 407.22 -35.78Q409.10 -34.34 410.10 -32.82Q411.10 -31.30 411.18 -30.27Q411.25 -29.45 410.73 -28.97Q410.21 -28.49 409.55 -28.49L404.81 -28.49Q404.37 -28.49 404.04 -28.67Q403.70 -28.86 403.48 -29.16Q402.67 -29.90 401.70 -30.78Q400.74 -31.67 399.30 -32.26Q397.86 -32.86 395.56 -32.86Q392.45 -32.86 390.86 -31.56Q389.27 -30.27 389.27 -28.19Q389.27 -26.94 390.01 -25.94Q390.75 -24.94 392.94 -24.12Q395.12 -23.31 399.48 -22.35Q404.44 -21.46 407.33 -19.76Q410.21 -18.06 411.44 -15.80Q412.66 -13.54 412.66 -10.88Q412.66 -7.55 410.73 -4.92Q408.81 -2.29 405.07 -0.78Q401.33 0.74 395.93 0.74Z"></path></g>
  </g>
</svg>
