<svg width="222.9" height="50" viewBox="0 0 222.9 50" xmlns="http://www.w3.org/2000/svg" role="img" aria-label="Permit Status: Expired">
  <style>
    .tile  { fill: #FBFCFD; stroke: rgb(228,230,235); }
    .label { fill: rgb(102,112,133); }
    .pill  { fill: rgb(229,231,235); stroke: rgb(153,161,175); }
    .ink   { fill: rgb(54,65,83); }
    @media (prefers-color-scheme: dark) {
      .tile  { fill: #172032; stroke: rgb(66,77,96); }
      .label { fill: rgb(167,176,191); }
      .pill  { fill: rgb(54,65,83); stroke: rgb(153,161,175); }
      .ink   { fill: rgb(229,231,235); }
    }
  </style>
  <rect class="tile" x="0.5" y="0.5" width="221.9" height="49" rx="12" ry="12" stroke-width="1"></rect>
  <g class="label" transform="translate(16,29)"><path d="M4.01 -3L1.98 -3L1.98 -4.28L3.85 -4.28Q4.22 -4.28 4.52 -4.43Q4.82 -4.58 4.99 -4.86Q5.16 -5.14 5.16 -5.54L5.16 -5.54Q5.16 -5.93 4.99 -6.22Q4.82 -6.51 4.52 -6.66Q4.22 -6.81 3.85 -6.81L3.85 -6.81L1.98 -6.81L1.98 -8.08L4.01 -8.08Q4.78 -8.08 5.4 -7.77Q6.01 -7.46 6.37 -6.89Q6.73 -6.32 6.73 -5.54L6.73 -5.54Q6.73 -4.76 6.37 -4.19Q6.01 -3.62 5.4 -3.31Q4.78 -3 4.01 -3L4.01 -3M2.39 0L0.83 0L0.83 -8.08L2.39 -8.08L2.39 0M10.43 0L8.87 0L8.87 -8.08L10.43 -8.08L10.43 0M14.49 0L10.02 0L10.02 -1.38L14.49 -1.38L14.49 0M14.09 -3.46L10.02 -3.46L10.02 -4.8L14.09 -4.8L14.09 -3.46M14.43 -6.7L10.02 -6.7L10.02 -8.08L14.43 -8.08L14.43 -6.7M19.96 -3.38L17.97 -3.38L17.97 -4.6L19.85 -4.6Q20.42 -4.6 20.74 -4.89Q21.06 -5.19 21.06 -5.7L21.06 -5.7Q21.06 -6.18 20.74 -6.49Q20.42 -6.81 19.85 -6.81L19.85 -6.81L17.97 -6.81L17.97 -8.08L19.99 -8.08Q20.77 -8.08 21.36 -7.78Q21.95 -7.47 22.28 -6.95Q22.61 -6.42 22.61 -5.73L22.61 -5.73Q22.61 -5.01 22.28 -4.49Q21.95 -3.97 21.36 -3.67Q20.76 -3.38 19.96 -3.38L19.96 -3.38M18.39 0L16.82 0L16.82 -8.08L18.39 -8.08L18.39 0M23.14 0L21.24 0L18.57 -3.5L20.01 -3.94L23.14 0M26.62 0L25.06 0L25.06 -8.08L26.16 -8.08L29.44 -2.84L28.81 -2.84L32.07 -8.08L33.18 -8.08L33.18 0L31.63 0L31.63 -5.4L31.92 -5.31L29.65 -1.66L28.59 -1.66L26.31 -5.31L26.62 -5.4L26.62 0M37.43 0L35.87 0L35.87 -8.08L37.43 -8.08L37.43 0M43.7 0L42.12 0L42.12 -7.91L43.7 -7.91L43.7 0M46.28 -6.69L39.55 -6.69L39.55 -8.08L46.28 -8.08L46.28 -6.69M53.83 0.12L53.83 0.12Q52.85 0.12 52.16 -0.22Q51.46 -0.55 50.9 -1.22L50.9 -1.22L51.93 -2.25Q52.29 -1.78 52.76 -1.52Q53.23 -1.26 53.91 -1.26L53.91 -1.26Q54.52 -1.26 54.88 -1.51Q55.25 -1.75 55.25 -2.17L55.25 -2.17Q55.25 -2.54 55.04 -2.77Q54.83 -3 54.49 -3.16Q54.15 -3.32 53.75 -3.46Q53.34 -3.59 52.93 -3.76Q52.52 -3.93 52.18 -4.19Q51.84 -4.45 51.64 -4.86Q51.43 -5.27 51.43 -5.89L51.43 -5.89Q51.43 -6.62 51.78 -7.14Q52.14 -7.66 52.76 -7.93Q53.38 -8.21 54.17 -8.21L54.17 -8.21Q54.99 -8.21 55.66 -7.9Q56.33 -7.59 56.75 -7.1L56.75 -7.1L55.72 -6.06Q55.36 -6.45 54.99 -6.64Q54.61 -6.82 54.14 -6.82L54.14 -6.82Q53.6 -6.82 53.29 -6.61Q52.98 -6.41 52.98 -6.01L52.98 -6.01Q52.98 -5.68 53.19 -5.47Q53.39 -5.27 53.73 -5.12Q54.07 -4.97 54.48 -4.83Q54.89 -4.69 55.3 -4.52Q55.71 -4.35 56.05 -4.07Q56.38 -3.79 56.59 -3.36Q56.8 -2.93 56.8 -2.3L56.8 -2.3Q56.8 -1.17 56.01 -0.53Q55.21 0.12 53.83 0.12M62.32 0L60.74 0L60.74 -7.91L62.32 -7.91L62.32 0M64.89 -6.69L58.17 -6.69L58.17 -8.08L64.89 -8.08L64.89 -6.69M67 0L65.37 0L68.62 -8.08L69.9 -8.08L73.14 0L71.47 0L68.97 -6.64L69.54 -6.64L67 0M71.44 -1.51L67.09 -1.51L67.09 -2.82L71.44 -2.82L71.44 -1.51M77.75 0L76.18 0L76.18 -7.91L77.75 -7.91L77.75 0M80.33 -6.69L73.6 -6.69L73.6 -8.08L80.33 -8.08L80.33 -6.69M85.55 0.12L85.55 0.12Q84.59 0.12 83.85 -0.3Q83.11 -0.72 82.69 -1.46Q82.26 -2.2 82.26 -3.13L82.26 -3.13L82.26 -8.08L83.82 -8.08L83.82 -3.08Q83.82 -2.54 84.05 -2.15Q84.27 -1.76 84.67 -1.55Q85.07 -1.33 85.55 -1.33L85.55 -1.33Q86.04 -1.33 86.42 -1.55Q86.8 -1.76 87.03 -2.15Q87.25 -2.54 87.25 -3.07L87.25 -3.07L87.25 -8.08L88.83 -8.08L88.83 -3.12Q88.83 -2.18 88.4 -1.45Q87.98 -0.72 87.24 -0.3Q86.51 0.12 85.55 0.12M93.66 0.12L93.66 0.12Q92.68 0.12 91.98 -0.22Q91.29 -0.55 90.72 -1.22L90.72 -1.22L91.76 -2.25Q92.12 -1.78 92.59 -1.52Q93.06 -1.26 93.74 -1.26L93.74 -1.26Q94.35 -1.26 94.71 -1.51Q95.07 -1.75 95.07 -2.17L95.07 -2.17Q95.07 -2.54 94.86 -2.77Q94.66 -3 94.32 -3.16Q93.98 -3.32 93.57 -3.46Q93.16 -3.59 92.75 -3.76Q92.35 -3.93 92.01 -4.19Q91.67 -4.45 91.46 -4.86Q91.25 -5.27 91.25 -5.89L91.25 -5.89Q91.25 -6.62 91.61 -7.14Q91.97 -7.66 92.59 -7.93Q93.21 -8.21 93.99 -8.21L93.99 -8.21Q94.82 -8.21 95.48 -7.9Q96.15 -7.59 96.58 -7.1L96.58 -7.1L95.54 -6.06Q95.19 -6.45 94.81 -6.64Q94.44 -6.82 93.97 -6.82L93.97 -6.82Q93.43 -6.82 93.12 -6.61Q92.81 -6.41 92.81 -6.01L92.81 -6.01Q92.81 -5.68 93.01 -5.47Q93.22 -5.27 93.56 -5.12Q93.9 -4.97 94.31 -4.83Q94.71 -4.69 95.12 -4.52Q95.53 -4.35 95.87 -4.07Q96.21 -3.79 96.42 -3.36Q96.62 -2.93 96.62 -2.3L96.62 -2.3Q96.62 -1.17 95.83 -0.53Q95.04 0.12 93.66 0.12"></path></g>
  <g transform="translate(126,10) scale(0.192308)">
    <rect class="pill" x="3" y="3" width="446" height="150" rx="75" ry="75" stroke-width="6"></rect>
    <g class="ink" transform="translate(40,40) scale(4.75)"><path fill-rule="evenodd" d="M8 15A7 7 0 1 0 8 1a7 7 0 0 0 0 14Zm2.78-4.22a.75.75 0 0 1-1.06 0L8 9.06l-1.72 1.72a.75.75 0 1 1-1.06-1.06L6.94 8 5.22 6.28a.75.75 0 0 1 1.06-1.06L8 6.94l1.72-1.72a.75.75 0 1 1 1.06 1.06L9.06 8l1.72 1.72a.75.75 0 0 1 0 1.06Z" clip-rule="evenodd"></path></g>
    <g class="ink" transform="translate(138 105.35)"><path d="M7.70 0.00Q6.96 0.00 6.47 -0.48Q5.99 -0.96 5.99 -1.78L5.99 -50.02Q5.99 -50.84 6.47 -51.32Q6.96 -51.80 7.70 -51.80L39.66 -51.80Q40.48 -51.80 41.00 -51.32Q41.51 -50.84 41.51 -50.02L41.51 -45.73Q41.51 -44.92 41.00 -44.44Q40.48 -43.96 39.66 -43.96L15.10 -43.96L15.10 -29.90L38.04 -29.90Q38.85 -29.90 39.37 -29.41Q39.89 -28.93 39.89 -28.12L39.89 -24.12Q39.89 -23.38 39.37 -22.87Q38.85 -22.35 38.04 -22.35L15.10 -22.35L15.10 -7.84L40.26 -7.84Q41.07 -7.84 41.59 -7.36Q42.11 -6.88 42.11 -6.07L42.11 -1.78Q42.11 -0.96 41.59 -0.48Q41.07 0.00 40.26 0.00ZM49.10 0.00Q48.44 0.00 47.96 -0.48Q47.47 -0.96 47.47 -1.55Q47.47 -1.85 47.59 -2.15Q47.70 -2.44 47.99 -2.89L60.65 -19.76L48.88 -35.59Q48.66 -35.96 48.55 -36.30Q48.44 -36.63 48.44 -36.93Q48.44 -37.52 48.88 -38.00Q49.32 -38.48 49.99 -38.48L55.61 -38.48Q56.50 -38.48 56.95 -38.07Q57.39 -37.67 57.61 -37.30L66.42 -25.60L75.22 -37.22Q75.52 -37.59 75.93 -38.04Q76.33 -38.48 77.22 -38.48L82.62 -38.48Q83.29 -38.48 83.73 -38.00Q84.18 -37.52 84.18 -36.93Q84.18 -36.63 84.10 -36.30Q84.03 -35.96 83.73 -35.59L71.75 -19.61L84.47 -2.89Q84.77 -2.44 84.88 -2.15Q84.99 -1.85 84.99 -1.55Q84.99 -0.96 84.51 -0.48Q84.03 0.00 83.44 0.00L77.52 0.00Q76.70 0.00 76.30 -0.41Q75.89 -0.81 75.59 -1.18L66.20 -13.47L56.72 -1.18Q56.50 -0.81 56.06 -0.41Q55.61 0.00 54.80 0.00ZM93.74 14.06Q93.00 14.06 92.48 13.58Q91.96 13.10 91.96 12.28L91.96 -36.70Q91.96 -37.52 92.48 -38.00Q93.00 -38.48 93.74 -38.48L98.84 -38.48Q99.66 -38.48 100.14 -38.00Q100.62 -37.52 100.62 -36.70L100.62 -33.67Q102.39 -36.04 105.32 -37.63Q108.24 -39.22 112.53 -39.22Q116.53 -39.22 119.41 -37.89Q122.30 -36.56 124.22 -34.23Q126.15 -31.89 127.18 -28.75Q128.22 -25.60 128.29 -21.83Q128.37 -20.57 128.37 -19.24Q128.37 -17.91 128.29 -16.65Q128.22 -13.02 127.22 -9.84Q126.22 -6.66 124.26 -4.33Q122.30 -2.00 119.41 -0.63Q116.53 0.74 112.53 0.74Q108.46 0.74 105.61 -0.74Q102.76 -2.22 100.99 -4.66L100.99 12.28Q100.99 13.10 100.51 13.58Q100.03 14.06 99.21 14.06ZM110.16 -6.59Q113.49 -6.59 115.42 -8.03Q117.34 -9.47 118.19 -11.88Q119.04 -14.28 119.19 -17.02Q119.27 -19.24 119.19 -21.46Q119.04 -24.20 118.19 -26.60Q117.34 -29.01 115.42 -30.45Q113.49 -31.89 110.16 -31.89Q106.91 -31.89 104.95 -30.38Q102.99 -28.86 102.06 -26.57Q101.14 -24.27 100.99 -21.83Q100.91 -20.57 100.91 -19.02Q100.91 -17.46 100.99 -16.13Q101.06 -13.84 102.06 -11.65Q103.06 -9.47 105.06 -8.03Q107.06 -6.59 110.16 -6.59ZM138.67 0.00Q137.93 0.00 137.45 -0.48Q136.97 -0.96 136.97 -1.78L136.97 -36.70Q136.97 -37.52 137.45 -38.00Q137.93 -38.48 138.67 -38.48L144.07 -38.48Q144.81 -38.48 145.30 -38.00Q145.78 -37.52 145.78 -36.70L145.78 -1.78Q145.78 -0.96 145.30 -0.48Q144.81 0.00 144.07 0.00ZM138.30 -45.07Q137.56 -45.07 137.04 -45.58Q136.53 -46.10 136.53 -46.84L136.53 -51.73Q136.53 -52.54 137.04 -53.06Q137.56 -53.58 138.30 -53.58L144.44 -53.58Q145.18 -53.58 145.70 -53.06Q146.22 -52.54 146.22 -51.73L146.22 -46.84Q146.22 -46.10 145.70 -45.58Q145.18 -45.07 144.44 -45.07ZM157.69 0.00Q156.95 0.00 156.47 -0.48Q155.99 -0.96 155.99 -1.78L155.99 -36.70Q155.99 -37.44 156.47 -37.96Q156.95 -38.48 157.69 -38.48L162.95 -38.48Q163.69 -38.48 164.21 -37.96Q164.72 -37.44 164.72 -36.70L164.72 -33.52Q166.43 -35.96 169.05 -37.22Q171.68 -38.48 175.31 -38.48L178.34 -38.48Q179.08 -38.48 179.56 -38.00Q180.04 -37.52 180.04 -36.70L180.04 -32.12Q180.04 -31.38 179.56 -30.86Q179.08 -30.34 178.34 -30.34L172.94 -30.34Q169.24 -30.34 167.17 -28.27Q165.09 -26.20 165.09 -22.50L165.09 -1.78Q165.09 -0.96 164.58 -0.48Q164.06 0.00 163.32 0.00ZM201.65 0.74Q193.58 0.74 188.85 -4.00Q184.11 -8.73 183.74 -17.24Q183.67 -18.06 183.67 -19.31Q183.67 -20.57 183.74 -21.31Q184.04 -26.86 186.26 -30.86Q188.48 -34.85 192.36 -37.04Q196.25 -39.22 201.58 -39.22Q207.50 -39.22 211.46 -36.78Q215.41 -34.34 217.49 -29.93Q219.56 -25.53 219.56 -19.76L219.56 -18.28Q219.56 -17.54 219.04 -17.02Q218.52 -16.50 217.78 -16.50L192.84 -16.50Q192.84 -16.50 192.84 -16.28Q192.84 -16.06 192.84 -15.91Q192.99 -13.25 193.99 -10.91Q194.99 -8.58 196.95 -7.18Q198.91 -5.77 201.58 -5.77Q203.80 -5.77 205.31 -6.44Q206.83 -7.10 207.76 -7.99Q208.68 -8.88 209.05 -9.40Q209.72 -10.21 210.12 -10.40Q210.53 -10.58 211.34 -10.58L216.89 -10.58Q217.63 -10.58 218.12 -10.17Q218.60 -9.77 218.52 -9.10Q218.45 -7.92 217.30 -6.25Q216.15 -4.59 214.05 -2.96Q211.94 -1.33 208.79 -0.30Q205.65 0.74 201.65 0.74ZM192.84 -22.42L210.38 -22.42L210.38 -22.64Q210.38 -25.60 209.35 -27.93Q208.31 -30.27 206.35 -31.56Q204.39 -32.86 201.58 -32.86Q198.84 -32.86 196.88 -31.56Q194.92 -30.27 193.88 -27.93Q192.84 -25.60 192.84 -22.64ZM241.92 0.74Q238.08 0.74 235.15 -0.59Q232.23 -1.92 230.27 -4.33Q228.31 -6.73 227.35 -9.95Q226.38 -13.17 226.16 -16.87Q226.09 -18.20 226.09 -19.28Q226.09 -20.35 226.16 -21.61Q226.31 -25.23 227.31 -28.45Q228.31 -31.67 230.23 -34.08Q232.16 -36.48 235.12 -37.85Q238.08 -39.22 241.92 -39.22Q246.07 -39.22 248.88 -37.78Q251.69 -36.33 253.54 -34.19L253.54 -50.76Q253.54 -51.58 254.02 -52.06Q254.50 -52.54 255.24 -52.54L260.72 -52.54Q261.53 -52.54 262.01 -52.06Q262.50 -51.58 262.50 -50.76L262.50 -1.78Q262.50 -0.96 262.01 -0.48Q261.53 0.00 260.72 0.00L255.61 0.00Q254.87 0.00 254.39 -0.48Q253.91 -0.96 253.91 -1.78L253.91 -4.66Q252.06 -2.29 249.18 -0.78Q246.29 0.74 241.92 0.74ZM244.37 -6.59Q247.62 -6.59 249.58 -8.10Q251.54 -9.62 252.51 -11.91Q253.47 -14.21 253.54 -16.65Q253.62 -17.98 253.62 -19.50Q253.62 -21.02 253.54 -22.35Q253.47 -24.64 252.47 -26.82Q251.47 -29.01 249.47 -30.45Q247.47 -31.89 244.37 -31.89Q241.04 -31.89 239.11 -30.45Q237.19 -29.01 236.34 -26.60Q235.49 -24.20 235.34 -21.46Q235.19 -19.24 235.34 -17.02Q235.49 -14.28 236.34 -11.88Q237.19 -9.47 239.11 -8.03Q241.04 -6.59 244.37 -6.59Z"></path></g>
  </g>
</svg>
