<svg width="290.5" height="58" viewBox="0 0 290.5 58" xmlns="http://www.w3.org/2000/svg" role="img" aria-label="Permit Status: In-progress">
  <style>
    .tile  { fill: #FFFFFF; stroke: rgb(229,231,235); }
    .label { fill: #111827; }
    .pill  { fill: rgb(254,243,198); stroke: transparent; }
    .ink   { fill: rgb(151,60,0); }
    @media (prefers-color-scheme: dark) {
      .tile  { fill: #1E293B; stroke: rgb(71,85,105); }
      .label { fill: #FFFFFF; }
      .pill  { fill: rgb(151,60,0); stroke: rgb(253,154,0); }
      .ink   { fill: rgb(254,243,198); }
    }
  </style>
  <rect class="tile" x="0.5" y="0.5" width="289.5" height="57" rx="12" ry="12" stroke-width="1"></rect>
  <g transform="translate(14,6.5) scale(0.283784)">
    <g class="label" transform="translate(0 105.35)"><path d="M13.91 -19.02L13.91 -28.05L25.16 -28.05Q27.31 -28.05 29.08 -28.93Q30.86 -29.82 31.89 -31.52Q32.93 -33.23 32.93 -35.67Q32.93 -38.04 31.89 -39.74Q30.86 -41.44 29.08 -42.33Q27.31 -43.22 25.16 -43.22L13.91 -43.22L13.91 -52.24L26.86 -52.24Q31.82 -52.24 35.82 -50.25Q39.81 -48.25 42.14 -44.51Q44.47 -40.77 44.47 -35.67Q44.47 -30.56 42.14 -26.82Q39.81 -23.09 35.82 -21.05Q31.82 -19.02 26.86 -19.02ZM5.03 0.00L5.03 -52.24L16.65 -52.24L16.65 0.00ZM66.75 0.81Q60.90 0.81 56.35 -1.59Q51.80 -4.00 49.21 -8.29Q46.62 -12.58 46.62 -17.98Q46.62 -23.38 49.17 -27.64Q51.73 -31.89 56.09 -34.34Q60.46 -36.78 65.93 -36.78Q71.26 -36.78 75.33 -34.48Q79.40 -32.19 81.73 -28.12Q84.06 -24.05 84.06 -18.80Q84.06 -17.83 83.95 -16.76Q83.84 -15.69 83.55 -14.28L52.54 -14.21L52.54 -21.98L78.74 -22.05L73.85 -18.80Q73.78 -21.90 72.89 -23.94Q72.00 -25.97 70.26 -27.05Q68.52 -28.12 66.01 -28.12Q63.34 -28.12 61.38 -26.90Q59.42 -25.68 58.35 -23.46Q57.28 -21.24 57.28 -18.06Q57.28 -14.87 58.42 -12.62Q59.57 -10.36 61.68 -9.14Q63.79 -7.92 66.67 -7.92Q69.34 -7.92 71.48 -8.84Q73.63 -9.77 75.26 -11.62L81.47 -5.40Q78.81 -2.29 75.04 -0.74Q71.26 0.81 66.75 0.81ZM89.54 0.00L89.54 -35.96L100.86 -35.96L100.86 0.00ZM100.86 -19.76L96.13 -23.46Q97.53 -29.75 100.86 -33.23Q104.19 -36.70 110.11 -36.70Q112.70 -36.70 114.66 -35.93Q116.62 -35.15 118.10 -33.52L111.37 -25.01Q110.63 -25.83 109.52 -26.27Q108.41 -26.71 107.00 -26.71Q104.19 -26.71 102.53 -24.97Q100.86 -23.24 100.86 -19.76ZM120.84 0.00L120.84 -35.96L132.16 -35.96L132.16 0.00ZM143.86 0.00L143.86 -21.02Q143.86 -23.75 142.19 -25.27Q140.53 -26.79 138.08 -26.79Q136.38 -26.79 135.05 -26.08Q133.72 -25.38 132.94 -24.12Q132.16 -22.87 132.16 -21.02L127.80 -22.94Q127.80 -27.23 129.65 -30.30Q131.50 -33.37 134.68 -35.04Q137.86 -36.70 141.86 -36.70Q145.63 -36.70 148.63 -35.00Q151.63 -33.30 153.40 -30.27Q155.18 -27.23 155.18 -23.01L155.18 0.00ZM166.87 0.00L166.87 -21.02Q166.87 -23.75 165.20 -25.27Q163.54 -26.79 161.10 -26.79Q159.40 -26.79 158.06 -26.08Q156.73 -25.38 155.95 -24.12Q155.18 -22.87 155.18 -21.02L148.67 -21.90Q148.81 -26.49 150.85 -29.79Q152.88 -33.08 156.25 -34.89Q159.62 -36.70 163.84 -36.70Q167.98 -36.70 171.20 -34.96Q174.42 -33.23 176.30 -30.01Q178.19 -26.79 178.19 -22.27L178.19 0.00ZM185.44 0.00L185.44 -35.96L196.77 -35.96L196.77 0.00ZM191.14 -40.92Q188.48 -40.92 186.74 -42.73Q185.00 -44.55 185.00 -47.14Q185.00 -49.80 186.74 -51.58Q188.48 -53.35 191.14 -53.35Q193.81 -53.35 195.51 -51.58Q197.21 -49.80 197.21 -47.14Q197.21 -44.55 195.51 -42.73Q193.81 -40.92 191.14 -40.92ZM209.86 0.00L209.86 -50.84L221.19 -50.84L221.19 0.00ZM201.72 -26.34L201.72 -35.96L229.33 -35.96L229.33 -26.34ZM265.07 0.81Q258.63 0.81 254.00 -1.29Q249.38 -3.40 245.53 -7.70L253.08 -15.17Q255.60 -12.28 258.67 -10.69Q261.74 -9.10 265.81 -9.10Q269.51 -9.10 271.54 -10.43Q273.58 -11.77 273.58 -14.13Q273.58 -16.28 272.25 -17.61Q270.91 -18.94 268.73 -19.91Q266.55 -20.87 263.92 -21.76Q261.29 -22.64 258.70 -23.79Q256.11 -24.94 253.93 -26.68Q251.75 -28.42 250.42 -31.04Q249.08 -33.67 249.08 -37.67Q249.08 -42.48 251.41 -45.95Q253.75 -49.43 257.89 -51.24Q262.03 -53.06 267.44 -53.06Q272.91 -53.06 277.46 -51.13Q282.01 -49.21 284.97 -45.88L277.43 -38.41Q275.06 -40.85 272.65 -42.03Q270.25 -43.22 267.21 -43.22Q264.18 -43.22 262.40 -42.07Q260.63 -40.92 260.63 -38.78Q260.63 -36.78 261.96 -35.56Q263.29 -34.34 265.47 -33.45Q267.66 -32.56 270.28 -31.67Q272.91 -30.78 275.50 -29.60Q278.09 -28.42 280.27 -26.60Q282.46 -24.79 283.79 -22.02Q285.12 -19.24 285.12 -15.17Q285.12 -7.70 279.79 -3.44Q274.47 0.81 265.07 0.81ZM296.59 0.00L296.59 -50.84L307.91 -50.84L307.91 0.00ZM288.45 -26.34L288.45 -35.96L316.05 -35.96L316.05 -26.34ZM335.29 0.74Q330.34 0.74 326.45 -1.70Q322.57 -4.14 320.31 -8.36Q318.05 -12.58 318.05 -17.98Q318.05 -23.38 320.31 -27.60Q322.57 -31.82 326.45 -34.26Q330.34 -36.70 335.29 -36.70Q338.92 -36.70 341.84 -35.30Q344.77 -33.89 346.62 -31.41Q348.47 -28.93 348.69 -25.75L348.69 -10.21Q348.47 -7.03 346.65 -4.55Q344.84 -2.07 341.88 -0.67Q338.92 0.74 335.29 0.74ZM337.59 -9.47Q341.21 -9.47 343.43 -11.88Q345.65 -14.28 345.65 -17.98Q345.65 -20.50 344.65 -22.42Q343.66 -24.35 341.84 -25.42Q340.03 -26.49 337.66 -26.49Q335.29 -26.49 333.48 -25.42Q331.67 -24.35 330.59 -22.42Q329.52 -20.50 329.52 -17.98Q329.52 -15.54 330.56 -13.62Q331.59 -11.69 333.44 -10.58Q335.29 -9.47 337.59 -9.47ZM345.21 0.00L345.21 -9.69L346.91 -18.43L345.21 -27.16L345.21 -35.96L356.31 -35.96L356.31 0.00ZM369.41 0.00L369.41 -50.84L380.73 -50.84L380.73 0.00ZM361.27 -26.34L361.27 -35.96L388.87 -35.96L388.87 -26.34ZM409.81 0.81Q404.85 0.81 401.04 -1.22Q397.23 -3.26 395.09 -6.84Q392.94 -10.43 392.94 -15.10L392.94 -35.96L404.26 -35.96L404.26 -15.24Q404.26 -13.39 404.89 -12.06Q405.52 -10.73 406.78 -9.99Q408.04 -9.25 409.81 -9.25Q412.33 -9.25 413.81 -10.84Q415.29 -12.43 415.29 -15.24L415.29 -35.96L426.61 -35.96L426.61 -15.17Q426.61 -10.43 424.46 -6.84Q422.32 -3.26 418.54 -1.22Q414.77 0.81 409.81 0.81ZM446.81 0.89Q443.63 0.89 440.56 0.07Q437.49 -0.74 434.86 -2.26Q432.23 -3.77 430.38 -5.77L436.82 -12.28Q438.60 -10.36 441.04 -9.29Q443.48 -8.21 446.37 -8.21Q448.37 -8.21 449.44 -8.81Q450.51 -9.40 450.51 -10.43Q450.51 -11.77 449.22 -12.47Q447.92 -13.17 445.92 -13.73Q443.93 -14.28 441.71 -14.95Q439.49 -15.61 437.49 -16.80Q435.49 -17.98 434.23 -20.09Q432.97 -22.20 432.97 -25.46Q432.97 -28.93 434.75 -31.49Q436.53 -34.04 439.78 -35.52Q443.04 -37.00 447.40 -37.00Q451.99 -37.00 455.88 -35.41Q459.76 -33.82 462.20 -30.71L455.77 -24.20Q454.06 -26.20 451.95 -27.01Q449.85 -27.82 447.85 -27.82Q445.92 -27.82 444.96 -27.27Q444.00 -26.71 444.00 -25.68Q444.00 -24.57 445.26 -23.90Q446.52 -23.24 448.51 -22.72Q450.51 -22.20 452.73 -21.46Q454.95 -20.72 456.95 -19.46Q458.95 -18.20 460.21 -16.09Q461.46 -13.99 461.46 -10.58Q461.46 -5.33 457.50 -2.22Q453.55 0.89 446.81 0.89ZM474.34 0.81Q471.45 0.81 469.53 -1.18Q467.61 -3.18 467.61 -5.99Q467.61 -8.95 469.53 -10.91Q471.45 -12.88 474.34 -12.88Q477.30 -12.88 479.19 -10.91Q481.07 -8.95 481.07 -5.99Q481.07 -3.18 479.19 -1.18Q477.30 0.81 474.34 0.81ZM474.34 -21.09Q471.45 -21.09 469.53 -23.09Q467.61 -25.09 467.61 -27.90Q467.61 -30.86 469.53 -32.82Q471.45 -34.78 474.34 -34.78Q477.30 -34.78 479.19 -32.82Q481.07 -30.86 481.07 -27.90Q481.07 -25.09 479.19 -23.09Q477.30 -21.09 474.34 -21.09Z"></path></g>
  </g>
  <g transform="translate(160.5,14) scale(0.192308)">
    <rect class="pill" x="3" y="3" width="597" height="150" rx="75" ry="75" stroke-width="6"></rect>
    <g class="ink" transform="translate(40,40) scale(4.75)"><path fill-rule="evenodd" d="M13.836 2.477a.75.75 0 0 1 .75.75v3.182a.75.75 0 0 1-.75.75h-3.182a.75.75 0 0 1 0-1.5h1.37l-.84-.841a4.5 4.5 0 0 0-7.08.932.75.75 0 0 1-1.3-.75 6 6 0 0 1 9.44-1.242l.842.84V3.227a.75.75 0 0 1 .75-.75Zm-.911 7.5A.75.75 0 0 1 13.199 11a6 6 0 0 1-9.44 1.241l-.84-.84v1.371a.75.75 0 0 1-1.5 0V9.591a.75.75 0 0 1 .75-.75H5.35a.75.75 0 0 1 0 1.5H3.98l.841.841a4.5 4.5 0 0 0 7.08-.932.75.75 0 0 1 1.025-.273Z" clip-rule="evenodd"></path></g>
    <g class="ink" transform="translate(138 105.35)"><path d="M7.70 0.00Q6.96 0.00 6.47 -0.48Q5.99 -0.96 5.99 -1.78L5.99 -50.02Q5.99 -50.84 6.47 -51.32Q6.96 -51.80 7.70 -51.80L13.76 -51.80Q14.58 -51.80 15.06 -51.32Q15.54 -50.84 15.54 -50.02L15.54 -1.78Q15.54 -0.96 15.06 -0.48Q14.58 0.00 13.76 0.00ZM28.33 0.00Q27.59 0.00 27.11 -0.48Q26.63 -0.96 26.63 -1.78L26.63 -36.70Q26.63 -37.52 27.11 -38.00Q27.59 -38.48 28.33 -38.48L33.59 -38.48Q34.40 -38.48 34.88 -38.00Q35.36 -37.52 35.36 -36.70L35.36 -33.60Q37.29 -36.04 40.28 -37.63Q43.28 -39.22 47.72 -39.22Q52.31 -39.22 55.64 -37.18Q58.97 -35.15 60.78 -31.41Q62.59 -27.68 62.59 -22.57L62.59 -1.78Q62.59 -0.96 62.11 -0.48Q61.63 0.00 60.82 0.00L55.19 0.00Q54.45 0.00 53.94 -0.48Q53.42 -0.96 53.42 -1.78L53.42 -22.13Q53.42 -26.71 51.20 -29.30Q48.98 -31.89 44.69 -31.89Q40.62 -31.89 38.17 -29.30Q35.73 -26.71 35.73 -22.13L35.73 -1.78Q35.73 -0.96 35.25 -0.48Q34.77 0.00 33.96 0.00ZM73.81 -18.28Q73.07 -18.28 72.55 -18.80Q72.04 -19.31 72.04 -20.05L72.04 -24.35Q72.04 -25.09 72.55 -25.60Q73.07 -26.12 73.81 -26.12L96.38 -26.12Q97.20 -26.12 97.68 -25.60Q98.16 -25.09 98.16 -24.35L98.16 -20.05Q98.16 -19.31 97.68 -18.80Q97.20 -18.28 96.38 -18.28ZM109.82 14.06Q109.08 14.06 108.56 13.58Q108.04 13.10 108.04 12.28L108.04 -36.70Q108.04 -37.52 108.56 -38.00Q109.08 -38.48 109.82 -38.48L114.92 -38.48Q115.74 -38.48 116.22 -38.00Q116.70 -37.52 116.70 -36.70L116.70 -33.67Q118.48 -36.04 121.40 -37.63Q124.32 -39.22 128.61 -39.22Q132.61 -39.22 135.50 -37.89Q138.38 -36.56 140.31 -34.23Q142.23 -31.89 143.27 -28.75Q144.30 -25.60 144.38 -21.83Q144.45 -20.57 144.45 -19.24Q144.45 -17.91 144.38 -16.65Q144.30 -13.02 143.30 -9.84Q142.30 -6.66 140.34 -4.33Q138.38 -2.00 135.50 -0.63Q132.61 0.74 128.61 0.74Q124.54 0.74 121.69 -0.74Q118.85 -2.22 117.07 -4.66L117.07 12.28Q117.07 13.10 116.59 13.58Q116.11 14.06 115.29 14.06ZM126.25 -6.59Q129.58 -6.59 131.50 -8.03Q133.42 -9.47 134.27 -11.88Q135.13 -14.28 135.27 -17.02Q135.35 -19.24 135.27 -21.46Q135.13 -24.20 134.27 -26.60Q133.42 -29.01 131.50 -30.45Q129.58 -31.89 126.25 -31.89Q122.99 -31.89 121.03 -30.38Q119.07 -28.86 118.14 -26.57Q117.22 -24.27 117.07 -21.83Q117.00 -20.57 117.00 -19.02Q117.00 -17.46 117.07 -16.13Q117.14 -13.84 118.14 -11.65Q119.14 -9.47 121.14 -8.03Q123.14 -6.59 126.25 -6.59ZM154.75 0.00Q154.01 0.00 153.53 -0.48Q153.05 -0.96 153.05 -1.78L153.05 -36.70Q153.05 -37.44 153.53 -37.96Q154.01 -38.48 154.75 -38.48L160.01 -38.48Q160.75 -38.48 161.27 -37.96Q161.78 -37.44 161.78 -36.70L161.78 -33.52Q163.49 -35.96 166.11 -37.22Q168.74 -38.48 172.37 -38.48L175.40 -38.48Q176.14 -38.48 176.62 -38.00Q177.10 -37.52 177.10 -36.70L177.10 -32.12Q177.10 -31.38 176.62 -30.86Q176.14 -30.34 175.40 -30.34L170.00 -30.34Q166.30 -30.34 164.23 -28.27Q162.15 -26.20 162.15 -22.50L162.15 -1.78Q162.15 -0.96 161.64 -0.48Q161.12 0.00 160.38 0.00ZM199.08 0.74Q193.23 0.74 189.31 -1.37Q185.39 -3.48 183.28 -7.25Q181.17 -11.03 180.95 -15.98Q180.88 -17.32 180.88 -19.24Q180.88 -21.16 180.95 -22.50Q181.17 -27.53 183.32 -31.26Q185.46 -35.00 189.42 -37.11Q193.38 -39.22 199.08 -39.22Q204.78 -39.22 208.74 -37.11Q212.70 -35.00 214.84 -31.26Q216.99 -27.53 217.21 -22.50Q217.36 -21.16 217.36 -19.24Q217.36 -17.32 217.21 -15.98Q216.99 -11.03 214.92 -7.25Q212.84 -3.48 208.88 -1.37Q204.93 0.74 199.08 0.74ZM199.08 -6.14Q203.22 -6.14 205.55 -8.73Q207.89 -11.32 208.11 -16.35Q208.18 -17.46 208.18 -19.24Q208.18 -21.02 208.11 -22.13Q207.89 -27.16 205.55 -29.75Q203.22 -32.34 199.08 -32.34Q195.01 -32.34 192.64 -29.75Q190.27 -27.16 190.13 -22.13Q190.05 -21.02 190.05 -19.24Q190.05 -17.46 190.13 -16.35Q190.27 -11.32 192.64 -8.73Q195.01 -6.14 199.08 -6.14ZM242.71 16.28Q237.46 16.28 234.05 14.91Q230.65 13.54 228.72 11.58Q226.80 9.62 225.95 7.66Q225.10 5.70 225.02 4.59Q224.95 3.85 225.54 3.33Q226.13 2.81 226.80 2.81L232.42 2.81Q233.09 2.81 233.53 3.11Q233.98 3.40 234.27 4.29Q234.72 5.33 235.50 6.51Q236.27 7.70 237.90 8.55Q239.53 9.40 242.34 9.40Q245.45 9.40 247.48 8.55Q249.52 7.70 250.59 5.62Q251.66 3.55 251.66 0.00L251.66 -5.03Q249.89 -2.89 247.08 -1.48Q244.26 -0.07 240.12 -0.07Q236.12 -0.07 233.16 -1.41Q230.20 -2.74 228.32 -5.11Q226.43 -7.47 225.43 -10.66Q224.43 -13.84 224.28 -17.61Q224.21 -19.61 224.28 -21.61Q224.43 -25.23 225.43 -28.45Q226.43 -31.67 228.32 -34.08Q230.20 -36.48 233.16 -37.85Q236.12 -39.22 240.12 -39.22Q244.34 -39.22 247.26 -37.63Q250.18 -36.04 252.03 -33.67L252.03 -36.70Q252.03 -37.44 252.52 -37.96Q253.00 -38.48 253.81 -38.48L258.99 -38.48Q259.73 -38.48 260.25 -37.96Q260.77 -37.44 260.77 -36.70L260.84 -0.89Q260.84 4.29 258.95 8.14Q257.07 11.99 253.07 14.13Q249.07 16.28 242.71 16.28ZM242.49 -7.33Q245.67 -7.33 247.67 -8.77Q249.67 -10.21 250.59 -12.47Q251.52 -14.73 251.66 -17.17Q251.74 -18.06 251.74 -19.57Q251.74 -21.09 251.66 -22.05Q251.52 -24.42 250.59 -26.68Q249.67 -28.93 247.67 -30.41Q245.67 -31.89 242.49 -31.89Q239.23 -31.89 237.27 -30.45Q235.31 -29.01 234.46 -26.60Q233.61 -24.20 233.46 -21.46Q233.39 -19.61 233.46 -17.76Q233.61 -14.95 234.46 -12.58Q235.31 -10.21 237.27 -8.77Q239.23 -7.33 242.49 -7.33ZM272.75 0.00Q272.01 0.00 271.53 -0.48Q271.05 -0.96 271.05 -1.78L271.05 -36.70Q271.05 -37.44 271.53 -37.96Q272.01 -38.48 272.75 -38.48L278.01 -38.48Q278.75 -38.48 279.26 -37.96Q279.78 -37.44 279.78 -36.70L279.78 -33.52Q281.48 -35.96 284.11 -37.22Q286.74 -38.48 290.36 -38.48L293.40 -38.48Q294.14 -38.48 294.62 -38.00Q295.10 -37.52 295.10 -36.70L295.10 -32.12Q295.10 -31.38 294.62 -30.86Q294.14 -30.34 293.40 -30.34L288.00 -30.34Q284.30 -30.34 282.22 -28.27Q280.15 -26.20 280.15 -22.50L280.15 -1.78Q280.15 -0.96 279.63 -0.48Q279.12 0.00 278.38 0.00ZM316.71 0.74Q308.64 0.74 303.91 -4.00Q299.17 -8.73 298.80 -17.24Q298.73 -18.06 298.73 -19.31Q298.73 -20.57 298.80 -21.31Q299.10 -26.86 301.32 -30.86Q303.54 -34.85 307.42 -37.04Q311.31 -39.22 316.63 -39.22Q322.55 -39.22 326.51 -36.78Q330.47 -34.34 332.54 -29.93Q334.62 -25.53 334.62 -19.76L334.62 -18.28Q334.62 -17.54 334.10 -17.02Q333.58 -16.50 332.84 -16.50L307.90 -16.50Q307.90 -16.50 307.90 -16.28Q307.90 -16.06 307.90 -15.91Q308.05 -13.25 309.05 -10.91Q310.05 -8.58 312.01 -7.18Q313.97 -5.77 316.63 -5.77Q318.85 -5.77 320.37 -6.44Q321.89 -7.10 322.81 -7.99Q323.74 -8.88 324.11 -9.40Q324.77 -10.21 325.18 -10.40Q325.59 -10.58 326.40 -10.58L331.95 -10.58Q332.69 -10.58 333.17 -10.17Q333.65 -9.77 333.58 -9.10Q333.51 -7.92 332.36 -6.25Q331.21 -4.59 329.10 -2.96Q326.99 -1.33 323.85 -0.30Q320.70 0.74 316.71 0.74ZM307.90 -22.42L325.44 -22.42L325.44 -22.64Q325.44 -25.60 324.40 -27.93Q323.37 -30.27 321.41 -31.56Q319.45 -32.86 316.63 -32.86Q313.90 -32.86 311.93 -31.56Q309.97 -30.27 308.94 -27.93Q307.90 -25.60 307.90 -22.64ZM357.05 0.74Q352.69 0.74 349.58 -0.30Q346.47 -1.33 344.51 -2.85Q342.55 -4.37 341.59 -5.92Q340.63 -7.47 340.55 -8.51Q340.48 -9.32 341.07 -9.77Q341.66 -10.21 342.25 -10.21L347.36 -10.21Q347.73 -10.21 347.95 -10.14Q348.17 -10.06 348.54 -9.62Q349.51 -8.73 350.62 -7.81Q351.73 -6.88 353.32 -6.25Q354.91 -5.62 357.20 -5.62Q360.31 -5.62 362.42 -6.84Q364.53 -8.07 364.53 -10.43Q364.53 -12.06 363.64 -13.06Q362.75 -14.06 360.38 -14.87Q358.02 -15.69 353.72 -16.58Q349.43 -17.54 346.77 -19.05Q344.10 -20.57 342.85 -22.75Q341.59 -24.94 341.59 -27.82Q341.59 -30.64 343.29 -33.26Q344.99 -35.89 348.32 -37.55Q351.65 -39.22 356.68 -39.22Q360.61 -39.22 363.53 -38.22Q366.45 -37.22 368.34 -35.78Q370.23 -34.34 371.23 -32.82Q372.22 -31.30 372.30 -30.27Q372.37 -29.45 371.85 -28.97Q371.34 -28.49 370.67 -28.49L365.93 -28.49Q365.49 -28.49 365.16 -28.67Q364.82 -28.86 364.60 -29.16Q363.79 -29.90 362.83 -30.78Q361.86 -31.67 360.42 -32.26Q358.98 -32.86 356.68 -32.86Q353.58 -32.86 351.99 -31.56Q350.39 -30.27 350.39 -28.19Q350.39 -26.94 351.13 -25.94Q351.87 -24.94 354.06 -24.12Q356.24 -23.31 360.61 -22.35Q365.56 -21.46 368.45 -19.76Q371.34 -18.06 372.56 -15.80Q373.78 -13.54 373.78 -10.88Q373.78 -7.55 371.85 -4.92Q369.93 -2.29 366.19 -0.78Q362.46 0.74 357.05 0.74ZM395.93 0.74Q391.57 0.74 388.46 -0.30Q385.35 -1.33 383.39 -2.85Q381.43 -4.37 380.47 -5.92Q379.50 -7.47 379.43 -8.51Q379.36 -9.32 379.95 -9.77Q380.54 -10.21 381.13 -10.21L386.24 -10.21Q386.61 -10.21 386.83 -10.14Q387.05 -10.06 387.42 -9.62Q388.38 -8.73 389.49 -7.81Q390.60 -6.88 392.20 -6.25Q393.79 -5.62 396.08 -5.62Q399.19 -5.62 401.30 -6.84Q403.41 -8.07 403.41 -10.43Q403.41 -12.06 402.52 -13.06Q401.63 -14.06 399.26 -14.87Q396.89 -15.69 392.60 -16.58Q388.31 -17.54 385.65 -19.05Q382.98 -20.57 381.72 -22.75Q380.47 -24.94 380.47 -27.82Q380.47 -30.64 382.17 -33.26Q383.87 -35.89 387.20 -37.55Q390.53 -39.22 395.56 -39.22Q399.48 -39.22 402.41 -38.22Q405.33 -37.22 407.22 -35.78Q409.10 -34.34 410.10 -32.82Q411.10 -31.30 411.18 -30.27Q411.25 -29.45 410.73 -28.97Q410.21 -28.49 409.55 -28.49L404.81 -28.49Q404.37 -28.49 404.04 -28.67Q403.70 -28.86 403.48 -29.16Q402.67 -29.90 401.70 -30.78Q400.74 -31.67 399.30 -32.26Q397.86 -32.86 395.56 -32.86Q392.45 -32.86 390.86 -31.56Q389.27 -30.27 389.27 -28.19Q389.27 -26.94 390.01 -25.94Q390.75 -24.94 392.94 -24.12Q395.12 -23.31 399.48 -22.35Q404.44 -21.46 407.33 -19.76Q410.21 -18.06 411.44 -15.80Q412.66 -13.54 412.66 -10.88Q412.66 -7.55 410.73 -4.92Q408.81 -2.29 405.07 -0.78Q401.33 0.74 395.93 0.74Z"></path></g>
  </g>
</svg>
