<svg width="139.6" height="30" viewBox="0 0 726 156" xmlns="http://www.w3.org/2000/svg" role="img" aria-label="Permit: Expired">
  <style>
    .pill { fill: rgb(229,231,235); stroke: rgb(153,161,175); }
    .ink  { fill: rgb(54,65,83); }
    @media (prefers-color-scheme: dark) {
      .pill { fill: rgb(54,65,83); stroke: rgb(106,114,130); }
      .ink  { fill: rgb(243,244,246); }
    }
  </style>
  <rect class="pill" x="3" y="3" width="720" height="150" rx="75" ry="75" fill="rgb(229,231,235)" stroke="rgb(153,161,175)" stroke-width="6"/>
  <g class="ink" fill="rgb(54,65,83)" transform="translate(40,40) scale(4.75)"><path fill-rule="evenodd" d="M8 15A7 7 0 1 0 8 1a7 7 0 0 0 0 14Zm2.78-4.22a.75.75 0 0 1-1.06 0L8 9.06l-1.72 1.72a.75.75 0 1 1-1.06-1.06L6.94 8 5.22 6.28a.75.75 0 0 1 1.06-1.06L8 6.94l1.72-1.72a.75.75 0 1 1 1.06 1.06L9.06 8l1.72 1.72a.75.75 0 0 1 0 1.06Z" clip-rule="evenodd"/></g>
  <g class="ink" fill="rgb(54,65,83)" transform="translate(138 105.35)"><path d="M7.70 0.00Q6.96 0.00 6.47 -0.48Q5.99 -0.96 5.99 -1.78L5.99 -50.02Q5.99 -50.84 6.47 -51.32Q6.96 -51.80 7.70 -51.80L27.23 -51.80Q32.93 -51.80 37.15 -49.99Q41.37 -48.17 43.70 -44.55Q46.03 -40.92 46.03 -35.52Q46.03 -30.12 43.70 -26.57Q41.37 -23.01 37.15 -21.24Q32.93 -19.46 27.23 -19.46L15.61 -19.46L15.61 -1.78Q15.61 -0.96 15.10 -0.48Q14.58 0.00 13.76 0.00ZM15.47 -27.01L26.86 -27.01Q31.52 -27.01 33.97 -29.19Q36.41 -31.38 36.41 -35.59Q36.41 -39.52 34.08 -41.85Q31.75 -44.18 26.86 -44.18L15.47 -44.18ZM69.21 0.74Q61.14 0.74 56.40 -4.00Q51.67 -8.73 51.30 -17.24Q51.22 -18.06 51.22 -19.31Q51.22 -20.57 51.30 -21.31Q51.59 -26.86 53.81 -30.86Q56.03 -34.85 59.92 -37.04Q63.80 -39.22 69.13 -39.22Q75.05 -39.22 79.01 -36.78Q82.97 -34.34 85.04 -29.93Q87.11 -25.53 87.11 -19.76L87.11 -18.28Q87.11 -17.54 86.60 -17.02Q86.08 -16.50 85.34 -16.50L60.40 -16.50Q60.40 -16.50 60.40 -16.28Q60.40 -16.06 60.40 -15.91Q60.55 -13.25 61.55 -10.91Q62.55 -8.58 64.51 -7.18Q66.47 -5.77 69.13 -5.77Q71.35 -5.77 72.87 -6.44Q74.39 -7.10 75.31 -7.99Q76.24 -8.88 76.61 -9.40Q77.27 -10.21 77.68 -10.40Q78.09 -10.58 78.90 -10.58L84.45 -10.58Q85.19 -10.58 85.67 -10.17Q86.15 -9.77 86.08 -9.10Q86.00 -7.92 84.86 -6.25Q83.71 -4.59 81.60 -2.96Q79.49 -1.33 76.35 -0.30Q73.20 0.74 69.21 0.74ZM60.40 -22.42L77.94 -22.42L77.94 -22.64Q77.94 -25.60 76.90 -27.93Q75.87 -30.27 73.91 -31.56Q71.94 -32.86 69.13 -32.86Q66.39 -32.86 64.43 -31.56Q62.47 -30.27 61.44 -27.93Q60.40 -25.60 60.40 -22.64ZM97.05 0.00Q96.31 0.00 95.83 -0.48Q95.35 -0.96 95.35 -1.78L95.35 -36.70Q95.35 -37.44 95.83 -37.96Q96.31 -38.48 97.05 -38.48L102.30 -38.48Q103.04 -38.48 103.56 -37.96Q104.08 -37.44 104.08 -36.70L104.08 -33.52Q105.78 -35.96 108.41 -37.22Q111.03 -38.48 114.66 -38.48L117.69 -38.48Q118.43 -38.48 118.91 -38.00Q119.40 -37.52 119.40 -36.70L119.40 -32.12Q119.40 -31.38 118.91 -30.86Q118.43 -30.34 117.69 -30.34L112.29 -30.34Q108.59 -30.34 106.52 -28.27Q104.45 -26.20 104.45 -22.50L104.45 -1.78Q104.45 -0.96 103.93 -0.48Q103.41 0.00 102.67 0.00ZM127.09 0.00Q126.35 0.00 125.86 -0.48Q125.38 -0.96 125.38 -1.78L125.38 -36.70Q125.38 -37.52 125.86 -38.00Q126.35 -38.48 127.09 -38.48L132.12 -38.48Q132.86 -38.48 133.38 -38.00Q133.89 -37.52 133.89 -36.70L133.89 -34.19Q135.52 -36.33 138.11 -37.74Q140.70 -39.15 144.33 -39.22Q152.76 -39.29 156.17 -32.56Q157.87 -35.52 161.09 -37.37Q164.31 -39.22 168.30 -39.22Q172.15 -39.22 175.26 -37.44Q178.37 -35.67 180.22 -32.08Q182.07 -28.49 182.07 -23.01L182.07 -1.78Q182.07 -0.96 181.55 -0.48Q181.03 0.00 180.29 0.00L175.04 0.00Q174.22 0.00 173.74 -0.48Q173.26 -0.96 173.26 -1.78L173.26 -22.42Q173.26 -26.05 172.23 -28.08Q171.19 -30.12 169.45 -31.01Q167.71 -31.89 165.64 -31.89Q163.86 -31.89 162.12 -31.01Q160.39 -30.12 159.28 -28.08Q158.17 -26.05 158.17 -22.42L158.17 -1.78Q158.17 -0.96 157.65 -0.48Q157.13 0.00 156.39 0.00L151.14 0.00Q150.40 0.00 149.88 -0.48Q149.36 -0.96 149.36 -1.78L149.36 -22.42Q149.36 -26.05 148.29 -28.08Q147.21 -30.12 145.47 -31.01Q143.74 -31.89 141.74 -31.89Q139.96 -31.89 138.22 -31.01Q136.48 -30.12 135.37 -28.08Q134.26 -26.05 134.26 -22.42L134.26 -1.78Q134.26 -0.96 133.75 -0.48Q133.23 0.00 132.49 0.00ZM193.57 0.00Q192.83 0.00 192.35 -0.48Q191.87 -0.96 191.87 -1.78L191.87 -36.70Q191.87 -37.52 192.35 -38.00Q192.83 -38.48 193.57 -38.48L198.97 -38.48Q199.71 -38.48 200.19 -38.00Q200.67 -37.52 200.67 -36.70L200.67 -1.78Q200.67 -0.96 200.19 -0.48Q199.71 0.00 198.97 0.00ZM193.20 -45.07Q192.46 -45.07 191.94 -45.58Q191.42 -46.10 191.42 -46.84L191.42 -51.73Q191.42 -52.54 191.94 -53.06Q192.46 -53.58 193.20 -53.58L199.34 -53.58Q200.08 -53.58 200.60 -53.06Q201.12 -52.54 201.12 -51.73L201.12 -46.84Q201.12 -46.10 200.60 -45.58Q200.08 -45.07 199.34 -45.07ZM227.54 0.00Q223.17 0.00 220.29 -1.55Q217.40 -3.11 216.00 -6.14Q214.59 -9.18 214.59 -13.54L214.59 -31.23L208.82 -31.23Q208.00 -31.23 207.52 -31.75Q207.04 -32.26 207.04 -33.00L207.04 -36.70Q207.04 -37.52 207.52 -38.00Q208.00 -38.48 208.82 -38.48L214.59 -38.48L214.59 -50.76Q214.59 -51.58 215.07 -52.06Q215.55 -52.54 216.37 -52.54L221.62 -52.54Q222.36 -52.54 222.84 -52.06Q223.32 -51.58 223.32 -50.76L223.32 -38.48L232.57 -38.48Q233.31 -38.48 233.83 -38.00Q234.35 -37.52 234.35 -36.70L234.35 -33.00Q234.35 -32.26 233.83 -31.75Q233.31 -31.23 232.57 -31.23L223.32 -31.23L223.32 -14.28Q223.32 -11.10 224.43 -9.29Q225.54 -7.47 228.35 -7.47L233.24 -7.47Q234.05 -7.47 234.53 -6.99Q235.01 -6.51 235.01 -5.77L235.01 -1.78Q235.01 -0.96 234.53 -0.48Q234.05 0.00 233.24 0.00ZM243.30 -25.90Q242.48 -25.90 242.00 -26.38Q241.52 -26.86 241.52 -27.68L241.52 -34.11Q241.52 -34.93 242.00 -35.45Q242.48 -35.96 243.30 -35.96L249.96 -35.96Q250.77 -35.96 251.29 -35.45Q251.81 -34.93 251.81 -34.11L251.81 -27.68Q251.81 -26.86 251.29 -26.38Q250.77 -25.90 249.96 -25.90ZM243.30 0.00Q242.48 0.00 242.00 -0.48Q241.52 -0.96 241.52 -1.78L241.52 -8.21Q241.52 -9.03 242.00 -9.55Q242.48 -10.06 243.30 -10.06L249.96 -10.06Q250.77 -10.06 251.29 -9.55Q251.81 -9.03 251.81 -8.21L251.81 -1.78Q251.81 -0.96 251.29 -0.48Q250.77 0.00 249.96 0.00ZM281.56 0.00Q280.82 0.00 280.34 -0.48Q279.86 -0.96 279.86 -1.78L279.86 -50.02Q279.86 -50.84 280.34 -51.32Q280.82 -51.80 281.56 -51.80L313.53 -51.80Q314.34 -51.80 314.86 -51.32Q315.38 -50.84 315.38 -50.02L315.38 -45.73Q315.38 -44.92 314.86 -44.44Q314.34 -43.96 313.53 -43.96L288.96 -43.96L288.96 -29.90L311.90 -29.90Q312.71 -29.90 313.23 -29.41Q313.75 -28.93 313.75 -28.12L313.75 -24.12Q313.75 -23.38 313.23 -22.87Q312.71 -22.35 311.90 -22.35L288.96 -22.35L288.96 -7.84L314.12 -7.84Q314.93 -7.84 315.45 -7.36Q315.97 -6.88 315.97 -6.07L315.97 -1.78Q315.97 -0.96 315.45 -0.48Q314.93 0.00 314.12 0.00ZM322.97 0.00Q322.30 0.00 321.82 -0.48Q321.34 -0.96 321.34 -1.55Q321.34 -1.85 321.45 -2.15Q321.56 -2.44 321.86 -2.89L334.51 -19.76L322.74 -35.59Q322.52 -35.96 322.41 -36.30Q322.30 -36.63 322.30 -36.93Q322.30 -37.52 322.74 -38.00Q323.19 -38.48 323.85 -38.48L329.48 -38.48Q330.37 -38.48 330.81 -38.07Q331.25 -37.67 331.48 -37.30L340.28 -25.60L349.09 -37.22Q349.38 -37.59 349.79 -38.04Q350.20 -38.48 351.09 -38.48L356.49 -38.48Q357.15 -38.48 357.60 -38.00Q358.04 -37.52 358.04 -36.93Q358.04 -36.63 357.97 -36.30Q357.89 -35.96 357.60 -35.59L345.61 -19.61L358.34 -2.89Q358.63 -2.44 358.75 -2.15Q358.86 -1.85 358.86 -1.55Q358.86 -0.96 358.38 -0.48Q357.89 0.00 357.30 0.00L351.38 0.00Q350.57 0.00 350.16 -0.41Q349.75 -0.81 349.46 -1.18L340.06 -13.47L330.59 -1.18Q330.37 -0.81 329.92 -0.41Q329.48 0.00 328.66 0.00ZM367.60 14.06Q366.86 14.06 366.34 13.58Q365.82 13.10 365.82 12.28L365.82 -36.70Q365.82 -37.52 366.34 -38.00Q366.86 -38.48 367.60 -38.48L372.71 -38.48Q373.52 -38.48 374.00 -38.00Q374.48 -37.52 374.48 -36.70L374.48 -33.67Q376.26 -36.04 379.18 -37.63Q382.10 -39.22 386.40 -39.22Q390.39 -39.22 393.28 -37.89Q396.16 -36.56 398.09 -34.23Q400.01 -31.89 401.05 -28.75Q402.08 -25.60 402.16 -21.83Q402.23 -20.57 402.23 -19.24Q402.23 -17.91 402.16 -16.65Q402.08 -13.02 401.08 -9.84Q400.09 -6.66 398.12 -4.33Q396.16 -2.00 393.28 -0.63Q390.39 0.74 386.40 0.74Q382.33 0.74 379.48 -0.74Q376.63 -2.22 374.85 -4.66L374.85 12.28Q374.85 13.10 374.37 13.58Q373.89 14.06 373.08 14.06ZM384.03 -6.59Q387.36 -6.59 389.28 -8.03Q391.21 -9.47 392.06 -11.88Q392.91 -14.28 393.06 -17.02Q393.13 -19.24 393.06 -21.46Q392.91 -24.20 392.06 -26.60Q391.21 -29.01 389.28 -30.45Q387.36 -31.89 384.03 -31.89Q380.77 -31.89 378.81 -30.38Q376.85 -28.86 375.92 -26.57Q375.00 -24.27 374.85 -21.83Q374.78 -20.57 374.78 -19.02Q374.78 -17.46 374.85 -16.13Q374.93 -13.84 375.92 -11.65Q376.92 -9.47 378.92 -8.03Q380.92 -6.59 384.03 -6.59ZM412.54 0.00Q411.80 0.00 411.32 -0.48Q410.83 -0.96 410.83 -1.78L410.83 -36.70Q410.83 -37.52 411.32 -38.00Q411.80 -38.48 412.54 -38.48L417.94 -38.48Q418.68 -38.48 419.16 -38.00Q419.64 -37.52 419.64 -36.70L419.64 -1.78Q419.64 -0.96 419.16 -0.48Q418.68 0.00 417.94 0.00ZM412.17 -45.07Q411.43 -45.07 410.91 -45.58Q410.39 -46.10 410.39 -46.84L410.39 -51.73Q410.39 -52.54 410.91 -53.06Q411.43 -53.58 412.17 -53.58L418.31 -53.58Q419.05 -53.58 419.57 -53.06Q420.08 -52.54 420.08 -51.73L420.08 -46.84Q420.08 -46.10 419.57 -45.58Q419.05 -45.07 418.31 -45.07ZM431.56 0.00Q430.82 0.00 430.34 -0.48Q429.86 -0.96 429.86 -1.78L429.86 -36.70Q429.86 -37.44 430.34 -37.96Q430.82 -38.48 431.56 -38.48L436.81 -38.48Q437.55 -38.48 438.07 -37.96Q438.59 -37.44 438.59 -36.70L438.59 -33.52Q440.29 -35.96 442.92 -37.22Q445.54 -38.48 449.17 -38.48L452.20 -38.48Q452.94 -38.48 453.43 -38.00Q453.91 -37.52 453.91 -36.70L453.91 -32.12Q453.91 -31.38 453.43 -30.86Q452.94 -30.34 452.20 -30.34L446.80 -30.34Q443.10 -30.34 441.03 -28.27Q438.96 -26.20 438.96 -22.50L438.96 -1.78Q438.96 -0.96 438.44 -0.48Q437.92 0.00 437.18 0.00ZM475.51 0.74Q467.45 0.74 462.71 -4.00Q457.98 -8.73 457.61 -17.24Q457.53 -18.06 457.53 -19.31Q457.53 -20.57 457.61 -21.31Q457.90 -26.86 460.12 -30.86Q462.34 -34.85 466.23 -37.04Q470.11 -39.22 475.44 -39.22Q481.36 -39.22 485.32 -36.78Q489.28 -34.34 491.35 -29.93Q493.42 -25.53 493.42 -19.76L493.42 -18.28Q493.42 -17.54 492.90 -17.02Q492.39 -16.50 491.65 -16.50L466.71 -16.50Q466.71 -16.50 466.71 -16.28Q466.71 -16.06 466.71 -15.91Q466.86 -13.25 467.86 -10.91Q468.85 -8.58 470.82 -7.18Q472.78 -5.77 475.44 -5.77Q477.66 -5.77 479.18 -6.44Q480.69 -7.10 481.62 -7.99Q482.54 -8.88 482.91 -9.40Q483.58 -10.21 483.99 -10.40Q484.39 -10.58 485.21 -10.58L490.76 -10.58Q491.50 -10.58 491.98 -10.17Q492.46 -9.77 492.39 -9.10Q492.31 -7.92 491.17 -6.25Q490.02 -4.59 487.91 -2.96Q485.80 -1.33 482.66 -0.30Q479.51 0.74 475.51 0.74ZM466.71 -22.42L484.25 -22.42L484.25 -22.64Q484.25 -25.60 483.21 -27.93Q482.17 -30.27 480.21 -31.56Q478.25 -32.86 475.44 -32.86Q472.70 -32.86 470.74 -31.56Q468.78 -30.27 467.74 -27.93Q466.71 -25.60 466.71 -22.64ZM515.79 0.74Q511.94 0.74 509.02 -0.59Q506.09 -1.92 504.13 -4.33Q502.17 -6.73 501.21 -9.95Q500.25 -13.17 500.03 -16.87Q499.95 -18.20 499.95 -19.28Q499.95 -20.35 500.03 -21.61Q500.17 -25.23 501.17 -28.45Q502.17 -31.67 504.10 -34.08Q506.02 -36.48 508.98 -37.85Q511.94 -39.22 515.79 -39.22Q519.93 -39.22 522.74 -37.78Q525.56 -36.33 527.41 -34.19L527.41 -50.76Q527.41 -51.58 527.89 -52.06Q528.37 -52.54 529.11 -52.54L534.58 -52.54Q535.40 -52.54 535.88 -52.06Q536.36 -51.58 536.36 -50.76L536.36 -1.78Q536.36 -0.96 535.88 -0.48Q535.40 0.00 534.58 0.00L529.48 0.00Q528.74 0.00 528.26 -0.48Q527.78 -0.96 527.78 -1.78L527.78 -4.66Q525.93 -2.29 523.04 -0.78Q520.15 0.74 515.79 0.74ZM518.23 -6.59Q521.49 -6.59 523.45 -8.10Q525.41 -9.62 526.37 -11.91Q527.33 -14.21 527.41 -16.65Q527.48 -17.98 527.48 -19.50Q527.48 -21.02 527.41 -22.35Q527.33 -24.64 526.33 -26.82Q525.33 -29.01 523.34 -30.45Q521.34 -31.89 518.23 -31.89Q514.90 -31.89 512.98 -30.45Q511.05 -29.01 510.20 -26.60Q509.35 -24.20 509.20 -21.46Q509.05 -19.24 509.20 -17.02Q509.35 -14.28 510.20 -11.88Q511.05 -9.47 512.98 -8.03Q514.90 -6.59 518.23 -6.59Z"/></g>
</svg>