<svg width="268.6" height="50" viewBox="0 0 268.6 50" xmlns="http://www.w3.org/2000/svg" role="img" aria-label="Permit Status: In-progress">
  <style>
    .tile  { fill: #FFFFFF; stroke: rgb(229,231,235); }
    .label { fill: #111827; }
    .pill  { fill: rgb(254,243,198); stroke: transparent; }
    .ink   { fill: rgb(151,60,0); }
    @media (prefers-color-scheme: dark) {
      .tile  { fill: #1E293B; stroke: rgb(71,85,105); }
      .label { fill: #FFFFFF; }
      .pill  { fill: rgb(151,60,0); stroke: rgb(253,154,0); }
      .ink   { fill: rgb(254,243,198); }
    }
  </style>
  <rect class="tile" x="0.5" y="0.5" width="267.6" height="49" rx="12" ry="12" stroke-width="1"></rect>
  <g transform="translate(10,6.21) scale(0.236486)">
    <g class="label" transform="translate(0 105.35)"><path d="M7.40 0.00Q6.59 0.00 6.07 -0.52Q5.55 -1.04 5.55 -1.78L5.55 -49.95Q5.55 -50.76 6.07 -51.28Q6.59 -51.80 7.40 -51.80L27.45 -51.80Q33.45 -51.80 37.81 -49.95Q42.18 -48.10 44.62 -44.40Q47.06 -40.70 47.06 -35.15Q47.06 -29.60 44.62 -25.94Q42.18 -22.27 37.81 -20.50Q33.45 -18.72 27.45 -18.72L17.24 -18.72L17.24 -1.78Q17.24 -1.04 16.72 -0.52Q16.21 0.00 15.39 0.00ZM17.09 -27.60L27.08 -27.60Q31.01 -27.60 33.19 -29.53Q35.37 -31.45 35.37 -35.22Q35.37 -38.63 33.41 -40.74Q31.45 -42.85 27.08 -42.85L17.09 -42.85ZM70.37 0.74Q62.01 0.74 57.05 -4.00Q52.10 -8.73 51.80 -17.69Q51.80 -18.28 51.80 -19.31Q51.80 -20.35 51.80 -21.02Q52.10 -26.64 54.39 -30.75Q56.68 -34.85 60.75 -37.04Q64.82 -39.22 70.37 -39.22Q76.52 -39.22 80.66 -36.70Q84.80 -34.19 86.91 -29.75Q89.02 -25.31 89.02 -19.61L89.02 -17.98Q89.02 -17.24 88.47 -16.72Q87.91 -16.21 87.17 -16.21L62.83 -16.21Q62.83 -16.13 62.83 -15.95Q62.83 -15.76 62.83 -15.61Q62.90 -13.17 63.79 -11.14Q64.68 -9.10 66.34 -7.88Q68.01 -6.66 70.30 -6.66Q72.15 -6.66 73.41 -7.21Q74.67 -7.77 75.48 -8.55Q76.29 -9.32 76.66 -9.77Q77.33 -10.58 77.74 -10.77Q78.14 -10.95 79.03 -10.95L86.36 -10.95Q87.02 -10.95 87.51 -10.54Q87.99 -10.14 87.91 -9.40Q87.84 -8.21 86.73 -6.47Q85.62 -4.74 83.40 -3.07Q81.18 -1.41 77.92 -0.33Q74.67 0.74 70.37 0.74ZM62.83 -22.79L77.92 -22.79L77.92 -22.94Q77.92 -25.68 77.03 -27.71Q76.15 -29.75 74.44 -30.89Q72.74 -32.04 70.37 -32.04Q68.01 -32.04 66.30 -30.89Q64.60 -29.75 63.71 -27.71Q62.83 -25.68 62.83 -22.94ZM98.35 0.00Q97.61 0.00 97.09 -0.52Q96.57 -1.04 96.57 -1.78L96.57 -36.63Q96.57 -37.44 97.09 -37.96Q97.61 -38.48 98.35 -38.48L105.23 -38.48Q105.97 -38.48 106.49 -37.96Q107.01 -37.44 107.01 -36.63L107.01 -33.60Q108.86 -35.96 111.56 -37.22Q114.26 -38.48 117.81 -38.48L120.92 -38.48Q121.73 -38.48 122.25 -37.96Q122.77 -37.44 122.77 -36.70L122.77 -30.56Q122.77 -29.82 122.25 -29.30Q121.73 -28.79 120.92 -28.79L114.70 -28.79Q111.30 -28.79 109.45 -26.90Q107.60 -25.01 107.60 -21.68L107.60 -1.78Q107.60 -1.04 107.04 -0.52Q106.49 0.00 105.75 0.00ZM130.15 0.00Q129.41 0.00 128.89 -0.52Q128.37 -1.04 128.37 -1.78L128.37 -36.70Q128.37 -37.44 128.89 -37.96Q129.41 -38.48 130.15 -38.48L136.66 -38.48Q137.47 -38.48 137.99 -37.96Q138.51 -37.44 138.51 -36.70L138.51 -34.19Q140.06 -36.19 142.69 -37.67Q145.32 -39.15 148.94 -39.22Q157.45 -39.37 160.71 -32.71Q162.41 -35.59 165.59 -37.41Q168.77 -39.22 172.70 -39.22Q176.54 -39.22 179.65 -37.44Q182.76 -35.67 184.57 -32.08Q186.39 -28.49 186.39 -22.94L186.39 -1.78Q186.39 -1.04 185.87 -0.52Q185.35 0.00 184.61 0.00L177.65 0.00Q176.91 0.00 176.40 -0.52Q175.88 -1.04 175.88 -1.78L175.88 -22.42Q175.88 -25.46 174.95 -27.27Q174.03 -29.08 172.55 -29.86Q171.07 -30.64 169.22 -30.64Q167.66 -30.64 166.15 -29.86Q164.63 -29.08 163.67 -27.27Q162.71 -25.46 162.71 -22.42L162.71 -1.78Q162.71 -1.04 162.19 -0.52Q161.67 0.00 160.93 0.00L153.97 0.00Q153.23 0.00 152.72 -0.52Q152.20 -1.04 152.20 -1.78L152.20 -22.42Q152.20 -25.46 151.24 -27.27Q150.27 -29.08 148.79 -29.86Q147.31 -30.64 145.54 -30.64Q143.98 -30.64 142.47 -29.82Q140.95 -29.01 139.99 -27.23Q139.03 -25.46 139.03 -22.42L139.03 -1.78Q139.03 -1.04 138.51 -0.52Q137.99 0.00 137.18 0.00ZM197.25 0.00Q196.51 0.00 195.99 -0.52Q195.48 -1.04 195.48 -1.78L195.48 -36.70Q195.48 -37.44 195.99 -37.96Q196.51 -38.48 197.25 -38.48L204.28 -38.48Q205.02 -38.48 205.54 -37.96Q206.06 -37.44 206.06 -36.70L206.06 -1.78Q206.06 -1.04 205.54 -0.52Q205.02 0.00 204.28 0.00ZM197.03 -44.55Q196.22 -44.55 195.70 -45.07Q195.18 -45.58 195.18 -46.32L195.18 -52.10Q195.18 -52.91 195.70 -53.43Q196.22 -53.95 197.03 -53.95L204.50 -53.95Q205.24 -53.95 205.80 -53.43Q206.35 -52.91 206.35 -52.10L206.35 -46.32Q206.35 -45.58 205.80 -45.07Q205.24 -44.55 204.50 -44.55ZM233.66 0.00Q229.15 0.00 225.97 -1.55Q222.79 -3.11 221.20 -6.22Q219.60 -9.32 219.60 -14.06L219.60 -30.04L213.76 -30.04Q213.02 -30.04 212.50 -30.56Q211.98 -31.08 211.98 -31.82L211.98 -36.70Q211.98 -37.44 212.50 -37.96Q213.02 -38.48 213.76 -38.48L219.60 -38.48L219.60 -50.76Q219.60 -51.50 220.09 -52.02Q220.57 -52.54 221.38 -52.54L228.26 -52.54Q229.00 -52.54 229.52 -52.02Q230.04 -51.50 230.04 -50.76L230.04 -38.48L239.29 -38.48Q240.10 -38.48 240.62 -37.96Q241.14 -37.44 241.14 -36.70L241.14 -31.82Q241.14 -31.08 240.62 -30.56Q240.10 -30.04 239.29 -30.04L230.04 -30.04L230.04 -14.95Q230.04 -12.06 231.11 -10.43Q232.18 -8.81 234.70 -8.81L239.95 -8.81Q240.77 -8.81 241.29 -8.29Q241.80 -7.77 241.80 -7.03L241.80 -1.78Q241.80 -1.04 241.29 -0.52Q240.77 0.00 239.95 0.00ZM284.10 0.74Q276.99 0.74 272.26 -1.33Q267.52 -3.40 265.12 -6.73Q262.71 -10.06 262.56 -13.76Q262.56 -14.36 263.01 -14.84Q263.45 -15.32 264.12 -15.32L271.67 -15.32Q272.63 -15.32 273.15 -14.91Q273.66 -14.50 274.03 -13.91Q274.55 -12.58 275.74 -11.36Q276.92 -10.14 278.96 -9.32Q280.99 -8.51 284.10 -8.51Q289.06 -8.51 291.50 -10.14Q293.94 -11.77 293.94 -14.50Q293.94 -16.50 292.65 -17.72Q291.35 -18.94 288.50 -19.94Q285.65 -20.94 280.99 -22.05Q275.44 -23.31 271.63 -25.20Q267.82 -27.08 265.86 -30.04Q263.90 -33.00 263.90 -37.44Q263.90 -41.81 266.30 -45.21Q268.71 -48.62 273.15 -50.58Q277.59 -52.54 283.65 -52.54Q288.54 -52.54 292.31 -51.24Q296.09 -49.95 298.60 -47.80Q301.12 -45.66 302.45 -43.22Q303.78 -40.77 303.86 -38.48Q303.86 -37.89 303.45 -37.41Q303.04 -36.93 302.30 -36.93L294.46 -36.93Q293.72 -36.93 293.13 -37.22Q292.53 -37.52 292.16 -38.26Q291.79 -40.33 289.50 -41.81Q287.21 -43.29 283.65 -43.29Q279.88 -43.29 277.66 -41.92Q275.44 -40.55 275.44 -37.67Q275.44 -35.82 276.59 -34.56Q277.73 -33.30 280.32 -32.34Q282.91 -31.38 287.21 -30.27Q293.64 -28.93 297.68 -27.08Q301.71 -25.23 303.63 -22.31Q305.56 -19.39 305.56 -15.02Q305.56 -10.06 302.82 -6.55Q300.08 -3.03 295.27 -1.15Q290.46 0.74 284.10 0.74ZM330.96 0.00Q326.44 0.00 323.26 -1.55Q320.08 -3.11 318.49 -6.22Q316.90 -9.32 316.90 -14.06L316.90 -30.04L311.05 -30.04Q310.31 -30.04 309.79 -30.56Q309.27 -31.08 309.27 -31.82L309.27 -36.70Q309.27 -37.44 309.79 -37.96Q310.31 -38.48 311.05 -38.48L316.90 -38.48L316.90 -50.76Q316.90 -51.50 317.38 -52.02Q317.86 -52.54 318.67 -52.54L325.55 -52.54Q326.29 -52.54 326.81 -52.02Q327.33 -51.50 327.33 -50.76L327.33 -38.48L336.58 -38.48Q337.39 -38.48 337.91 -37.96Q338.43 -37.44 338.43 -36.70L338.43 -31.82Q338.43 -31.08 337.91 -30.56Q337.39 -30.04 336.58 -30.04L327.33 -30.04L327.33 -14.95Q327.33 -12.06 328.40 -10.43Q329.48 -8.81 331.99 -8.81L337.25 -8.81Q338.06 -8.81 338.58 -8.29Q339.10 -7.77 339.10 -7.03L339.10 -1.78Q339.10 -1.04 338.58 -0.52Q338.06 0.00 337.25 0.00ZM356.79 0.74Q352.95 0.74 349.84 -0.78Q346.73 -2.29 344.88 -4.85Q343.03 -7.40 343.03 -10.66Q343.03 -15.84 347.25 -18.91Q351.47 -21.98 358.42 -23.01L368.26 -24.49L368.26 -25.83Q368.26 -28.79 366.86 -30.41Q365.45 -32.04 361.97 -32.04Q359.46 -32.04 357.94 -31.04Q356.42 -30.04 355.61 -28.42Q355.02 -27.45 353.91 -27.45L347.25 -27.45Q346.36 -27.45 345.95 -27.93Q345.55 -28.42 345.62 -29.08Q345.62 -30.27 346.55 -32.00Q347.47 -33.74 349.43 -35.37Q351.39 -37.00 354.50 -38.11Q357.61 -39.22 362.05 -39.22Q366.71 -39.22 370.00 -38.07Q373.30 -36.93 375.29 -35.00Q377.29 -33.08 378.22 -30.41Q379.14 -27.75 379.14 -24.79L379.14 -1.78Q379.14 -1.04 378.62 -0.52Q378.11 0.00 377.37 0.00L370.48 0.00Q369.67 0.00 369.15 -0.52Q368.63 -1.04 368.63 -1.78L368.63 -4.59Q367.67 -3.18 366.08 -2.00Q364.49 -0.81 362.20 -0.04Q359.90 0.74 356.79 0.74ZM359.68 -6.73Q362.12 -6.73 364.08 -7.81Q366.04 -8.88 367.23 -11.10Q368.41 -13.32 368.41 -16.65L368.41 -17.98L361.31 -16.80Q357.24 -16.21 355.31 -14.80Q353.39 -13.39 353.39 -11.47Q353.39 -9.92 354.28 -8.88Q355.17 -7.84 356.61 -7.29Q358.05 -6.73 359.68 -6.73ZM406.06 0.00Q401.55 0.00 398.37 -1.55Q395.19 -3.11 393.60 -6.22Q392.00 -9.32 392.00 -14.06L392.00 -30.04L386.16 -30.04Q385.42 -30.04 384.90 -30.56Q384.38 -31.08 384.38 -31.82L384.38 -36.70Q384.38 -37.44 384.90 -37.96Q385.42 -38.48 386.16 -38.48L392.00 -38.48L392.00 -50.76Q392.00 -51.50 392.49 -52.02Q392.97 -52.54 393.78 -52.54L400.66 -52.54Q401.40 -52.54 401.92 -52.02Q402.44 -51.50 402.44 -50.76L402.44 -38.48L411.69 -38.48Q412.50 -38.48 413.02 -37.96Q413.54 -37.44 413.54 -36.70L413.54 -31.82Q413.54 -31.08 413.02 -30.56Q412.50 -30.04 411.69 -30.04L402.44 -30.04L402.44 -14.95Q402.44 -12.06 403.51 -10.43Q404.58 -8.81 407.10 -8.81L412.35 -8.81Q413.17 -8.81 413.69 -8.29Q414.20 -7.77 414.20 -7.03L414.20 -1.78Q414.20 -1.04 413.69 -0.52Q413.17 0.00 412.35 0.00ZM434.86 0.74Q430.42 0.74 427.13 -1.26Q423.84 -3.26 422.06 -6.99Q420.28 -10.73 420.28 -15.91L420.28 -36.70Q420.28 -37.44 420.80 -37.96Q421.32 -38.48 422.06 -38.48L429.53 -38.48Q430.27 -38.48 430.79 -37.96Q431.31 -37.44 431.31 -36.70L431.31 -16.35Q431.31 -7.84 438.86 -7.84Q442.41 -7.84 444.52 -10.10Q446.63 -12.36 446.63 -16.35L446.63 -36.70Q446.63 -37.44 447.15 -37.96Q447.66 -38.48 448.48 -38.48L455.88 -38.48Q456.62 -38.48 457.14 -37.96Q457.65 -37.44 457.65 -36.70L457.65 -1.78Q457.65 -1.04 457.14 -0.52Q456.62 0.00 455.88 0.00L449.00 0.00Q448.18 0.00 447.66 -0.52Q447.15 -1.04 447.15 -1.78L447.15 -4.81Q445.22 -2.15 442.22 -0.70Q439.23 0.74 434.86 0.74ZM482.13 0.74Q477.54 0.74 474.32 -0.30Q471.11 -1.33 469.03 -2.89Q466.96 -4.44 466.00 -6.07Q465.04 -7.70 464.96 -8.73Q464.89 -9.55 465.48 -10.06Q466.07 -10.58 466.67 -10.58L473.40 -10.58Q473.70 -10.58 473.92 -10.51Q474.14 -10.43 474.44 -10.06Q475.40 -9.40 476.40 -8.51Q477.40 -7.62 478.84 -7.03Q480.28 -6.44 482.35 -6.44Q484.94 -6.44 486.72 -7.47Q488.50 -8.51 488.50 -10.51Q488.50 -11.91 487.68 -12.80Q486.87 -13.69 484.68 -14.47Q482.50 -15.24 478.36 -16.06Q474.29 -17.02 471.51 -18.50Q468.74 -19.98 467.33 -22.24Q465.93 -24.49 465.93 -27.60Q465.93 -30.41 467.70 -33.11Q469.48 -35.82 473.03 -37.52Q476.58 -39.22 481.76 -39.22Q485.83 -39.22 488.87 -38.22Q491.90 -37.22 493.93 -35.74Q495.97 -34.26 497.04 -32.67Q498.12 -31.08 498.19 -29.90Q498.26 -29.16 497.75 -28.64Q497.23 -28.12 496.56 -28.12L490.35 -28.12Q489.98 -28.12 489.68 -28.23Q489.38 -28.34 489.16 -28.56Q488.27 -29.23 487.35 -30.04Q486.42 -30.86 485.13 -31.45Q483.83 -32.04 481.76 -32.04Q479.17 -32.04 477.84 -30.93Q476.51 -29.82 476.51 -28.12Q476.51 -26.94 477.17 -26.05Q477.84 -25.16 479.91 -24.42Q481.98 -23.68 486.28 -22.79Q491.31 -21.90 494.27 -20.16Q497.23 -18.43 498.49 -16.09Q499.74 -13.76 499.74 -11.10Q499.74 -7.70 497.71 -5.00Q495.67 -2.29 491.75 -0.78Q487.83 0.74 482.13 0.74ZM508.56 -25.90Q507.82 -25.90 507.30 -26.42Q506.78 -26.94 506.78 -27.68L506.78 -35.37Q506.78 -36.19 507.30 -36.70Q507.82 -37.22 508.56 -37.22L516.62 -37.22Q517.36 -37.22 517.92 -36.70Q518.47 -36.19 518.47 -35.37L518.47 -27.68Q518.47 -26.94 517.92 -26.42Q517.36 -25.90 516.62 -25.90ZM508.56 0.00Q507.82 0.00 507.30 -0.52Q506.78 -1.04 506.78 -1.78L506.78 -9.47Q506.78 -10.29 507.30 -10.80Q507.82 -11.32 508.56 -11.32L516.62 -11.32Q517.36 -11.32 517.92 -10.80Q518.47 -10.29 518.47 -9.47L518.47 -1.78Q518.47 -1.04 517.92 -0.52Q517.36 0.00 516.62 0.00Z"></path></g>
  </g>
  <g transform="translate(142.6,10) scale(0.192308)">
    <rect class="pill" x="3" y="3" width="597" height="150" rx="75" ry="75" stroke-width="6"></rect>
    <g class="ink" transform="translate(40,40) scale(4.75)"><path fill-rule="evenodd" d="M13.836 2.477a.75.75 0 0 1 .75.75v3.182a.75.75 0 0 1-.75.75h-3.182a.75.75 0 0 1 0-1.5h1.37l-.84-.841a4.5 4.5 0 0 0-7.08.932.75.75 0 0 1-1.3-.75 6 6 0 0 1 9.44-1.242l.842.84V3.227a.75.75 0 0 1 .75-.75Zm-.911 7.5A.75.75 0 0 1 13.199 11a6 6 0 0 1-9.44 1.241l-.84-.84v1.371a.75.75 0 0 1-1.5 0V9.591a.75.75 0 0 1 .75-.75H5.35a.75.75 0 0 1 0 1.5H3.98l.841.841a4.5 4.5 0 0 0 7.08-.932.75.75 0 0 1 1.025-.273Z" clip-rule="evenodd"></path></g>
    <g class="ink" transform="translate(138 105.35)"><path d="M7.70 0.00Q6.96 0.00 6.47 -0.48Q5.99 -0.96 5.99 -1.78L5.99 -50.02Q5.99 -50.84 6.47 -51.32Q6.96 -51.80 7.70 -51.80L13.76 -51.80Q14.58 -51.80 15.06 -51.32Q15.54 -50.84 15.54 -50.02L15.54 -1.78Q15.54 -0.96 15.06 -0.48Q14.58 0.00 13.76 0.00ZM28.33 0.00Q27.59 0.00 27.11 -0.48Q26.63 -0.96 26.63 -1.78L26.63 -36.70Q26.63 -37.52 27.11 -38.00Q27.59 -38.48 28.33 -38.48L33.59 -38.48Q34.40 -38.48 34.88 -38.00Q35.36 -37.52 35.36 -36.70L35.36 -33.60Q37.29 -36.04 40.28 -37.63Q43.28 -39.22 47.72 -39.22Q52.31 -39.22 55.64 -37.18Q58.97 -35.15 60.78 -31.41Q62.59 -27.68 62.59 -22.57L62.59 -1.78Q62.59 -0.96 62.11 -0.48Q61.63 0.00 60.82 0.00L55.19 0.00Q54.45 0.00 53.94 -0.48Q53.42 -0.96 53.42 -1.78L53.42 -22.13Q53.42 -26.71 51.20 -29.30Q48.98 -31.89 44.69 -31.89Q40.62 -31.89 38.17 -29.30Q35.73 -26.71 35.73 -22.13L35.73 -1.78Q35.73 -0.96 35.25 -0.48Q34.77 0.00 33.96 0.00ZM73.81 -18.28Q73.07 -18.28 72.55 -18.80Q72.04 -19.31 72.04 -20.05L72.04 -24.35Q72.04 -25.09 72.55 -25.60Q73.07 -26.12 73.81 -26.12L96.38 -26.12Q97.20 -26.12 97.68 -25.60Q98.16 -25.09 98.16 -24.35L98.16 -20.05Q98.16 -19.31 97.68 -18.80Q97.20 -18.28 96.38 -18.28ZM109.82 14.06Q109.08 14.06 108.56 13.58Q108.04 13.10 108.04 12.28L108.04 -36.70Q108.04 -37.52 108.56 -38.00Q109.08 -38.48 109.82 -38.48L114.92 -38.48Q115.74 -38.48 116.22 -38.00Q116.70 -37.52 116.70 -36.70L116.70 -33.67Q118.48 -36.04 121.40 -37.63Q124.32 -39.22 128.61 -39.22Q132.61 -39.22 135.50 -37.89Q138.38 -36.56 140.31 -34.23Q142.23 -31.89 143.27 -28.75Q144.30 -25.60 144.38 -21.83Q144.45 -20.57 144.45 -19.24Q144.45 -17.91 144.38 -16.65Q144.30 -13.02 143.30 -9.84Q142.30 -6.66 140.34 -4.33Q138.38 -2.00 135.50 -0.63Q132.61 0.74 128.61 0.74Q124.54 0.74 121.69 -0.74Q118.85 -2.22 117.07 -4.66L117.07 12.28Q117.07 13.10 116.59 13.58Q116.11 14.06 115.29 14.06ZM126.25 -6.59Q129.58 -6.59 131.50 -8.03Q133.42 -9.47 134.27 -11.88Q135.13 -14.28 135.27 -17.02Q135.35 -19.24 135.27 -21.46Q135.13 -24.20 134.27 -26.60Q133.42 -29.01 131.50 -30.45Q129.58 -31.89 126.25 -31.89Q122.99 -31.89 121.03 -30.38Q119.07 -28.86 118.14 -26.57Q117.22 -24.27 117.07 -21.83Q117.00 -20.57 117.00 -19.02Q117.00 -17.46 117.07 -16.13Q117.14 -13.84 118.14 -11.65Q119.14 -9.47 121.14 -8.03Q123.14 -6.59 126.25 -6.59ZM154.75 0.00Q154.01 0.00 153.53 -0.48Q153.05 -0.96 153.05 -1.78L153.05 -36.70Q153.05 -37.44 153.53 -37.96Q154.01 -38.48 154.75 -38.48L160.01 -38.48Q160.75 -38.48 161.27 -37.96Q161.78 -37.44 161.78 -36.70L161.78 -33.52Q163.49 -35.96 166.11 -37.22Q168.74 -38.48 172.37 -38.48L175.40 -38.48Q176.14 -38.48 176.62 -38.00Q177.10 -37.52 177.10 -36.70L177.10 -32.12Q177.10 -31.38 176.62 -30.86Q176.14 -30.34 175.40 -30.34L170.00 -30.34Q166.30 -30.34 164.23 -28.27Q162.15 -26.20 162.15 -22.50L162.15 -1.78Q162.15 -0.96 161.64 -0.48Q161.12 0.00 160.38 0.00ZM199.08 0.74Q193.23 0.74 189.31 -1.37Q185.39 -3.48 183.28 -7.25Q181.17 -11.03 180.95 -15.98Q180.88 -17.32 180.88 -19.24Q180.88 -21.16 180.95 -22.50Q181.17 -27.53 183.32 -31.26Q185.46 -35.00 189.42 -37.11Q193.38 -39.22 199.08 -39.22Q204.78 -39.22 208.74 -37.11Q212.70 -35.00 214.84 -31.26Q216.99 -27.53 217.21 -22.50Q217.36 -21.16 217.36 -19.24Q217.36 -17.32 217.21 -15.98Q216.99 -11.03 214.92 -7.25Q212.84 -3.48 208.88 -1.37Q204.93 0.74 199.08 0.74ZM199.08 -6.14Q203.22 -6.14 205.55 -8.73Q207.89 -11.32 208.11 -16.35Q208.18 -17.46 208.18 -19.24Q208.18 -21.02 208.11 -22.13Q207.89 -27.16 205.55 -29.75Q203.22 -32.34 199.08 -32.34Q195.01 -32.34 192.64 -29.75Q190.27 -27.16 190.13 -22.13Q190.05 -21.02 190.05 -19.24Q190.05 -17.46 190.13 -16.35Q190.27 -11.32 192.64 -8.73Q195.01 -6.14 199.08 -6.14ZM242.71 16.28Q237.46 16.28 234.05 14.91Q230.65 13.54 228.72 11.58Q226.80 9.62 225.95 7.66Q225.10 5.70 225.02 4.59Q224.95 3.85 225.54 3.33Q226.13 2.81 226.80 2.81L232.42 2.81Q233.09 2.81 233.53 3.11Q233.98 3.40 234.27 4.29Q234.72 5.33 235.50 6.51Q236.27 7.70 237.90 8.55Q239.53 9.40 242.34 9.40Q245.45 9.40 247.48 8.55Q249.52 7.70 250.59 5.62Q251.66 3.55 251.66 0.00L251.66 -5.03Q249.89 -2.89 247.08 -1.48Q244.26 -0.07 240.12 -0.07Q236.12 -0.07 233.16 -1.41Q230.20 -2.74 228.32 -5.11Q226.43 -7.47 225.43 -10.66Q224.43 -13.84 224.28 -17.61Q224.21 -19.61 224.28 -21.61Q224.43 -25.23 225.43 -28.45Q226.43 -31.67 228.32 -34.08Q230.20 -36.48 233.16 -37.85Q236.12 -39.22 240.12 -39.22Q244.34 -39.22 247.26 -37.63Q250.18 -36.04 252.03 -33.67L252.03 -36.70Q252.03 -37.44 252.52 -37.96Q253.00 -38.48 253.81 -38.48L258.99 -38.48Q259.73 -38.48 260.25 -37.96Q260.77 -37.44 260.77 -36.70L260.84 -0.89Q260.84 4.29 258.95 8.14Q257.07 11.99 253.07 14.13Q249.07 16.28 242.71 16.28ZM242.49 -7.33Q245.67 -7.33 247.67 -8.77Q249.67 -10.21 250.59 -12.47Q251.52 -14.73 251.66 -17.17Q251.74 -18.06 251.74 -19.57Q251.74 -21.09 251.66 -22.05Q251.52 -24.42 250.59 -26.68Q249.67 -28.93 247.67 -30.41Q245.67 -31.89 242.49 -31.89Q239.23 -31.89 237.27 -30.45Q235.31 -29.01 234.46 -26.60Q233.61 -24.20 233.46 -21.46Q233.39 -19.61 233.46 -17.76Q233.61 -14.95 234.46 -12.58Q235.31 -10.21 237.27 -8.77Q239.23 -7.33 242.49 -7.33ZM272.75 0.00Q272.01 0.00 271.53 -0.48Q271.05 -0.96 271.05 -1.78L271.05 -36.70Q271.05 -37.44 271.53 -37.96Q272.01 -38.48 272.75 -38.48L278.01 -38.48Q278.75 -38.48 279.26 -37.96Q279.78 -37.44 279.78 -36.70L279.78 -33.52Q281.48 -35.96 284.11 -37.22Q286.74 -38.48 290.36 -38.48L293.40 -38.48Q294.14 -38.48 294.62 -38.00Q295.10 -37.52 295.10 -36.70L295.10 -32.12Q295.10 -31.38 294.62 -30.86Q294.14 -30.34 293.40 -30.34L288.00 -30.34Q284.30 -30.34 282.22 -28.27Q280.15 -26.20 280.15 -22.50L280.15 -1.78Q280.15 -0.96 279.63 -0.48Q279.12 0.00 278.38 0.00ZM316.71 0.74Q308.64 0.74 303.91 -4.00Q299.17 -8.73 298.80 -17.24Q298.73 -18.06 298.73 -19.31Q298.73 -20.57 298.80 -21.31Q299.10 -26.86 301.32 -30.86Q303.54 -34.85 307.42 -37.04Q311.31 -39.22 316.63 -39.22Q322.55 -39.22 326.51 -36.78Q330.47 -34.34 332.54 -29.93Q334.62 -25.53 334.62 -19.76L334.62 -18.28Q334.62 -17.54 334.10 -17.02Q333.58 -16.50 332.84 -16.50L307.90 -16.50Q307.90 -16.50 307.90 -16.28Q307.90 -16.06 307.90 -15.91Q308.05 -13.25 309.05 -10.91Q310.05 -8.58 312.01 -7.18Q313.97 -5.77 316.63 -5.77Q318.85 -5.77 320.37 -6.44Q321.89 -7.10 322.81 -7.99Q323.74 -8.88 324.11 -9.40Q324.77 -10.21 325.18 -10.40Q325.59 -10.58 326.40 -10.58L331.95 -10.58Q332.69 -10.58 333.17 -10.17Q333.65 -9.77 333.58 -9.10Q333.51 -7.92 332.36 -6.25Q331.21 -4.59 329.10 -2.96Q326.99 -1.33 323.85 -0.30Q320.70 0.74 316.71 0.74ZM307.90 -22.42L325.44 -22.42L325.44 -22.64Q325.44 -25.60 324.40 -27.93Q323.37 -30.27 321.41 -31.56Q319.45 -32.86 316.63 -32.86Q313.90 -32.86 311.93 -31.56Q309.97 -30.27 308.94 -27.93Q307.90 -25.60 307.90 -22.64ZM357.05 0.74Q352.69 0.74 349.58 -0.30Q346.47 -1.33 344.51 -2.85Q342.55 -4.37 341.59 -5.92Q340.63 -7.47 340.55 -8.51Q340.48 -9.32 341.07 -9.77Q341.66 -10.21 342.25 -10.21L347.36 -10.21Q347.73 -10.21 347.95 -10.14Q348.17 -10.06 348.54 -9.62Q349.51 -8.73 350.62 -7.81Q351.73 -6.88 353.32 -6.25Q354.91 -5.62 357.20 -5.62Q360.31 -5.62 362.42 -6.84Q364.53 -8.07 364.53 -10.43Q364.53 -12.06 363.64 -13.06Q362.75 -14.06 360.38 -14.87Q358.02 -15.69 353.72 -16.58Q349.43 -17.54 346.77 -19.05Q344.10 -20.57 342.85 -22.75Q341.59 -24.94 341.59 -27.82Q341.59 -30.64 343.29 -33.26Q344.99 -35.89 348.32 -37.55Q351.65 -39.22 356.68 -39.22Q360.61 -39.22 363.53 -38.22Q366.45 -37.22 368.34 -35.78Q370.23 -34.34 371.23 -32.82Q372.22 -31.30 372.30 -30.27Q372.37 -29.45 371.85 -28.97Q371.34 -28.49 370.67 -28.49L365.93 -28.49Q365.49 -28.49 365.16 -28.67Q364.82 -28.86 364.60 -29.16Q363.79 -29.90 362.83 -30.78Q361.86 -31.67 360.42 -32.26Q358.98 -32.86 356.68 -32.86Q353.58 -32.86 351.99 -31.56Q350.39 -30.27 350.39 -28.19Q350.39 -26.94 351.13 -25.94Q351.87 -24.94 354.06 -24.12Q356.24 -23.31 360.61 -22.35Q365.56 -21.46 368.45 -19.76Q371.34 -18.06 372.56 -15.80Q373.78 -13.54 373.78 -10.88Q373.78 -7.55 371.85 -4.92Q369.93 -2.29 366.19 -0.78Q362.46 0.74 357.05 0.74ZM395.93 0.74Q391.57 0.74 388.46 -0.30Q385.35 -1.33 383.39 -2.85Q381.43 -4.37 380.47 -5.92Q379.50 -7.47 379.43 -8.51Q379.36 -9.32 379.95 -9.77Q380.54 -10.21 381.13 -10.21L386.24 -10.21Q386.61 -10.21 386.83 -10.14Q387.05 -10.06 387.42 -9.62Q388.38 -8.73 389.49 -7.81Q390.60 -6.88 392.20 -6.25Q393.79 -5.62 396.08 -5.62Q399.19 -5.62 401.30 -6.84Q403.41 -8.07 403.41 -10.43Q403.41 -12.06 402.52 -13.06Q401.63 -14.06 399.26 -14.87Q396.89 -15.69 392.60 -16.58Q388.31 -17.54 385.65 -19.05Q382.98 -20.57 381.72 -22.75Q380.47 -24.94 380.47 -27.82Q380.47 -30.64 382.17 -33.26Q383.87 -35.89 387.20 -37.55Q390.53 -39.22 395.56 -39.22Q399.48 -39.22 402.41 -38.22Q405.33 -37.22 407.22 -35.78Q409.10 -34.34 410.10 -32.82Q411.10 -31.30 411.18 -30.27Q411.25 -29.45 410.73 -28.97Q410.21 -28.49 409.55 -28.49L404.81 -28.49Q404.37 -28.49 404.04 -28.67Q403.70 -28.86 403.48 -29.16Q402.67 -29.90 401.70 -30.78Q400.74 -31.67 399.30 -32.26Q397.86 -32.86 395.56 -32.86Q392.45 -32.86 390.86 -31.56Q389.27 -30.27 389.27 -28.19Q389.27 -26.94 390.01 -25.94Q390.75 -24.94 392.94 -24.12Q395.12 -23.31 399.48 -22.35Q404.44 -21.46 407.33 -19.76Q410.21 -18.06 411.44 -15.80Q412.66 -13.54 412.66 -10.88Q412.66 -7.55 410.73 -4.92Q408.81 -2.29 405.07 -0.78Q401.33 0.74 395.93 0.74Z"></path></g>
  </g>
</svg>
