<svg width="168.7" height="30" viewBox="0 0 877 156" xmlns="http://www.w3.org/2000/svg" role="img" aria-label="Permit: In-progress">
  <rect x="3" y="3" width="871" height="150" rx="75" ry="75" fill="rgb(137,75,0)" stroke="rgb(240,177,0)" stroke-width="6"/>
  <g transform="translate(40,40) scale(4.75)" fill="rgb(254,249,194)">
    <path fill-rule="evenodd" d="M13.836 2.477a.75.75 0 0 1 .75.75v3.182a.75.75 0 0 1-.75.75h-3.182a.75.75 0 0 1 0-1.5h1.37l-.84-.841a4.5 4.5 0 0 0-7.08.932.75.75 0 0 1-1.3-.75 6 6 0 0 1 9.44-1.242l.842.84V3.227a.75.75 0 0 1 .75-.75Zm-.911 7.5A.75.75 0 0 1 13.199 11a6 6 0 0 1-9.44 1.241l-.84-.84v1.371a.75.75 0 0 1-1.5 0V9.591a.75.75 0 0 1 .75-.75H5.35a.75.75 0 0 1 0 1.5H3.98l.841.841a4.5 4.5 0 0 0 7.08-.932.75.75 0 0 1 1.025-.273Z" clip-rule="evenodd"/>
  </g>
  <g transform="translate(138 105.35)" fill="rgb(254,249,194)">
    <path d="M7.70 0.00Q6.96 0.00 6.47 -0.48Q5.99 -0.96 5.99 -1.78L5.99 -50.02Q5.99 -50.84 6.47 -51.32Q6.96 -51.80 7.70 -51.80L27.23 -51.80Q32.93 -51.80 37.15 -49.99Q41.37 -48.17 43.70 -44.55Q46.03 -40.92 46.03 -35.52Q46.03 -30.12 43.70 -26.57Q41.37 -23.01 37.15 -21.24Q32.93 -19.46 27.23 -19.46L15.61 -19.46L15.61 -1.78Q15.61 -0.96 15.10 -0.48Q14.58 0.00 13.76 0.00ZM15.47 -27.01L26.86 -27.01Q31.52 -27.01 33.97 -29.19Q36.41 -31.38 36.41 -35.59Q36.41 -39.52 34.08 -41.85Q31.75 -44.18 26.86 -44.18L15.47 -44.18ZM69.21 0.74Q61.14 0.74 56.40 -4.00Q51.67 -8.73 51.30 -17.24Q51.22 -18.06 51.22 -19.31Q51.22 -20.57 51.30 -21.31Q51.59 -26.86 53.81 -30.86Q56.03 -34.85 59.92 -37.04Q63.80 -39.22 69.13 -39.22Q75.05 -39.22 79.01 -36.78Q82.97 -34.34 85.04 -29.93Q87.11 -25.53 87.11 -19.76L87.11 -18.28Q87.11 -17.54 86.60 -17.02Q86.08 -16.50 85.34 -16.50L60.40 -16.50Q60.40 -16.50 60.40 -16.28Q60.40 -16.06 60.40 -15.91Q60.55 -13.25 61.55 -10.91Q62.55 -8.58 64.51 -7.18Q66.47 -5.77 69.13 -5.77Q71.35 -5.77 72.87 -6.44Q74.39 -7.10 75.31 -7.99Q76.24 -8.88 76.61 -9.40Q77.27 -10.21 77.68 -10.40Q78.09 -10.58 78.90 -10.58L84.45 -10.58Q85.19 -10.58 85.67 -10.17Q86.15 -9.77 86.08 -9.10Q86.00 -7.92 84.86 -6.25Q83.71 -4.59 81.60 -2.96Q79.49 -1.33 76.35 -0.30Q73.20 0.74 69.21 0.74ZM60.40 -22.42L77.94 -22.42L77.94 -22.64Q77.94 -25.60 76.90 -27.93Q75.87 -30.27 73.91 -31.56Q71.94 -32.86 69.13 -32.86Q66.39 -32.86 64.43 -31.56Q62.47 -30.27 61.44 -27.93Q60.40 -25.60 60.40 -22.64ZM97.05 0.00Q96.31 0.00 95.83 -0.48Q95.35 -0.96 95.35 -1.78L95.35 -36.70Q95.35 -37.44 95.83 -37.96Q96.31 -38.48 97.05 -38.48L102.30 -38.48Q103.04 -38.48 103.56 -37.96Q104.08 -37.44 104.08 -36.70L104.08 -33.52Q105.78 -35.96 108.41 -37.22Q111.03 -38.48 114.66 -38.48L117.69 -38.48Q118.43 -38.48 118.91 -38.00Q119.40 -37.52 119.40 -36.70L119.40 -32.12Q119.40 -31.38 118.91 -30.86Q118.43 -30.34 117.69 -30.34L112.29 -30.34Q108.59 -30.34 106.52 -28.27Q104.45 -26.20 104.45 -22.50L104.45 -1.78Q104.45 -0.96 103.93 -0.48Q103.41 0.00 102.67 0.00ZM127.09 0.00Q126.35 0.00 125.86 -0.48Q125.38 -0.96 125.38 -1.78L125.38 -36.70Q125.38 -37.52 125.86 -38.00Q126.35 -38.48 127.09 -38.48L132.12 -38.48Q132.86 -38.48 133.38 -38.00Q133.89 -37.52 133.89 -36.70L133.89 -34.19Q135.52 -36.33 138.11 -37.74Q140.70 -39.15 144.33 -39.22Q152.76 -39.29 156.17 -32.56Q157.87 -35.52 161.09 -37.37Q164.31 -39.22 168.30 -39.22Q172.15 -39.22 175.26 -37.44Q178.37 -35.67 180.22 -32.08Q182.07 -28.49 182.07 -23.01L182.07 -1.78Q182.07 -0.96 181.55 -0.48Q181.03 0.00 180.29 0.00L175.04 0.00Q174.22 0.00 173.74 -0.48Q173.26 -0.96 173.26 -1.78L173.26 -22.42Q173.26 -26.05 172.23 -28.08Q171.19 -30.12 169.45 -31.01Q167.71 -31.89 165.64 -31.89Q163.86 -31.89 162.12 -31.01Q160.39 -30.12 159.28 -28.08Q158.17 -26.05 158.17 -22.42L158.17 -1.78Q158.17 -0.96 157.65 -0.48Q157.13 0.00 156.39 0.00L151.14 0.00Q150.40 0.00 149.88 -0.48Q149.36 -0.96 149.36 -1.78L149.36 -22.42Q149.36 -26.05 148.29 -28.08Q147.21 -30.12 145.47 -31.01Q143.74 -31.89 141.74 -31.89Q139.96 -31.89 138.22 -31.01Q136.48 -30.12 135.37 -28.08Q134.26 -26.05 134.26 -22.42L134.26 -1.78Q134.26 -0.96 133.75 -0.48Q133.23 0.00 132.49 0.00ZM193.57 0.00Q192.83 0.00 192.35 -0.48Q191.87 -0.96 191.87 -1.78L191.87 -36.70Q191.87 -37.52 192.35 -38.00Q192.83 -38.48 193.57 -38.48L198.97 -38.48Q199.71 -38.48 200.19 -38.00Q200.67 -37.52 200.67 -36.70L200.67 -1.78Q200.67 -0.96 200.19 -0.48Q199.71 0.00 198.97 0.00ZM193.20 -45.07Q192.46 -45.07 191.94 -45.58Q191.42 -46.10 191.42 -46.84L191.42 -51.73Q191.42 -52.54 191.94 -53.06Q192.46 -53.58 193.20 -53.58L199.34 -53.58Q200.08 -53.58 200.60 -53.06Q201.12 -52.54 201.12 -51.73L201.12 -46.84Q201.12 -46.10 200.60 -45.58Q200.08 -45.07 199.34 -45.07ZM227.54 0.00Q223.17 0.00 220.29 -1.55Q217.40 -3.11 216.00 -6.14Q214.59 -9.18 214.59 -13.54L214.59 -31.23L208.82 -31.23Q208.00 -31.23 207.52 -31.75Q207.04 -32.26 207.04 -33.00L207.04 -36.70Q207.04 -37.52 207.52 -38.00Q208.00 -38.48 208.82 -38.48L214.59 -38.48L214.59 -50.76Q214.59 -51.58 215.07 -52.06Q215.55 -52.54 216.37 -52.54L221.62 -52.54Q222.36 -52.54 222.84 -52.06Q223.32 -51.58 223.32 -50.76L223.32 -38.48L232.57 -38.48Q233.31 -38.48 233.83 -38.00Q234.35 -37.52 234.35 -36.70L234.35 -33.00Q234.35 -32.26 233.83 -31.75Q233.31 -31.23 232.57 -31.23L223.32 -31.23L223.32 -14.28Q223.32 -11.10 224.43 -9.29Q225.54 -7.47 228.35 -7.47L233.24 -7.47Q234.05 -7.47 234.53 -6.99Q235.01 -6.51 235.01 -5.77L235.01 -1.78Q235.01 -0.96 234.53 -0.48Q234.05 0.00 233.24 0.00ZM243.30 -25.90Q242.48 -25.90 242.00 -26.38Q241.52 -26.86 241.52 -27.68L241.52 -34.11Q241.52 -34.93 242.00 -35.45Q242.48 -35.96 243.30 -35.96L249.96 -35.96Q250.77 -35.96 251.29 -35.45Q251.81 -34.93 251.81 -34.11L251.81 -27.68Q251.81 -26.86 251.29 -26.38Q250.77 -25.90 249.96 -25.90ZM243.30 0.00Q242.48 0.00 242.00 -0.48Q241.52 -0.96 241.52 -1.78L241.52 -8.21Q241.52 -9.03 242.00 -9.55Q242.48 -10.06 243.30 -10.06L249.96 -10.06Q250.77 -10.06 251.29 -9.55Q251.81 -9.03 251.81 -8.21L251.81 -1.78Q251.81 -0.96 251.29 -0.48Q250.77 0.00 249.96 0.00ZM281.56 0.00Q280.82 0.00 280.34 -0.48Q279.86 -0.96 279.86 -1.78L279.86 -50.02Q279.86 -50.84 280.34 -51.32Q280.82 -51.80 281.56 -51.80L287.63 -51.80Q288.44 -51.80 288.92 -51.32Q289.40 -50.84 289.40 -50.02L289.40 -1.78Q289.40 -0.96 288.92 -0.48Q288.44 0.00 287.63 0.00ZM302.20 0.00Q301.46 0.00 300.97 -0.48Q300.49 -0.96 300.49 -1.78L300.49 -36.70Q300.49 -37.52 300.97 -38.00Q301.46 -38.48 302.20 -38.48L307.45 -38.48Q308.26 -38.48 308.74 -38.00Q309.23 -37.52 309.23 -36.70L309.23 -33.60Q311.15 -36.04 314.15 -37.63Q317.14 -39.22 321.58 -39.22Q326.17 -39.22 329.50 -37.18Q332.83 -35.15 334.64 -31.41Q336.46 -27.68 336.46 -22.57L336.46 -1.78Q336.46 -0.96 335.98 -0.48Q335.50 0.00 334.68 0.00L329.06 0.00Q328.32 0.00 327.80 -0.48Q327.28 -0.96 327.28 -1.78L327.28 -22.13Q327.28 -26.71 325.06 -29.30Q322.84 -31.89 318.55 -31.89Q314.48 -31.89 312.04 -29.30Q309.60 -26.71 309.60 -22.13L309.60 -1.78Q309.60 -0.96 309.11 -0.48Q308.63 0.00 307.82 0.00ZM347.68 -18.28Q346.94 -18.28 346.42 -18.80Q345.90 -19.31 345.90 -20.05L345.90 -24.35Q345.90 -25.09 346.42 -25.60Q346.94 -26.12 347.68 -26.12L370.25 -26.12Q371.06 -26.12 371.54 -25.60Q372.02 -25.09 372.02 -24.35L372.02 -20.05Q372.02 -19.31 371.54 -18.80Q371.06 -18.28 370.25 -18.28ZM383.68 14.06Q382.94 14.06 382.42 13.58Q381.91 13.10 381.91 12.28L381.91 -36.70Q381.91 -37.52 382.42 -38.00Q382.94 -38.48 383.68 -38.48L388.79 -38.48Q389.60 -38.48 390.08 -38.00Q390.56 -37.52 390.56 -36.70L390.56 -33.67Q392.34 -36.04 395.26 -37.63Q398.19 -39.22 402.48 -39.22Q406.47 -39.22 409.36 -37.89Q412.25 -36.56 414.17 -34.23Q416.09 -31.89 417.13 -28.75Q418.17 -25.60 418.24 -21.83Q418.31 -20.57 418.31 -19.24Q418.31 -17.91 418.24 -16.65Q418.17 -13.02 417.17 -9.84Q416.17 -6.66 414.21 -4.33Q412.25 -2.00 409.36 -0.63Q406.47 0.74 402.48 0.74Q398.41 0.74 395.56 -0.74Q392.71 -2.22 390.93 -4.66L390.93 12.28Q390.93 13.10 390.45 13.58Q389.97 14.06 389.16 14.06ZM400.11 -6.59Q403.44 -6.59 405.36 -8.03Q407.29 -9.47 408.14 -11.88Q408.99 -14.28 409.14 -17.02Q409.21 -19.24 409.14 -21.46Q408.99 -24.20 408.14 -26.60Q407.29 -29.01 405.36 -30.45Q403.44 -31.89 400.11 -31.89Q396.85 -31.89 394.89 -30.38Q392.93 -28.86 392.01 -26.57Q391.08 -24.27 390.93 -21.83Q390.86 -20.57 390.86 -19.02Q390.86 -17.46 390.93 -16.13Q391.01 -13.84 392.01 -11.65Q393.01 -9.47 395.00 -8.03Q397.00 -6.59 400.11 -6.59ZM428.62 0.00Q427.88 0.00 427.40 -0.48Q426.92 -0.96 426.92 -1.78L426.92 -36.70Q426.92 -37.44 427.40 -37.96Q427.88 -38.48 428.62 -38.48L433.87 -38.48Q434.61 -38.48 435.13 -37.96Q435.65 -37.44 435.65 -36.70L435.65 -33.52Q437.35 -35.96 439.98 -37.22Q442.60 -38.48 446.23 -38.48L449.26 -38.48Q450.00 -38.48 450.48 -38.00Q450.97 -37.52 450.97 -36.70L450.97 -32.12Q450.97 -31.38 450.48 -30.86Q450.00 -30.34 449.26 -30.34L443.86 -30.34Q440.16 -30.34 438.09 -28.27Q436.02 -26.20 436.02 -22.50L436.02 -1.78Q436.02 -0.96 435.50 -0.48Q434.98 0.00 434.24 0.00ZM472.94 0.74Q467.10 0.74 463.18 -1.37Q459.25 -3.48 457.14 -7.25Q455.04 -11.03 454.81 -15.98Q454.74 -17.32 454.74 -19.24Q454.74 -21.16 454.81 -22.50Q455.04 -27.53 457.18 -31.26Q459.33 -35.00 463.29 -37.11Q467.25 -39.22 472.94 -39.22Q478.64 -39.22 482.60 -37.11Q486.56 -35.00 488.71 -31.26Q490.85 -27.53 491.07 -22.50Q491.22 -21.16 491.22 -19.24Q491.22 -17.32 491.07 -15.98Q490.85 -11.03 488.78 -7.25Q486.71 -3.48 482.75 -1.37Q478.79 0.74 472.94 0.74ZM472.94 -6.14Q477.09 -6.14 479.42 -8.73Q481.75 -11.32 481.97 -16.35Q482.05 -17.46 482.05 -19.24Q482.05 -21.02 481.97 -22.13Q481.75 -27.16 479.42 -29.75Q477.09 -32.34 472.94 -32.34Q468.87 -32.34 466.51 -29.75Q464.14 -27.16 463.99 -22.13Q463.92 -21.02 463.92 -19.24Q463.92 -17.46 463.99 -16.35Q464.14 -11.32 466.51 -8.73Q468.87 -6.14 472.94 -6.14ZM516.57 16.28Q511.32 16.28 507.92 14.91Q504.51 13.54 502.59 11.58Q500.66 9.62 499.81 7.66Q498.96 5.70 498.89 4.59Q498.81 3.85 499.41 3.33Q500.00 2.81 500.66 2.81L506.29 2.81Q506.95 2.81 507.40 3.11Q507.84 3.40 508.14 4.29Q508.58 5.33 509.36 6.51Q510.14 7.70 511.76 8.55Q513.39 9.40 516.20 9.40Q519.31 9.40 521.35 8.55Q523.38 7.70 524.46 5.62Q525.53 3.55 525.53 0.00L525.53 -5.03Q523.75 -2.89 520.94 -1.48Q518.13 -0.07 513.98 -0.07Q509.99 -0.07 507.03 -1.41Q504.07 -2.74 502.18 -5.11Q500.29 -7.47 499.30 -10.66Q498.30 -13.84 498.15 -17.61Q498.07 -19.61 498.15 -21.61Q498.30 -25.23 499.30 -28.45Q500.29 -31.67 502.18 -34.08Q504.07 -36.48 507.03 -37.85Q509.99 -39.22 513.98 -39.22Q518.20 -39.22 521.13 -37.63Q524.05 -36.04 525.90 -33.67L525.90 -36.70Q525.90 -37.44 526.38 -37.96Q526.86 -38.48 527.67 -38.48L532.85 -38.48Q533.59 -38.48 534.11 -37.96Q534.63 -37.44 534.63 -36.70L534.70 -0.89Q534.70 4.29 532.82 8.14Q530.93 11.99 526.93 14.13Q522.94 16.28 516.57 16.28ZM516.35 -7.33Q519.53 -7.33 521.53 -8.77Q523.53 -10.21 524.46 -12.47Q525.38 -14.73 525.53 -17.17Q525.60 -18.06 525.60 -19.57Q525.60 -21.09 525.53 -22.05Q525.38 -24.42 524.46 -26.68Q523.53 -28.93 521.53 -30.41Q519.53 -31.89 516.35 -31.89Q513.10 -31.89 511.14 -30.45Q509.17 -29.01 508.32 -26.60Q507.47 -24.20 507.32 -21.46Q507.25 -19.61 507.32 -17.76Q507.47 -14.95 508.32 -12.58Q509.17 -10.21 511.14 -8.77Q513.10 -7.33 516.35 -7.33ZM546.62 0.00Q545.88 0.00 545.39 -0.48Q544.91 -0.96 544.91 -1.78L544.91 -36.70Q544.91 -37.44 545.39 -37.96Q545.88 -38.48 546.62 -38.48L551.87 -38.48Q552.61 -38.48 553.13 -37.96Q553.65 -37.44 553.65 -36.70L553.65 -33.52Q555.35 -35.96 557.97 -37.22Q560.60 -38.48 564.23 -38.48L567.26 -38.48Q568.00 -38.48 568.48 -38.00Q568.96 -37.52 568.96 -36.70L568.96 -32.12Q568.96 -31.38 568.48 -30.86Q568.00 -30.34 567.26 -30.34L561.86 -30.34Q558.16 -30.34 556.09 -28.27Q554.02 -26.20 554.02 -22.50L554.02 -1.78Q554.02 -0.96 553.50 -0.48Q552.98 0.00 552.24 0.00ZM590.57 0.74Q582.51 0.74 577.77 -4.00Q573.03 -8.73 572.66 -17.24Q572.59 -18.06 572.59 -19.31Q572.59 -20.57 572.66 -21.31Q572.96 -26.86 575.18 -30.86Q577.40 -34.85 581.28 -37.04Q585.17 -39.22 590.50 -39.22Q596.42 -39.22 600.38 -36.78Q604.34 -34.34 606.41 -29.93Q608.48 -25.53 608.48 -19.76L608.48 -18.28Q608.48 -17.54 607.96 -17.02Q607.44 -16.50 606.70 -16.50L581.77 -16.50Q581.77 -16.50 581.77 -16.28Q581.77 -16.06 581.77 -15.91Q581.91 -13.25 582.91 -10.91Q583.91 -8.58 585.87 -7.18Q587.83 -5.77 590.50 -5.77Q592.72 -5.77 594.23 -6.44Q595.75 -7.10 596.68 -7.99Q597.60 -8.88 597.97 -9.40Q598.64 -10.21 599.04 -10.40Q599.45 -10.58 600.27 -10.58L605.82 -10.58Q606.56 -10.58 607.04 -10.17Q607.52 -9.77 607.44 -9.10Q607.37 -7.92 606.22 -6.25Q605.08 -4.59 602.97 -2.96Q600.86 -1.33 597.71 -0.30Q594.57 0.74 590.57 0.74ZM581.77 -22.42L599.30 -22.42L599.30 -22.64Q599.30 -25.60 598.27 -27.93Q597.23 -30.27 595.27 -31.56Q593.31 -32.86 590.50 -32.86Q587.76 -32.86 585.80 -31.56Q583.84 -30.27 582.80 -27.93Q581.77 -25.60 581.77 -22.64ZM630.92 0.74Q626.55 0.74 623.44 -0.30Q620.34 -1.33 618.38 -2.85Q616.41 -4.37 615.45 -5.92Q614.49 -7.47 614.42 -8.51Q614.34 -9.32 614.93 -9.77Q615.53 -10.21 616.12 -10.21L621.22 -10.21Q621.59 -10.21 621.82 -10.14Q622.04 -10.06 622.41 -9.62Q623.37 -8.73 624.48 -7.81Q625.59 -6.88 627.18 -6.25Q628.77 -5.62 631.07 -5.62Q634.17 -5.62 636.28 -6.84Q638.39 -8.07 638.39 -10.43Q638.39 -12.06 637.50 -13.06Q636.62 -14.06 634.25 -14.87Q631.88 -15.69 627.59 -16.58Q623.30 -17.54 620.63 -19.05Q617.97 -20.57 616.71 -22.75Q615.45 -24.94 615.45 -27.82Q615.45 -30.64 617.15 -33.26Q618.86 -35.89 622.19 -37.55Q625.52 -39.22 630.55 -39.22Q634.47 -39.22 637.39 -38.22Q640.32 -37.22 642.20 -35.78Q644.09 -34.34 645.09 -32.82Q646.09 -31.30 646.16 -30.27Q646.24 -29.45 645.72 -28.97Q645.20 -28.49 644.53 -28.49L639.80 -28.49Q639.35 -28.49 639.02 -28.67Q638.69 -28.86 638.47 -29.16Q637.65 -29.90 636.69 -30.78Q635.73 -31.67 634.29 -32.26Q632.84 -32.86 630.55 -32.86Q627.44 -32.86 625.85 -31.56Q624.26 -30.27 624.26 -28.19Q624.26 -26.94 625.00 -25.94Q625.74 -24.94 627.92 -24.12Q630.10 -23.31 634.47 -22.35Q639.43 -21.46 642.31 -19.76Q645.20 -18.06 646.42 -15.80Q647.64 -13.54 647.64 -10.88Q647.64 -7.55 645.72 -4.92Q643.79 -2.29 640.06 -0.78Q636.32 0.74 630.92 0.74ZM669.80 0.74Q665.43 0.74 662.32 -0.30Q659.21 -1.33 657.25 -2.85Q655.29 -4.37 654.33 -5.92Q653.37 -7.47 653.29 -8.51Q653.22 -9.32 653.81 -9.77Q654.40 -10.21 655.00 -10.21L660.10 -10.21Q660.47 -10.21 660.69 -10.14Q660.92 -10.06 661.29 -9.62Q662.25 -8.73 663.36 -7.81Q664.47 -6.88 666.06 -6.25Q667.65 -5.62 669.94 -5.62Q673.05 -5.62 675.16 -6.84Q677.27 -8.07 677.27 -10.43Q677.27 -12.06 676.38 -13.06Q675.49 -14.06 673.13 -14.87Q670.76 -15.69 666.47 -16.58Q662.17 -17.54 659.51 -19.05Q656.85 -20.57 655.59 -22.75Q654.33 -24.94 654.33 -27.82Q654.33 -30.64 656.03 -33.26Q657.73 -35.89 661.06 -37.55Q664.39 -39.22 669.43 -39.22Q673.35 -39.22 676.27 -38.22Q679.19 -37.22 681.08 -35.78Q682.97 -34.34 683.97 -32.82Q684.97 -31.30 685.04 -30.27Q685.11 -29.45 684.60 -28.97Q684.08 -28.49 683.41 -28.49L678.68 -28.49Q678.23 -28.49 677.90 -28.67Q677.57 -28.86 677.34 -29.16Q676.53 -29.90 675.57 -30.78Q674.61 -31.67 673.16 -32.26Q671.72 -32.86 669.43 -32.86Q666.32 -32.86 664.73 -31.56Q663.14 -30.27 663.14 -28.19Q663.14 -26.94 663.88 -25.94Q664.62 -24.94 666.80 -24.12Q668.98 -23.31 673.35 -22.35Q678.31 -21.46 681.19 -19.76Q684.08 -18.06 685.30 -15.80Q686.52 -13.54 686.52 -10.88Q686.52 -7.55 684.60 -4.92Q682.67 -2.29 678.94 -0.78Q675.20 0.74 669.80 0.74Z"/>
  </g>
</svg>
