<svg width="255.5" height="58" viewBox="0 0 255.5 58" xmlns="http://www.w3.org/2000/svg" role="img" aria-label="Permit Status: Future">
  <style>
    .tile  { fill: #FFFFFF; stroke: rgb(229,231,235); }
    .label { fill: #111827; }
    .pill  { fill: rgb(255,237,212); stroke: transparent; }
    .ink   { fill: rgb(159,45,0); }
    @media (prefers-color-scheme: dark) {
      .tile  { fill: #1E293B; stroke: rgb(71,85,105); }
      .label { fill: #FFFFFF; }
      .pill  { fill: rgb(159,45,0); stroke: rgb(255,105,0); }
      .ink   { fill: rgb(255,237,212); }
    }
  </style>
  <rect class="tile" x="0.5" y="0.5" width="254.5" height="57" rx="12" ry="12" stroke-width="1"></rect>
  <g transform="translate(14,6.5) scale(0.283784)">
    <g class="label" transform="translate(0 105.35)"><path d="M13.91 -19.02L13.91 -28.05L25.16 -28.05Q27.31 -28.05 29.08 -28.93Q30.86 -29.82 31.89 -31.52Q32.93 -33.23 32.93 -35.67Q32.93 -38.04 31.89 -39.74Q30.86 -41.44 29.08 -42.33Q27.31 -43.22 25.16 -43.22L13.91 -43.22L13.91 -52.24L26.86 -52.24Q31.82 -52.24 35.82 -50.25Q39.81 -48.25 42.14 -44.51Q44.47 -40.77 44.47 -35.67Q44.47 -30.56 42.14 -26.82Q39.81 -23.09 35.82 -21.05Q31.82 -19.02 26.86 -19.02ZM5.03 0.00L5.03 -52.24L16.65 -52.24L16.65 0.00ZM66.75 0.81Q60.90 0.81 56.35 -1.59Q51.80 -4.00 49.21 -8.29Q46.62 -12.58 46.62 -17.98Q46.62 -23.38 49.17 -27.64Q51.73 -31.89 56.09 -34.34Q60.46 -36.78 65.93 -36.78Q71.26 -36.78 75.33 -34.48Q79.40 -32.19 81.73 -28.12Q84.06 -24.05 84.06 -18.80Q84.06 -17.83 83.95 -16.76Q83.84 -15.69 83.55 -14.28L52.54 -14.21L52.54 -21.98L78.74 -22.05L73.85 -18.80Q73.78 -21.90 72.89 -23.94Q72.00 -25.97 70.26 -27.05Q68.52 -28.12 66.01 -28.12Q63.34 -28.12 61.38 -26.90Q59.42 -25.68 58.35 -23.46Q57.28 -21.24 57.28 -18.06Q57.28 -14.87 58.42 -12.62Q59.57 -10.36 61.68 -9.14Q63.79 -7.92 66.67 -7.92Q69.34 -7.92 71.48 -8.84Q73.63 -9.77 75.26 -11.62L81.47 -5.40Q78.81 -2.29 75.04 -0.74Q71.26 0.81 66.75 0.81ZM89.54 0.00L89.54 -35.96L100.86 -35.96L100.86 0.00ZM100.86 -19.76L96.13 -23.46Q97.53 -29.75 100.86 -33.23Q104.19 -36.70 110.11 -36.70Q112.70 -36.70 114.66 -35.93Q116.62 -35.15 118.10 -33.52L111.37 -25.01Q110.63 -25.83 109.52 -26.27Q108.41 -26.71 107.00 -26.71Q104.19 -26.71 102.53 -24.97Q100.86 -23.24 100.86 -19.76ZM120.84 0.00L120.84 -35.96L132.16 -35.96L132.16 0.00ZM143.86 0.00L143.86 -21.02Q143.86 -23.75 142.19 -25.27Q140.53 -26.79 138.08 -26.79Q136.38 -26.79 135.05 -26.08Q133.72 -25.38 132.94 -24.12Q132.16 -22.87 132.16 -21.02L127.80 -22.94Q127.80 -27.23 129.65 -30.30Q131.50 -33.37 134.68 -35.04Q137.86 -36.70 141.86 -36.70Q145.63 -36.70 148.63 -35.00Q151.63 -33.30 153.40 -30.27Q155.18 -27.23 155.18 -23.01L155.18 0.00ZM166.87 0.00L166.87 -21.02Q166.87 -23.75 165.20 -25.27Q163.54 -26.79 161.10 -26.79Q159.40 -26.79 158.06 -26.08Q156.73 -25.38 155.95 -24.12Q155.18 -22.87 155.18 -21.02L148.67 -21.90Q148.81 -26.49 150.85 -29.79Q152.88 -33.08 156.25 -34.89Q159.62 -36.70 163.84 -36.70Q167.98 -36.70 171.20 -34.96Q174.42 -33.23 176.30 -30.01Q178.19 -26.79 178.19 -22.27L178.19 0.00ZM185.44 0.00L185.44 -35.96L196.77 -35.96L196.77 0.00ZM191.14 -40.92Q188.48 -40.92 186.74 -42.73Q185.00 -44.55 185.00 -47.14Q185.00 -49.80 186.74 -51.58Q188.48 -53.35 191.14 -53.35Q193.81 -53.35 195.51 -51.58Q197.21 -49.80 197.21 -47.14Q197.21 -44.55 195.51 -42.73Q193.81 -40.92 191.14 -40.92ZM209.86 0.00L209.86 -50.84L221.19 -50.84L221.19 0.00ZM201.72 -26.34L201.72 -35.96L229.33 -35.96L229.33 -26.34ZM265.07 0.81Q258.63 0.81 254.00 -1.29Q249.38 -3.40 245.53 -7.70L253.08 -15.17Q255.60 -12.28 258.67 -10.69Q261.74 -9.10 265.81 -9.10Q269.51 -9.10 271.54 -10.43Q273.58 -11.77 273.58 -14.13Q273.58 -16.28 272.25 -17.61Q270.91 -18.94 268.73 -19.91Q266.55 -20.87 263.92 -21.76Q261.29 -22.64 258.70 -23.79Q256.11 -24.94 253.93 -26.68Q251.75 -28.42 250.42 -31.04Q249.08 -33.67 249.08 -37.67Q249.08 -42.48 251.41 -45.95Q253.75 -49.43 257.89 -51.24Q262.03 -53.06 267.44 -53.06Q272.91 -53.06 277.46 -51.13Q282.01 -49.21 284.97 -45.88L277.43 -38.41Q275.06 -40.85 272.65 -42.03Q270.25 -43.22 267.21 -43.22Q264.18 -43.22 262.40 -42.07Q260.63 -40.92 260.63 -38.78Q260.63 -36.78 261.96 -35.56Q263.29 -34.34 265.47 -33.45Q267.66 -32.56 270.28 -31.67Q272.91 -30.78 275.50 -29.60Q278.09 -28.42 280.27 -26.60Q282.46 -24.79 283.79 -22.02Q285.12 -19.24 285.12 -15.17Q285.12 -7.70 279.79 -3.44Q274.47 0.81 265.07 0.81ZM296.59 0.00L296.59 -50.84L307.91 -50.84L307.91 0.00ZM288.45 -26.34L288.45 -35.96L316.05 -35.96L316.05 -26.34ZM335.29 0.74Q330.34 0.74 326.45 -1.70Q322.57 -4.14 320.31 -8.36Q318.05 -12.58 318.05 -17.98Q318.05 -23.38 320.31 -27.60Q322.57 -31.82 326.45 -34.26Q330.34 -36.70 335.29 -36.70Q338.92 -36.70 341.84 -35.30Q344.77 -33.89 346.62 -31.41Q348.47 -28.93 348.69 -25.75L348.69 -10.21Q348.47 -7.03 346.65 -4.55Q344.84 -2.07 341.88 -0.67Q338.92 0.74 335.29 0.74ZM337.59 -9.47Q341.21 -9.47 343.43 -11.88Q345.65 -14.28 345.65 -17.98Q345.65 -20.50 344.65 -22.42Q343.66 -24.35 341.84 -25.42Q340.03 -26.49 337.66 -26.49Q335.29 -26.49 333.48 -25.42Q331.67 -24.35 330.59 -22.42Q329.52 -20.50 329.52 -17.98Q329.52 -15.54 330.56 -13.62Q331.59 -11.69 333.44 -10.58Q335.29 -9.47 337.59 -9.47ZM345.21 0.00L345.21 -9.69L346.91 -18.43L345.21 -27.16L345.21 -35.96L356.31 -35.96L356.31 0.00ZM369.41 0.00L369.41 -50.84L380.73 -50.84L380.73 0.00ZM361.27 -26.34L361.27 -35.96L388.87 -35.96L388.87 -26.34ZM409.81 0.81Q404.85 0.81 401.04 -1.22Q397.23 -3.26 395.09 -6.84Q392.94 -10.43 392.94 -15.10L392.94 -35.96L404.26 -35.96L404.26 -15.24Q404.26 -13.39 404.89 -12.06Q405.52 -10.73 406.78 -9.99Q408.04 -9.25 409.81 -9.25Q412.33 -9.25 413.81 -10.84Q415.29 -12.43 415.29 -15.24L415.29 -35.96L426.61 -35.96L426.61 -15.17Q426.61 -10.43 424.46 -6.84Q422.32 -3.26 418.54 -1.22Q414.77 0.81 409.81 0.81ZM446.81 0.89Q443.63 0.89 440.56 0.07Q437.49 -0.74 434.86 -2.26Q432.23 -3.77 430.38 -5.77L436.82 -12.28Q438.60 -10.36 441.04 -9.29Q443.48 -8.21 446.37 -8.21Q448.37 -8.21 449.44 -8.81Q450.51 -9.40 450.51 -10.43Q450.51 -11.77 449.22 -12.47Q447.92 -13.17 445.92 -13.73Q443.93 -14.28 441.71 -14.95Q439.49 -15.61 437.49 -16.80Q435.49 -17.98 434.23 -20.09Q432.97 -22.20 432.97 -25.46Q432.97 -28.93 434.75 -31.49Q436.53 -34.04 439.78 -35.52Q443.04 -37.00 447.40 -37.00Q451.99 -37.00 455.88 -35.41Q459.76 -33.82 462.20 -30.71L455.77 -24.20Q454.06 -26.20 451.95 -27.01Q449.85 -27.82 447.85 -27.82Q445.92 -27.82 444.96 -27.27Q444.00 -26.71 444.00 -25.68Q444.00 -24.57 445.26 -23.90Q446.52 -23.24 448.51 -22.72Q450.51 -22.20 452.73 -21.46Q454.95 -20.72 456.95 -19.46Q458.95 -18.20 460.21 -16.09Q461.46 -13.99 461.46 -10.58Q461.46 -5.33 457.50 -2.22Q453.55 0.89 446.81 0.89ZM474.34 0.81Q471.45 0.81 469.53 -1.18Q467.61 -3.18 467.61 -5.99Q467.61 -8.95 469.53 -10.91Q471.45 -12.88 474.34 -12.88Q477.30 -12.88 479.19 -10.91Q481.07 -8.95 481.07 -5.99Q481.07 -3.18 479.19 -1.18Q477.30 0.81 474.34 0.81ZM474.34 -21.09Q471.45 -21.09 469.53 -23.09Q467.61 -25.09 467.61 -27.90Q467.61 -30.86 469.53 -32.82Q471.45 -34.78 474.34 -34.78Q477.30 -34.78 479.19 -32.82Q481.07 -30.86 481.07 -27.90Q481.07 -25.09 479.19 -23.09Q477.30 -21.09 474.34 -21.09Z"></path></g>
  </g>
  <g transform="translate(160.5,14) scale(0.192308)">
    <rect class="pill" x="3" y="3" width="415" height="150" rx="75" ry="75" stroke-width="6"></rect>
    <g class="ink" transform="translate(40,40) scale(4.75)"><path d="M2.53 3.956A1 1 0 0 0 1 4.804v6.392a1 1 0 0 0 1.53.848l5.113-3.196c.16-.1.279-.233.357-.383v2.73a1 1 0 0 0 1.53.849l5.113-3.196a1 1 0 0 0 0-1.696L9.53 3.956A1 1 0 0 0 8 4.804v2.731a.992.992 0 0 0-.357-.383L2.53 3.956Z"></path></g>
    <g class="ink" transform="translate(138 105.35)"><path d="M7.70 0.00Q6.96 0.00 6.47 -0.48Q5.99 -0.96 5.99 -1.78L5.99 -50.02Q5.99 -50.84 6.47 -51.32Q6.96 -51.80 7.70 -51.80L39.29 -51.80Q40.11 -51.80 40.59 -51.32Q41.07 -50.84 41.07 -50.02L41.07 -45.44Q41.07 -44.70 40.59 -44.18Q40.11 -43.66 39.29 -43.66L15.24 -43.66L15.24 -28.71L37.81 -28.71Q38.63 -28.71 39.11 -28.19Q39.59 -27.68 39.59 -26.86L39.59 -22.35Q39.59 -21.61 39.11 -21.09Q38.63 -20.57 37.81 -20.57L15.24 -20.57L15.24 -1.78Q15.24 -0.96 14.73 -0.48Q14.21 0.00 13.39 0.00ZM59.30 0.74Q54.71 0.74 51.41 -1.29Q48.12 -3.33 46.38 -7.10Q44.64 -10.88 44.64 -15.91L44.64 -36.70Q44.64 -37.52 45.12 -38.00Q45.61 -38.48 46.35 -38.48L52.04 -38.48Q52.78 -38.48 53.26 -38.00Q53.75 -37.52 53.75 -36.70L53.75 -16.35Q53.75 -6.59 62.33 -6.59Q66.40 -6.59 68.80 -9.18Q71.21 -11.77 71.21 -16.35L71.21 -36.70Q71.21 -37.52 71.73 -38.00Q72.25 -38.48 72.99 -38.48L78.61 -38.48Q79.35 -38.48 79.87 -38.00Q80.39 -37.52 80.39 -36.70L80.39 -1.78Q80.39 -0.96 79.87 -0.48Q79.35 0.00 78.61 0.00L73.36 0.00Q72.62 0.00 72.10 -0.48Q71.58 -0.96 71.58 -1.78L71.58 -4.88Q69.66 -2.22 66.73 -0.74Q63.81 0.74 59.30 0.74ZM107.20 0.00Q102.83 0.00 99.94 -1.55Q97.06 -3.11 95.65 -6.14Q94.25 -9.18 94.25 -13.54L94.25 -31.23L88.47 -31.23Q87.66 -31.23 87.18 -31.75Q86.70 -32.26 86.70 -33.00L86.70 -36.70Q86.70 -37.52 87.18 -38.00Q87.66 -38.48 88.47 -38.48L94.25 -38.48L94.25 -50.76Q94.25 -51.58 94.73 -52.06Q95.21 -52.54 96.02 -52.54L101.28 -52.54Q102.02 -52.54 102.50 -52.06Q102.98 -51.58 102.98 -50.76L102.98 -38.48L112.23 -38.48Q112.97 -38.48 113.49 -38.00Q114.00 -37.52 114.00 -36.70L114.00 -33.00Q114.00 -32.26 113.49 -31.75Q112.97 -31.23 112.23 -31.23L102.98 -31.23L102.98 -14.28Q102.98 -11.10 104.09 -9.29Q105.20 -7.47 108.01 -7.47L112.89 -7.47Q113.71 -7.47 114.19 -6.99Q114.67 -6.51 114.67 -5.77L114.67 -1.78Q114.67 -0.96 114.19 -0.48Q113.71 0.00 112.89 0.00ZM135.76 0.74Q131.17 0.74 127.87 -1.29Q124.58 -3.33 122.84 -7.10Q121.10 -10.88 121.10 -15.91L121.10 -36.70Q121.10 -37.52 121.58 -38.00Q122.07 -38.48 122.81 -38.48L128.50 -38.48Q129.24 -38.48 129.72 -38.00Q130.21 -37.52 130.21 -36.70L130.21 -16.35Q130.21 -6.59 138.79 -6.59Q142.86 -6.59 145.26 -9.18Q147.67 -11.77 147.67 -16.35L147.67 -36.70Q147.67 -37.52 148.19 -38.00Q148.71 -38.48 149.45 -38.48L155.07 -38.48Q155.81 -38.48 156.33 -38.00Q156.85 -37.52 156.85 -36.70L156.85 -1.78Q156.85 -0.96 156.33 -0.48Q155.81 0.00 155.07 0.00L149.82 0.00Q149.08 0.00 148.56 -0.48Q148.04 -0.96 148.04 -1.78L148.04 -4.88Q146.12 -2.22 143.19 -0.74Q140.27 0.74 135.76 0.74ZM168.71 0.00Q167.97 0.00 167.49 -0.48Q167.01 -0.96 167.01 -1.78L167.01 -36.70Q167.01 -37.44 167.49 -37.96Q167.97 -38.48 168.71 -38.48L173.96 -38.48Q174.70 -38.48 175.22 -37.96Q175.74 -37.44 175.74 -36.70L175.74 -33.52Q177.44 -35.96 180.07 -37.22Q182.69 -38.48 186.32 -38.48L189.35 -38.48Q190.09 -38.48 190.58 -38.00Q191.06 -37.52 191.06 -36.70L191.06 -32.12Q191.06 -31.38 190.58 -30.86Q190.09 -30.34 189.35 -30.34L183.95 -30.34Q180.25 -30.34 178.18 -28.27Q176.11 -26.20 176.11 -22.50L176.11 -1.78Q176.11 -0.96 175.59 -0.48Q175.07 0.00 174.33 0.00ZM212.66 0.74Q204.60 0.74 199.86 -4.00Q195.13 -8.73 194.76 -17.24Q194.68 -18.06 194.68 -19.31Q194.68 -20.57 194.76 -21.31Q195.05 -26.86 197.27 -30.86Q199.49 -34.85 203.38 -37.04Q207.26 -39.22 212.59 -39.22Q218.51 -39.22 222.47 -36.78Q226.43 -34.34 228.50 -29.93Q230.57 -25.53 230.57 -19.76L230.57 -18.28Q230.57 -17.54 230.05 -17.02Q229.54 -16.50 228.80 -16.50L203.86 -16.50Q203.86 -16.50 203.86 -16.28Q203.86 -16.06 203.86 -15.91Q204.01 -13.25 205.01 -10.91Q206.00 -8.58 207.97 -7.18Q209.93 -5.77 212.59 -5.77Q214.81 -5.77 216.33 -6.44Q217.84 -7.10 218.77 -7.99Q219.69 -8.88 220.06 -9.40Q220.73 -10.21 221.14 -10.40Q221.54 -10.58 222.36 -10.58L227.91 -10.58Q228.65 -10.58 229.13 -10.17Q229.61 -9.77 229.54 -9.10Q229.46 -7.92 228.32 -6.25Q227.17 -4.59 225.06 -2.96Q222.95 -1.33 219.81 -0.30Q216.66 0.74 212.66 0.74ZM203.86 -22.42L221.40 -22.42L221.40 -22.64Q221.40 -25.60 220.36 -27.93Q219.32 -30.27 217.36 -31.56Q215.40 -32.86 212.59 -32.86Q209.85 -32.86 207.89 -31.56Q205.93 -30.27 204.89 -27.93Q203.86 -25.60 203.86 -22.64Z"></path></g>
  </g>
</svg>
