<svg width="132.9" height="30" viewBox="0 0 691 156" xmlns="http://www.w3.org/2000/svg" role="img" aria-label="Permit: Invalid">
  <rect x="3" y="3" width="685" height="150" rx="75" ry="75" fill="rgb(165,0,54)" stroke="rgb(255,32,86)" stroke-width="6"/>
  <g transform="translate(40,40) scale(4.75)" fill="rgb(255,228,230)">
    <path fill-rule="evenodd" d="M6.701 2.25c.577-1 2.02-1 2.598 0l5.196 9a1.5 1.5 0 0 1-1.299 2.25H2.804a1.5 1.5 0 0 1-1.3-2.25l5.197-9ZM8 4a.75.75 0 0 1 .75.75v3a.75.75 0 1 1-1.5 0v-3A.75.75 0 0 1 8 4Zm0 8a1 1 0 1 0 0-2 1 1 0 0 0 0 2Z" clip-rule="evenodd"/>
  </g>
  <g transform="translate(138 105.35)" fill="rgb(255,228,230)">
    <path d="…(outline path)…"/>
  </g>
</svg>
