<svg width="164" height="26" viewBox="0 0 164 26" xmlns="http://www.w3.org/2000/svg" role="img" aria-label="Permit to Work">
  <style>
    .ink { fill: #172032; }
    @media (prefers-color-scheme: dark) {
      .ink { fill: rgb(230,234,242); }
    }
  </style>
  <g class="ink">
    <path d="M8.38 19.09L4.13 19.09L4.13 16.42L8.04 16.42Q8.81 16.42 9.43 16.11Q10.06 15.8 10.42 15.21Q10.78 14.62 10.78 13.78L10.78 13.78Q10.78 12.97 10.42 12.37Q10.06 11.77 9.43 11.46Q8.81 11.14 8.04 11.14L8.04 11.14L4.13 11.14L4.13 8.48L8.38 8.48Q9.98 8.48 11.27 9.13Q12.55 9.78 13.3 10.96Q14.04 12.15 14.04 13.78L14.04 13.78Q14.04 15.42 13.3 16.6Q12.55 17.79 11.27 18.44Q9.98 19.09 8.38 19.09L8.38 19.09M4.99 25.35L1.73 25.35L1.73 8.48L4.99 8.48L4.99 25.35M21.19 25.59L21.19 25.59Q19.37 25.59 17.95 24.81Q16.54 24.03 15.71 22.66Q14.88 21.3 14.88 19.54L14.88 19.54Q14.88 17.82 15.68 16.46Q16.49 15.1 17.88 14.3Q19.27 13.5 20.98 13.5L20.98 13.5Q22.66 13.5 23.94 14.25Q25.22 15.01 25.96 16.32Q26.69 17.62 26.69 19.28L26.69 19.28Q26.69 19.59 26.65 19.92Q26.62 20.24 26.52 20.65L26.52 20.65L16.78 20.67L16.78 18.32L25.06 18.3L23.78 19.28Q23.74 18.25 23.41 17.55Q23.09 16.86 22.48 16.48Q21.86 16.11 20.98 16.11L20.98 16.11Q20.04 16.11 19.34 16.53Q18.65 16.95 18.28 17.71Q17.9 18.46 17.9 19.5L17.9 19.5Q17.9 20.55 18.3 21.33Q18.7 22.11 19.44 22.53Q20.18 22.95 21.17 22.95L21.17 22.95Q22.06 22.95 22.78 22.65Q23.5 22.35 24.02 21.75L24.02 21.75L25.87 23.6Q25.03 24.58 23.82 25.09Q22.61 25.59 21.19 25.59M31.78 25.35L28.63 25.35L28.63 13.76L31.78 13.76L31.78 25.35M31.78 18.94L31.78 18.94L30.55 18.13Q30.77 15.99 31.8 14.76Q32.83 13.52 34.78 13.52L34.78 13.52Q35.62 13.52 36.29 13.8Q36.96 14.07 37.51 14.7L37.51 14.7L35.54 16.95Q35.28 16.66 34.91 16.52Q34.54 16.38 34.06 16.38L34.06 16.38Q33.05 16.38 32.41 17.01Q31.78 17.65 31.78 18.94M41.74 25.35L38.59 25.35L38.59 13.76L41.74 13.76L41.74 25.35M49.3 25.35L46.15 25.35L46.15 18.51Q46.15 17.5 45.52 16.94Q44.88 16.38 43.94 16.38L43.94 16.38Q43.32 16.38 42.82 16.63Q42.31 16.88 42.02 17.36Q41.74 17.84 41.74 18.51L41.74 18.51L40.51 17.91Q40.51 16.57 41.1 15.58Q41.69 14.6 42.7 14.06Q43.7 13.52 44.98 13.52L44.98 13.52Q46.18 13.52 47.16 14.06Q48.14 14.6 48.72 15.57Q49.3 16.54 49.3 17.91L49.3 17.91L49.3 25.35M56.86 25.35L53.71 25.35L53.71 18.51Q53.71 17.5 53.08 16.94Q52.44 16.38 51.5 16.38L51.5 16.38Q50.9 16.38 50.39 16.63Q49.87 16.88 49.58 17.36Q49.3 17.84 49.3 18.51L49.3 18.51L47.5 18.08Q47.59 16.69 48.24 15.67Q48.89 14.65 49.94 14.08Q51 13.52 52.3 13.52L52.3 13.52Q53.59 13.52 54.62 14.06Q55.66 14.6 56.26 15.61Q56.86 16.62 56.86 18.01L56.86 18.01L56.86 25.35M62.57 25.35L59.4 25.35L59.4 13.76L62.57 13.76L62.57 25.35M60.98 11.89L60.98 11.89Q60.22 11.89 59.71 11.37Q59.21 10.86 59.21 10.09L59.21 10.09Q59.21 9.34 59.71 8.82Q60.22 8.29 60.98 8.29L60.98 8.29Q61.78 8.29 62.27 8.82Q62.76 9.34 62.76 10.09L62.76 10.09Q62.76 10.86 62.27 11.37Q61.78 11.89 60.98 11.89M70.2 25.35L67.06 25.35L67.06 8.94L70.2 8.94L70.2 25.35M72.91 16.52L64.34 16.52L64.34 13.76L72.91 13.76L72.91 16.52M84.22 25.35L81.07 25.35L81.07 8.94L84.22 8.94L84.22 25.35M86.93 16.52L78.36 16.52L78.36 13.76L86.93 13.76L86.93 16.52M93.86 25.59L93.86 25.59Q92.11 25.59 90.71 24.79Q89.3 23.98 88.48 22.6Q87.65 21.22 87.65 19.52L87.65 19.52Q87.65 17.82 88.46 16.46Q89.28 15.1 90.7 14.3Q92.11 13.5 93.84 13.5L93.84 13.5Q95.62 13.5 97.02 14.3Q98.42 15.1 99.24 16.46Q100.06 17.82 100.06 19.52L100.06 19.52Q100.06 21.22 99.24 22.6Q98.42 23.98 97.02 24.79Q95.62 25.59 93.86 25.59M93.84 22.66L93.84 22.66Q94.73 22.66 95.41 22.27Q96.1 21.87 96.47 21.16Q96.84 20.46 96.84 19.54L96.84 19.54Q96.84 18.63 96.46 17.94Q96.07 17.24 95.4 16.84Q94.73 16.45 93.84 16.45L93.84 16.45Q92.98 16.45 92.3 16.84Q91.63 17.24 91.25 17.94Q90.86 18.63 90.86 19.54L90.86 19.54Q90.86 20.46 91.25 21.16Q91.63 21.87 92.3 22.27Q92.98 22.66 93.84 22.66M113.81 25.35L111.36 25.35L105.89 8.48L109.1 8.48L113.16 21.46L112.08 21.46L116.06 8.48L118.49 8.48L122.47 21.46L121.37 21.46L125.45 8.48L128.66 8.48L123.17 25.35L120.74 25.35L116.74 12.39L117.79 12.39L113.81 25.35M134.42 25.59L134.42 25.59Q132.67 25.59 131.27 24.79Q129.86 23.98 129.04 22.6Q128.21 21.22 128.21 19.52L128.21 19.52Q128.21 17.82 129.02 16.46Q129.84 15.1 131.26 14.3Q132.67 13.5 134.4 13.5L134.4 13.5Q136.18 13.5 137.58 14.3Q138.98 15.1 139.8 16.46Q140.62 17.82 140.62 19.52L140.62 19.52Q140.62 21.22 139.8 22.6Q138.98 23.98 137.58 24.79Q136.18 25.59 134.42 25.59M134.4 22.66L134.4 22.66Q135.29 22.66 135.97 22.27Q136.66 21.87 137.03 21.16Q137.4 20.46 137.4 19.54L137.4 19.54Q137.4 18.63 137.02 17.94Q136.63 17.24 135.96 16.84Q135.29 16.45 134.4 16.45L134.4 16.45Q133.54 16.45 132.86 16.84Q132.19 17.24 131.81 17.94Q131.42 18.63 131.42 19.54L131.42 19.54Q131.42 20.46 131.81 21.16Q132.19 21.87 132.86 22.27Q133.54 22.66 134.4 22.66M145.78 25.35L142.63 25.35L142.63 13.76L145.78 13.76L145.78 25.35M145.78 18.94L145.78 18.94L144.55 18.13Q144.77 15.99 145.8 14.76Q146.83 13.52 148.78 13.52L148.78 13.52Q149.62 13.52 150.29 13.8Q150.96 14.07 151.51 14.7L151.51 14.7L149.54 16.95Q149.28 16.66 148.91 16.52Q148.54 16.38 148.06 16.38L148.06 16.38Q147.05 16.38 146.41 17.01Q145.78 17.65 145.78 18.94M163.85 25.35L160.01 25.35L155.52 19.38L159.98 13.76L163.61 13.76L158.38 20.1L158.5 18.56L163.85 25.35M155.76 25.35L152.62 25.35L152.62 8L155.76 8L155.76 25.35"></path>
  </g>
</svg>
