<svg width="167" height="18" viewBox="0 0 167 18" xmlns="http://www.w3.org/2000/svg" role="img" aria-label="Permit Details">
  <style>
    .ink { fill: #172032; }
    @media (prefers-color-scheme: dark) {
      .ink { fill: rgb(230,234,242); }
    }
  </style>
  <g class="ink">
    <g transform="translate(1,0.4) scale(1)"><path fill-rule="evenodd" d="M2 4.75A.75.75 0 0 1 2.75 4h14.5a.75.75 0 0 1 0 1.5H2.75A.75.75 0 0 1 2 4.75Zm0 10.5a.75.75 0 0 1 .75-.75h7.5a.75.75 0 0 1 0 1.5h-7.5a.75.75 0 0 1-.75-.75ZM2 10a.75.75 0 0 1 .75-.75h14.5a.75.75 0 0 1 0 1.5H2.75A.75.75 0 0 1 2 10Z" clip-rule="evenodd"></path></g>
    <path d="M37.33 10.7L33.61 10.7L33.61 8.37L37.03 8.37Q37.71 8.37 38.25 8.1Q38.8 7.82 39.11 7.31Q39.43 6.8 39.43 6.06L39.43 6.06Q39.43 5.35 39.11 4.82Q38.8 4.3 38.25 4.02Q37.71 3.75 37.03 3.75L37.03 3.75L33.61 3.75L33.61 1.42L37.33 1.42Q38.74 1.42 39.86 1.99Q40.98 2.55 41.63 3.59Q42.29 4.63 42.29 6.06L42.29 6.06Q42.29 7.49 41.63 8.53Q40.98 9.57 39.86 10.14Q38.74 10.7 37.33 10.7L37.33 10.7M34.37 16.18L31.51 16.18L31.51 1.42L34.37 1.42L34.37 16.18M48.54 16.39L48.54 16.39Q46.95 16.39 45.71 15.71Q44.47 15.03 43.74 13.83Q43.02 12.63 43.02 11.1L43.02 11.1Q43.02 9.59 43.72 8.4Q44.43 7.22 45.65 6.51Q46.86 5.81 48.35 5.81L48.35 5.81Q49.82 5.81 50.95 6.47Q52.07 7.13 52.71 8.28Q53.35 9.42 53.35 10.87L53.35 10.87Q53.35 11.14 53.32 11.43Q53.29 11.71 53.21 12.07L53.21 12.07L44.68 12.09L44.68 10.03L51.92 10.01L50.81 10.87Q50.77 9.97 50.49 9.36Q50.2 8.75 49.67 8.42Q49.13 8.1 48.35 8.1L48.35 8.1Q47.54 8.1 46.93 8.47Q46.32 8.83 45.99 9.49Q45.67 10.16 45.67 11.06L45.67 11.06Q45.67 11.98 46.01 12.67Q46.36 13.35 47.01 13.72Q47.66 14.08 48.52 14.08L48.52 14.08Q49.3 14.08 49.93 13.82Q50.56 13.56 51.02 13.03L51.02 13.03L52.64 14.65Q51.9 15.51 50.84 15.95Q49.78 16.39 48.54 16.39M57.8 16.18L55.05 16.18L55.05 6.04L57.8 6.04L57.8 16.18M57.8 10.58L57.8 10.58L56.73 9.86Q56.92 7.99 57.83 6.91Q58.73 5.83 60.43 5.83L60.43 5.83Q61.16 5.83 61.75 6.07Q62.34 6.31 62.82 6.86L62.82 6.86L61.1 8.83Q60.87 8.58 60.54 8.45Q60.22 8.33 59.8 8.33L59.8 8.33Q58.92 8.33 58.36 8.89Q57.8 9.44 57.8 10.58M66.52 16.18L63.77 16.18L63.77 6.04L66.52 6.04L66.52 16.18M73.13 16.18L70.38 16.18L70.38 10.2Q70.38 9.32 69.83 8.82Q69.27 8.33 68.45 8.33L68.45 8.33Q67.91 8.33 67.46 8.55Q67.02 8.77 66.77 9.19Q66.52 9.61 66.52 10.2L66.52 10.2L65.45 9.67Q65.45 8.5 65.96 7.64Q66.48 6.77 67.36 6.3Q68.24 5.83 69.35 5.83L69.35 5.83Q70.4 5.83 71.27 6.3Q72.13 6.77 72.63 7.63Q73.13 8.48 73.13 9.67L73.13 9.67L73.13 16.18M79.75 16.18L77 16.18L77 10.2Q77 9.32 76.44 8.82Q75.88 8.33 75.07 8.33L75.07 8.33Q74.54 8.33 74.09 8.55Q73.64 8.77 73.39 9.19Q73.13 9.61 73.13 10.2L73.13 10.2L71.56 9.82Q71.64 8.6 72.21 7.71Q72.78 6.82 73.7 6.32Q74.63 5.83 75.76 5.83L75.76 5.83Q76.89 5.83 77.8 6.3Q78.7 6.77 79.22 7.66Q79.75 8.54 79.75 9.76L79.75 9.76L79.75 16.18M84.75 16.18L81.98 16.18L81.98 6.04L84.75 6.04L84.75 16.18M83.36 4.4L83.36 4.4Q82.69 4.4 82.25 3.95Q81.81 3.5 81.81 2.83L81.81 2.83Q81.81 2.18 82.25 1.71Q82.69 1.25 83.36 1.25L83.36 1.25Q84.05 1.25 84.48 1.71Q84.92 2.18 84.92 2.83L84.92 2.83Q84.92 3.5 84.48 3.95Q84.05 4.4 83.36 4.4M91.43 16.18L88.67 16.18L88.67 1.82L91.43 1.82L91.43 16.18M93.8 8.45L86.3 8.45L86.3 6.04L93.8 6.04L93.8 8.45M105.54 16.18L101.69 16.18L101.69 13.64L105.45 13.64Q106.88 13.64 107.95 13.04Q109.02 12.45 109.62 11.35Q110.22 10.26 110.22 8.77L110.22 8.77Q110.22 7.32 109.61 6.24Q109 5.16 107.93 4.56Q106.86 3.96 105.45 3.96L105.45 3.96L101.63 3.96L101.63 1.42L105.5 1.42Q107.13 1.42 108.53 1.97Q109.93 2.51 110.97 3.51Q112.01 4.51 112.58 5.85Q113.16 7.19 113.16 8.79L113.16 8.79Q113.16 10.39 112.58 11.74Q112.01 13.1 110.98 14.09Q109.95 15.09 108.55 15.64Q107.15 16.18 105.54 16.18L105.54 16.18M102.6 16.18L99.74 16.18L99.74 1.42L102.6 1.42L102.6 16.18M119.99 16.39L119.99 16.39Q118.39 16.39 117.15 15.71Q115.91 15.03 115.19 13.83Q114.46 12.63 114.46 11.1L114.46 11.1Q114.46 9.59 115.17 8.4Q115.87 7.22 117.09 6.51Q118.31 5.81 119.8 5.81L119.8 5.81Q121.27 5.81 122.39 6.47Q123.51 7.13 124.15 8.28Q124.79 9.42 124.79 10.87L124.79 10.87Q124.79 11.14 124.76 11.43Q124.73 11.71 124.65 12.07L124.65 12.07L116.12 12.09L116.12 10.03L123.37 10.01L122.25 10.87Q122.21 9.97 121.93 9.36Q121.64 8.75 121.11 8.42Q120.57 8.1 119.8 8.1L119.8 8.1Q118.98 8.1 118.37 8.47Q117.76 8.83 117.43 9.49Q117.11 10.16 117.11 11.06L117.11 11.06Q117.11 11.98 117.45 12.67Q117.8 13.35 118.45 13.72Q119.1 14.08 119.96 14.08L119.96 14.08Q120.74 14.08 121.37 13.82Q122 13.56 122.46 13.03L122.46 13.03L124.08 14.65Q123.35 15.51 122.28 15.95Q121.22 16.39 119.99 16.39M130.51 16.18L127.76 16.18L127.76 1.82L130.51 1.82L130.51 16.18M132.88 8.45L125.38 8.45L125.38 6.04L132.88 6.04L132.88 8.45M138.42 16.39L138.42 16.39Q137.04 16.39 135.92 15.7Q134.81 15.01 134.18 13.81Q133.55 12.61 133.55 11.12L133.55 11.12Q133.55 9.61 134.18 8.41Q134.81 7.22 135.92 6.52Q137.04 5.83 138.42 5.83L138.42 5.83Q139.51 5.83 140.38 6.27Q141.24 6.71 141.75 7.5Q142.27 8.29 142.31 9.27L142.31 9.27L142.31 12.93Q142.27 13.94 141.75 14.71Q141.24 15.49 140.38 15.94Q139.51 16.39 138.42 16.39M138.93 13.85L138.93 13.85Q140.08 13.85 140.8 13.09Q141.51 12.32 141.51 11.1L141.51 11.1Q141.51 10.3 141.18 9.68Q140.86 9.06 140.28 8.72Q139.7 8.37 138.93 8.37L138.93 8.37Q138.17 8.37 137.59 8.72Q137.02 9.06 136.69 9.68Q136.36 10.3 136.36 11.1L136.36 11.1Q136.36 11.92 136.69 12.54Q137.02 13.16 137.59 13.51Q138.17 13.85 138.93 13.85M144.09 16.18L141.36 16.18L141.36 13.45L141.8 10.98L141.36 8.54L141.36 6.04L144.09 6.04L144.09 16.18M149.3 16.18L146.53 16.18L146.53 6.04L149.3 6.04L149.3 16.18M147.92 4.4L147.92 4.4Q147.24 4.4 146.8 3.95Q146.36 3.5 146.36 2.83L146.36 2.83Q146.36 2.18 146.8 1.71Q147.24 1.25 147.92 1.25L147.92 1.25Q148.61 1.25 149.04 1.71Q149.47 2.18 149.47 2.83L149.47 2.83Q149.47 3.5 149.04 3.95Q148.61 4.4 147.92 4.4M154.49 16.18L151.74 16.18L151.74 1L154.49 1L154.49 16.18M160.41 16.41L160.41 16.41Q159.55 16.41 158.72 16.18Q157.89 15.95 157.2 15.54Q156.5 15.13 156 14.55L156 14.55L157.64 12.89Q158.16 13.47 158.86 13.77Q159.55 14.06 160.39 14.06L160.39 14.06Q161.06 14.06 161.41 13.87Q161.75 13.68 161.75 13.31L161.75 13.31Q161.75 12.89 161.39 12.66Q161.02 12.42 160.43 12.27Q159.84 12.11 159.2 11.91Q158.56 11.71 157.97 11.38Q157.39 11.06 157.02 10.48Q156.65 9.9 156.65 8.98L156.65 8.98Q156.65 8.01 157.12 7.3Q157.6 6.59 158.48 6.19Q159.36 5.79 160.56 5.79L160.56 5.79Q161.82 5.79 162.84 6.23Q163.85 6.67 164.53 7.55L164.53 7.55L162.87 9.21Q162.41 8.64 161.83 8.39Q161.25 8.14 160.58 8.14L160.58 8.14Q159.97 8.14 159.64 8.33Q159.32 8.52 159.32 8.85L159.32 8.85Q159.32 9.23 159.69 9.44Q160.05 9.65 160.64 9.81Q161.23 9.97 161.87 10.17Q162.51 10.37 163.09 10.72Q163.67 11.08 164.03 11.67Q164.4 12.26 164.4 13.18L164.4 13.18Q164.4 14.67 163.33 15.54Q162.26 16.41 160.41 16.41"></path>
  </g>
</svg>
