<svg width="218" height="26" viewBox="0 0 218 26" xmlns="http://www.w3.org/2000/svg" role="img" aria-label="Permit to Work">
  <style>
    .ink { fill: #172032; }
    @media (prefers-color-scheme: dark) {
      .ink { fill: rgb(230,234,242); }
    }
  </style>
  <g class="ink">
    <path d="M11.99 15.55L6.42 15.55L6.42 12.06L11.55 12.06Q12.56 12.06 13.38 11.65Q14.2 11.24 14.67 10.47Q15.14 9.69 15.14 8.59L15.14 8.59Q15.14 7.52 14.67 6.73Q14.2 5.95 13.38 5.54Q12.56 5.13 11.55 5.13L11.55 5.13L6.42 5.13L6.42 1.63L11.99 1.63Q14.1 1.63 15.79 2.48Q17.47 3.33 18.45 4.89Q19.43 6.45 19.43 8.59L19.43 8.59Q19.43 10.73 18.45 12.29Q17.47 13.85 15.79 14.7Q14.1 15.55 11.99 15.55L11.99 15.55M7.55 23.77L3.27 23.77L3.27 1.63L7.55 1.63L7.55 23.77M28.81 24.09L28.81 24.09Q26.42 24.09 24.56 23.07Q22.7 22.04 21.62 20.25Q20.53 18.45 20.53 16.15L20.53 16.15Q20.53 13.88 21.59 12.1Q22.64 10.32 24.47 9.27Q26.29 8.21 28.53 8.21L28.53 8.21Q30.74 8.21 32.42 9.21Q34.11 10.2 35.07 11.91Q36.03 13.63 36.03 15.81L36.03 15.81Q36.03 16.21 35.98 16.64Q35.93 17.06 35.81 17.6L35.81 17.6L23.02 17.63L23.02 14.55L33.89 14.51L32.22 15.81Q32.15 14.45 31.73 13.54Q31.3 12.62 30.5 12.14Q29.7 11.65 28.53 11.65L28.53 11.65Q27.3 11.65 26.39 12.2Q25.48 12.75 24.99 13.74Q24.5 14.73 24.5 16.09L24.5 16.09Q24.5 17.47 25.02 18.5Q25.54 19.52 26.52 20.07Q27.49 20.62 28.78 20.62L28.78 20.62Q29.95 20.62 30.89 20.23Q31.84 19.84 32.53 19.05L32.53 19.05L34.96 21.48Q33.85 22.77 32.26 23.43Q30.67 24.09 28.81 24.09M42.71 23.77L38.58 23.77L38.58 8.56L42.71 8.56L42.71 23.77M42.71 15.36L42.71 15.36L41.1 14.29Q41.38 11.49 42.74 9.87Q44.09 8.24 46.64 8.24L46.64 8.24Q47.75 8.24 48.63 8.61Q49.51 8.97 50.23 9.79L50.23 9.79L47.65 12.75Q47.31 12.37 46.82 12.18Q46.33 11.99 45.7 11.99L45.7 11.99Q44.38 11.99 43.54 12.83Q42.71 13.66 42.71 15.36M55.78 23.77L51.65 23.77L51.65 8.56L55.78 8.56L55.78 23.77M65.7 23.77L61.57 23.77L61.57 14.8Q61.57 13.47 60.74 12.73Q59.9 11.99 58.68 11.99L58.68 11.99Q57.86 11.99 57.2 12.32Q56.53 12.66 56.16 13.29Q55.78 13.92 55.78 14.8L55.78 14.8L54.17 14.01Q54.17 12.25 54.94 10.95Q55.72 9.66 57.04 8.95Q58.36 8.24 60.03 8.24L60.03 8.24Q61.61 8.24 62.9 8.95Q64.19 9.66 64.94 10.94Q65.7 12.21 65.7 14.01L65.7 14.01L65.7 23.77M75.62 23.77L71.5 23.77L71.5 14.8Q71.5 13.47 70.66 12.73Q69.83 11.99 68.6 11.99L68.6 11.99Q67.81 11.99 67.13 12.32Q66.46 12.66 66.08 13.29Q65.7 13.92 65.7 14.8L65.7 14.8L63.34 14.23Q63.46 12.4 64.32 11.06Q65.17 9.73 66.55 8.99Q67.94 8.24 69.64 8.24L69.64 8.24Q71.34 8.24 72.69 8.95Q74.05 9.66 74.84 10.99Q75.62 12.31 75.62 14.14L75.62 14.14L75.62 23.77M83.12 23.77L78.96 23.77L78.96 8.56L83.12 8.56L83.12 23.77M81.04 6.1L81.04 6.1Q80.03 6.1 79.37 5.43Q78.71 4.75 78.71 3.74L78.71 3.74Q78.71 2.76 79.37 2.07Q80.03 1.38 81.04 1.38L81.04 1.38Q82.08 1.38 82.73 2.07Q83.37 2.76 83.37 3.74L83.37 3.74Q83.37 4.75 82.73 5.43Q82.08 6.1 81.04 6.1M93.14 23.77L89.01 23.77L89.01 2.23L93.14 2.23L93.14 23.77M96.7 12.18L85.45 12.18L85.45 8.56L96.7 8.56L96.7 12.18M111.53 23.77L107.41 23.77L107.41 2.23L111.53 2.23L111.53 23.77M115.09 12.18L103.85 12.18L103.85 8.56L115.09 8.56L115.09 12.18M124.2 24.09L124.2 24.09Q121.9 24.09 120.05 23.03Q118.21 21.98 117.12 20.17Q116.04 18.36 116.04 16.12L116.04 16.12Q116.04 13.88 117.11 12.1Q118.18 10.32 120.04 9.27Q121.9 8.21 124.17 8.21L124.17 8.21Q126.5 8.21 128.34 9.27Q130.18 10.32 131.25 12.1Q132.32 13.88 132.32 16.12L132.32 16.12Q132.32 18.36 131.25 20.17Q130.18 21.98 128.34 23.03Q126.5 24.09 124.2 24.09M124.17 20.25L124.17 20.25Q125.33 20.25 126.23 19.73Q127.13 19.21 127.61 18.28Q128.1 17.35 128.1 16.15L128.1 16.15Q128.1 14.95 127.6 14.04Q127.09 13.13 126.21 12.61Q125.33 12.09 124.17 12.09L124.17 12.09Q123.03 12.09 122.15 12.61Q121.27 13.13 120.76 14.04Q120.26 14.95 120.26 16.15L120.26 16.15Q120.26 17.35 120.76 18.28Q121.27 19.21 122.15 19.73Q123.03 20.25 124.17 20.25M150.37 23.77L147.16 23.77L139.98 1.63L144.2 1.63L149.52 18.67L148.1 18.67L153.33 1.63L156.52 1.63L161.74 18.67L160.3 18.67L165.65 1.63L169.87 1.63L162.66 23.77L159.48 23.77L154.22 6.76L155.6 6.76L150.37 23.77M177.43 24.09L177.43 24.09Q175.13 24.09 173.29 23.03Q171.45 21.98 170.36 20.17Q169.27 18.36 169.27 16.12L169.27 16.12Q169.27 13.88 170.34 12.1Q171.42 10.32 173.27 9.27Q175.13 8.21 177.4 8.21L177.4 8.21Q179.73 8.21 181.57 9.27Q183.42 10.32 184.49 12.1Q185.56 13.88 185.56 16.12L185.56 16.12Q185.56 18.36 184.49 20.17Q183.42 21.98 181.57 23.03Q179.73 24.09 177.43 24.09M177.4 20.25L177.4 20.25Q178.57 20.25 179.46 19.73Q180.36 19.21 180.85 18.28Q181.34 17.35 181.34 16.15L181.34 16.15Q181.34 14.95 180.83 14.04Q180.33 13.13 179.45 12.61Q178.57 12.09 177.4 12.09L177.4 12.09Q176.27 12.09 175.38 12.61Q174.5 13.13 174 14.04Q173.49 14.95 173.49 16.15L173.49 16.15Q173.49 17.35 174 18.28Q174.5 19.21 175.38 19.73Q176.27 20.25 177.4 20.25M192.33 23.77L188.2 23.77L188.2 8.56L192.33 8.56L192.33 23.77M192.33 15.36L192.33 15.36L190.72 14.29Q191.01 11.49 192.36 9.87Q193.72 8.24 196.27 8.24L196.27 8.24Q197.37 8.24 198.25 8.61Q199.13 8.97 199.86 9.79L199.86 9.79L197.28 12.75Q196.93 12.37 196.44 12.18Q195.95 11.99 195.32 11.99L195.32 11.99Q194 11.99 193.17 12.83Q192.33 13.66 192.33 15.36M216.05 23.77L211.01 23.77L205.12 15.93L210.98 8.56L215.74 8.56L208.87 16.88L209.03 14.86L216.05 23.77M205.43 23.77L201.31 23.77L201.31 1L205.43 1L205.43 23.77"></path>
  </g>
</svg>
