<svg width="167" height="31" viewBox="0 0 167 31" xmlns="http://www.w3.org/2000/svg" role="img" aria-label="Permit Details">
  <style>
    .ink { fill: #172032; }
    .rule { fill: rgb(228,230,235); }
    @media (prefers-color-scheme: dark) {
      .ink { fill: rgb(230,234,242); }
      .rule { fill: rgb(66,77,96); }
    }
  </style>
  <g class="ink">
    <g class="ink" transform="translate(0,5.8) scale(1)"><path fill-rule="evenodd" d="M2 4.75A.75.75 0 0 1 2.75 4h14.5a.75.75 0 0 1 0 1.5H2.75A.75.75 0 0 1 2 4.75Zm0 10.5a.75.75 0 0 1 .75-.75h7.5a.75.75 0 0 1 0 1.5h-7.5a.75.75 0 0 1-.75-.75ZM2 10a.75.75 0 0 1 .75-.75h14.5a.75.75 0 0 1 0 1.5H2.75A.75.75 0 0 1 2 10Z" clip-rule="evenodd"></path></g>
    <path d="M36.62 17.85L32.95 17.85L32.95 15.29L36.14 15.29Q36.75 15.29 37.25 15.04Q37.76 14.78 38.05 14.3Q38.35 13.82 38.35 13.12L38.35 13.12Q38.35 12.45 38.05 11.97Q37.76 11.49 37.25 11.23Q36.75 10.98 36.14 10.98L36.14 10.98L32.95 10.98L32.95 8.42L36.62 8.42Q38.03 8.42 39.16 8.99Q40.3 9.55 40.96 10.61Q41.62 11.68 41.62 13.12L41.62 13.12Q41.62 14.57 40.96 15.63Q40.3 16.69 39.16 17.27Q38.03 17.85 36.62 17.85L36.62 17.85M33.73 23.25L30.43 23.25L30.43 8.42L33.73 8.42L33.73 23.25M47.94 23.48L47.94 23.48Q46.28 23.48 44.99 22.79Q43.7 22.11 42.97 20.89Q42.23 19.68 42.23 18.14L42.23 18.14Q42.23 16.61 42.95 15.4Q43.68 14.2 44.92 13.5Q46.16 12.81 47.71 12.81L47.71 12.81Q49.22 12.81 50.38 13.46Q51.53 14.11 52.19 15.27Q52.86 16.42 52.86 17.91L52.86 17.91Q52.86 18.19 52.82 18.49Q52.79 18.79 52.71 19.19L52.71 19.19L43.91 19.21L43.91 17.01L51.34 16.99L49.96 17.91Q49.94 17.03 49.69 16.45Q49.43 15.88 48.94 15.57Q48.45 15.27 47.73 15.27L47.73 15.27Q46.98 15.27 46.42 15.61Q45.86 15.96 45.56 16.59Q45.25 17.22 45.25 18.12L45.25 18.12Q45.25 19.03 45.58 19.67Q45.91 20.31 46.5 20.65Q47.1 21 47.92 21L47.92 21Q48.68 21 49.29 20.74Q49.9 20.47 50.36 19.95L50.36 19.95L52.12 21.71Q51.37 22.6 50.29 23.04Q49.22 23.48 47.94 23.48M57.62 23.25L54.41 23.25L54.41 13.04L57.62 13.04L57.62 23.25M57.62 17.64L57.62 17.64L56.28 16.59Q56.68 14.8 57.62 13.82Q58.57 12.83 60.25 12.83L60.25 12.83Q60.98 12.83 61.54 13.05Q62.1 13.27 62.52 13.73L62.52 13.73L60.61 16.15Q60.4 15.92 60.08 15.79Q59.77 15.67 59.37 15.67L59.37 15.67Q58.57 15.67 58.1 16.16Q57.62 16.65 57.62 17.64M66.51 23.25L63.29 23.25L63.29 13.04L66.51 13.04L66.51 23.25M73.04 23.25L69.82 23.25L69.82 17.28Q69.82 16.51 69.35 16.07Q68.88 15.64 68.19 15.64L68.19 15.64Q67.7 15.64 67.33 15.84Q66.95 16.04 66.73 16.4Q66.51 16.76 66.51 17.28L66.51 17.28L65.27 16.74Q65.27 15.52 65.79 14.65Q66.32 13.78 67.22 13.3Q68.12 12.83 69.26 12.83L69.26 12.83Q70.33 12.83 71.18 13.31Q72.03 13.8 72.53 14.66Q73.04 15.52 73.04 16.72L73.04 16.72L73.04 23.25M79.57 23.25L76.36 23.25L76.36 17.28Q76.36 16.51 75.88 16.07Q75.41 15.64 74.72 15.64L74.72 15.64Q74.23 15.64 73.86 15.84Q73.48 16.04 73.26 16.4Q73.04 16.76 73.04 17.28L73.04 17.28L71.19 17.03Q71.23 15.73 71.81 14.79Q72.39 13.86 73.34 13.34Q74.3 12.83 75.49 12.83L75.49 12.83Q76.67 12.83 77.58 13.32Q78.5 13.82 79.03 14.73Q79.57 15.64 79.57 16.93L79.57 16.93L79.57 23.25M84.84 23.25L81.63 23.25L81.63 13.04L84.84 13.04L84.84 23.25M83.24 11.63L83.24 11.63Q82.49 11.63 81.99 11.12Q81.5 10.6 81.5 9.87L81.5 9.87Q81.5 9.11 81.99 8.61Q82.49 8.11 83.24 8.11L83.24 8.11Q84 8.11 84.48 8.61Q84.97 9.11 84.97 9.87L84.97 9.87Q84.97 10.6 84.48 11.12Q84 11.63 83.24 11.63M91.77 23.25L88.56 23.25L88.56 8.82L91.77 8.82L91.77 23.25M94.08 15.77L86.25 15.77L86.25 13.04L94.08 13.04L94.08 15.77M105.76 23.25L102 23.25L102 20.35L105.67 20.35Q107.02 20.35 108.02 19.81Q109.03 19.28 109.58 18.25Q110.12 17.22 110.12 15.81L110.12 15.81Q110.12 14.41 109.57 13.4Q109.01 12.39 108.01 11.84Q107.02 11.3 105.67 11.3L105.67 11.3L101.89 11.3L101.89 8.42L105.71 8.42Q107.39 8.42 108.81 8.96Q110.23 9.49 111.29 10.49Q112.35 11.49 112.93 12.84Q113.5 14.2 113.5 15.83L113.5 15.83Q113.5 17.45 112.93 18.82Q112.35 20.18 111.3 21.17Q110.25 22.15 108.83 22.7Q107.41 23.25 105.76 23.25L105.76 23.25M103.07 23.25L99.77 23.25L99.77 8.42L103.07 8.42L103.07 23.25M120.35 23.48L120.35 23.48Q118.69 23.48 117.4 22.79Q116.11 22.11 115.37 20.89Q114.64 19.68 114.64 18.14L114.64 18.14Q114.64 16.61 115.36 15.4Q116.09 14.2 117.33 13.5Q118.57 12.81 120.12 12.81L120.12 12.81Q121.63 12.81 122.79 13.46Q123.94 14.11 124.6 15.27Q125.26 16.42 125.26 17.91L125.26 17.91Q125.26 18.19 125.23 18.49Q125.2 18.79 125.12 19.19L125.12 19.19L116.32 19.21L116.32 17.01L123.75 16.99L122.37 17.91Q122.35 17.03 122.09 16.45Q121.84 15.88 121.35 15.57Q120.85 15.27 120.14 15.27L120.14 15.27Q119.38 15.27 118.83 15.61Q118.27 15.96 117.97 16.59Q117.66 17.22 117.66 18.12L117.66 18.12Q117.66 19.03 117.99 19.67Q118.31 20.31 118.91 20.65Q119.51 21 120.33 21L120.33 21Q121.09 21 121.69 20.74Q122.3 20.47 122.77 19.95L122.77 19.95L124.53 21.71Q123.77 22.6 122.7 23.04Q121.63 23.48 120.35 23.48M131.27 23.25L128.06 23.25L128.06 8.82L131.27 8.82L131.27 23.25M133.58 15.77L125.75 15.77L125.75 13.04L133.58 13.04L133.58 15.77M139.04 23.46L139.04 23.46Q137.63 23.46 136.53 22.76Q135.43 22.07 134.79 20.87Q134.15 19.68 134.15 18.14L134.15 18.14Q134.15 16.61 134.79 15.41Q135.43 14.22 136.53 13.52Q137.63 12.83 139.04 12.83L139.04 12.83Q140.07 12.83 140.9 13.23Q141.73 13.63 142.25 14.33Q142.78 15.04 142.84 15.94L142.84 15.94L142.84 20.35Q142.78 21.25 142.26 21.95Q141.75 22.66 140.91 23.06Q140.07 23.46 139.04 23.46M139.69 20.56L139.69 20.56Q140.72 20.56 141.35 19.88Q141.98 19.19 141.98 18.14L141.98 18.14Q141.98 17.43 141.7 16.88Q141.41 16.34 140.9 16.03Q140.38 15.73 139.71 15.73L139.71 15.73Q139.04 15.73 138.53 16.03Q138.01 16.34 137.71 16.88Q137.4 17.43 137.4 18.14L137.4 18.14Q137.4 18.84 137.7 19.38Q137.99 19.93 138.51 20.24Q139.04 20.56 139.69 20.56M145 23.25L141.85 23.25L141.85 20.5L142.34 18.02L141.85 15.54L141.85 13.04L145 13.04L145 23.25M150.49 23.25L147.27 23.25L147.27 13.04L150.49 13.04L150.49 23.25M148.89 11.63L148.89 11.63Q148.13 11.63 147.64 11.12Q147.15 10.6 147.15 9.87L147.15 9.87Q147.15 9.11 147.64 8.61Q148.13 8.11 148.89 8.11L148.89 8.11Q149.65 8.11 150.13 8.61Q150.61 9.11 150.61 9.87L150.61 9.87Q150.61 10.6 150.13 11.12Q149.65 11.63 148.89 11.63M155.97 23.25L152.75 23.25L152.75 8L155.97 8L155.97 23.25M161.95 23.5L161.95 23.5Q161.05 23.5 160.18 23.27Q159.31 23.04 158.56 22.61Q157.81 22.18 157.29 21.61L157.29 21.61L159.12 19.76Q159.62 20.31 160.31 20.61Q161.01 20.92 161.82 20.92L161.82 20.92Q162.39 20.92 162.7 20.75Q163 20.58 163 20.29L163 20.29Q163 19.91 162.63 19.71Q162.27 19.51 161.7 19.35Q161.13 19.19 160.5 19Q159.87 18.82 159.31 18.48Q158.74 18.14 158.38 17.54Q158.02 16.95 158.02 16.02L158.02 16.02Q158.02 15.04 158.53 14.31Q159.03 13.59 159.96 13.17Q160.88 12.75 162.12 12.75L162.12 12.75Q163.42 12.75 164.52 13.2Q165.63 13.65 166.32 14.53L166.32 14.53L164.49 16.38Q164.01 15.81 163.41 15.58Q162.81 15.35 162.25 15.35L162.25 15.35Q161.7 15.35 161.43 15.51Q161.15 15.67 161.15 15.96L161.15 15.96Q161.15 16.27 161.51 16.46Q161.87 16.65 162.43 16.8Q163 16.95 163.63 17.16Q164.26 17.37 164.83 17.72Q165.4 18.08 165.75 18.68Q166.11 19.28 166.11 20.24L166.11 20.24Q166.11 21.73 164.99 22.62Q163.86 23.5 161.95 23.5"></path>
  </g>
  <rect class="rule" x="0" y="30" width="167" height="1"></rect>
</svg>
