<svg width="225.5" height="50" viewBox="0 0 225.5 50" xmlns="http://www.w3.org/2000/svg" role="img" aria-label="Permit Status: Future">
  <style>
    .tile  { fill: #FCFCFD; stroke: rgb(228,230,235); }
    .label { fill: rgb(102,112,133); }
    .pill  { fill: rgb(255,237,212); stroke: transparent; }
    .ink   { fill: rgb(159,45,0); }
    @media (prefers-color-scheme: dark) {
      .tile  { fill: #1E2634; stroke: rgb(66,77,96); }
      .label { fill: rgb(167,176,191); }
      .pill  { fill: rgb(159,45,0); stroke: rgb(255,105,0); }
      .ink   { fill: rgb(255,237,212); }
    }
  </style>
  <rect class="tile" x="0.5" y="0.5" width="224.5" height="49" rx="12" ry="12" stroke-width="1"></rect>
  <g class="label" transform="translate(16,29.2)"><path d="M2.34 0L0.84 0L0.84-8.37L3.97-8.37Q4.93-8.37 5.59-8.01Q6.24-7.65 6.58-7.02Q6.92-6.40 6.92-5.60Q6.92-4.80 6.58-4.17Q6.24-3.54 5.58-3.19Q4.91-2.83 3.95-2.83L2.34-2.83L2.34 0M2.34-7.11L2.34-4.07L3.75-4.07Q4.60-4.07 4.99-4.50Q5.39-4.93 5.39-5.60Q5.39-6.27 4.99-6.69Q4.60-7.11 3.74-7.11M14.75 0L9.30 0L9.30-8.37L14.73-8.37L14.73-7.10L10.79-7.10L10.79-4.85L14.44-4.85L14.44-3.60L10.79-3.60L10.79-1.26L14.75-1.26M18.79 0L17.29 0L17.29-8.37L20.42-8.37Q21.86-8.37 22.62-7.63Q23.37-6.88 23.37-5.69Q23.37-4.84 22.99-4.23Q22.60-3.62 21.86-3.32L23.68 0L22 0L20.35-3.07L18.79-3.07L18.79 0M18.79-7.11L18.79-4.31L20.20-4.31Q21.05-4.31 21.44-4.67Q21.84-5.03 21.84-5.69Q21.84-6.36 21.44-6.74Q21.05-7.11 20.19-7.11M27.30 0L25.83 0L25.83-8.37L28.09-8.37L29.68-4.05Q29.76-3.80 29.87-3.41Q29.98-3.01 30.09-2.56Q30.20-2.11 30.30-1.69Q30.40-2.10 30.51-2.55Q30.62-3 30.73-3.40Q30.84-3.80 30.92-4.05L32.49-8.37L34.75-8.37L34.75 0L33.26 0L33.26-4.22Q33.26-4.54 33.27-5Q33.28-5.46 33.29-5.99Q33.30-6.51 33.31-7.01Q33.17-6.47 33.01-5.94Q32.85-5.40 32.71-4.95Q32.57-4.50 32.47-4.22L30.93 0L29.65 0L28.09-4.22Q27.99-4.49 27.85-4.93Q27.71-5.37 27.56-5.90Q27.40-6.42 27.24-6.96Q27.26-6.49 27.27-5.98Q27.28-5.46 27.29-5Q27.30-4.54 27.30-4.22M37.47-8.37L38.97-8.37L38.97 0L37.47 0M43.90-7.10L41.31-7.10L41.31-8.37L47.97-8.37L47.97-7.10L45.40-7.10L45.40 0L43.90 0M57.19 0.13Q55.73 0.13 54.86-0.54Q53.99-1.22 53.94-2.46L55.42-2.46Q55.47-1.80 55.97-1.47Q56.47-1.15 57.18-1.15Q57.92-1.15 58.39-1.49Q58.85-1.82 58.85-2.36Q58.85-2.85 58.44-3.10Q58.02-3.35 57.34-3.52L56.40-3.77Q55.35-4.04 54.76-4.58Q54.17-5.13 54.17-6.01Q54.17-6.76 54.57-7.31Q54.97-7.86 55.66-8.17Q56.35-8.48 57.23-8.48Q58.12-8.48 58.79-8.17Q59.46-7.86 59.84-7.32Q60.22-6.77 60.24-6.08L58.79-6.08Q58.73-6.61 58.31-6.91Q57.88-7.20 57.20-7.20Q56.50-7.20 56.09-6.89Q55.69-6.58 55.69-6.10Q55.69-5.75 55.90-5.53Q56.12-5.31 56.45-5.17Q56.78-5.04 57.11-4.95L57.89-4.75Q58.51-4.60 59.08-4.32Q59.64-4.03 60-3.55Q60.35-3.08 60.35-2.35Q60.35-1.61 59.98-1.05Q59.60-0.49 58.89-0.18Q58.19 0.13 57.19 0.13M64.97-7.10L62.39-7.10L62.39-8.37L69.05-8.37L69.05-7.10L66.47-7.10L66.47 0L64.97 0M72.47 0L70.83 0L73.75-8.37L75.65-8.37L78.64 0L77 0L76.28-2.07L73.15-2.07L72.47 0M73.91-4.35L73.55-3.28L75.87-3.28L75.51-4.35Q75.32-4.92 75.12-5.63Q74.92-6.33 74.69-7.20Q74.46-6.32 74.27-5.61Q74.08-4.90 73.91-4.35M83-7.10L80.42-7.10L80.42-8.37L87.08-8.37L87.08-7.10L84.50-7.10L84.50 0L83 0M92.81 0.12Q91.79 0.12 91.03-0.26Q90.26-0.65 89.84-1.33Q89.42-2.01 89.42-2.90L89.42-8.37L90.92-8.37L90.92-3.03Q90.92-2.24 91.43-1.73Q91.95-1.22 92.81-1.22Q93.68-1.22 94.19-1.73Q94.70-2.24 94.70-3.03L94.70-8.37L96.20-8.37L96.20-2.90Q96.20-2.01 95.78-1.33Q95.36-0.65 94.59-0.26Q93.83 0.12 92.81 0.12M101.85 0.13Q100.39 0.13 99.53-0.54Q98.66-1.22 98.61-2.46L100.09-2.46Q100.14-1.80 100.64-1.47Q101.14-1.15 101.84-1.15Q102.58-1.15 103.05-1.49Q103.52-1.82 103.52-2.36Q103.52-2.85 103.11-3.10Q102.69-3.35 102.01-3.52L101.06-3.77Q100.01-4.04 99.43-4.58Q98.84-5.13 98.84-6.01Q98.84-6.76 99.24-7.31Q99.64-7.86 100.33-8.17Q101.02-8.48 101.89-8.48Q102.79-8.48 103.46-8.17Q104.13-7.86 104.51-7.32Q104.89-6.77 104.91-6.08L103.45-6.08Q103.40-6.61 102.97-6.91Q102.55-7.20 101.87-7.20Q101.16-7.20 100.76-6.89Q100.35-6.58 100.35-6.10Q100.35-5.75 100.57-5.53Q100.79-5.31 101.12-5.17Q101.44-5.04 101.78-4.95L102.56-4.75Q103.18-4.60 103.74-4.32Q104.31-4.03 104.66-3.55Q105.02-3.08 105.02-2.35Q105.02-1.61 104.64-1.05Q104.27-0.49 103.56-0.18Q102.85 0.13 101.85 0.13"></path></g>
  <g transform="translate(134.6,10) scale(0.192308)">
    <rect class="pill" x="3" y="3" width="415" height="150" rx="75" ry="75" stroke-width="6"></rect>
    <g class="ink" transform="translate(40,40) scale(4.75)"><path d="M2.53 3.956A1 1 0 0 0 1 4.804v6.392a1 1 0 0 0 1.53.848l5.113-3.196c.16-.1.279-.233.357-.383v2.73a1 1 0 0 0 1.53.849l5.113-3.196a1 1 0 0 0 0-1.696L9.53 3.956A1 1 0 0 0 8 4.804v2.731a.992.992 0 0 0-.357-.383L2.53 3.956Z"></path></g>
    <g class="ink" transform="translate(138 105.35)"><path d="M7.70 0.00Q6.96 0.00 6.47 -0.48Q5.99 -0.96 5.99 -1.78L5.99 -50.02Q5.99 -50.84 6.47 -51.32Q6.96 -51.80 7.70 -51.80L39.29 -51.80Q40.11 -51.80 40.59 -51.32Q41.07 -50.84 41.07 -50.02L41.07 -45.44Q41.07 -44.70 40.59 -44.18Q40.11 -43.66 39.29 -43.66L15.24 -43.66L15.24 -28.71L37.81 -28.71Q38.63 -28.71 39.11 -28.19Q39.59 -27.68 39.59 -26.86L39.59 -22.35Q39.59 -21.61 39.11 -21.09Q38.63 -20.57 37.81 -20.57L15.24 -20.57L15.24 -1.78Q15.24 -0.96 14.73 -0.48Q14.21 0.00 13.39 0.00ZM59.30 0.74Q54.71 0.74 51.41 -1.29Q48.12 -3.33 46.38 -7.10Q44.64 -10.88 44.64 -15.91L44.64 -36.70Q44.64 -37.52 45.12 -38.00Q45.61 -38.48 46.35 -38.48L52.04 -38.48Q52.78 -38.48 53.26 -38.00Q53.75 -37.52 53.75 -36.70L53.75 -16.35Q53.75 -6.59 62.33 -6.59Q66.40 -6.59 68.80 -9.18Q71.21 -11.77 71.21 -16.35L71.21 -36.70Q71.21 -37.52 71.73 -38.00Q72.25 -38.48 72.99 -38.48L78.61 -38.48Q79.35 -38.48 79.87 -38.00Q80.39 -37.52 80.39 -36.70L80.39 -1.78Q80.39 -0.96 79.87 -0.48Q79.35 0.00 78.61 0.00L73.36 0.00Q72.62 0.00 72.10 -0.48Q71.58 -0.96 71.58 -1.78L71.58 -4.88Q69.66 -2.22 66.73 -0.74Q63.81 0.74 59.30 0.74ZM107.20 0.00Q102.83 0.00 99.94 -1.55Q97.06 -3.11 95.65 -6.14Q94.25 -9.18 94.25 -13.54L94.25 -31.23L88.47 -31.23Q87.66 -31.23 87.18 -31.75Q86.70 -32.26 86.70 -33.00L86.70 -36.70Q86.70 -37.52 87.18 -38.00Q87.66 -38.48 88.47 -38.48L94.25 -38.48L94.25 -50.76Q94.25 -51.58 94.73 -52.06Q95.21 -52.54 96.02 -52.54L101.28 -52.54Q102.02 -52.54 102.50 -52.06Q102.98 -51.58 102.98 -50.76L102.98 -38.48L112.23 -38.48Q112.97 -38.48 113.49 -38.00Q114.00 -37.52 114.00 -36.70L114.00 -33.00Q114.00 -32.26 113.49 -31.75Q112.97 -31.23 112.23 -31.23L102.98 -31.23L102.98 -14.28Q102.98 -11.10 104.09 -9.29Q105.20 -7.47 108.01 -7.47L112.89 -7.47Q113.71 -7.47 114.19 -6.99Q114.67 -6.51 114.67 -5.77L114.67 -1.78Q114.67 -0.96 114.19 -0.48Q113.71 0.00 112.89 0.00ZM135.76 0.74Q131.17 0.74 127.87 -1.29Q124.58 -3.33 122.84 -7.10Q121.10 -10.88 121.10 -15.91L121.10 -36.70Q121.10 -37.52 121.58 -38.00Q122.07 -38.48 122.81 -38.48L128.50 -38.48Q129.24 -38.48 129.72 -38.00Q130.21 -37.52 130.21 -36.70L130.21 -16.35Q130.21 -6.59 138.79 -6.59Q142.86 -6.59 145.26 -9.18Q147.67 -11.77 147.67 -16.35L147.67 -36.70Q147.67 -37.52 148.19 -38.00Q148.71 -38.48 149.45 -38.48L155.07 -38.48Q155.81 -38.48 156.33 -38.00Q156.85 -37.52 156.85 -36.70L156.85 -1.78Q156.85 -0.96 156.33 -0.48Q155.81 0.00 155.07 0.00L149.82 0.00Q149.08 0.00 148.56 -0.48Q148.04 -0.96 148.04 -1.78L148.04 -4.88Q146.12 -2.22 143.19 -0.74Q140.27 0.74 135.76 0.74ZM168.71 0.00Q167.97 0.00 167.49 -0.48Q167.01 -0.96 167.01 -1.78L167.01 -36.70Q167.01 -37.44 167.49 -37.96Q167.97 -38.48 168.71 -38.48L173.96 -38.48Q174.70 -38.48 175.22 -37.96Q175.74 -37.44 175.74 -36.70L175.74 -33.52Q177.44 -35.96 180.07 -37.22Q182.69 -38.48 186.32 -38.48L189.35 -38.48Q190.09 -38.48 190.58 -38.00Q191.06 -37.52 191.06 -36.70L191.06 -32.12Q191.06 -31.38 190.58 -30.86Q190.09 -30.34 189.35 -30.34L183.95 -30.34Q180.25 -30.34 178.18 -28.27Q176.11 -26.20 176.11 -22.50L176.11 -1.78Q176.11 -0.96 175.59 -0.48Q175.07 0.00 174.33 0.00ZM212.66 0.74Q204.60 0.74 199.86 -4.00Q195.13 -8.73 194.76 -17.24Q194.68 -18.06 194.68 -19.31Q194.68 -20.57 194.76 -21.31Q195.05 -26.86 197.27 -30.86Q199.49 -34.85 203.38 -37.04Q207.26 -39.22 212.59 -39.22Q218.51 -39.22 222.47 -36.78Q226.43 -34.34 228.50 -29.93Q230.57 -25.53 230.57 -19.76L230.57 -18.28Q230.57 -17.54 230.05 -17.02Q229.54 -16.50 228.80 -16.50L203.86 -16.50Q203.86 -16.50 203.86 -16.28Q203.86 -16.06 203.86 -15.91Q204.01 -13.25 205.01 -10.91Q206.00 -8.58 207.97 -7.18Q209.93 -5.77 212.59 -5.77Q214.81 -5.77 216.33 -6.44Q217.84 -7.10 218.77 -7.99Q219.69 -8.88 220.06 -9.40Q220.73 -10.21 221.14 -10.40Q221.54 -10.58 222.36 -10.58L227.91 -10.58Q228.65 -10.58 229.13 -10.17Q229.61 -9.77 229.54 -9.10Q229.46 -7.92 228.32 -6.25Q227.17 -4.59 225.06 -2.96Q222.95 -1.33 219.81 -0.30Q216.66 0.74 212.66 0.74ZM203.86 -22.42L221.40 -22.42L221.40 -22.64Q221.40 -25.60 220.36 -27.93Q219.32 -30.27 217.36 -31.56Q215.40 -32.86 212.59 -32.86Q209.85 -32.86 207.89 -31.56Q205.93 -30.27 204.89 -27.93Q203.86 -25.60 203.86 -22.64Z"></path></g>
  </g>
</svg>
