<svg width="170" height="35" viewBox="0 0 170 35" xmlns="http://www.w3.org/2000/svg" role="img" aria-label="Permit Type(s)">
  <style>
    .ink { fill: #172032; }
    .rule { fill: rgb(228,230,235); }
    @media (prefers-color-scheme: dark) {
      .ink { fill: rgb(230,234,242); }
      .rule { fill: rgb(66,77,96); }
    }
  </style>
  <g class="ink">
    <g class="ink" transform="translate(0,6.1) scale(1)"><path fill-rule="evenodd" d="M2.5 3A1.5 1.5 0 0 0 1 4.5v4A1.5 1.5 0 0 0 2.5 10h6A1.5 1.5 0 0 0 10 8.5v-4A1.5 1.5 0 0 0 8.5 3h-6Zm11 2A1.5 1.5 0 0 0 12 6.5v7a1.5 1.5 0 0 0 1.5 1.5h4a1.5 1.5 0 0 0 1.5-1.5v-7A1.5 1.5 0 0 0 17.5 5h-4Zm-10 7A1.5 1.5 0 0 0 2 13.5v2A1.5 1.5 0 0 0 3.5 17h6a1.5 1.5 0 0 0 1.5-1.5v-2A1.5 1.5 0 0 0 9.5 12h-6Z" clip-rule="evenodd"></path></g>
    <path d="M31.79 18.86L31.79 16.44L35.42 16.44Q36.75 16.44 37.5 15.76Q38.24 15.08 38.24 13.81L38.24 13.79Q38.24 12.53 37.5 11.86Q36.75 11.18 35.42 11.18L31.79 11.18L31.79 8.73L36.18 8.73Q37.74 8.73 38.91 9.36Q40.07 9.99 40.73 11.13Q41.38 12.27 41.38 13.78L41.38 13.8Q41.38 15.33 40.73 16.47Q40.07 17.61 38.91 18.23Q37.74 18.86 36.18 18.86ZM30.23 23.52L30.23 8.73L33.33 8.73L33.33 23.52ZM47.59 23.75Q45.91 23.75 44.7 23.06Q43.49 22.37 42.84 21.08Q42.19 19.8 42.19 18.05L42.19 18.04Q42.19 16.29 42.84 15Q43.49 13.71 44.67 13.01Q45.86 12.31 47.47 12.31Q49.08 12.31 50.25 12.99Q51.43 13.67 52.07 14.91Q52.71 16.15 52.71 17.81L52.71 18.74L43.65 18.74L43.65 16.85L51.29 16.85L49.87 18.61L49.87 17.46Q49.87 16.5 49.57 15.85Q49.27 15.2 48.74 14.87Q48.22 14.54 47.52 14.54Q46.82 14.54 46.28 14.88Q45.74 15.22 45.44 15.87Q45.14 16.52 45.14 17.46L45.14 18.62Q45.14 19.54 45.44 20.18Q45.74 20.83 46.31 21.17Q46.87 21.51 47.65 21.51Q48.27 21.51 48.72 21.32Q49.17 21.13 49.46 20.83Q49.74 20.53 49.85 20.22L49.87 20.16L52.61 20.16L52.58 20.27Q52.46 20.88 52.1 21.49Q51.74 22.11 51.13 22.62Q50.52 23.13 49.65 23.44Q48.77 23.75 47.59 23.75ZM54.25 23.52L54.25 12.53L57.24 12.53L57.24 14.45L57.3 14.45Q57.55 13.43 58.19 12.87Q58.84 12.31 59.8 12.31Q60.05 12.31 60.27 12.34Q60.5 12.37 60.66 12.42L60.66 15.05Q60.48 14.98 60.19 14.94Q59.91 14.89 59.58 14.89Q58.84 14.89 58.32 15.18Q57.79 15.46 57.52 16.02Q57.24 16.57 57.24 17.37L57.24 23.52ZM61.88 23.52L61.88 12.53L64.88 12.53L64.88 14.38L64.94 14.38Q65.28 13.43 66.09 12.87Q66.91 12.31 68.02 12.31Q68.79 12.31 69.4 12.57Q70.02 12.84 70.44 13.34Q70.87 13.84 71.04 14.57L71.1 14.57Q71.35 13.88 71.85 13.37Q72.34 12.86 73.03 12.58Q73.71 12.31 74.52 12.31Q75.59 12.31 76.4 12.77Q77.21 13.23 77.67 14.06Q78.12 14.89 78.12 16.01L78.12 23.52L75.12 23.52L75.12 16.76Q75.12 16.12 74.91 15.68Q74.7 15.24 74.31 15.01Q73.91 14.79 73.33 14.79Q72.76 14.79 72.34 15.04Q71.91 15.3 71.68 15.76Q71.44 16.22 71.44 16.84L71.44 23.52L68.56 23.52L68.56 16.66Q68.56 16.07 68.34 15.65Q68.13 15.23 67.73 15.01Q67.34 14.79 66.79 14.79Q66.22 14.79 65.79 15.05Q65.36 15.32 65.12 15.79Q64.88 16.26 64.88 16.89L64.88 23.52ZM80.07 23.52L80.07 12.53L83.07 12.53L83.07 23.52ZM81.57 11.12Q80.9 11.12 80.43 10.66Q79.97 10.19 79.97 9.56Q79.97 8.91 80.43 8.46Q80.9 8 81.57 8Q82.25 8 82.71 8.46Q83.17 8.91 83.17 9.56Q83.17 10.19 82.71 10.66Q82.25 11.12 81.57 11.12ZM89.44 23.75Q87.61 23.75 86.73 22.98Q85.85 22.21 85.85 20.45L85.85 14.79L84.32 14.79L84.32 12.53L85.85 12.53L85.85 9.85L88.87 9.85L88.87 12.53L90.88 12.53L90.88 14.79L88.87 14.79L88.87 20.12Q88.87 20.89 89.22 21.19Q89.56 21.49 90.24 21.49Q90.44 21.49 90.6 21.48Q90.75 21.46 90.88 21.44L90.88 23.64Q90.64 23.68 90.27 23.71Q89.91 23.75 89.44 23.75ZM100.48 23.52L100.48 11.28L96.2 11.28L96.2 8.73L107.86 8.73L107.86 11.28L103.58 11.28L103.58 23.52ZM109.81 27.14Q109.37 27.14 108.96 27.1Q108.55 27.06 108.28 27.01L108.28 24.79Q108.45 24.82 108.7 24.85Q108.96 24.89 109.29 24.89Q109.96 24.89 110.35 24.66Q110.74 24.44 110.94 23.88L111.07 23.52L107.19 12.53L110.48 12.53L112.96 21.72L112.56 21.13L113.12 21.13L112.72 21.72L115.2 12.53L118.36 12.53L114.59 23.72Q114.16 25.01 113.51 25.76Q112.86 26.51 111.94 26.83Q111.03 27.14 109.81 27.14ZM119.41 27.11L119.41 12.53L122.4 12.53L122.4 14.45L122.47 14.45Q122.77 13.78 123.26 13.3Q123.75 12.82 124.4 12.56Q125.05 12.31 125.83 12.31Q127.22 12.31 128.23 12.99Q129.23 13.67 129.78 14.95Q130.32 16.23 130.32 18.02L130.32 18.03Q130.32 19.81 129.78 21.09Q129.24 22.38 128.25 23.06Q127.25 23.75 125.87 23.75Q125.09 23.75 124.42 23.49Q123.76 23.24 123.26 22.77Q122.77 22.3 122.46 21.65L122.4 21.65L122.4 27.11ZM124.84 21.27Q125.59 21.27 126.14 20.87Q126.68 20.48 126.98 19.75Q127.27 19.02 127.27 18.03L127.27 18.02Q127.27 17.01 126.98 16.29Q126.68 15.56 126.13 15.17Q125.58 14.79 124.84 14.79Q124.12 14.79 123.56 15.18Q123.01 15.58 122.7 16.3Q122.39 17.02 122.39 18.03L122.39 18.04Q122.39 19.02 122.71 19.75Q123.02 20.48 123.57 20.87Q124.12 21.27 124.84 21.27ZM136.87 23.75Q135.19 23.75 133.98 23.06Q132.77 22.37 132.12 21.08Q131.47 19.8 131.47 18.05L131.47 18.04Q131.47 16.29 132.12 15Q132.77 13.71 133.95 13.01Q135.14 12.31 136.75 12.31Q138.36 12.31 139.53 12.99Q140.71 13.67 141.35 14.91Q141.99 16.15 141.99 17.81L141.99 18.74L132.93 18.74L132.93 16.85L140.57 16.85L139.15 18.61L139.15 17.46Q139.15 16.5 138.85 15.85Q138.55 15.2 138.02 14.87Q137.5 14.54 136.8 14.54Q136.1 14.54 135.56 14.88Q135.03 15.22 134.72 15.87Q134.42 16.52 134.42 17.46L134.42 18.62Q134.42 19.54 134.72 20.18Q135.03 20.83 135.59 21.17Q136.15 21.51 136.93 21.51Q137.55 21.51 138 21.32Q138.45 21.13 138.74 20.83Q139.02 20.53 139.13 20.22L139.15 20.16L141.9 20.16L141.86 20.27Q141.74 20.88 141.38 21.49Q141.02 22.11 140.41 22.62Q139.8 23.13 138.93 23.44Q138.05 23.75 136.87 23.75ZM147.46 27.11Q146.4 25.83 145.73 24.41Q145.06 22.98 144.74 21.37Q144.42 19.75 144.42 17.93Q144.42 16.07 144.74 14.45Q145.06 12.84 145.74 11.41Q146.41 9.99 147.46 8.73L150.21 8.73Q149.64 9.39 149.15 10.41Q148.65 11.44 148.28 12.68Q147.91 13.92 147.71 15.26Q147.5 16.6 147.5 17.92Q147.5 19.22 147.71 20.56Q147.91 21.9 148.28 23.15Q148.65 24.39 149.15 25.41Q149.64 26.44 150.21 27.11ZM156.07 23.75Q154.55 23.75 153.48 23.31Q152.42 22.87 151.82 22.08Q151.22 21.3 151.09 20.26L151.08 20.17L154.01 20.17L154.03 20.26Q154.17 20.91 154.67 21.27Q155.17 21.63 156.07 21.63Q156.64 21.63 157.04 21.49Q157.44 21.35 157.66 21.09Q157.88 20.84 157.88 20.48L157.88 20.47Q157.88 20.03 157.56 19.76Q157.25 19.49 156.44 19.31L154.57 18.92Q153.5 18.69 152.79 18.27Q152.08 17.84 151.72 17.21Q151.36 16.58 151.36 15.76L151.36 15.75Q151.36 14.7 151.92 13.93Q152.49 13.16 153.53 12.73Q154.57 12.31 155.96 12.31Q157.42 12.31 158.44 12.77Q159.46 13.24 160.01 14.03Q160.56 14.82 160.59 15.78L160.59 15.89L157.83 15.89L157.82 15.8Q157.75 15.21 157.27 14.81Q156.79 14.42 155.96 14.42Q155.45 14.42 155.07 14.56Q154.69 14.71 154.49 14.97Q154.28 15.23 154.28 15.59L154.28 15.6Q154.28 15.88 154.42 16.1Q154.56 16.32 154.89 16.48Q155.22 16.64 155.77 16.77L157.64 17.17Q158.78 17.4 159.5 17.8Q160.21 18.2 160.54 18.78Q160.88 19.36 160.88 20.17L160.88 20.18Q160.88 21.26 160.26 22.06Q159.65 22.86 158.56 23.3Q157.48 23.75 156.07 23.75ZM164.5 27.11L161.74 27.11Q162.31 26.44 162.8 25.41Q163.3 24.39 163.66 23.14Q164.03 21.89 164.24 20.56Q164.44 19.22 164.44 17.92Q164.44 16.6 164.24 15.26Q164.03 13.92 163.66 12.68Q163.3 11.44 162.8 10.41Q162.31 9.39 161.74 8.73L164.5 8.73Q165.55 9.99 166.22 11.41Q166.89 12.84 167.21 14.45Q167.53 16.07 167.53 17.93Q167.53 19.75 167.21 21.37Q166.89 22.98 166.22 24.41Q165.55 25.83 164.5 27.11Z"></path>
  </g>
  <rect class="rule" x="0" y="34" width="170" height="1"></rect>
</svg>
