<svg width="220" height="24" viewBox="0 0 220 24" xmlns="http://www.w3.org/2000/svg" role="img" aria-label="Unanswered Details">
  <style>
    .ink { fill: #172032; }
    @media (prefers-color-scheme: dark) {
      .ink { fill: rgb(230,234,242); }
    }
  </style>
  <g class="ink">
    <g class="ink" transform="translate(0,5.8) scale(1)"><path fill-rule="evenodd" d="M2 4.75A.75.75 0 0 1 2.75 4h14.5a.75.75 0 0 1 0 1.5H2.75A.75.75 0 0 1 2 4.75Zm0 10.5a.75.75 0 0 1 .75-.75h7.5a.75.75 0 0 1 0 1.5h-7.5a.75.75 0 0 1-.75-.75ZM2 10a.75.75 0 0 1 .75-.75h14.5a.75.75 0 0 1 0 1.5H2.75A.75.75 0 0 1 2 10Z" clip-rule="evenodd"></path></g>
    <path d="M36.33 23.39L36.33 23.39Q34.59 23.39 33.23 22.63Q31.88 21.86 31.1 20.52Q30.32 19.17 30.32 17.47L30.32 17.47L30.32 8.42L33.18 8.42L33.18 17.56Q33.18 18.54 33.59 19.26Q34 19.97 34.72 20.36Q35.45 20.75 36.33 20.75L36.33 20.75Q37.23 20.75 37.92 20.36Q38.62 19.97 39.03 19.26Q39.44 18.54 39.44 17.58L39.44 17.58L39.44 8.42L42.31 8.42L42.31 17.49Q42.31 19.19 41.54 20.53Q40.76 21.86 39.43 22.63Q38.09 23.39 36.33 23.39M54.41 23.18L51.66 23.18L51.66 17.37Q51.66 16.46 51.09 15.9Q50.53 15.33 49.62 15.33L49.62 15.33Q49.03 15.33 48.57 15.58Q48.11 15.83 47.85 16.29Q47.59 16.76 47.59 17.37L47.59 17.37L46.51 16.82Q46.51 15.62 47.03 14.73Q47.54 13.84 48.46 13.33Q49.37 12.83 50.53 12.83L50.53 12.83Q51.64 12.83 52.52 13.39Q53.4 13.94 53.91 14.84Q54.41 15.73 54.41 16.76L54.41 16.76L54.41 23.18M47.59 23.18L44.83 23.18L44.83 13.04L47.59 13.04L47.59 23.18M60.88 23.39L60.88 23.39Q59.49 23.39 58.38 22.7Q57.27 22.01 56.64 20.81Q56.01 19.61 56.01 18.12L56.01 18.12Q56.01 16.61 56.64 15.41Q57.27 14.22 58.38 13.52Q59.49 12.83 60.88 12.83L60.88 12.83Q61.97 12.83 62.83 13.27Q63.69 13.71 64.21 14.5Q64.72 15.29 64.76 16.27L64.76 16.27L64.76 19.93Q64.72 20.94 64.21 21.71Q63.69 22.49 62.83 22.94Q61.97 23.39 60.88 23.39M61.38 20.85L61.38 20.85Q62.54 20.85 63.25 20.09Q63.97 19.32 63.97 18.1L63.97 18.1Q63.97 17.3 63.64 16.68Q63.31 16.06 62.74 15.72Q62.16 15.37 61.38 15.37L61.38 15.37Q60.63 15.37 60.05 15.72Q59.47 16.06 59.15 16.68Q58.82 17.3 58.82 18.1L58.82 18.1Q58.82 18.92 59.15 19.54Q59.47 20.16 60.05 20.51Q60.63 20.85 61.38 20.85M66.55 23.18L63.82 23.18L63.82 20.45L64.26 17.98L63.82 15.54L63.82 13.04L66.55 13.04L66.55 23.18M78.56 23.18L75.81 23.18L75.81 17.37Q75.81 16.46 75.24 15.9Q74.68 15.33 73.77 15.33L73.77 15.33Q73.18 15.33 72.72 15.58Q72.26 15.83 72 16.29Q71.74 16.76 71.74 17.37L71.74 17.37L70.66 16.82Q70.66 15.62 71.18 14.73Q71.69 13.84 72.61 13.33Q73.52 12.83 74.68 12.83L74.68 12.83Q75.79 12.83 76.67 13.39Q77.55 13.94 78.06 14.84Q78.56 15.73 78.56 16.76L78.56 16.76L78.56 23.18M71.74 23.18L68.98 23.18L68.98 13.04L71.74 13.04L71.74 23.18M84.27 23.41L84.27 23.41Q83.41 23.41 82.58 23.18Q81.75 22.95 81.06 22.54Q80.37 22.13 79.86 21.55L79.86 21.55L81.5 19.89Q82.03 20.47 82.72 20.77Q83.41 21.06 84.25 21.06L84.25 21.06Q84.92 21.06 85.27 20.87Q85.62 20.68 85.62 20.31L85.62 20.31Q85.62 19.89 85.25 19.66Q84.88 19.42 84.29 19.27Q83.71 19.11 83.06 18.91Q82.42 18.71 81.84 18.38Q81.25 18.06 80.88 17.48Q80.51 16.9 80.51 15.98L80.51 15.98Q80.51 15.01 80.99 14.3Q81.46 13.59 82.34 13.19Q83.22 12.79 84.42 12.79L84.42 12.79Q85.68 12.79 86.7 13.23Q87.72 13.67 88.39 14.55L88.39 14.55L86.73 16.21Q86.27 15.64 85.69 15.39Q85.11 15.14 84.44 15.14L84.44 15.14Q83.83 15.14 83.51 15.33Q83.18 15.52 83.18 15.85L83.18 15.85Q83.18 16.23 83.55 16.44Q83.92 16.65 84.5 16.81Q85.09 16.97 85.73 17.17Q86.37 17.37 86.95 17.72Q87.53 18.08 87.89 18.67Q88.26 19.26 88.26 20.18L88.26 20.18Q88.26 21.67 87.19 22.54Q86.12 23.41 84.27 23.41M94.79 23.18L92.82 23.18L89.02 13.04L91.79 13.04L94.27 20.41L93.43 20.43L95.97 13.04L97.96 13.04L100.51 20.43L99.67 20.41L102.14 13.04L104.92 13.04L101.14 23.18L99.14 23.18L96.58 16.17L97.36 16.17L94.79 23.18M110.88 23.39L110.88 23.39Q109.28 23.39 108.04 22.71Q106.81 22.03 106.08 20.83Q105.36 19.63 105.36 18.1L105.36 18.1Q105.36 16.59 106.06 15.4Q106.76 14.22 107.98 13.51Q109.2 12.81 110.69 12.81L110.69 12.81Q112.16 12.81 113.28 13.47Q114.41 14.13 115.05 15.28Q115.69 16.42 115.69 17.87L115.69 17.87Q115.69 18.14 115.66 18.43Q115.63 18.71 115.54 19.07L115.54 19.07L107.02 19.09L107.02 17.03L114.26 17.01L113.15 17.87Q113.11 16.97 112.82 16.36Q112.54 15.75 112 15.42Q111.47 15.1 110.69 15.1L110.69 15.1Q109.87 15.1 109.26 15.47Q108.65 15.83 108.33 16.49Q108 17.16 108 18.06L108 18.06Q108 18.98 108.35 19.67Q108.7 20.35 109.35 20.72Q110 21.08 110.86 21.08L110.86 21.08Q111.64 21.08 112.27 20.82Q112.9 20.56 113.36 20.03L113.36 20.03L114.97 21.65Q114.24 22.51 113.18 22.95Q112.12 23.39 110.88 23.39M120.14 23.18L117.39 23.18L117.39 13.04L120.14 13.04L120.14 23.18M120.14 17.58L120.14 17.58L119.07 16.86Q119.26 14.99 120.16 13.91Q121.06 12.83 122.77 12.83L122.77 12.83Q123.5 12.83 124.09 13.07Q124.68 13.31 125.16 13.86L125.16 13.86L123.44 15.83Q123.21 15.58 122.88 15.45Q122.56 15.33 122.14 15.33L122.14 15.33Q121.25 15.33 120.7 15.89Q120.14 16.44 120.14 17.58M130.7 23.39L130.7 23.39Q129.11 23.39 127.87 22.71Q126.63 22.03 125.9 20.83Q125.18 19.63 125.18 18.1L125.18 18.1Q125.18 16.59 125.88 15.4Q126.59 14.22 127.81 13.51Q129.02 12.81 130.51 12.81L130.51 12.81Q131.98 12.81 133.11 13.47Q134.23 14.13 134.87 15.28Q135.51 16.42 135.51 17.87L135.51 17.87Q135.51 18.14 135.48 18.43Q135.45 18.71 135.37 19.07L135.37 19.07L126.84 19.09L126.84 17.03L134.08 17.01L132.97 17.87Q132.93 16.97 132.65 16.36Q132.36 15.75 131.83 15.42Q131.29 15.1 130.51 15.1L130.51 15.1Q129.7 15.1 129.09 15.47Q128.48 15.83 128.15 16.49Q127.83 17.16 127.83 18.06L127.83 18.06Q127.83 18.98 128.17 19.67Q128.52 20.35 129.17 20.72Q129.82 21.08 130.68 21.08L130.68 21.08Q131.46 21.08 132.09 20.82Q132.72 20.56 133.18 20.03L133.18 20.03L134.8 21.65Q134.06 22.51 133 22.95Q131.94 23.39 130.7 23.39M141.5 23.39L141.5 23.39Q140.09 23.39 138.98 22.7Q137.86 22.01 137.22 20.81Q136.58 19.61 136.58 18.12L136.58 18.12Q136.58 16.61 137.22 15.41Q137.86 14.22 138.97 13.52Q140.07 12.83 141.5 12.83L141.5 12.83Q142.59 12.83 143.46 13.27Q144.33 13.71 144.87 14.5Q145.4 15.29 145.45 16.27L145.45 16.27L145.45 19.89Q145.4 20.87 144.88 21.67Q144.35 22.47 143.47 22.93Q142.59 23.39 141.5 23.39M141.96 20.85L141.96 20.85Q142.74 20.85 143.31 20.51Q143.89 20.16 144.22 19.54Q144.54 18.92 144.54 18.1L144.54 18.1Q144.54 17.3 144.22 16.68Q143.89 16.06 143.31 15.72Q142.74 15.37 141.98 15.37L141.98 15.37Q141.2 15.37 140.63 15.73Q140.05 16.09 139.72 16.69Q139.4 17.3 139.4 18.1L139.4 18.1Q139.4 18.92 139.72 19.54Q140.05 20.16 140.64 20.51Q141.22 20.85 141.96 20.85M147.13 8L147.13 23.18L144.4 23.18L144.4 20.45L144.84 17.98L144.37 15.54L144.37 8L147.13 8M159.75 23.18L155.9 23.18L155.9 20.64L159.66 20.64Q161.09 20.64 162.16 20.04Q163.23 19.45 163.83 18.35Q164.43 17.26 164.43 15.77L164.43 15.77Q164.43 14.32 163.82 13.24Q163.21 12.16 162.14 11.56Q161.07 10.96 159.66 10.96L159.66 10.96L155.84 10.96L155.84 8.42L159.7 8.42Q161.34 8.42 162.74 8.97Q164.14 9.51 165.17 10.51Q166.21 11.51 166.79 12.85Q167.37 14.19 167.37 15.79L167.37 15.79Q167.37 17.39 166.79 18.74Q166.21 20.1 165.19 21.09Q164.16 22.09 162.76 22.64Q161.36 23.18 159.75 23.18L159.75 23.18M156.81 23.18L153.95 23.18L153.95 8.42L156.81 8.42L156.81 23.18M174.19 23.39L174.19 23.39Q172.6 23.39 171.36 22.71Q170.12 22.03 169.4 20.83Q168.67 19.63 168.67 18.1L168.67 18.1Q168.67 16.59 169.37 15.4Q170.08 14.22 171.3 13.51Q172.51 12.81 174.01 12.81L174.01 12.81Q175.48 12.81 176.6 13.47Q177.72 14.13 178.36 15.28Q179 16.42 179 17.87L179 17.87Q179 18.14 178.97 18.43Q178.94 18.71 178.86 19.07L178.86 19.07L170.33 19.09L170.33 17.03L177.58 17.01L176.46 17.87Q176.42 16.97 176.14 16.36Q175.85 15.75 175.32 15.42Q174.78 15.1 174.01 15.1L174.01 15.1Q173.19 15.1 172.58 15.47Q171.97 15.83 171.64 16.49Q171.32 17.16 171.32 18.06L171.32 18.06Q171.32 18.98 171.66 19.67Q172.01 20.35 172.66 20.72Q173.31 21.08 174.17 21.08L174.17 21.08Q174.95 21.08 175.58 20.82Q176.21 20.56 176.67 20.03L176.67 20.03L178.29 21.65Q177.55 22.51 176.49 22.95Q175.43 23.39 174.19 23.39M184.72 23.18L181.96 23.18L181.96 8.82L184.72 8.82L184.72 23.18M187.09 15.45L179.59 15.45L179.59 13.04L187.09 13.04L187.09 15.45M192.63 23.39L192.63 23.39Q191.25 23.39 190.13 22.7Q189.02 22.01 188.39 20.81Q187.76 19.61 187.76 18.12L187.76 18.12Q187.76 16.61 188.39 15.41Q189.02 14.22 190.13 13.52Q191.25 12.83 192.63 12.83L192.63 12.83Q193.72 12.83 194.59 13.27Q195.45 13.71 195.96 14.5Q196.48 15.29 196.52 16.27L196.52 16.27L196.52 19.93Q196.48 20.94 195.96 21.71Q195.45 22.49 194.59 22.94Q193.72 23.39 192.63 23.39M193.14 20.85L193.14 20.85Q194.29 20.85 195.01 20.09Q195.72 19.32 195.72 18.1L195.72 18.1Q195.72 17.3 195.39 16.68Q195.07 16.06 194.49 15.72Q193.91 15.37 193.14 15.37L193.14 15.37Q192.38 15.37 191.8 15.72Q191.23 16.06 190.9 16.68Q190.57 17.3 190.57 18.1L190.57 18.1Q190.57 18.92 190.9 19.54Q191.23 20.16 191.8 20.51Q192.38 20.85 193.14 20.85M198.3 23.18L195.57 23.18L195.57 20.45L196.01 17.98L195.57 15.54L195.57 13.04L198.3 13.04L198.3 23.18M203.51 23.18L200.74 23.18L200.74 13.04L203.51 13.04L203.51 23.18M202.12 11.4L202.12 11.4Q201.45 11.4 201.01 10.95Q200.57 10.5 200.57 9.83L200.57 9.83Q200.57 9.18 201.01 8.71Q201.45 8.25 202.12 8.25L202.12 8.25Q202.82 8.25 203.25 8.71Q203.68 9.18 203.68 9.83L203.68 9.83Q203.68 10.5 203.25 10.95Q202.82 11.4 202.12 11.4M208.7 23.18L205.95 23.18L205.95 8L208.7 8L208.7 23.18M214.62 23.41L214.62 23.41Q213.76 23.41 212.93 23.18Q212.1 22.95 211.41 22.54Q210.71 22.13 210.21 21.55L210.21 21.55L211.85 19.89Q212.37 20.47 213.07 20.77Q213.76 21.06 214.6 21.06L214.6 21.06Q215.27 21.06 215.62 20.87Q215.96 20.68 215.96 20.31L215.96 20.31Q215.96 19.89 215.6 19.66Q215.23 19.42 214.64 19.27Q214.05 19.11 213.41 18.91Q212.77 18.71 212.18 18.38Q211.6 18.06 211.23 17.48Q210.86 16.9 210.86 15.98L210.86 15.98Q210.86 15.01 211.33 14.3Q211.81 13.59 212.69 13.19Q213.57 12.79 214.77 12.79L214.77 12.79Q216.03 12.79 217.04 13.23Q218.06 13.67 218.74 14.55L218.74 14.55L217.08 16.21Q216.61 15.64 216.04 15.39Q215.46 15.14 214.79 15.14L214.79 15.14Q214.18 15.14 213.85 15.33Q213.53 15.52 213.53 15.85L213.53 15.85Q213.53 16.23 213.89 16.44Q214.26 16.65 214.85 16.81Q215.44 16.97 216.08 17.17Q216.72 17.37 217.3 17.72Q217.87 18.08 218.24 18.67Q218.61 19.26 218.61 20.18L218.61 20.18Q218.61 21.67 217.54 22.54Q216.47 23.41 214.62 23.41"></path>
  </g>
</svg>
