<svg width="222" height="18" viewBox="0 0 222 18" xmlns="http://www.w3.org/2000/svg" role="img" aria-label="Unanswered Details">
  <style>
    .ink { fill: #172032; }
    @media (prefers-color-scheme: dark) {
      .ink { fill: rgb(230,234,242); }
    }
  </style>
  <g class="ink">
    <g class="ink" transform="translate(1,-1.2) scale(1)"><path fill-rule="evenodd" d="M2 4.75A.75.75 0 0 1 2.75 4h14.5a.75.75 0 0 1 0 1.5H2.75A.75.75 0 0 1 2 4.75Zm0 10.5a.75.75 0 0 1 .75-.75h7.5a.75.75 0 0 1 0 1.5h-7.5a.75.75 0 0 1-.75-.75ZM2 10a.75.75 0 0 1 .75-.75h14.5a.75.75 0 0 1 0 1.5H2.75A.75.75 0 0 1 2 10Z" clip-rule="evenodd"></path></g>
    <path d="M37.33 16.39L37.33 16.39Q35.59 16.39 34.23 15.63Q32.88 14.86 32.1 13.52Q31.32 12.17 31.32 10.47L31.32 10.47L31.32 1.42L34.18 1.42L34.18 10.56Q34.18 11.54 34.59 12.26Q35 12.97 35.72 13.36Q36.45 13.75 37.33 13.75L37.33 13.75Q38.23 13.75 38.92 13.36Q39.62 12.97 40.03 12.26Q40.44 11.54 40.44 10.58L40.44 10.58L40.44 1.42L43.31 1.42L43.31 10.49Q43.31 12.19 42.54 13.53Q41.76 14.86 40.43 15.63Q39.09 16.39 37.33 16.39M55.41 16.18L52.66 16.18L52.66 10.37Q52.66 9.46 52.09 8.9Q51.53 8.33 50.62 8.33L50.62 8.33Q50.03 8.33 49.57 8.58Q49.11 8.83 48.85 9.29Q48.59 9.76 48.59 10.37L48.59 10.37L47.51 9.82Q47.51 8.62 48.03 7.73Q48.54 6.84 49.46 6.33Q50.37 5.83 51.53 5.83L51.53 5.83Q52.64 5.83 53.52 6.39Q54.4 6.94 54.91 7.84Q55.41 8.73 55.41 9.76L55.41 9.76L55.41 16.18M48.59 16.18L45.83 16.18L45.83 6.04L48.59 6.04L48.59 16.18M61.88 16.39L61.88 16.39Q60.49 16.39 59.38 15.7Q58.27 15.01 57.64 13.81Q57.01 12.61 57.01 11.12L57.01 11.12Q57.01 9.61 57.64 8.41Q58.27 7.22 59.38 6.52Q60.49 5.83 61.88 5.83L61.88 5.83Q62.97 5.83 63.83 6.27Q64.69 6.71 65.21 7.5Q65.72 8.29 65.76 9.27L65.76 9.27L65.76 12.93Q65.72 13.94 65.21 14.71Q64.69 15.49 63.83 15.94Q62.97 16.39 61.88 16.39M62.38 13.85L62.38 13.85Q63.54 13.85 64.25 13.09Q64.97 12.32 64.97 11.1L64.97 11.1Q64.97 10.3 64.64 9.68Q64.31 9.06 63.74 8.72Q63.16 8.37 62.38 8.37L62.38 8.37Q61.63 8.37 61.05 8.72Q60.47 9.06 60.15 9.68Q59.82 10.3 59.82 11.1L59.82 11.1Q59.82 11.92 60.15 12.54Q60.47 13.16 61.05 13.51Q61.63 13.85 62.38 13.85M67.55 16.18L64.82 16.18L64.82 13.45L65.26 10.98L64.82 8.54L64.82 6.04L67.55 6.04L67.55 16.18M79.56 16.18L76.81 16.18L76.81 10.37Q76.81 9.46 76.24 8.9Q75.68 8.33 74.77 8.33L74.77 8.33Q74.18 8.33 73.72 8.58Q73.26 8.83 73 9.29Q72.74 9.76 72.74 10.37L72.74 10.37L71.66 9.82Q71.66 8.62 72.18 7.73Q72.69 6.84 73.61 6.33Q74.52 5.83 75.68 5.83L75.68 5.83Q76.79 5.83 77.67 6.39Q78.55 6.94 79.06 7.84Q79.56 8.73 79.56 9.76L79.56 9.76L79.56 16.18M72.74 16.18L69.98 16.18L69.98 6.04L72.74 6.04L72.74 16.18M85.27 16.41L85.27 16.41Q84.41 16.41 83.58 16.18Q82.75 15.95 82.06 15.54Q81.37 15.13 80.86 14.55L80.86 14.55L82.5 12.89Q83.03 13.47 83.72 13.77Q84.41 14.06 85.25 14.06L85.25 14.06Q85.92 14.06 86.27 13.87Q86.62 13.68 86.62 13.31L86.62 13.31Q86.62 12.89 86.25 12.66Q85.88 12.42 85.29 12.27Q84.71 12.11 84.06 11.91Q83.42 11.71 82.84 11.38Q82.25 11.06 81.88 10.48Q81.51 9.9 81.51 8.98L81.51 8.98Q81.51 8.01 81.99 7.3Q82.46 6.59 83.34 6.19Q84.22 5.79 85.42 5.79L85.42 5.79Q86.68 5.79 87.7 6.23Q88.72 6.67 89.39 7.55L89.39 7.55L87.73 9.21Q87.27 8.64 86.69 8.39Q86.11 8.14 85.44 8.14L85.44 8.14Q84.83 8.14 84.51 8.33Q84.18 8.52 84.18 8.85L84.18 8.85Q84.18 9.23 84.55 9.44Q84.92 9.65 85.5 9.81Q86.09 9.97 86.73 10.17Q87.37 10.37 87.95 10.72Q88.53 11.08 88.89 11.67Q89.26 12.26 89.26 13.18L89.26 13.18Q89.26 14.67 88.19 15.54Q87.12 16.41 85.27 16.41M95.79 16.18L93.82 16.18L90.02 6.04L92.79 6.04L95.27 13.41L94.43 13.43L96.97 6.04L98.96 6.04L101.51 13.43L100.67 13.41L103.14 6.04L105.92 6.04L102.14 16.18L100.14 16.18L97.58 9.17L98.36 9.17L95.79 16.18M111.88 16.39L111.88 16.39Q110.28 16.39 109.04 15.71Q107.81 15.03 107.08 13.83Q106.36 12.63 106.36 11.1L106.36 11.1Q106.36 9.59 107.06 8.4Q107.76 7.22 108.98 6.51Q110.2 5.81 111.69 5.81L111.69 5.81Q113.16 5.81 114.28 6.47Q115.41 7.13 116.05 8.28Q116.69 9.42 116.69 10.87L116.69 10.87Q116.69 11.14 116.66 11.43Q116.63 11.71 116.54 12.07L116.54 12.07L108.02 12.09L108.02 10.03L115.26 10.01L114.15 10.87Q114.11 9.97 113.82 9.36Q113.54 8.75 113 8.42Q112.47 8.1 111.69 8.1L111.69 8.1Q110.87 8.1 110.26 8.47Q109.65 8.83 109.33 9.49Q109 10.16 109 11.06L109 11.06Q109 11.98 109.35 12.67Q109.7 13.35 110.35 13.72Q111 14.08 111.86 14.08L111.86 14.08Q112.64 14.08 113.27 13.82Q113.9 13.56 114.36 13.03L114.36 13.03L115.97 14.65Q115.24 15.51 114.18 15.95Q113.12 16.39 111.88 16.39M121.14 16.18L118.39 16.18L118.39 6.04L121.14 6.04L121.14 16.18M121.14 10.58L121.14 10.58L120.07 9.86Q120.26 7.99 121.16 6.91Q122.06 5.83 123.77 5.83L123.77 5.83Q124.5 5.83 125.09 6.07Q125.68 6.31 126.16 6.86L126.16 6.86L124.44 8.83Q124.21 8.58 123.88 8.45Q123.56 8.33 123.14 8.33L123.14 8.33Q122.25 8.33 121.7 8.89Q121.14 9.44 121.14 10.58M131.7 16.39L131.7 16.39Q130.11 16.39 128.87 15.71Q127.63 15.03 126.9 13.83Q126.18 12.63 126.18 11.1L126.18 11.1Q126.18 9.59 126.88 8.4Q127.59 7.22 128.81 6.51Q130.02 5.81 131.51 5.81L131.51 5.81Q132.98 5.81 134.11 6.47Q135.23 7.13 135.87 8.28Q136.51 9.42 136.51 10.87L136.51 10.87Q136.51 11.14 136.48 11.43Q136.45 11.71 136.37 12.07L136.37 12.07L127.84 12.09L127.84 10.03L135.08 10.01L133.97 10.87Q133.93 9.97 133.65 9.36Q133.36 8.75 132.83 8.42Q132.29 8.1 131.51 8.1L131.51 8.1Q130.7 8.1 130.09 8.47Q129.48 8.83 129.15 9.49Q128.83 10.16 128.83 11.06L128.83 11.06Q128.83 11.98 129.17 12.67Q129.52 13.35 130.17 13.72Q130.82 14.08 131.68 14.08L131.68 14.08Q132.46 14.08 133.09 13.82Q133.72 13.56 134.18 13.03L134.18 13.03L135.8 14.65Q135.06 15.51 134 15.95Q132.94 16.39 131.7 16.39M142.5 16.39L142.5 16.39Q141.09 16.39 139.98 15.7Q138.86 15.01 138.22 13.81Q137.58 12.61 137.58 11.12L137.58 11.12Q137.58 9.61 138.22 8.41Q138.86 7.22 139.97 6.52Q141.07 5.83 142.5 5.83L142.5 5.83Q143.59 5.83 144.46 6.27Q145.33 6.71 145.87 7.5Q146.4 8.29 146.45 9.27L146.45 9.27L146.45 12.89Q146.4 13.87 145.88 14.67Q145.35 15.47 144.47 15.93Q143.59 16.39 142.5 16.39M142.96 13.85L142.96 13.85Q143.74 13.85 144.31 13.51Q144.89 13.16 145.22 12.54Q145.54 11.92 145.54 11.1L145.54 11.1Q145.54 10.3 145.22 9.68Q144.89 9.06 144.31 8.72Q143.74 8.37 142.98 8.37L142.98 8.37Q142.2 8.37 141.63 8.73Q141.05 9.08 140.72 9.69Q140.4 10.3 140.4 11.1L140.4 11.1Q140.4 11.92 140.72 12.54Q141.05 13.16 141.64 13.51Q142.22 13.85 142.96 13.85M148.13 1L148.13 16.18L145.4 16.18L145.4 13.45L145.84 10.98L145.37 8.54L145.37 1L148.13 1M160.75 16.18L156.9 16.18L156.9 13.64L160.66 13.64Q162.09 13.64 163.16 13.04Q164.23 12.45 164.83 11.35Q165.43 10.26 165.43 8.77L165.43 8.77Q165.43 7.32 164.82 6.24Q164.21 5.16 163.14 4.56Q162.07 3.96 160.66 3.96L160.66 3.96L156.84 3.96L156.84 1.42L160.7 1.42Q162.34 1.42 163.74 1.97Q165.14 2.51 166.17 3.51Q167.21 4.51 167.79 5.85Q168.37 7.19 168.37 8.79L168.37 8.79Q168.37 10.39 167.79 11.74Q167.21 13.1 166.19 14.09Q165.16 15.09 163.76 15.64Q162.36 16.18 160.75 16.18L160.75 16.18M157.81 16.18L154.95 16.18L154.95 1.42L157.81 1.42L157.81 16.18M175.19 16.39L175.19 16.39Q173.6 16.39 172.36 15.71Q171.12 15.03 170.4 13.83Q169.67 12.63 169.67 11.1L169.67 11.1Q169.67 9.59 170.37 8.4Q171.08 7.22 172.3 6.51Q173.51 5.81 175.01 5.81L175.01 5.81Q176.48 5.81 177.6 6.47Q178.72 7.13 179.36 8.28Q180 9.42 180 10.87L180 10.87Q180 11.14 179.97 11.43Q179.94 11.71 179.86 12.07L179.86 12.07L171.33 12.09L171.33 10.03L178.58 10.01L177.46 10.87Q177.42 9.97 177.14 9.36Q176.85 8.75 176.32 8.42Q175.78 8.1 175.01 8.1L175.01 8.1Q174.19 8.1 173.58 8.47Q172.97 8.83 172.64 9.49Q172.32 10.16 172.32 11.06L172.32 11.06Q172.32 11.98 172.66 12.67Q173.01 13.35 173.66 13.72Q174.31 14.08 175.17 14.08L175.17 14.08Q175.95 14.08 176.58 13.82Q177.21 13.56 177.67 13.03L177.67 13.03L179.29 14.65Q178.55 15.51 177.49 15.95Q176.43 16.39 175.19 16.39M185.72 16.18L182.96 16.18L182.96 1.82L185.72 1.82L185.72 16.18M188.09 8.45L180.59 8.45L180.59 6.04L188.09 6.04L188.09 8.45M193.63 16.39L193.63 16.39Q192.25 16.39 191.13 15.7Q190.02 15.01 189.39 13.81Q188.76 12.61 188.76 11.12L188.76 11.12Q188.76 9.61 189.39 8.41Q190.02 7.22 191.13 6.52Q192.25 5.83 193.63 5.83L193.63 5.83Q194.72 5.83 195.59 6.27Q196.45 6.71 196.96 7.5Q197.48 8.29 197.52 9.27L197.52 9.27L197.52 12.93Q197.48 13.94 196.96 14.71Q196.45 15.49 195.59 15.94Q194.72 16.39 193.63 16.39M194.14 13.85L194.14 13.85Q195.29 13.85 196.01 13.09Q196.72 12.32 196.72 11.1L196.72 11.1Q196.72 10.3 196.39 9.68Q196.07 9.06 195.49 8.72Q194.91 8.37 194.14 8.37L194.14 8.37Q193.38 8.37 192.8 8.72Q192.23 9.06 191.9 9.68Q191.57 10.3 191.57 11.1L191.57 11.1Q191.57 11.92 191.9 12.54Q192.23 13.16 192.8 13.51Q193.38 13.85 194.14 13.85M199.3 16.18L196.57 16.18L196.57 13.45L197.01 10.98L196.57 8.54L196.57 6.04L199.3 6.04L199.3 16.18M204.51 16.18L201.74 16.18L201.74 6.04L204.51 6.04L204.51 16.18M203.12 4.4L203.12 4.4Q202.45 4.4 202.01 3.95Q201.57 3.5 201.57 2.83L201.57 2.83Q201.57 2.18 202.01 1.71Q202.45 1.25 203.12 1.25L203.12 1.25Q203.82 1.25 204.25 1.71Q204.68 2.18 204.68 2.83L204.68 2.83Q204.68 3.5 204.25 3.95Q203.82 4.4 203.12 4.4M209.7 16.18L206.95 16.18L206.95 1L209.7 1L209.7 16.18M215.62 16.41L215.62 16.41Q214.76 16.41 213.93 16.18Q213.1 15.95 212.41 15.54Q211.71 15.13 211.21 14.55L211.21 14.55L212.85 12.89Q213.37 13.47 214.07 13.77Q214.76 14.06 215.6 14.06L215.6 14.06Q216.27 14.06 216.62 13.87Q216.96 13.68 216.96 13.31L216.96 13.31Q216.96 12.89 216.6 12.66Q216.23 12.42 215.64 12.27Q215.05 12.11 214.41 11.91Q213.77 11.71 213.18 11.38Q212.6 11.06 212.23 10.48Q211.86 9.9 211.86 8.98L211.86 8.98Q211.86 8.01 212.33 7.3Q212.81 6.59 213.69 6.19Q214.57 5.79 215.77 5.79L215.77 5.79Q217.03 5.79 218.04 6.23Q219.06 6.67 219.74 7.55L219.74 7.55L218.08 9.21Q217.61 8.64 217.04 8.39Q216.46 8.14 215.79 8.14L215.79 8.14Q215.18 8.14 214.85 8.33Q214.53 8.52 214.53 8.85L214.53 8.85Q214.53 9.23 214.89 9.44Q215.26 9.65 215.85 9.81Q216.44 9.97 217.08 10.17Q217.72 10.37 218.3 10.72Q218.87 11.08 219.24 11.67Q219.61 12.26 219.61 13.18L219.61 13.18Q219.61 14.67 218.54 15.54Q217.47 16.41 215.62 16.41"></path>
  </g>
</svg>
