<svg width="221" height="31" viewBox="0 0 221 31" xmlns="http://www.w3.org/2000/svg" role="img" aria-label="Unanswered Details">
  <style>
    .ink { fill: #172032; }
    .rule { fill: rgb(228,230,235); }
    @media (prefers-color-scheme: dark) {
      .ink { fill: rgb(230,234,242); }
      .rule { fill: rgb(66,77,96); }
    }
  </style>
  <g class="ink">
    <g class="ink" transform="translate(0,6.1) scale(1)"><path fill-rule="evenodd" d="M2 4.75A.75.75 0 0 1 2.75 4h14.5a.75.75 0 0 1 0 1.5H2.75A.75.75 0 0 1 2 4.75Zm0 10.5a.75.75 0 0 1 .75-.75h7.5a.75.75 0 0 1 0 1.5h-7.5a.75.75 0 0 1-.75-.75ZM2 10a.75.75 0 0 1 .75-.75h14.5a.75.75 0 0 1 0 1.5H2.75A.75.75 0 0 1 2 10Z" clip-rule="evenodd"></path></g>
    <path d="M36.43 23.78Q34.54 23.78 33.15 23.09Q31.76 22.41 30.99 21.17Q30.23 19.94 30.23 18.29L30.23 8.73L33.33 8.73L33.33 18.02Q33.33 18.97 33.69 19.67Q34.06 20.38 34.75 20.77Q35.44 21.16 36.43 21.16Q37.43 21.16 38.12 20.77Q38.81 20.38 39.17 19.67Q39.53 18.97 39.53 18.02L39.53 8.73L42.63 8.73L42.63 18.29Q42.63 19.94 41.87 21.17Q41.12 22.41 39.73 23.09Q38.34 23.78 36.43 23.78ZM44.83 23.52L44.83 12.53L47.83 12.53L47.83 14.34L47.89 14.34Q48.32 13.39 49.16 12.85Q50 12.31 51.24 12.31Q53.06 12.31 54.05 13.4Q55.03 14.49 55.03 16.43L55.03 23.52L52.04 23.52L52.04 17.04Q52.04 15.97 51.53 15.38Q51.03 14.79 50.02 14.79Q49.35 14.79 48.86 15.09Q48.37 15.39 48.1 15.94Q47.83 16.48 47.83 17.21L47.83 23.52ZM60.2 23.7Q59.11 23.7 58.27 23.27Q57.44 22.85 56.98 22.09Q56.51 21.34 56.51 20.38L56.51 20.36Q56.51 19.35 57.01 18.64Q57.52 17.93 58.47 17.52Q59.42 17.11 60.79 17.01L65.07 16.75L65.07 18.61L61.24 18.86Q60.38 18.91 59.93 19.26Q59.47 19.62 59.47 20.2L59.47 20.22Q59.47 20.83 59.94 21.17Q60.4 21.51 61.18 21.51Q61.84 21.51 62.37 21.25Q62.9 20.99 63.2 20.54Q63.5 20.08 63.5 19.5L63.5 16.17Q63.5 15.44 63.04 15.02Q62.58 14.59 61.7 14.59Q60.86 14.59 60.37 14.94Q59.87 15.29 59.76 15.82L59.74 15.92L57 15.92L57.01 15.79Q57.1 14.78 57.69 13.99Q58.27 13.2 59.33 12.75Q60.38 12.31 61.82 12.31Q63.25 12.31 64.29 12.76Q65.34 13.22 65.92 14.05Q66.5 14.88 66.5 15.99L66.5 23.52L63.5 23.52L63.5 21.88L63.44 21.88Q63.14 22.45 62.65 22.85Q62.16 23.26 61.55 23.48Q60.93 23.7 60.2 23.7ZM68.43 23.52L68.43 12.53L71.42 12.53L71.42 14.34L71.48 14.34Q71.91 13.39 72.75 12.85Q73.59 12.31 74.83 12.31Q76.65 12.31 77.64 13.4Q78.63 14.49 78.63 16.43L78.63 23.52L75.63 23.52L75.63 17.04Q75.63 15.97 75.13 15.38Q74.62 14.79 73.61 14.79Q72.95 14.79 72.46 15.09Q71.96 15.39 71.69 15.94Q71.42 16.48 71.42 17.21L71.42 23.52ZM85.05 23.75Q83.53 23.75 82.46 23.31Q81.4 22.87 80.8 22.08Q80.2 21.3 80.07 20.26L80.06 20.17L82.99 20.17L83.01 20.26Q83.15 20.91 83.65 21.27Q84.16 21.63 85.05 21.63Q85.62 21.63 86.02 21.49Q86.42 21.35 86.64 21.09Q86.86 20.84 86.86 20.48L86.86 20.47Q86.86 20.03 86.54 19.76Q86.23 19.49 85.42 19.31L83.55 18.92Q82.48 18.69 81.77 18.27Q81.06 17.84 80.7 17.21Q80.34 16.58 80.34 15.76L80.34 15.75Q80.34 14.7 80.91 13.93Q81.47 13.16 82.51 12.73Q83.55 12.31 84.95 12.31Q86.4 12.31 87.42 12.77Q88.44 13.24 88.99 14.03Q89.54 14.82 89.57 15.78L89.57 15.89L86.81 15.89L86.8 15.8Q86.73 15.21 86.25 14.81Q85.78 14.42 84.95 14.42Q84.43 14.42 84.05 14.56Q83.67 14.71 83.47 14.97Q83.26 15.23 83.26 15.59L83.26 15.6Q83.26 15.88 83.4 16.1Q83.54 16.32 83.87 16.48Q84.2 16.64 84.75 16.77L86.62 17.17Q87.77 17.4 88.48 17.8Q89.19 18.2 89.52 18.78Q89.86 19.36 89.86 20.17L89.86 20.18Q89.86 21.26 89.24 22.06Q88.63 22.86 87.54 23.3Q86.46 23.75 85.05 23.75ZM93.43 23.52L90.5 12.53L93.52 12.53L95.18 20.68L95.24 20.68L97.19 12.53L100.06 12.53L102.02 20.68L102.08 20.68L103.75 12.53L106.7 12.53L103.79 23.52L100.6 23.52L98.61 15.75L98.55 15.75L96.57 23.52ZM112.72 23.75Q111.04 23.75 109.83 23.06Q108.62 22.37 107.97 21.08Q107.32 19.8 107.32 18.05L107.32 18.04Q107.32 16.29 107.97 15Q108.62 13.71 109.81 13.01Q110.99 12.31 112.6 12.31Q114.21 12.31 115.38 12.99Q116.56 13.67 117.2 14.91Q117.84 16.15 117.84 17.81L117.84 18.74L108.79 18.74L108.79 16.85L116.42 16.85L115 18.61L115 17.46Q115 16.5 114.7 15.85Q114.4 15.2 113.88 14.87Q113.35 14.54 112.65 14.54Q111.95 14.54 111.42 14.88Q110.88 15.22 110.57 15.87Q110.27 16.52 110.27 17.46L110.27 18.62Q110.27 19.54 110.57 20.18Q110.88 20.83 111.44 21.17Q112.01 21.51 112.78 21.51Q113.4 21.51 113.85 21.32Q114.3 21.13 114.59 20.83Q114.88 20.53 114.98 20.22L115 20.16L117.75 20.16L117.72 20.27Q117.59 20.88 117.23 21.49Q116.88 22.11 116.27 22.62Q115.66 23.13 114.78 23.44Q113.9 23.75 112.72 23.75ZM119.38 23.52L119.38 12.53L122.37 12.53L122.37 14.45L122.43 14.45Q122.68 13.43 123.33 12.87Q123.97 12.31 124.94 12.31Q125.18 12.31 125.41 12.34Q125.63 12.37 125.8 12.42L125.8 15.05Q125.61 14.98 125.33 14.94Q125.04 14.89 124.71 14.89Q123.97 14.89 123.45 15.18Q122.93 15.46 122.65 16.02Q122.37 16.57 122.37 17.37L122.37 23.52ZM131.66 23.75Q129.98 23.75 128.77 23.06Q127.56 22.37 126.91 21.08Q126.26 19.8 126.26 18.05L126.26 18.04Q126.26 16.29 126.91 15Q127.56 13.71 128.74 13.01Q129.93 12.31 131.54 12.31Q133.15 12.31 134.32 12.99Q135.5 13.67 136.14 14.91Q136.78 16.15 136.78 17.81L136.78 18.74L127.72 18.74L127.72 16.85L135.36 16.85L133.94 18.61L133.94 17.46Q133.94 16.5 133.64 15.85Q133.34 15.2 132.82 14.87Q132.29 14.54 131.59 14.54Q130.89 14.54 130.35 14.88Q129.82 15.22 129.51 15.87Q129.21 16.52 129.21 17.46L129.21 18.62Q129.21 19.54 129.51 20.18Q129.82 20.83 130.38 21.17Q130.94 21.51 131.72 21.51Q132.34 21.51 132.79 21.32Q133.24 21.13 133.53 20.83Q133.82 20.53 133.92 20.22L133.94 20.16L136.69 20.16L136.66 20.27Q136.53 20.88 136.17 21.49Q135.81 22.11 135.2 22.62Q134.59 23.13 133.72 23.44Q132.84 23.75 131.66 23.75ZM142.39 23.75Q141 23.75 140 23.06Q138.99 22.38 138.46 21.09Q137.92 19.81 137.92 18.03L137.92 18.02Q137.92 16.22 138.46 14.95Q139 13.67 140 12.99Q141 12.31 142.39 12.31Q143.17 12.31 143.82 12.56Q144.48 12.82 144.98 13.3Q145.47 13.77 145.77 14.44L145.83 14.44L145.83 8.73L148.83 8.73L148.83 23.52L145.83 23.52L145.83 21.65L145.77 21.65Q145.48 22.3 144.99 22.77Q144.5 23.24 143.84 23.49Q143.19 23.75 142.39 23.75ZM143.39 21.27Q144.12 21.27 144.67 20.87Q145.23 20.48 145.54 19.75Q145.84 19.02 145.84 18.03L145.84 18.02Q145.84 17.02 145.53 16.3Q145.22 15.58 144.67 15.18Q144.12 14.79 143.39 14.79Q142.64 14.79 142.1 15.18Q141.56 15.57 141.26 16.29Q140.96 17.01 140.96 18.02L140.96 18.03Q140.96 19.02 141.25 19.75Q141.55 20.48 142.1 20.87Q142.64 21.27 143.39 21.27ZM155.24 23.52L155.24 8.73L160.89 8.73Q163.11 8.73 164.68 9.58Q166.26 10.43 167.1 12.07Q167.94 13.7 167.94 16.05L167.94 16.07Q167.94 18.42 167.1 20.09Q166.27 21.76 164.69 22.64Q163.11 23.52 160.89 23.52ZM158.33 20.96L160.52 20.96Q161.9 20.96 162.85 20.41Q163.81 19.85 164.3 18.77Q164.78 17.68 164.78 16.08L164.78 16.06Q164.78 14.51 164.28 13.44Q163.79 12.38 162.83 11.83Q161.88 11.28 160.52 11.28L158.33 11.28ZM174.69 23.75Q173.01 23.75 171.8 23.06Q170.59 22.37 169.93 21.08Q169.28 19.8 169.28 18.05L169.28 18.04Q169.28 16.29 169.93 15Q170.59 13.71 171.77 13.01Q172.95 12.31 174.56 12.31Q176.17 12.31 177.35 12.99Q178.52 13.67 179.16 14.91Q179.8 16.15 179.8 17.81L179.8 18.74L170.75 18.74L170.75 16.85L178.39 16.85L176.96 18.61L176.96 17.46Q176.96 16.5 176.67 15.85Q176.37 15.2 175.84 14.87Q175.31 14.54 174.62 14.54Q173.92 14.54 173.38 14.88Q172.84 15.22 172.54 15.87Q172.24 16.52 172.24 17.46L172.24 18.62Q172.24 19.54 172.54 20.18Q172.84 20.83 173.41 21.17Q173.97 21.51 174.75 21.51Q175.36 21.51 175.82 21.32Q176.27 21.13 176.55 20.83Q176.84 20.53 176.94 20.22L176.96 20.16L179.71 20.16L179.68 20.27Q179.56 20.88 179.2 21.49Q178.84 22.11 178.23 22.62Q177.62 23.13 176.74 23.44Q175.87 23.75 174.69 23.75ZM185.71 23.75Q183.89 23.75 183 22.98Q182.12 22.21 182.12 20.45L182.12 14.79L180.59 14.79L180.59 12.53L182.12 12.53L182.12 9.85L185.15 9.85L185.15 12.53L187.16 12.53L187.16 14.79L185.15 14.79L185.15 20.12Q185.15 20.89 185.49 21.19Q185.83 21.49 186.51 21.49Q186.72 21.49 186.87 21.48Q187.02 21.46 187.16 21.44L187.16 23.64Q186.91 23.68 186.55 23.71Q186.18 23.75 185.71 23.75ZM191.98 23.7Q190.88 23.7 190.05 23.27Q189.22 22.85 188.75 22.09Q188.28 21.34 188.28 20.38L188.28 20.36Q188.28 19.35 188.79 18.64Q189.29 17.93 190.24 17.52Q191.2 17.11 192.56 17.01L196.85 16.75L196.85 18.61L193.01 18.86Q192.15 18.91 191.7 19.26Q191.25 19.62 191.25 20.2L191.25 20.22Q191.25 20.83 191.71 21.17Q192.17 21.51 192.95 21.51Q193.62 21.51 194.14 21.25Q194.67 20.99 194.97 20.54Q195.28 20.08 195.28 19.5L195.28 16.17Q195.28 15.44 194.82 15.02Q194.35 14.59 193.47 14.59Q192.63 14.59 192.14 14.94Q191.65 15.29 191.53 15.82L191.51 15.92L188.78 15.92L188.79 15.79Q188.87 14.78 189.46 13.99Q190.05 13.2 191.1 12.75Q192.15 12.31 193.6 12.31Q195.02 12.31 196.07 12.76Q197.11 13.22 197.69 14.05Q198.27 14.88 198.27 15.99L198.27 23.52L195.28 23.52L195.28 21.88L195.22 21.88Q194.91 22.45 194.42 22.85Q193.93 23.26 193.32 23.48Q192.7 23.7 191.98 23.7ZM200.26 23.52L200.26 12.53L203.25 12.53L203.25 23.52ZM201.76 11.12Q201.08 11.12 200.62 10.66Q200.16 10.19 200.16 9.56Q200.16 8.91 200.62 8.46Q201.08 8 201.76 8Q202.43 8 202.9 8.46Q203.36 8.91 203.36 9.56Q203.36 10.19 202.9 10.66Q202.43 11.12 201.76 11.12ZM205.33 23.52L205.33 8.73L208.32 8.73L208.32 23.52ZM214.86 23.75Q213.34 23.75 212.28 23.31Q211.21 22.87 210.61 22.08Q210.01 21.3 209.89 20.26L209.88 20.17L212.8 20.17L212.82 20.26Q212.97 20.91 213.47 21.27Q213.97 21.63 214.86 21.63Q215.44 21.63 215.84 21.49Q216.24 21.35 216.46 21.09Q216.68 20.84 216.68 20.48L216.68 20.47Q216.68 20.03 216.36 19.76Q216.04 19.49 215.23 19.31L213.37 18.92Q212.3 18.69 211.59 18.27Q210.87 17.84 210.51 17.21Q210.16 16.58 210.16 15.76L210.16 15.75Q210.16 14.7 210.72 13.93Q211.28 13.16 212.32 12.73Q213.37 12.31 214.76 12.31Q216.22 12.31 217.24 12.77Q218.26 13.24 218.8 14.03Q219.35 14.82 219.38 15.78L219.38 15.89L216.63 15.89L216.62 15.8Q216.54 15.21 216.07 14.81Q215.59 14.42 214.76 14.42Q214.25 14.42 213.87 14.56Q213.49 14.71 213.28 14.97Q213.08 15.23 213.08 15.59L213.08 15.6Q213.08 15.88 213.22 16.1Q213.35 16.32 213.68 16.48Q214.01 16.64 214.56 16.77L216.43 17.17Q217.58 17.4 218.29 17.8Q219 18.2 219.34 18.78Q219.67 19.36 219.67 20.17L219.67 20.18Q219.67 21.26 219.06 22.06Q218.44 22.86 217.36 23.3Q216.28 23.75 214.86 23.75Z"></path>
  </g>
  <rect class="rule" x="0" y="30" width="221" height="1"></rect>
</svg>
