<svg width="339" height="25" viewBox="0 0 339 25" xmlns="http://www.w3.org/2000/svg" role="img" aria-label="Unanswered Checklist Questions">
  <style>
    .ink { fill: #172032; }
    @media (prefers-color-scheme: dark) {
      .ink { fill: rgb(230,234,242); }
    }
  </style>
  <g class="ink">
    <g class="ink" transform="translate(0,7) scale(1)"><path fill-rule="evenodd" d="M18 5.25a2.25 2.25 0 0 0-2.012-2.238A2.25 2.25 0 0 0 13.75 1h-1.5a2.25 2.25 0 0 0-2.238 2.012c-.875.092-1.6.686-1.884 1.488H11A2.5 2.5 0 0 1 13.5 7v7h2.25A2.25 2.25 0 0 0 18 11.75v-6.5ZM12.25 2.5a.75.75 0 0 0-.75.75v.25h3v-.25a.75.75 0 0 0-.75-.75h-1.5Z" clip-rule="evenodd"></path><path fill-rule="evenodd" d="M3 6a1 1 0 0 0-1 1v10a1 1 0 0 0 1 1h8a1 1 0 0 0 1-1V7a1 1 0 0 0-1-1H3Zm6.874 4.166a.75.75 0 1 0-1.248-.832l-2.493 3.739-.853-.853a.75.75 0 0 0-1.06 1.06l1.5 1.5a.75.75 0 0 0 1.154-.114l3-4.5Z" clip-rule="evenodd"></path></g>
    <path d="M36.33 24.09L36.33 24.09Q34.59 24.09 33.23 23.33Q31.88 22.56 31.1 21.21Q30.32 19.87 30.32 18.17L30.32 18.17L30.32 9.12L33.18 9.12L33.18 18.25Q33.18 19.24 33.59 19.95Q34 20.67 34.72 21.06Q35.45 21.45 36.33 21.45L36.33 21.45Q37.23 21.45 37.92 21.06Q38.62 20.67 39.03 19.95Q39.44 19.24 39.44 18.27L39.44 18.27L39.44 9.12L42.31 9.12L42.31 18.19Q42.31 19.89 41.54 21.23Q40.76 22.56 39.43 23.33Q38.09 24.09 36.33 24.09M54.41 23.88L51.66 23.88L51.66 18.06Q51.66 17.16 51.09 16.59Q50.53 16.03 49.62 16.03L49.62 16.03Q49.03 16.03 48.57 16.28Q48.11 16.53 47.85 16.99Q47.59 17.46 47.59 18.06L47.59 18.06L46.51 17.52Q46.51 16.32 47.03 15.43Q47.54 14.54 48.46 14.03Q49.37 13.53 50.53 13.53L50.53 13.53Q51.64 13.53 52.52 14.09Q53.4 14.64 53.91 15.53Q54.41 16.43 54.41 17.46L54.41 17.46L54.41 23.88M47.59 23.88L44.83 23.88L44.83 13.74L47.59 13.74L47.59 23.88M60.88 24.09L60.88 24.09Q59.49 24.09 58.38 23.4Q57.27 22.71 56.64 21.51Q56.01 20.31 56.01 18.82L56.01 18.82Q56.01 17.31 56.64 16.11Q57.27 14.91 58.38 14.22Q59.49 13.53 60.88 13.53L60.88 13.53Q61.97 13.53 62.83 13.97Q63.69 14.41 64.21 15.2Q64.72 15.99 64.76 16.97L64.76 16.97L64.76 20.63Q64.72 21.63 64.21 22.41Q63.69 23.19 62.83 23.64Q61.97 24.09 60.88 24.09M61.38 21.55L61.38 21.55Q62.54 21.55 63.25 20.78Q63.97 20.02 63.97 18.8L63.97 18.8Q63.97 18 63.64 17.38Q63.31 16.76 62.74 16.42Q62.16 16.07 61.38 16.07L61.38 16.07Q60.63 16.07 60.05 16.42Q59.47 16.76 59.15 17.38Q58.82 18 58.82 18.8L58.82 18.8Q58.82 19.62 59.15 20.24Q59.47 20.86 60.05 21.2Q60.63 21.55 61.38 21.55M66.55 23.88L63.82 23.88L63.82 21.15L64.26 18.67L63.82 16.24L63.82 13.74L66.55 13.74L66.55 23.88M78.56 23.88L75.81 23.88L75.81 18.06Q75.81 17.16 75.24 16.59Q74.68 16.03 73.77 16.03L73.77 16.03Q73.18 16.03 72.72 16.28Q72.26 16.53 72 16.99Q71.74 17.46 71.74 18.06L71.74 18.06L70.66 17.52Q70.66 16.32 71.18 15.43Q71.69 14.54 72.61 14.03Q73.52 13.53 74.68 13.53L74.68 13.53Q75.79 13.53 76.67 14.09Q77.55 14.64 78.06 15.53Q78.56 16.43 78.56 17.46L78.56 17.46L78.56 23.88M71.74 23.88L68.98 23.88L68.98 13.74L71.74 13.74L71.74 23.88M84.27 24.11L84.27 24.11Q83.41 24.11 82.58 23.88Q81.75 23.65 81.06 23.24Q80.37 22.83 79.86 22.24L79.86 22.24L81.5 20.58Q82.03 21.17 82.72 21.47Q83.41 21.76 84.25 21.76L84.25 21.76Q84.92 21.76 85.27 21.57Q85.62 21.38 85.62 21L85.62 21Q85.62 20.58 85.25 20.35Q84.88 20.12 84.29 19.97Q83.71 19.81 83.06 19.61Q82.42 19.41 81.84 19.08Q81.25 18.76 80.88 18.18Q80.51 17.6 80.51 16.68L80.51 16.68Q80.51 15.71 80.99 15Q81.46 14.28 82.34 13.89Q83.22 13.49 84.42 13.49L84.42 13.49Q85.68 13.49 86.7 13.93Q87.72 14.37 88.39 15.25L88.39 15.25L86.73 16.91Q86.27 16.34 85.69 16.09Q85.11 15.84 84.44 15.84L84.44 15.84Q83.83 15.84 83.51 16.03Q83.18 16.22 83.18 16.55L83.18 16.55Q83.18 16.93 83.55 17.14Q83.92 17.35 84.5 17.51Q85.09 17.67 85.73 17.86Q86.37 18.06 86.95 18.42Q87.53 18.78 87.89 19.37Q88.26 19.95 88.26 20.88L88.26 20.88Q88.26 22.37 87.19 23.24Q86.12 24.11 84.27 24.11M94.79 23.88L92.82 23.88L89.02 13.74L91.79 13.74L94.27 21.11L93.43 21.13L95.97 13.74L97.96 13.74L100.51 21.13L99.67 21.11L102.14 13.74L104.92 13.74L101.14 23.88L99.14 23.88L96.58 16.87L97.36 16.87L94.79 23.88M110.88 24.09L110.88 24.09Q109.28 24.09 108.04 23.41Q106.81 22.73 106.08 21.53Q105.36 20.33 105.36 18.8L105.36 18.8Q105.36 17.29 106.06 16.1Q106.76 14.91 107.98 14.21Q109.2 13.51 110.69 13.51L110.69 13.51Q112.16 13.51 113.28 14.17Q114.41 14.83 115.05 15.97Q115.69 17.12 115.69 18.57L115.69 18.57Q115.69 18.84 115.66 19.13Q115.63 19.41 115.54 19.77L115.54 19.77L107.02 19.79L107.02 17.73L114.26 17.71L113.15 18.57Q113.11 17.67 112.82 17.06Q112.54 16.45 112 16.12Q111.47 15.8 110.69 15.8L110.69 15.8Q109.87 15.8 109.26 16.16Q108.65 16.53 108.33 17.19Q108 17.85 108 18.76L108 18.76Q108 19.68 108.35 20.36Q108.7 21.05 109.35 21.41Q110 21.78 110.86 21.78L110.86 21.78Q111.64 21.78 112.27 21.52Q112.9 21.26 113.36 20.73L113.36 20.73L114.97 22.35Q114.24 23.21 113.18 23.65Q112.12 24.09 110.88 24.09M120.14 23.88L117.39 23.88L117.39 13.74L120.14 13.74L120.14 23.88M120.14 18.27L120.14 18.27L119.07 17.56Q119.26 15.69 120.16 14.61Q121.06 13.53 122.77 13.53L122.77 13.53Q123.5 13.53 124.09 13.77Q124.68 14.01 125.16 14.56L125.16 14.56L123.44 16.53Q123.21 16.28 122.88 16.15Q122.56 16.03 122.14 16.03L122.14 16.03Q121.25 16.03 120.7 16.58Q120.14 17.14 120.14 18.27M130.7 24.09L130.7 24.09Q129.11 24.09 127.87 23.41Q126.63 22.73 125.9 21.53Q125.18 20.33 125.18 18.8L125.18 18.8Q125.18 17.29 125.88 16.1Q126.59 14.91 127.81 14.21Q129.02 13.51 130.51 13.51L130.51 13.51Q131.98 13.51 133.11 14.17Q134.23 14.83 134.87 15.97Q135.51 17.12 135.51 18.57L135.51 18.57Q135.51 18.84 135.48 19.13Q135.45 19.41 135.37 19.77L135.37 19.77L126.84 19.79L126.84 17.73L134.08 17.71L132.97 18.57Q132.93 17.67 132.65 17.06Q132.36 16.45 131.83 16.12Q131.29 15.8 130.51 15.8L130.51 15.8Q129.7 15.8 129.09 16.16Q128.48 16.53 128.15 17.19Q127.83 17.85 127.83 18.76L127.83 18.76Q127.83 19.68 128.17 20.36Q128.52 21.05 129.17 21.41Q129.82 21.78 130.68 21.78L130.68 21.78Q131.46 21.78 132.09 21.52Q132.72 21.26 133.18 20.73L133.18 20.73L134.8 22.35Q134.06 23.21 133 23.65Q131.94 24.09 130.7 24.09M141.5 24.09L141.5 24.09Q140.09 24.09 138.98 23.4Q137.86 22.71 137.22 21.51Q136.58 20.31 136.58 18.82L136.58 18.82Q136.58 17.31 137.22 16.11Q137.86 14.91 138.97 14.22Q140.07 13.53 141.5 13.53L141.5 13.53Q142.59 13.53 143.46 13.97Q144.33 14.41 144.87 15.2Q145.4 15.99 145.45 16.97L145.45 16.97L145.45 20.58Q145.4 21.57 144.88 22.37Q144.35 23.17 143.47 23.63Q142.59 24.09 141.5 24.09M141.96 21.55L141.96 21.55Q142.74 21.55 143.31 21.2Q143.89 20.86 144.22 20.24Q144.54 19.62 144.54 18.8L144.54 18.8Q144.54 18 144.22 17.38Q143.89 16.76 143.31 16.42Q142.74 16.07 141.98 16.07L141.98 16.07Q141.2 16.07 140.63 16.43Q140.05 16.78 139.72 17.39Q139.4 18 139.4 18.8L139.4 18.8Q139.4 19.62 139.72 20.24Q140.05 20.86 140.64 21.2Q141.22 21.55 141.96 21.55M147.13 8.7L147.13 23.88L144.4 23.88L144.4 21.15L144.84 18.67L144.37 16.24L144.37 8.7L147.13 8.7M160.8 24.09L160.8 24.09Q159.18 24.09 157.79 23.51Q156.41 22.94 155.37 21.9Q154.33 20.86 153.77 19.47Q153.22 18.09 153.22 16.49L153.22 16.49Q153.22 14.89 153.77 13.51Q154.33 12.12 155.37 11.09Q156.41 10.06 157.78 9.48Q159.16 8.89 160.8 8.89L160.8 8.89Q162.56 8.89 163.9 9.46Q165.25 10.04 166.28 11.05L166.28 11.05L164.35 12.98Q163.74 12.31 162.85 11.93Q161.97 11.55 160.8 11.55L160.8 11.55Q159.77 11.55 158.92 11.9Q158.07 12.25 157.44 12.91Q156.81 13.57 156.47 14.48Q156.13 15.4 156.13 16.49L156.13 16.49Q156.13 17.6 156.47 18.51Q156.81 19.41 157.44 20.07Q158.07 20.73 158.92 21.09Q159.77 21.45 160.8 21.45L160.8 21.45Q162.04 21.45 162.93 21.07Q163.82 20.69 164.43 20L164.43 20L166.36 21.93Q165.33 22.96 163.97 23.52Q162.6 24.09 160.8 24.09M177.64 23.88L174.89 23.88L174.89 18.06Q174.89 17.16 174.32 16.59Q173.75 16.03 172.85 16.03L172.85 16.03Q172.26 16.03 171.8 16.28Q171.34 16.53 171.08 16.99Q170.81 17.46 170.81 18.06L170.81 18.06L169.74 17.52Q169.74 16.32 170.25 15.43Q170.75 14.54 171.64 14.03Q172.54 13.53 173.69 13.53L173.69 13.53Q174.85 13.53 175.74 14.03Q176.63 14.54 177.13 15.42Q177.64 16.3 177.64 17.46L177.64 17.46L177.64 23.88M170.81 23.88L168.06 23.88L168.06 8.7L170.81 8.7L170.81 23.88M184.72 24.09L184.72 24.09Q183.12 24.09 181.88 23.41Q180.64 22.73 179.92 21.53Q179.19 20.33 179.19 18.8L179.19 18.8Q179.19 17.29 179.9 16.1Q180.6 14.91 181.82 14.21Q183.04 13.51 184.53 13.51L184.53 13.51Q186 13.51 187.12 14.17Q188.24 14.83 188.88 15.97Q189.52 17.12 189.52 18.57L189.52 18.57Q189.52 18.84 189.49 19.13Q189.46 19.41 189.38 19.77L189.38 19.77L180.85 19.79L180.85 17.73L188.1 17.71L186.98 18.57Q186.94 17.67 186.66 17.06Q186.37 16.45 185.84 16.12Q185.3 15.8 184.53 15.8L184.53 15.8Q183.71 15.8 183.1 16.16Q182.49 16.53 182.16 17.19Q181.84 17.85 181.84 18.76L181.84 18.76Q181.84 19.68 182.18 20.36Q182.53 21.05 183.18 21.41Q183.83 21.78 184.69 21.78L184.69 21.78Q185.47 21.78 186.1 21.52Q186.73 21.26 187.19 20.73L187.19 20.73L188.81 22.35Q188.08 23.21 187.01 23.65Q185.95 24.09 184.72 24.09M196.01 24.09L196.01 24.09Q194.46 24.09 193.22 23.4Q191.98 22.71 191.27 21.51Q190.55 20.31 190.55 18.82L190.55 18.82Q190.55 17.31 191.27 16.11Q191.98 14.91 193.23 14.21Q194.48 13.51 196.01 13.51L196.01 13.51Q197.21 13.51 198.22 13.95Q199.23 14.39 199.96 15.21L199.96 15.21L198.2 16.99Q197.8 16.55 197.24 16.32Q196.69 16.09 196.01 16.09L196.01 16.09Q195.26 16.09 194.66 16.44Q194.06 16.78 193.71 17.38Q193.37 17.98 193.37 18.8L193.37 18.8Q193.37 19.6 193.71 20.22Q194.06 20.84 194.66 21.18Q195.26 21.53 196.01 21.53L196.01 21.53Q196.71 21.53 197.26 21.29Q197.82 21.05 198.22 20.58L198.22 20.58L200 22.37Q199.23 23.21 198.22 23.65Q197.21 24.09 196.01 24.09M211.39 23.88L208.03 23.88L204.1 18.65L208 13.74L211.18 13.74L206.6 19.28L206.7 17.94L211.39 23.88M204.31 23.88L201.56 23.88L201.56 8.7L204.31 8.7L204.31 23.88M215.4 23.88L212.65 23.88L212.65 8.7L215.4 8.7L215.4 23.88M220.6 23.88L217.83 23.88L217.83 13.74L220.6 13.74L220.6 23.88M219.22 12.1L219.22 12.1Q218.55 12.1 218.11 11.65Q217.66 11.2 217.66 10.53L217.66 10.53Q217.66 9.87 218.11 9.41Q218.55 8.95 219.22 8.95L219.22 8.95Q219.91 8.95 220.34 9.41Q220.77 9.87 220.77 10.53L220.77 10.53Q220.77 11.2 220.34 11.65Q219.91 12.1 219.22 12.1M226.53 24.11L226.53 24.11Q225.67 24.11 224.84 23.88Q224.01 23.65 223.31 23.24Q222.62 22.83 222.12 22.24L222.12 22.24L223.75 20.58Q224.28 21.17 224.97 21.47Q225.67 21.76 226.51 21.76L226.51 21.76Q227.18 21.76 227.52 21.57Q227.87 21.38 227.87 21L227.87 21Q227.87 20.58 227.5 20.35Q227.14 20.12 226.55 19.97Q225.96 19.81 225.32 19.61Q224.68 19.41 224.09 19.08Q223.5 18.76 223.13 18.18Q222.77 17.6 222.77 16.68L222.77 16.68Q222.77 15.71 223.24 15Q223.71 14.28 224.59 13.89Q225.48 13.49 226.67 13.49L226.67 13.49Q227.93 13.49 228.95 13.93Q229.97 14.37 230.64 15.25L230.64 15.25L228.98 16.91Q228.52 16.34 227.94 16.09Q227.37 15.84 226.69 15.84L226.69 15.84Q226.09 15.84 225.76 16.03Q225.43 16.22 225.43 16.55L225.43 16.55Q225.43 16.93 225.8 17.14Q226.17 17.35 226.76 17.51Q227.35 17.67 227.99 17.86Q228.63 18.06 229.2 18.42Q229.78 18.78 230.15 19.37Q230.52 19.95 230.52 20.88L230.52 20.88Q230.52 22.37 229.45 23.24Q228.37 24.11 226.53 24.11M236.61 23.88L233.86 23.88L233.86 9.52L236.61 9.52L236.61 23.88M238.98 16.15L231.48 16.15L231.48 13.74L238.98 13.74L238.98 16.15M251.85 24.11L251.85 24.11Q250.24 24.11 248.84 23.52Q247.44 22.94 246.39 21.9Q245.34 20.86 244.76 19.46Q244.19 18.06 244.19 16.47L244.19 16.47Q244.19 14.87 244.76 13.5Q245.34 12.12 246.38 11.08Q247.42 10.04 248.81 9.46Q250.19 8.89 251.81 8.89L251.81 8.89Q253.43 8.89 254.81 9.46Q256.2 10.04 257.25 11.08Q258.3 12.12 258.88 13.51Q259.45 14.89 259.45 16.49L259.45 16.49Q259.45 18.09 258.88 19.47Q258.3 20.86 257.26 21.9Q256.22 22.94 254.83 23.52Q253.45 24.11 251.85 24.11M260.25 23.25L258.51 24.97L251.75 18.21L253.47 16.47L260.25 23.25M251.81 21.45L251.81 21.45Q253.22 21.45 254.28 20.82Q255.34 20.19 255.94 19.07Q256.54 17.96 256.54 16.47L256.54 16.47Q256.54 15.38 256.19 14.47Q255.84 13.57 255.21 12.91Q254.58 12.25 253.72 11.89Q252.86 11.53 251.81 11.53L251.81 11.53Q250.42 11.53 249.36 12.15Q248.3 12.77 247.7 13.89Q247.11 15 247.11 16.47L247.11 16.47Q247.11 17.58 247.45 18.51Q247.8 19.43 248.42 20.08Q249.04 20.73 249.91 21.09Q250.78 21.45 251.81 21.45M266.17 24.09L266.17 24.09Q264.83 24.09 263.79 23.52Q262.75 22.96 262.16 21.95Q261.58 20.94 261.58 19.62L261.58 19.62L261.58 13.74L264.35 13.74L264.35 19.56Q264.35 20.19 264.56 20.64Q264.77 21.09 265.19 21.32Q265.61 21.55 266.17 21.55L266.17 21.55Q267.04 21.55 267.52 21.03Q268 20.5 268 19.56L268 19.56L268 13.74L270.75 13.74L270.75 19.62Q270.75 20.96 270.17 21.97Q269.6 22.98 268.56 23.54Q267.52 24.09 266.17 24.09M277.79 24.09L277.79 24.09Q276.19 24.09 274.95 23.41Q273.71 22.73 272.99 21.53Q272.26 20.33 272.26 18.8L272.26 18.8Q272.26 17.29 272.97 16.1Q273.67 14.91 274.89 14.21Q276.11 13.51 277.6 13.51L277.6 13.51Q279.07 13.51 280.19 14.17Q281.32 14.83 281.96 15.97Q282.6 17.12 282.6 18.57L282.6 18.57Q282.6 18.84 282.56 19.13Q282.53 19.41 282.45 19.77L282.45 19.77L273.92 19.79L273.92 17.73L281.17 17.71L280.06 18.57Q280.01 17.67 279.73 17.06Q279.45 16.45 278.91 16.12Q278.38 15.8 277.6 15.8L277.6 15.8Q276.78 15.8 276.17 16.16Q275.56 16.53 275.24 17.19Q274.91 17.85 274.91 18.76L274.91 18.76Q274.91 19.68 275.26 20.36Q275.6 21.05 276.25 21.41Q276.91 21.78 277.77 21.78L277.77 21.78Q278.54 21.78 279.17 21.52Q279.8 21.26 280.27 20.73L280.27 20.73L281.88 22.35Q281.15 23.21 280.09 23.65Q279.03 24.09 277.79 24.09M287.78 24.11L287.78 24.11Q286.92 24.11 286.09 23.88Q285.26 23.65 284.57 23.24Q283.88 22.83 283.37 22.24L283.37 22.24L285.01 20.58Q285.54 21.17 286.23 21.47Q286.92 21.76 287.76 21.76L287.76 21.76Q288.43 21.76 288.78 21.57Q289.13 21.38 289.13 21L289.13 21Q289.13 20.58 288.76 20.35Q288.39 20.12 287.8 19.97Q287.22 19.81 286.58 19.61Q285.94 19.41 285.35 19.08Q284.76 18.76 284.39 18.18Q284.02 17.6 284.02 16.68L284.02 16.68Q284.02 15.71 284.5 15Q284.97 14.28 285.85 13.89Q286.73 13.49 287.93 13.49L287.93 13.49Q289.19 13.49 290.21 13.93Q291.23 14.37 291.9 15.25L291.9 15.25L290.24 16.91Q289.78 16.34 289.2 16.09Q288.62 15.84 287.95 15.84L287.95 15.84Q287.34 15.84 287.02 16.03Q286.69 16.22 286.69 16.55L286.69 16.55Q286.69 16.93 287.06 17.14Q287.43 17.35 288.01 17.51Q288.6 17.67 289.24 17.86Q289.88 18.06 290.46 18.42Q291.04 18.78 291.41 19.37Q291.77 19.95 291.77 20.88L291.77 20.88Q291.77 22.37 290.7 23.24Q289.63 24.11 287.78 24.11M297.86 23.88L295.11 23.88L295.11 9.52L297.86 9.52L297.86 23.88M300.24 16.15L292.74 16.15L292.74 13.74L300.24 13.74L300.24 16.15M304.56 23.88L301.79 23.88L301.79 13.74L304.56 13.74L304.56 23.88M303.18 12.1L303.18 12.1Q302.5 12.1 302.06 11.65Q301.62 11.2 301.62 10.53L301.62 10.53Q301.62 9.87 302.06 9.41Q302.5 8.95 303.18 8.95L303.18 8.95Q303.87 8.95 304.3 9.41Q304.73 9.87 304.73 10.53L304.73 10.53Q304.73 11.2 304.3 11.65Q303.87 12.1 303.18 12.1M311.77 24.09L311.77 24.09Q310.23 24.09 309 23.39Q307.78 22.68 307.05 21.48Q306.33 20.27 306.33 18.78L306.33 18.78Q306.33 17.29 307.04 16.1Q307.75 14.91 308.99 14.21Q310.23 13.51 311.74 13.51L311.74 13.51Q313.3 13.51 314.53 14.21Q315.76 14.91 316.47 16.1Q317.18 17.29 317.18 18.78L317.18 18.78Q317.18 20.27 316.47 21.48Q315.76 22.68 314.53 23.39Q313.3 24.09 311.77 24.09M311.74 21.53L311.74 21.53Q312.52 21.53 313.12 21.18Q313.72 20.84 314.04 20.22Q314.37 19.6 314.37 18.8L314.37 18.8Q314.37 18 314.03 17.39Q313.7 16.78 313.11 16.44Q312.52 16.09 311.74 16.09L311.74 16.09Q310.99 16.09 310.4 16.44Q309.81 16.78 309.48 17.39Q309.14 18 309.14 18.8L309.14 18.8Q309.14 19.6 309.48 20.22Q309.81 20.84 310.4 21.18Q310.99 21.53 311.74 21.53M328.52 23.88L325.77 23.88L325.77 18.06Q325.77 17.16 325.21 16.59Q324.64 16.03 323.74 16.03L323.74 16.03Q323.15 16.03 322.69 16.28Q322.22 16.53 321.96 16.99Q321.7 17.46 321.7 18.06L321.7 18.06L320.63 17.52Q320.63 16.32 321.14 15.43Q321.66 14.54 322.57 14.03Q323.48 13.53 324.64 13.53L324.64 13.53Q325.75 13.53 326.63 14.09Q327.52 14.64 328.02 15.53Q328.52 16.43 328.52 17.46L328.52 17.46L328.52 23.88M321.7 23.88L318.95 23.88L318.95 13.74L321.7 13.74L321.7 23.88M334.24 24.11L334.24 24.11Q333.37 24.11 332.54 23.88Q331.72 23.65 331.02 23.24Q330.33 22.83 329.83 22.24L329.83 22.24L331.46 20.58Q331.99 21.17 332.68 21.47Q333.37 21.76 334.21 21.76L334.21 21.76Q334.89 21.76 335.23 21.57Q335.58 21.38 335.58 21L335.58 21Q335.58 20.58 335.21 20.35Q334.84 20.12 334.26 19.97Q333.67 19.81 333.03 19.61Q332.39 19.41 331.8 19.08Q331.21 18.76 330.84 18.18Q330.48 17.6 330.48 16.68L330.48 16.68Q330.48 15.71 330.95 15Q331.42 14.28 332.3 13.89Q333.19 13.49 334.38 13.49L334.38 13.49Q335.64 13.49 336.66 13.93Q337.68 14.37 338.35 15.25L338.35 15.25L336.69 16.91Q336.23 16.34 335.65 16.09Q335.08 15.84 334.4 15.84L334.4 15.84Q333.79 15.84 333.47 16.03Q333.14 16.22 333.14 16.55L333.14 16.55Q333.14 16.93 333.51 17.14Q333.88 17.35 334.47 17.51Q335.05 17.67 335.69 17.86Q336.34 18.06 336.91 18.42Q337.49 18.78 337.86 19.37Q338.23 19.95 338.23 20.88L338.23 20.88Q338.23 22.37 337.15 23.24Q336.08 24.11 334.24 24.11"></path>
  </g>
</svg>
