<svg width="223" height="24" viewBox="0 0 223 24" xmlns="http://www.w3.org/2000/svg" role="img" aria-label="Unanswered Details">
  <style>
    .ink { fill: #172032; }
    @media (prefers-color-scheme: dark) {
      .ink { fill: rgb(230,234,242); }
    }
  </style>
  <g class="ink">
    <g class="ink" transform="translate(0,5.8) scale(1)"><path fill-rule="evenodd" d="M2 4.75A.75.75 0 0 1 2.75 4h14.5a.75.75 0 0 1 0 1.5H2.75A.75.75 0 0 1 2 4.75Zm0 10.5a.75.75 0 0 1 .75-.75h7.5a.75.75 0 0 1 0 1.5h-7.5a.75.75 0 0 1-.75-.75ZM2 10a.75.75 0 0 1 .75-.75h14.5a.75.75 0 0 1 0 1.5H2.75A.75.75 0 0 1 2 10Z" clip-rule="evenodd"></path></g>
    <path d="M36.39 23.48L36.39 23.48Q34.57 23.48 33.17 22.7Q31.77 21.92 30.98 20.55Q30.2 19.17 30.2 17.41L30.2 17.41L30.2 8.42L33.52 8.42L33.52 17.6Q33.52 18.48 33.89 19.13Q34.27 19.78 34.93 20.13Q35.59 20.47 36.39 20.47L36.39 20.47Q37.23 20.47 37.86 20.13Q38.49 19.78 38.86 19.14Q39.23 18.5 39.23 17.62L39.23 17.62L39.23 8.42L42.55 8.42L42.55 17.43Q42.55 19.19 41.77 20.56Q40.99 21.92 39.61 22.7Q38.22 23.48 36.39 23.48M54.83 23.25L51.62 23.25L51.62 17.43Q51.62 16.63 51.12 16.14Q50.63 15.64 49.87 15.64L49.87 15.64Q49.35 15.64 48.95 15.86Q48.55 16.09 48.32 16.49Q48.09 16.9 48.09 17.43L48.09 17.43L46.85 16.82Q46.85 15.62 47.38 14.72Q47.9 13.82 48.83 13.32Q49.77 12.83 50.95 12.83L50.95 12.83Q52.08 12.83 52.95 13.37Q53.82 13.9 54.33 14.78Q54.83 15.67 54.83 16.72L54.83 16.72L54.83 23.25M48.09 23.25L44.88 23.25L44.88 13.04L48.09 13.04L48.09 23.25M61.15 23.46L61.15 23.46Q59.74 23.46 58.64 22.76Q57.54 22.07 56.9 20.87Q56.26 19.68 56.26 18.14L56.26 18.14Q56.26 16.61 56.9 15.41Q57.54 14.22 58.64 13.52Q59.74 12.83 61.15 12.83L61.15 12.83Q62.18 12.83 63.01 13.23Q63.84 13.63 64.36 14.33Q64.89 15.04 64.95 15.94L64.95 15.94L64.95 20.35Q64.89 21.25 64.37 21.95Q63.86 22.66 63.02 23.06Q62.18 23.46 61.15 23.46M61.8 20.56L61.8 20.56Q62.83 20.56 63.46 19.88Q64.09 19.19 64.09 18.14L64.09 18.14Q64.09 17.43 63.81 16.88Q63.52 16.34 63.01 16.03Q62.5 15.73 61.82 15.73L61.82 15.73Q61.15 15.73 60.64 16.03Q60.12 16.34 59.82 16.88Q59.51 17.43 59.51 18.14L59.51 18.14Q59.51 18.84 59.81 19.38Q60.1 19.93 60.63 20.24Q61.15 20.56 61.8 20.56M67.12 23.25L63.97 23.25L63.97 20.5L64.45 18.02L63.97 15.54L63.97 13.04L67.12 13.04L67.12 23.25M79.34 23.25L76.12 23.25L76.12 17.43Q76.12 16.63 75.63 16.14Q75.14 15.64 74.38 15.64L74.38 15.64Q73.86 15.64 73.46 15.86Q73.06 16.09 72.83 16.49Q72.6 16.9 72.6 17.43L72.6 17.43L71.36 16.82Q71.36 15.62 71.88 14.72Q72.41 13.82 73.34 13.32Q74.28 12.83 75.45 12.83L75.45 12.83Q76.59 12.83 77.46 13.37Q78.33 13.9 78.83 14.78Q79.34 15.67 79.34 16.72L79.34 16.72L79.34 23.25M72.6 23.25L69.38 23.25L69.38 13.04L72.6 13.04L72.6 23.25M85.11 23.5L85.11 23.5Q84.21 23.5 83.34 23.27Q82.47 23.04 81.72 22.61Q80.98 22.18 80.45 21.61L80.45 21.61L82.28 19.76Q82.78 20.31 83.47 20.61Q84.17 20.92 84.99 20.92L84.99 20.92Q85.55 20.92 85.86 20.75Q86.16 20.58 86.16 20.29L86.16 20.29Q86.16 19.91 85.79 19.71Q85.43 19.51 84.86 19.35Q84.29 19.19 83.66 19Q83.03 18.82 82.47 18.48Q81.9 18.14 81.54 17.54Q81.19 16.95 81.19 16.02L81.19 16.02Q81.19 15.04 81.69 14.31Q82.19 13.59 83.12 13.17Q84.04 12.75 85.28 12.75L85.28 12.75Q86.58 12.75 87.68 13.2Q88.79 13.65 89.48 14.53L89.48 14.53L87.65 16.38Q87.17 15.81 86.57 15.58Q85.97 15.35 85.41 15.35L85.41 15.35Q84.86 15.35 84.59 15.51Q84.31 15.67 84.31 15.96L84.31 15.96Q84.31 16.27 84.67 16.46Q85.03 16.65 85.6 16.8Q86.16 16.95 86.79 17.16Q87.42 17.37 87.99 17.72Q88.56 18.08 88.91 18.68Q89.27 19.28 89.27 20.24L89.27 20.24Q89.27 21.73 88.15 22.62Q87.02 23.5 85.11 23.5M96.12 23.25L93.51 23.25L89.98 13.04L93.13 13.04L95.32 20.45L94.39 20.47L96.81 13.04L99.41 13.04L101.85 20.47L100.9 20.45L103.11 13.04L106.26 13.04L102.73 23.25L100.11 23.25L97.73 16.19L98.53 16.19L96.12 23.25M112.33 23.48L112.33 23.48Q110.67 23.48 109.38 22.79Q108.09 22.11 107.35 20.89Q106.62 19.68 106.62 18.14L106.62 18.14Q106.62 16.61 107.34 15.4Q108.07 14.2 109.3 13.5Q110.54 12.81 112.1 12.81L112.1 12.81Q113.61 12.81 114.76 13.46Q115.92 14.11 116.58 15.27Q117.24 16.42 117.24 17.91L117.24 17.91Q117.24 18.19 117.21 18.49Q117.18 18.79 117.1 19.19L117.1 19.19L108.3 19.21L108.3 17.01L115.73 16.99L114.34 17.91Q114.32 17.03 114.07 16.45Q113.82 15.88 113.33 15.57Q112.83 15.27 112.12 15.27L112.12 15.27Q111.36 15.27 110.81 15.61Q110.25 15.96 109.94 16.59Q109.64 17.22 109.64 18.12L109.64 18.12Q109.64 19.03 109.97 19.67Q110.29 20.31 110.89 20.65Q111.49 21 112.31 21L112.31 21Q113.06 21 113.67 20.74Q114.28 20.47 114.74 19.95L114.74 19.95L116.51 21.71Q115.75 22.6 114.68 23.04Q113.61 23.48 112.33 23.48M122.01 23.25L118.8 23.25L118.8 13.04L122.01 13.04L122.01 23.25M122.01 17.64L122.01 17.64L120.67 16.59Q121.06 14.8 122.01 13.82Q122.95 12.83 124.63 12.83L124.63 12.83Q125.37 12.83 125.93 13.05Q126.48 13.27 126.9 13.73L126.9 13.73L124.99 16.15Q124.78 15.92 124.47 15.79Q124.15 15.67 123.75 15.67L123.75 15.67Q122.95 15.67 122.48 16.16Q122.01 16.65 122.01 17.64M132.51 23.48L132.51 23.48Q130.85 23.48 129.56 22.79Q128.27 22.11 127.53 20.89Q126.8 19.68 126.8 18.14L126.8 18.14Q126.8 16.61 127.52 15.4Q128.25 14.2 129.49 13.5Q130.72 12.81 132.28 12.81L132.28 12.81Q133.79 12.81 134.95 13.46Q136.1 14.11 136.76 15.27Q137.42 16.42 137.42 17.91L137.42 17.91Q137.42 18.19 137.39 18.49Q137.36 18.79 137.28 19.19L137.28 19.19L128.48 19.21L128.48 17.01L135.91 16.99L134.53 17.91Q134.5 17.03 134.25 16.45Q134 15.88 133.51 15.57Q133.01 15.27 132.3 15.27L132.3 15.27Q131.54 15.27 130.99 15.61Q130.43 15.96 130.13 16.59Q129.82 17.22 129.82 18.12L129.82 18.12Q129.82 19.03 130.15 19.67Q130.47 20.31 131.07 20.65Q131.67 21 132.49 21L132.49 21Q133.24 21 133.85 20.74Q134.46 20.47 134.92 19.95L134.92 19.95L136.69 21.71Q135.93 22.6 134.86 23.04Q133.79 23.48 132.51 23.48M143.32 23.46L143.32 23.46Q141.88 23.46 140.75 22.76Q139.63 22.07 138.99 20.87Q138.35 19.68 138.35 18.14L138.35 18.14Q138.35 16.61 138.99 15.41Q139.63 14.22 140.75 13.52Q141.88 12.83 143.32 12.83L143.32 12.83Q144.37 12.83 145.22 13.23Q146.08 13.63 146.63 14.33Q147.19 15.04 147.25 15.94L147.25 15.94L147.25 20.24Q147.19 21.15 146.64 21.87Q146.1 22.6 145.24 23.03Q144.37 23.46 143.32 23.46M143.89 20.56L143.89 20.56Q144.58 20.56 145.09 20.25Q145.59 19.95 145.89 19.4Q146.18 18.86 146.18 18.14L146.18 18.14Q146.18 17.43 145.9 16.89Q145.61 16.36 145.1 16.04Q144.58 15.73 143.91 15.73L143.91 15.73Q143.24 15.73 142.73 16.04Q142.21 16.36 141.91 16.9Q141.6 17.45 141.6 18.14L141.6 18.14Q141.6 18.84 141.9 19.38Q142.19 19.93 142.72 20.24Q143.24 20.56 143.89 20.56M149.2 8L149.2 23.25L146.05 23.25L146.05 20.5L146.54 18.02L145.99 15.54L145.99 8L149.2 8M161.74 23.25L157.98 23.25L157.98 20.35L161.66 20.35Q163 20.35 164.01 19.81Q165.02 19.28 165.56 18.25Q166.11 17.22 166.11 15.81L166.11 15.81Q166.11 14.41 165.55 13.4Q165 12.39 164 11.84Q163 11.3 161.66 11.3L161.66 11.3L157.88 11.3L157.88 8.42L161.7 8.42Q163.38 8.42 164.8 8.96Q166.21 9.49 167.27 10.49Q168.34 11.49 168.91 12.84Q169.49 14.2 169.49 15.83L169.49 15.83Q169.49 17.45 168.91 18.82Q168.34 20.18 167.29 21.17Q166.24 22.15 164.82 22.7Q163.4 23.25 161.74 23.25L161.74 23.25M159.05 23.25L155.76 23.25L155.76 8.42L159.05 8.42L159.05 23.25M176.34 23.48L176.34 23.48Q174.68 23.48 173.39 22.79Q172.09 22.11 171.36 20.89Q170.62 19.68 170.62 18.14L170.62 18.14Q170.62 16.61 171.35 15.4Q172.07 14.2 173.31 13.5Q174.55 12.81 176.11 12.81L176.11 12.81Q177.62 12.81 178.77 13.46Q179.93 14.11 180.59 15.27Q181.25 16.42 181.25 17.91L181.25 17.91Q181.25 18.19 181.22 18.49Q181.19 18.79 181.1 19.19L181.1 19.19L172.3 19.21L172.3 17.01L179.74 16.99L178.35 17.91Q178.33 17.03 178.08 16.45Q177.83 15.88 177.33 15.57Q176.84 15.27 176.13 15.27L176.13 15.27Q175.37 15.27 174.81 15.61Q174.26 15.96 173.95 16.59Q173.65 17.22 173.65 18.12L173.65 18.12Q173.65 19.03 173.97 19.67Q174.3 20.31 174.9 20.65Q175.5 21 176.32 21L176.32 21Q177.07 21 177.68 20.74Q178.29 20.47 178.75 19.95L178.75 19.95L180.52 21.71Q179.76 22.6 178.69 23.04Q177.62 23.48 176.34 23.48M187.26 23.25L184.04 23.25L184.04 8.82L187.26 8.82L187.26 23.25M189.57 15.77L181.73 15.77L181.73 13.04L189.57 13.04L189.57 15.77M195.03 23.46L195.03 23.46Q193.62 23.46 192.52 22.76Q191.41 22.07 190.77 20.87Q190.13 19.68 190.13 18.14L190.13 18.14Q190.13 16.61 190.77 15.41Q191.41 14.22 192.52 13.52Q193.62 12.83 195.03 12.83L195.03 12.83Q196.06 12.83 196.88 13.23Q197.71 13.63 198.24 14.33Q198.76 15.04 198.83 15.94L198.83 15.94L198.83 20.35Q198.76 21.25 198.25 21.95Q197.74 22.66 196.9 23.06Q196.06 23.46 195.03 23.46M195.68 20.56L195.68 20.56Q196.71 20.56 197.34 19.88Q197.97 19.19 197.97 18.14L197.97 18.14Q197.97 17.43 197.68 16.88Q197.4 16.34 196.88 16.03Q196.37 15.73 195.7 15.73L195.7 15.73Q195.03 15.73 194.51 16.03Q194 16.34 193.69 16.88Q193.39 17.43 193.39 18.14L193.39 18.14Q193.39 18.84 193.68 19.38Q193.98 19.93 194.5 20.24Q195.03 20.56 195.68 20.56M200.99 23.25L197.84 23.25L197.84 20.5L198.32 18.02L197.84 15.54L197.84 13.04L200.99 13.04L200.99 23.25M206.47 23.25L203.26 23.25L203.26 13.04L206.47 13.04L206.47 23.25M204.88 11.63L204.88 11.63Q204.12 11.63 203.63 11.12Q203.13 10.6 203.13 9.87L203.13 9.87Q203.13 9.11 203.63 8.61Q204.12 8.11 204.88 8.11L204.88 8.11Q205.63 8.11 206.11 8.61Q206.6 9.11 206.6 9.87L206.6 9.87Q206.6 10.6 206.11 11.12Q205.63 11.63 204.88 11.63M211.95 23.25L208.74 23.25L208.74 8L211.95 8L211.95 23.25M217.94 23.5L217.94 23.5Q217.03 23.5 216.16 23.27Q215.29 23.04 214.55 22.61Q213.8 22.18 213.28 21.61L213.28 21.61L215.1 19.76Q215.61 20.31 216.3 20.61Q216.99 20.92 217.81 20.92L217.81 20.92Q218.38 20.92 218.68 20.75Q218.99 20.58 218.99 20.29L218.99 20.29Q218.99 19.91 218.62 19.71Q218.25 19.51 217.69 19.35Q217.12 19.19 216.49 19Q215.86 18.82 215.29 18.48Q214.72 18.14 214.37 17.54Q214.01 16.95 214.01 16.02L214.01 16.02Q214.01 15.04 214.51 14.31Q215.02 13.59 215.94 13.17Q216.87 12.75 218.11 12.75L218.11 12.75Q219.41 12.75 220.51 13.2Q221.61 13.65 222.31 14.53L222.31 14.53L220.48 16.38Q220 15.81 219.4 15.58Q218.8 15.35 218.23 15.35L218.23 15.35Q217.69 15.35 217.41 15.51Q217.14 15.67 217.14 15.96L217.14 15.96Q217.14 16.27 217.5 16.46Q217.85 16.65 218.42 16.8Q218.99 16.95 219.62 17.16Q220.25 17.37 220.81 17.72Q221.38 18.08 221.74 18.68Q222.1 19.28 222.1 20.24L222.1 20.24Q222.1 21.73 220.97 22.62Q219.85 23.5 217.94 23.5"></path>
  </g>
</svg>
