<svg width="345" height="33" viewBox="0 0 345 33" xmlns="http://www.w3.org/2000/svg" role="img" aria-label="Unanswered Checklist Questions">
  <style>
    .ink { fill: #172032; }
    .rule { fill: rgb(228,230,235); }
    @media (prefers-color-scheme: dark) {
      .ink { fill: rgb(230,234,242); }
      .rule { fill: rgb(66,77,96); }
    }
  </style>
  <g class="ink">
    <g class="ink" transform="translate(0,7) scale(1)"><path fill-rule="evenodd" d="M18 5.25a2.25 2.25 0 0 0-2.012-2.238A2.25 2.25 0 0 0 13.75 1h-1.5a2.25 2.25 0 0 0-2.238 2.012c-.875.092-1.6.686-1.884 1.488H11A2.5 2.5 0 0 1 13.5 7v7h2.25A2.25 2.25 0 0 0 18 11.75v-6.5ZM12.25 2.5a.75.75 0 0 0-.75.75v.25h3v-.25a.75.75 0 0 0-.75-.75h-1.5Z" clip-rule="evenodd"></path><path fill-rule="evenodd" d="M3 6a1 1 0 0 0-1 1v10a1 1 0 0 0 1 1h8a1 1 0 0 0 1-1V7a1 1 0 0 0-1-1H3Zm6.874 4.166a.75.75 0 1 0-1.248-.832l-2.493 3.739-.853-.853a.75.75 0 0 0-1.06 1.06l1.5 1.5a.75.75 0 0 0 1.154-.114l3-4.5Z" clip-rule="evenodd"></path></g>
    <path d="M36.39 24.14L36.39 24.14Q34.57 24.14 33.17 23.37Q31.77 22.59 30.98 21.21Q30.2 19.84 30.2 18.08L30.2 18.08L30.2 9.09L33.52 9.09L33.52 18.26Q33.52 19.15 33.89 19.8Q34.27 20.45 34.93 20.79Q35.59 21.14 36.39 21.14L36.39 21.14Q37.23 21.14 37.86 20.79Q38.49 20.45 38.86 19.81Q39.23 19.17 39.23 18.29L39.23 18.29L39.23 9.09L42.55 9.09L42.55 18.1Q42.55 19.86 41.77 21.23Q40.99 22.59 39.61 23.37Q38.22 24.14 36.39 24.14M54.83 23.91L51.62 23.91L51.62 18.1Q51.62 17.3 51.12 16.8Q50.63 16.31 49.87 16.31L49.87 16.31Q49.35 16.31 48.95 16.53Q48.55 16.75 48.32 17.16Q48.09 17.57 48.09 18.1L48.09 18.1L46.85 17.49Q46.85 16.29 47.38 15.39Q47.9 14.48 48.83 13.99Q49.77 13.5 50.95 13.5L50.95 13.5Q52.08 13.5 52.95 14.03Q53.82 14.57 54.33 15.45Q54.83 16.33 54.83 17.38L54.83 17.38L54.83 23.91M48.09 23.91L44.88 23.91L44.88 13.71L48.09 13.71L48.09 23.91M61.15 24.12L61.15 24.12Q59.74 24.12 58.64 23.43Q57.54 22.74 56.9 21.54Q56.26 20.34 56.26 18.81L56.26 18.81Q56.26 17.28 56.9 16.08Q57.54 14.88 58.64 14.19Q59.74 13.5 61.15 13.5L61.15 13.5Q62.18 13.5 63.01 13.9Q63.84 14.3 64.36 15Q64.89 15.7 64.95 16.61L64.95 16.61L64.95 21.02Q64.89 21.92 64.37 22.62Q63.86 23.33 63.02 23.72Q62.18 24.12 61.15 24.12M61.8 21.23L61.8 21.23Q62.83 21.23 63.46 20.54Q64.09 19.86 64.09 18.81L64.09 18.81Q64.09 18.1 63.81 17.55Q63.52 17 63.01 16.7Q62.5 16.4 61.82 16.4L61.82 16.4Q61.15 16.4 60.64 16.7Q60.12 17 59.82 17.55Q59.51 18.1 59.51 18.81L59.51 18.81Q59.51 19.5 59.81 20.05Q60.1 20.6 60.63 20.91Q61.15 21.23 61.8 21.23M67.12 23.91L63.97 23.91L63.97 21.16L64.45 18.68L63.97 16.21L63.97 13.71L67.12 13.71L67.12 23.91M79.34 23.91L76.12 23.91L76.12 18.1Q76.12 17.3 75.63 16.8Q75.14 16.31 74.38 16.31L74.38 16.31Q73.86 16.31 73.46 16.53Q73.06 16.75 72.83 17.16Q72.6 17.57 72.6 18.1L72.6 18.1L71.36 17.49Q71.36 16.29 71.88 15.39Q72.41 14.48 73.34 13.99Q74.28 13.5 75.45 13.5L75.45 13.5Q76.59 13.5 77.46 14.03Q78.33 14.57 78.83 15.45Q79.34 16.33 79.34 17.38L79.34 17.38L79.34 23.91M72.6 23.91L69.38 23.91L69.38 13.71L72.6 13.71L72.6 23.91M85.11 24.17L85.11 24.17Q84.21 24.17 83.34 23.93Q82.47 23.7 81.72 23.27Q80.98 22.84 80.45 22.28L80.45 22.28L82.28 20.43Q82.78 20.97 83.47 21.28Q84.17 21.58 84.99 21.58L84.99 21.58Q85.55 21.58 85.86 21.41Q86.16 21.25 86.16 20.95L86.16 20.95Q86.16 20.57 85.79 20.37Q85.43 20.18 84.86 20.02Q84.29 19.86 83.66 19.67Q83.03 19.48 82.47 19.15Q81.9 18.81 81.54 18.21Q81.19 17.61 81.19 16.69L81.19 16.69Q81.19 15.7 81.69 14.98Q82.19 14.25 83.12 13.83Q84.04 13.41 85.28 13.41L85.28 13.41Q86.58 13.41 87.68 13.86Q88.79 14.32 89.48 15.2L89.48 15.2L87.65 17.05Q87.17 16.48 86.57 16.25Q85.97 16.02 85.41 16.02L85.41 16.02Q84.86 16.02 84.59 16.17Q84.31 16.33 84.31 16.63L84.31 16.63Q84.31 16.94 84.67 17.13Q85.03 17.32 85.6 17.47Q86.16 17.61 86.79 17.82Q87.42 18.03 87.99 18.39Q88.56 18.75 88.91 19.35Q89.27 19.94 89.27 20.91L89.27 20.91Q89.27 22.4 88.15 23.28Q87.02 24.17 85.11 24.17M96.12 23.91L93.51 23.91L89.98 13.71L93.13 13.71L95.32 21.12L94.39 21.14L96.81 13.71L99.41 13.71L101.85 21.14L100.9 21.12L103.11 13.71L106.26 13.71L102.73 23.91L100.11 23.91L97.73 16.86L98.53 16.86L96.12 23.91M112.33 24.14L112.33 24.14Q110.67 24.14 109.38 23.46Q108.09 22.78 107.35 21.56Q106.62 20.34 106.62 18.81L106.62 18.81Q106.62 17.28 107.34 16.07Q108.07 14.86 109.3 14.17Q110.54 13.48 112.1 13.48L112.1 13.48Q113.61 13.48 114.76 14.13Q115.92 14.78 116.58 15.93Q117.24 17.09 117.24 18.58L117.24 18.58Q117.24 18.85 117.21 19.16Q117.18 19.46 117.1 19.86L117.1 19.86L108.3 19.88L108.3 17.68L115.73 17.66L114.34 18.58Q114.32 17.7 114.07 17.12Q113.82 16.54 113.33 16.24Q112.83 15.93 112.12 15.93L112.12 15.93Q111.36 15.93 110.81 16.28Q110.25 16.63 109.94 17.26Q109.64 17.89 109.64 18.79L109.64 18.79Q109.64 19.69 109.97 20.33Q110.29 20.97 110.89 21.32Q111.49 21.67 112.31 21.67L112.31 21.67Q113.06 21.67 113.67 21.4Q114.28 21.14 114.74 20.62L114.74 20.62L116.51 22.38Q115.75 23.26 114.68 23.7Q113.61 24.14 112.33 24.14M122.01 23.91L118.8 23.91L118.8 13.71L122.01 13.71L122.01 23.91M122.01 18.31L122.01 18.31L120.67 17.26Q121.06 15.47 122.01 14.48Q122.95 13.5 124.63 13.5L124.63 13.5Q125.37 13.5 125.93 13.72Q126.48 13.94 126.9 14.4L126.9 14.4L124.99 16.81Q124.78 16.58 124.47 16.46Q124.15 16.33 123.75 16.33L123.75 16.33Q122.95 16.33 122.48 16.83Q122.01 17.32 122.01 18.31M132.51 24.14L132.51 24.14Q130.85 24.14 129.56 23.46Q128.27 22.78 127.53 21.56Q126.8 20.34 126.8 18.81L126.8 18.81Q126.8 17.28 127.52 16.07Q128.25 14.86 129.49 14.17Q130.72 13.48 132.28 13.48L132.28 13.48Q133.79 13.48 134.95 14.13Q136.1 14.78 136.76 15.93Q137.42 17.09 137.42 18.58L137.42 18.58Q137.42 18.85 137.39 19.16Q137.36 19.46 137.28 19.86L137.28 19.86L128.48 19.88L128.48 17.68L135.91 17.66L134.53 18.58Q134.5 17.7 134.25 17.12Q134 16.54 133.51 16.24Q133.01 15.93 132.3 15.93L132.3 15.93Q131.54 15.93 130.99 16.28Q130.43 16.63 130.13 17.26Q129.82 17.89 129.82 18.79L129.82 18.79Q129.82 19.69 130.15 20.33Q130.47 20.97 131.07 21.32Q131.67 21.67 132.49 21.67L132.49 21.67Q133.24 21.67 133.85 21.4Q134.46 21.14 134.92 20.62L134.92 20.62L136.69 22.38Q135.93 23.26 134.86 23.7Q133.79 24.14 132.51 24.14M143.32 24.12L143.32 24.12Q141.88 24.12 140.75 23.43Q139.63 22.74 138.99 21.54Q138.35 20.34 138.35 18.81L138.35 18.81Q138.35 17.28 138.99 16.08Q139.63 14.88 140.75 14.19Q141.88 13.5 143.32 13.5L143.32 13.5Q144.37 13.5 145.22 13.9Q146.08 14.3 146.63 15Q147.19 15.7 147.25 16.61L147.25 16.61L147.25 20.91Q147.19 21.81 146.64 22.54Q146.1 23.26 145.24 23.69Q144.37 24.12 143.32 24.12M143.89 21.23L143.89 21.23Q144.58 21.23 145.09 20.92Q145.59 20.62 145.89 20.07Q146.18 19.52 146.18 18.81L146.18 18.81Q146.18 18.1 145.9 17.56Q145.61 17.02 145.1 16.71Q144.58 16.4 143.91 16.4L143.91 16.4Q143.24 16.4 142.73 16.71Q142.21 17.02 141.91 17.57Q141.6 18.12 141.6 18.81L141.6 18.81Q141.6 19.5 141.9 20.05Q142.19 20.6 142.72 20.91Q143.24 21.23 143.89 21.23M149.2 8.67L149.2 23.91L146.05 23.91L146.05 21.16L146.54 18.68L145.99 16.21L145.99 8.67L149.2 8.67M162.79 24.14L162.79 24.14Q161.13 24.14 159.71 23.57Q158.3 22.99 157.24 21.94Q156.18 20.89 155.59 19.49Q155 18.1 155 16.48L155 16.48Q155 14.86 155.59 13.47Q156.18 12.07 157.23 11.04Q158.28 10.01 159.69 9.43Q161.11 8.86 162.77 8.86L162.77 8.86Q164.53 8.86 165.91 9.42Q167.29 9.99 168.31 10.98L168.31 10.98L166.11 13.2Q165.52 12.57 164.69 12.22Q163.86 11.86 162.77 11.86L162.77 11.86Q161.8 11.86 161 12.18Q160.19 12.51 159.61 13.12Q159.03 13.73 158.71 14.59Q158.38 15.45 158.38 16.48L158.38 16.48Q158.38 17.53 158.71 18.39Q159.03 19.25 159.61 19.86Q160.19 20.47 161 20.81Q161.8 21.14 162.77 21.14L162.77 21.14Q163.9 21.14 164.74 20.78Q165.58 20.43 166.19 19.8L166.19 19.8L168.42 22.02Q167.35 23.01 165.97 23.58Q164.6 24.14 162.79 24.14M179.89 23.91L176.67 23.91L176.67 18.1Q176.67 17.3 176.18 16.8Q175.69 16.31 174.93 16.31L174.93 16.31Q174.4 16.31 174.01 16.53Q173.61 16.75 173.38 17.16Q173.14 17.57 173.14 18.1L173.14 18.1L171.91 17.49Q171.91 16.29 172.41 15.39Q172.91 14.48 173.82 13.99Q174.72 13.5 175.9 13.5L175.9 13.5Q177.09 13.5 178 13.99Q178.9 14.48 179.39 15.36Q179.89 16.23 179.89 17.38L179.89 17.38L179.89 23.91M173.14 23.91L169.93 23.91L169.93 8.67L173.14 8.67L173.14 23.91M186.98 24.14L186.98 24.14Q185.32 24.14 184.03 23.46Q182.74 22.78 182.01 21.56Q181.27 20.34 181.27 18.81L181.27 18.81Q181.27 17.28 182 16.07Q182.72 14.86 183.96 14.17Q185.2 13.48 186.75 13.48L186.75 13.48Q188.26 13.48 189.42 14.13Q190.57 14.78 191.24 15.93Q191.9 17.09 191.9 18.58L191.9 18.58Q191.9 18.85 191.87 19.16Q191.83 19.46 191.75 19.86L191.75 19.86L182.95 19.88L182.95 17.68L190.39 17.66L189 18.58Q188.98 17.7 188.73 17.12Q188.47 16.54 187.98 16.24Q187.49 15.93 186.77 15.93L186.77 15.93Q186.02 15.93 185.46 16.28Q184.9 16.63 184.6 17.26Q184.3 17.89 184.3 18.79L184.3 18.79Q184.3 19.69 184.62 20.33Q184.95 20.97 185.54 21.32Q186.14 21.67 186.96 21.67L186.96 21.67Q187.72 21.67 188.33 21.4Q188.94 21.14 189.4 20.62L189.4 20.62L191.16 22.38Q190.41 23.26 189.34 23.7Q188.26 24.14 186.98 24.14M198.39 24.14L198.39 24.14Q196.81 24.14 195.53 23.45Q194.25 22.76 193.51 21.54Q192.78 20.32 192.78 18.81L192.78 18.81Q192.78 17.28 193.52 16.07Q194.27 14.86 195.55 14.17Q196.83 13.48 198.43 13.48L198.43 13.48Q199.63 13.48 200.62 13.89Q201.62 14.3 202.4 15.11L202.4 15.11L200.34 17.17Q199.98 16.77 199.51 16.58Q199.04 16.4 198.43 16.4L198.43 16.4Q197.74 16.4 197.2 16.7Q196.66 17 196.36 17.54Q196.06 18.08 196.06 18.79L196.06 18.79Q196.06 19.5 196.36 20.05Q196.66 20.6 197.21 20.91Q197.76 21.23 198.43 21.23L198.43 21.23Q199.06 21.23 199.55 21Q200.05 20.78 200.4 20.39L200.4 20.39L202.44 22.44Q201.64 23.28 200.63 23.71Q199.63 24.14 198.39 24.14M214.18 23.91L210.4 23.91L206.83 18.62L210.38 13.71L213.97 13.71L209.68 19.23L209.79 17.91L214.18 23.91M207.08 23.91L203.87 23.91L203.87 8.67L207.08 8.67L207.08 23.91M218.55 23.91L215.33 23.91L215.33 8.67L218.55 8.67L218.55 23.91M224.03 23.91L220.81 23.91L220.81 13.71L224.03 13.71L224.03 23.91M222.43 12.3L222.43 12.3Q221.68 12.3 221.18 11.79Q220.69 11.27 220.69 10.54L220.69 10.54Q220.69 9.78 221.18 9.28Q221.68 8.77 222.43 8.77L222.43 8.77Q223.19 8.77 223.67 9.28Q224.15 9.78 224.15 10.54L224.15 10.54Q224.15 11.27 223.67 11.79Q223.19 12.3 222.43 12.3M230.01 24.17L230.01 24.17Q229.11 24.17 228.24 23.93Q227.37 23.7 226.62 23.27Q225.88 22.84 225.35 22.28L225.35 22.28L227.18 20.43Q227.68 20.97 228.37 21.28Q229.07 21.58 229.89 21.58L229.89 21.58Q230.45 21.58 230.76 21.41Q231.06 21.25 231.06 20.95L231.06 20.95Q231.06 20.57 230.69 20.37Q230.33 20.18 229.76 20.02Q229.19 19.86 228.56 19.67Q227.93 19.48 227.37 19.15Q226.8 18.81 226.44 18.21Q226.09 17.61 226.09 16.69L226.09 16.69Q226.09 15.7 226.59 14.98Q227.09 14.25 228.02 13.83Q228.94 13.41 230.18 13.41L230.18 13.41Q231.48 13.41 232.58 13.86Q233.69 14.32 234.38 15.2L234.38 15.2L232.55 17.05Q232.07 16.48 231.47 16.25Q230.87 16.02 230.31 16.02L230.31 16.02Q229.76 16.02 229.49 16.17Q229.21 16.33 229.21 16.63L229.21 16.63Q229.21 16.94 229.57 17.13Q229.93 17.32 230.5 17.47Q231.06 17.61 231.69 17.82Q232.32 18.03 232.89 18.39Q233.46 18.75 233.81 19.35Q234.17 19.94 234.17 20.91L234.17 20.91Q234.17 22.4 233.05 23.28Q231.92 24.17 230.01 24.17M240.58 23.91L237.36 23.91L237.36 9.49L240.58 9.49L240.58 23.91M242.89 16.44L235.05 16.44L235.05 13.71L242.89 13.71L242.89 16.44M255.65 24.17L255.65 24.17Q253.99 24.17 252.57 23.58Q251.14 22.99 250.08 21.94Q249.02 20.89 248.42 19.49Q247.82 18.1 247.82 16.48L247.82 16.48Q247.82 14.84 248.41 13.46Q249 12.07 250.06 11.03Q251.12 9.99 252.53 9.41Q253.95 8.83 255.61 8.83L255.61 8.83Q257.29 8.83 258.71 9.41Q260.13 9.99 261.19 11.03Q262.25 12.07 262.84 13.47Q263.42 14.86 263.42 16.5L263.42 16.5Q263.42 18.12 262.84 19.51Q262.25 20.91 261.19 21.95Q260.13 22.99 258.72 23.58Q257.31 24.17 255.65 24.17M264.18 23.18L262.27 25.09L255.34 18.16L257.25 16.25L264.18 23.18M255.61 21.16L255.61 21.16Q256.96 21.16 257.94 20.57Q258.93 19.99 259.49 18.93Q260.04 17.87 260.04 16.48L260.04 16.48Q260.04 15.43 259.73 14.58Q259.41 13.73 258.82 13.11Q258.24 12.49 257.43 12.16Q256.62 11.84 255.61 11.84L255.61 11.84Q254.29 11.84 253.3 12.42Q252.31 12.99 251.76 14.03Q251.2 15.07 251.2 16.48L251.2 16.48Q251.2 17.53 251.52 18.39Q251.83 19.25 252.42 19.87Q253.01 20.49 253.82 20.83Q254.62 21.16 255.61 21.16M270.02 24.14L270.02 24.14Q268.61 24.14 267.53 23.57Q266.45 22.99 265.84 21.97Q265.23 20.95 265.23 19.63L265.23 19.63L265.23 13.71L268.44 13.71L268.44 19.59Q268.44 20.11 268.62 20.49Q268.8 20.87 269.16 21.08Q269.51 21.29 270.02 21.29L270.02 21.29Q270.73 21.29 271.15 20.84Q271.57 20.39 271.57 19.59L271.57 19.59L271.57 13.71L274.78 13.71L274.78 19.61Q274.78 20.95 274.18 21.97Q273.57 22.99 272.5 23.57Q271.42 24.14 270.02 24.14M281.84 24.14L281.84 24.14Q280.18 24.14 278.89 23.46Q277.6 22.78 276.86 21.56Q276.13 20.34 276.13 18.81L276.13 18.81Q276.13 17.28 276.85 16.07Q277.58 14.86 278.82 14.17Q280.06 13.48 281.61 13.48L281.61 13.48Q283.12 13.48 284.28 14.13Q285.43 14.78 286.09 15.93Q286.75 17.09 286.75 18.58L286.75 18.58Q286.75 18.85 286.72 19.16Q286.69 19.46 286.61 19.86L286.61 19.86L277.81 19.88L277.81 17.68L285.24 17.66L283.86 18.58Q283.84 17.7 283.58 17.12Q283.33 16.54 282.84 16.24Q282.34 15.93 281.63 15.93L281.63 15.93Q280.87 15.93 280.32 16.28Q279.76 16.63 279.46 17.26Q279.15 17.89 279.15 18.79L279.15 18.79Q279.15 19.69 279.48 20.33Q279.8 20.97 280.4 21.32Q281 21.67 281.82 21.67L281.82 21.67Q282.58 21.67 283.18 21.4Q283.79 21.14 284.26 20.62L284.26 20.62L286.02 22.38Q285.26 23.26 284.19 23.7Q283.12 24.14 281.84 24.14M292.03 24.17L292.03 24.17Q291.12 24.17 290.25 23.93Q289.38 23.7 288.63 23.27Q287.89 22.84 287.36 22.28L287.36 22.28L289.19 20.43Q289.69 20.97 290.39 21.28Q291.08 21.58 291.9 21.58L291.9 21.58Q292.47 21.58 292.77 21.41Q293.08 21.25 293.08 20.95L293.08 20.95Q293.08 20.57 292.71 20.37Q292.34 20.18 291.77 20.02Q291.21 19.86 290.58 19.67Q289.95 19.48 289.38 19.15Q288.81 18.81 288.46 18.21Q288.1 17.61 288.1 16.69L288.1 16.69Q288.1 15.7 288.6 14.98Q289.11 14.25 290.03 13.83Q290.95 13.41 292.19 13.41L292.19 13.41Q293.5 13.41 294.6 13.86Q295.7 14.32 296.39 15.2L296.39 15.2L294.57 17.05Q294.08 16.48 293.48 16.25Q292.89 16.02 292.32 16.02L292.32 16.02Q291.77 16.02 291.5 16.17Q291.23 16.33 291.23 16.63L291.23 16.63Q291.23 16.94 291.58 17.13Q291.94 17.32 292.51 17.47Q293.08 17.61 293.71 17.82Q294.34 18.03 294.9 18.39Q295.47 18.75 295.83 19.35Q296.18 19.94 296.18 20.91L296.18 20.91Q296.18 22.4 295.06 23.28Q293.94 24.17 292.03 24.17M302.59 23.91L299.38 23.91L299.38 9.49L302.59 9.49L302.59 23.91M304.9 16.44L297.07 16.44L297.07 13.71L304.9 13.71L304.9 16.44M309.52 23.91L306.31 23.91L306.31 13.71L309.52 13.71L309.52 23.91M307.92 12.3L307.92 12.3Q307.17 12.3 306.67 11.79Q306.18 11.27 306.18 10.54L306.18 10.54Q306.18 9.78 306.67 9.28Q307.17 8.77 307.92 8.77L307.92 8.77Q308.68 8.77 309.16 9.28Q309.64 9.78 309.64 10.54L309.64 10.54Q309.64 11.27 309.16 11.79Q308.68 12.3 307.92 12.3M316.7 24.14L316.7 24.14Q315.13 24.14 313.85 23.44Q312.58 22.74 311.85 21.52Q311.11 20.3 311.11 18.79L311.11 18.79Q311.11 17.28 311.85 16.08Q312.58 14.88 313.84 14.18Q315.1 13.48 316.7 13.48L316.7 13.48Q318.3 13.48 319.56 14.17Q320.82 14.86 321.55 16.07Q322.29 17.28 322.29 18.79L322.29 18.79Q322.29 20.3 321.55 21.52Q320.82 22.74 319.56 23.44Q318.3 24.14 316.7 24.14M316.7 21.23L316.7 21.23Q317.39 21.23 317.92 20.92Q318.44 20.62 318.73 20.06Q319.01 19.5 319.01 18.79L319.01 18.79Q319.01 18.08 318.72 17.54Q318.42 17 317.91 16.7Q317.39 16.4 316.7 16.4L316.7 16.4Q316.03 16.4 315.5 16.7Q314.98 17 314.68 17.55Q314.39 18.1 314.39 18.81L314.39 18.81Q314.39 19.5 314.68 20.06Q314.98 20.62 315.5 20.92Q316.03 21.23 316.7 21.23M333.84 23.91L330.62 23.91L330.62 18.1Q330.62 17.3 330.13 16.8Q329.64 16.31 328.88 16.31L328.88 16.31Q328.36 16.31 327.96 16.53Q327.56 16.75 327.33 17.16Q327.1 17.57 327.1 18.1L327.1 18.1L325.86 17.49Q325.86 16.29 326.38 15.39Q326.91 14.48 327.84 13.99Q328.78 13.5 329.95 13.5L329.95 13.5Q331.09 13.5 331.96 14.03Q332.83 14.57 333.33 15.45Q333.84 16.33 333.84 17.38L333.84 17.38L333.84 23.91M327.1 23.91L323.88 23.91L323.88 13.71L327.1 13.71L327.1 23.91M339.61 24.17L339.61 24.17Q338.71 24.17 337.84 23.93Q336.97 23.7 336.22 23.27Q335.47 22.84 334.95 22.28L334.95 22.28L336.78 20.43Q337.28 20.97 337.97 21.28Q338.67 21.58 339.49 21.58L339.49 21.58Q340.05 21.58 340.36 21.41Q340.66 21.25 340.66 20.95L340.66 20.95Q340.66 20.57 340.29 20.37Q339.93 20.18 339.36 20.02Q338.79 19.86 338.16 19.67Q337.53 19.48 336.97 19.15Q336.4 18.81 336.04 18.21Q335.68 17.61 335.68 16.69L335.68 16.69Q335.68 15.7 336.19 14.98Q336.69 14.25 337.62 13.83Q338.54 13.41 339.78 13.41L339.78 13.41Q341.08 13.41 342.18 13.86Q343.29 14.32 343.98 15.2L343.98 15.2L342.15 17.05Q341.67 16.48 341.07 16.25Q340.47 16.02 339.91 16.02L339.91 16.02Q339.36 16.02 339.09 16.17Q338.81 16.33 338.81 16.63L338.81 16.63Q338.81 16.94 339.17 17.13Q339.53 17.32 340.09 17.47Q340.66 17.61 341.29 17.82Q341.92 18.03 342.49 18.39Q343.06 18.75 343.41 19.35Q343.77 19.94 343.77 20.91L343.77 20.91Q343.77 22.4 342.65 23.28Q341.52 24.17 339.61 24.17"></path>
  </g>
  <rect class="rule" x="0" y="32" width="345" height="1"></rect>
</svg>
