<svg width="341" height="19" viewBox="0 0 341 19" xmlns="http://www.w3.org/2000/svg" role="img" aria-label="Unanswered Checklist Questions">
  <style>
    .ink { fill: #172032; }
    @media (prefers-color-scheme: dark) {
      .ink { fill: rgb(230,234,242); }
    }
  </style>
  <g class="ink">
    <g class="ink" transform="translate(1,0) scale(1)"><path fill-rule="evenodd" d="M18 5.25a2.25 2.25 0 0 0-2.012-2.238A2.25 2.25 0 0 0 13.75 1h-1.5a2.25 2.25 0 0 0-2.238 2.012c-.875.092-1.6.686-1.884 1.488H11A2.5 2.5 0 0 1 13.5 7v7h2.25A2.25 2.25 0 0 0 18 11.75v-6.5ZM12.25 2.5a.75.75 0 0 0-.75.75v.25h3v-.25a.75.75 0 0 0-.75-.75h-1.5Z" clip-rule="evenodd"></path><path fill-rule="evenodd" d="M3 6a1 1 0 0 0-1 1v10a1 1 0 0 0 1 1h8a1 1 0 0 0 1-1V7a1 1 0 0 0-1-1H3Zm6.874 4.166a.75.75 0 1 0-1.248-.832l-2.493 3.739-.853-.853a.75.75 0 0 0-1.06 1.06l1.5 1.5a.75.75 0 0 0 1.154-.114l3-4.5Z" clip-rule="evenodd"></path></g>
    <path d="M37.33 17.09L37.33 17.09Q35.59 17.09 34.23 16.33Q32.88 15.56 32.1 14.21Q31.32 12.87 31.32 11.17L31.32 11.17L31.32 2.12L34.18 2.12L34.18 11.25Q34.18 12.24 34.59 12.95Q35 13.67 35.72 14.06Q36.45 14.45 37.33 14.45L37.33 14.45Q38.23 14.45 38.92 14.06Q39.62 13.67 40.03 12.95Q40.44 12.24 40.44 11.27L40.44 11.27L40.44 2.12L43.31 2.12L43.31 11.19Q43.31 12.89 42.54 14.22Q41.76 15.56 40.43 16.33Q39.09 17.09 37.33 17.09M55.41 16.88L52.66 16.88L52.66 11.06Q52.66 10.16 52.09 9.59Q51.53 9.03 50.62 9.03L50.62 9.03Q50.03 9.03 49.57 9.28Q49.11 9.53 48.85 9.99Q48.59 10.46 48.59 11.06L48.59 11.06L47.51 10.52Q47.51 9.32 48.03 8.43Q48.54 7.54 49.46 7.03Q50.37 6.53 51.53 6.53L51.53 6.53Q52.64 6.53 53.52 7.08Q54.4 7.64 54.91 8.53Q55.41 9.43 55.41 10.46L55.41 10.46L55.41 16.88M48.59 16.88L45.83 16.88L45.83 6.74L48.59 6.74L48.59 16.88M61.88 17.09L61.88 17.09Q60.49 17.09 59.38 16.4Q58.27 15.71 57.64 14.51Q57.01 13.31 57.01 11.82L57.01 11.82Q57.01 10.31 57.64 9.11Q58.27 7.91 59.38 7.22Q60.49 6.53 61.88 6.53L61.88 6.53Q62.97 6.53 63.83 6.97Q64.69 7.41 65.21 8.2Q65.72 8.99 65.76 9.97L65.76 9.97L65.76 13.63Q65.72 14.63 65.21 15.41Q64.69 16.19 63.83 16.64Q62.97 17.09 61.88 17.09M62.38 14.55L62.38 14.55Q63.54 14.55 64.25 13.78Q64.97 13.02 64.97 11.8L64.97 11.8Q64.97 11 64.64 10.38Q64.31 9.76 63.74 9.42Q63.16 9.07 62.38 9.07L62.38 9.07Q61.63 9.07 61.05 9.42Q60.47 9.76 60.15 10.38Q59.82 11 59.82 11.8L59.82 11.8Q59.82 12.62 60.15 13.24Q60.47 13.86 61.05 14.2Q61.63 14.55 62.38 14.55M67.55 16.88L64.82 16.88L64.82 14.15L65.26 11.67L64.82 9.24L64.82 6.74L67.55 6.74L67.55 16.88M79.56 16.88L76.81 16.88L76.81 11.06Q76.81 10.16 76.24 9.59Q75.68 9.03 74.77 9.03L74.77 9.03Q74.18 9.03 73.72 9.28Q73.26 9.53 73 9.99Q72.74 10.46 72.74 11.06L72.74 11.06L71.66 10.52Q71.66 9.32 72.18 8.43Q72.69 7.54 73.61 7.03Q74.52 6.53 75.68 6.53L75.68 6.53Q76.79 6.53 77.67 7.08Q78.55 7.64 79.06 8.53Q79.56 9.43 79.56 10.46L79.56 10.46L79.56 16.88M72.74 16.88L69.98 16.88L69.98 6.74L72.74 6.74L72.74 16.88M85.27 17.11L85.27 17.11Q84.41 17.11 83.58 16.88Q82.75 16.65 82.06 16.24Q81.37 15.83 80.86 15.24L80.86 15.24L82.5 13.58Q83.03 14.17 83.72 14.47Q84.41 14.76 85.25 14.76L85.25 14.76Q85.92 14.76 86.27 14.57Q86.62 14.38 86.62 14L86.62 14Q86.62 13.58 86.25 13.35Q85.88 13.12 85.29 12.97Q84.71 12.81 84.06 12.61Q83.42 12.41 82.84 12.08Q82.25 11.76 81.88 11.18Q81.51 10.6 81.51 9.68L81.51 9.68Q81.51 8.71 81.99 8Q82.46 7.28 83.34 6.89Q84.22 6.49 85.42 6.49L85.42 6.49Q86.68 6.49 87.7 6.93Q88.72 7.37 89.39 8.25L89.39 8.25L87.73 9.91Q87.27 9.34 86.69 9.09Q86.11 8.84 85.44 8.84L85.44 8.84Q84.83 8.84 84.51 9.03Q84.18 9.22 84.18 9.55L84.18 9.55Q84.18 9.93 84.55 10.14Q84.92 10.35 85.5 10.51Q86.09 10.67 86.73 10.86Q87.37 11.06 87.95 11.42Q88.53 11.78 88.89 12.37Q89.26 12.95 89.26 13.88L89.26 13.88Q89.26 15.37 88.19 16.24Q87.12 17.11 85.27 17.11M95.79 16.88L93.82 16.88L90.02 6.74L92.79 6.74L95.27 14.11L94.43 14.13L96.97 6.74L98.96 6.74L101.51 14.13L100.67 14.11L103.14 6.74L105.92 6.74L102.14 16.88L100.14 16.88L97.58 9.87L98.36 9.87L95.79 16.88M111.88 17.09L111.88 17.09Q110.28 17.09 109.04 16.41Q107.81 15.73 107.08 14.53Q106.36 13.33 106.36 11.8L106.36 11.8Q106.36 10.29 107.06 9.1Q107.76 7.91 108.98 7.21Q110.2 6.51 111.69 6.51L111.69 6.51Q113.16 6.51 114.28 7.17Q115.41 7.83 116.05 8.97Q116.69 10.12 116.69 11.57L116.69 11.57Q116.69 11.84 116.66 12.13Q116.63 12.41 116.54 12.77L116.54 12.77L108.02 12.79L108.02 10.73L115.26 10.71L114.15 11.57Q114.11 10.67 113.82 10.06Q113.54 9.45 113 9.12Q112.47 8.8 111.69 8.8L111.69 8.8Q110.87 8.8 110.26 9.16Q109.65 9.53 109.33 10.19Q109 10.85 109 11.76L109 11.76Q109 12.68 109.35 13.36Q109.7 14.05 110.35 14.41Q111 14.78 111.86 14.78L111.86 14.78Q112.64 14.78 113.27 14.52Q113.9 14.26 114.36 13.73L114.36 13.73L115.97 15.35Q115.24 16.21 114.18 16.65Q113.12 17.09 111.88 17.09M121.14 16.88L118.39 16.88L118.39 6.74L121.14 6.74L121.14 16.88M121.14 11.27L121.14 11.27L120.07 10.56Q120.26 8.69 121.16 7.61Q122.06 6.53 123.77 6.53L123.77 6.53Q124.5 6.53 125.09 6.77Q125.68 7.01 126.16 7.56L126.16 7.56L124.44 9.53Q124.21 9.28 123.88 9.15Q123.56 9.03 123.14 9.03L123.14 9.03Q122.25 9.03 121.7 9.58Q121.14 10.14 121.14 11.27M131.7 17.09L131.7 17.09Q130.11 17.09 128.87 16.41Q127.63 15.73 126.9 14.53Q126.18 13.33 126.18 11.8L126.18 11.8Q126.18 10.29 126.88 9.1Q127.59 7.91 128.81 7.21Q130.02 6.51 131.51 6.51L131.51 6.51Q132.98 6.51 134.11 7.17Q135.23 7.83 135.87 8.97Q136.51 10.12 136.51 11.57L136.51 11.57Q136.51 11.84 136.48 12.13Q136.45 12.41 136.37 12.77L136.37 12.77L127.84 12.79L127.84 10.73L135.08 10.71L133.97 11.57Q133.93 10.67 133.65 10.06Q133.36 9.45 132.83 9.12Q132.29 8.8 131.51 8.8L131.51 8.8Q130.7 8.8 130.09 9.16Q129.48 9.53 129.15 10.19Q128.83 10.85 128.83 11.76L128.83 11.76Q128.83 12.68 129.17 13.36Q129.52 14.05 130.17 14.41Q130.82 14.78 131.68 14.78L131.68 14.78Q132.46 14.78 133.09 14.52Q133.72 14.26 134.18 13.73L134.18 13.73L135.8 15.35Q135.06 16.21 134 16.65Q132.94 17.09 131.7 17.09M142.5 17.09L142.5 17.09Q141.09 17.09 139.98 16.4Q138.86 15.71 138.22 14.51Q137.58 13.31 137.58 11.82L137.58 11.82Q137.58 10.31 138.22 9.11Q138.86 7.91 139.97 7.22Q141.07 6.53 142.5 6.53L142.5 6.53Q143.59 6.53 144.46 6.97Q145.33 7.41 145.87 8.2Q146.4 8.99 146.45 9.97L146.45 9.97L146.45 13.58Q146.4 14.57 145.88 15.37Q145.35 16.17 144.47 16.63Q143.59 17.09 142.5 17.09M142.96 14.55L142.96 14.55Q143.74 14.55 144.31 14.2Q144.89 13.86 145.22 13.24Q145.54 12.62 145.54 11.8L145.54 11.8Q145.54 11 145.22 10.38Q144.89 9.76 144.31 9.42Q143.74 9.07 142.98 9.07L142.98 9.07Q142.2 9.07 141.63 9.43Q141.05 9.78 140.72 10.39Q140.4 11 140.4 11.8L140.4 11.8Q140.4 12.62 140.72 13.24Q141.05 13.86 141.64 14.2Q142.22 14.55 142.96 14.55M148.13 1.7L148.13 16.88L145.4 16.88L145.4 14.15L145.84 11.67L145.37 9.24L145.37 1.7L148.13 1.7M161.8 17.09L161.8 17.09Q160.18 17.09 158.79 16.51Q157.41 15.94 156.37 14.9Q155.33 13.86 154.77 12.47Q154.22 11.09 154.22 9.49L154.22 9.49Q154.22 7.89 154.77 6.51Q155.33 5.12 156.37 4.09Q157.41 3.06 158.78 2.48Q160.16 1.89 161.8 1.89L161.8 1.89Q163.56 1.89 164.9 2.46Q166.25 3.04 167.28 4.05L167.28 4.05L165.35 5.98Q164.74 5.31 163.85 4.93Q162.97 4.55 161.8 4.55L161.8 4.55Q160.77 4.55 159.92 4.9Q159.07 5.25 158.44 5.91Q157.81 6.57 157.47 7.48Q157.13 8.4 157.13 9.49L157.13 9.49Q157.13 10.6 157.47 11.51Q157.81 12.41 158.44 13.07Q159.07 13.73 159.92 14.09Q160.77 14.45 161.8 14.45L161.8 14.45Q163.04 14.45 163.93 14.07Q164.82 13.69 165.43 13L165.43 13L167.36 14.93Q166.33 15.96 164.97 16.52Q163.6 17.09 161.8 17.09M178.64 16.88L175.89 16.88L175.89 11.06Q175.89 10.16 175.32 9.59Q174.75 9.03 173.85 9.03L173.85 9.03Q173.26 9.03 172.8 9.28Q172.34 9.53 172.08 9.99Q171.81 10.46 171.81 11.06L171.81 11.06L170.74 10.52Q170.74 9.32 171.25 8.43Q171.75 7.54 172.64 7.03Q173.54 6.53 174.69 6.53L174.69 6.53Q175.85 6.53 176.74 7.03Q177.63 7.54 178.13 8.42Q178.64 9.3 178.64 10.46L178.64 10.46L178.64 16.88M171.81 16.88L169.06 16.88L169.06 1.7L171.81 1.7L171.81 16.88M185.72 17.09L185.72 17.09Q184.12 17.09 182.88 16.41Q181.64 15.73 180.92 14.53Q180.19 13.33 180.19 11.8L180.19 11.8Q180.19 10.29 180.9 9.1Q181.6 7.91 182.82 7.21Q184.04 6.51 185.53 6.51L185.53 6.51Q187 6.51 188.12 7.17Q189.24 7.83 189.88 8.97Q190.52 10.12 190.52 11.57L190.52 11.57Q190.52 11.84 190.49 12.13Q190.46 12.41 190.38 12.77L190.38 12.77L181.85 12.79L181.85 10.73L189.1 10.71L187.98 11.57Q187.94 10.67 187.66 10.06Q187.37 9.45 186.84 9.12Q186.3 8.8 185.53 8.8L185.53 8.8Q184.71 8.8 184.1 9.16Q183.49 9.53 183.16 10.19Q182.84 10.85 182.84 11.76L182.84 11.76Q182.84 12.68 183.18 13.36Q183.53 14.05 184.18 14.41Q184.83 14.78 185.69 14.78L185.69 14.78Q186.47 14.78 187.1 14.52Q187.73 14.26 188.19 13.73L188.19 13.73L189.81 15.35Q189.08 16.21 188.01 16.65Q186.95 17.09 185.72 17.09M197.01 17.09L197.01 17.09Q195.46 17.09 194.22 16.4Q192.98 15.71 192.27 14.51Q191.55 13.31 191.55 11.82L191.55 11.82Q191.55 10.31 192.27 9.11Q192.98 7.91 194.23 7.21Q195.48 6.51 197.01 6.51L197.01 6.51Q198.21 6.51 199.22 6.95Q200.23 7.39 200.96 8.21L200.96 8.21L199.2 9.99Q198.8 9.55 198.24 9.32Q197.69 9.09 197.01 9.09L197.01 9.09Q196.26 9.09 195.66 9.44Q195.06 9.78 194.71 10.38Q194.37 10.98 194.37 11.8L194.37 11.8Q194.37 12.6 194.71 13.22Q195.06 13.84 195.66 14.18Q196.26 14.53 197.01 14.53L197.01 14.53Q197.71 14.53 198.26 14.29Q198.82 14.05 199.22 13.58L199.22 13.58L201 15.37Q200.23 16.21 199.22 16.65Q198.21 17.09 197.01 17.09M212.39 16.88L209.03 16.88L205.1 11.65L209 6.74L212.18 6.74L207.6 12.28L207.7 10.94L212.39 16.88M205.31 16.88L202.56 16.88L202.56 1.7L205.31 1.7L205.31 16.88M216.4 16.88L213.65 16.88L213.65 1.7L216.4 1.7L216.4 16.88M221.6 16.88L218.83 16.88L218.83 6.74L221.6 6.74L221.6 16.88M220.22 5.1L220.22 5.1Q219.55 5.1 219.11 4.65Q218.66 4.2 218.66 3.53L218.66 3.53Q218.66 2.87 219.11 2.41Q219.55 1.95 220.22 1.95L220.22 1.95Q220.91 1.95 221.34 2.41Q221.77 2.87 221.77 3.53L221.77 3.53Q221.77 4.2 221.34 4.65Q220.91 5.1 220.22 5.1M227.53 17.11L227.53 17.11Q226.67 17.11 225.84 16.88Q225.01 16.65 224.31 16.24Q223.62 15.83 223.12 15.24L223.12 15.24L224.75 13.58Q225.28 14.17 225.97 14.47Q226.67 14.76 227.51 14.76L227.51 14.76Q228.18 14.76 228.52 14.57Q228.87 14.38 228.87 14L228.87 14Q228.87 13.58 228.5 13.35Q228.14 13.12 227.55 12.97Q226.96 12.81 226.32 12.61Q225.68 12.41 225.09 12.08Q224.5 11.76 224.13 11.18Q223.77 10.6 223.77 9.68L223.77 9.68Q223.77 8.71 224.24 8Q224.71 7.28 225.59 6.89Q226.48 6.49 227.67 6.49L227.67 6.49Q228.93 6.49 229.95 6.93Q230.97 7.37 231.64 8.25L231.64 8.25L229.98 9.91Q229.52 9.34 228.94 9.09Q228.37 8.84 227.69 8.84L227.69 8.84Q227.09 8.84 226.76 9.03Q226.43 9.22 226.43 9.55L226.43 9.55Q226.43 9.93 226.8 10.14Q227.17 10.35 227.76 10.51Q228.35 10.67 228.99 10.86Q229.63 11.06 230.2 11.42Q230.78 11.78 231.15 12.37Q231.52 12.95 231.52 13.88L231.52 13.88Q231.52 15.37 230.45 16.24Q229.37 17.11 227.53 17.11M237.61 16.88L234.86 16.88L234.86 2.52L237.61 2.52L237.61 16.88M239.98 9.15L232.48 9.15L232.48 6.74L239.98 6.74L239.98 9.15M252.85 17.11L252.85 17.11Q251.24 17.11 249.84 16.52Q248.44 15.94 247.39 14.9Q246.34 13.86 245.76 12.46Q245.19 11.06 245.19 9.47L245.19 9.47Q245.19 7.87 245.76 6.5Q246.34 5.12 247.38 4.08Q248.42 3.04 249.81 2.46Q251.19 1.89 252.81 1.89L252.81 1.89Q254.43 1.89 255.81 2.46Q257.2 3.04 258.25 4.08Q259.3 5.12 259.88 6.51Q260.45 7.89 260.45 9.49L260.45 9.49Q260.45 11.09 259.88 12.47Q259.3 13.86 258.26 14.9Q257.22 15.94 255.83 16.52Q254.45 17.11 252.85 17.11M261.25 16.25L259.51 17.97L252.75 11.21L254.47 9.47L261.25 16.25M252.81 14.45L252.81 14.45Q254.22 14.45 255.28 13.82Q256.34 13.19 256.94 12.07Q257.54 10.96 257.54 9.47L257.54 9.47Q257.54 8.38 257.19 7.47Q256.84 6.57 256.21 5.91Q255.58 5.25 254.72 4.89Q253.86 4.53 252.81 4.53L252.81 4.53Q251.42 4.53 250.36 5.15Q249.3 5.77 248.7 6.89Q248.11 8 248.11 9.47L248.11 9.47Q248.11 10.58 248.45 11.51Q248.8 12.43 249.42 13.08Q250.04 13.73 250.91 14.09Q251.78 14.45 252.81 14.45M267.17 17.09L267.17 17.09Q265.83 17.09 264.79 16.52Q263.75 15.96 263.16 14.95Q262.58 13.94 262.58 12.62L262.58 12.62L262.58 6.74L265.35 6.74L265.35 12.56Q265.35 13.19 265.56 13.64Q265.77 14.09 266.19 14.32Q266.61 14.55 267.17 14.55L267.17 14.55Q268.04 14.55 268.52 14.03Q269 13.5 269 12.56L269 12.56L269 6.74L271.75 6.74L271.75 12.62Q271.75 13.96 271.17 14.97Q270.6 15.98 269.56 16.54Q268.52 17.09 267.17 17.09M278.79 17.09L278.79 17.09Q277.19 17.09 275.95 16.41Q274.71 15.73 273.99 14.53Q273.26 13.33 273.26 11.8L273.26 11.8Q273.26 10.29 273.97 9.1Q274.67 7.91 275.89 7.21Q277.11 6.51 278.6 6.51L278.6 6.51Q280.07 6.51 281.19 7.17Q282.32 7.83 282.96 8.97Q283.6 10.12 283.6 11.57L283.6 11.57Q283.6 11.84 283.56 12.13Q283.53 12.41 283.45 12.77L283.45 12.77L274.92 12.79L274.92 10.73L282.17 10.71L281.06 11.57Q281.01 10.67 280.73 10.06Q280.45 9.45 279.91 9.12Q279.38 8.8 278.6 8.8L278.6 8.8Q277.78 8.8 277.17 9.16Q276.56 9.53 276.24 10.19Q275.91 10.85 275.91 11.76L275.91 11.76Q275.91 12.68 276.26 13.36Q276.6 14.05 277.25 14.41Q277.91 14.78 278.77 14.78L278.77 14.78Q279.54 14.78 280.17 14.52Q280.8 14.26 281.27 13.73L281.27 13.73L282.88 15.35Q282.15 16.21 281.09 16.65Q280.03 17.09 278.79 17.09M288.78 17.11L288.78 17.11Q287.92 17.11 287.09 16.88Q286.26 16.65 285.57 16.24Q284.88 15.83 284.37 15.24L284.37 15.24L286.01 13.58Q286.54 14.17 287.23 14.47Q287.92 14.76 288.76 14.76L288.76 14.76Q289.43 14.76 289.78 14.57Q290.13 14.38 290.13 14L290.13 14Q290.13 13.58 289.76 13.35Q289.39 13.12 288.8 12.97Q288.22 12.81 287.58 12.61Q286.94 12.41 286.35 12.08Q285.76 11.76 285.39 11.18Q285.02 10.6 285.02 9.68L285.02 9.68Q285.02 8.71 285.5 8Q285.97 7.28 286.85 6.89Q287.73 6.49 288.93 6.49L288.93 6.49Q290.19 6.49 291.21 6.93Q292.23 7.37 292.9 8.25L292.9 8.25L291.24 9.91Q290.78 9.34 290.2 9.09Q289.62 8.84 288.95 8.84L288.95 8.84Q288.34 8.84 288.02 9.03Q287.69 9.22 287.69 9.55L287.69 9.55Q287.69 9.93 288.06 10.14Q288.43 10.35 289.01 10.51Q289.6 10.67 290.24 10.86Q290.88 11.06 291.46 11.42Q292.04 11.78 292.41 12.37Q292.77 12.95 292.77 13.88L292.77 13.88Q292.77 15.37 291.7 16.24Q290.63 17.11 288.78 17.11M298.86 16.88L296.11 16.88L296.11 2.52L298.86 2.52L298.86 16.88M301.24 9.15L293.74 9.15L293.74 6.74L301.24 6.74L301.24 9.15M305.56 16.88L302.79 16.88L302.79 6.74L305.56 6.74L305.56 16.88M304.18 5.1L304.18 5.1Q303.5 5.1 303.06 4.65Q302.62 4.2 302.62 3.53L302.62 3.53Q302.62 2.87 303.06 2.41Q303.5 1.95 304.18 1.95L304.18 1.95Q304.87 1.95 305.3 2.41Q305.73 2.87 305.73 3.53L305.73 3.53Q305.73 4.2 305.3 4.65Q304.87 5.1 304.18 5.1M312.77 17.09L312.77 17.09Q311.23 17.09 310 16.39Q308.78 15.68 308.05 14.48Q307.33 13.27 307.33 11.78L307.33 11.78Q307.33 10.29 308.04 9.1Q308.75 7.91 309.99 7.21Q311.23 6.51 312.74 6.51L312.74 6.51Q314.3 6.51 315.53 7.21Q316.76 7.91 317.47 9.1Q318.18 10.29 318.18 11.78L318.18 11.78Q318.18 13.27 317.47 14.48Q316.76 15.68 315.53 16.39Q314.3 17.09 312.77 17.09M312.74 14.53L312.74 14.53Q313.52 14.53 314.12 14.18Q314.72 13.84 315.04 13.22Q315.37 12.6 315.37 11.8L315.37 11.8Q315.37 11 315.03 10.39Q314.7 9.78 314.11 9.44Q313.52 9.09 312.74 9.09L312.74 9.09Q311.99 9.09 311.4 9.44Q310.81 9.78 310.48 10.39Q310.14 11 310.14 11.8L310.14 11.8Q310.14 12.6 310.48 13.22Q310.81 13.84 311.4 14.18Q311.99 14.53 312.74 14.53M329.52 16.88L326.77 16.88L326.77 11.06Q326.77 10.16 326.21 9.59Q325.64 9.03 324.74 9.03L324.74 9.03Q324.15 9.03 323.69 9.28Q323.22 9.53 322.96 9.99Q322.7 10.46 322.7 11.06L322.7 11.06L321.63 10.52Q321.63 9.32 322.14 8.43Q322.66 7.54 323.57 7.03Q324.48 6.53 325.64 6.53L325.64 6.53Q326.75 6.53 327.63 7.08Q328.52 7.64 329.02 8.53Q329.52 9.43 329.52 10.46L329.52 10.46L329.52 16.88M322.7 16.88L319.95 16.88L319.95 6.74L322.7 6.74L322.7 16.88M335.24 17.11L335.24 17.11Q334.37 17.11 333.54 16.88Q332.72 16.65 332.02 16.24Q331.33 15.83 330.83 15.24L330.83 15.24L332.46 13.58Q332.99 14.17 333.68 14.47Q334.37 14.76 335.21 14.76L335.21 14.76Q335.89 14.76 336.23 14.57Q336.58 14.38 336.58 14L336.58 14Q336.58 13.58 336.21 13.35Q335.84 13.12 335.26 12.97Q334.67 12.81 334.03 12.61Q333.39 12.41 332.8 12.08Q332.21 11.76 331.84 11.18Q331.48 10.6 331.48 9.68L331.48 9.68Q331.48 8.71 331.95 8Q332.42 7.28 333.3 6.89Q334.19 6.49 335.38 6.49L335.38 6.49Q336.64 6.49 337.66 6.93Q338.68 7.37 339.35 8.25L339.35 8.25L337.69 9.91Q337.23 9.34 336.65 9.09Q336.08 8.84 335.4 8.84L335.4 8.84Q334.79 8.84 334.47 9.03Q334.14 9.22 334.14 9.55L334.14 9.55Q334.14 9.93 334.51 10.14Q334.88 10.35 335.47 10.51Q336.05 10.67 336.69 10.86Q337.34 11.06 337.91 11.42Q338.49 11.78 338.86 12.37Q339.23 12.95 339.23 13.88L339.23 13.88Q339.23 15.37 338.15 16.24Q337.08 17.11 335.24 17.11"></path>
  </g>
</svg>
