<svg width="347" height="33" viewBox="0 0 347 33" xmlns="http://www.w3.org/2000/svg" role="img" aria-label="Unanswered Checklist Questions">
  <style>
    .ink { fill: #172032; }
    .rule { fill: rgb(228,230,235); }
    @media (prefers-color-scheme: dark) {
      .ink { fill: rgb(230,234,242); }
      .rule { fill: rgb(66,77,96); }
    }
  </style>
  <g class="ink">
    <g class="ink" transform="translate(0,7) scale(1)"><path fill-rule="evenodd" d="M18 5.25a2.25 2.25 0 0 0-2.012-2.238A2.25 2.25 0 0 0 13.75 1h-1.5a2.25 2.25 0 0 0-2.238 2.012c-.875.092-1.6.686-1.884 1.488H11A2.5 2.5 0 0 1 13.5 7v7h2.25A2.25 2.25 0 0 0 18 11.75v-6.5ZM12.25 2.5a.75.75 0 0 0-.75.75v.25h3v-.25a.75.75 0 0 0-.75-.75h-1.5Z" clip-rule="evenodd"></path><path fill-rule="evenodd" d="M3 6a1 1 0 0 0-1 1v10a1 1 0 0 0 1 1h8a1 1 0 0 0 1-1V7a1 1 0 0 0-1-1H3Zm6.874 4.166a.75.75 0 1 0-1.248-.832l-2.493 3.739-.853-.853a.75.75 0 0 0-1.06 1.06l1.5 1.5a.75.75 0 0 0 1.154-.114l3-4.5Z" clip-rule="evenodd"></path></g>
    <path d="M36.43 24.15Q34.54 24.15 33.15 23.47Q31.76 22.78 30.99 21.54Q30.23 20.31 30.23 18.67L30.23 9.1L33.33 9.1L33.33 18.39Q33.33 19.35 33.69 20.05Q34.06 20.75 34.75 21.14Q35.44 21.53 36.43 21.53Q37.43 21.53 38.12 21.14Q38.81 20.75 39.17 20.05Q39.53 19.35 39.53 18.39L39.53 9.1L42.63 9.1L42.63 18.67Q42.63 20.31 41.87 21.54Q41.12 22.78 39.73 23.47Q38.34 24.15 36.43 24.15ZM44.83 23.9L44.83 12.91L47.83 12.91L47.83 14.71L47.89 14.71Q48.32 13.77 49.16 13.22Q50 12.68 51.24 12.68Q53.06 12.68 54.05 13.77Q55.03 14.86 55.03 16.8L55.03 23.9L52.04 23.9L52.04 17.42Q52.04 16.34 51.53 15.75Q51.03 15.16 50.02 15.16Q49.35 15.16 48.86 15.46Q48.37 15.77 48.1 16.31Q47.83 16.85 47.83 17.58L47.83 23.9ZM60.2 24.07Q59.11 24.07 58.27 23.65Q57.44 23.22 56.98 22.47Q56.51 21.71 56.51 20.75L56.51 20.73Q56.51 19.72 57.01 19.01Q57.52 18.3 58.47 17.89Q59.42 17.48 60.79 17.39L65.07 17.12L65.07 18.99L61.24 19.23Q60.38 19.28 59.93 19.64Q59.47 19.99 59.47 20.58L59.47 20.6Q59.47 21.2 59.94 21.54Q60.4 21.89 61.18 21.89Q61.84 21.89 62.37 21.63Q62.9 21.37 63.2 20.91Q63.5 20.45 63.5 19.88L63.5 16.55Q63.5 15.82 63.04 15.39Q62.58 14.97 61.7 14.97Q60.86 14.97 60.37 15.32Q59.87 15.66 59.76 16.2L59.74 16.29L57 16.29L57.01 16.17Q57.1 15.15 57.69 14.36Q58.27 13.57 59.33 13.13Q60.38 12.68 61.82 12.68Q63.25 12.68 64.29 13.14Q65.34 13.59 65.92 14.42Q66.5 15.25 66.5 16.36L66.5 23.9L63.5 23.9L63.5 22.26L63.44 22.26Q63.14 22.82 62.65 23.23Q62.16 23.63 61.55 23.85Q60.93 24.07 60.2 24.07ZM68.43 23.9L68.43 12.91L71.42 12.91L71.42 14.71L71.48 14.71Q71.91 13.77 72.75 13.22Q73.59 12.68 74.83 12.68Q76.65 12.68 77.64 13.77Q78.63 14.86 78.63 16.8L78.63 23.9L75.63 23.9L75.63 17.42Q75.63 16.34 75.13 15.75Q74.62 15.16 73.61 15.16Q72.95 15.16 72.46 15.46Q71.96 15.77 71.69 16.31Q71.42 16.85 71.42 17.58L71.42 23.9ZM85.05 24.12Q83.53 24.12 82.46 23.68Q81.4 23.24 80.8 22.46Q80.2 21.67 80.07 20.64L80.06 20.55L82.99 20.55L83.01 20.64Q83.15 21.28 83.65 21.64Q84.16 22 85.05 22Q85.62 22 86.02 21.86Q86.42 21.72 86.64 21.47Q86.86 21.21 86.86 20.85L86.86 20.84Q86.86 20.4 86.54 20.14Q86.23 19.87 85.42 19.68L83.55 19.29Q82.48 19.07 81.77 18.64Q81.06 18.22 80.7 17.59Q80.34 16.96 80.34 16.14L80.34 16.13Q80.34 15.07 80.91 14.3Q81.47 13.53 82.51 13.11Q83.55 12.68 84.95 12.68Q86.4 12.68 87.42 13.15Q88.44 13.61 88.99 14.4Q89.54 15.19 89.57 16.16L89.57 16.26L86.81 16.26L86.8 16.18Q86.73 15.58 86.25 15.19Q85.78 14.79 84.95 14.79Q84.43 14.79 84.05 14.94Q83.67 15.08 83.47 15.34Q83.26 15.6 83.26 15.96L83.26 15.97Q83.26 16.25 83.4 16.47Q83.54 16.69 83.87 16.85Q84.2 17.02 84.75 17.14L86.62 17.54Q87.77 17.78 88.48 18.18Q89.19 18.58 89.52 19.16Q89.86 19.74 89.86 20.55L89.86 20.56Q89.86 21.63 89.24 22.43Q88.63 23.23 87.54 23.68Q86.46 24.12 85.05 24.12ZM93.43 23.9L90.5 12.91L93.52 12.91L95.18 21.06L95.24 21.06L97.19 12.91L100.06 12.91L102.02 21.06L102.08 21.06L103.75 12.91L106.7 12.91L103.79 23.9L100.6 23.9L98.61 16.13L98.55 16.13L96.57 23.9ZM112.72 24.12Q111.04 24.12 109.83 23.43Q108.62 22.74 107.97 21.46Q107.32 20.18 107.32 18.42L107.32 18.41Q107.32 16.66 107.97 15.37Q108.62 14.09 109.81 13.38Q110.99 12.68 112.6 12.68Q114.21 12.68 115.38 13.36Q116.56 14.04 117.2 15.28Q117.84 16.53 117.84 18.19L117.84 19.11L108.79 19.11L108.79 17.22L116.42 17.22L115 18.99L115 17.84Q115 16.87 114.7 16.22Q114.4 15.57 113.88 15.24Q113.35 14.92 112.65 14.92Q111.95 14.92 111.42 15.25Q110.88 15.59 110.57 16.24Q110.27 16.89 110.27 17.84L110.27 19Q110.27 19.91 110.57 20.56Q110.88 21.2 111.44 21.54Q112.01 21.89 112.78 21.89Q113.4 21.89 113.85 21.69Q114.3 21.5 114.59 21.2Q114.88 20.9 114.98 20.6L115 20.53L117.75 20.53L117.72 20.65Q117.59 21.25 117.23 21.87Q116.88 22.48 116.27 23Q115.66 23.51 114.78 23.82Q113.9 24.12 112.72 24.12ZM119.38 23.9L119.38 12.91L122.37 12.91L122.37 14.82L122.43 14.82Q122.68 13.81 123.33 13.24Q123.97 12.68 124.94 12.68Q125.18 12.68 125.41 12.71Q125.63 12.74 125.8 12.79L125.8 15.43Q125.61 15.36 125.33 15.31Q125.04 15.26 124.71 15.26Q123.97 15.26 123.45 15.55Q122.93 15.84 122.65 16.39Q122.37 16.95 122.37 17.75L122.37 23.9ZM131.66 24.12Q129.98 24.12 128.77 23.43Q127.56 22.74 126.91 21.46Q126.26 20.18 126.26 18.42L126.26 18.41Q126.26 16.66 126.91 15.37Q127.56 14.09 128.74 13.38Q129.93 12.68 131.54 12.68Q133.15 12.68 134.32 13.36Q135.5 14.04 136.14 15.28Q136.78 16.53 136.78 18.19L136.78 19.11L127.72 19.11L127.72 17.22L135.36 17.22L133.94 18.99L133.94 17.84Q133.94 16.87 133.64 16.22Q133.34 15.57 132.82 15.24Q132.29 14.92 131.59 14.92Q130.89 14.92 130.35 15.25Q129.82 15.59 129.51 16.24Q129.21 16.89 129.21 17.84L129.21 19Q129.21 19.91 129.51 20.56Q129.82 21.2 130.38 21.54Q130.94 21.89 131.72 21.89Q132.34 21.89 132.79 21.69Q133.24 21.5 133.53 21.2Q133.82 20.9 133.92 20.6L133.94 20.53L136.69 20.53L136.66 20.65Q136.53 21.25 136.17 21.87Q135.81 22.48 135.2 23Q134.59 23.51 133.72 23.82Q132.84 24.12 131.66 24.12ZM142.39 24.12Q141 24.12 140 23.44Q138.99 22.75 138.46 21.47Q137.92 20.19 137.92 18.4L137.92 18.39Q137.92 16.6 138.46 15.32Q139 14.04 140 13.36Q141 12.68 142.39 12.68Q143.17 12.68 143.82 12.94Q144.48 13.19 144.98 13.67Q145.47 14.15 145.77 14.81L145.83 14.81L145.83 9.1L148.83 9.1L148.83 23.9L145.83 23.9L145.83 22.02L145.77 22.02Q145.48 22.68 144.99 23.14Q144.5 23.61 143.84 23.87Q143.19 24.12 142.39 24.12ZM143.39 21.64Q144.12 21.64 144.67 21.25Q145.23 20.85 145.54 20.12Q145.84 19.4 145.84 18.4L145.84 18.39Q145.84 17.4 145.53 16.67Q145.22 15.95 144.67 15.56Q144.12 15.16 143.39 15.16Q142.64 15.16 142.1 15.55Q141.56 15.94 141.26 16.66Q140.96 17.39 140.96 18.39L140.96 18.4Q140.96 19.4 141.25 20.12Q141.55 20.85 142.1 21.25Q142.64 21.64 143.39 21.64ZM161.82 24.15Q159.66 24.15 158.07 23.23Q156.49 22.31 155.63 20.59Q154.77 18.87 154.77 16.49L154.77 16.48Q154.77 14.1 155.64 12.39Q156.5 10.68 158.08 9.76Q159.66 8.85 161.82 8.85Q163.61 8.85 165.02 9.54Q166.42 10.24 167.27 11.46Q168.13 12.67 168.27 14.25L168.28 14.34L165.26 14.34L165.22 14.17Q165.05 13.35 164.6 12.74Q164.15 12.14 163.44 11.8Q162.74 11.47 161.82 11.47Q160.63 11.47 159.76 12.08Q158.89 12.68 158.41 13.8Q157.93 14.93 157.93 16.47L157.93 16.48Q157.93 18.04 158.41 19.18Q158.89 20.31 159.76 20.92Q160.64 21.53 161.82 21.53Q162.71 21.53 163.41 21.2Q164.12 20.87 164.59 20.25Q165.06 19.63 165.25 18.75L165.27 18.65L168.29 18.65L168.28 18.76Q168.14 20.33 167.28 21.55Q166.42 22.77 165.02 23.46Q163.61 24.15 161.82 24.15ZM170.01 23.9L170.01 9.1L173.01 9.1L173.01 14.8L173.07 14.8Q173.5 13.78 174.35 13.23Q175.21 12.68 176.44 12.68Q177.64 12.68 178.5 13.21Q179.36 13.74 179.83 14.7Q180.3 15.66 180.3 17L180.3 23.9L177.3 23.9L177.3 17.61Q177.3 16.46 176.75 15.81Q176.21 15.16 175.18 15.16Q174.52 15.16 174.04 15.47Q173.55 15.79 173.28 16.34Q173.01 16.88 173.01 17.6L173.01 23.9ZM187.22 24.12Q185.54 24.12 184.33 23.43Q183.12 22.74 182.47 21.46Q181.81 20.18 181.81 18.42L181.81 18.41Q181.81 16.66 182.47 15.37Q183.12 14.09 184.3 13.38Q185.48 12.68 187.09 12.68Q188.7 12.68 189.88 13.36Q191.05 14.04 191.69 15.28Q192.33 16.53 192.33 18.19L192.33 19.11L183.28 19.11L183.28 17.22L190.92 17.22L189.49 18.99L189.49 17.84Q189.49 16.87 189.2 16.22Q188.9 15.57 188.37 15.24Q187.84 14.92 187.15 14.92Q186.45 14.92 185.91 15.25Q185.37 15.59 185.07 16.24Q184.77 16.89 184.77 17.84L184.77 19Q184.77 19.91 185.07 20.56Q185.37 21.2 185.94 21.54Q186.5 21.89 187.28 21.89Q187.89 21.89 188.35 21.69Q188.8 21.5 189.08 21.2Q189.37 20.9 189.47 20.6L189.49 20.53L192.24 20.53L192.21 20.65Q192.09 21.25 191.73 21.87Q191.37 22.48 190.76 23Q190.15 23.51 189.27 23.82Q188.4 24.12 187.22 24.12ZM198.9 24.12Q197.23 24.12 196.01 23.43Q194.79 22.73 194.13 21.44Q193.47 20.16 193.47 18.39L193.47 18.38Q193.47 16.62 194.13 15.34Q194.8 14.06 196.01 13.37Q197.23 12.68 198.87 12.68Q200.36 12.68 201.46 13.24Q202.56 13.8 203.18 14.75Q203.8 15.71 203.86 16.89L203.86 16.97L201.08 16.97L201.06 16.87Q200.93 16.08 200.38 15.56Q199.84 15.03 198.91 15.03Q198.18 15.03 197.64 15.43Q197.1 15.84 196.81 16.59Q196.52 17.35 196.52 18.39L196.52 18.4Q196.52 19.48 196.81 20.23Q197.1 20.99 197.64 21.38Q198.18 21.78 198.92 21.78Q199.82 21.78 200.37 21.27Q200.92 20.76 201.07 19.93L201.08 19.84L203.87 19.84L203.87 19.9Q203.8 21.1 203.17 22.05Q202.55 23.01 201.46 23.56Q200.36 24.12 198.9 24.12ZM205.42 23.9L205.42 9.1L208.41 9.1L208.41 23.9ZM212.33 23.9L208.94 19.04L210.83 16.76L215.79 23.9ZM208.04 20.66L208.04 17.3L208.47 17.3L212.19 12.91L215.58 12.91L210.5 18.68L209.84 18.68ZM216.69 23.9L216.69 9.1L219.68 9.1L219.68 23.9ZM221.76 23.9L221.76 12.91L224.76 12.91L224.76 23.9ZM223.26 11.49Q222.58 11.49 222.12 11.03Q221.66 10.57 221.66 9.93Q221.66 9.29 222.12 8.83Q222.58 8.37 223.26 8.37Q223.94 8.37 224.4 8.83Q224.86 9.29 224.86 9.93Q224.86 10.57 224.4 11.03Q223.94 11.49 223.26 11.49ZM231.28 24.12Q229.76 24.12 228.69 23.68Q227.63 23.24 227.03 22.46Q226.43 21.67 226.31 20.64L226.3 20.55L229.22 20.55L229.24 20.64Q229.38 21.28 229.88 21.64Q230.39 22 231.28 22Q231.85 22 232.25 21.86Q232.65 21.72 232.87 21.47Q233.09 21.21 233.09 20.85L233.09 20.84Q233.09 20.4 232.78 20.14Q232.46 19.87 231.65 19.68L229.78 19.29Q228.72 19.07 228 18.64Q227.29 18.22 226.93 17.59Q226.57 16.96 226.57 16.14L226.57 16.13Q226.57 15.07 227.14 14.3Q227.7 13.53 228.74 13.11Q229.78 12.68 231.18 12.68Q232.63 12.68 233.65 13.15Q234.67 13.61 235.22 14.4Q235.77 15.19 235.8 16.16L235.8 16.26L233.04 16.26L233.03 16.18Q232.96 15.58 232.48 15.19Q232.01 14.79 231.18 14.79Q230.66 14.79 230.28 14.94Q229.9 15.08 229.7 15.34Q229.49 15.6 229.49 15.96L229.49 15.97Q229.49 16.25 229.63 16.47Q229.77 16.69 230.1 16.85Q230.43 17.02 230.98 17.14L232.85 17.54Q234 17.78 234.71 18.18Q235.42 18.58 235.75 19.16Q236.09 19.74 236.09 20.55L236.09 20.56Q236.09 21.63 235.47 22.43Q234.86 23.23 233.78 23.68Q232.69 24.12 231.28 24.12ZM241.93 24.12Q240.11 24.12 239.23 23.35Q238.34 22.59 238.34 20.82L238.34 15.16L236.82 15.16L236.82 12.91L238.34 12.91L238.34 10.22L241.37 10.22L241.37 12.91L243.38 12.91L243.38 15.16L241.37 15.16L241.37 20.49Q241.37 21.26 241.71 21.57Q242.06 21.87 242.73 21.87Q242.94 21.87 243.09 21.85Q243.25 21.84 243.38 21.82L243.38 24.01Q243.13 24.05 242.77 24.09Q242.4 24.12 241.93 24.12ZM256.11 24.15Q253.92 24.15 252.31 23.22Q250.71 22.29 249.84 20.57Q248.98 18.85 248.98 16.51L248.98 16.48Q248.98 14.13 249.85 12.41Q250.72 10.7 252.32 9.77Q253.93 8.85 256.11 8.85Q258.31 8.85 259.91 9.78Q261.51 10.71 262.38 12.42Q263.25 14.13 263.25 16.48L263.25 16.51Q263.25 18.85 262.38 20.57Q261.51 22.29 259.91 23.22Q258.32 24.15 256.11 24.15ZM256.11 21.53Q257.34 21.53 258.23 20.91Q259.12 20.29 259.6 19.16Q260.08 18.03 260.08 16.51L260.08 16.48Q260.08 14.94 259.59 13.81Q259.11 12.69 258.22 12.08Q257.32 11.47 256.11 11.47Q254.9 11.47 254.01 12.08Q253.12 12.68 252.63 13.8Q252.14 14.93 252.14 16.48L252.14 16.51Q252.14 18.04 252.62 19.17Q253.11 20.3 254 20.91Q254.89 21.53 256.11 21.53ZM259.81 25.28L255.23 18.82L258.17 18.82L262.75 25.28ZM268.73 24.12Q267.52 24.12 266.67 23.63Q265.82 23.13 265.38 22.21Q264.93 21.28 264.93 20L264.93 12.91L267.93 12.91L267.93 19.38Q267.93 20.45 268.43 21.05Q268.94 21.64 269.95 21.64Q270.45 21.64 270.85 21.47Q271.26 21.29 271.55 20.97Q271.83 20.65 271.99 20.2Q272.14 19.76 272.14 19.22L272.14 12.91L275.13 12.91L275.13 23.9L272.14 23.9L272.14 22.08L272.08 22.08Q271.79 22.71 271.33 23.17Q270.86 23.63 270.21 23.88Q269.56 24.12 268.73 24.12ZM282.09 24.12Q280.41 24.12 279.2 23.43Q277.99 22.74 277.33 21.46Q276.68 20.18 276.68 18.42L276.68 18.41Q276.68 16.66 277.33 15.37Q277.99 14.09 279.17 13.38Q280.35 12.68 281.96 12.68Q283.57 12.68 284.75 13.36Q285.92 14.04 286.56 15.28Q287.2 16.53 287.2 18.19L287.2 19.11L278.15 19.11L278.15 17.22L285.79 17.22L284.36 18.99L284.36 17.84Q284.36 16.87 284.07 16.22Q283.77 15.57 283.24 15.24Q282.71 14.92 282.02 14.92Q281.32 14.92 280.78 15.25Q280.24 15.59 279.94 16.24Q279.64 16.89 279.64 17.84L279.64 19Q279.64 19.91 279.94 20.56Q280.24 21.2 280.81 21.54Q281.37 21.89 282.15 21.89Q282.76 21.89 283.21 21.69Q283.67 21.5 283.95 21.2Q284.24 20.9 284.34 20.6L284.36 20.53L287.11 20.53L287.08 20.65Q286.96 21.25 286.6 21.87Q286.24 22.48 285.63 23Q285.02 23.51 284.14 23.82Q283.27 24.12 282.09 24.12ZM293.26 24.12Q291.75 24.12 290.68 23.68Q289.61 23.24 289.01 22.46Q288.41 21.67 288.29 20.64L288.28 20.55L291.2 20.55L291.22 20.64Q291.37 21.28 291.87 21.64Q292.37 22 293.26 22Q293.84 22 294.24 21.86Q294.64 21.72 294.86 21.47Q295.08 21.21 295.08 20.85L295.08 20.84Q295.08 20.4 294.76 20.14Q294.44 19.87 293.63 19.68L291.77 19.29Q290.7 19.07 289.99 18.64Q289.27 18.22 288.92 17.59Q288.56 16.96 288.56 16.14L288.56 16.13Q288.56 15.07 289.12 14.3Q289.69 13.53 290.73 13.11Q291.77 12.68 293.16 12.68Q294.62 12.68 295.64 13.15Q296.66 13.61 297.21 14.4Q297.75 15.19 297.79 16.16L297.79 16.26L295.03 16.26L295.02 16.18Q294.95 15.58 294.47 15.19Q293.99 14.79 293.16 14.79Q292.65 14.79 292.27 14.94Q291.89 15.08 291.68 15.34Q291.48 15.6 291.48 15.96L291.48 15.97Q291.48 16.25 291.62 16.47Q291.76 16.69 292.08 16.85Q292.41 17.02 292.97 17.14L294.83 17.54Q295.98 17.78 296.69 18.18Q297.41 18.58 297.74 19.16Q298.07 19.74 298.07 20.55L298.07 20.56Q298.07 21.63 297.46 22.43Q296.84 23.23 295.76 23.68Q294.68 24.12 293.26 24.12ZM303.92 24.12Q302.09 24.12 301.21 23.35Q300.33 22.59 300.33 20.82L300.33 15.16L298.8 15.16L298.8 12.91L300.33 12.91L300.33 10.22L303.35 10.22L303.35 12.91L305.36 12.91L305.36 15.16L303.35 15.16L303.35 20.49Q303.35 21.26 303.7 21.57Q304.04 21.87 304.72 21.87Q304.92 21.87 305.08 21.85Q305.23 21.84 305.36 21.82L305.36 24.01Q305.12 24.05 304.75 24.09Q304.39 24.12 303.92 24.12ZM307.08 23.9L307.08 12.91L310.07 12.91L310.07 23.9ZM308.57 11.49Q307.9 11.49 307.43 11.03Q306.97 10.57 306.97 9.93Q306.97 9.29 307.43 8.83Q307.9 8.37 308.57 8.37Q309.25 8.37 309.71 8.83Q310.17 9.29 310.17 9.93Q310.17 10.57 309.71 11.03Q309.25 11.49 308.57 11.49ZM317.11 24.12Q315.44 24.12 314.22 23.44Q313 22.75 312.34 21.47Q311.67 20.19 311.67 18.4L311.67 18.38Q311.67 16.61 312.35 15.33Q313.02 14.05 314.24 13.37Q315.46 12.68 317.1 12.68Q318.75 12.68 319.98 13.36Q321.21 14.04 321.88 15.32Q322.56 16.6 322.56 18.38L322.56 18.4Q322.56 20.2 321.89 21.48Q321.22 22.76 320 23.44Q318.78 24.12 317.11 24.12ZM317.12 21.78Q317.85 21.78 318.39 21.38Q318.93 20.99 319.22 20.23Q319.51 19.48 319.51 18.4L319.51 18.38Q319.51 17.32 319.22 16.57Q318.92 15.82 318.38 15.42Q317.83 15.03 317.1 15.03Q316.39 15.03 315.85 15.42Q315.31 15.82 315.01 16.57Q314.71 17.32 314.71 18.38L314.71 18.4Q314.71 19.48 315.01 20.23Q315.3 20.99 315.84 21.38Q316.39 21.78 317.12 21.78ZM324.1 23.9L324.1 12.91L327.09 12.91L327.09 14.71L327.15 14.71Q327.58 13.77 328.42 13.22Q329.27 12.68 330.51 12.68Q332.32 12.68 333.31 13.77Q334.3 14.86 334.3 16.8L334.3 23.9L331.31 23.9L331.31 17.42Q331.31 16.34 330.8 15.75Q330.29 15.16 329.29 15.16Q328.62 15.16 328.13 15.46Q327.63 15.77 327.36 16.31Q327.09 16.85 327.09 17.58L327.09 23.9ZM340.72 24.12Q339.2 24.12 338.13 23.68Q337.07 23.24 336.47 22.46Q335.87 21.67 335.75 20.64L335.74 20.55L338.66 20.55L338.68 20.64Q338.82 21.28 339.32 21.64Q339.83 22 340.72 22Q341.29 22 341.69 21.86Q342.09 21.72 342.31 21.47Q342.53 21.21 342.53 20.85L342.53 20.84Q342.53 20.4 342.22 20.14Q341.9 19.87 341.09 19.68L339.22 19.29Q338.16 19.07 337.44 18.64Q336.73 18.22 336.37 17.59Q336.01 16.96 336.01 16.14L336.01 16.13Q336.01 15.07 336.58 14.3Q337.14 13.53 338.18 13.11Q339.22 12.68 340.62 12.68Q342.07 12.68 343.09 13.15Q344.11 13.61 344.66 14.4Q345.21 15.19 345.24 16.16L345.24 16.26L342.48 16.26L342.47 16.18Q342.4 15.58 341.92 15.19Q341.45 14.79 340.62 14.79Q340.1 14.79 339.72 14.94Q339.34 15.08 339.14 15.34Q338.93 15.6 338.93 15.96L338.93 15.97Q338.93 16.25 339.07 16.47Q339.21 16.69 339.54 16.85Q339.87 17.02 340.42 17.14L342.29 17.54Q343.44 17.78 344.15 18.18Q344.86 18.58 345.19 19.16Q345.53 19.74 345.53 20.55L345.53 20.56Q345.53 21.63 344.91 22.43Q344.3 23.23 343.22 23.68Q342.13 24.12 340.72 24.12Z"></path>
  </g>
  <rect class="rule" x="0" y="32" width="347" height="1"></rect>
</svg>
