<svg width="245" height="29" viewBox="0 0 245 29" xmlns="http://www.w3.org/2000/svg" role="img" aria-label="Work at Height Checks">
  <style>
    .ink { fill: #172032; }
    @media (prefers-color-scheme: dark) {
      .ink { fill: rgb(230,234,242); }
    }
  </style>
  <g class="ink">
    <g class="ink" transform="translate(0,7) scale(1)"><path fill-rule="evenodd" d="M18 5.25a2.25 2.25 0 0 0-2.012-2.238A2.25 2.25 0 0 0 13.75 1h-1.5a2.25 2.25 0 0 0-2.238 2.012c-.875.092-1.6.686-1.884 1.488H11A2.5 2.5 0 0 1 13.5 7v7h2.25A2.25 2.25 0 0 0 18 11.75v-6.5ZM12.25 2.5a.75.75 0 0 0-.75.75v.25h3v-.25a.75.75 0 0 0-.75-.75h-1.5Z" clip-rule="evenodd"></path><path fill-rule="evenodd" d="M3 6a1 1 0 0 0-1 1v10a1 1 0 0 0 1 1h8a1 1 0 0 0 1-1V7a1 1 0 0 0-1-1H3Zm6.874 4.166a.75.75 0 1 0-1.248-.832l-2.493 3.739-.853-.853a.75.75 0 0 0-1.06 1.06l1.5 1.5a.75.75 0 0 0 1.154-.114l3-4.5Z" clip-rule="evenodd"></path></g>
    <path d="M36.39 23.88L34.25 23.88L29.46 9.12L32.28 9.12L35.83 20.48L34.88 20.48L38.37 9.12L40.49 9.12L43.97 20.48L43.01 20.48L46.58 9.12L49.39 9.12L44.58 23.88L42.46 23.88L38.95 12.54L39.88 12.54L36.39 23.88M54.43 24.09L54.43 24.09Q52.9 24.09 51.67 23.39Q50.44 22.68 49.72 21.48Q48.99 20.27 48.99 18.78L48.99 18.78Q48.99 17.29 49.71 16.1Q50.42 14.91 51.66 14.21Q52.9 13.51 54.41 13.51L54.41 13.51Q55.96 13.51 57.19 14.21Q58.42 14.91 59.14 16.1Q59.85 17.29 59.85 18.78L59.85 18.78Q59.85 20.27 59.14 21.48Q58.42 22.68 57.19 23.39Q55.96 24.09 54.43 24.09M54.41 21.53L54.41 21.53Q55.19 21.53 55.79 21.18Q56.38 20.84 56.71 20.22Q57.04 19.6 57.04 18.8L57.04 18.8Q57.04 18 56.7 17.39Q56.36 16.78 55.78 16.44Q55.19 16.09 54.41 16.09L54.41 16.09Q53.65 16.09 53.07 16.44Q52.48 16.78 52.14 17.39Q51.81 18 51.81 18.8L51.81 18.8Q51.81 19.6 52.14 20.22Q52.48 20.84 53.07 21.18Q53.65 21.53 54.41 21.53M64.36 23.88L61.61 23.88L61.61 13.74L64.36 13.74L64.36 23.88M64.36 18.27L64.36 18.27L63.29 17.56Q63.48 15.69 64.38 14.61Q65.29 13.53 66.99 13.53L66.99 13.53Q67.72 13.53 68.31 13.77Q68.9 14.01 69.38 14.56L69.38 14.56L67.66 16.53Q67.43 16.28 67.1 16.15Q66.78 16.03 66.36 16.03L66.36 16.03Q65.48 16.03 64.92 16.58Q64.36 17.14 64.36 18.27M80.18 23.88L76.82 23.88L72.89 18.65L76.8 13.74L79.97 13.74L75.39 19.28L75.49 17.94L80.18 23.88M73.1 23.88L70.35 23.88L70.35 8.7L73.1 8.7L73.1 23.88M89.77 24.09L89.77 24.09Q88.39 24.09 87.28 23.4Q86.16 22.71 85.53 21.51Q84.9 20.31 84.9 18.82L84.9 18.82Q84.9 17.31 85.53 16.11Q86.16 14.91 87.28 14.22Q88.39 13.53 89.77 13.53L89.77 13.53Q90.87 13.53 91.73 13.97Q92.59 14.41 93.1 15.2Q93.62 15.99 93.66 16.97L93.66 16.97L93.66 20.63Q93.62 21.63 93.1 22.41Q92.59 23.19 91.73 23.64Q90.87 24.09 89.77 24.09M90.28 21.55L90.28 21.55Q91.43 21.55 92.15 20.78Q92.86 20.02 92.86 18.8L92.86 18.8Q92.86 18 92.54 17.38Q92.21 16.76 91.63 16.42Q91.06 16.07 90.28 16.07L90.28 16.07Q89.52 16.07 88.94 16.42Q88.37 16.76 88.04 17.38Q87.72 18 87.72 18.8L87.72 18.8Q87.72 19.62 88.04 20.24Q88.37 20.86 88.94 21.2Q89.52 21.55 90.28 21.55M95.44 23.88L92.71 23.88L92.71 21.15L93.16 18.67L92.71 16.24L92.71 13.74L95.44 13.74L95.44 23.88M102.12 23.88L99.37 23.88L99.37 9.52L102.12 9.52L102.12 23.88M104.49 16.15L97 16.15L97 13.74L104.49 13.74L104.49 16.15M113.29 23.88L110.44 23.88L110.44 9.12L113.29 9.12L113.29 23.88M122.56 23.88L119.7 23.88L119.7 9.12L122.56 9.12L122.56 23.88M120.5 17.52L112.24 17.52L112.24 15L120.5 15L120.5 17.52M130.14 24.09L130.14 24.09Q128.54 24.09 127.3 23.41Q126.06 22.73 125.34 21.53Q124.61 20.33 124.61 18.8L124.61 18.8Q124.61 17.29 125.32 16.1Q126.02 14.91 127.24 14.21Q128.46 13.51 129.95 13.51L129.95 13.51Q131.42 13.51 132.54 14.17Q133.66 14.83 134.3 15.97Q134.95 17.12 134.95 18.57L134.95 18.57Q134.95 18.84 134.91 19.13Q134.88 19.41 134.8 19.77L134.8 19.77L126.27 19.79L126.27 17.73L133.52 17.71L132.4 18.57Q132.36 17.67 132.08 17.06Q131.79 16.45 131.26 16.12Q130.72 15.8 129.95 15.8L129.95 15.8Q129.13 15.8 128.52 16.16Q127.91 16.53 127.58 17.19Q127.26 17.85 127.26 18.76L127.26 18.76Q127.26 19.68 127.61 20.36Q127.95 21.05 128.6 21.41Q129.25 21.78 130.11 21.78L130.11 21.78Q130.89 21.78 131.52 21.52Q132.15 21.26 132.61 20.73L132.61 20.73L134.23 22.35Q133.5 23.21 132.44 23.65Q131.38 24.09 130.14 24.09M139.42 23.88L136.65 23.88L136.65 13.74L139.42 13.74L139.42 23.88M138.03 12.1L138.03 12.1Q137.36 12.1 136.92 11.65Q136.48 11.2 136.48 10.53L136.48 10.53Q136.48 9.87 136.92 9.41Q137.36 8.95 138.03 8.95L138.03 8.95Q138.73 8.95 139.16 9.41Q139.59 9.87 139.59 10.53L139.59 10.53Q139.59 11.2 139.16 11.65Q138.73 12.1 138.03 12.1M146.1 28.38L146.1 28.38Q144.48 28.38 143.24 27.8Q142 27.22 141.27 26.17L141.27 26.17L143.01 24.43Q143.6 25.12 144.32 25.49Q145.05 25.86 146.07 25.86L146.07 25.86Q147.36 25.86 148.1 25.2Q148.85 24.55 148.85 23.4L148.85 23.4L148.85 20.86L149.31 18.63L148.87 16.41L148.87 13.74L151.6 13.74L151.6 23.36Q151.6 24.87 150.89 25.99Q150.19 27.12 148.95 27.75Q147.71 28.38 146.1 28.38M145.97 23.61L145.97 23.61Q144.6 23.61 143.51 22.95Q142.42 22.29 141.8 21.13Q141.18 19.98 141.18 18.55L141.18 18.55Q141.18 17.12 141.8 15.99Q142.42 14.85 143.51 14.19Q144.6 13.53 145.97 13.53L145.97 13.53Q147.1 13.53 147.98 13.97Q148.85 14.41 149.35 15.18Q149.85 15.94 149.9 16.97L149.9 16.97L149.9 20.16Q149.85 21.17 149.34 21.96Q148.83 22.75 147.95 23.18Q147.08 23.61 145.97 23.61M146.52 21.11L146.52 21.11Q147.27 21.11 147.83 20.78Q148.39 20.46 148.7 19.88Q149.01 19.3 149.01 18.57L149.01 18.57Q149.01 17.81 148.7 17.25Q148.39 16.68 147.83 16.35Q147.27 16.03 146.52 16.03L146.52 16.03Q145.76 16.03 145.19 16.35Q144.63 16.68 144.31 17.26Q144 17.83 144 18.57L144 18.57Q144 19.28 144.31 19.86Q144.63 20.44 145.19 20.77Q145.76 21.11 146.52 21.11M163.59 23.88L160.84 23.88L160.84 18.06Q160.84 17.16 160.27 16.59Q159.7 16.03 158.8 16.03L158.8 16.03Q158.21 16.03 157.75 16.28Q157.29 16.53 157.03 16.99Q156.76 17.46 156.76 18.06L156.76 18.06L155.69 17.52Q155.69 16.32 156.2 15.43Q156.7 14.54 157.59 14.03Q158.49 13.53 159.64 13.53L159.64 13.53Q160.8 13.53 161.69 14.03Q162.58 14.54 163.08 15.42Q163.59 16.3 163.59 17.46L163.59 17.46L163.59 23.88M156.76 23.88L154.01 23.88L154.01 8.7L156.76 8.7L156.76 23.88M169.93 23.88L167.18 23.88L167.18 9.52L169.93 9.52L169.93 23.88M172.3 16.15L164.81 16.15L164.81 13.74L172.3 13.74L172.3 16.15M185.09 24.09L185.09 24.09Q183.48 24.09 182.09 23.51Q180.7 22.94 179.66 21.9Q178.62 20.86 178.07 19.47Q177.51 18.09 177.51 16.49L177.51 16.49Q177.51 14.89 178.07 13.51Q178.62 12.12 179.66 11.09Q180.7 10.06 182.08 9.48Q183.46 8.89 185.09 8.89L185.09 8.89Q186.86 8.89 188.2 9.46Q189.55 10.04 190.57 11.05L190.57 11.05L188.64 12.98Q188.03 12.31 187.15 11.93Q186.27 11.55 185.09 11.55L185.09 11.55Q184.06 11.55 183.21 11.9Q182.36 12.25 181.73 12.91Q181.1 13.57 180.77 14.48Q180.43 15.4 180.43 16.49L180.43 16.49Q180.43 17.6 180.77 18.51Q181.1 19.41 181.73 20.07Q182.36 20.73 183.21 21.09Q184.06 21.45 185.09 21.45L185.09 21.45Q186.33 21.45 187.22 21.07Q188.12 20.69 188.73 20L188.73 20L190.66 21.93Q189.63 22.96 188.26 23.52Q186.9 24.09 185.09 24.09M201.94 23.88L199.18 23.88L199.18 18.06Q199.18 17.16 198.62 16.59Q198.05 16.03 197.15 16.03L197.15 16.03Q196.56 16.03 196.1 16.28Q195.64 16.53 195.37 16.99Q195.11 17.46 195.11 18.06L195.11 18.06L194.04 17.52Q194.04 16.32 194.54 15.43Q195.05 14.54 195.94 14.03Q196.83 13.53 197.99 13.53L197.99 13.53Q199.14 13.53 200.03 14.03Q200.93 14.54 201.43 15.42Q201.94 16.3 201.94 17.46L201.94 17.46L201.94 23.88M195.11 23.88L192.36 23.88L192.36 8.7L195.11 8.7L195.11 23.88M209.01 24.09L209.01 24.09Q207.42 24.09 206.18 23.41Q204.94 22.73 204.21 21.53Q203.49 20.33 203.49 18.8L203.49 18.8Q203.49 17.29 204.19 16.1Q204.9 14.91 206.11 14.21Q207.33 13.51 208.82 13.51L208.82 13.51Q210.29 13.51 211.42 14.17Q212.54 14.83 213.18 15.97Q213.82 17.12 213.82 18.57L213.82 18.57Q213.82 18.84 213.79 19.13Q213.76 19.41 213.67 19.77L213.67 19.77L205.15 19.79L205.15 17.73L212.39 17.71L211.28 18.57Q211.24 17.67 210.95 17.06Q210.67 16.45 210.14 16.12Q209.6 15.8 208.82 15.8L208.82 15.8Q208 15.8 207.4 16.16Q206.79 16.53 206.46 17.19Q206.14 17.85 206.14 18.76L206.14 18.76Q206.14 19.68 206.48 20.36Q206.83 21.05 207.48 21.41Q208.13 21.78 208.99 21.78L208.99 21.78Q209.77 21.78 210.4 21.52Q211.03 21.26 211.49 20.73L211.49 20.73L213.11 22.35Q212.37 23.21 211.31 23.65Q210.25 24.09 209.01 24.09M220.31 24.09L220.31 24.09Q218.76 24.09 217.52 23.4Q216.28 22.71 215.56 21.51Q214.85 20.31 214.85 18.82L214.85 18.82Q214.85 17.31 215.56 16.11Q216.28 14.91 217.53 14.21Q218.78 13.51 220.31 13.51L220.31 13.51Q221.51 13.51 222.52 13.95Q223.52 14.39 224.26 15.21L224.26 15.21L222.49 16.99Q222.09 16.55 221.54 16.32Q220.98 16.09 220.31 16.09L220.31 16.09Q219.55 16.09 218.96 16.44Q218.36 16.78 218.01 17.38Q217.66 17.98 217.66 18.8L217.66 18.8Q217.66 19.6 218.01 20.22Q218.36 20.84 218.96 21.18Q219.55 21.53 220.31 21.53L220.31 21.53Q221 21.53 221.56 21.29Q222.12 21.05 222.52 20.58L222.52 20.58L224.3 22.37Q223.52 23.21 222.52 23.65Q221.51 24.09 220.31 24.09M235.68 23.88L232.32 23.88L228.4 18.65L232.3 13.74L235.47 13.74L230.89 19.28L231 17.94L235.68 23.88M228.6 23.88L225.85 23.88L225.85 8.7L228.6 8.7L228.6 23.88M239.84 24.11L239.84 24.11Q238.98 24.11 238.15 23.88Q237.32 23.65 236.63 23.24Q235.93 22.83 235.43 22.24L235.43 22.24L237.07 20.58Q237.59 21.17 238.29 21.47Q238.98 21.76 239.82 21.76L239.82 21.76Q240.49 21.76 240.84 21.57Q241.18 21.38 241.18 21L241.18 21Q241.18 20.58 240.82 20.35Q240.45 20.12 239.86 19.97Q239.27 19.81 238.63 19.61Q237.99 19.41 237.4 19.08Q236.82 18.76 236.45 18.18Q236.08 17.6 236.08 16.68L236.08 16.68Q236.08 15.71 236.55 15Q237.03 14.28 237.91 13.89Q238.79 13.49 239.99 13.49L239.99 13.49Q241.25 13.49 242.27 13.93Q243.28 14.37 243.96 15.25L243.96 15.25L242.3 16.91Q241.83 16.34 241.26 16.09Q240.68 15.84 240.01 15.84L240.01 15.84Q239.4 15.84 239.07 16.03Q238.75 16.22 238.75 16.55L238.75 16.55Q238.75 16.93 239.12 17.14Q239.48 17.35 240.07 17.51Q240.66 17.67 241.3 17.86Q241.94 18.06 242.52 18.42Q243.09 18.78 243.46 19.37Q243.83 19.95 243.83 20.88L243.83 20.88Q243.83 22.37 242.76 23.24Q241.69 24.11 239.84 24.11"></path>
  </g>
</svg>
