<svg width="248" height="29" viewBox="0 0 248 29" xmlns="http://www.w3.org/2000/svg" role="img" aria-label="Work at Height Checks">
  <style>
    .ink { fill: #172032; }
    @media (prefers-color-scheme: dark) {
      .ink { fill: rgb(230,234,242); }
    }
  </style>
  <g class="ink">
    <g class="ink" transform="translate(0,7) scale(1)"><path fill-rule="evenodd" d="M18 5.25a2.25 2.25 0 0 0-2.012-2.238A2.25 2.25 0 0 0 13.75 1h-1.5a2.25 2.25 0 0 0-2.238 2.012c-.875.092-1.6.686-1.884 1.488H11A2.5 2.5 0 0 1 13.5 7v7h2.25A2.25 2.25 0 0 0 18 11.75v-6.5ZM12.25 2.5a.75.75 0 0 0-.75.75v.25h3v-.25a.75.75 0 0 0-.75-.75h-1.5Z" clip-rule="evenodd"></path><path fill-rule="evenodd" d="M3 6a1 1 0 0 0-1 1v10a1 1 0 0 0 1 1h8a1 1 0 0 0 1-1V7a1 1 0 0 0-1-1H3Zm6.874 4.166a.75.75 0 1 0-1.248-.832l-2.493 3.739-.853-.853a.75.75 0 0 0-1.06 1.06l1.5 1.5a.75.75 0 0 0 1.154-.114l3-4.5Z" clip-rule="evenodd"></path></g>
    <path d="M36.71 23.91L34.12 23.91L29.36 9.09L32.63 9.09L36.12 20.49L34.84 20.49L38.24 9.09L40.82 9.09L44.23 20.49L42.97 20.49L46.43 9.09L49.69 9.09L44.92 23.91L42.34 23.91L38.91 12.51L40.13 12.51L36.71 23.91M54.77 24.14L54.77 24.14Q53.19 24.14 51.92 23.44Q50.65 22.74 49.92 21.52Q49.18 20.3 49.18 18.79L49.18 18.79Q49.18 17.28 49.92 16.08Q50.65 14.88 51.91 14.18Q53.17 13.48 54.77 13.48L54.77 13.48Q56.36 13.48 57.62 14.17Q58.88 14.86 59.62 16.07Q60.35 17.28 60.35 18.79L60.35 18.79Q60.35 20.3 59.62 21.52Q58.88 22.74 57.62 23.44Q56.36 24.14 54.77 24.14M54.77 21.23L54.77 21.23Q55.46 21.23 55.99 20.92Q56.51 20.62 56.79 20.06Q57.08 19.5 57.08 18.79L57.08 18.79Q57.08 18.08 56.78 17.54Q56.49 17 55.97 16.7Q55.46 16.4 54.77 16.4L54.77 16.4Q54.1 16.4 53.57 16.7Q53.05 17 52.75 17.55Q52.46 18.1 52.46 18.81L52.46 18.81Q52.46 19.5 52.75 20.06Q53.05 20.62 53.57 20.92Q54.1 21.23 54.77 21.23M65.16 23.91L61.95 23.91L61.95 13.71L65.16 13.71L65.16 23.91M65.16 18.31L65.16 18.31L63.82 17.26Q64.22 15.47 65.16 14.48Q66.11 13.5 67.79 13.5L67.79 13.5Q68.52 13.5 69.08 13.72Q69.63 13.94 70.05 14.4L70.05 14.4L68.14 16.81Q67.93 16.58 67.62 16.46Q67.3 16.33 66.91 16.33L66.91 16.33Q66.11 16.33 65.63 16.83Q65.16 17.32 65.16 18.31M81.21 23.91L77.43 23.91L73.86 18.62L77.41 13.71L81 13.71L76.71 19.23L76.82 17.91L81.21 23.91M74.11 23.91L70.9 23.91L70.9 8.67L74.11 8.67L74.11 23.91M90.61 24.12L90.61 24.12Q89.21 24.12 88.1 23.43Q87 22.74 86.36 21.54Q85.72 20.34 85.72 18.81L85.72 18.81Q85.72 17.28 86.36 16.08Q87 14.88 88.1 14.19Q89.21 13.5 90.61 13.5L90.61 13.5Q91.64 13.5 92.47 13.9Q93.3 14.3 93.83 15Q94.35 15.7 94.42 16.61L94.42 16.61L94.42 21.02Q94.35 21.92 93.84 22.62Q93.32 23.33 92.48 23.72Q91.64 24.12 90.61 24.12M91.27 21.23L91.27 21.23Q92.29 21.23 92.92 20.54Q93.55 19.86 93.55 18.81L93.55 18.81Q93.55 18.1 93.27 17.55Q92.99 17 92.47 16.7Q91.96 16.4 91.29 16.4L91.29 16.4Q90.61 16.4 90.1 16.7Q89.59 17 89.28 17.55Q88.98 18.1 88.98 18.81L88.98 18.81Q88.98 19.5 89.27 20.05Q89.56 20.6 90.09 20.91Q90.61 21.23 91.27 21.23M96.58 23.91L93.43 23.91L93.43 21.16L93.91 18.68L93.43 16.21L93.43 13.71L96.58 13.71L96.58 23.91M103.51 23.91L100.3 23.91L100.3 9.49L103.51 9.49L103.51 23.91M105.82 16.44L97.99 16.44L97.99 13.71L105.82 13.71L105.82 16.44M114.81 23.91L111.51 23.91L111.51 9.09L114.81 9.09L114.81 23.91M124 23.91L120.69 23.91L120.69 9.09L124 9.09L124 23.91M121.78 17.72L113.48 17.72L113.48 14.86L121.78 14.86L121.78 17.72M131.59 24.14L131.59 24.14Q129.93 24.14 128.63 23.46Q127.34 22.78 126.61 21.56Q125.87 20.34 125.87 18.81L125.87 18.81Q125.87 17.28 126.6 16.07Q127.32 14.86 128.56 14.17Q129.8 13.48 131.35 13.48L131.35 13.48Q132.87 13.48 134.02 14.13Q135.18 14.78 135.84 15.93Q136.5 17.09 136.5 18.58L136.5 18.58Q136.5 18.85 136.47 19.16Q136.44 19.46 136.35 19.86L136.35 19.86L127.55 19.88L127.55 17.68L134.99 17.66L133.6 18.58Q133.58 17.7 133.33 17.12Q133.08 16.54 132.58 16.24Q132.09 15.93 131.38 15.93L131.38 15.93Q130.62 15.93 130.06 16.28Q129.51 16.63 129.2 17.26Q128.9 17.89 128.9 18.79L128.9 18.79Q128.9 19.69 129.22 20.33Q129.55 20.97 130.15 21.32Q130.75 21.67 131.56 21.67L131.56 21.67Q132.32 21.67 132.93 21.4Q133.54 21.14 134 20.62L134 20.62L135.76 22.38Q135.01 23.26 133.94 23.7Q132.87 24.14 131.59 24.14M141.27 23.91L138.05 23.91L138.05 13.71L141.27 13.71L141.27 23.91M139.67 12.3L139.67 12.3Q138.91 12.3 138.42 11.79Q137.93 11.27 137.93 10.54L137.93 10.54Q137.93 9.78 138.42 9.28Q138.91 8.77 139.67 8.77L139.67 8.77Q140.43 8.77 140.91 9.28Q141.39 9.78 141.39 10.54L141.39 10.54Q141.39 11.27 140.91 11.79Q140.43 12.3 139.67 12.3M147.86 28.49L147.86 28.49Q146.18 28.49 144.91 27.91Q143.64 27.34 142.9 26.29L142.9 26.29L144.88 24.31Q145.42 24.96 146.11 25.3Q146.79 25.64 147.76 25.64L147.76 25.64Q148.95 25.64 149.63 25.05Q150.32 24.46 150.32 23.39L150.32 23.39L150.32 20.78L150.86 18.56L150.38 16.33L150.38 13.71L153.53 13.71L153.53 23.3Q153.53 24.88 152.8 26.03Q152.06 27.19 150.78 27.84Q149.5 28.49 147.86 28.49M147.71 23.6L147.71 23.6Q146.31 23.6 145.21 22.93Q144.12 22.25 143.49 21.1Q142.86 19.94 142.86 18.54L142.86 18.54Q142.86 17.11 143.49 15.96Q144.12 14.82 145.21 14.16Q146.31 13.5 147.71 13.5L147.71 13.5Q148.76 13.5 149.59 13.89Q150.42 14.27 150.94 14.98Q151.45 15.68 151.51 16.61L151.51 16.61L151.51 20.49Q151.45 21.39 150.94 22.1Q150.42 22.8 149.58 23.2Q148.74 23.6 147.71 23.6M148.32 20.74L148.32 20.74Q148.99 20.74 149.49 20.45Q149.98 20.15 150.24 19.66Q150.51 19.17 150.51 18.54L150.51 18.54Q150.51 17.91 150.24 17.4Q149.98 16.9 149.49 16.61Q148.99 16.31 148.32 16.31L148.32 16.31Q147.67 16.31 147.17 16.61Q146.66 16.9 146.39 17.4Q146.12 17.91 146.12 18.54L146.12 18.54Q146.12 19.13 146.39 19.64Q146.66 20.15 147.16 20.45Q147.65 20.74 148.32 20.74M165.75 23.91L162.54 23.91L162.54 18.1Q162.54 17.3 162.05 16.8Q161.55 16.31 160.8 16.31L160.8 16.31Q160.27 16.31 159.87 16.53Q159.47 16.75 159.24 17.16Q159.01 17.57 159.01 18.1L159.01 18.1L157.77 17.49Q157.77 16.29 158.28 15.39Q158.78 14.48 159.68 13.99Q160.59 13.5 161.76 13.5L161.76 13.5Q162.96 13.5 163.86 13.99Q164.77 14.48 165.26 15.36Q165.75 16.23 165.75 17.38L165.75 17.38L165.75 23.91M159.01 23.91L155.8 23.91L155.8 8.67L159.01 8.67L159.01 23.91M172.35 23.91L169.13 23.91L169.13 9.49L172.35 9.49L172.35 23.91M174.66 16.44L166.82 16.44L166.82 13.71L174.66 13.71L174.66 16.44M187.38 24.14L187.38 24.14Q185.72 24.14 184.31 23.57Q182.89 22.99 181.83 21.94Q180.77 20.89 180.18 19.49Q179.59 18.1 179.59 16.48L179.59 16.48Q179.59 14.86 180.18 13.47Q180.77 12.07 181.82 11.04Q182.87 10.01 184.28 9.43Q185.7 8.86 187.36 8.86L187.36 8.86Q189.13 8.86 190.5 9.42Q191.88 9.99 192.91 10.98L192.91 10.98L190.7 13.2Q190.11 12.57 189.28 12.22Q188.45 11.86 187.36 11.86L187.36 11.86Q186.4 11.86 185.59 12.18Q184.78 12.51 184.2 13.12Q183.62 13.73 183.3 14.59Q182.97 15.45 182.97 16.48L182.97 16.48Q182.97 17.53 183.3 18.39Q183.62 19.25 184.2 19.86Q184.78 20.47 185.59 20.81Q186.4 21.14 187.36 21.14L187.36 21.14Q188.5 21.14 189.34 20.78Q190.18 20.43 190.78 19.8L190.78 19.8L193.01 22.02Q191.94 23.01 190.56 23.58Q189.19 24.14 187.38 24.14M204.48 23.91L201.26 23.91L201.26 18.1Q201.26 17.3 200.77 16.8Q200.28 16.31 199.52 16.31L199.52 16.31Q199 16.31 198.6 16.53Q198.2 16.75 197.97 17.16Q197.74 17.57 197.74 18.1L197.74 18.1L196.5 17.49Q196.5 16.29 197 15.39Q197.5 14.48 198.41 13.99Q199.31 13.5 200.49 13.5L200.49 13.5Q201.68 13.5 202.59 13.99Q203.49 14.48 203.98 15.36Q204.48 16.23 204.48 17.38L204.48 17.38L204.48 23.91M197.74 23.91L194.52 23.91L194.52 8.67L197.74 8.67L197.74 23.91M211.57 24.14L211.57 24.14Q209.92 24.14 208.62 23.46Q207.33 22.78 206.6 21.56Q205.86 20.34 205.86 18.81L205.86 18.81Q205.86 17.28 206.59 16.07Q207.31 14.86 208.55 14.17Q209.79 13.48 211.34 13.48L211.34 13.48Q212.86 13.48 214.01 14.13Q215.17 14.78 215.83 15.93Q216.49 17.09 216.49 18.58L216.49 18.58Q216.49 18.85 216.46 19.16Q216.43 19.46 216.34 19.86L216.34 19.86L207.54 19.88L207.54 17.68L214.98 17.66L213.59 18.58Q213.57 17.7 213.32 17.12Q213.07 16.54 212.57 16.24Q212.08 15.93 211.36 15.93L211.36 15.93Q210.61 15.93 210.05 16.28Q209.5 16.63 209.19 17.26Q208.89 17.89 208.89 18.79L208.89 18.79Q208.89 19.69 209.21 20.33Q209.54 20.97 210.14 21.32Q210.73 21.67 211.55 21.67L211.55 21.67Q212.31 21.67 212.92 21.4Q213.53 21.14 213.99 20.62L213.99 20.62L215.75 22.38Q215 23.26 213.93 23.7Q212.86 24.14 211.57 24.14M222.98 24.14L222.98 24.14Q221.4 24.14 220.12 23.45Q218.84 22.76 218.11 21.54Q217.37 20.32 217.37 18.81L217.37 18.81Q217.37 17.28 218.12 16.07Q218.86 14.86 220.14 14.17Q221.42 13.48 223.02 13.48L223.02 13.48Q224.22 13.48 225.21 13.89Q226.21 14.3 226.99 15.11L226.99 15.11L224.93 17.17Q224.57 16.77 224.1 16.58Q223.63 16.4 223.02 16.4L223.02 16.4Q222.33 16.4 221.79 16.7Q221.26 17 220.95 17.54Q220.65 18.08 220.65 18.79L220.65 18.79Q220.65 19.5 220.95 20.05Q221.26 20.6 221.8 20.91Q222.35 21.23 223.02 21.23L223.02 21.23Q223.65 21.23 224.14 21Q224.64 20.78 224.99 20.39L224.99 20.39L227.03 22.44Q226.23 23.28 225.22 23.71Q224.22 24.14 222.98 24.14M238.77 23.91L234.99 23.91L231.42 18.62L234.97 13.71L238.56 13.71L234.28 19.23L234.38 17.91L238.77 23.91M231.67 23.91L228.46 23.91L228.46 8.67L231.67 8.67L231.67 23.91M243.05 24.17L243.05 24.17Q242.15 24.17 241.28 23.93Q240.41 23.7 239.66 23.27Q238.92 22.84 238.39 22.28L238.39 22.28L240.22 20.43Q240.72 20.97 241.42 21.28Q242.11 21.58 242.93 21.58L242.93 21.58Q243.49 21.58 243.8 21.41Q244.1 21.25 244.1 20.95L244.1 20.95Q244.1 20.57 243.74 20.37Q243.37 20.18 242.8 20.02Q242.23 19.86 241.6 19.67Q240.97 19.48 240.41 19.15Q239.84 18.81 239.48 18.21Q239.13 17.61 239.13 16.69L239.13 16.69Q239.13 15.7 239.63 14.98Q240.13 14.25 241.06 13.83Q241.98 13.41 243.22 13.41L243.22 13.41Q244.52 13.41 245.63 13.86Q246.73 14.32 247.42 15.2L247.42 15.2L245.59 17.05Q245.11 16.48 244.51 16.25Q243.91 16.02 243.35 16.02L243.35 16.02Q242.8 16.02 242.53 16.17Q242.26 16.33 242.26 16.63L242.26 16.63Q242.26 16.94 242.61 17.13Q242.97 17.32 243.54 17.47Q244.1 17.61 244.73 17.82Q245.36 18.03 245.93 18.39Q246.5 18.75 246.85 19.35Q247.21 19.94 247.21 20.91L247.21 20.91Q247.21 22.4 246.09 23.28Q244.96 24.17 243.05 24.17"></path>
  </g>
</svg>
