<svg width="247" height="23" viewBox="0 0 247 23" xmlns="http://www.w3.org/2000/svg" role="img" aria-label="Work at Height Checks">
  <style>
    .ink { fill: #172032; }
    @media (prefers-color-scheme: dark) {
      .ink { fill: rgb(230,234,242); }
    }
  </style>
  <g class="ink">
    <g class="ink" transform="translate(1,0) scale(1)"><path fill-rule="evenodd" d="M18 5.25a2.25 2.25 0 0 0-2.012-2.238A2.25 2.25 0 0 0 13.75 1h-1.5a2.25 2.25 0 0 0-2.238 2.012c-.875.092-1.6.686-1.884 1.488H11A2.5 2.5 0 0 1 13.5 7v7h2.25A2.25 2.25 0 0 0 18 11.75v-6.5ZM12.25 2.5a.75.75 0 0 0-.75.75v.25h3v-.25a.75.75 0 0 0-.75-.75h-1.5Z" clip-rule="evenodd"></path><path fill-rule="evenodd" d="M3 6a1 1 0 0 0-1 1v10a1 1 0 0 0 1 1h8a1 1 0 0 0 1-1V7a1 1 0 0 0-1-1H3Zm6.874 4.166a.75.75 0 1 0-1.248-.832l-2.493 3.739-.853-.853a.75.75 0 0 0-1.06 1.06l1.5 1.5a.75.75 0 0 0 1.154-.114l3-4.5Z" clip-rule="evenodd"></path></g>
    <path d="M37.39 16.88L35.25 16.88L30.46 2.12L33.28 2.12L36.83 13.48L35.88 13.48L39.37 2.12L41.49 2.12L44.97 13.48L44.01 13.48L47.58 2.12L50.39 2.12L45.58 16.88L43.46 16.88L39.95 5.54L40.88 5.54L37.39 16.88M55.43 17.09L55.43 17.09Q53.9 17.09 52.67 16.39Q51.44 15.68 50.72 14.48Q49.99 13.27 49.99 11.78L49.99 11.78Q49.99 10.29 50.71 9.1Q51.42 7.91 52.66 7.21Q53.9 6.51 55.41 6.51L55.41 6.51Q56.96 6.51 58.19 7.21Q59.42 7.91 60.14 9.1Q60.85 10.29 60.85 11.78L60.85 11.78Q60.85 13.27 60.14 14.48Q59.42 15.68 58.19 16.39Q56.96 17.09 55.43 17.09M55.41 14.53L55.41 14.53Q56.19 14.53 56.79 14.18Q57.38 13.84 57.71 13.22Q58.04 12.6 58.04 11.8L58.04 11.8Q58.04 11 57.7 10.39Q57.36 9.78 56.78 9.44Q56.19 9.09 55.41 9.09L55.41 9.09Q54.65 9.09 54.07 9.44Q53.48 9.78 53.14 10.39Q52.81 11 52.81 11.8L52.81 11.8Q52.81 12.6 53.14 13.22Q53.48 13.84 54.07 14.18Q54.65 14.53 55.41 14.53M65.36 16.88L62.61 16.88L62.61 6.74L65.36 6.74L65.36 16.88M65.36 11.27L65.36 11.27L64.29 10.56Q64.48 8.69 65.38 7.61Q66.29 6.53 67.99 6.53L67.99 6.53Q68.72 6.53 69.31 6.77Q69.9 7.01 70.38 7.56L70.38 7.56L68.66 9.53Q68.43 9.28 68.1 9.15Q67.78 9.03 67.36 9.03L67.36 9.03Q66.48 9.03 65.92 9.58Q65.36 10.14 65.36 11.27M81.18 16.88L77.82 16.88L73.89 11.65L77.8 6.74L80.97 6.74L76.39 12.28L76.49 10.94L81.18 16.88M74.1 16.88L71.35 16.88L71.35 1.7L74.1 1.7L74.1 16.88M90.77 17.09L90.77 17.09Q89.39 17.09 88.28 16.4Q87.16 15.71 86.53 14.51Q85.9 13.31 85.9 11.82L85.9 11.82Q85.9 10.31 86.53 9.11Q87.16 7.91 88.28 7.22Q89.39 6.53 90.77 6.53L90.77 6.53Q91.87 6.53 92.73 6.97Q93.59 7.41 94.1 8.2Q94.62 8.99 94.66 9.97L94.66 9.97L94.66 13.63Q94.62 14.63 94.1 15.41Q93.59 16.19 92.73 16.64Q91.87 17.09 90.77 17.09M91.28 14.55L91.28 14.55Q92.43 14.55 93.15 13.78Q93.86 13.02 93.86 11.8L93.86 11.8Q93.86 11 93.54 10.38Q93.21 9.76 92.63 9.42Q92.06 9.07 91.28 9.07L91.28 9.07Q90.52 9.07 89.94 9.42Q89.37 9.76 89.04 10.38Q88.72 11 88.72 11.8L88.72 11.8Q88.72 12.62 89.04 13.24Q89.37 13.86 89.94 14.2Q90.52 14.55 91.28 14.55M96.44 16.88L93.71 16.88L93.71 14.15L94.16 11.67L93.71 9.24L93.71 6.74L96.44 6.74L96.44 16.88M103.12 16.88L100.37 16.88L100.37 2.52L103.12 2.52L103.12 16.88M105.49 9.15L98 9.15L98 6.74L105.49 6.74L105.49 9.15M114.29 16.88L111.44 16.88L111.44 2.12L114.29 2.12L114.29 16.88M123.56 16.88L120.7 16.88L120.7 2.12L123.56 2.12L123.56 16.88M121.5 10.52L113.24 10.52L113.24 8L121.5 8L121.5 10.52M131.14 17.09L131.14 17.09Q129.54 17.09 128.3 16.41Q127.06 15.73 126.34 14.53Q125.61 13.33 125.61 11.8L125.61 11.8Q125.61 10.29 126.32 9.1Q127.02 7.91 128.24 7.21Q129.46 6.51 130.95 6.51L130.95 6.51Q132.42 6.51 133.54 7.17Q134.66 7.83 135.3 8.97Q135.95 10.12 135.95 11.57L135.95 11.57Q135.95 11.84 135.91 12.13Q135.88 12.41 135.8 12.77L135.8 12.77L127.27 12.79L127.27 10.73L134.52 10.71L133.4 11.57Q133.36 10.67 133.08 10.06Q132.79 9.45 132.26 9.12Q131.72 8.8 130.95 8.8L130.95 8.8Q130.13 8.8 129.52 9.16Q128.91 9.53 128.58 10.19Q128.26 10.85 128.26 11.76L128.26 11.76Q128.26 12.68 128.61 13.36Q128.95 14.05 129.6 14.41Q130.25 14.78 131.11 14.78L131.11 14.78Q131.89 14.78 132.52 14.52Q133.15 14.26 133.61 13.73L133.61 13.73L135.23 15.35Q134.5 16.21 133.44 16.65Q132.38 17.09 131.14 17.09M140.42 16.88L137.65 16.88L137.65 6.74L140.42 6.74L140.42 16.88M139.03 5.1L139.03 5.1Q138.36 5.1 137.92 4.65Q137.48 4.2 137.48 3.53L137.48 3.53Q137.48 2.87 137.92 2.41Q138.36 1.95 139.03 1.95L139.03 1.95Q139.73 1.95 140.16 2.41Q140.59 2.87 140.59 3.53L140.59 3.53Q140.59 4.2 140.16 4.65Q139.73 5.1 139.03 5.1M147.1 21.38L147.1 21.38Q145.48 21.38 144.24 20.8Q143 20.22 142.27 19.17L142.27 19.17L144.01 17.43Q144.6 18.12 145.32 18.49Q146.05 18.86 147.07 18.86L147.07 18.86Q148.36 18.86 149.1 18.2Q149.85 17.55 149.85 16.4L149.85 16.4L149.85 13.86L150.31 11.63L149.87 9.41L149.87 6.74L152.6 6.74L152.6 16.36Q152.6 17.87 151.89 18.99Q151.19 20.12 149.95 20.75Q148.71 21.38 147.1 21.38M146.97 16.61L146.97 16.61Q145.6 16.61 144.51 15.95Q143.42 15.29 142.8 14.13Q142.18 12.98 142.18 11.55L142.18 11.55Q142.18 10.12 142.8 8.99Q143.42 7.85 144.51 7.19Q145.6 6.53 146.97 6.53L146.97 6.53Q148.1 6.53 148.98 6.97Q149.85 7.41 150.35 8.18Q150.85 8.94 150.9 9.97L150.9 9.97L150.9 13.16Q150.85 14.17 150.34 14.96Q149.83 15.75 148.95 16.18Q148.08 16.61 146.97 16.61M147.52 14.11L147.52 14.11Q148.27 14.11 148.83 13.78Q149.39 13.46 149.7 12.88Q150.01 12.3 150.01 11.57L150.01 11.57Q150.01 10.81 149.7 10.25Q149.39 9.68 148.83 9.35Q148.27 9.03 147.52 9.03L147.52 9.03Q146.76 9.03 146.19 9.35Q145.63 9.68 145.31 10.26Q145 10.83 145 11.57L145 11.57Q145 12.28 145.31 12.86Q145.63 13.44 146.19 13.77Q146.76 14.11 147.52 14.11M164.59 16.88L161.84 16.88L161.84 11.06Q161.84 10.16 161.27 9.59Q160.7 9.03 159.8 9.03L159.8 9.03Q159.21 9.03 158.75 9.28Q158.29 9.53 158.03 9.99Q157.76 10.46 157.76 11.06L157.76 11.06L156.69 10.52Q156.69 9.32 157.2 8.43Q157.7 7.54 158.59 7.03Q159.49 6.53 160.64 6.53L160.64 6.53Q161.8 6.53 162.69 7.03Q163.58 7.54 164.08 8.42Q164.59 9.3 164.59 10.46L164.59 10.46L164.59 16.88M157.76 16.88L155.01 16.88L155.01 1.7L157.76 1.7L157.76 16.88M170.93 16.88L168.18 16.88L168.18 2.52L170.93 2.52L170.93 16.88M173.3 9.15L165.81 9.15L165.81 6.74L173.3 6.74L173.3 9.15M186.09 17.09L186.09 17.09Q184.48 17.09 183.09 16.51Q181.7 15.94 180.66 14.9Q179.62 13.86 179.07 12.47Q178.51 11.09 178.51 9.49L178.51 9.49Q178.51 7.89 179.07 6.51Q179.62 5.12 180.66 4.09Q181.7 3.06 183.08 2.48Q184.46 1.89 186.09 1.89L186.09 1.89Q187.86 1.89 189.2 2.46Q190.55 3.04 191.57 4.05L191.57 4.05L189.64 5.98Q189.03 5.31 188.15 4.93Q187.27 4.55 186.09 4.55L186.09 4.55Q185.06 4.55 184.21 4.9Q183.36 5.25 182.73 5.91Q182.1 6.57 181.77 7.48Q181.43 8.4 181.43 9.49L181.43 9.49Q181.43 10.6 181.77 11.51Q182.1 12.41 182.73 13.07Q183.36 13.73 184.21 14.09Q185.06 14.45 186.09 14.45L186.09 14.45Q187.33 14.45 188.22 14.07Q189.12 13.69 189.73 13L189.73 13L191.66 14.93Q190.63 15.96 189.26 16.52Q187.9 17.09 186.09 17.09M202.94 16.88L200.18 16.88L200.18 11.06Q200.18 10.16 199.62 9.59Q199.05 9.03 198.15 9.03L198.15 9.03Q197.56 9.03 197.1 9.28Q196.64 9.53 196.37 9.99Q196.11 10.46 196.11 11.06L196.11 11.06L195.04 10.52Q195.04 9.32 195.54 8.43Q196.05 7.54 196.94 7.03Q197.83 6.53 198.99 6.53L198.99 6.53Q200.14 6.53 201.03 7.03Q201.93 7.54 202.43 8.42Q202.94 9.3 202.94 10.46L202.94 10.46L202.94 16.88M196.11 16.88L193.36 16.88L193.36 1.7L196.11 1.7L196.11 16.88M210.01 17.09L210.01 17.09Q208.42 17.09 207.18 16.41Q205.94 15.73 205.21 14.53Q204.49 13.33 204.49 11.8L204.49 11.8Q204.49 10.29 205.19 9.1Q205.9 7.91 207.11 7.21Q208.33 6.51 209.82 6.51L209.82 6.51Q211.29 6.51 212.42 7.17Q213.54 7.83 214.18 8.97Q214.82 10.12 214.82 11.57L214.82 11.57Q214.82 11.84 214.79 12.13Q214.76 12.41 214.67 12.77L214.67 12.77L206.15 12.79L206.15 10.73L213.39 10.71L212.28 11.57Q212.24 10.67 211.95 10.06Q211.67 9.45 211.14 9.12Q210.6 8.8 209.82 8.8L209.82 8.8Q209 8.8 208.4 9.16Q207.79 9.53 207.46 10.19Q207.14 10.85 207.14 11.76L207.14 11.76Q207.14 12.68 207.48 13.36Q207.83 14.05 208.48 14.41Q209.13 14.78 209.99 14.78L209.99 14.78Q210.77 14.78 211.4 14.52Q212.03 14.26 212.49 13.73L212.49 13.73L214.11 15.35Q213.37 16.21 212.31 16.65Q211.25 17.09 210.01 17.09M221.31 17.09L221.31 17.09Q219.76 17.09 218.52 16.4Q217.28 15.71 216.56 14.51Q215.85 13.31 215.85 11.82L215.85 11.82Q215.85 10.31 216.56 9.11Q217.28 7.91 218.53 7.21Q219.78 6.51 221.31 6.51L221.31 6.51Q222.51 6.51 223.52 6.95Q224.52 7.39 225.26 8.21L225.26 8.21L223.49 9.99Q223.09 9.55 222.54 9.32Q221.98 9.09 221.31 9.09L221.31 9.09Q220.55 9.09 219.96 9.44Q219.36 9.78 219.01 10.38Q218.66 10.98 218.66 11.8L218.66 11.8Q218.66 12.6 219.01 13.22Q219.36 13.84 219.96 14.18Q220.55 14.53 221.31 14.53L221.31 14.53Q222 14.53 222.56 14.29Q223.12 14.05 223.52 13.58L223.52 13.58L225.3 15.37Q224.52 16.21 223.52 16.65Q222.51 17.09 221.31 17.09M236.68 16.88L233.32 16.88L229.4 11.65L233.3 6.74L236.47 6.74L231.89 12.28L232 10.94L236.68 16.88M229.6 16.88L226.85 16.88L226.85 1.7L229.6 1.7L229.6 16.88M240.84 17.11L240.84 17.11Q239.98 17.11 239.15 16.88Q238.32 16.65 237.63 16.24Q236.93 15.83 236.43 15.24L236.43 15.24L238.07 13.58Q238.59 14.17 239.29 14.47Q239.98 14.76 240.82 14.76L240.82 14.76Q241.49 14.76 241.84 14.57Q242.18 14.38 242.18 14L242.18 14Q242.18 13.58 241.82 13.35Q241.45 13.12 240.86 12.97Q240.27 12.81 239.63 12.61Q238.99 12.41 238.4 12.08Q237.82 11.76 237.45 11.18Q237.08 10.6 237.08 9.68L237.08 9.68Q237.08 8.71 237.55 8Q238.03 7.28 238.91 6.89Q239.79 6.49 240.99 6.49L240.99 6.49Q242.25 6.49 243.27 6.93Q244.28 7.37 244.96 8.25L244.96 8.25L243.3 9.91Q242.83 9.34 242.26 9.09Q241.68 8.84 241.01 8.84L241.01 8.84Q240.4 8.84 240.07 9.03Q239.75 9.22 239.75 9.55L239.75 9.55Q239.75 9.93 240.12 10.14Q240.48 10.35 241.07 10.51Q241.66 10.67 242.3 10.86Q242.94 11.06 243.52 11.42Q244.09 11.78 244.46 12.37Q244.83 12.95 244.83 13.88L244.83 13.88Q244.83 15.37 243.76 16.24Q242.69 17.11 240.84 17.11"></path>
  </g>
</svg>
