<svg width="247" height="35" viewBox="0 0 247 35" xmlns="http://www.w3.org/2000/svg" role="img" aria-label="Work at Height Checks">
  <style>
    .ink { fill: #172032; }
    .rule { fill: rgb(228,230,235); }
    @media (prefers-color-scheme: dark) {
      .ink { fill: rgb(230,234,242); }
      .rule { fill: rgb(66,77,96); }
    }
  </style>
  <g class="ink">
    <g class="ink" transform="translate(0,7) scale(1)"><path fill-rule="evenodd" d="M18 5.25a2.25 2.25 0 0 0-2.012-2.238A2.25 2.25 0 0 0 13.75 1h-1.5a2.25 2.25 0 0 0-2.238 2.012c-.875.092-1.6.686-1.884 1.488H11A2.5 2.5 0 0 1 13.5 7v7h2.25A2.25 2.25 0 0 0 18 11.75v-6.5ZM12.25 2.5a.75.75 0 0 0-.75.75v.25h3v-.25a.75.75 0 0 0-.75-.75h-1.5Z" clip-rule="evenodd"></path><path fill-rule="evenodd" d="M3 6a1 1 0 0 0-1 1v10a1 1 0 0 0 1 1h8a1 1 0 0 0 1-1V7a1 1 0 0 0-1-1H3Zm6.874 4.166a.75.75 0 1 0-1.248-.832l-2.493 3.739-.853-.853a.75.75 0 0 0-1.06 1.06l1.5 1.5a.75.75 0 0 0 1.154-.114l3-4.5Z" clip-rule="evenodd"></path></g>
    <path d="M33.36 23.9L29.44 9.1L32.65 9.1L34.99 19.7L35.05 19.7L37.78 9.1L40.49 9.1L43.22 19.7L43.28 19.7L45.63 9.1L48.84 9.1L44.91 23.9L41.89 23.9L39.17 13.98L39.11 13.98L36.38 23.9ZM54.06 24.12Q52.39 24.12 51.17 23.44Q49.95 22.75 49.28 21.47Q48.62 20.19 48.62 18.4L48.62 18.38Q48.62 16.61 49.29 15.33Q49.97 14.05 51.19 13.37Q52.41 12.68 54.05 12.68Q55.7 12.68 56.93 13.36Q58.15 14.04 58.83 15.32Q59.51 16.6 59.51 18.38L59.51 18.4Q59.51 20.2 58.83 21.48Q58.16 22.76 56.94 23.44Q55.72 24.12 54.06 24.12ZM54.07 21.78Q54.8 21.78 55.34 21.38Q55.88 20.99 56.17 20.23Q56.46 19.48 56.46 18.4L56.46 18.38Q56.46 17.32 56.16 16.57Q55.87 15.82 55.32 15.42Q54.78 15.03 54.05 15.03Q53.33 15.03 52.79 15.42Q52.26 15.82 51.96 16.57Q51.66 17.32 51.66 18.38L51.66 18.4Q51.66 19.48 51.95 20.23Q52.25 20.99 52.79 21.38Q53.33 21.78 54.07 21.78ZM61.04 23.9L61.04 12.91L64.04 12.91L64.04 14.82L64.1 14.82Q64.35 13.81 64.99 13.24Q65.64 12.68 66.6 12.68Q66.85 12.68 67.07 12.71Q67.3 12.74 67.46 12.79L67.46 15.43Q67.28 15.36 66.99 15.31Q66.7 15.26 66.38 15.26Q65.64 15.26 65.11 15.55Q64.59 15.84 64.31 16.39Q64.04 16.95 64.04 17.75L64.04 23.9ZM68.79 23.9L68.79 9.1L71.78 9.1L71.78 23.9ZM75.7 23.9L72.3 19.04L74.2 16.76L79.15 23.9ZM71.41 20.66L71.41 17.3L71.84 17.3L75.55 12.91L78.95 12.91L73.87 18.68L73.2 18.68ZM87.41 24.07Q86.31 24.07 85.48 23.65Q84.65 23.22 84.18 22.47Q83.71 21.71 83.71 20.75L83.71 20.73Q83.71 19.72 84.22 19.01Q84.72 18.3 85.67 17.89Q86.63 17.48 87.99 17.39L92.28 17.12L92.28 18.99L88.44 19.23Q87.58 19.28 87.13 19.64Q86.68 19.99 86.68 20.58L86.68 20.6Q86.68 21.2 87.14 21.54Q87.6 21.89 88.38 21.89Q89.05 21.89 89.57 21.63Q90.1 21.37 90.41 20.91Q90.71 20.45 90.71 19.88L90.71 16.55Q90.71 15.82 90.25 15.39Q89.79 14.97 88.9 14.97Q88.06 14.97 87.57 15.32Q87.08 15.66 86.97 16.2L86.94 16.29L84.21 16.29L84.22 16.17Q84.3 15.15 84.89 14.36Q85.48 13.57 86.53 13.13Q87.58 12.68 89.03 12.68Q90.45 12.68 91.5 13.14Q92.54 13.59 93.12 14.42Q93.7 15.25 93.7 16.36L93.7 23.9L90.71 23.9L90.71 22.26L90.65 22.26Q90.34 22.82 89.85 23.23Q89.36 23.63 88.75 23.85Q88.13 24.07 87.41 24.07ZM100 24.12Q98.17 24.12 97.29 23.35Q96.41 22.59 96.41 20.82L96.41 15.16L94.88 15.16L94.88 12.91L96.41 12.91L96.41 10.22L99.43 10.22L99.43 12.91L101.44 12.91L101.44 15.16L99.43 15.16L99.43 20.49Q99.43 21.26 99.78 21.57Q100.12 21.87 100.8 21.87Q101 21.87 101.16 21.85Q101.31 21.84 101.44 21.82L101.44 24.01Q101.2 24.05 100.83 24.09Q100.47 24.12 100 24.12ZM107.5 23.9L107.5 9.1L110.6 9.1L110.6 15.11L117.27 15.11L117.27 9.1L120.36 9.1L120.36 23.9L117.27 23.9L117.27 17.66L110.6 17.66L110.6 23.9ZM127.57 24.12Q125.89 24.12 124.68 23.43Q123.47 22.74 122.82 21.46Q122.17 20.18 122.17 18.42L122.17 18.41Q122.17 16.66 122.82 15.37Q123.47 14.09 124.65 13.38Q125.84 12.68 127.45 12.68Q129.06 12.68 130.23 13.36Q131.41 14.04 132.05 15.28Q132.69 16.53 132.69 18.19L132.69 19.11L123.63 19.11L123.63 17.22L131.27 17.22L129.85 18.99L129.85 17.84Q129.85 16.87 129.55 16.22Q129.25 15.57 128.72 15.24Q128.2 14.92 127.5 14.92Q126.8 14.92 126.26 15.25Q125.73 15.59 125.42 16.24Q125.12 16.89 125.12 17.84L125.12 19Q125.12 19.91 125.42 20.56Q125.73 21.2 126.29 21.54Q126.85 21.89 127.63 21.89Q128.25 21.89 128.7 21.69Q129.15 21.5 129.44 21.2Q129.72 20.9 129.83 20.6L129.85 20.53L132.6 20.53L132.56 20.65Q132.44 21.25 132.08 21.87Q131.72 22.48 131.11 23Q130.5 23.51 129.63 23.82Q128.75 24.12 127.57 24.12ZM134.29 23.9L134.29 12.91L137.28 12.91L137.28 23.9ZM135.78 11.49Q135.11 11.49 134.65 11.03Q134.18 10.57 134.18 9.93Q134.18 9.29 134.65 8.83Q135.11 8.37 135.78 8.37Q136.46 8.37 136.92 8.83Q137.38 9.29 137.38 9.93Q137.38 10.57 136.92 11.03Q136.46 11.49 135.78 11.49ZM144.42 27.71Q142.91 27.71 141.79 27.3Q140.67 26.88 140 26.17Q139.34 25.47 139.2 24.59L139.19 24.49L142.1 24.49L142.13 24.56Q142.32 24.96 142.9 25.27Q143.48 25.58 144.42 25.58Q145.58 25.58 146.18 25.03Q146.79 24.47 146.79 23.55L146.79 21.87L146.73 21.87Q146.44 22.44 145.95 22.86Q145.45 23.28 144.79 23.51Q144.13 23.74 143.33 23.74Q141.96 23.74 140.96 23.09Q139.96 22.43 139.42 21.21Q138.88 19.98 138.88 18.28L138.88 18.27Q138.88 16.52 139.43 15.26Q139.98 14.01 140.98 13.35Q141.99 12.68 143.38 12.68Q144.16 12.68 144.81 12.94Q145.45 13.19 145.94 13.66Q146.43 14.14 146.73 14.78L146.79 14.78L146.79 12.91L149.78 12.91L149.78 23.59Q149.78 24.81 149.13 25.74Q148.48 26.67 147.27 27.19Q146.07 27.71 144.42 27.71ZM144.37 21.55Q145.1 21.55 145.65 21.16Q146.19 20.77 146.49 20.05Q146.8 19.34 146.8 18.35L146.8 18.34Q146.8 17.36 146.49 16.64Q146.19 15.93 145.64 15.55Q145.09 15.16 144.37 15.16Q143.63 15.16 143.07 15.55Q142.52 15.93 142.22 16.64Q141.93 17.35 141.93 18.34L141.93 18.35Q141.93 19.34 142.22 20.05Q142.52 20.77 143.07 21.16Q143.63 21.55 144.37 21.55ZM151.81 23.9L151.81 9.1L154.81 9.1L154.81 14.8L154.87 14.8Q155.3 13.78 156.15 13.23Q157.01 12.68 158.24 12.68Q159.44 12.68 160.3 13.21Q161.16 13.74 161.63 14.7Q162.1 15.66 162.1 17L162.1 23.9L159.1 23.9L159.1 17.61Q159.1 16.46 158.55 15.81Q158 15.16 156.98 15.16Q156.32 15.16 155.84 15.47Q155.35 15.79 155.08 16.34Q154.81 16.88 154.81 17.6L154.81 23.9ZM168.38 24.12Q166.56 24.12 165.67 23.35Q164.79 22.59 164.79 20.82L164.79 15.16L163.26 15.16L163.26 12.91L164.79 12.91L164.79 10.22L167.82 10.22L167.82 12.91L169.83 12.91L169.83 15.16L167.82 15.16L167.82 20.49Q167.82 21.26 168.16 21.57Q168.5 21.87 169.18 21.87Q169.39 21.87 169.54 21.85Q169.69 21.84 169.83 21.82L169.83 24.01Q169.58 24.05 169.22 24.09Q168.85 24.12 168.38 24.12ZM182.47 24.15Q180.31 24.15 178.72 23.23Q177.14 22.31 176.28 20.59Q175.43 18.87 175.43 16.49L175.43 16.48Q175.43 14.1 176.29 12.39Q177.15 10.68 178.73 9.76Q180.31 8.85 182.47 8.85Q184.26 8.85 185.67 9.54Q187.07 10.24 187.93 11.46Q188.78 12.67 188.92 14.25L188.93 14.34L185.92 14.34L185.87 14.17Q185.7 13.35 185.25 12.74Q184.8 12.14 184.1 11.8Q183.39 11.47 182.47 11.47Q181.28 11.47 180.41 12.08Q179.54 12.68 179.06 13.8Q178.58 14.93 178.58 16.47L178.58 16.48Q178.58 18.04 179.06 19.18Q179.54 20.31 180.41 20.92Q181.29 21.53 182.47 21.53Q183.36 21.53 184.06 21.2Q184.77 20.87 185.24 20.25Q185.71 19.63 185.91 18.75L185.93 18.65L188.94 18.65L188.93 18.76Q188.79 20.33 187.93 21.55Q187.07 22.77 185.67 23.46Q184.26 24.15 182.47 24.15ZM190.66 23.9L190.66 9.1L193.66 9.1L193.66 14.8L193.72 14.8Q194.15 13.78 195.01 13.23Q195.86 12.68 197.09 12.68Q198.29 12.68 199.15 13.21Q200.01 13.74 200.48 14.7Q200.95 15.66 200.95 17L200.95 23.9L197.95 23.9L197.95 17.61Q197.95 16.46 197.41 15.81Q196.86 15.16 195.83 15.16Q195.17 15.16 194.69 15.47Q194.2 15.79 193.93 16.34Q193.66 16.88 193.66 17.6L193.66 23.9ZM207.87 24.12Q206.19 24.12 204.98 23.43Q203.77 22.74 203.12 21.46Q202.47 20.18 202.47 18.42L202.47 18.41Q202.47 16.66 203.12 15.37Q203.77 14.09 204.95 13.38Q206.14 12.68 207.75 12.68Q209.36 12.68 210.53 13.36Q211.7 14.04 212.34 15.28Q212.99 16.53 212.99 18.19L212.99 19.11L203.93 19.11L203.93 17.22L211.57 17.22L210.15 18.99L210.15 17.84Q210.15 16.87 209.85 16.22Q209.55 15.57 209.02 15.24Q208.49 14.92 207.8 14.92Q207.1 14.92 206.56 15.25Q206.02 15.59 205.72 16.24Q205.42 16.89 205.42 17.84L205.42 19Q205.42 19.91 205.72 20.56Q206.02 21.2 206.59 21.54Q207.15 21.89 207.93 21.89Q208.55 21.89 209 21.69Q209.45 21.5 209.74 21.2Q210.02 20.9 210.13 20.6L210.15 20.53L212.89 20.53L212.86 20.65Q212.74 21.25 212.38 21.87Q212.02 22.48 211.41 23Q210.8 23.51 209.93 23.82Q209.05 24.12 207.87 24.12ZM219.55 24.12Q217.88 24.12 216.66 23.43Q215.44 22.73 214.78 21.44Q214.12 20.16 214.12 18.39L214.12 18.38Q214.12 16.62 214.79 15.34Q215.45 14.06 216.66 13.37Q217.88 12.68 219.52 12.68Q221.01 12.68 222.11 13.24Q223.21 13.8 223.83 14.75Q224.45 15.71 224.51 16.89L224.51 16.97L221.73 16.97L221.71 16.87Q221.58 16.08 221.04 15.56Q220.49 15.03 219.56 15.03Q218.83 15.03 218.29 15.43Q217.75 15.84 217.46 16.59Q217.17 17.35 217.17 18.39L217.17 18.4Q217.17 19.48 217.46 20.23Q217.75 20.99 218.29 21.38Q218.83 21.78 219.57 21.78Q220.47 21.78 221.02 21.27Q221.57 20.76 221.72 19.93L221.73 19.84L224.52 19.84L224.52 19.9Q224.45 21.1 223.82 22.05Q223.2 23.01 222.11 23.56Q221.01 24.12 219.55 24.12ZM226.07 23.9L226.07 9.1L229.06 9.1L229.06 23.9ZM232.98 23.9L229.59 19.04L231.48 16.76L236.44 23.9ZM228.69 20.66L228.69 17.3L229.13 17.3L232.84 12.91L236.23 12.91L231.16 18.68L230.49 18.68ZM241.58 24.12Q240.07 24.12 239 23.68Q237.93 23.24 237.33 22.46Q236.73 21.67 236.61 20.64L236.6 20.55L239.52 20.55L239.54 20.64Q239.69 21.28 240.19 21.64Q240.69 22 241.58 22Q242.16 22 242.56 21.86Q242.96 21.72 243.18 21.47Q243.4 21.21 243.4 20.85L243.4 20.84Q243.4 20.4 243.08 20.14Q242.76 19.87 241.95 19.68L240.09 19.29Q239.02 19.07 238.31 18.64Q237.6 18.22 237.24 17.59Q236.88 16.96 236.88 16.14L236.88 16.13Q236.88 15.07 237.44 14.3Q238.01 13.53 239.05 13.11Q240.09 12.68 241.48 12.68Q242.94 12.68 243.96 13.15Q244.98 13.61 245.53 14.4Q246.08 15.19 246.11 16.16L246.11 16.26L243.35 16.26L243.34 16.18Q243.27 15.58 242.79 15.19Q242.31 14.79 241.48 14.79Q240.97 14.79 240.59 14.94Q240.21 15.08 240 15.34Q239.8 15.6 239.8 15.96L239.8 15.97Q239.8 16.25 239.94 16.47Q240.08 16.69 240.4 16.85Q240.73 17.02 241.29 17.14L243.15 17.54Q244.3 17.78 245.01 18.18Q245.73 18.58 246.06 19.16Q246.39 19.74 246.39 20.55L246.39 20.56Q246.39 21.63 245.78 22.43Q245.16 23.23 244.08 23.68Q243 24.12 241.58 24.12Z"></path>
  </g>
  <rect class="rule" x="0" y="34" width="247" height="1"></rect>
</svg>
