<svg version="1.1" viewBox="0.0 0.0 3000.0 300.0" fill="none" stroke="none" stroke-linecap="square" stroke-miterlimit="10" xmlns:xlink="http://www.w3.org/1999/xlink" xmlns="http://www.w3.org/2000/svg"><clipPath id="p.0"><path d="m0 0l3000.0 0l0 300.0l-3000.0 0l0 -300.0z" clip-rule="nonzero"/></clipPath><g clip-path="url(#p.0)"><path fill="#ffffff" d="m0 0l3000.0 0l0 300.0l-3000.0 0z" fill-rule="evenodd"/><path fill="#000000" fill-opacity="0.0" d="m201.62204 35.259842l2596.7559 0l0 229.4803l-2596.7559 0z" fill-rule="evenodd"/><path fill="#6b7280" d="m258.62656 210.65984q-1.90625 0 -3.125 -1.296875q-1.203125 -1.296875 -1.203125 -3.03125l0 -112.671875q0 -1.90625 1.203125 -3.109375q1.21875 -1.21875 3.125 -1.21875l80.9375 0q1.90625 0 3.125 1.21875q1.21875 1.203125 1.21875 3.109375l0 16.296875q0 1.90625 -1.21875 3.125q-1.21875 1.203125 -3.125 1.203125l-55.28125 0l0 23.40625l51.46875 0q1.90625 0 3.125 1.296875q1.21875 1.296875 1.21875 3.203125l0 15.078125q0 1.734375 -1.21875 3.046875q-1.21875 1.296875 -3.125 1.296875l-51.46875 0l0 24.09375l56.671875 0q1.90625 0 3.109375 1.21875q1.21875 1.203125 1.21875 3.109375l0 16.296875q0 1.734375 -1.21875 3.03125q-1.203125 1.296875 -3.109375 1.296875l-82.328125 0zm107.293365 -39.515625q-1.90625 0 -3.125 -1.21875q-1.21875 -1.21875 -1.21875 -3.125l0 -16.28125q0 -1.90625 1.21875 -3.125q1.21875 -1.21875 3.125 -1.21875l54.25 0q1.90625 0 3.203125 1.21875q1.296875 1.21875 1.296875 3.125l0 16.28125q0 1.90625 -1.296875 3.125q-1.296875 1.21875 -3.203125 1.21875l-54.25 0zm83.0213 39.515625q-1.90625 0 -3.125 -1.296875q-1.21875 -1.296875 -1.21875 -3.03125l0 -114.40625q0 -1.90625 1.21875 -3.109375q1.21875 -1.21875 3.125 -1.21875l20.453094 0q1.90625 0 3.109375 1.21875q1.21875 1.203125 1.21875 3.109375l0 114.40625q0 1.734375 -1.21875 3.03125q-1.203125 1.296875 -3.109375 1.296875l-20.453094 0zm86.83746 1.734375q-20.453125 0 -32.59375 -11.09375q-12.125 -11.09375 -12.640625 -32.9375q0 -1.203125 0 -3.109375q0 -1.90625 0 -2.953125q0.515625 -13.6875 6.140625 -23.484375q5.640625 -9.796875 15.609375 -14.90625q9.96875 -5.109375 23.3125 -5.109375q15.25 0 25.21875 6.0625q9.96875 6.0625 14.984375 16.46875q5.03125 10.390625 5.03125 23.75l0 4.15625q0 1.90625 -1.21875 3.125q-1.203125 1.203125 -3.109375 1.203125l-55.46875 0q0 0.171875 0 0.53125q0 0.34375 0 0.6875q0.171875 5.015625 1.8125 9.1875q1.65625 4.15625 4.859375 6.59375q3.203125 2.421875 7.890625 2.421875q3.46875 0 5.796875 -1.125q2.34375 -1.140625 3.90625 -2.609375q1.5625 -1.46875 2.421875 -2.515625q1.5625 -1.90625 2.515625 -2.328125q0.953125 -0.4375 3.03125 -0.4375l21.5 0q1.734375 0 2.859375 1.046875q1.125 1.03125 0.953125 2.765625q-0.171875 2.9375 -2.953125 7.109375q-2.765625 4.15625 -8.0625 8.234375q-5.28125 4.0625 -13.265625 6.671875q-7.96875 2.59375 -18.53125 2.59375zm-14.734375 -55.984375l29.296875 0l0 -0.34375q0 -5.71875 -1.65625 -9.796875q-1.640625 -4.078125 -5.03125 -6.328125q-3.375 -2.25 -8.046875 -2.25q-4.515625 0 -7.8125 2.25q-3.28125 2.25 -5.015625 6.328125q-1.734375 4.078125 -1.734375 9.796875l0 0.34375zm103.128845 55.984375q-9.359375 0 -16.734375 -3.546875q-7.359375 -3.5625 -11.703125 -9.625q-4.328125 -6.0625 -4.328125 -13.6875q0 -12.3125 10.046875 -19.5q10.0625 -7.203125 26.703125 -9.796875l21.671875 -3.296875l0 -2.421875q0 -6.25 -2.609375 -9.53125q-2.59375 -3.296875 -9.53125 -3.296875q-4.84375 0 -7.890625 1.90625q-3.03125 1.90625 -4.765625 5.203125q-1.546875 2.25 -4.328125 2.25l-19.40625 0q-1.90625 0 -2.953125 -1.125q-1.03125 -1.125 -0.859375 -2.6875q0 -3.125 2.328125 -7.1875q2.34375 -4.078125 7.1875 -8.0625q4.859375 -4.0 12.484375 -6.59375q7.640625 -2.59375 18.546875 -2.59375q11.09375 0 19.0625 2.59375q7.984375 2.59375 13.0 7.28125q5.03125 4.6875 7.375 11.015625q2.34375 6.3125 2.34375 13.9375l0 52.703125q0 1.734375 -1.3125 3.03125q-1.296875 1.296875 -3.015625 1.296875l-20.109375 0q-1.90625 0 -3.125 -1.296875q-1.21875 -1.296875 -1.21875 -3.03125l0 -6.078125q-2.25 3.296875 -6.0625 6.078125q-3.8125 2.765625 -8.921875 4.40625q-5.109375 1.65625 -11.875 1.65625zm8.140625 -19.765625q5.03125 0 9.09375 -2.15625q4.078125 -2.171875 6.421875 -6.765625q2.34375 -4.59375 2.34375 -11.53125l0 -2.421875l-14.734375 2.59375q-8.140625 1.390625 -11.875 4.25q-3.71875 2.859375 -3.71875 6.671875q0 2.953125 1.734375 5.03125q1.734375 2.078125 4.59375 3.203125q2.859375 1.125 6.140625 1.125zm71.41986 18.03125q-1.90625 0 -3.125 -1.296875q-1.21875 -1.296875 -1.21875 -3.03125l0 -81.46875q0 -1.734375 1.21875 -3.03125q1.21875 -1.296875 3.125 -1.296875l19.9375 0q1.90625 0 3.203125 1.296875q1.296875 1.296875 1.296875 3.03125l0 6.9375q4.5 -5.375 11.0 -8.3125q6.5 -2.953125 14.65625 -2.953125l7.625 0q1.90625 0 3.109375 1.21875q1.21875 1.203125 1.21875 3.109375l0 17.859375q0 1.71875 -1.21875 3.03125q-1.203125 1.296875 -3.109375 1.296875l-16.8125 0q-7.109375 0 -11.015625 3.90625q-3.890625 3.890625 -3.890625 11.0l0 44.375q0 1.734375 -1.3125 3.03125q-1.296875 1.296875 -3.203125 1.296875l-21.484375 0zm78.69098 0q-1.90625 0 -3.125 -1.296875q-1.21875 -1.296875 -1.21875 -3.03125l0 -81.46875q0 -1.90625 1.21875 -3.109375q1.21875 -1.21875 3.125 -1.21875l19.9375 0q1.90625 0 3.203125 1.21875q1.296875 1.203125 1.296875 3.109375l0 6.578125q4.328125 -5.359375 11.609375 -9.0q7.28125 -3.640625 17.15625 -3.640625q10.0625 0 17.765625 4.515625q7.71875 4.5 12.140625 13.171875q4.421875 8.65625 4.421875 21.484375l0 48.359375q0 1.734375 -1.21875 3.03125q-1.21875 1.296875 -3.125 1.296875l-21.828125 0q-1.734375 0 -3.046875 -1.296875q-1.296875 -1.296875 -1.296875 -3.03125l0 -47.328125q0 -8.140625 -3.90625 -12.5625q-3.890625 -4.421875 -11.515625 -4.421875q-7.109375 0 -11.359375 4.421875q-4.234375 4.421875 -4.234375 12.5625l0 47.328125q0 1.734375 -1.3125 3.03125q-1.296875 1.296875 -3.03125 1.296875l-21.65625 0zm111.45001 0q-1.90625 0 -3.125 -1.296875q-1.21875 -1.296875 -1.21875 -3.03125l0 -81.46875q0 -1.90625 1.21875 -3.109375q1.21875 -1.21875 3.125 -1.21875l20.453125 0q1.90625 0 3.109375 1.21875q1.21875 1.203125 1.21875 3.109375l0 81.46875q0 1.734375 -1.21875 3.03125q-1.203125 1.296875 -3.109375 1.296875l-20.453125 0zm-0.171875 -103.125q-1.90625 0 -3.125 -1.21875q-1.21875 -1.21875 -1.21875 -3.125l0 -15.59375q0 -1.734375 1.21875 -3.03125q1.21875 -1.296875 3.125 -1.296875l20.796875 0q1.734375 0 3.03125 1.296875q1.296875 1.296875 1.296875 3.03125l0 15.59375q0 1.90625 -1.296875 3.125q-1.296875 1.21875 -3.03125 1.21875l-20.796875 0zm49.743713 103.125q-1.90625 0 -3.125 -1.296875q-1.21875 -1.296875 -1.21875 -3.03125l0 -81.46875q0 -1.90625 1.21875 -3.109375q1.21875 -1.21875 3.125 -1.21875l19.9375 0q1.90625 0 3.203125 1.21875q1.296875 1.203125 1.296875 3.109375l0 6.578125q4.328125 -5.359375 11.609375 -9.0q7.28125 -3.640625 17.15625 -3.640625q10.0625 0 17.765625 4.515625q7.71875 4.5 12.140564 13.171875q4.421875 8.65625 4.421875 21.484375l0 48.359375q0 1.734375 -1.21875 3.03125q-1.21875 1.296875 -3.125 1.296875l-21.828064 0q-1.734375 0 -3.046875 -1.296875q-1.296875 -1.296875 -1.296875 -3.03125l0 -47.328125q0 -8.140625 -3.90625 -12.5625q-3.890625 -4.421875 -11.515625 -4.421875q-7.109375 0 -11.359375 4.421875q-4.234375 4.421875 -4.234375 12.5625l0 47.328125q0 1.734375 -1.3125 3.03125q-1.296875 1.296875 -3.03125 1.296875l-21.65625 0zm151.30939 38.125q-13.34375 0 -22.09375 -3.46875q-8.75 -3.453125 -13.875 -8.3125q-5.109375 -4.84375 -7.359375 -9.625q-2.25 -4.765625 -2.421875 -7.53125q-0.171875 -1.90625 1.203125 -3.203125q1.390625 -1.296875 3.296875 -1.296875l22.015625 0q1.734375 0 2.765625 0.859375q1.046875 0.859375 1.734375 2.765625q1.046875 1.90625 2.421875 3.90625q1.390625 2.0 4.078125 3.375q2.6875 1.390625 7.375 1.390625q5.203125 0 8.65625 -1.65625q3.46875 -1.640625 5.203125 -5.375q1.734375 -3.71875 1.734375 -9.953125l0 -11.609375q-3.984375 4.328125 -10.234375 7.015625q-6.234375 2.6875 -15.0625 2.6875q-8.84375 0 -15.609375 -2.59375q-6.75 -2.609375 -11.265625 -7.796875q-4.5 -5.203125 -7.015625 -12.65625q-2.515625 -7.453125 -3.03125 -17.171875q-0.171875 -4.5 0 -9.1875q0.515625 -9.171875 2.9375 -16.71875q2.4375 -7.546875 7.03125 -12.828125q4.59375 -5.28125 11.34375 -8.140625q6.765625 -2.859375 15.609375 -2.859375q9.359375 0 16.03125 3.5625q6.671875 3.546875 11.0 8.90625l0 -6.40625q0 -1.734375 1.203125 -3.03125q1.21875 -1.296875 3.125 -1.296875l19.9375 0q1.90625 0 3.203125 1.296875q1.296875 1.296875 1.296875 3.03125l0 83.375q0 13.171875 -5.28125 22.171875q-5.28125 9.015625 -15.421875 13.6875q-10.140625 4.6875 -24.53125 4.6875zm-1.203125 -62.5625q5.546875 0 9.0 -2.421875q3.46875 -2.4375 5.109375 -6.25q1.65625 -3.8125 1.828125 -8.140625q0.171875 -1.90625 0.171875 -5.375q0 -3.46875 -0.171875 -5.203125q-0.171875 -4.5 -1.828125 -8.3125q-1.640625 -3.8125 -5.109375 -6.15625q-3.453125 -2.34375 -9.0 -2.34375q-5.734375 0 -9.109375 2.4375q-3.375 2.421875 -4.859375 6.578125q-1.46875 4.15625 -1.8125 9.1875q-0.171875 3.8125 0 7.796875q0.34375 5.03125 1.8125 9.1875q1.484375 4.15625 4.859375 6.59375q3.375 2.421875 9.109375 2.421875zm110.05896 24.4375q-1.90625 0 -3.125 -1.296875q-1.203125 -1.296875 -1.203125 -3.03125l0 -112.671875q0 -1.90625 1.203125 -3.109375q1.21875 -1.21875 3.125 -1.21875l45.0625 0q16.984375 0 28.9375 5.46875q11.96875 5.453125 18.375 15.9375q6.421875 10.484375 6.9375 25.90625q0.171875 7.625 0.171875 13.359375q0 5.71875 -0.171875 13.171875q-0.6875 16.109375 -6.84375 26.6875q-6.15625 10.578125 -17.859375 15.6875q-11.6875 5.109375 -28.6875 5.109375l-45.921875 0zm26.859375 -24.953125l18.203125 0q7.453125 0 12.390625 -2.34375q4.9375 -2.34375 7.453125 -7.359375q2.515625 -5.03125 2.6875 -13.1875q0.34375 -5.015625 0.421875 -9.0q0.09375 -4.0 0 -7.984375q-0.078125 -3.984375 -0.421875 -8.84375q-0.34375 -11.78125 -6.15625 -17.234375q-5.796875 -5.46875 -17.234375 -5.46875l-17.34375 0l0 71.421875zm132.60303 26.6875q-20.453125 0 -32.59375 -11.09375q-12.125 -11.09375 -12.640625 -32.9375q0 -1.203125 0 -3.109375q0 -1.90625 0 -2.953125q0.515625 -13.6875 6.140625 -23.484375q5.640625 -9.796875 15.609375 -14.90625q9.96875 -5.109375 23.3125 -5.109375q15.25 0 25.21875 6.0625q9.96875 6.0625 14.984375 16.46875q5.03125 10.390625 5.03125 23.75l0 4.15625q0 1.90625 -1.21875 3.125q-1.203125 1.203125 -3.109375 1.203125l-55.46875 0q0 0.171875 0 0.53125q0 0.34375 0 0.6875q0.171875 5.015625 1.8125 9.1875q1.65625 4.15625 4.859375 6.59375q3.203125 2.421875 7.890625 2.421875q3.46875 0 5.796875 -1.125q2.34375 -1.140625 3.90625 -2.609375q1.5625 -1.46875 2.421875 -2.515625q1.5625 -1.90625 2.515625 -2.328125q0.953125 -0.4375 3.03125 -0.4375l21.5 0q1.734375 0 2.859375 1.046875q1.125 1.03125 0.953125 2.765625q-0.171875 2.9375 -2.953125 7.109375q-2.765625 4.15625 -8.0625 8.234375q-5.28125 4.0625 -13.265625 6.671875q-7.96875 2.59375 -18.53125 2.59375zm-14.734375 -55.984375l29.296875 0l0 -0.34375q0 -5.71875 -1.65625 -9.796875q-1.640625 -4.078125 -5.03125 -6.328125q-3.375 -2.25 -8.046875 -2.25q-4.515625 0 -7.8125 2.25q-3.28125 2.25 -5.015625 6.328125q-1.734375 4.078125 -1.734375 9.796875l0 0.34375zm104.69336 54.25q-2.609375 0 -3.828125 -1.296875q-1.203125 -1.296875 -2.0625 -3.03125l-32.765625 -80.421875q-0.34375 -0.703125 -0.34375 -1.5625q0 -1.5625 1.125 -2.6875q1.125 -1.125 2.859375 -1.125l19.578125 0q2.265625 0 3.46875 1.21875q1.21875 1.203125 1.5625 2.421875l19.59375 53.203125l19.75 -53.203125q0.34375 -1.21875 1.5625 -2.421875q1.21875 -1.21875 3.46875 -1.21875l19.578125 0q1.5625 0 2.78125 1.125q1.21875 1.125 1.21875 2.6875q0 0.859375 -0.359375 1.5625l-32.75 80.421875q-0.703125 1.734375 -2.0 3.03125q-1.296875 1.296875 -4.0625 1.296875l-18.375 0zm109.194824 1.734375q-20.453125 0 -32.59375 -11.09375q-12.125 -11.09375 -12.640625 -32.9375q0 -1.203125 0 -3.109375q0 -1.90625 0 -2.953125q0.515625 -13.6875 6.140625 -23.484375q5.640625 -9.796875 15.609375 -14.90625q9.96875 -5.109375 23.3125 -5.109375q15.25 0 25.21875 6.0625q9.96875 6.0625 14.984375 16.46875q5.03125 10.390625 5.03125 23.75l0 4.15625q0 1.90625 -1.21875 3.125q-1.203125 1.203125 -3.109375 1.203125l-55.46875 0q0 0.171875 0 0.53125q0 0.34375 0 0.6875q0.171875 5.015625 1.8125 9.1875q1.65625 4.15625 4.859375 6.59375q3.203125 2.421875 7.890625 2.421875q3.46875 0 5.796875 -1.125q2.34375 -1.140625 3.90625 -2.609375q1.5625 -1.46875 2.421875 -2.515625q1.5625 -1.90625 2.515625 -2.328125q0.953125 -0.4375 3.03125 -0.4375l21.5 0q1.734375 0 2.859375 1.046875q1.125 1.03125 0.953125 2.765625q-0.171875 2.9375 -2.953125 7.109375q-2.765625 4.15625 -8.0625 8.234375q-5.28125 4.0625 -13.265625 6.671875q-7.96875 2.59375 -18.53125 2.59375zm-14.734375 -55.984375l29.296875 0l0 -0.34375q0 -5.71875 -1.65625 -9.796875q-1.640625 -4.078125 -5.03125 -6.328125q-3.375 -2.25 -8.046875 -2.25q-4.515625 0 -7.8125 2.25q-3.28125 2.25 -5.015625 6.328125q-1.734375 4.078125 -1.734375 9.796875l0 0.34375zm80.42566 54.25q-1.90625 0 -3.125 -1.296875q-1.21875 -1.296875 -1.21875 -3.03125l0 -114.40625q0 -1.90625 1.21875 -3.109375q1.21875 -1.21875 3.125 -1.21875l20.453125 0q1.90625 0 3.109375 1.21875q1.21875 1.203125 1.21875 3.109375l0 114.40625q0 1.734375 -1.21875 3.03125q-1.203125 1.296875 -3.109375 1.296875l-20.453125 0zm87.868774 1.734375q-14.546875 0 -24.515625 -4.671875q-9.96875 -4.6875 -15.265625 -13.4375q-5.28125 -8.75 -5.96875 -20.890625q-0.171875 -3.46875 -0.171875 -7.890625q0 -4.421875 0.171875 -7.703125q0.6875 -12.3125 6.234375 -20.96875q5.546875 -8.671875 15.515625 -13.34375q9.96875 -4.6875 24.0 -4.6875q14.21875 0 24.1875 4.6875q9.96875 4.671875 15.515625 13.34375q5.546875 8.65625 6.234375 20.96875q0.171875 3.28125 0.171875 7.703125q0 4.421875 -0.171875 7.890625q-0.6875 12.140625 -5.984375 20.890625q-5.28125 8.75 -15.25 13.4375q-9.96875 4.671875 -24.703125 4.671875zm0 -21.140625q7.8125 0 11.359375 -4.671875q3.546875 -4.6875 4.078125 -14.046875q0.171875 -2.609375 0.171875 -6.9375q0 -4.34375 -0.171875 -6.9375q-0.53125 -9.1875 -4.078125 -13.953125q-3.546875 -4.765625 -11.359375 -4.765625q-7.453125 0 -11.1875 4.765625q-3.71875 4.765625 -4.0625 13.953125q-0.171875 2.59375 -0.171875 6.9375q0 4.328125 0.171875 6.9375q0.34375 9.359375 4.0625 14.046875q3.734375 4.671875 11.1875 4.671875zm67.60669 52.34375q-1.90625 0 -3.125 -1.3125q-1.21875 -1.296875 -1.21875 -3.03125l0 -114.390625q0 -1.90625 1.21875 -3.109375q1.21875 -1.21875 3.125 -1.21875l19.578125 0q1.734375 0 3.03125 1.21875q1.3125 1.203125 1.3125 3.109375l0 6.234375q4.15625 -5.1875 10.734375 -8.734375q6.59375 -3.5625 16.125 -3.5625q8.671875 0 15.25 2.6875q6.59375 2.6875 11.359375 7.890625q4.765625 5.1875 7.359375 12.640625q2.609375 7.453125 2.953125 17.15625q0.171875 3.46875 0.171875 6.421875q0 2.9375 -0.171875 6.40625q-0.34375 9.359375 -2.953125 16.8125q-2.59375 7.453125 -7.28125 12.65625q-4.671875 5.203125 -11.34375 8.0625q-6.671875 2.859375 -15.34375 2.859375q-8.484375 0 -14.8125 -3.03125q-6.328125 -3.03125 -10.5 -8.578125l0 38.46875q0 1.734375 -1.21875 3.03125q-1.203125 1.3125 -3.109375 1.3125l-21.140625 0zm41.421875 -54.4375q5.890625 0 9.1875 -2.421875q3.296875 -2.421875 4.765625 -6.578125q1.46875 -4.171875 1.828125 -9.1875q0.34375 -5.375 0 -10.75q-0.359375 -5.03125 -1.828125 -9.1875q-1.46875 -4.15625 -4.765625 -6.578125q-3.296875 -2.4375 -9.1875 -2.4375q-5.546875 0 -9.015625 2.515625q-3.46875 2.515625 -5.03125 6.5q-1.546875 3.984375 -1.90625 8.671875q-0.171875 3.28125 -0.171875 6.40625q0 3.125 0.171875 6.59375q0.1875 4.328125 1.90625 8.0625q1.734375 3.71875 5.203125 6.0625q3.46875 2.328125 8.84375 2.328125zm67.94824 21.5q-1.90625 0 -3.125 -1.296875q-1.21875 -1.296875 -1.21875 -3.03125l0 -81.46875q0 -1.90625 1.21875 -3.109375q1.21875 -1.21875 3.125 -1.21875l18.890625 0q1.90625 0 3.109375 1.21875q1.21875 1.203125 1.21875 3.109375l0 5.890625q3.46875 -4.671875 9.703125 -8.21875q6.25 -3.5625 14.734375 -3.734375q20.109375 -0.53125 27.5625 14.90625q3.984375 -6.59375 11.34375 -10.75q7.375 -4.15625 16.21875 -4.15625q9.015625 0 16.203125 4.078125q7.203125 4.0625 11.53125 12.46875q4.328125 8.40625 4.328125 21.75l0 49.234375q0 1.734375 -1.21875 3.03125q-1.203125 1.296875 -3.109375 1.296875l-20.109375 0q-1.90625 0 -3.203125 -1.296875q-1.296875 -1.296875 -1.296875 -3.03125l0 -48.015625q0 -6.0625 -1.734375 -9.609375q-1.734375 -3.5625 -4.6875 -5.125q-2.9375 -1.5625 -6.75 -1.5625q-3.125 0 -6.15625 1.5625q-3.03125 1.5625 -4.859375 5.125q-1.8125 3.546875 -1.8125 9.609375l0 48.015625q0 1.734375 -1.21875 3.03125q-1.21875 1.296875 -3.125 1.296875l-20.09375 0q-1.90625 0 -3.125 -1.296875q-1.21875 -1.296875 -1.21875 -3.03125l0 -48.015625q0 -6.0625 -1.90625 -9.609375q-1.90625 -3.5625 -4.859375 -5.125q-2.9375 -1.5625 -6.40625 -1.5625q-3.296875 0 -6.328125 1.5625q-3.03125 1.5625 -4.859375 5.125q-1.8125 3.546875 -1.8125 9.4375l0 48.1875q0 1.734375 -1.296875 3.03125q-1.296875 1.296875 -3.03125 1.296875l-20.625 0zm196.03406 1.734375q-20.453125 0 -32.59375 -11.09375q-12.124878 -11.09375 -12.640503 -32.9375q0 -1.203125 0 -3.109375q0 -1.90625 0 -2.953125q0.515625 -13.6875 6.140503 -23.484375q5.640625 -9.796875 15.609375 -14.90625q9.96875 -5.109375 23.3125 -5.109375q15.25 0 25.21875 6.0625q9.96875 6.0625 14.984375 16.46875q5.03125 10.390625 5.03125 23.75l0 4.15625q0 1.90625 -1.21875 3.125q-1.203125 1.203125 -3.109375 1.203125l-55.46875 0q0 0.171875 0 0.53125q0 0.34375 0 0.6875q0.171875 5.015625 1.8125 9.1875q1.65625 4.15625 4.859375 6.59375q3.203125 2.421875 7.890625 2.421875q3.46875 0 5.796875 -1.125q2.34375 -1.140625 3.90625 -2.609375q1.5625 -1.46875 2.421875 -2.515625q1.5625 -1.90625 2.515625 -2.328125q0.953125 -0.4375 3.03125 -0.4375l21.5 0q1.734375 0 2.859375 1.046875q1.125 1.03125 0.953125 2.765625q-0.171875 2.9375 -2.953125 7.109375q-2.765625 4.15625 -8.0625 8.234375q-5.28125 4.0625 -13.265625 6.671875q-7.96875 2.59375 -18.53125 2.59375zm-14.734375 -55.984375l29.296875 0l0 -0.34375q0 -5.71875 -1.65625 -9.796875q-1.640625 -4.078125 -5.03125 -6.328125q-3.375 -2.25 -8.046875 -2.25q-4.515625 0 -7.8125 2.25q-3.28125 2.25 -5.015625 6.328125q-1.734375 4.078125 -1.734375 9.796875l0 0.34375zm80.42578 54.25q-1.90625 0 -3.125 -1.296875q-1.21875 -1.296875 -1.21875 -3.03125l0 -81.46875q0 -1.90625 1.21875 -3.109375q1.21875 -1.21875 3.125 -1.21875l19.9375 0q1.90625 0 3.203125 1.21875q1.296875 1.203125 1.296875 3.109375l0 6.578125q4.328125 -5.359375 11.609375 -9.0q7.28125 -3.640625 17.15625 -3.640625q10.0625 0 17.765625 4.515625q7.71875 4.5 12.140625 13.171875q4.421875 8.65625 4.421875 21.484375l0 48.359375q0 1.734375 -1.21875 3.03125q-1.21875 1.296875 -3.125 1.296875l-21.828125 0q-1.734375 0 -3.046875 -1.296875q-1.296875 -1.296875 -1.296875 -3.03125l0 -47.328125q0 -8.140625 -3.90625 -12.5625q-3.890625 -4.421875 -11.515625 -4.421875q-7.109375 0 -11.359375 4.421875q-4.234375 4.421875 -4.234375 12.5625l0 47.328125q0 1.734375 -1.3125 3.03125q-1.296875 1.296875 -3.03125 1.296875l-21.65625 0zm152.34912 0q-11.09375 0 -19.15625 -3.546875q-8.046875 -3.5625 -12.390625 -11.09375q-4.328125 -7.546875 -4.328125 -19.5l0 -33.28125l-13.515625 0q-1.90625 0 -3.21875 -1.203125q-1.296875 -1.21875 -1.296875 -3.140625l0 -14.03125q0 -1.90625 1.296875 -3.109375q1.3125 -1.21875 3.21875 -1.21875l13.515625 0l0 -28.609375q0 -1.90625 1.296875 -3.109375q1.296875 -1.21875 3.03125 -1.21875l20.109375 0q1.90625 0 3.109375 1.21875q1.21875 1.203125 1.21875 3.109375l0 28.609375l21.671875 0q1.90625 0 3.203125 1.21875q1.296875 1.203125 1.296875 3.109375l0 14.03125q0 1.921875 -1.296875 3.140625q-1.296875 1.203125 -3.203125 1.203125l-21.671875 0l0 30.84375q0 5.90625 2.25 9.375q2.265625 3.453125 7.640625 3.453125l13.34375 0q1.90625 0 3.109375 1.21875q1.21875 1.21875 1.21875 3.125l0 15.078125q0 1.734375 -1.21875 3.03125q-1.203125 1.296875 -3.109375 1.296875l-16.125 0zm100.70459 0q-1.90625 0 -3.125 -1.296875q-1.203125 -1.296875 -1.203125 -3.03125l0 -89.796875l-30.859375 0q-1.90625 0 -3.125 -1.296875q-1.203125 -1.296875 -1.203125 -3.03125l0 -18.546875q0 -1.90625 1.203125 -3.109375q1.21875 -1.21875 3.125 -1.21875l93.25 0q1.90625 0 3.125 1.21875q1.21875 1.203125 1.21875 3.109375l0 18.546875q0 1.734375 -1.21875 3.03125q-1.21875 1.296875 -3.125 1.296875l-30.84375 0l0 89.796875q0 1.734375 -1.21875 3.03125q-1.21875 1.296875 -3.125 1.296875l-22.875 0zm88.052734 1.734375q-9.359375 0 -16.734375 -3.546875q-7.359375 -3.5625 -11.703125 -9.625q-4.328125 -6.0625 -4.328125 -13.6875q0 -12.3125 10.046875 -19.5q10.0625 -7.203125 26.703125 -9.796875l21.671875 -3.296875l0 -2.421875q0 -6.25 -2.609375 -9.53125q-2.59375 -3.296875 -9.53125 -3.296875q-4.84375 0 -7.890625 1.90625q-3.03125 1.90625 -4.765625 5.203125q-1.546875 2.25 -4.328125 2.25l-19.40625 0q-1.90625 0 -2.953125 -1.125q-1.03125 -1.125 -0.859375 -2.6875q0 -3.125 2.328125 -7.1875q2.34375 -4.078125 7.1875 -8.0625q4.859375 -4.0 12.484375 -6.59375q7.640625 -2.59375 18.546875 -2.59375q11.09375 0 19.0625 2.59375q7.984375 2.59375 13.0 7.28125q5.03125 4.6875 7.375 11.015625q2.34375 6.3125 2.34375 13.9375l0 52.703125q0 1.734375 -1.3125 3.03125q-1.296875 1.296875 -3.015625 1.296875l-20.109375 0q-1.90625 0 -3.125 -1.296875q-1.21875 -1.296875 -1.21875 -3.03125l0 -6.078125q-2.25 3.296875 -6.0625 6.078125q-3.8125 2.765625 -8.921875 4.40625q-5.109375 1.65625 -11.875 1.65625zm8.140625 -19.765625q5.03125 0 9.09375 -2.15625q4.078125 -2.171875 6.421875 -6.765625q2.34375 -4.59375 2.34375 -11.53125l0 -2.421875l-14.734375 2.59375q-8.140625 1.390625 -11.875 4.25q-3.71875 2.859375 -3.71875 6.671875q0 2.953125 1.734375 5.03125q1.734375 2.078125 4.59375 3.203125q2.859375 1.125 6.140625 1.125zm104.16992 19.765625q-11.265625 0 -19.15625 -2.515625q-7.875 -2.515625 -12.8125 -6.15625q-4.9375 -3.640625 -7.375 -7.53125q-2.421875 -3.90625 -2.59375 -6.84375q-0.171875 -1.90625 1.203125 -3.125q1.390625 -1.21875 2.953125 -1.21875l19.765625 0q0.515625 0 0.9375 0.171875q0.4375 0.171875 0.96875 0.703125q2.25 1.203125 4.5 3.03125q2.25 1.8125 5.203125 3.203125q2.953125 1.390625 7.109375 1.390625q4.84375 0 8.140625 -1.984375q3.296875 -2.0 3.296875 -5.640625q0 -2.78125 -1.5625 -4.59375q-1.5625 -1.828125 -6.328125 -3.5625q-4.765625 -1.734375 -14.296875 -3.46875q-9.015625 -2.078125 -15.78125 -5.453125q-6.75 -3.375 -10.390625 -8.828125q-3.640625 -5.46875 -3.640625 -13.265625q0 -6.9375 4.5 -13.34375q4.515625 -6.421875 13.171875 -10.484375q8.671875 -4.078125 21.5 -4.078125q9.875 0 17.328125 2.34375q7.453125 2.328125 12.484375 5.96875q5.03125 3.640625 7.625 7.453125q2.609375 3.8125 2.78125 6.9375q0.171875 1.734375 -1.046875 3.03125q-1.21875 1.296875 -2.765625 1.296875l-18.03125 0q-0.6875 0 -1.390625 -0.25q-0.6875 -0.265625 -1.21875 -0.609375q-2.078125 -1.046875 -4.15625 -2.78125q-2.078125 -1.734375 -4.859375 -3.109375q-2.765625 -1.390625 -6.921875 -1.390625q-4.6875 0 -7.28125 2.078125q-2.59375 2.078125 -2.59375 5.375q0 2.25 1.46875 4.15625q1.46875 1.90625 6.0625 3.46875q4.59375 1.5625 14.296875 3.46875q11.96875 1.90625 19.0625 6.15625q7.109375 4.234375 10.140625 9.875q3.046875 5.625 3.046875 11.875q0 8.3125 -5.03125 14.734375q-5.03125 6.40625 -14.65625 9.96875q-9.609375 3.546875 -23.65625 3.546875zm63.100586 -1.734375q-1.90625 0 -3.125 -1.296875q-1.21875 -1.296875 -1.21875 -3.03125l0 -114.40625q0 -1.90625 1.21875 -3.109375q1.21875 -1.21875 3.125 -1.21875l20.109375 0q1.734375 0 3.03125 1.21875q1.296875 1.203125 1.296875 3.109375l0 58.0625l24.09375 -26.515625q1.03125 -1.203125 2.25 -2.0625q1.21875 -0.875 3.46875 -0.875l23.21875 0q1.5625 0 2.6875 1.125q1.125 1.125 1.125 2.6875q0 0.6875 -0.265625 1.5625q-0.25 0.859375 -1.109375 1.375l-31.203125 33.625l35.53125 43.15625q1.390625 1.390625 1.390625 2.609375q0 1.734375 -1.125 2.859375q-1.125 1.125 -2.859375 1.125l-23.75 0q-2.609375 0 -3.828125 -0.953125q-1.203125 -0.953125 -2.234375 -2.0l-27.390625 -32.921875l0 31.546875q0 1.734375 -1.296875 3.03125q-1.296875 1.296875 -3.03125 1.296875l-20.109375 0z" fill-rule="nonzero"/></g></svg>